<?xml version="1.0" encoding="UTF-8" standalone="no"?>
<!DOCTYPE svg PUBLIC "-//W3C//DTD SVG 1.1//EN"
 "http://www.w3.org/Graphics/SVG/1.1/DTD/svg11.dtd">
<!-- Generated by graphviz version 2.43.0 (0)
 -->
<!-- Title: src/Camera.hpp Pages: 1 -->
<svg width="1213pt" height="84pt"
 viewBox="0.00 0.00 1212.50 84.00" xmlns="http://www.w3.org/2000/svg" xmlns:xlink="http://www.w3.org/1999/xlink">
<g id="graph0" class="graph" transform="scale(1 1) rotate(0) translate(4 80)">
<title>src/Camera.hpp</title>
<!-- Node1 -->
<g id="node1" class="node">
<title>Node1</title>
<g id="a_node1"><a xlink:title=" ">
<polygon fill="#bfbfbf" stroke="black" points="761,-56.5 761,-75.5 854,-75.5 854,-56.5 761,-56.5"/>
<text text-anchor="middle" x="807.5" y="-63.5" font-family="Helvetica,sans-Serif" font-size="10.00">src/Camera.hpp</text>
</a>
</g>
</g>
<!-- Node2 -->
<g id="node2" class="node">
<title>Node2</title>
<g id="a_node2"><a xlink:title=" ">
<polygon fill="none" stroke="#bfbfbf" points="0,-0.5 0,-19.5 99,-19.5 99,-0.5 0,-0.5"/>
<text text-anchor="middle" x="49.5" y="-7.5" font-family="Helvetica,sans-Serif" font-size="10.00">GenApi/GenApi.h</text>
</a>
</g>
</g>
<!-- Node1&#45;&gt;Node2 -->
<g id="edge1" class="edge">
<title>Node1&#45;&gt;Node2</title>
<path fill="none" stroke="midnightblue" d="M760.75,-63.4C649.68,-59.29 361.06,-46.84 109.11,-19.96"/>
<polygon fill="midnightblue" stroke="midnightblue" points="109.35,-16.47 99.03,-18.88 108.6,-23.43 109.35,-16.47"/>
</g>
<!-- Node3 -->
<g id="node3" class="node">
<title>Node3</title>
<g id="a_node3"><a xlink:title=" ">
<polygon fill="none" stroke="#bfbfbf" points="117.5,-0.5 117.5,-19.5 233.5,-19.5 233.5,-0.5 117.5,-0.5"/>
<text text-anchor="middle" x="175.5" y="-7.5" font-family="Helvetica,sans-Serif" font-size="10.00">opencv2/opencv.hpp</text>
</a>
</g>
</g>
<!-- Node1&#45;&gt;Node3 -->
<g id="edge2" class="edge">
<title>Node1&#45;&gt;Node3</title>
<path fill="none" stroke="midnightblue" d="M760.91,-62.15C665.78,-56.13 442.11,-41.04 243.61,-20.06"/>
<polygon fill="midnightblue" stroke="midnightblue" points="243.9,-16.58 233.58,-19 243.15,-23.54 243.9,-16.58"/>
</g>
<!-- Node4 -->
<g id="node4" class="node">
<title>Node4</title>
<g id="a_node4"><a xlink:title=" ">
<polygon fill="none" stroke="#bfbfbf" points="252,-0.5 252,-19.5 385,-19.5 385,-0.5 252,-0.5"/>
<text text-anchor="middle" x="318.5" y="-7.5" font-family="Helvetica,sans-Serif" font-size="10.00">rc_genicam_api/buffer.h</text>
</a>
</g>
</g>
<!-- Node1&#45;&gt;Node4 -->
<g id="edge3" class="edge">
<title>Node1&#45;&gt;Node4</title>
<path fill="none" stroke="midnightblue" d="M760.92,-60.11C686.06,-52.21 534.08,-36.02 395.13,-20.18"/>
<polygon fill="midnightblue" stroke="midnightblue" points="395.48,-16.69 385.15,-19.04 394.69,-23.65 395.48,-16.69"/>
</g>
<!-- Node5 -->
<g id="node5" class="node">
<title>Node5</title>
<g id="a_node5"><a xlink:title=" ">
<polygon fill="none" stroke="#bfbfbf" points="403,-0.5 403,-19.5 540,-19.5 540,-0.5 403,-0.5"/>
<text text-anchor="middle" x="471.5" y="-7.5" font-family="Helvetica,sans-Serif" font-size="10.00">rc_genicam_api/device.h</text>
</a>
</g>
</g>
<!-- Node1&#45;&gt;Node5 -->
<g id="edge4" class="edge">
<title>Node1&#45;&gt;Node5</title>
<path fill="none" stroke="midnightblue" d="M760.78,-57.49C701.9,-48.03 600.46,-31.73 534.7,-21.16"/>
<polygon fill="midnightblue" stroke="midnightblue" points="534.89,-17.64 524.46,-19.51 533.78,-24.55 534.89,-17.64"/>
</g>
<!-- Node6 -->
<g id="node6" class="node">
<title>Node6</title>
<g id="a_node6"><a xlink:title=" ">
<polygon fill="none" stroke="#bfbfbf" points="558.5,-0.5 558.5,-19.5 730.5,-19.5 730.5,-0.5 558.5,-0.5"/>
<text text-anchor="middle" x="644.5" y="-7.5" font-family="Helvetica,sans-Serif" font-size="10.00">rc_genicam_api/pixel_formats.h</text>
</a>
</g>
</g>
<!-- Node1&#45;&gt;Node6 -->
<g id="edge5" class="edge">
<title>Node1&#45;&gt;Node6</title>
<path fill="none" stroke="midnightblue" d="M781.67,-56.44C754.25,-47.36 710.72,-32.94 680.07,-22.78"/>
<polygon fill="midnightblue" stroke="midnightblue" points="680.8,-19.34 670.21,-19.52 678.6,-25.98 680.8,-19.34"/>
</g>
<!-- Node7 -->
<g id="node7" class="node">
<title>Node7</title>
<g id="a_node7"><a xlink:title=" ">
<polygon fill="none" stroke="#bfbfbf" points="748.5,-0.5 748.5,-19.5 798.5,-19.5 798.5,-0.5 748.5,-0.5"/>
<text text-anchor="middle" x="773.5" y="-7.5" font-family="Helvetica,sans-Serif" font-size="10.00">atomic</text>
</a>
</g>
</g>
<!-- Node1&#45;&gt;Node7 -->
<g id="edge6" class="edge">
<title>Node1&#45;&gt;Node7</title>
<path fill="none" stroke="midnightblue" d="M801.89,-56.08C797.13,-48.53 790.18,-37.49 784.35,-28.23"/>
<polygon fill="midnightblue" stroke="midnightblue" points="787.3,-26.35 779.01,-19.75 781.38,-30.08 787.3,-26.35"/>
</g>
<!-- Node8 -->
<g id="node8" class="node">
<title>Node8</title>
<g id="a_node8"><a xlink:title=" ">
<polygon fill="none" stroke="#bfbfbf" points="816.5,-0.5 816.5,-19.5 866.5,-19.5 866.5,-0.5 816.5,-0.5"/>
<text text-anchor="middle" x="841.5" y="-7.5" font-family="Helvetica,sans-Serif" font-size="10.00">cstdint</text>
</a>
</g>
</g>
<!-- Node1&#45;&gt;Node8 -->
<g id="edge7" class="edge">
<title>Node1&#45;&gt;Node8</title>
<path fill="none" stroke="midnightblue" d="M813.11,-56.08C817.87,-48.53 824.82,-37.49 830.65,-28.23"/>
<polygon fill="midnightblue" stroke="midnightblue" points="833.62,-30.08 835.99,-19.75 827.7,-26.35 833.62,-30.08"/>
</g>
<!-- Node9 -->
<g id="node9" class="node">
<title>Node9</title>
<g id="a_node9"><a xlink:title=" ">
<polygon fill="none" stroke="#bfbfbf" points="884.5,-0.5 884.5,-19.5 942.5,-19.5 942.5,-0.5 884.5,-0.5"/>
<text text-anchor="middle" x="913.5" y="-7.5" font-family="Helvetica,sans-Serif" font-size="10.00">memory</text>
</a>
</g>
</g>
<!-- Node1&#45;&gt;Node9 -->
<g id="edge8" class="edge">
<title>Node1&#45;&gt;Node9</title>
<path fill="none" stroke="midnightblue" d="M824.53,-56.32C841.53,-47.66 867.88,-34.24 887.49,-24.25"/>
<polygon fill="midnightblue" stroke="midnightblue" points="889.19,-27.31 896.51,-19.65 886.01,-21.08 889.19,-27.31"/>
</g>
<!-- Node10 -->
<g id="node10" class="node">
<title>Node10</title>
<g id="a_node10"><a xlink:title=" ">
<polygon fill="none" stroke="#bfbfbf" points="960.5,-0.5 960.5,-19.5 1008.5,-19.5 1008.5,-0.5 960.5,-0.5"/>
<text text-anchor="middle" x="984.5" y="-7.5" font-family="Helvetica,sans-Serif" font-size="10.00">mutex</text>
</a>
</g>
</g>
<!-- Node1&#45;&gt;Node10 -->
<g id="edge9" class="edge">
<title>Node1&#45;&gt;Node10</title>
<path fill="none" stroke="midnightblue" d="M835.55,-56.44C866.73,-46.93 917.1,-31.56 950.5,-21.37"/>
<polygon fill="midnightblue" stroke="midnightblue" points="951.74,-24.65 960.28,-18.39 949.7,-17.96 951.74,-24.65"/>
</g>
<!-- Node11 -->
<g id="node11" class="node">
<title>Node11</title>
<g id="a_node11"><a xlink:title=" ">
<polygon fill="none" stroke="#bfbfbf" points="1026.5,-0.5 1026.5,-19.5 1070.5,-19.5 1070.5,-0.5 1026.5,-0.5"/>
<text text-anchor="middle" x="1048.5" y="-7.5" font-family="Helvetica,sans-Serif" font-size="10.00">string</text>
</a>
</g>
</g>
<!-- Node1&#45;&gt;Node11 -->
<g id="edge10" class="edge">
<title>Node1&#45;&gt;Node11</title>
<path fill="none" stroke="midnightblue" d="M851.96,-56.43C892.45,-48.42 954.08,-35.68 1016.23,-20.19"/>
<polygon fill="midnightblue" stroke="midnightblue" points="1017.36,-23.51 1026.2,-17.68 1015.65,-16.73 1017.36,-23.51"/>
</g>
<!-- Node12 -->
<g id="node12" class="node">
<title>Node12</title>
<g id="a_node12"><a xlink:title=" ">
<polygon fill="none" stroke="#bfbfbf" points="1089,-0.5 1089,-19.5 1136,-19.5 1136,-0.5 1089,-0.5"/>
<text text-anchor="middle" x="1112.5" y="-7.5" font-family="Helvetica,sans-Serif" font-size="10.00">vector</text>
</a>
</g>
</g>
<!-- Node1&#45;&gt;Node12 -->
<g id="edge11" class="edge">
<title>Node1&#45;&gt;Node12</title>
<path fill="none" stroke="midnightblue" d="M854.46,-58.72C906.83,-51.39 994.2,-38.17 1078.75,-19.97"/>
<polygon fill="midnightblue" stroke="midnightblue" points="1079.75,-23.33 1088.78,-17.78 1078.26,-16.49 1079.75,-23.33"/>
</g>
<!-- Node13 -->
<g id="node13" class="node">
<title>Node13</title>
<g id="a_node13"><a xlink:title=" ">
<polygon fill="none" stroke="#bfbfbf" points="1154.5,-0.5 1154.5,-19.5 1204.5,-19.5 1204.5,-0.5 1154.5,-0.5"/>
<text text-anchor="middle" x="1179.5" y="-7.5" font-family="Helvetica,sans-Serif" font-size="10.00">chrono</text>
</a>
</g>
</g>
<!-- Node1&#45;&gt;Node13 -->
<g id="edge12" class="edge">
<title>Node1&#45;&gt;Node13</title>
<path fill="none" stroke="midnightblue" d="M854,-60.69C917.53,-54.38 1035.13,-41.25 1144.46,-19.99"/>
<polygon fill="midnightblue" stroke="midnightblue" points="1145.2,-23.41 1154.33,-18.04 1143.84,-16.54 1145.2,-23.41"/>
</g>
</g>
</svg>
