<?xml version="1.0" encoding="UTF-8" standalone="no"?>
<!DOCTYPE svg PUBLIC "-//W3C//DTD SVG 1.1//EN"
 "http://www.w3.org/Graphics/SVG/1.1/DTD/svg11.dtd">
<!-- Generated by graphviz version 2.43.0 (0)
 -->
<!-- Title: src/Camera.hpp Pages: 1 -->
<svg width="789pt" height="252pt"
 viewBox="0.00 0.00 789.10 252.00" xmlns="http://www.w3.org/2000/svg" xmlns:xlink="http://www.w3.org/1999/xlink">
<g id="graph0" class="graph" transform="scale(1 1) rotate(0) translate(4 248)">
<title>src/Camera.hpp</title>
<!-- Node1 -->
<g id="node1" class="node">
<title>Node1</title>
<g id="a_node1"><a xlink:title=" ">
<polygon fill="#bfbfbf" stroke="black" points="432.5,-224.5 432.5,-243.5 525.5,-243.5 525.5,-224.5 432.5,-224.5"/>
<text text-anchor="middle" x="479" y="-231.5" font-family="Helvetica,sans-Serif" font-size="10.00">src/Camera.hpp</text>
</a>
</g>
</g>
<!-- Node2 -->
<g id="node2" class="node">
<title>Node2</title>
<g id="a_node2"><a xlink:href="Camera_8cpp.html" target="_top" xlink:title=" ">
<polygon fill="none" stroke="black" points="0,-168.5 0,-187.5 92,-187.5 92,-168.5 0,-168.5"/>
<text text-anchor="middle" x="46" y="-175.5" font-family="Helvetica,sans-Serif" font-size="10.00">src/Camera.cpp</text>
</a>
</g>
</g>
<!-- Node1&#45;&gt;Node2 -->
<g id="edge1" class="edge">
<title>Node1&#45;&gt;Node2</title>
<path fill="none" stroke="midnightblue" d="M422.05,-226.65C348.84,-218.36 217.82,-203.13 106,-188 101.51,-187.39 96.84,-186.74 92.17,-186.06"/>
<polygon fill="midnightblue" stroke="midnightblue" points="422.1,-230.17 432.42,-227.82 422.88,-223.22 422.1,-230.17"/>
</g>
<!-- Node3 -->
<g id="node3" class="node">
<title>Node3</title>
<g id="a_node3"><a xlink:href="DeviceManager_8cpp.html" target="_top" xlink:title=" ">
<polygon fill="none" stroke="black" points="148,-112.5 148,-131.5 278,-131.5 278,-112.5 148,-112.5"/>
<text text-anchor="middle" x="213" y="-119.5" font-family="Helvetica,sans-Serif" font-size="10.00">src/DeviceManager.cpp</text>
</a>
</g>
</g>
<!-- Node1&#45;&gt;Node3 -->
<g id="edge2" class="edge">
<title>Node1&#45;&gt;Node3</title>
<path fill="none" stroke="midnightblue" d="M422.51,-226.95C383.13,-221.04 330.27,-209.62 288,-188 259.47,-173.41 232.8,-145.71 220.36,-131.65"/>
<polygon fill="midnightblue" stroke="midnightblue" points="422.08,-230.43 432.48,-228.37 423.07,-223.5 422.08,-230.43"/>
</g>
<!-- Node4 -->
<g id="node4" class="node">
<title>Node4</title>
<g id="a_node4"><a xlink:href="DeviceManager_8hpp.html" target="_top" xlink:title=" ">
<polygon fill="none" stroke="black" points="297.5,-168.5 297.5,-187.5 428.5,-187.5 428.5,-168.5 297.5,-168.5"/>
<text text-anchor="middle" x="363" y="-175.5" font-family="Helvetica,sans-Serif" font-size="10.00">src/DeviceManager.hpp</text>
</a>
</g>
</g>
<!-- Node1&#45;&gt;Node4 -->
<g id="edge3" class="edge">
<title>Node1&#45;&gt;Node4</title>
<path fill="none" stroke="midnightblue" d="M451.28,-220.1C429.61,-210.01 400.1,-196.27 381.29,-187.52"/>
<polygon fill="midnightblue" stroke="midnightblue" points="450.08,-223.4 460.62,-224.44 453.03,-217.05 450.08,-223.4"/>
</g>
<!-- Node5 -->
<g id="node5" class="node">
<title>Node5</title>
<g id="a_node5"><a xlink:href="NetworkManager_8cpp.html" target="_top" xlink:title=" ">
<polygon fill="none" stroke="black" points="410.5,-112.5 410.5,-131.5 547.5,-131.5 547.5,-112.5 410.5,-112.5"/>
<text text-anchor="middle" x="479" y="-119.5" font-family="Helvetica,sans-Serif" font-size="10.00">src/NetworkManager.cpp</text>
</a>
</g>
</g>
<!-- Node1&#45;&gt;Node5 -->
<g id="edge12" class="edge">
<title>Node1&#45;&gt;Node5</title>
<path fill="none" stroke="midnightblue" d="M479,-214.35C479,-190.25 479,-149.31 479,-131.59"/>
<polygon fill="midnightblue" stroke="midnightblue" points="475.5,-214.37 479,-224.37 482.5,-214.37 475.5,-214.37"/>
</g>
<!-- Node6 -->
<g id="node6" class="node">
<title>Node6</title>
<g id="a_node6"><a xlink:href="StreamManager_8cpp.html" target="_top" xlink:title=" ">
<polygon fill="none" stroke="black" points="184.5,-56.5 184.5,-75.5 315.5,-75.5 315.5,-56.5 184.5,-56.5"/>
<text text-anchor="middle" x="250" y="-63.5" font-family="Helvetica,sans-Serif" font-size="10.00">src/StreamManager.cpp</text>
</a>
</g>
</g>
<!-- Node1&#45;&gt;Node6 -->
<g id="edge21" class="edge">
<title>Node1&#45;&gt;Node6</title>
<path fill="none" stroke="midnightblue" d="M422.55,-225.21C333.99,-211.63 169.34,-180.34 139,-132 120.54,-102.59 165.46,-84.92 203.57,-75.59"/>
<polygon fill="midnightblue" stroke="midnightblue" points="422.03,-228.67 432.44,-226.71 423.07,-221.75 422.03,-228.67"/>
</g>
<!-- Node7 -->
<g id="node7" class="node">
<title>Node7</title>
<g id="a_node7"><a xlink:href="SystemManager_8cpp.html" target="_top" xlink:title=" ">
<polygon fill="none" stroke="black" points="536.5,-0.5 536.5,-19.5 669.5,-19.5 669.5,-0.5 536.5,-0.5"/>
<text text-anchor="middle" x="603" y="-7.5" font-family="Helvetica,sans-Serif" font-size="10.00">src/SystemManager.cpp</text>
</a>
</g>
</g>
<!-- Node1&#45;&gt;Node7 -->
<g id="edge23" class="edge">
<title>Node1&#45;&gt;Node7</title>
<path fill="none" stroke="midnightblue" d="M535.82,-229.74C601.15,-224.84 702.98,-213.31 731,-188 775.8,-147.54 799.45,-104.12 763,-56 750.32,-39.27 700.37,-27.02 659.61,-19.56"/>
<polygon fill="midnightblue" stroke="midnightblue" points="535.39,-226.26 525.67,-230.47 535.89,-233.25 535.39,-226.26"/>
</g>
<!-- Node8 -->
<g id="node8" class="node">
<title>Node8</title>
<g id="a_node8"><a xlink:href="SystemManager_8hpp.html" target="_top" xlink:title=" ">
<polygon fill="none" stroke="black" points="584,-56.5 584,-75.5 718,-75.5 718,-56.5 584,-56.5"/>
<text text-anchor="middle" x="651" y="-63.5" font-family="Helvetica,sans-Serif" font-size="10.00">src/SystemManager.hpp</text>
</a>
</g>
</g>
<!-- Node1&#45;&gt;Node8 -->
<g id="edge24" class="edge">
<title>Node1&#45;&gt;Node8</title>
<path fill="none" stroke="midnightblue" d="M535.71,-229.02C595.96,-223.61 685.81,-211.74 710,-188 734.41,-164.05 738.48,-141.96 722,-112 712.29,-94.35 692.42,-82.66 676.16,-75.62"/>
<polygon fill="midnightblue" stroke="midnightblue" points="535.23,-225.55 525.57,-229.9 535.83,-232.53 535.23,-225.55"/>
</g>
<!-- Node10 -->
<g id="node10" class="node">
<title>Node10</title>
<g id="a_node10"><a xlink:href="NetworkManager_8hpp.html" target="_top" xlink:title=" ">
<polygon fill="none" stroke="black" points="563,-168.5 563,-187.5 701,-187.5 701,-168.5 563,-168.5"/>
<text text-anchor="middle" x="632" y="-175.5" font-family="Helvetica,sans-Serif" font-size="10.00">src/NetworkManager.hpp</text>
</a>
</g>
</g>
<!-- Node1&#45;&gt;Node10 -->
<g id="edge13" class="edge">
<title>Node1&#45;&gt;Node10</title>
<path fill="none" stroke="midnightblue" d="M512.89,-221.04C541.68,-210.88 582.29,-196.55 607.87,-187.52"/>
<polygon fill="midnightblue" stroke="midnightblue" points="511.51,-217.81 503.24,-224.44 513.84,-224.42 511.51,-217.81"/>
</g>
<!-- Node11 -->
<g id="node11" class="node">
<title>Node11</title>
<g id="a_node11"><a xlink:href="StreamManager_8hpp.html" target="_top" xlink:title=" ">
<polygon fill="none" stroke="black" points="566,-112.5 566,-131.5 698,-131.5 698,-112.5 566,-112.5"/>
<text text-anchor="middle" x="632" y="-119.5" font-family="Helvetica,sans-Serif" font-size="10.00">src/StreamManager.hpp</text>
</a>
</g>
</g>
<!-- Node1&#45;&gt;Node11 -->
<g id="edge22" class="edge">
<title>Node1&#45;&gt;Node11</title>
<path fill="none" stroke="midnightblue" d="M495.06,-217.48C509.76,-203.67 532.45,-183.35 554,-168 574,-153.76 598.8,-140.06 615,-131.6"/>
<polygon fill="midnightblue" stroke="midnightblue" points="492.61,-214.98 487.77,-224.41 497.43,-220.05 492.61,-214.98"/>
</g>
<!-- Node4&#45;&gt;Node3 -->
<g id="edge4" class="edge">
<title>Node4&#45;&gt;Node3</title>
<path fill="none" stroke="midnightblue" d="M329.78,-165.04C301.55,-154.88 261.74,-140.55 236.66,-131.52"/>
<polygon fill="midnightblue" stroke="midnightblue" points="328.64,-168.35 339.23,-168.44 331.01,-161.76 328.64,-168.35"/>
</g>
<!-- Node4&#45;&gt;Node5 -->
<g id="edge5" class="edge">
<title>Node4&#45;&gt;Node5</title>
<path fill="none" stroke="midnightblue" d="M390.72,-164.1C412.39,-154.01 441.9,-140.27 460.71,-131.52"/>
<polygon fill="midnightblue" stroke="midnightblue" points="388.97,-161.05 381.38,-168.44 391.92,-167.4 388.97,-161.05"/>
</g>
<!-- Node4&#45;&gt;Node6 -->
<g id="edge6" class="edge">
<title>Node4&#45;&gt;Node6</title>
<path fill="none" stroke="midnightblue" d="M346.77,-161.21C322.55,-137.63 277.77,-94.03 258.83,-75.59"/>
<polygon fill="midnightblue" stroke="midnightblue" points="344.53,-163.9 354.13,-168.37 349.41,-158.89 344.53,-163.9"/>
</g>
<!-- Node4&#45;&gt;Node7 -->
<g id="edge7" class="edge">
<title>Node4&#45;&gt;Node7</title>
<path fill="none" stroke="midnightblue" d="M363.33,-158.3C364.51,-144.13 368.2,-124.97 379,-112 424.17,-57.74 504.56,-31.43 555.75,-19.6"/>
<polygon fill="midnightblue" stroke="midnightblue" points="359.83,-158.21 362.84,-168.37 366.82,-158.55 359.83,-158.21"/>
</g>
<!-- Node4&#45;&gt;Node8 -->
<g id="edge8" class="edge">
<title>Node4&#45;&gt;Node8</title>
<path fill="none" stroke="midnightblue" d="M369.21,-158.47C375.21,-143.52 385.79,-123.2 402,-112 430.82,-92.09 520.39,-79.52 583.82,-72.87"/>
<polygon fill="midnightblue" stroke="midnightblue" points="365.8,-157.61 365.64,-168.2 372.37,-160.02 365.8,-157.61"/>
</g>
<!-- Node8&#45;&gt;Node7 -->
<g id="edge10" class="edge">
<title>Node8&#45;&gt;Node7</title>
<path fill="none" stroke="midnightblue" d="M636.27,-48.43C627.86,-38.97 617.65,-27.48 610.78,-19.75"/>
<polygon fill="midnightblue" stroke="midnightblue" points="633.81,-50.93 643.07,-56.08 639.05,-46.28 633.81,-50.93"/>
</g>
<!-- Node8&#45;&gt;Node8 -->
<g id="edge11" class="edge">
<title>Node8&#45;&gt;Node8</title>
<path fill="none" stroke="midnightblue" d="M697.27,-76.33C718.03,-77.33 736,-73.88 736,-66 736,-56.87 711.89,-53.69 687.25,-56.47"/>
<polygon fill="midnightblue" stroke="midnightblue" points="697.5,-72.84 687.25,-75.53 696.94,-79.82 697.5,-72.84"/>
</g>
<!-- Node9 -->
<g id="node9" class="node">
<title>Node9</title>
<g id="a_node9"><a xlink:href="main_8cpp.html" target="_top" xlink:title=" ">
<polygon fill="none" stroke="black" points="687.5,-0.5 687.5,-19.5 766.5,-19.5 766.5,-0.5 687.5,-0.5"/>
<text text-anchor="middle" x="727" y="-7.5" font-family="Helvetica,sans-Serif" font-size="10.00">src/main.cpp</text>
</a>
</g>
</g>
<!-- Node8&#45;&gt;Node9 -->
<g id="edge9" class="edge">
<title>Node8&#45;&gt;Node9</title>
<path fill="none" stroke="midnightblue" d="M671.58,-50.38C685.31,-40.62 702.93,-28.11 714.57,-19.83"/>
<polygon fill="midnightblue" stroke="midnightblue" points="669.34,-47.68 663.21,-56.32 673.39,-53.38 669.34,-47.68"/>
</g>
<!-- Node10&#45;&gt;Node5 -->
<g id="edge14" class="edge">
<title>Node10&#45;&gt;Node5</title>
<path fill="none" stroke="midnightblue" d="M598.11,-165.04C569.32,-154.88 528.71,-140.55 503.13,-131.52"/>
<polygon fill="midnightblue" stroke="midnightblue" points="597.16,-168.42 607.76,-168.44 599.49,-161.81 597.16,-168.42"/>
</g>
<!-- Node10&#45;&gt;Node7 -->
<g id="edge19" class="edge">
<title>Node10&#45;&gt;Node7</title>
<path fill="none" stroke="midnightblue" d="M670.74,-164.75C688.29,-157.56 708.16,-146.9 722,-132 746.01,-106.14 765.85,-84.48 745,-56 733.47,-40.25 686.13,-27.42 649.25,-19.55"/>
<polygon fill="midnightblue" stroke="midnightblue" points="669.36,-161.53 661.28,-168.39 671.87,-168.06 669.36,-161.53"/>
</g>
<!-- Node10&#45;&gt;Node8 -->
<g id="edge20" class="edge">
<title>Node10&#45;&gt;Node8</title>
<path fill="none" stroke="midnightblue" d="M668.71,-164.27C683.34,-157.18 698.65,-146.74 707,-132 719.84,-109.32 688.96,-87.27 668.13,-75.59"/>
<polygon fill="midnightblue" stroke="midnightblue" points="667,-161.2 659.28,-168.45 669.84,-167.6 667,-161.2"/>
</g>
<!-- Node10&#45;&gt;Node11 -->
<g id="edge15" class="edge">
<title>Node10&#45;&gt;Node11</title>
<path fill="none" stroke="midnightblue" d="M632,-157.8C632,-148.91 632,-138.78 632,-131.75"/>
<polygon fill="midnightblue" stroke="midnightblue" points="628.5,-158.08 632,-168.08 635.5,-158.08 628.5,-158.08"/>
</g>
<!-- Node11&#45;&gt;Node6 -->
<g id="edge16" class="edge">
<title>Node11&#45;&gt;Node6</title>
<path fill="none" stroke="midnightblue" d="M561.56,-111.04C489.41,-100.84 378.44,-85.16 310.25,-75.52"/>
<polygon fill="midnightblue" stroke="midnightblue" points="561.08,-114.51 571.47,-112.44 562.06,-107.58 561.08,-114.51"/>
</g>
<!-- Node11&#45;&gt;Node7 -->
<g id="edge17" class="edge">
<title>Node11&#45;&gt;Node7</title>
<path fill="none" stroke="midnightblue" d="M605.33,-107.22C593.75,-99.7 581.4,-89.2 575,-76 565.35,-56.1 583.12,-32.05 594.51,-19.52"/>
<polygon fill="midnightblue" stroke="midnightblue" points="603.55,-110.23 613.92,-112.39 607.16,-104.23 603.55,-110.23"/>
</g>
<!-- Node11&#45;&gt;Node8 -->
<g id="edge18" class="edge">
<title>Node11&#45;&gt;Node8</title>
<path fill="none" stroke="midnightblue" d="M638.55,-102.4C641.72,-93.36 645.39,-82.94 647.92,-75.75"/>
<polygon fill="midnightblue" stroke="midnightblue" points="635.15,-101.49 635.14,-112.08 641.76,-103.81 635.15,-101.49"/>
</g>
</g>
</svg>
