<?xml version="1.0" encoding="UTF-8" standalone="no"?>
<!DOCTYPE svg PUBLIC "-//W3C//DTD SVG 1.1//EN"
 "http://www.w3.org/Graphics/SVG/1.1/DTD/svg11.dtd">
<!-- Generated by graphviz version 2.43.0 (0)
 -->
<!-- Title: Camera::decimalToIP Pages: 1 -->
<svg width="554pt" height="47pt"
 viewBox="0.00 0.00 554.00 47.00" xmlns="http://www.w3.org/2000/svg" xmlns:xlink="http://www.w3.org/1999/xlink">
<g id="graph0" class="graph" transform="scale(1 1) rotate(0) translate(4 43)">
<title>Camera::decimalToIP</title>
<!-- Node1 -->
<g id="node1" class="node">
<title>Node1</title>
<g id="a_node1"><a xlink:title=" ">
<polygon fill="#bfbfbf" stroke="black" points="427,-19.5 427,-38.5 546,-38.5 546,-19.5 427,-19.5"/>
<text text-anchor="middle" x="486.5" y="-26.5" font-family="Helvetica,sans-Serif" font-size="10.00">Camera::decimalToIP</text>
</a>
</g>
</g>
<!-- Node2 -->
<g id="node2" class="node">
<title>Node2</title>
<g id="a_node2"><a xlink:href="classCamera.html#ae840f24b0124bdbce1f84f9a345458fa" target="_top" xlink:title=" ">
<polygon fill="none" stroke="black" points="135,-19.5 135,-38.5 257,-38.5 257,-19.5 135,-19.5"/>
<text text-anchor="middle" x="196" y="-26.5" font-family="Helvetica,sans-Serif" font-size="10.00">Camera::getCurrentIP</text>
</a>
</g>
</g>
<!-- Node1&#45;&gt;Node2 -->
<g id="edge1" class="edge">
<title>Node1&#45;&gt;Node2</title>
<path fill="none" stroke="midnightblue" d="M416.66,-29C368.09,-29 303.65,-29 257.14,-29"/>
<polygon fill="midnightblue" stroke="midnightblue" points="416.77,-32.5 426.77,-29 416.77,-25.5 416.77,-32.5"/>
</g>
<!-- Node4 -->
<g id="node4" class="node">
<title>Node4</title>
<g id="a_node4"><a xlink:href="classCamera.html#ad53ddaba9bcc76a479020938de83daab" target="_top" xlink:title=" ">
<polygon fill="none" stroke="black" points="293,-0.5 293,-19.5 391,-19.5 391,-0.5 293,-0.5"/>
<text text-anchor="middle" x="342" y="-7.5" font-family="Helvetica,sans-Serif" font-size="10.00">Camera::hexToIP</text>
</a>
</g>
</g>
<!-- Node1&#45;&gt;Node4 -->
<g id="edge3" class="edge">
<title>Node1&#45;&gt;Node4</title>
<path fill="none" stroke="midnightblue" d="M416.67,-19.82C408.07,-18.68 399.43,-17.52 391.23,-16.43"/>
<polygon fill="midnightblue" stroke="midnightblue" points="416.34,-23.31 426.72,-21.16 417.27,-16.37 416.34,-23.31"/>
</g>
<!-- Node3 -->
<g id="node3" class="node">
<title>Node3</title>
<g id="a_node3"><a xlink:href="classCamera.html#a0d85161da34e7db40ee85d8a8adadcbc" target="_top" xlink:title=" ">
<polygon fill="none" stroke="black" points="0,-19.5 0,-38.5 99,-38.5 99,-19.5 0,-19.5"/>
<text text-anchor="middle" x="49.5" y="-26.5" font-family="Helvetica,sans-Serif" font-size="10.00">Camera::Camera</text>
</a>
</g>
</g>
<!-- Node2&#45;&gt;Node3 -->
<g id="edge2" class="edge">
<title>Node2&#45;&gt;Node3</title>
<path fill="none" stroke="midnightblue" d="M124.82,-29C116.13,-29 107.4,-29 99.13,-29"/>
<polygon fill="midnightblue" stroke="midnightblue" points="124.97,-32.5 134.97,-29 124.97,-25.5 124.97,-32.5"/>
</g>
<!-- Node4&#45;&gt;Node2 -->
<g id="edge4" class="edge">
<title>Node4&#45;&gt;Node2</title>
<path fill="none" stroke="midnightblue" d="M282.61,-17.7C274.25,-18.81 265.64,-19.94 257.25,-21.05"/>
<polygon fill="midnightblue" stroke="midnightblue" points="283.19,-21.16 292.65,-16.38 282.28,-14.22 283.19,-21.16"/>
</g>
</g>
</svg>
