<?xml version="1.0" encoding="UTF-8" standalone="no"?>
<!DOCTYPE svg PUBLIC "-//W3C//DTD SVG 1.1//EN"
 "http://www.w3.org/Graphics/SVG/1.1/DTD/svg11.dtd">
<!-- Generated by graphviz version 2.43.0 (0)
 -->
<!-- Title: NetworkManager::enablePtp Pages: 1 -->
<svg width="679pt" height="75pt"
 viewBox="0.00 0.00 679.00 74.50" xmlns="http://www.w3.org/2000/svg" xmlns:xlink="http://www.w3.org/1999/xlink">
<g id="graph0" class="graph" transform="scale(1 1) rotate(0) translate(4 70.5)">
<title>NetworkManager::enablePtp</title>
<!-- Node1 -->
<g id="node1" class="node">
<title>Node1</title>
<g id="a_node1"><a xlink:title=" ">
<polygon fill="#bfbfbf" stroke="black" points="516,-19.5 516,-38.5 671,-38.5 671,-19.5 516,-19.5"/>
<text text-anchor="middle" x="593.5" y="-26.5" font-family="Helvetica,sans-Serif" font-size="10.00">NetworkManager::enablePtp</text>
</a>
</g>
</g>
<!-- Node2 -->
<g id="node2" class="node">
<title>Node2</title>
<g id="a_node2"><a xlink:href="classNetworkManager.html#a5131787ff8e8985e848e8456c1e6b202" target="_top" xlink:title=" ">
<polygon fill="none" stroke="black" points="313,-36 313,-66 480,-66 480,-36 313,-36"/>
<text text-anchor="start" x="321" y="-54" font-family="Helvetica,sans-Serif" font-size="10.00">NetworkManager::configurePtp</text>
<text text-anchor="middle" x="396.5" y="-43" font-family="Helvetica,sans-Serif" font-size="10.00">SyncFreeRun</text>
</a>
</g>
</g>
<!-- Node1&#45;&gt;Node2 -->
<g id="edge1" class="edge">
<title>Node1&#45;&gt;Node2</title>
<path fill="none" stroke="midnightblue" d="M506,-38.76C497.44,-39.73 488.75,-40.7 480.23,-41.67"/>
<polygon fill="midnightblue" stroke="midnightblue" points="506.45,-42.23 515.99,-37.63 505.66,-35.28 506.45,-42.23"/>
</g>
<!-- Node5 -->
<g id="node5" class="node">
<title>Node5</title>
<g id="a_node5"><a xlink:href="classSystemManager.html#af801ab01222b0c07d25a8fa780d423e4" target="_top" xlink:title=" ">
<polygon fill="none" stroke="black" points="101.5,-0.5 101.5,-19.5 252.5,-19.5 252.5,-0.5 101.5,-0.5"/>
<text text-anchor="middle" x="177" y="-7.5" font-family="Helvetica,sans-Serif" font-size="10.00">SystemManager::ptpEnable</text>
</a>
</g>
</g>
<!-- Node1&#45;&gt;Node5 -->
<g id="edge4" class="edge">
<title>Node1&#45;&gt;Node5</title>
<path fill="none" stroke="midnightblue" d="M505.64,-25.02C430.76,-21.59 323.77,-16.68 252.67,-13.42"/>
<polygon fill="midnightblue" stroke="midnightblue" points="505.84,-28.53 515.99,-25.49 506.16,-21.54 505.84,-28.53"/>
</g>
<!-- Node3 -->
<g id="node3" class="node">
<title>Node3</title>
<g id="a_node3"><a xlink:href="classSystemManager.html#addb2328a323747f21afb826811f288ab" target="_top" xlink:title=" ">
<polygon fill="none" stroke="black" points="77,-39.5 77,-58.5 277,-58.5 277,-39.5 77,-39.5"/>
<text text-anchor="middle" x="177" y="-46.5" font-family="Helvetica,sans-Serif" font-size="10.00">SystemManager::syncFreeRunStream</text>
</a>
</g>
</g>
<!-- Node2&#45;&gt;Node3 -->
<g id="edge2" class="edge">
<title>Node2&#45;&gt;Node3</title>
<path fill="none" stroke="midnightblue" d="M302.76,-50.15C294.33,-50.07 285.77,-49.99 277.29,-49.91"/>
<polygon fill="midnightblue" stroke="midnightblue" points="302.93,-53.65 312.96,-50.24 303,-46.65 302.93,-53.65"/>
</g>
<!-- Node4 -->
<g id="node4" class="node">
<title>Node4</title>
<g id="a_node4"><a xlink:href="main_8cpp.html#a0ddf1224851353fc92bfbff6f499fa97" target="_top" xlink:title=" ">
<polygon fill="none" stroke="black" points="0,-19.5 0,-38.5 41,-38.5 41,-19.5 0,-19.5"/>
<text text-anchor="middle" x="20.5" y="-26.5" font-family="Helvetica,sans-Serif" font-size="10.00">main</text>
</a>
</g>
</g>
<!-- Node3&#45;&gt;Node4 -->
<g id="edge3" class="edge">
<title>Node3&#45;&gt;Node4</title>
<path fill="none" stroke="midnightblue" d="M92.33,-38.17C73.18,-35.69 54.55,-33.28 41.21,-31.55"/>
<polygon fill="midnightblue" stroke="midnightblue" points="92,-41.66 102.37,-39.47 92.9,-34.71 92,-41.66"/>
</g>
<!-- Node5&#45;&gt;Node4 -->
<g id="edge5" class="edge">
<title>Node5&#45;&gt;Node4</title>
<path fill="none" stroke="midnightblue" d="M91.31,-20.41C72.54,-22.72 54.36,-24.96 41.26,-26.57"/>
<polygon fill="midnightblue" stroke="midnightblue" points="91.97,-23.86 101.47,-19.17 91.11,-16.91 91.97,-23.86"/>
</g>
</g>
</svg>
