<?xml version="1.0" encoding="UTF-8" standalone="no"?>
<!DOCTYPE svg PUBLIC "-//W3C//DTD SVG 1.1//EN"
 "http://www.w3.org/Graphics/SVG/1.1/DTD/svg11.dtd">
<!-- Generated by graphviz version 2.43.0 (0)
 -->
<!-- Title: DeviceManager::listCamera Pages: 1 -->
<svg width="595pt" height="39pt"
 viewBox="0.00 0.00 595.00 39.00" xmlns="http://www.w3.org/2000/svg" xmlns:xlink="http://www.w3.org/1999/xlink">
<g id="graph0" class="graph" transform="scale(1 1) rotate(0) translate(4 35)">
<title>DeviceManager::listCamera</title>
<!-- Node1 -->
<g id="node1" class="node">
<title>Node1</title>
<g id="a_node1"><a xlink:title=" ">
<polygon fill="#bfbfbf" stroke="black" points="435,-6 435,-25 587,-25 587,-6 435,-6"/>
<text text-anchor="middle" x="511" y="-13" font-family="Helvetica,sans-Serif" font-size="10.00">DeviceManager::listCamera</text>
</a>
</g>
</g>
<!-- Node2 -->
<g id="node2" class="node">
<title>Node2</title>
<g id="a_node2"><a xlink:href="classDeviceManager.html#a46948952d8a01fccc65158dec681858b" target="_top" xlink:title=" ">
<polygon fill="none" stroke="black" points="217,-6 217,-25 399,-25 399,-6 217,-6"/>
<text text-anchor="middle" x="308" y="-13" font-family="Helvetica,sans-Serif" font-size="10.00">DeviceManager::listopenCameras</text>
</a>
</g>
</g>
<!-- Node1&#45;&gt;Node2 -->
<g id="edge1" class="edge">
<title>Node1&#45;&gt;Node2</title>
<path fill="none" stroke="midnightblue" d="M424.71,-15.5C416.31,-15.5 407.76,-15.5 399.31,-15.5"/>
<polygon fill="midnightblue" stroke="midnightblue" points="424.87,-19 434.87,-15.5 424.87,-12 424.87,-19"/>
</g>
<!-- Node3 -->
<g id="node3" class="node">
<title>Node3</title>
<g id="a_node3"><a xlink:href="classSystemManager.html#a0e27d4254fc81a9fefe8bc3ad484fb11" target="_top" xlink:title=" ">
<polygon fill="none" stroke="black" points="0,-0.5 0,-30.5 181,-30.5 181,-0.5 0,-0.5"/>
<text text-anchor="start" x="8" y="-18.5" font-family="Helvetica,sans-Serif" font-size="10.00">SystemManager::enumerateOpen</text>
<text text-anchor="middle" x="90.5" y="-7.5" font-family="Helvetica,sans-Serif" font-size="10.00">Cameras</text>
</a>
</g>
</g>
<!-- Node2&#45;&gt;Node3 -->
<g id="edge2" class="edge">
<title>Node2&#45;&gt;Node3</title>
<path fill="none" stroke="midnightblue" d="M206.6,-15.5C198.15,-15.5 189.64,-15.5 181.28,-15.5"/>
<polygon fill="midnightblue" stroke="midnightblue" points="206.86,-19 216.86,-15.5 206.86,-12 206.86,-19"/>
</g>
</g>
</svg>
