<?xml version="1.0" encoding="UTF-8" standalone="no"?>
<!DOCTYPE svg PUBLIC "-//W3C//DTD SVG 1.1//EN"
 "http://www.w3.org/Graphics/SVG/1.1/DTD/svg11.dtd">
<!-- Generated by graphviz version 2.43.0 (0)
 -->
<!-- Title: SystemManager::initializeSystem Pages: 1 -->
<svg width="1147pt" height="94pt"
 viewBox="0.00 0.00 1147.00 93.50" xmlns="http://www.w3.org/2000/svg" xmlns:xlink="http://www.w3.org/1999/xlink">
<g id="graph0" class="graph" transform="scale(1 1) rotate(0) translate(4 89.5)">
<title>SystemManager::initializeSystem</title>
<!-- Node1 -->
<g id="node1" class="node">
<title>Node1</title>
<g id="a_node1"><a xlink:title=" ">
<polygon fill="#bfbfbf" stroke="black" points="0,-19.5 0,-38.5 181,-38.5 181,-19.5 0,-19.5"/>
<text text-anchor="middle" x="90.5" y="-26.5" font-family="Helvetica,sans-Serif" font-size="10.00">SystemManager::initializeSystem</text>
</a>
</g>
</g>
<!-- Node2 -->
<g id="node2" class="node">
<title>Node2</title>
<g id="a_node2"><a xlink:href="classSystemManager.html#ad083133600bc7f1b8f3946a5b6cb0e1a" target="_top" xlink:title=" ">
<polygon fill="none" stroke="black" points="217,-38.5 217,-57.5 416,-57.5 416,-38.5 217,-38.5"/>
<text text-anchor="middle" x="316.5" y="-45.5" font-family="Helvetica,sans-Serif" font-size="10.00">SystemManager::enumerateCameras</text>
</a>
</g>
</g>
<!-- Node1&#45;&gt;Node2 -->
<g id="edge1" class="edge">
<title>Node1&#45;&gt;Node2</title>
<path fill="none" stroke="midnightblue" d="M181.32,-36.62C189.72,-37.33 198.29,-38.06 206.83,-38.78"/>
<polygon fill="midnightblue" stroke="midnightblue" points="206.58,-42.27 216.84,-39.63 207.17,-35.3 206.58,-42.27"/>
</g>
<!-- Node7 -->
<g id="node7" class="node">
<title>Node7</title>
<g id="a_node7"><a xlink:href="SystemManager_8cpp.html#aa025f45ed88b3ae4067ae664cf12f853" target="_top" xlink:title=" ">
<polygon fill="none" stroke="black" points="276.5,-0.5 276.5,-19.5 356.5,-19.5 356.5,-0.5 276.5,-0.5"/>
<text text-anchor="middle" x="316.5" y="-7.5" font-family="Helvetica,sans-Serif" font-size="10.00">handleSignal</text>
</a>
</g>
</g>
<!-- Node1&#45;&gt;Node7 -->
<g id="edge6" class="edge">
<title>Node1&#45;&gt;Node7</title>
<path fill="none" stroke="midnightblue" d="M181.32,-21.38C210.18,-18.93 241.09,-16.31 265.96,-14.2"/>
<polygon fill="midnightblue" stroke="midnightblue" points="266.56,-17.66 276.22,-13.33 265.96,-10.69 266.56,-17.66"/>
</g>
<!-- Node3 -->
<g id="node3" class="node">
<title>Node3</title>
<g id="a_node3"><a xlink:href="classDeviceManager.html#a8a18f2eeb06ca5683d69aed675dbffcb" target="_top" xlink:title=" ">
<polygon fill="none" stroke="black" points="452,-60.5 452,-79.5 655,-79.5 655,-60.5 452,-60.5"/>
<text text-anchor="middle" x="553.5" y="-67.5" font-family="Helvetica,sans-Serif" font-size="10.00">DeviceManager::getAvailableCameras</text>
</a>
</g>
</g>
<!-- Node2&#45;&gt;Node3 -->
<g id="edge2" class="edge">
<title>Node2&#45;&gt;Node3</title>
<path fill="none" stroke="midnightblue" d="M416.14,-57.23C424.63,-58.03 433.25,-58.84 441.82,-59.64"/>
<polygon fill="midnightblue" stroke="midnightblue" points="441.57,-63.13 451.85,-60.58 442.22,-56.16 441.57,-63.13"/>
</g>
<!-- Node6 -->
<g id="node6" class="node">
<title>Node6</title>
<g id="a_node6"><a xlink:href="classDeviceManager.html#a8e9faffa5ae7cf3ce2e292219bb82c32" target="_top" xlink:title=" ">
<polygon fill="none" stroke="black" points="474,-11 474,-41 633,-41 633,-11 474,-11"/>
<text text-anchor="start" x="482" y="-29" font-family="Helvetica,sans-Serif" font-size="10.00">DeviceManager::listAvailable</text>
<text text-anchor="middle" x="553.5" y="-18" font-family="Helvetica,sans-Serif" font-size="10.00">CamerasByID</text>
</a>
</g>
</g>
<!-- Node2&#45;&gt;Node6 -->
<g id="edge5" class="edge">
<title>Node2&#45;&gt;Node6</title>
<path fill="none" stroke="midnightblue" d="M416.14,-38.77C431.9,-37.29 448.13,-35.77 463.65,-34.32"/>
<polygon fill="midnightblue" stroke="midnightblue" points="464.11,-37.79 473.74,-33.37 463.45,-30.82 464.11,-37.79"/>
</g>
<!-- Node4 -->
<g id="node4" class="node">
<title>Node4</title>
<g id="a_node4"><a xlink:href="classDeviceManager.html#ab0ab314042a5d622db73d67b3bbdedf4" target="_top" xlink:title=" ">
<polygon fill="none" stroke="black" points="691,-55 691,-85 882,-85 882,-55 691,-55"/>
<text text-anchor="start" x="699" y="-73" font-family="Helvetica,sans-Serif" font-size="10.00">DeviceManager::enumerateDevices</text>
<text text-anchor="middle" x="786.5" y="-62" font-family="Helvetica,sans-Serif" font-size="10.00">FromSystems</text>
</a>
</g>
</g>
<!-- Node3&#45;&gt;Node4 -->
<g id="edge3" class="edge">
<title>Node3&#45;&gt;Node4</title>
<path fill="none" stroke="midnightblue" d="M655.15,-70C663.53,-70 672.02,-70 680.44,-70"/>
<polygon fill="midnightblue" stroke="midnightblue" points="680.66,-73.5 690.66,-70 680.66,-66.5 680.66,-73.5"/>
</g>
<!-- Node5 -->
<g id="node5" class="node">
<title>Node5</title>
<g id="a_node5"><a xlink:href="classDeviceManager.html#a6374a294f1d0d15f18ab35aea1fb6158" target="_top" xlink:title=" ">
<polygon fill="none" stroke="black" points="918,-60.5 918,-79.5 1139,-79.5 1139,-60.5 918,-60.5"/>
<text text-anchor="middle" x="1028.5" y="-67.5" font-family="Helvetica,sans-Serif" font-size="10.00">DeviceManager::getAvailableCameraByID</text>
</a>
</g>
</g>
<!-- Node4&#45;&gt;Node5 -->
<g id="edge4" class="edge">
<title>Node4&#45;&gt;Node5</title>
<path fill="none" stroke="midnightblue" d="M882.01,-70C890.5,-70 899.16,-70 907.82,-70"/>
<polygon fill="midnightblue" stroke="midnightblue" points="907.98,-73.5 917.98,-70 907.98,-66.5 907.98,-73.5"/>
</g>
</g>
</svg>
