<?xml version="1.0" encoding="UTF-8" standalone="no"?>
<!DOCTYPE svg PUBLIC "-//W3C//DTD SVG 1.1//EN"
 "http://www.w3.org/Graphics/SVG/1.1/DTD/svg11.dtd">
<!-- Generated by graphviz version 2.43.0 (0)
 -->
<!-- Title: NetworkManager::configureBandwidth Pages: 1 -->
<svg width="700pt" height="104pt"
 viewBox="0.00 0.00 700.00 104.00" xmlns="http://www.w3.org/2000/svg" xmlns:xlink="http://www.w3.org/1999/xlink">
<g id="graph0" class="graph" transform="scale(1 1) rotate(0) translate(4 100)">
<title>NetworkManager::configureBandwidth</title>
<!-- Node1 -->
<g id="node1" class="node">
<title>Node1</title>
<g id="a_node1"><a xlink:title=" ">
<polygon fill="#bfbfbf" stroke="black" points="0,-57.5 0,-76.5 203,-76.5 203,-57.5 0,-57.5"/>
<text text-anchor="middle" x="101.5" y="-64.5" font-family="Helvetica,sans-Serif" font-size="10.00">NetworkManager::configureBandwidth</text>
</a>
</g>
</g>
<!-- Node2 -->
<g id="node2" class="node">
<title>Node2</title>
<g id="a_node2"><a xlink:href="classNetworkManager.html#acd8737d274da2f02b0e1635b4b9f63bb" target="_top" xlink:title=" ">
<polygon fill="none" stroke="black" points="246,-76.5 246,-95.5 435,-95.5 435,-76.5 246,-76.5"/>
<text text-anchor="middle" x="340.5" y="-83.5" font-family="Helvetica,sans-Serif" font-size="10.00">NetworkManager::calculateMaxFps</text>
</a>
</g>
</g>
<!-- Node1&#45;&gt;Node2 -->
<g id="edge1" class="edge">
<title>Node1&#45;&gt;Node2</title>
<path fill="none" stroke="midnightblue" d="M203.01,-75.06C213.92,-75.93 225.05,-76.82 236,-77.7"/>
<polygon fill="midnightblue" stroke="midnightblue" points="235.75,-81.19 245.99,-78.5 236.31,-74.22 235.75,-81.19"/>
</g>
<!-- Node4 -->
<g id="node4" class="node">
<title>Node4</title>
<g id="a_node4"><a xlink:href="classNetworkManager.html#a88d3b203ca5c2d28212c5da9f8cdde7d" target="_top" xlink:title=" ">
<polygon fill="none" stroke="black" points="239,-38.5 239,-57.5 442,-57.5 442,-38.5 239,-38.5"/>
<text text-anchor="middle" x="340.5" y="-45.5" font-family="Helvetica,sans-Serif" font-size="10.00">NetworkManager::setExposureAndFps</text>
</a>
</g>
</g>
<!-- Node1&#45;&gt;Node4 -->
<g id="edge3" class="edge">
<title>Node1&#45;&gt;Node4</title>
<path fill="none" stroke="midnightblue" d="M203.01,-58.94C211.53,-58.26 220.18,-57.57 228.78,-56.88"/>
<polygon fill="midnightblue" stroke="midnightblue" points="229.15,-60.36 238.83,-56.07 228.59,-53.38 229.15,-60.36"/>
</g>
<!-- Node3 -->
<g id="node3" class="node">
<title>Node3</title>
<g id="a_node3"><a xlink:href="GlobalSettings_8cpp.html#a4e4d4e3815c368773a4dfcfc9d19666c" target="_top" xlink:title=" ">
<polygon fill="none" stroke="black" points="515,-76.5 515,-95.5 655,-95.5 655,-76.5 515,-76.5"/>
<text text-anchor="middle" x="585" y="-83.5" font-family="Helvetica,sans-Serif" font-size="10.00">setGlobalFpsUpperBound</text>
</a>
</g>
</g>
<!-- Node2&#45;&gt;Node3 -->
<g id="edge2" class="edge">
<title>Node2&#45;&gt;Node3</title>
<path fill="none" stroke="midnightblue" d="M435.26,-86C458.26,-86 482.65,-86 504.89,-86"/>
<polygon fill="midnightblue" stroke="midnightblue" points="504.94,-89.5 514.94,-86 504.94,-82.5 504.94,-89.5"/>
</g>
<!-- Node5 -->
<g id="node5" class="node">
<title>Node5</title>
<g id="a_node5"><a xlink:href="GlobalSettings_8cpp.html#ae20198dd587799aa9d5579c3597f7fb4" target="_top" xlink:title=" ">
<polygon fill="none" stroke="black" points="514.5,-38.5 514.5,-57.5 655.5,-57.5 655.5,-38.5 514.5,-38.5"/>
<text text-anchor="middle" x="585" y="-45.5" font-family="Helvetica,sans-Serif" font-size="10.00">getGlobalFpsUpperBound</text>
</a>
</g>
</g>
<!-- Node4&#45;&gt;Node5 -->
<g id="edge4" class="edge">
<title>Node4&#45;&gt;Node5</title>
<path fill="none" stroke="midnightblue" d="M442.24,-48C462.85,-48 484.27,-48 504.04,-48"/>
<polygon fill="midnightblue" stroke="midnightblue" points="504.21,-51.5 514.21,-48 504.21,-44.5 504.21,-51.5"/>
</g>
<!-- Node6 -->
<g id="node6" class="node">
<title>Node6</title>
<g id="a_node6"><a xlink:href="classNetworkManager.html#a2894fa4186d5341d1ceea4930cd1f448" target="_top" xlink:title=" ">
<polygon fill="none" stroke="black" points="478,-0.5 478,-19.5 692,-19.5 692,-0.5 478,-0.5"/>
<text text-anchor="middle" x="585" y="-7.5" font-family="Helvetica,sans-Serif" font-size="10.00">NetworkManager::getMinimumExposure</text>
</a>
</g>
</g>
<!-- Node4&#45;&gt;Node6 -->
<g id="edge5" class="edge">
<title>Node4&#45;&gt;Node6</title>
<path fill="none" stroke="midnightblue" d="M402.38,-38.46C435.96,-33.2 477.84,-26.63 512.92,-21.14"/>
<polygon fill="midnightblue" stroke="midnightblue" points="513.76,-24.55 523.09,-19.54 512.67,-17.63 513.76,-24.55"/>
</g>
</g>
</svg>
