<?xml version="1.0" encoding="UTF-8" standalone="no"?>
<!DOCTYPE svg PUBLIC "-//W3C//DTD SVG 1.1//EN"
 "http://www.w3.org/Graphics/SVG/1.1/DTD/svg11.dtd">
<!-- Generated by graphviz version 2.43.0 (0)
 -->
<!-- Title: DeviceManager::scheduleActionCommands Pages: 1 -->
<svg width="645pt" height="66pt"
 viewBox="0.00 0.00 645.00 66.00" xmlns="http://www.w3.org/2000/svg" xmlns:xlink="http://www.w3.org/1999/xlink">
<g id="graph0" class="graph" transform="scale(1 1) rotate(0) translate(4 62)">
<title>DeviceManager::scheduleActionCommands</title>
<!-- Node1 -->
<g id="node1" class="node">
<title>Node1</title>
<g id="a_node1"><a xlink:title=" ">
<polygon fill="#bfbfbf" stroke="black" points="0,-14 0,-44 173,-44 173,-14 0,-14"/>
<text text-anchor="start" x="8" y="-32" font-family="Helvetica,sans-Serif" font-size="10.00">DeviceManager::scheduleAction</text>
<text text-anchor="middle" x="86.5" y="-21" font-family="Helvetica,sans-Serif" font-size="10.00">Commands</text>
</a>
</g>
</g>
<!-- Node2 -->
<g id="node2" class="node">
<title>Node2</title>
<g id="a_node2"><a xlink:href="DeviceManager_8cpp.html#ae4a0fb4a19f9a3e0dec2c3fd87d2ebb1" target="_top" xlink:title=" ">
<polygon fill="none" stroke="black" points="244.5,-38.5 244.5,-57.5 363.5,-57.5 363.5,-38.5 244.5,-38.5"/>
<text text-anchor="middle" x="304" y="-45.5" font-family="Helvetica,sans-Serif" font-size="10.00">generateRandomKey</text>
</a>
</g>
</g>
<!-- Node1&#45;&gt;Node2 -->
<g id="edge1" class="edge">
<title>Node1&#45;&gt;Node2</title>
<path fill="none" stroke="midnightblue" d="M173.29,-36.56C193.49,-38.34 214.76,-40.22 234.1,-41.93"/>
<polygon fill="midnightblue" stroke="midnightblue" points="234.06,-45.44 244.33,-42.83 234.67,-38.46 234.06,-45.44"/>
</g>
<!-- Node3 -->
<g id="node3" class="node">
<title>Node3</title>
<g id="a_node3"><a xlink:href="classDeviceManager.html#a48d26097a3bef429bc019be6cdadfdf1" target="_top" xlink:title=" ">
<polygon fill="none" stroke="black" points="209,-0.5 209,-19.5 399,-19.5 399,-0.5 209,-0.5"/>
<text text-anchor="middle" x="304" y="-7.5" font-family="Helvetica,sans-Serif" font-size="10.00">DeviceManager::getScheduledTime</text>
</a>
</g>
</g>
<!-- Node1&#45;&gt;Node3 -->
<g id="edge2" class="edge">
<title>Node1&#45;&gt;Node3</title>
<path fill="none" stroke="midnightblue" d="M173.29,-21.44C181.55,-20.71 189.99,-19.96 198.41,-19.22"/>
<polygon fill="midnightblue" stroke="midnightblue" points="198.99,-22.68 208.65,-18.32 198.38,-15.71 198.99,-22.68"/>
</g>
<!-- Node4 -->
<g id="node4" class="node">
<title>Node4</title>
<g id="a_node4"><a xlink:href="classDeviceManager.html#a6e25f6e110c117449b53e10ca0c65192" target="_top" xlink:title=" ">
<polygon fill="none" stroke="black" points="435,-0.5 435,-19.5 637,-19.5 637,-0.5 435,-0.5"/>
<text text-anchor="middle" x="536" y="-7.5" font-family="Helvetica,sans-Serif" font-size="10.00">DeviceManager::getOpenCameraByID</text>
</a>
</g>
</g>
<!-- Node3&#45;&gt;Node4 -->
<g id="edge3" class="edge">
<title>Node3&#45;&gt;Node4</title>
<path fill="none" stroke="midnightblue" d="M399.21,-10C407.68,-10 416.31,-10 424.9,-10"/>
<polygon fill="midnightblue" stroke="midnightblue" points="424.96,-13.5 434.96,-10 424.96,-6.5 424.96,-13.5"/>
</g>
</g>
</svg>
