<?xml version="1.0" encoding="UTF-8" standalone="no"?>
<!DOCTYPE svg PUBLIC "-//W3C//DTD SVG 1.1//EN"
 "http://www.w3.org/Graphics/SVG/1.1/DTD/svg11.dtd">
<!-- Generated by graphviz version 2.43.0 (0)
 -->
<!-- Title: Camera::decimalToMAC Pages: 1 -->
<svg width="559pt" height="47pt"
 viewBox="0.00 0.00 559.00 47.00" xmlns="http://www.w3.org/2000/svg" xmlns:xlink="http://www.w3.org/1999/xlink">
<g id="graph0" class="graph" transform="scale(1 1) rotate(0) translate(4 43)">
<title>Camera::decimalToMAC</title>
<!-- Node1 -->
<g id="node1" class="node">
<title>Node1</title>
<g id="a_node1"><a xlink:title=" ">
<polygon fill="#bfbfbf" stroke="black" points="418,-19.5 418,-38.5 551,-38.5 551,-19.5 418,-19.5"/>
<text text-anchor="middle" x="484.5" y="-26.5" font-family="Helvetica,sans-Serif" font-size="10.00">Camera::decimalToMAC</text>
</a>
</g>
</g>
<!-- Node2 -->
<g id="node2" class="node">
<title>Node2</title>
<g id="a_node2"><a xlink:href="classCamera.html#abfa5e73af0569daf079c9e7604a42bb4" target="_top" xlink:title=" ">
<polygon fill="none" stroke="black" points="135,-19.5 135,-38.5 234,-38.5 234,-19.5 135,-19.5"/>
<text text-anchor="middle" x="184.5" y="-26.5" font-family="Helvetica,sans-Serif" font-size="10.00">Camera::getMAC</text>
</a>
</g>
</g>
<!-- Node1&#45;&gt;Node2 -->
<g id="edge1" class="edge">
<title>Node1&#45;&gt;Node2</title>
<path fill="none" stroke="midnightblue" d="M407.44,-29C353.04,-29 281.41,-29 234.44,-29"/>
<polygon fill="midnightblue" stroke="midnightblue" points="407.73,-32.5 417.73,-29 407.73,-25.5 407.73,-32.5"/>
</g>
<!-- Node4 -->
<g id="node4" class="node">
<title>Node4</title>
<g id="a_node4"><a xlink:href="classCamera.html#a05ed4e9639c78b82efec2e7b72a95c1a" target="_top" xlink:title=" ">
<polygon fill="none" stroke="black" points="270,-0.5 270,-19.5 382,-19.5 382,-0.5 270,-0.5"/>
<text text-anchor="middle" x="326" y="-7.5" font-family="Helvetica,sans-Serif" font-size="10.00">Camera::hexToMAC</text>
</a>
</g>
</g>
<!-- Node1&#45;&gt;Node4 -->
<g id="edge3" class="edge">
<title>Node1&#45;&gt;Node4</title>
<path fill="none" stroke="midnightblue" d="M407.65,-19.79C399.15,-18.76 390.62,-17.72 382.45,-16.73"/>
<polygon fill="midnightblue" stroke="midnightblue" points="407.23,-23.27 417.58,-21 408.08,-16.32 407.23,-23.27"/>
</g>
<!-- Node3 -->
<g id="node3" class="node">
<title>Node3</title>
<g id="a_node3"><a xlink:href="classCamera.html#a0d85161da34e7db40ee85d8a8adadcbc" target="_top" xlink:title=" ">
<polygon fill="none" stroke="black" points="0,-19.5 0,-38.5 99,-38.5 99,-19.5 0,-19.5"/>
<text text-anchor="middle" x="49.5" y="-26.5" font-family="Helvetica,sans-Serif" font-size="10.00">Camera::Camera</text>
</a>
</g>
</g>
<!-- Node2&#45;&gt;Node3 -->
<g id="edge2" class="edge">
<title>Node2&#45;&gt;Node3</title>
<path fill="none" stroke="midnightblue" d="M124.55,-29C116.1,-29 107.49,-29 99.26,-29"/>
<polygon fill="midnightblue" stroke="midnightblue" points="124.73,-32.5 134.73,-29 124.73,-25.5 124.73,-32.5"/>
</g>
<!-- Node4&#45;&gt;Node2 -->
<g id="edge4" class="edge">
<title>Node4&#45;&gt;Node2</title>
<path fill="none" stroke="midnightblue" d="M259.86,-18.87C251.28,-20.04 242.6,-21.22 234.36,-22.35"/>
<polygon fill="midnightblue" stroke="midnightblue" points="260.43,-22.33 269.87,-17.51 259.49,-15.39 260.43,-22.33"/>
</g>
</g>
</svg>
