<?xml version="1.0" encoding="UTF-8" standalone="no"?>
<!DOCTYPE svg PUBLIC "-//W3C//DTD SVG 1.1//EN"
 "http://www.w3.org/Graphics/SVG/1.1/DTD/svg11.dtd">
<!-- Generated by graphviz version 2.43.0 (0)
 -->
<!-- Title: Camera::calculateFps Pages: 1 -->
<svg width="783pt" height="28pt"
 viewBox="0.00 0.00 783.00 28.00" xmlns="http://www.w3.org/2000/svg" xmlns:xlink="http://www.w3.org/1999/xlink">
<g id="graph0" class="graph" transform="scale(1 1) rotate(0) translate(4 24)">
<title>Camera::calculateFps</title>
<!-- Node1 -->
<g id="node1" class="node">
<title>Node1</title>
<g id="a_node1"><a xlink:title=" ">
<polygon fill="#bfbfbf" stroke="black" points="0,-0.5 0,-19.5 122,-19.5 122,-0.5 0,-0.5"/>
<text text-anchor="middle" x="61" y="-7.5" font-family="Helvetica,sans-Serif" font-size="10.00">Camera::calculateFps</text>
</a>
</g>
</g>
<!-- Node2 -->
<g id="node2" class="node">
<title>Node2</title>
<g id="a_node2"><a xlink:href="classCamera.html#ac11e2f7edacaee539f6b5f9a680e2f24" target="_top" xlink:title=" ">
<polygon fill="none" stroke="black" points="158,-0.5 158,-19.5 385,-19.5 385,-0.5 158,-0.5"/>
<text text-anchor="middle" x="271.5" y="-7.5" font-family="Helvetica,sans-Serif" font-size="10.00">Camera::calculateFrameTransmissionCycle</text>
</a>
</g>
</g>
<!-- Node1&#45;&gt;Node2 -->
<g id="edge1" class="edge">
<title>Node1&#45;&gt;Node2</title>
<path fill="none" stroke="midnightblue" d="M122.03,-10C130.24,-10 138.91,-10 147.76,-10"/>
<polygon fill="midnightblue" stroke="midnightblue" points="147.82,-13.5 157.82,-10 147.81,-6.5 147.82,-13.5"/>
</g>
<!-- Node3 -->
<g id="node3" class="node">
<title>Node3</title>
<g id="a_node3"><a xlink:href="classCamera.html#aba94d8c74096200df21ad24d58cd3e53" target="_top" xlink:title=" ">
<polygon fill="none" stroke="black" points="421,-0.5 421,-19.5 605,-19.5 605,-0.5 421,-0.5"/>
<text text-anchor="middle" x="513" y="-7.5" font-family="Helvetica,sans-Serif" font-size="10.00">Camera::calculateRawFrameSizeB</text>
</a>
</g>
</g>
<!-- Node2&#45;&gt;Node3 -->
<g id="edge2" class="edge">
<title>Node2&#45;&gt;Node3</title>
<path fill="none" stroke="midnightblue" d="M385.24,-10C393.69,-10 402.19,-10 410.57,-10"/>
<polygon fill="midnightblue" stroke="midnightblue" points="410.71,-13.5 420.71,-10 410.71,-6.5 410.71,-13.5"/>
</g>
<!-- Node4 -->
<g id="node4" class="node">
<title>Node4</title>
<g id="a_node4"><a xlink:href="classCamera.html#ab9adc7920595086ce1731ec4c987b1dd" target="_top" xlink:title=" ">
<polygon fill="none" stroke="black" points="641,-0.5 641,-19.5 775,-19.5 775,-0.5 641,-0.5"/>
<text text-anchor="middle" x="708" y="-7.5" font-family="Helvetica,sans-Serif" font-size="10.00">Camera::getBitsPerPixel</text>
</a>
</g>
</g>
<!-- Node3&#45;&gt;Node4 -->
<g id="edge3" class="edge">
<title>Node3&#45;&gt;Node4</title>
<path fill="none" stroke="midnightblue" d="M605.13,-10C613.67,-10 622.26,-10 630.64,-10"/>
<polygon fill="midnightblue" stroke="midnightblue" points="630.73,-13.5 640.73,-10 630.73,-6.5 630.73,-13.5"/>
</g>
</g>
</svg>
