<?xml version="1.0" encoding="UTF-8" standalone="no"?>
<!DOCTYPE svg PUBLIC "-//W3C//DTD SVG 1.1//EN"
 "http://www.w3.org/Graphics/SVG/1.1/DTD/svg11.dtd">
<!-- Generated by graphviz version 2.43.0 (0)
 -->
<!-- Title: Camera::adjustFpsDynamically Pages: 1 -->
<svg width="355pt" height="142pt"
 viewBox="0.00 0.00 355.00 142.00" xmlns="http://www.w3.org/2000/svg" xmlns:xlink="http://www.w3.org/1999/xlink">
<g id="graph0" class="graph" transform="scale(1 1) rotate(0) translate(4 138)">
<title>Camera::adjustFpsDynamically</title>
<!-- Node1 -->
<g id="node1" class="node">
<title>Node1</title>
<g id="a_node1"><a xlink:title=" ">
<polygon fill="#bfbfbf" stroke="black" points="0,-57.5 0,-76.5 170,-76.5 170,-57.5 0,-57.5"/>
<text text-anchor="middle" x="85" y="-64.5" font-family="Helvetica,sans-Serif" font-size="10.00">Camera::adjustFpsDynamically</text>
</a>
</g>
</g>
<!-- Node2 -->
<g id="node2" class="node">
<title>Node2</title>
<g id="a_node2"><a xlink:href="classCamera.html#a5b1326da520053d87a9472577c401207" target="_top" xlink:title=" ">
<polygon fill="none" stroke="black" points="229.5,-114.5 229.5,-133.5 323.5,-133.5 323.5,-114.5 229.5,-114.5"/>
<text text-anchor="middle" x="276.5" y="-121.5" font-family="Helvetica,sans-Serif" font-size="10.00">Camera::getFps</text>
</a>
</g>
</g>
<!-- Node1&#45;&gt;Node2 -->
<g id="edge1" class="edge">
<title>Node1&#45;&gt;Node2</title>
<path fill="none" stroke="midnightblue" d="M115,-76.54C139.24,-84.43 174.77,-95.79 206,-105 213.59,-107.24 221.68,-109.53 229.55,-111.72"/>
<polygon fill="midnightblue" stroke="midnightblue" points="228.78,-115.13 239.35,-114.41 230.64,-108.38 228.78,-115.13"/>
</g>
<!-- Node3 -->
<g id="node3" class="node">
<title>Node3</title>
<g id="a_node3"><a xlink:href="GlobalSettings_8cpp.html#ae20198dd587799aa9d5579c3597f7fb4" target="_top" xlink:title=" ">
<polygon fill="none" stroke="black" points="206,-76.5 206,-95.5 347,-95.5 347,-76.5 206,-76.5"/>
<text text-anchor="middle" x="276.5" y="-83.5" font-family="Helvetica,sans-Serif" font-size="10.00">getGlobalFpsUpperBound</text>
</a>
</g>
</g>
<!-- Node1&#45;&gt;Node3 -->
<g id="edge2" class="edge">
<title>Node1&#45;&gt;Node3</title>
<path fill="none" stroke="midnightblue" d="M170.22,-75.44C178.65,-76.29 187.2,-77.15 195.59,-77.99"/>
<polygon fill="midnightblue" stroke="midnightblue" points="195.42,-81.49 205.72,-79 196.12,-74.52 195.42,-81.49"/>
</g>
<!-- Node4 -->
<g id="node4" class="node">
<title>Node4</title>
<g id="a_node4"><a xlink:href="classCamera.html#a476aadf5f98ad43eacfabfd465c40062" target="_top" xlink:title=" ">
<polygon fill="none" stroke="black" points="230,-38.5 230,-57.5 323,-57.5 323,-38.5 230,-38.5"/>
<text text-anchor="middle" x="276.5" y="-45.5" font-family="Helvetica,sans-Serif" font-size="10.00">Camera::setFps</text>
</a>
</g>
</g>
<!-- Node1&#45;&gt;Node4 -->
<g id="edge3" class="edge">
<title>Node1&#45;&gt;Node4</title>
<path fill="none" stroke="midnightblue" d="M170.22,-58.56C187.09,-56.86 204.4,-55.13 220,-53.56"/>
<polygon fill="midnightblue" stroke="midnightblue" points="220.37,-57.04 229.97,-52.56 219.68,-50.08 220.37,-57.04"/>
</g>
<!-- Node5 -->
<g id="node5" class="node">
<title>Node5</title>
<g id="a_node5"><a xlink:href="GlobalSettings_8cpp.html#a4e4d4e3815c368773a4dfcfc9d19666c" target="_top" xlink:title=" ">
<polygon fill="none" stroke="black" points="206.5,-0.5 206.5,-19.5 346.5,-19.5 346.5,-0.5 206.5,-0.5"/>
<text text-anchor="middle" x="276.5" y="-7.5" font-family="Helvetica,sans-Serif" font-size="10.00">setGlobalFpsUpperBound</text>
</a>
</g>
</g>
<!-- Node1&#45;&gt;Node5 -->
<g id="edge4" class="edge">
<title>Node1&#45;&gt;Node5</title>
<path fill="none" stroke="midnightblue" d="M115,-57.46C139.24,-49.57 174.77,-38.21 206,-29 213.59,-26.76 221.68,-24.47 229.55,-22.28"/>
<polygon fill="midnightblue" stroke="midnightblue" points="230.64,-25.62 239.35,-19.59 228.78,-18.87 230.64,-25.62"/>
</g>
</g>
</svg>
