<?xml version="1.0" encoding="UTF-8" standalone="no"?>
<!DOCTYPE svg PUBLIC "-//W3C//DTD SVG 1.1//EN"
 "http://www.w3.org/Graphics/SVG/1.1/DTD/svg11.dtd">
<!-- Generated by graphviz version 2.43.0 (0)
 -->
<!-- Title: DeviceManager::enumerateDevicesFromSystems Pages: 1 -->
<svg width="967pt" height="39pt"
 viewBox="0.00 0.00 967.00 39.00" xmlns="http://www.w3.org/2000/svg" xmlns:xlink="http://www.w3.org/1999/xlink">
<g id="graph0" class="graph" transform="scale(1 1) rotate(0) translate(4 35)">
<title>DeviceManager::enumerateDevicesFromSystems</title>
<!-- Node1 -->
<g id="node1" class="node">
<title>Node1</title>
<g id="a_node1"><a xlink:title=" ">
<polygon fill="#bfbfbf" stroke="black" points="768,-0.5 768,-30.5 959,-30.5 959,-0.5 768,-0.5"/>
<text text-anchor="start" x="776" y="-18.5" font-family="Helvetica,sans-Serif" font-size="10.00">DeviceManager::enumerateDevices</text>
<text text-anchor="middle" x="863.5" y="-7.5" font-family="Helvetica,sans-Serif" font-size="10.00">FromSystems</text>
</a>
</g>
</g>
<!-- Node2 -->
<g id="node2" class="node">
<title>Node2</title>
<g id="a_node2"><a xlink:href="classDeviceManager.html#a8a18f2eeb06ca5683d69aed675dbffcb" target="_top" xlink:title=" ">
<polygon fill="none" stroke="black" points="529,-6 529,-25 732,-25 732,-6 529,-6"/>
<text text-anchor="middle" x="630.5" y="-13" font-family="Helvetica,sans-Serif" font-size="10.00">DeviceManager::getAvailableCameras</text>
</a>
</g>
</g>
<!-- Node1&#45;&gt;Node2 -->
<g id="edge1" class="edge">
<title>Node1&#45;&gt;Node2</title>
<path fill="none" stroke="midnightblue" d="M757.66,-15.5C749.24,-15.5 740.75,-15.5 732.36,-15.5"/>
<polygon fill="midnightblue" stroke="midnightblue" points="757.88,-19 767.88,-15.5 757.88,-12 757.88,-19"/>
</g>
<!-- Node3 -->
<g id="node3" class="node">
<title>Node3</title>
<g id="a_node3"><a xlink:href="classSystemManager.html#ad083133600bc7f1b8f3946a5b6cb0e1a" target="_top" xlink:title=" ">
<polygon fill="none" stroke="black" points="294,-6 294,-25 493,-25 493,-6 294,-6"/>
<text text-anchor="middle" x="393.5" y="-13" font-family="Helvetica,sans-Serif" font-size="10.00">SystemManager::enumerateCameras</text>
</a>
</g>
</g>
<!-- Node2&#45;&gt;Node3 -->
<g id="edge2" class="edge">
<title>Node2&#45;&gt;Node3</title>
<path fill="none" stroke="midnightblue" d="M518.79,-15.5C510.21,-15.5 501.59,-15.5 493.11,-15.5"/>
<polygon fill="midnightblue" stroke="midnightblue" points="518.82,-19 528.82,-15.5 518.82,-12 518.82,-19"/>
</g>
<!-- Node4 -->
<g id="node4" class="node">
<title>Node4</title>
<g id="a_node4"><a xlink:href="classSystemManager.html#a1c1ba12c1709183b2bd1bd48ebebe24c" target="_top" xlink:title=" ">
<polygon fill="none" stroke="black" points="77,-6 77,-25 258,-25 258,-6 77,-6"/>
<text text-anchor="middle" x="167.5" y="-13" font-family="Helvetica,sans-Serif" font-size="10.00">SystemManager::initializeSystem</text>
</a>
</g>
</g>
<!-- Node3&#45;&gt;Node4 -->
<g id="edge3" class="edge">
<title>Node3&#45;&gt;Node4</title>
<path fill="none" stroke="midnightblue" d="M283.89,-15.5C275.31,-15.5 266.71,-15.5 258.29,-15.5"/>
<polygon fill="midnightblue" stroke="midnightblue" points="283.92,-19 293.92,-15.5 283.92,-12 283.92,-19"/>
</g>
<!-- Node5 -->
<g id="node5" class="node">
<title>Node5</title>
<g id="a_node5"><a xlink:href="main_8cpp.html#a0ddf1224851353fc92bfbff6f499fa97" target="_top" xlink:title=" ">
<polygon fill="none" stroke="black" points="0,-6 0,-25 41,-25 41,-6 0,-6"/>
<text text-anchor="middle" x="20.5" y="-13" font-family="Helvetica,sans-Serif" font-size="10.00">main</text>
</a>
</g>
</g>
<!-- Node4&#45;&gt;Node5 -->
<g id="edge4" class="edge">
<title>Node4&#45;&gt;Node5</title>
<path fill="none" stroke="midnightblue" d="M66.62,-15.5C57.15,-15.5 48.4,-15.5 41.18,-15.5"/>
<polygon fill="midnightblue" stroke="midnightblue" points="66.73,-19 76.73,-15.5 66.73,-12 66.73,-19"/>
</g>
</g>
</svg>
