<?xml version="1.0" encoding="UTF-8" standalone="no"?>
<!DOCTYPE svg PUBLIC "-//W3C//DTD SVG 1.1//EN"
 "http://www.w3.org/Graphics/SVG/1.1/DTD/svg11.dtd">
<!-- Generated by graphviz version 2.43.0 (0)
 -->
<!-- Title: DeviceManager::getAvailableCameraByID Pages: 1 -->
<svg width="1243pt" height="142pt"
 viewBox="0.00 0.00 1243.00 142.00" xmlns="http://www.w3.org/2000/svg" xmlns:xlink="http://www.w3.org/1999/xlink">
<g id="graph0" class="graph" transform="scale(1 1) rotate(0) translate(4 138)">
<title>DeviceManager::getAvailableCameraByID</title>
<!-- Node1 -->
<g id="node1" class="node">
<title>Node1</title>
<g id="a_node1"><a xlink:title=" ">
<polygon fill="#bfbfbf" stroke="black" points="1014,-44.5 1014,-63.5 1235,-63.5 1235,-44.5 1014,-44.5"/>
<text text-anchor="middle" x="1124.5" y="-51.5" font-family="Helvetica,sans-Serif" font-size="10.00">DeviceManager::getAvailableCameraByID</text>
</a>
</g>
</g>
<!-- Node2 -->
<g id="node2" class="node">
<title>Node2</title>
<g id="a_node2"><a xlink:href="classDeviceManager.html#a5de621ae914e130ad5a5e977c02272f4" target="_top" xlink:title=" ">
<polygon fill="none" stroke="black" points="798.5,-74.5 798.5,-93.5 966.5,-93.5 966.5,-74.5 798.5,-74.5"/>
<text text-anchor="middle" x="882.5" y="-81.5" font-family="Helvetica,sans-Serif" font-size="10.00">DeviceManager::createCamera</text>
</a>
</g>
</g>
<!-- Node1&#45;&gt;Node2 -->
<g id="edge1" class="edge">
<title>Node1&#45;&gt;Node2</title>
<path fill="none" stroke="midnightblue" d="M1037.25,-64.78C1011.86,-67.96 984.27,-71.4 959.57,-74.49"/>
<polygon fill="midnightblue" stroke="midnightblue" points="1037.74,-68.25 1047.23,-63.53 1036.88,-61.3 1037.74,-68.25"/>
</g>
<!-- Node8 -->
<g id="node8" class="node">
<title>Node8</title>
<g id="a_node8"><a xlink:href="classDeviceManager.html#ab0ab314042a5d622db73d67b3bbdedf4" target="_top" xlink:title=" ">
<polygon fill="none" stroke="black" points="787,-17 787,-47 978,-47 978,-17 787,-17"/>
<text text-anchor="start" x="795" y="-35" font-family="Helvetica,sans-Serif" font-size="10.00">DeviceManager::enumerateDevices</text>
<text text-anchor="middle" x="882.5" y="-24" font-family="Helvetica,sans-Serif" font-size="10.00">FromSystems</text>
</a>
</g>
</g>
<!-- Node1&#45;&gt;Node8 -->
<g id="edge9" class="edge">
<title>Node1&#45;&gt;Node8</title>
<path fill="none" stroke="midnightblue" d="M1009.56,-43.56C999.02,-42.59 988.42,-41.62 978.08,-40.67"/>
<polygon fill="midnightblue" stroke="midnightblue" points="1009.35,-47.05 1019.63,-44.48 1009.99,-40.08 1009.35,-47.05"/>
</g>
<!-- Node3 -->
<g id="node3" class="node">
<title>Node3</title>
<g id="a_node3"><a xlink:href="classDeviceManager.html#a36a89dec4c09c02f7269093b346c37b6" target="_top" xlink:title=" ">
<polygon fill="none" stroke="black" points="326,-75.5 326,-94.5 499,-94.5 499,-75.5 326,-75.5"/>
<text text-anchor="middle" x="412.5" y="-82.5" font-family="Helvetica,sans-Serif" font-size="10.00">DeviceManager::createCameras</text>
</a>
</g>
</g>
<!-- Node2&#45;&gt;Node3 -->
<g id="edge2" class="edge">
<title>Node2&#45;&gt;Node3</title>
<path fill="none" stroke="midnightblue" d="M788.29,-84.2C703.98,-84.38 580.86,-84.64 499.02,-84.82"/>
<polygon fill="midnightblue" stroke="midnightblue" points="788.38,-87.7 798.37,-84.18 788.36,-80.7 788.38,-87.7"/>
</g>
<!-- Node4 -->
<g id="node4" class="node">
<title>Node4</title>
<g id="a_node4"><a xlink:href="classSystemManager.html#a051494c0cf33bac6dbd8e4c0eb3ed9ae" target="_top" xlink:title=" ">
<polygon fill="none" stroke="black" points="99.5,-114.5 99.5,-133.5 254.5,-133.5 254.5,-114.5 99.5,-114.5"/>
<text text-anchor="middle" x="177" y="-121.5" font-family="Helvetica,sans-Serif" font-size="10.00">SystemManager::ptpDisable</text>
</a>
</g>
</g>
<!-- Node3&#45;&gt;Node4 -->
<g id="edge3" class="edge">
<title>Node3&#45;&gt;Node4</title>
<path fill="none" stroke="midnightblue" d="M344.35,-96.22C309.73,-102 267.96,-108.97 234.94,-114.49"/>
<polygon fill="midnightblue" stroke="midnightblue" points="345.09,-99.64 354.38,-94.54 343.94,-92.74 345.09,-99.64"/>
</g>
<!-- Node6 -->
<g id="node6" class="node">
<title>Node6</title>
<g id="a_node6"><a xlink:href="classSystemManager.html#af801ab01222b0c07d25a8fa780d423e4" target="_top" xlink:title=" ">
<polygon fill="none" stroke="black" points="101.5,-76.5 101.5,-95.5 252.5,-95.5 252.5,-76.5 101.5,-76.5"/>
<text text-anchor="middle" x="177" y="-83.5" font-family="Helvetica,sans-Serif" font-size="10.00">SystemManager::ptpEnable</text>
</a>
</g>
</g>
<!-- Node3&#45;&gt;Node6 -->
<g id="edge5" class="edge">
<title>Node3&#45;&gt;Node6</title>
<path fill="none" stroke="midnightblue" d="M315.68,-85.41C294.71,-85.5 272.82,-85.59 252.82,-85.68"/>
<polygon fill="midnightblue" stroke="midnightblue" points="315.89,-88.91 325.88,-85.37 315.86,-81.91 315.89,-88.91"/>
</g>
<!-- Node7 -->
<g id="node7" class="node">
<title>Node7</title>
<g id="a_node7"><a xlink:href="classSystemManager.html#addb2328a323747f21afb826811f288ab" target="_top" xlink:title=" ">
<polygon fill="none" stroke="black" points="77,-38.5 77,-57.5 277,-57.5 277,-38.5 77,-38.5"/>
<text text-anchor="middle" x="177" y="-45.5" font-family="Helvetica,sans-Serif" font-size="10.00">SystemManager::syncFreeRunStream</text>
</a>
</g>
</g>
<!-- Node3&#45;&gt;Node7 -->
<g id="edge7" class="edge">
<title>Node3&#45;&gt;Node7</title>
<path fill="none" stroke="midnightblue" d="M341.38,-73.89C308.55,-68.69 269.84,-62.55 238.33,-57.56"/>
<polygon fill="midnightblue" stroke="midnightblue" points="340.94,-77.36 351.37,-75.47 342.04,-70.45 340.94,-77.36"/>
</g>
<!-- Node5 -->
<g id="node5" class="node">
<title>Node5</title>
<g id="a_node5"><a xlink:href="main_8cpp.html#a0ddf1224851353fc92bfbff6f499fa97" target="_top" xlink:title=" ">
<polygon fill="none" stroke="black" points="0,-57.5 0,-76.5 41,-76.5 41,-57.5 0,-57.5"/>
<text text-anchor="middle" x="20.5" y="-64.5" font-family="Helvetica,sans-Serif" font-size="10.00">main</text>
</a>
</g>
</g>
<!-- Node4&#45;&gt;Node5 -->
<g id="edge4" class="edge">
<title>Node4&#45;&gt;Node5</title>
<path fill="none" stroke="midnightblue" d="M96.76,-111.85C89.97,-109.89 83.29,-107.62 77,-105 60.19,-97.99 43.25,-85.41 32.59,-76.66"/>
<polygon fill="midnightblue" stroke="midnightblue" points="96.19,-115.32 106.76,-114.49 97.99,-108.55 96.19,-115.32"/>
</g>
<!-- Node6&#45;&gt;Node5 -->
<g id="edge6" class="edge">
<title>Node6&#45;&gt;Node5</title>
<path fill="none" stroke="midnightblue" d="M91.31,-75.59C72.54,-73.28 54.36,-71.04 41.26,-69.43"/>
<polygon fill="midnightblue" stroke="midnightblue" points="91.11,-79.09 101.47,-76.83 91.97,-72.14 91.11,-79.09"/>
</g>
<!-- Node7&#45;&gt;Node5 -->
<g id="edge8" class="edge">
<title>Node7&#45;&gt;Node5</title>
<path fill="none" stroke="midnightblue" d="M87.9,-58.83C70.34,-60.99 53.55,-63.06 41.24,-64.57"/>
<polygon fill="midnightblue" stroke="midnightblue" points="88.8,-62.25 98.3,-57.56 87.94,-55.3 88.8,-62.25"/>
</g>
<!-- Node9 -->
<g id="node9" class="node">
<title>Node9</title>
<g id="a_node9"><a xlink:href="classDeviceManager.html#a8a18f2eeb06ca5683d69aed675dbffcb" target="_top" xlink:title=" ">
<polygon fill="none" stroke="black" points="548,-6.5 548,-25.5 751,-25.5 751,-6.5 548,-6.5"/>
<text text-anchor="middle" x="649.5" y="-13.5" font-family="Helvetica,sans-Serif" font-size="10.00">DeviceManager::getAvailableCameras</text>
</a>
</g>
</g>
<!-- Node8&#45;&gt;Node9 -->
<g id="edge10" class="edge">
<title>Node8&#45;&gt;Node9</title>
<path fill="none" stroke="midnightblue" d="M776.66,-24.74C768.24,-24.16 759.75,-23.57 751.36,-22.99"/>
<polygon fill="midnightblue" stroke="midnightblue" points="776.66,-28.25 786.88,-25.45 777.14,-21.26 776.66,-28.25"/>
</g>
<!-- Node10 -->
<g id="node10" class="node">
<title>Node10</title>
<g id="a_node10"><a xlink:href="classSystemManager.html#ad083133600bc7f1b8f3946a5b6cb0e1a" target="_top" xlink:title=" ">
<polygon fill="none" stroke="black" points="313,-2.5 313,-21.5 512,-21.5 512,-2.5 313,-2.5"/>
<text text-anchor="middle" x="412.5" y="-9.5" font-family="Helvetica,sans-Serif" font-size="10.00">SystemManager::enumerateCameras</text>
</a>
</g>
</g>
<!-- Node9&#45;&gt;Node10 -->
<g id="edge11" class="edge">
<title>Node9&#45;&gt;Node10</title>
<path fill="none" stroke="midnightblue" d="M537.79,-14.12C529.21,-13.97 520.59,-13.82 512.11,-13.68"/>
<polygon fill="midnightblue" stroke="midnightblue" points="537.76,-17.62 547.82,-14.29 537.88,-10.62 537.76,-17.62"/>
</g>
<!-- Node11 -->
<g id="node11" class="node">
<title>Node11</title>
<g id="a_node11"><a xlink:href="classSystemManager.html#a1c1ba12c1709183b2bd1bd48ebebe24c" target="_top" xlink:title=" ">
<polygon fill="none" stroke="black" points="86.5,-0.5 86.5,-19.5 267.5,-19.5 267.5,-0.5 86.5,-0.5"/>
<text text-anchor="middle" x="177" y="-7.5" font-family="Helvetica,sans-Serif" font-size="10.00">SystemManager::initializeSystem</text>
</a>
</g>
</g>
<!-- Node10&#45;&gt;Node11 -->
<g id="edge12" class="edge">
<title>Node10&#45;&gt;Node11</title>
<path fill="none" stroke="midnightblue" d="M302.61,-11.07C290.96,-10.97 279.2,-10.87 267.8,-10.77"/>
<polygon fill="midnightblue" stroke="midnightblue" points="302.78,-14.57 312.81,-11.15 302.84,-7.57 302.78,-14.57"/>
</g>
<!-- Node11&#45;&gt;Node5 -->
<g id="edge13" class="edge">
<title>Node11&#45;&gt;Node5</title>
<path fill="none" stroke="midnightblue" d="M96.76,-22.15C89.97,-24.11 83.29,-26.38 77,-29 60.19,-36.01 43.25,-48.59 32.59,-57.34"/>
<polygon fill="midnightblue" stroke="midnightblue" points="97.99,-25.45 106.76,-19.51 96.19,-18.68 97.99,-25.45"/>
</g>
</g>
</svg>
