<?xml version="1.0" encoding="UTF-8" standalone="no"?>
<!DOCTYPE svg PUBLIC "-//W3C//DTD SVG 1.1//EN"
 "http://www.w3.org/Graphics/SVG/1.1/DTD/svg11.dtd">
<!-- Generated by graphviz version 2.43.0 (0)
 -->
<!-- Title: NetworkManager::configureBandwidth Pages: 1 -->
<svg width="727pt" height="39pt"
 viewBox="0.00 0.00 727.00 39.00" xmlns="http://www.w3.org/2000/svg" xmlns:xlink="http://www.w3.org/1999/xlink">
<g id="graph0" class="graph" transform="scale(1 1) rotate(0) translate(4 35)">
<title>NetworkManager::configureBandwidth</title>
<!-- Node1 -->
<g id="node1" class="node">
<title>Node1</title>
<g id="a_node1"><a xlink:title=" ">
<polygon fill="#bfbfbf" stroke="black" points="516,-6 516,-25 719,-25 719,-6 516,-6"/>
<text text-anchor="middle" x="617.5" y="-13" font-family="Helvetica,sans-Serif" font-size="10.00">NetworkManager::configureBandwidth</text>
</a>
</g>
</g>
<!-- Node2 -->
<g id="node2" class="node">
<title>Node2</title>
<g id="a_node2"><a xlink:href="classNetworkManager.html#a5131787ff8e8985e848e8456c1e6b202" target="_top" xlink:title=" ">
<polygon fill="none" stroke="black" points="313,-0.5 313,-30.5 480,-30.5 480,-0.5 313,-0.5"/>
<text text-anchor="start" x="321" y="-18.5" font-family="Helvetica,sans-Serif" font-size="10.00">NetworkManager::configurePtp</text>
<text text-anchor="middle" x="396.5" y="-7.5" font-family="Helvetica,sans-Serif" font-size="10.00">SyncFreeRun</text>
</a>
</g>
</g>
<!-- Node1&#45;&gt;Node2 -->
<g id="edge1" class="edge">
<title>Node1&#45;&gt;Node2</title>
<path fill="none" stroke="midnightblue" d="M505.8,-15.5C497.13,-15.5 488.46,-15.5 480.03,-15.5"/>
<polygon fill="midnightblue" stroke="midnightblue" points="505.97,-19 515.97,-15.5 505.97,-12 505.97,-19"/>
</g>
<!-- Node3 -->
<g id="node3" class="node">
<title>Node3</title>
<g id="a_node3"><a xlink:href="classSystemManager.html#addb2328a323747f21afb826811f288ab" target="_top" xlink:title=" ">
<polygon fill="none" stroke="black" points="77,-6 77,-25 277,-25 277,-6 77,-6"/>
<text text-anchor="middle" x="177" y="-13" font-family="Helvetica,sans-Serif" font-size="10.00">SystemManager::syncFreeRunStream</text>
</a>
</g>
</g>
<!-- Node2&#45;&gt;Node3 -->
<g id="edge2" class="edge">
<title>Node2&#45;&gt;Node3</title>
<path fill="none" stroke="midnightblue" d="M302.76,-15.5C294.33,-15.5 285.77,-15.5 277.29,-15.5"/>
<polygon fill="midnightblue" stroke="midnightblue" points="302.96,-19 312.96,-15.5 302.96,-12 302.96,-19"/>
</g>
<!-- Node4 -->
<g id="node4" class="node">
<title>Node4</title>
<g id="a_node4"><a xlink:href="main_8cpp.html#a0ddf1224851353fc92bfbff6f499fa97" target="_top" xlink:title=" ">
<polygon fill="none" stroke="black" points="0,-6 0,-25 41,-25 41,-6 0,-6"/>
<text text-anchor="middle" x="20.5" y="-13" font-family="Helvetica,sans-Serif" font-size="10.00">main</text>
</a>
</g>
</g>
<!-- Node3&#45;&gt;Node4 -->
<g id="edge3" class="edge">
<title>Node3&#45;&gt;Node4</title>
<path fill="none" stroke="midnightblue" d="M66.61,-15.5C57.05,-15.5 48.28,-15.5 41.07,-15.5"/>
<polygon fill="midnightblue" stroke="midnightblue" points="66.84,-19 76.84,-15.5 66.84,-12 66.84,-19"/>
</g>
</g>
</svg>
