<?xml version="1.0" encoding="UTF-8" standalone="no"?>
<!DOCTYPE svg PUBLIC "-//W3C//DTD SVG 1.1//EN"
 "http://www.w3.org/Graphics/SVG/1.1/DTD/svg11.dtd">
<!-- Generated by graphviz version 2.43.0 (0)
 -->
<!-- Title: NetworkManager::monitorPtpOffset Pages: 1 -->
<svg width="611pt" height="66pt"
 viewBox="0.00 0.00 611.00 66.00" xmlns="http://www.w3.org/2000/svg" xmlns:xlink="http://www.w3.org/1999/xlink">
<g id="graph0" class="graph" transform="scale(1 1) rotate(0) translate(4 62)">
<title>NetworkManager::monitorPtpOffset</title>
<!-- Node1 -->
<g id="node1" class="node">
<title>Node1</title>
<g id="a_node1"><a xlink:title=" ">
<polygon fill="#bfbfbf" stroke="black" points="0,-19.5 0,-38.5 190,-38.5 190,-19.5 0,-19.5"/>
<text text-anchor="middle" x="95" y="-26.5" font-family="Helvetica,sans-Serif" font-size="10.00">NetworkManager::monitorPtpOffset</text>
</a>
</g>
</g>
<!-- Node2 -->
<g id="node2" class="node">
<title>Node2</title>
<g id="a_node2"><a xlink:href="classNetworkManager.html#ae856b2f8ac57cb540414667eccc6832a" target="_top" xlink:title=" ">
<polygon fill="none" stroke="black" points="226,-38.5 226,-57.5 442,-57.5 442,-38.5 226,-38.5"/>
<text text-anchor="middle" x="334" y="-45.5" font-family="Helvetica,sans-Serif" font-size="10.00">NetworkManager::logOffsetHistoryToCSV</text>
</a>
</g>
</g>
<!-- Node1&#45;&gt;Node2 -->
<g id="edge1" class="edge">
<title>Node1&#45;&gt;Node2</title>
<path fill="none" stroke="midnightblue" d="M190.01,-36.54C198.46,-37.21 207.09,-37.91 215.71,-38.6"/>
<polygon fill="midnightblue" stroke="midnightblue" points="215.56,-42.1 225.81,-39.41 216.12,-35.12 215.56,-42.1"/>
</g>
<!-- Node4 -->
<g id="node4" class="node">
<title>Node4</title>
<g id="a_node4"><a xlink:href="classNetworkManager.html#a8f23d31231702bcd91a3cf101a8394e6" target="_top" xlink:title=" ">
<polygon fill="none" stroke="black" points="246,-0.5 246,-19.5 422,-19.5 422,-0.5 246,-0.5"/>
<text text-anchor="middle" x="334" y="-7.5" font-family="Helvetica,sans-Serif" font-size="10.00">NetworkManager::printPtpConfig</text>
</a>
</g>
</g>
<!-- Node1&#45;&gt;Node4 -->
<g id="edge3" class="edge">
<title>Node1&#45;&gt;Node4</title>
<path fill="none" stroke="midnightblue" d="M190.01,-21.46C204.92,-20.27 220.37,-19.03 235.36,-17.83"/>
<polygon fill="midnightblue" stroke="midnightblue" points="235.97,-21.29 245.66,-17 235.41,-14.31 235.97,-21.29"/>
</g>
<!-- Node3 -->
<g id="node3" class="node">
<title>Node3</title>
<g id="a_node3"><a xlink:href="GlobalSettings_8hpp.html#a292086bff16224cc0653061c22440e60" target="_top" xlink:title=" ">
<polygon fill="none" stroke="black" points="478,-38.5 478,-57.5 603,-57.5 603,-38.5 478,-38.5"/>
<text text-anchor="middle" x="540.5" y="-45.5" font-family="Helvetica,sans-Serif" font-size="10.00">getSessionTimestamp</text>
</a>
</g>
</g>
<!-- Node2&#45;&gt;Node3 -->
<g id="edge2" class="edge">
<title>Node2&#45;&gt;Node3</title>
<path fill="none" stroke="midnightblue" d="M442.04,-48C450.77,-48 459.45,-48 467.82,-48"/>
<polygon fill="midnightblue" stroke="midnightblue" points="467.87,-51.5 477.87,-48 467.87,-44.5 467.87,-51.5"/>
</g>
</g>
</svg>
