<?xml version="1.0" encoding="UTF-8" standalone="no"?>
<!DOCTYPE svg PUBLIC "-//W3C//DTD SVG 1.1//EN"
 "http://www.w3.org/Graphics/SVG/1.1/DTD/svg11.dtd">
<!-- Generated by graphviz version 2.43.0 (0)
 -->
<!-- Title: DeviceManager::getOpenCameraByID Pages: 1 -->
<svg width="656pt" height="78pt"
 viewBox="0.00 0.00 656.00 77.50" xmlns="http://www.w3.org/2000/svg" xmlns:xlink="http://www.w3.org/1999/xlink">
<g id="graph0" class="graph" transform="scale(1 1) rotate(0) translate(4 73.5)">
<title>DeviceManager::getOpenCameraByID</title>
<!-- Node1 -->
<g id="node1" class="node">
<title>Node1</title>
<g id="a_node1"><a xlink:title=" ">
<polygon fill="#bfbfbf" stroke="black" points="446,-28 446,-47 648,-47 648,-28 446,-28"/>
<text text-anchor="middle" x="547" y="-35" font-family="Helvetica,sans-Serif" font-size="10.00">DeviceManager::getOpenCameraByID</text>
</a>
</g>
</g>
<!-- Node2 -->
<g id="node2" class="node">
<title>Node2</title>
<g id="a_node2"><a xlink:href="classDeviceManager.html#a3f93dff8d6545e06c2ac5d4b782bfd7d" target="_top" xlink:title=" ">
<polygon fill="none" stroke="black" points="233.5,-48 233.5,-67 396.5,-67 396.5,-48 233.5,-48"/>
<text text-anchor="middle" x="315" y="-55" font-family="Helvetica,sans-Serif" font-size="10.00">DeviceManager::closeCamera</text>
</a>
</g>
</g>
<!-- Node1&#45;&gt;Node2 -->
<g id="edge1" class="edge">
<title>Node1&#45;&gt;Node2</title>
<path fill="none" stroke="midnightblue" d="M435.72,-47.09C422.51,-48.24 409.22,-49.39 396.54,-50.5"/>
<polygon fill="midnightblue" stroke="midnightblue" points="436.13,-50.57 445.79,-46.21 435.52,-43.59 436.13,-50.57"/>
</g>
<!-- Node4 -->
<g id="node4" class="node">
<title>Node4</title>
<g id="a_node4"><a xlink:href="classDeviceManager.html#a48d26097a3bef429bc019be6cdadfdf1" target="_top" xlink:title=" ">
<polygon fill="none" stroke="black" points="220,-9 220,-28 410,-28 410,-9 220,-9"/>
<text text-anchor="middle" x="315" y="-16" font-family="Helvetica,sans-Serif" font-size="10.00">DeviceManager::getScheduledTime</text>
</a>
</g>
</g>
<!-- Node1&#45;&gt;Node4 -->
<g id="edge3" class="edge">
<title>Node1&#45;&gt;Node4</title>
<path fill="none" stroke="midnightblue" d="M435.74,-28.39C427.16,-27.68 418.54,-26.97 410.07,-26.27"/>
<polygon fill="midnightblue" stroke="midnightblue" points="435.53,-31.89 445.79,-29.22 436.11,-24.91 435.53,-31.89"/>
</g>
<!-- Node3 -->
<g id="node3" class="node">
<title>Node3</title>
<g id="a_node3"><a xlink:href="classDeviceManager.html#ad91a247c8acfd51c533be52313ce7ddd" target="_top" xlink:title=" ">
<polygon fill="none" stroke="black" points="0,-50 0,-69 184,-69 184,-50 0,-50"/>
<text text-anchor="middle" x="92" y="-57" font-family="Helvetica,sans-Serif" font-size="10.00">DeviceManager::~DeviceManager</text>
</a>
</g>
</g>
<!-- Node2&#45;&gt;Node3 -->
<g id="edge2" class="edge">
<title>Node2&#45;&gt;Node3</title>
<path fill="none" stroke="midnightblue" d="M223.11,-58.32C210.31,-58.44 197.15,-58.56 184.35,-58.67"/>
<polygon fill="midnightblue" stroke="midnightblue" points="223.31,-61.82 233.28,-58.23 223.24,-54.82 223.31,-61.82"/>
</g>
<!-- Node5 -->
<g id="node5" class="node">
<title>Node5</title>
<g id="a_node5"><a xlink:href="classDeviceManager.html#a0a4b5f6373bcfca4373e9533441442bf" target="_top" xlink:title=" ">
<polygon fill="none" stroke="black" points="5.5,-0.5 5.5,-30.5 178.5,-30.5 178.5,-0.5 5.5,-0.5"/>
<text text-anchor="start" x="13.5" y="-18.5" font-family="Helvetica,sans-Serif" font-size="10.00">DeviceManager::scheduleAction</text>
<text text-anchor="middle" x="92" y="-7.5" font-family="Helvetica,sans-Serif" font-size="10.00">Commands</text>
</a>
</g>
</g>
<!-- Node4&#45;&gt;Node5 -->
<g id="edge4" class="edge">
<title>Node4&#45;&gt;Node5</title>
<path fill="none" stroke="midnightblue" d="M209.92,-17.09C199.42,-16.94 188.83,-16.8 178.55,-16.66"/>
<polygon fill="midnightblue" stroke="midnightblue" points="209.91,-20.59 219.96,-17.22 210,-13.59 209.91,-20.59"/>
</g>
</g>
</svg>
