<?xml version="1.0" encoding="UTF-8" standalone="no"?>
<!DOCTYPE svg PUBLIC "-//W3C//DTD SVG 1.1//EN"
 "http://www.w3.org/Graphics/SVG/1.1/DTD/svg11.dtd">
<!-- Generated by graphviz version 2.43.0 (0)
 -->
<!-- Title: Camera::getCurrentIP Pages: 1 -->
<svg width="432pt" height="85pt"
 viewBox="0.00 0.00 432.00 85.00" xmlns="http://www.w3.org/2000/svg" xmlns:xlink="http://www.w3.org/1999/xlink">
<g id="graph0" class="graph" transform="scale(1 1) rotate(0) translate(4 81)">
<title>Camera::getCurrentIP</title>
<!-- Node1 -->
<g id="node1" class="node">
<title>Node1</title>
<g id="a_node1"><a xlink:title=" ">
<polygon fill="#bfbfbf" stroke="black" points="0,-38.5 0,-57.5 122,-57.5 122,-38.5 0,-38.5"/>
<text text-anchor="middle" x="61" y="-45.5" font-family="Helvetica,sans-Serif" font-size="10.00">Camera::getCurrentIP</text>
</a>
</g>
</g>
<!-- Node2 -->
<g id="node2" class="node">
<title>Node2</title>
<g id="a_node2"><a xlink:href="classCamera.html#ad182e9d0e07bc9c87566614760513aa2" target="_top" xlink:title=" ">
<polygon fill="none" stroke="black" points="305,-57.5 305,-76.5 424,-76.5 424,-57.5 305,-57.5"/>
<text text-anchor="middle" x="364.5" y="-64.5" font-family="Helvetica,sans-Serif" font-size="10.00">Camera::decimalToIP</text>
</a>
</g>
</g>
<!-- Node1&#45;&gt;Node2 -->
<g id="edge1" class="edge">
<title>Node1&#45;&gt;Node2</title>
<path fill="none" stroke="midnightblue" d="M100.98,-57.51C118.32,-61.28 139.06,-65.14 158,-67 203.4,-71.45 254.72,-71.45 294.71,-70.34"/>
<polygon fill="midnightblue" stroke="midnightblue" points="295,-73.84 304.89,-70.03 294.79,-66.84 295,-73.84"/>
</g>
<!-- Node3 -->
<g id="node3" class="node">
<title>Node3</title>
<g id="a_node3"><a xlink:href="classCamera.html#ad53ddaba9bcc76a479020938de83daab" target="_top" xlink:title=" ">
<polygon fill="none" stroke="black" points="164.5,-38.5 164.5,-57.5 262.5,-57.5 262.5,-38.5 164.5,-38.5"/>
<text text-anchor="middle" x="213.5" y="-45.5" font-family="Helvetica,sans-Serif" font-size="10.00">Camera::hexToIP</text>
</a>
</g>
</g>
<!-- Node1&#45;&gt;Node3 -->
<g id="edge2" class="edge">
<title>Node1&#45;&gt;Node3</title>
<path fill="none" stroke="midnightblue" d="M122.35,-48C132.77,-48 143.6,-48 153.98,-48"/>
<polygon fill="midnightblue" stroke="midnightblue" points="154.17,-51.5 164.17,-48 154.17,-44.5 154.17,-51.5"/>
</g>
<!-- Node4 -->
<g id="node4" class="node">
<title>Node4</title>
<g id="a_node4"><a xlink:href="classCamera.html#ade437e0323ff584e94503a936e7d62fd" target="_top" xlink:title=" ">
<polygon fill="none" stroke="black" points="158,-0.5 158,-19.5 269,-19.5 269,-0.5 158,-0.5"/>
<text text-anchor="middle" x="213.5" y="-7.5" font-family="Helvetica,sans-Serif" font-size="10.00">Camera::isDottedIP</text>
</a>
</g>
</g>
<!-- Node1&#45;&gt;Node4 -->
<g id="edge4" class="edge">
<title>Node1&#45;&gt;Node4</title>
<path fill="none" stroke="midnightblue" d="M99.98,-38.41C119.66,-33.44 143.89,-27.32 164.82,-22.04"/>
<polygon fill="midnightblue" stroke="midnightblue" points="165.96,-25.36 174.8,-19.52 164.24,-18.57 165.96,-25.36"/>
</g>
<!-- Node3&#45;&gt;Node2 -->
<g id="edge3" class="edge">
<title>Node3&#45;&gt;Node2</title>
<path fill="none" stroke="midnightblue" d="M262.88,-54.17C273.05,-55.47 283.97,-56.86 294.73,-58.23"/>
<polygon fill="midnightblue" stroke="midnightblue" points="294.6,-61.74 304.96,-59.54 295.49,-54.8 294.6,-61.74"/>
</g>
</g>
</svg>
