<?xml version="1.0" encoding="UTF-8" standalone="no"?>
<!DOCTYPE svg PUBLIC "-//W3C//DTD SVG 1.1//EN"
 "http://www.w3.org/Graphics/SVG/1.1/DTD/svg11.dtd">
<!-- Generated by graphviz version 2.43.0 (0)
 -->
<!-- Title: SystemManager::enumerateCameras Pages: 1 -->
<svg width="930pt" height="83pt"
 viewBox="0.00 0.00 930.00 83.00" xmlns="http://www.w3.org/2000/svg" xmlns:xlink="http://www.w3.org/1999/xlink">
<g id="graph0" class="graph" transform="scale(1 1) rotate(0) translate(4 79)">
<title>SystemManager::enumerateCameras</title>
<!-- Node1 -->
<g id="node1" class="node">
<title>Node1</title>
<g id="a_node1"><a xlink:title=" ">
<polygon fill="#bfbfbf" stroke="black" points="0,-28 0,-47 199,-47 199,-28 0,-28"/>
<text text-anchor="middle" x="99.5" y="-35" font-family="Helvetica,sans-Serif" font-size="10.00">SystemManager::enumerateCameras</text>
</a>
</g>
</g>
<!-- Node2 -->
<g id="node2" class="node">
<title>Node2</title>
<g id="a_node2"><a xlink:href="classDeviceManager.html#a8a18f2eeb06ca5683d69aed675dbffcb" target="_top" xlink:title=" ">
<polygon fill="none" stroke="black" points="235,-50 235,-69 438,-69 438,-50 235,-50"/>
<text text-anchor="middle" x="336.5" y="-57" font-family="Helvetica,sans-Serif" font-size="10.00">DeviceManager::getAvailableCameras</text>
</a>
</g>
</g>
<!-- Node1&#45;&gt;Node2 -->
<g id="edge1" class="edge">
<title>Node1&#45;&gt;Node2</title>
<path fill="none" stroke="midnightblue" d="M199.14,-46.73C207.63,-47.53 216.25,-48.34 224.82,-49.14"/>
<polygon fill="midnightblue" stroke="midnightblue" points="224.57,-52.63 234.85,-50.08 225.22,-45.66 224.57,-52.63"/>
</g>
<!-- Node5 -->
<g id="node5" class="node">
<title>Node5</title>
<g id="a_node5"><a xlink:href="classDeviceManager.html#a8e9faffa5ae7cf3ce2e292219bb82c32" target="_top" xlink:title=" ">
<polygon fill="none" stroke="black" points="257,-0.5 257,-30.5 416,-30.5 416,-0.5 257,-0.5"/>
<text text-anchor="start" x="265" y="-18.5" font-family="Helvetica,sans-Serif" font-size="10.00">DeviceManager::listAvailable</text>
<text text-anchor="middle" x="336.5" y="-7.5" font-family="Helvetica,sans-Serif" font-size="10.00">CamerasByID</text>
</a>
</g>
</g>
<!-- Node1&#45;&gt;Node5 -->
<g id="edge4" class="edge">
<title>Node1&#45;&gt;Node5</title>
<path fill="none" stroke="midnightblue" d="M199.14,-28.27C214.9,-26.79 231.13,-25.27 246.65,-23.82"/>
<polygon fill="midnightblue" stroke="midnightblue" points="247.11,-27.29 256.74,-22.87 246.45,-20.32 247.11,-27.29"/>
</g>
<!-- Node3 -->
<g id="node3" class="node">
<title>Node3</title>
<g id="a_node3"><a xlink:href="classDeviceManager.html#ab0ab314042a5d622db73d67b3bbdedf4" target="_top" xlink:title=" ">
<polygon fill="none" stroke="black" points="474,-44.5 474,-74.5 665,-74.5 665,-44.5 474,-44.5"/>
<text text-anchor="start" x="482" y="-62.5" font-family="Helvetica,sans-Serif" font-size="10.00">DeviceManager::enumerateDevices</text>
<text text-anchor="middle" x="569.5" y="-51.5" font-family="Helvetica,sans-Serif" font-size="10.00">FromSystems</text>
</a>
</g>
</g>
<!-- Node2&#45;&gt;Node3 -->
<g id="edge2" class="edge">
<title>Node2&#45;&gt;Node3</title>
<path fill="none" stroke="midnightblue" d="M438.15,-59.5C446.53,-59.5 455.02,-59.5 463.44,-59.5"/>
<polygon fill="midnightblue" stroke="midnightblue" points="463.66,-63 473.66,-59.5 463.66,-56 463.66,-63"/>
</g>
<!-- Node4 -->
<g id="node4" class="node">
<title>Node4</title>
<g id="a_node4"><a xlink:href="classDeviceManager.html#a6374a294f1d0d15f18ab35aea1fb6158" target="_top" xlink:title=" ">
<polygon fill="none" stroke="black" points="701,-50 701,-69 922,-69 922,-50 701,-50"/>
<text text-anchor="middle" x="811.5" y="-57" font-family="Helvetica,sans-Serif" font-size="10.00">DeviceManager::getAvailableCameraByID</text>
</a>
</g>
</g>
<!-- Node3&#45;&gt;Node4 -->
<g id="edge3" class="edge">
<title>Node3&#45;&gt;Node4</title>
<path fill="none" stroke="midnightblue" d="M665.01,-59.5C673.5,-59.5 682.16,-59.5 690.82,-59.5"/>
<polygon fill="midnightblue" stroke="midnightblue" points="690.98,-63 700.98,-59.5 690.98,-56 690.98,-63"/>
</g>
</g>
</svg>
