<?xml version="1.0" encoding="UTF-8" standalone="no"?>
<!DOCTYPE svg PUBLIC "-//W3C//DTD SVG 1.1//EN"
 "http://www.w3.org/Graphics/SVG/1.1/DTD/svg11.dtd">
<!-- Generated by graphviz version 2.43.0 (0)
 -->
<!-- Title: Camera::calculateFrameTransmissionCycle Pages: 1 -->
<svg width="625pt" height="28pt"
 viewBox="0.00 0.00 625.00 28.00" xmlns="http://www.w3.org/2000/svg" xmlns:xlink="http://www.w3.org/1999/xlink">
<g id="graph0" class="graph" transform="scale(1 1) rotate(0) translate(4 24)">
<title>Camera::calculateFrameTransmissionCycle</title>
<!-- Node1 -->
<g id="node1" class="node">
<title>Node1</title>
<g id="a_node1"><a xlink:title=" ">
<polygon fill="#bfbfbf" stroke="black" points="0,-0.5 0,-19.5 227,-19.5 227,-0.5 0,-0.5"/>
<text text-anchor="middle" x="113.5" y="-7.5" font-family="Helvetica,sans-Serif" font-size="10.00">Camera::calculateFrameTransmissionCycle</text>
</a>
</g>
</g>
<!-- Node2 -->
<g id="node2" class="node">
<title>Node2</title>
<g id="a_node2"><a xlink:href="classCamera.html#aba94d8c74096200df21ad24d58cd3e53" target="_top" xlink:title=" ">
<polygon fill="none" stroke="black" points="263,-0.5 263,-19.5 447,-19.5 447,-0.5 263,-0.5"/>
<text text-anchor="middle" x="355" y="-7.5" font-family="Helvetica,sans-Serif" font-size="10.00">Camera::calculateRawFrameSizeB</text>
</a>
</g>
</g>
<!-- Node1&#45;&gt;Node2 -->
<g id="edge1" class="edge">
<title>Node1&#45;&gt;Node2</title>
<path fill="none" stroke="midnightblue" d="M227.24,-10C235.69,-10 244.19,-10 252.57,-10"/>
<polygon fill="midnightblue" stroke="midnightblue" points="252.71,-13.5 262.71,-10 252.71,-6.5 252.71,-13.5"/>
</g>
<!-- Node3 -->
<g id="node3" class="node">
<title>Node3</title>
<g id="a_node3"><a xlink:href="classCamera.html#ab9adc7920595086ce1731ec4c987b1dd" target="_top" xlink:title=" ">
<polygon fill="none" stroke="black" points="483,-0.5 483,-19.5 617,-19.5 617,-0.5 483,-0.5"/>
<text text-anchor="middle" x="550" y="-7.5" font-family="Helvetica,sans-Serif" font-size="10.00">Camera::getBitsPerPixel</text>
</a>
</g>
</g>
<!-- Node2&#45;&gt;Node3 -->
<g id="edge2" class="edge">
<title>Node2&#45;&gt;Node3</title>
<path fill="none" stroke="midnightblue" d="M447.13,-10C455.67,-10 464.26,-10 472.64,-10"/>
<polygon fill="midnightblue" stroke="midnightblue" points="472.73,-13.5 482.73,-10 472.73,-6.5 472.73,-13.5"/>
</g>
</g>
</svg>
