<?xml version="1.0" encoding="UTF-8" standalone="no"?>
<!DOCTYPE svg PUBLIC "-//W3C//DTD SVG 1.1//EN"
 "http://www.w3.org/Graphics/SVG/1.1/DTD/svg11.dtd">
<!-- Generated by graphviz version 2.43.0 (0)
 -->
<!-- Title: Camera::startStreaming Pages: 1 -->
<svg width="726pt" height="389pt"
 viewBox="0.00 0.00 726.00 389.00" xmlns="http://www.w3.org/2000/svg" xmlns:xlink="http://www.w3.org/1999/xlink">
<g id="graph0" class="graph" transform="scale(1 1) rotate(0) translate(4 385)">
<title>Camera::startStreaming</title>
<!-- Node1 -->
<g id="node1" class="node">
<title>Node1</title>
<g id="a_node1"><a xlink:title=" ">
<polygon fill="#bfbfbf" stroke="black" points="0,-209.5 0,-228.5 134,-228.5 134,-209.5 0,-209.5"/>
<text text-anchor="middle" x="67" y="-216.5" font-family="Helvetica,sans-Serif" font-size="10.00">Camera::startStreaming</text>
</a>
</g>
</g>
<!-- Node2 -->
<g id="node2" class="node">
<title>Node2</title>
<g id="a_node2"><a xlink:href="classCamera.html#a01774134d5e2e33b4f5961e45378870b" target="_top" xlink:title=" ">
<polygon fill="none" stroke="black" points="185.5,-361.5 185.5,-380.5 319.5,-380.5 319.5,-361.5 185.5,-361.5"/>
<text text-anchor="middle" x="252.5" y="-368.5" font-family="Helvetica,sans-Serif" font-size="10.00">Camera::cleanupStream</text>
</a>
</g>
</g>
<!-- Node1&#45;&gt;Node2 -->
<g id="edge1" class="edge">
<title>Node1&#45;&gt;Node2</title>
<path fill="none" stroke="midnightblue" d="M72.96,-228.69C85.69,-252.57 121.9,-314.65 170,-347 176.54,-351.4 183.9,-355.01 191.45,-357.96"/>
<polygon fill="midnightblue" stroke="midnightblue" points="190.48,-361.33 201.08,-361.37 192.82,-354.73 190.48,-361.33"/>
</g>
<!-- Node3 -->
<g id="node3" class="node">
<title>Node3</title>
<g id="a_node3"><a xlink:href="classCamera.html#ad8910a05e1991b732f25ea3a7db7f141" target="_top" xlink:title=" ">
<polygon fill="none" stroke="black" points="384,-285.5 384,-304.5 528,-304.5 528,-285.5 384,-285.5"/>
<text text-anchor="middle" x="456" y="-292.5" font-family="Helvetica,sans-Serif" font-size="10.00">Camera::getLastSavedFps</text>
</a>
</g>
</g>
<!-- Node1&#45;&gt;Node3 -->
<g id="edge2" class="edge">
<title>Node1&#45;&gt;Node3</title>
<path fill="none" stroke="midnightblue" d="M74.47,-228.72C88.78,-249.22 125.41,-296.45 170,-314 253.41,-346.82 361.11,-323.83 417.22,-307.47"/>
<polygon fill="midnightblue" stroke="midnightblue" points="418.51,-310.74 427.08,-304.51 416.5,-304.03 418.51,-310.74"/>
</g>
<!-- Node4 -->
<g id="node4" class="node">
<title>Node4</title>
<g id="a_node4"><a xlink:href="classCamera.html#ac88e5fc34dc47f31f1a5c972dd899506" target="_top" xlink:title=" ">
<polygon fill="none" stroke="black" points="183.5,-285.5 183.5,-304.5 321.5,-304.5 321.5,-285.5 183.5,-285.5"/>
<text text-anchor="middle" x="252.5" y="-292.5" font-family="Helvetica,sans-Serif" font-size="10.00">Camera::initializeStream</text>
</a>
</g>
</g>
<!-- Node1&#45;&gt;Node4 -->
<g id="edge3" class="edge">
<title>Node1&#45;&gt;Node4</title>
<path fill="none" stroke="midnightblue" d="M82.23,-228.66C101.39,-241.25 136.89,-263.19 170,-276 176.46,-278.5 183.35,-280.73 190.27,-282.7"/>
<polygon fill="midnightblue" stroke="midnightblue" points="189.84,-286.21 200.4,-285.41 191.64,-279.45 189.84,-286.21"/>
</g>
<!-- Node5 -->
<g id="node5" class="node">
<title>Node5</title>
<g id="a_node5"><a xlink:href="classCamera.html#ac9ff8e00386dd1d1a77bf1d8fc831801" target="_top" xlink:title=" ">
<polygon fill="none" stroke="black" points="172,-209.5 172,-228.5 333,-228.5 333,-209.5 172,-209.5"/>
<text text-anchor="middle" x="252.5" y="-216.5" font-family="Helvetica,sans-Serif" font-size="10.00">Camera::initializeVideoWriter</text>
</a>
</g>
</g>
<!-- Node1&#45;&gt;Node5 -->
<g id="edge4" class="edge">
<title>Node1&#45;&gt;Node5</title>
<path fill="none" stroke="midnightblue" d="M134.25,-219C143.22,-219 152.54,-219 161.84,-219"/>
<polygon fill="midnightblue" stroke="midnightblue" points="161.9,-222.5 171.9,-219 161.9,-215.5 161.9,-222.5"/>
</g>
<!-- Node8 -->
<g id="node8" class="node">
<title>Node8</title>
<g id="a_node8"><a xlink:href="classCamera.html#aefac8771f67d504e83aeff81eba2c8d0" target="_top" xlink:title=" ">
<polygon fill="none" stroke="black" points="170,-247.5 170,-266.5 335,-266.5 335,-247.5 170,-247.5"/>
<text text-anchor="middle" x="252.5" y="-254.5" font-family="Helvetica,sans-Serif" font-size="10.00">Camera::isFpsStableForSaving</text>
</a>
</g>
</g>
<!-- Node1&#45;&gt;Node8 -->
<g id="edge7" class="edge">
<title>Node1&#45;&gt;Node8</title>
<path fill="none" stroke="midnightblue" d="M114.3,-228.59C138.96,-233.69 169.46,-240.01 195.44,-245.39"/>
<polygon fill="midnightblue" stroke="midnightblue" points="195.03,-248.88 205.53,-247.48 196.45,-242.02 195.03,-248.88"/>
</g>
<!-- Node9 -->
<g id="node9" class="node">
<title>Node9</title>
<g id="a_node9"><a xlink:href="classCamera.html#ad66067095b7ae7b2727a48a5d9d8ab3b" target="_top" xlink:title=" ">
<polygon fill="none" stroke="black" points="188,-133.5 188,-152.5 317,-152.5 317,-133.5 188,-133.5"/>
<text text-anchor="middle" x="252.5" y="-140.5" font-family="Helvetica,sans-Serif" font-size="10.00">Camera::processFrame</text>
</a>
</g>
</g>
<!-- Node1&#45;&gt;Node9 -->
<g id="edge9" class="edge">
<title>Node1&#45;&gt;Node9</title>
<path fill="none" stroke="midnightblue" d="M82.23,-209.34C101.39,-196.75 136.89,-174.81 170,-162 176.46,-159.5 183.35,-157.27 190.27,-155.3"/>
<polygon fill="midnightblue" stroke="midnightblue" points="191.64,-158.55 200.4,-152.59 189.84,-151.79 191.64,-158.55"/>
</g>
<!-- Node11 -->
<g id="node11" class="node">
<title>Node11</title>
<g id="a_node11"><a xlink:href="classCamera.html#adb38ed40f81a6d3b3ef3a6c8d92477cf" target="_top" xlink:title=" ">
<polygon fill="none" stroke="black" points="181,-171.5 181,-190.5 324,-190.5 324,-171.5 181,-171.5"/>
<text text-anchor="middle" x="252.5" y="-178.5" font-family="Helvetica,sans-Serif" font-size="10.00">Camera::saveFrameToPng</text>
</a>
</g>
</g>
<!-- Node1&#45;&gt;Node11 -->
<g id="edge11" class="edge">
<title>Node1&#45;&gt;Node11</title>
<path fill="none" stroke="midnightblue" d="M114.3,-209.41C138.96,-204.31 169.46,-197.99 195.44,-192.61"/>
<polygon fill="midnightblue" stroke="midnightblue" points="196.45,-195.98 205.53,-190.52 195.03,-189.12 196.45,-195.98"/>
</g>
<!-- Node12 -->
<g id="node12" class="node">
<title>Node12</title>
<g id="a_node12"><a xlink:href="classCamera.html#a15db7e9e9018c851e897265d89fde627" target="_top" xlink:title=" ">
<polygon fill="none" stroke="black" points="176,-95.5 176,-114.5 329,-114.5 329,-95.5 176,-95.5"/>
<text text-anchor="middle" x="252.5" y="-102.5" font-family="Helvetica,sans-Serif" font-size="10.00">Camera::saveFrameToVideo</text>
</a>
</g>
</g>
<!-- Node1&#45;&gt;Node12 -->
<g id="edge13" class="edge">
<title>Node1&#45;&gt;Node12</title>
<path fill="none" stroke="midnightblue" d="M75.28,-209.47C90.59,-190.14 128.14,-146.3 170,-124 174.45,-121.63 179.2,-119.55 184.08,-117.73"/>
<polygon fill="midnightblue" stroke="midnightblue" points="185.21,-121.04 193.57,-114.54 182.98,-114.41 185.21,-121.04"/>
</g>
<!-- Node13 -->
<g id="node13" class="node">
<title>Node13</title>
<g id="a_node13"><a xlink:href="classCamera.html#ac75a36ff4d008e091919c9a0e8d3d752" target="_top" xlink:title=" ">
<polygon fill="none" stroke="black" points="174,-57.5 174,-76.5 331,-76.5 331,-57.5 174,-57.5"/>
<text text-anchor="middle" x="252.5" y="-64.5" font-family="Helvetica,sans-Serif" font-size="10.00">Camera::updateGlobalFrame</text>
</a>
</g>
</g>
<!-- Node1&#45;&gt;Node13 -->
<g id="edge14" class="edge">
<title>Node1&#45;&gt;Node13</title>
<path fill="none" stroke="midnightblue" d="M72.39,-209.48C84.27,-184.81 119.62,-118.49 170,-86 173.18,-83.95 176.55,-82.12 180.05,-80.49"/>
<polygon fill="midnightblue" stroke="midnightblue" points="181.61,-83.63 189.55,-76.61 178.97,-77.15 181.61,-83.63"/>
</g>
<!-- Node6 -->
<g id="node6" class="node">
<title>Node6</title>
<g id="a_node6"><a xlink:href="GlobalSettings_8cpp.html#ae20198dd587799aa9d5579c3597f7fb4" target="_top" xlink:title=" ">
<polygon fill="none" stroke="black" points="577,-114.5 577,-133.5 718,-133.5 718,-114.5 577,-114.5"/>
<text text-anchor="middle" x="647.5" y="-121.5" font-family="Helvetica,sans-Serif" font-size="10.00">getGlobalFpsUpperBound</text>
</a>
</g>
</g>
<!-- Node5&#45;&gt;Node6 -->
<g id="edge5" class="edge">
<title>Node5&#45;&gt;Node6</title>
<path fill="none" stroke="midnightblue" d="M333.06,-225.32C392.15,-227.28 473.8,-224.16 541,-200 576.32,-187.3 610.26,-159.05 629.71,-140.79"/>
<polygon fill="midnightblue" stroke="midnightblue" points="632.35,-143.11 637.13,-133.66 627.49,-138.07 632.35,-143.11"/>
</g>
<!-- Node7 -->
<g id="node7" class="node">
<title>Node7</title>
<g id="a_node7"><a xlink:href="GlobalSettings_8hpp.html#a292086bff16224cc0653061c22440e60" target="_top" xlink:title=" ">
<polygon fill="none" stroke="black" points="393.5,-171.5 393.5,-190.5 518.5,-190.5 518.5,-171.5 393.5,-171.5"/>
<text text-anchor="middle" x="456" y="-178.5" font-family="Helvetica,sans-Serif" font-size="10.00">getSessionTimestamp</text>
</a>
</g>
</g>
<!-- Node5&#45;&gt;Node7 -->
<g id="edge6" class="edge">
<title>Node5&#45;&gt;Node7</title>
<path fill="none" stroke="midnightblue" d="M304.09,-209.46C331.51,-204.29 365.6,-197.86 394.43,-192.42"/>
<polygon fill="midnightblue" stroke="midnightblue" points="395.21,-195.84 404.39,-190.54 393.92,-188.96 395.21,-195.84"/>
</g>
<!-- Node8&#45;&gt;Node3 -->
<g id="edge8" class="edge">
<title>Node8&#45;&gt;Node3</title>
<path fill="none" stroke="midnightblue" d="M304.09,-266.54C331.51,-271.71 365.6,-278.14 394.43,-283.58"/>
<polygon fill="midnightblue" stroke="midnightblue" points="393.92,-287.04 404.39,-285.46 395.21,-280.16 393.92,-287.04"/>
</g>
<!-- Node10 -->
<g id="node10" class="node">
<title>Node10</title>
<g id="a_node10"><a xlink:href="classCamera.html#a6287fa61c0310386032d65cf61ed37e2" target="_top" xlink:title="Process a raw frame based on the pixel format.">
<polygon fill="none" stroke="black" points="381,-133.5 381,-152.5 531,-152.5 531,-133.5 381,-133.5"/>
<text text-anchor="middle" x="456" y="-140.5" font-family="Helvetica,sans-Serif" font-size="10.00">Camera::processRawFrame</text>
</a>
</g>
</g>
<!-- Node9&#45;&gt;Node10 -->
<g id="edge10" class="edge">
<title>Node9&#45;&gt;Node10</title>
<path fill="none" stroke="midnightblue" d="M317.26,-143C334.12,-143 352.6,-143 370.38,-143"/>
<polygon fill="midnightblue" stroke="midnightblue" points="370.76,-146.5 380.76,-143 370.76,-139.5 370.76,-146.5"/>
</g>
<!-- Node11&#45;&gt;Node7 -->
<g id="edge12" class="edge">
<title>Node11&#45;&gt;Node7</title>
<path fill="none" stroke="midnightblue" d="M324.26,-181C343.39,-181 364.1,-181 383.28,-181"/>
<polygon fill="midnightblue" stroke="midnightblue" points="383.46,-184.5 393.46,-181 383.46,-177.5 383.46,-184.5"/>
</g>
<!-- Node13&#45;&gt;Node6 -->
<g id="edge20" class="edge">
<title>Node13&#45;&gt;Node6</title>
<path fill="none" stroke="midnightblue" d="M310.83,-76.54C329.95,-79.65 351.38,-83.06 371,-86 436.85,-95.86 511.71,-106.13 566.76,-113.5"/>
<polygon fill="midnightblue" stroke="midnightblue" points="566.43,-116.99 576.8,-114.84 567.35,-110.05 566.43,-116.99"/>
</g>
<!-- Node14 -->
<g id="node14" class="node">
<title>Node14</title>
<g id="a_node14"><a xlink:href="classCamera.html#a73d0377e77c2e760d29381cd1073c2cd" target="_top" xlink:title=" ">
<polygon fill="none" stroke="black" points="371,-57.5 371,-76.5 541,-76.5 541,-57.5 371,-57.5"/>
<text text-anchor="middle" x="456" y="-64.5" font-family="Helvetica,sans-Serif" font-size="10.00">Camera::adjustFpsDynamically</text>
</a>
</g>
</g>
<!-- Node13&#45;&gt;Node14 -->
<g id="edge15" class="edge">
<title>Node13&#45;&gt;Node14</title>
<path fill="none" stroke="midnightblue" d="M331.12,-67C340.74,-67 350.67,-67 360.51,-67"/>
<polygon fill="midnightblue" stroke="midnightblue" points="360.73,-70.5 370.73,-67 360.73,-63.5 360.73,-70.5"/>
</g>
<!-- Node18 -->
<g id="node18" class="node">
<title>Node18</title>
<g id="a_node18"><a xlink:href="classCamera.html#a4b68939bf4d62a6a69a44b8a5b7000b3" target="_top" xlink:title=" ">
<polygon fill="none" stroke="black" points="387.5,-19.5 387.5,-38.5 524.5,-38.5 524.5,-19.5 387.5,-19.5"/>
<text text-anchor="middle" x="456" y="-26.5" font-family="Helvetica,sans-Serif" font-size="10.00">Camera::getTimestamps</text>
</a>
</g>
</g>
<!-- Node13&#45;&gt;Node18 -->
<g id="edge21" class="edge">
<title>Node13&#45;&gt;Node18</title>
<path fill="none" stroke="midnightblue" d="M304.09,-57.46C331.51,-52.29 365.6,-45.86 394.43,-40.42"/>
<polygon fill="midnightblue" stroke="midnightblue" points="395.21,-43.84 404.39,-38.54 393.92,-36.96 395.21,-43.84"/>
</g>
<!-- Node14&#45;&gt;Node6 -->
<g id="edge17" class="edge">
<title>Node14&#45;&gt;Node6</title>
<path fill="none" stroke="midnightblue" d="M493.2,-76.55C508.1,-80.69 525.48,-85.78 541,-91 557.27,-96.48 560.7,-99.62 577,-105 584.1,-107.34 591.68,-109.63 599.12,-111.76"/>
<polygon fill="midnightblue" stroke="midnightblue" points="598.2,-115.13 608.77,-114.45 600.08,-108.39 598.2,-115.13"/>
</g>
<!-- Node15 -->
<g id="node15" class="node">
<title>Node15</title>
<g id="a_node15"><a xlink:href="classCamera.html#a5b1326da520053d87a9472577c401207" target="_top" xlink:title=" ">
<polygon fill="none" stroke="black" points="600.5,-76.5 600.5,-95.5 694.5,-95.5 694.5,-76.5 600.5,-76.5"/>
<text text-anchor="middle" x="647.5" y="-83.5" font-family="Helvetica,sans-Serif" font-size="10.00">Camera::getFps</text>
</a>
</g>
</g>
<!-- Node14&#45;&gt;Node15 -->
<g id="edge16" class="edge">
<title>Node14&#45;&gt;Node15</title>
<path fill="none" stroke="midnightblue" d="M541.22,-75.44C557.77,-77.1 574.74,-78.81 590.1,-80.35"/>
<polygon fill="midnightblue" stroke="midnightblue" points="590.16,-83.87 600.46,-81.38 590.85,-76.9 590.16,-83.87"/>
</g>
<!-- Node16 -->
<g id="node16" class="node">
<title>Node16</title>
<g id="a_node16"><a xlink:href="classCamera.html#a476aadf5f98ad43eacfabfd465c40062" target="_top" xlink:title=" ">
<polygon fill="none" stroke="black" points="601,-38.5 601,-57.5 694,-57.5 694,-38.5 601,-38.5"/>
<text text-anchor="middle" x="647.5" y="-45.5" font-family="Helvetica,sans-Serif" font-size="10.00">Camera::setFps</text>
</a>
</g>
</g>
<!-- Node14&#45;&gt;Node16 -->
<g id="edge18" class="edge">
<title>Node14&#45;&gt;Node16</title>
<path fill="none" stroke="midnightblue" d="M541.22,-58.56C558.09,-56.86 575.4,-55.13 591,-53.56"/>
<polygon fill="midnightblue" stroke="midnightblue" points="591.37,-57.04 600.97,-52.56 590.68,-50.08 591.37,-57.04"/>
</g>
<!-- Node17 -->
<g id="node17" class="node">
<title>Node17</title>
<g id="a_node17"><a xlink:href="GlobalSettings_8cpp.html#a4e4d4e3815c368773a4dfcfc9d19666c" target="_top" xlink:title=" ">
<polygon fill="none" stroke="black" points="577.5,-0.5 577.5,-19.5 717.5,-19.5 717.5,-0.5 577.5,-0.5"/>
<text text-anchor="middle" x="647.5" y="-7.5" font-family="Helvetica,sans-Serif" font-size="10.00">setGlobalFpsUpperBound</text>
</a>
</g>
</g>
<!-- Node14&#45;&gt;Node17 -->
<g id="edge19" class="edge">
<title>Node14&#45;&gt;Node17</title>
<path fill="none" stroke="midnightblue" d="M509.15,-57.45C519.84,-54.87 530.9,-51.73 541,-48 557.97,-41.73 560.17,-35.65 577,-29 582.96,-26.65 589.31,-24.48 595.66,-22.51"/>
<polygon fill="midnightblue" stroke="midnightblue" points="596.98,-25.77 605.59,-19.58 595,-19.05 596.98,-25.77"/>
</g>
</g>
</svg>
