<?xml version="1.0" encoding="UTF-8" standalone="no"?>
<!DOCTYPE svg PUBLIC "-//W3C//DTD SVG 1.1//EN"
 "http://www.w3.org/Graphics/SVG/1.1/DTD/svg11.dtd">
<!-- Generated by graphviz version 2.43.0 (0)
 -->
<!-- Title: src/DeviceManager.hpp Pages: 1 -->
<svg width="651pt" height="140pt"
 viewBox="0.00 0.00 651.00 140.00" xmlns="http://www.w3.org/2000/svg" xmlns:xlink="http://www.w3.org/1999/xlink">
<g id="graph0" class="graph" transform="scale(1 1) rotate(0) translate(4 136)">
<title>src/DeviceManager.hpp</title>
<!-- Node1 -->
<g id="node1" class="node">
<title>Node1</title>
<g id="a_node1"><a xlink:title=" ">
<polygon fill="#bfbfbf" stroke="black" points="303.5,-112.5 303.5,-131.5 434.5,-131.5 434.5,-112.5 303.5,-112.5"/>
<text text-anchor="middle" x="369" y="-119.5" font-family="Helvetica,sans-Serif" font-size="10.00">src/DeviceManager.hpp</text>
</a>
</g>
</g>
<!-- Node2 -->
<g id="node2" class="node">
<title>Node2</title>
<g id="a_node2"><a xlink:href="DeviceManager_8cpp.html" target="_top" xlink:title=" ">
<polygon fill="none" stroke="black" points="0,-56.5 0,-75.5 130,-75.5 130,-56.5 0,-56.5"/>
<text text-anchor="middle" x="65" y="-63.5" font-family="Helvetica,sans-Serif" font-size="10.00">src/DeviceManager.cpp</text>
</a>
</g>
</g>
<!-- Node1&#45;&gt;Node2 -->
<g id="edge1" class="edge">
<title>Node1&#45;&gt;Node2</title>
<path fill="none" stroke="midnightblue" d="M310.81,-110.66C253.36,-100.46 166.55,-85.04 112.94,-75.52"/>
<polygon fill="midnightblue" stroke="midnightblue" points="310.37,-114.14 320.83,-112.44 311.6,-107.25 310.37,-114.14"/>
</g>
<!-- Node3 -->
<g id="node3" class="node">
<title>Node3</title>
<g id="a_node3"><a xlink:href="NetworkManager_8cpp.html" target="_top" xlink:title=" ">
<polygon fill="none" stroke="black" points="148.5,-56.5 148.5,-75.5 285.5,-75.5 285.5,-56.5 148.5,-56.5"/>
<text text-anchor="middle" x="217" y="-63.5" font-family="Helvetica,sans-Serif" font-size="10.00">src/NetworkManager.cpp</text>
</a>
</g>
</g>
<!-- Node1&#45;&gt;Node3 -->
<g id="edge2" class="edge">
<title>Node1&#45;&gt;Node3</title>
<path fill="none" stroke="midnightblue" d="M335.33,-109.04C306.73,-98.88 266.39,-84.55 240.97,-75.52"/>
<polygon fill="midnightblue" stroke="midnightblue" points="334.32,-112.39 344.92,-112.44 336.66,-105.8 334.32,-112.39"/>
</g>
<!-- Node4 -->
<g id="node4" class="node">
<title>Node4</title>
<g id="a_node4"><a xlink:href="StreamManager_8cpp.html" target="_top" xlink:title=" ">
<polygon fill="none" stroke="black" points="303.5,-56.5 303.5,-75.5 434.5,-75.5 434.5,-56.5 303.5,-56.5"/>
<text text-anchor="middle" x="369" y="-63.5" font-family="Helvetica,sans-Serif" font-size="10.00">src/StreamManager.cpp</text>
</a>
</g>
</g>
<!-- Node1&#45;&gt;Node4 -->
<g id="edge3" class="edge">
<title>Node1&#45;&gt;Node4</title>
<path fill="none" stroke="midnightblue" d="M369,-101.8C369,-92.91 369,-82.78 369,-75.75"/>
<polygon fill="midnightblue" stroke="midnightblue" points="365.5,-102.08 369,-112.08 372.5,-102.08 365.5,-102.08"/>
</g>
<!-- Node5 -->
<g id="node5" class="node">
<title>Node5</title>
<g id="a_node5"><a xlink:href="SystemManager_8cpp.html" target="_top" xlink:title=" ">
<polygon fill="none" stroke="black" points="396.5,-0.5 396.5,-19.5 529.5,-19.5 529.5,-0.5 396.5,-0.5"/>
<text text-anchor="middle" x="463" y="-7.5" font-family="Helvetica,sans-Serif" font-size="10.00">src/SystemManager.cpp</text>
</a>
</g>
</g>
<!-- Node1&#45;&gt;Node5 -->
<g id="edge4" class="edge">
<title>Node1&#45;&gt;Node5</title>
<path fill="none" stroke="midnightblue" d="M401.6,-108.1C416.46,-100.73 433.12,-90.1 444,-76 457.07,-59.06 461.16,-33.35 462.43,-19.91"/>
<polygon fill="midnightblue" stroke="midnightblue" points="399.77,-105.09 392.18,-112.48 402.73,-111.44 399.77,-105.09"/>
</g>
<!-- Node6 -->
<g id="node6" class="node">
<title>Node6</title>
<g id="a_node6"><a xlink:href="SystemManager_8hpp.html" target="_top" xlink:title=" ">
<polygon fill="none" stroke="black" points="491,-56.5 491,-75.5 625,-75.5 625,-56.5 491,-56.5"/>
<text text-anchor="middle" x="558" y="-63.5" font-family="Helvetica,sans-Serif" font-size="10.00">src/SystemManager.hpp</text>
</a>
</g>
</g>
<!-- Node1&#45;&gt;Node6 -->
<g id="edge5" class="edge">
<title>Node1&#45;&gt;Node6</title>
<path fill="none" stroke="midnightblue" d="M409.01,-109.57C444.67,-99.38 496.04,-84.7 528.19,-75.52"/>
<polygon fill="midnightblue" stroke="midnightblue" points="407.6,-106.33 398.95,-112.44 409.52,-113.06 407.6,-106.33"/>
</g>
<!-- Node6&#45;&gt;Node5 -->
<g id="edge7" class="edge">
<title>Node6&#45;&gt;Node5</title>
<path fill="none" stroke="midnightblue" d="M533.68,-51.18C516.2,-41.24 493.17,-28.15 478.23,-19.65"/>
<polygon fill="midnightblue" stroke="midnightblue" points="532.31,-54.43 542.74,-56.32 535.77,-48.34 532.31,-54.43"/>
</g>
<!-- Node6&#45;&gt;Node6 -->
<g id="edge8" class="edge">
<title>Node6&#45;&gt;Node6</title>
<path fill="none" stroke="midnightblue" d="M604.27,-76.33C625.03,-77.33 643,-73.88 643,-66 643,-56.87 618.89,-53.69 594.25,-56.47"/>
<polygon fill="midnightblue" stroke="midnightblue" points="604.5,-72.84 594.25,-75.53 603.94,-79.82 604.5,-72.84"/>
</g>
<!-- Node7 -->
<g id="node7" class="node">
<title>Node7</title>
<g id="a_node7"><a xlink:href="main_8cpp.html" target="_top" xlink:title=" ">
<polygon fill="none" stroke="black" points="547.5,-0.5 547.5,-19.5 626.5,-19.5 626.5,-0.5 547.5,-0.5"/>
<text text-anchor="middle" x="587" y="-7.5" font-family="Helvetica,sans-Serif" font-size="10.00">src/main.cpp</text>
</a>
</g>
</g>
<!-- Node6&#45;&gt;Node7 -->
<g id="edge6" class="edge">
<title>Node6&#45;&gt;Node7</title>
<path fill="none" stroke="midnightblue" d="M567.68,-46.98C572.6,-37.82 578.36,-27.09 582.3,-19.75"/>
<polygon fill="midnightblue" stroke="midnightblue" points="564.44,-45.62 562.79,-56.08 570.6,-48.93 564.44,-45.62"/>
</g>
</g>
</svg>
