<?xml version="1.0" encoding="UTF-8" standalone="no"?>
<!DOCTYPE svg PUBLIC "-//W3C//DTD SVG 1.1//EN"
 "http://www.w3.org/Graphics/SVG/1.1/DTD/svg11.dtd">
<!-- Generated by graphviz version 2.43.0 (0)
 -->
<!-- Title: src/DeviceManager.cpp Pages: 1 -->
<svg width="1341pt" height="196pt"
 viewBox="0.00 0.00 1341.00 196.00" xmlns="http://www.w3.org/2000/svg" xmlns:xlink="http://www.w3.org/1999/xlink">
<g id="graph0" class="graph" transform="scale(1 1) rotate(0) translate(4 192)">
<title>src/DeviceManager.cpp</title>
<!-- Node1 -->
<g id="node1" class="node">
<title>Node1</title>
<g id="a_node1"><a xlink:title=" ">
<polygon fill="#bfbfbf" stroke="black" points="688,-168.5 688,-187.5 818,-187.5 818,-168.5 688,-168.5"/>
<text text-anchor="middle" x="753" y="-175.5" font-family="Helvetica,sans-Serif" font-size="10.00">src/DeviceManager.cpp</text>
</a>
</g>
</g>
<!-- Node2 -->
<g id="node2" class="node">
<title>Node2</title>
<g id="a_node2"><a xlink:href="DeviceManager_8hpp.html" target="_top" xlink:title=" ">
<polygon fill="none" stroke="black" points="789.5,-112.5 789.5,-131.5 902.5,-131.5 902.5,-112.5 789.5,-112.5"/>
<text text-anchor="middle" x="846" y="-119.5" font-family="Helvetica,sans-Serif" font-size="10.00">DeviceManager.hpp</text>
</a>
</g>
</g>
<!-- Node1&#45;&gt;Node2 -->
<g id="edge1" class="edge">
<title>Node1&#45;&gt;Node2</title>
<path fill="none" stroke="midnightblue" d="M767.94,-168.32C782.59,-159.82 805.13,-146.73 822.24,-136.8"/>
<polygon fill="midnightblue" stroke="midnightblue" points="824.2,-139.7 831.1,-131.65 820.69,-133.65 824.2,-139.7"/>
</g>
<!-- Node3 -->
<g id="node3" class="node">
<title>Node3</title>
<g id="a_node3"><a xlink:href="Camera_8hpp.html" target="_top" xlink:title=" ">
<polygon fill="none" stroke="black" points="387,-56.5 387,-75.5 463,-75.5 463,-56.5 387,-56.5"/>
<text text-anchor="middle" x="425" y="-63.5" font-family="Helvetica,sans-Serif" font-size="10.00">Camera.hpp</text>
</a>
</g>
</g>
<!-- Node1&#45;&gt;Node3 -->
<g id="edge32" class="edge">
<title>Node1&#45;&gt;Node3</title>
<path fill="none" stroke="midnightblue" d="M687.86,-171.79C617.83,-165.25 511.84,-152.36 477,-132 457.96,-120.88 443.15,-99.92 434.28,-84.81"/>
<polygon fill="midnightblue" stroke="midnightblue" points="437.24,-82.93 429.33,-75.88 431.12,-86.32 437.24,-82.93"/>
</g>
<!-- Node7 -->
<g id="node7" class="node">
<title>Node7</title>
<g id="a_node7"><a xlink:title=" ">
<polygon fill="none" stroke="#bfbfbf" points="1067.5,-0.5 1067.5,-19.5 1204.5,-19.5 1204.5,-0.5 1067.5,-0.5"/>
<text text-anchor="middle" x="1136" y="-7.5" font-family="Helvetica,sans-Serif" font-size="10.00">rc_genicam_api/device.h</text>
</a>
</g>
</g>
<!-- Node1&#45;&gt;Node7 -->
<g id="edge35" class="edge">
<title>Node1&#45;&gt;Node7</title>
<path fill="none" stroke="midnightblue" d="M690.61,-168.45C600.55,-153.73 451.05,-118.95 510,-56 550.04,-13.24 962.2,-24.47 1056.96,-19.81"/>
<polygon fill="midnightblue" stroke="midnightblue" points="1057.37,-23.29 1067.12,-19.13 1056.91,-16.3 1057.37,-23.29"/>
</g>
<!-- Node16 -->
<g id="node16" class="node">
<title>Node16</title>
<g id="a_node16"><a xlink:title=" ">
<polygon fill="none" stroke="#bfbfbf" points="519.5,-56.5 519.5,-75.5 660.5,-75.5 660.5,-56.5 519.5,-56.5"/>
<text text-anchor="middle" x="590" y="-63.5" font-family="Helvetica,sans-Serif" font-size="10.00">rc_genicam_api/system.h</text>
</a>
</g>
</g>
<!-- Node1&#45;&gt;Node16 -->
<g id="edge33" class="edge">
<title>Node1&#45;&gt;Node16</title>
<path fill="none" stroke="midnightblue" d="M740.21,-168.37C712.24,-149.49 645.4,-104.38 611.1,-81.24"/>
<polygon fill="midnightblue" stroke="midnightblue" points="612.98,-78.28 602.73,-75.59 609.06,-84.09 612.98,-78.28"/>
</g>
<!-- Node17 -->
<g id="node17" class="node">
<title>Node17</title>
<g id="a_node17"><a xlink:title=" ">
<polygon fill="none" stroke="#bfbfbf" points="678.5,-56.5 678.5,-75.5 827.5,-75.5 827.5,-56.5 678.5,-56.5"/>
<text text-anchor="middle" x="753" y="-63.5" font-family="Helvetica,sans-Serif" font-size="10.00">rc_genicam_api/interface.h</text>
</a>
</g>
</g>
<!-- Node1&#45;&gt;Node17 -->
<g id="edge34" class="edge">
<title>Node1&#45;&gt;Node17</title>
<path fill="none" stroke="midnightblue" d="M753,-168.37C753,-150.62 753,-109.67 753,-85.6"/>
<polygon fill="midnightblue" stroke="midnightblue" points="756.5,-85.59 753,-75.59 749.5,-85.59 756.5,-85.59"/>
</g>
<!-- Node18 -->
<g id="node18" class="node">
<title>Node18</title>
<g id="a_node18"><a xlink:title=" ">
<polygon fill="none" stroke="#bfbfbf" points="883,-56.5 883,-75.5 1055,-75.5 1055,-56.5 883,-56.5"/>
<text text-anchor="middle" x="969" y="-63.5" font-family="Helvetica,sans-Serif" font-size="10.00">rc_genicam_api/nodemap_out.h</text>
</a>
</g>
</g>
<!-- Node1&#45;&gt;Node18 -->
<g id="edge36" class="edge">
<title>Node1&#45;&gt;Node18</title>
<path fill="none" stroke="midnightblue" d="M811.8,-168.43C843.03,-161.93 881.03,-150.78 911,-132 930.55,-119.75 947.4,-99.01 957.82,-84.25"/>
<polygon fill="midnightblue" stroke="midnightblue" points="961,-85.81 963.71,-75.57 955.2,-81.89 961,-85.81"/>
</g>
<!-- Node19 -->
<g id="node19" class="node">
<title>Node19</title>
<g id="a_node19"><a xlink:title=" ">
<polygon fill="none" stroke="#bfbfbf" points="1073,-56.5 1073,-75.5 1133,-75.5 1133,-56.5 1073,-56.5"/>
<text text-anchor="middle" x="1103" y="-63.5" font-family="Helvetica,sans-Serif" font-size="10.00">iostream</text>
</a>
</g>
</g>
<!-- Node1&#45;&gt;Node19 -->
<g id="edge37" class="edge">
<title>Node1&#45;&gt;Node19</title>
<path fill="none" stroke="midnightblue" d="M794.73,-168.46C832.31,-160.38 888.87,-147.23 937,-132 986.07,-116.47 1041.44,-93.69 1074.21,-79.63"/>
<polygon fill="midnightblue" stroke="midnightblue" points="1075.83,-82.74 1083.63,-75.56 1073.06,-76.31 1075.83,-82.74"/>
</g>
<!-- Node20 -->
<g id="node20" class="node">
<title>Node20</title>
<g id="a_node20"><a xlink:title=" ">
<polygon fill="none" stroke="#bfbfbf" points="239,-56.5 239,-75.5 295,-75.5 295,-56.5 239,-56.5"/>
<text text-anchor="middle" x="267" y="-63.5" font-family="Helvetica,sans-Serif" font-size="10.00">sstream</text>
</a>
</g>
</g>
<!-- Node1&#45;&gt;Node20 -->
<g id="edge38" class="edge">
<title>Node1&#45;&gt;Node20</title>
<path fill="none" stroke="midnightblue" d="M687.83,-174.53C617.16,-170.48 501.66,-159.84 406,-132 363.4,-119.6 317.4,-95.83 290.45,-80.72"/>
<polygon fill="midnightblue" stroke="midnightblue" points="291.85,-77.49 281.43,-75.59 288.39,-83.57 291.85,-77.49"/>
</g>
<!-- Node21 -->
<g id="node21" class="node">
<title>Node21</title>
<g id="a_node21"><a xlink:title=" ">
<polygon fill="none" stroke="#bfbfbf" points="1151,-56.5 1151,-75.5 1183,-75.5 1183,-56.5 1151,-56.5"/>
<text text-anchor="middle" x="1167" y="-63.5" font-family="Helvetica,sans-Serif" font-size="10.00">set</text>
</a>
</g>
</g>
<!-- Node1&#45;&gt;Node21 -->
<g id="edge39" class="edge">
<title>Node1&#45;&gt;Node21</title>
<path fill="none" stroke="midnightblue" d="M806.44,-168.45C852.53,-160.57 920.68,-147.75 979,-132 1049.92,-112.85 1068.27,-102.3 1141.21,-76.27"/>
<polygon fill="midnightblue" stroke="midnightblue" points="1142.62,-79.48 1150.87,-72.84 1140.28,-72.89 1142.62,-79.48"/>
</g>
<!-- Node22 -->
<g id="node22" class="node">
<title>Node22</title>
<g id="a_node22"><a xlink:title=" ">
<polygon fill="none" stroke="#bfbfbf" points="1201.5,-56.5 1201.5,-75.5 1270.5,-75.5 1270.5,-56.5 1201.5,-56.5"/>
<text text-anchor="middle" x="1236" y="-63.5" font-family="Helvetica,sans-Serif" font-size="10.00">arpa/inet.h</text>
</a>
</g>
</g>
<!-- Node1&#45;&gt;Node22 -->
<g id="edge40" class="edge">
<title>Node1&#45;&gt;Node22</title>
<path fill="none" stroke="midnightblue" d="M818.06,-168.75C873.47,-161.13 955,-148.49 1025,-132 1088.59,-117.02 1161.04,-93.17 1202.36,-78.91"/>
<polygon fill="midnightblue" stroke="midnightblue" points="1203.63,-82.17 1211.92,-75.58 1201.33,-75.56 1203.63,-82.17"/>
</g>
<!-- Node23 -->
<g id="node23" class="node">
<title>Node23</title>
<g id="a_node23"><a xlink:title=" ">
<polygon fill="none" stroke="#bfbfbf" points="313,-56.5 313,-75.5 369,-75.5 369,-56.5 313,-56.5"/>
<text text-anchor="middle" x="341" y="-63.5" font-family="Helvetica,sans-Serif" font-size="10.00">iomanip</text>
</a>
</g>
</g>
<!-- Node1&#45;&gt;Node23 -->
<g id="edge41" class="edge">
<title>Node1&#45;&gt;Node23</title>
<path fill="none" stroke="midnightblue" d="M687.93,-174.52C625.56,-170.47 529.56,-159.86 451,-132 416.79,-119.87 381.37,-96.69 360.27,-81.54"/>
<polygon fill="midnightblue" stroke="midnightblue" points="362.28,-78.68 352.15,-75.6 358.15,-84.33 362.28,-78.68"/>
</g>
<!-- Node24 -->
<g id="node24" class="node">
<title>Node24</title>
<g id="a_node24"><a xlink:title=" ">
<polygon fill="none" stroke="#bfbfbf" points="1289,-56.5 1289,-75.5 1333,-75.5 1333,-56.5 1289,-56.5"/>
<text text-anchor="middle" x="1311" y="-63.5" font-family="Helvetica,sans-Serif" font-size="10.00">regex</text>
</a>
</g>
</g>
<!-- Node1&#45;&gt;Node24 -->
<g id="edge42" class="edge">
<title>Node1&#45;&gt;Node24</title>
<path fill="none" stroke="midnightblue" d="M818.18,-170.37C883.52,-163.14 986.81,-150.13 1075,-132 1164.44,-113.61 1187.58,-102.38 1279.3,-76.19"/>
<polygon fill="midnightblue" stroke="midnightblue" points="1280.33,-79.53 1289,-73.43 1278.42,-72.8 1280.33,-79.53"/>
</g>
<!-- Node25 -->
<g id="node25" class="node">
<title>Node25</title>
<g id="a_node25"><a xlink:href="GlobalSettings_8hpp.html" target="_top" xlink:title=" ">
<polygon fill="none" stroke="black" points="156.5,-112.5 156.5,-131.5 265.5,-131.5 265.5,-112.5 156.5,-112.5"/>
<text text-anchor="middle" x="211" y="-119.5" font-family="Helvetica,sans-Serif" font-size="10.00">GlobalSettings.hpp</text>
</a>
</g>
</g>
<!-- Node1&#45;&gt;Node25 -->
<g id="edge25" class="edge">
<title>Node1&#45;&gt;Node25</title>
<path fill="none" stroke="midnightblue" d="M687.94,-170.97C598.47,-162.61 432.46,-146.85 291,-132 286,-131.48 280.83,-130.92 275.63,-130.35"/>
<polygon fill="midnightblue" stroke="midnightblue" points="275.96,-126.87 265.64,-129.26 275.2,-133.83 275.96,-126.87"/>
</g>
<!-- Node2&#45;&gt;Node3 -->
<g id="edge2" class="edge">
<title>Node2&#45;&gt;Node3</title>
<path fill="none" stroke="midnightblue" d="M789.22,-113.72C705.77,-103.01 551.45,-83.22 473.2,-73.18"/>
<polygon fill="midnightblue" stroke="midnightblue" points="473.5,-69.69 463.13,-71.89 472.6,-76.63 473.5,-69.69"/>
</g>
<!-- Node2&#45;&gt;Node7 -->
<g id="edge17" class="edge">
<title>Node2&#45;&gt;Node7</title>
<path fill="none" stroke="midnightblue" d="M847.11,-112.25C849.4,-98.05 856.04,-70.14 874,-56 888.37,-44.68 985.43,-30.12 1057.25,-20.68"/>
<polygon fill="midnightblue" stroke="midnightblue" points="1057.74,-24.14 1067.2,-19.38 1056.83,-17.2 1057.74,-24.14"/>
</g>
<!-- Node2&#45;&gt;Node16 -->
<g id="edge15" class="edge">
<title>Node2&#45;&gt;Node16</title>
<path fill="none" stroke="midnightblue" d="M805.44,-112.44C760.68,-103 688.62,-87.8 640.3,-77.61"/>
<polygon fill="midnightblue" stroke="midnightblue" points="640.88,-74.16 630.37,-75.52 639.44,-81.01 640.88,-74.16"/>
</g>
<!-- Node2&#45;&gt;Node17 -->
<g id="edge16" class="edge">
<title>Node2&#45;&gt;Node17</title>
<path fill="none" stroke="midnightblue" d="M831.06,-112.32C816.41,-103.82 793.87,-90.73 776.76,-80.8"/>
<polygon fill="midnightblue" stroke="midnightblue" points="778.31,-77.65 767.9,-75.65 774.8,-83.7 778.31,-77.65"/>
</g>
<!-- Node2&#45;&gt;Node18 -->
<g id="edge18" class="edge">
<title>Node2&#45;&gt;Node18</title>
<path fill="none" stroke="midnightblue" d="M865.49,-112.44C885.64,-103.6 917.32,-89.69 940.33,-79.59"/>
<polygon fill="midnightblue" stroke="midnightblue" points="941.85,-82.74 949.6,-75.52 939.04,-76.33 941.85,-82.74"/>
</g>
<!-- Node2&#45;&gt;Node19 -->
<g id="edge19" class="edge">
<title>Node2&#45;&gt;Node19</title>
<path fill="none" stroke="midnightblue" d="M888.67,-112.5C930.6,-104.07 996.66,-90.62 1063,-76.18"/>
<polygon fill="midnightblue" stroke="midnightblue" points="1063.76,-79.6 1072.78,-74.05 1062.27,-72.76 1063.76,-79.6"/>
</g>
<!-- Node2&#45;&gt;Node20 -->
<g id="edge20" class="edge">
<title>Node2&#45;&gt;Node20</title>
<path fill="none" stroke="midnightblue" d="M789.47,-119.2C692.3,-115.49 487.27,-104.88 305.21,-75.95"/>
<polygon fill="midnightblue" stroke="midnightblue" points="305.62,-72.47 295.19,-74.34 304.51,-79.38 305.62,-72.47"/>
</g>
<!-- Node2&#45;&gt;Node21 -->
<g id="edge21" class="edge">
<title>Node2&#45;&gt;Node21</title>
<path fill="none" stroke="midnightblue" d="M902.57,-115.71C960.46,-109.56 1053.01,-97.68 1140.88,-75.87"/>
<polygon fill="midnightblue" stroke="midnightblue" points="1141.9,-79.22 1150.74,-73.37 1140.18,-72.43 1141.9,-79.22"/>
</g>
<!-- Node2&#45;&gt;Node22 -->
<g id="edge22" class="edge">
<title>Node2&#45;&gt;Node22</title>
<path fill="none" stroke="midnightblue" d="M902.52,-114.92C969.1,-107.48 1083.26,-93.83 1191.35,-75.99"/>
<polygon fill="midnightblue" stroke="midnightblue" points="1192.17,-79.41 1201.46,-74.31 1191.02,-72.5 1192.17,-79.41"/>
</g>
<!-- Node2&#45;&gt;Node23 -->
<g id="edge23" class="edge">
<title>Node2&#45;&gt;Node23</title>
<path fill="none" stroke="midnightblue" d="M789.47,-118.17C703.05,-113.28 532.81,-101.39 379.28,-75.99"/>
<polygon fill="midnightblue" stroke="midnightblue" points="379.64,-72.5 369.2,-74.3 378.48,-79.4 379.64,-72.5"/>
</g>
<!-- Node2&#45;&gt;Node24 -->
<g id="edge24" class="edge">
<title>Node2&#45;&gt;Node24</title>
<path fill="none" stroke="midnightblue" d="M902.66,-118.37C984.03,-113.88 1138.71,-102.69 1278.71,-75.93"/>
<polygon fill="midnightblue" stroke="midnightblue" points="1279.62,-79.32 1288.77,-73.97 1278.28,-72.44 1279.62,-79.32"/>
</g>
<!-- Node4 -->
<g id="node4" class="node">
<title>Node4</title>
<g id="a_node4"><a xlink:title=" ">
<polygon fill="none" stroke="#bfbfbf" points="473.5,-0.5 473.5,-19.5 572.5,-19.5 572.5,-0.5 473.5,-0.5"/>
<text text-anchor="middle" x="523" y="-7.5" font-family="Helvetica,sans-Serif" font-size="10.00">GenApi/GenApi.h</text>
</a>
</g>
</g>
<!-- Node3&#45;&gt;Node4 -->
<g id="edge3" class="edge">
<title>Node3&#45;&gt;Node4</title>
<path fill="none" stroke="midnightblue" d="M440.75,-56.32C456.32,-47.74 480.38,-34.49 498.46,-24.52"/>
<polygon fill="midnightblue" stroke="midnightblue" points="500.22,-27.55 507.29,-19.65 496.85,-21.42 500.22,-27.55"/>
</g>
<!-- Node5 -->
<g id="node5" class="node">
<title>Node5</title>
<g id="a_node5"><a xlink:title=" ">
<polygon fill="none" stroke="#bfbfbf" points="591,-0.5 591,-19.5 707,-19.5 707,-0.5 591,-0.5"/>
<text text-anchor="middle" x="649" y="-7.5" font-family="Helvetica,sans-Serif" font-size="10.00">opencv2/opencv.hpp</text>
</a>
</g>
</g>
<!-- Node3&#45;&gt;Node5 -->
<g id="edge4" class="edge">
<title>Node3&#45;&gt;Node5</title>
<path fill="none" stroke="midnightblue" d="M460.49,-56.44C499.32,-47.08 561.66,-32.06 603.92,-21.87"/>
<polygon fill="midnightblue" stroke="midnightblue" points="604.77,-25.26 613.67,-19.52 603.13,-18.46 604.77,-25.26"/>
</g>
<!-- Node6 -->
<g id="node6" class="node">
<title>Node6</title>
<g id="a_node6"><a xlink:title=" ">
<polygon fill="none" stroke="#bfbfbf" points="725.5,-0.5 725.5,-19.5 858.5,-19.5 858.5,-0.5 725.5,-0.5"/>
<text text-anchor="middle" x="792" y="-7.5" font-family="Helvetica,sans-Serif" font-size="10.00">rc_genicam_api/buffer.h</text>
</a>
</g>
</g>
<!-- Node3&#45;&gt;Node6 -->
<g id="edge5" class="edge">
<title>Node3&#45;&gt;Node6</title>
<path fill="none" stroke="midnightblue" d="M463.03,-58.28C467.73,-57.49 472.48,-56.71 477,-56 559.61,-42.95 654.69,-29.6 718.59,-20.86"/>
<polygon fill="midnightblue" stroke="midnightblue" points="719.13,-24.32 728.57,-19.5 718.19,-17.39 719.13,-24.32"/>
</g>
<!-- Node3&#45;&gt;Node7 -->
<g id="edge6" class="edge">
<title>Node3&#45;&gt;Node7</title>
<path fill="none" stroke="midnightblue" d="M463.27,-57.89C467.88,-57.17 472.54,-56.52 477,-56 730.7,-26.28 798.58,-42.41 1057.05,-20.03"/>
<polygon fill="midnightblue" stroke="midnightblue" points="1057.46,-23.51 1067.12,-19.15 1056.85,-16.54 1057.46,-23.51"/>
</g>
<!-- Node8 -->
<g id="node8" class="node">
<title>Node8</title>
<g id="a_node8"><a xlink:title=" ">
<polygon fill="none" stroke="#bfbfbf" points="877,-0.5 877,-19.5 1049,-19.5 1049,-0.5 877,-0.5"/>
<text text-anchor="middle" x="963" y="-7.5" font-family="Helvetica,sans-Serif" font-size="10.00">rc_genicam_api/pixel_formats.h</text>
</a>
</g>
</g>
<!-- Node3&#45;&gt;Node8 -->
<g id="edge7" class="edge">
<title>Node3&#45;&gt;Node8</title>
<path fill="none" stroke="midnightblue" d="M463,-58.06C467.71,-57.31 472.46,-56.6 477,-56 646.36,-33.56 692,-36.02 866.85,-20.01"/>
<polygon fill="midnightblue" stroke="midnightblue" points="867.27,-23.48 876.91,-19.08 866.63,-16.51 867.27,-23.48"/>
</g>
<!-- Node9 -->
<g id="node9" class="node">
<title>Node9</title>
<g id="a_node9"><a xlink:title=" ">
<polygon fill="none" stroke="#bfbfbf" points="130,-0.5 130,-19.5 180,-19.5 180,-0.5 130,-0.5"/>
<text text-anchor="middle" x="155" y="-7.5" font-family="Helvetica,sans-Serif" font-size="10.00">atomic</text>
</a>
</g>
</g>
<!-- Node3&#45;&gt;Node9 -->
<g id="edge8" class="edge">
<title>Node3&#45;&gt;Node9</title>
<path fill="none" stroke="midnightblue" d="M386.78,-57.68C383.81,-57.11 380.86,-56.55 378,-56 297.12,-40.55 274.07,-39.05 190.18,-20.15"/>
<polygon fill="midnightblue" stroke="midnightblue" points="190.73,-16.68 180.2,-17.88 189.18,-23.51 190.73,-16.68"/>
</g>
<!-- Node10 -->
<g id="node10" class="node">
<title>Node10</title>
<g id="a_node10"><a xlink:title=" ">
<polygon fill="none" stroke="#bfbfbf" points="264,-0.5 264,-19.5 314,-19.5 314,-0.5 264,-0.5"/>
<text text-anchor="middle" x="289" y="-7.5" font-family="Helvetica,sans-Serif" font-size="10.00">cstdint</text>
</a>
</g>
</g>
<!-- Node3&#45;&gt;Node10 -->
<g id="edge9" class="edge">
<title>Node3&#45;&gt;Node10</title>
<path fill="none" stroke="midnightblue" d="M403.45,-56.44C380.97,-47.52 345.51,-33.44 320.02,-23.32"/>
<polygon fill="midnightblue" stroke="midnightblue" points="321.03,-19.95 310.45,-19.52 318.45,-26.46 321.03,-19.95"/>
</g>
<!-- Node11 -->
<g id="node11" class="node">
<title>Node11</title>
<g id="a_node11"><a xlink:title=" ">
<polygon fill="none" stroke="#bfbfbf" points="332,-0.5 332,-19.5 390,-19.5 390,-0.5 332,-0.5"/>
<text text-anchor="middle" x="361" y="-7.5" font-family="Helvetica,sans-Serif" font-size="10.00">memory</text>
</a>
</g>
</g>
<!-- Node3&#45;&gt;Node11 -->
<g id="edge10" class="edge">
<title>Node3&#45;&gt;Node11</title>
<path fill="none" stroke="midnightblue" d="M414.72,-56.32C405.16,-48.26 390.72,-36.08 379.22,-26.37"/>
<polygon fill="midnightblue" stroke="midnightblue" points="381.37,-23.61 371.47,-19.83 376.86,-28.96 381.37,-23.61"/>
</g>
<!-- Node12 -->
<g id="node12" class="node">
<title>Node12</title>
<g id="a_node12"><a xlink:title=" ">
<polygon fill="none" stroke="#bfbfbf" points="198,-0.5 198,-19.5 246,-19.5 246,-0.5 198,-0.5"/>
<text text-anchor="middle" x="222" y="-7.5" font-family="Helvetica,sans-Serif" font-size="10.00">mutex</text>
</a>
</g>
</g>
<!-- Node3&#45;&gt;Node12 -->
<g id="edge11" class="edge">
<title>Node3&#45;&gt;Node12</title>
<path fill="none" stroke="midnightblue" d="M392.39,-56.45C360.16,-47.97 309.18,-34.53 256.08,-20.28"/>
<polygon fill="midnightblue" stroke="midnightblue" points="256.71,-16.82 246.14,-17.61 254.89,-23.58 256.71,-16.82"/>
</g>
<!-- Node13 -->
<g id="node13" class="node">
<title>Node13</title>
<g id="a_node13"><a xlink:title=" ">
<polygon fill="none" stroke="#bfbfbf" points="0,-0.5 0,-19.5 44,-19.5 44,-0.5 0,-0.5"/>
<text text-anchor="middle" x="22" y="-7.5" font-family="Helvetica,sans-Serif" font-size="10.00">string</text>
</a>
</g>
</g>
<!-- Node3&#45;&gt;Node13 -->
<g id="edge12" class="edge">
<title>Node3&#45;&gt;Node13</title>
<path fill="none" stroke="midnightblue" d="M386.82,-57.43C383.84,-56.92 380.88,-56.43 378,-56 237.53,-34.8 197.33,-47.75 54.26,-19.94"/>
<polygon fill="midnightblue" stroke="midnightblue" points="54.73,-16.46 44.24,-17.95 53.37,-23.33 54.73,-16.46"/>
</g>
<!-- Node14 -->
<g id="node14" class="node">
<title>Node14</title>
<g id="a_node14"><a xlink:title=" ">
<polygon fill="none" stroke="#bfbfbf" points="408.5,-0.5 408.5,-19.5 455.5,-19.5 455.5,-0.5 408.5,-0.5"/>
<text text-anchor="middle" x="432" y="-7.5" font-family="Helvetica,sans-Serif" font-size="10.00">vector</text>
</a>
</g>
</g>
<!-- Node3&#45;&gt;Node14 -->
<g id="edge13" class="edge">
<title>Node3&#45;&gt;Node14</title>
<path fill="none" stroke="midnightblue" d="M426.16,-56.08C427.08,-48.93 428.42,-38.64 429.58,-29.69"/>
<polygon fill="midnightblue" stroke="midnightblue" points="433.05,-30.12 430.87,-19.75 426.11,-29.22 433.05,-30.12"/>
</g>
<!-- Node15 -->
<g id="node15" class="node">
<title>Node15</title>
<g id="a_node15"><a xlink:title=" ">
<polygon fill="none" stroke="#bfbfbf" points="62,-0.5 62,-19.5 112,-19.5 112,-0.5 62,-0.5"/>
<text text-anchor="middle" x="87" y="-7.5" font-family="Helvetica,sans-Serif" font-size="10.00">chrono</text>
</a>
</g>
</g>
<!-- Node3&#45;&gt;Node15 -->
<g id="edge14" class="edge">
<title>Node3&#45;&gt;Node15</title>
<path fill="none" stroke="midnightblue" d="M386.81,-57.52C383.83,-56.99 380.87,-56.48 378,-56 267.44,-37.68 235.84,-42.5 122.31,-20.06"/>
<polygon fill="midnightblue" stroke="midnightblue" points="122.67,-16.56 112.17,-18.02 121.29,-23.42 122.67,-16.56"/>
</g>
<!-- Node25&#45;&gt;Node9 -->
<g id="edge26" class="edge">
<title>Node25&#45;&gt;Node9</title>
<path fill="none" stroke="midnightblue" d="M206.61,-112.37C197.45,-94.38 176.15,-52.55 163.97,-28.63"/>
<polygon fill="midnightblue" stroke="midnightblue" points="167.03,-26.92 159.37,-19.59 160.79,-30.09 167.03,-26.92"/>
</g>
<!-- Node25&#45;&gt;Node12 -->
<g id="edge27" class="edge">
<title>Node25&#45;&gt;Node12</title>
<path fill="none" stroke="midnightblue" d="M211.86,-112.37C213.64,-94.62 217.73,-53.67 220.14,-29.6"/>
<polygon fill="midnightblue" stroke="midnightblue" points="223.63,-29.89 221.14,-19.59 216.66,-29.19 223.63,-29.89"/>
</g>
<!-- Node25&#45;&gt;Node13 -->
<g id="edge28" class="edge">
<title>Node25&#45;&gt;Node13</title>
<path fill="none" stroke="midnightblue" d="M196.17,-112.37C163.46,-93.33 84.91,-47.62 45.45,-24.65"/>
<polygon fill="midnightblue" stroke="midnightblue" points="47.16,-21.6 36.76,-19.59 43.64,-27.65 47.16,-21.6"/>
</g>
<!-- Node25&#45;&gt;Node15 -->
<g id="edge30" class="edge">
<title>Node25&#45;&gt;Node15</title>
<path fill="none" stroke="midnightblue" d="M201.27,-112.37C180.35,-93.81 130.87,-49.91 104.4,-26.44"/>
<polygon fill="midnightblue" stroke="midnightblue" points="106.49,-23.61 96.68,-19.59 101.84,-28.85 106.49,-23.61"/>
</g>
<!-- Node25&#45;&gt;Node20 -->
<g id="edge29" class="edge">
<title>Node25&#45;&gt;Node20</title>
<path fill="none" stroke="midnightblue" d="M220,-112.32C228.19,-104.42 240.51,-92.55 250.47,-82.94"/>
<polygon fill="midnightblue" stroke="midnightblue" points="253.07,-85.29 257.84,-75.83 248.21,-80.26 253.07,-85.29"/>
</g>
<!-- Node25&#45;&gt;Node23 -->
<g id="edge31" class="edge">
<title>Node25&#45;&gt;Node23</title>
<path fill="none" stroke="midnightblue" d="M231.6,-112.44C252.99,-103.56 286.68,-89.56 311.02,-79.45"/>
<polygon fill="midnightblue" stroke="midnightblue" points="312.61,-82.58 320.5,-75.52 309.92,-76.12 312.61,-82.58"/>
</g>
</g>
</svg>
