<?xml version="1.0" encoding="UTF-8" standalone="no"?>
<!DOCTYPE svg PUBLIC "-//W3C//DTD SVG 1.1//EN"
 "http://www.w3.org/Graphics/SVG/1.1/DTD/svg11.dtd">
<!-- Generated by graphviz version 2.43.0 (0)
 -->
<!-- Title: getSessionTimestamp Pages: 1 -->
<svg width="1127pt" height="180pt"
 viewBox="0.00 0.00 1127.00 180.00" xmlns="http://www.w3.org/2000/svg" xmlns:xlink="http://www.w3.org/1999/xlink">
<g id="graph0" class="graph" transform="scale(1 1) rotate(0) translate(4 176)">
<title>getSessionTimestamp</title>
<!-- Node1 -->
<g id="node1" class="node">
<title>Node1</title>
<g id="a_node1"><a xlink:title=" ">
<polygon fill="#bfbfbf" stroke="black" points="994,-76.5 994,-95.5 1119,-95.5 1119,-76.5 994,-76.5"/>
<text text-anchor="middle" x="1056.5" y="-83.5" font-family="Helvetica,sans-Serif" font-size="10.00">getSessionTimestamp</text>
</a>
</g>
</g>
<!-- Node2 -->
<g id="node2" class="node">
<title>Node2</title>
<g id="a_node2"><a xlink:href="classCamera.html#ac9ff8e00386dd1d1a77bf1d8fc831801" target="_top" xlink:title=" ">
<polygon fill="none" stroke="black" points="769.5,-152.5 769.5,-171.5 930.5,-171.5 930.5,-152.5 769.5,-152.5"/>
<text text-anchor="middle" x="850" y="-159.5" font-family="Helvetica,sans-Serif" font-size="10.00">Camera::initializeVideoWriter</text>
</a>
</g>
</g>
<!-- Node1&#45;&gt;Node2 -->
<g id="edge1" class="edge">
<title>Node1&#45;&gt;Node2</title>
<path fill="none" stroke="midnightblue" d="M1034.45,-101.28C1015.41,-114.36 986.12,-132.66 958,-143 947.46,-146.87 936.05,-149.97 924.72,-152.45"/>
<polygon fill="midnightblue" stroke="midnightblue" points="1036.5,-104.12 1042.68,-95.51 1032.48,-98.38 1036.5,-104.12"/>
</g>
<!-- Node4 -->
<g id="node4" class="node">
<title>Node4</title>
<g id="a_node4"><a xlink:href="classCamera.html#ada78f0e2aa9cd9304e558c0cd61abd47" target="_top" xlink:title=" ">
<polygon fill="none" stroke="black" points="754.5,-76.5 754.5,-95.5 945.5,-95.5 945.5,-76.5 754.5,-76.5"/>
<text text-anchor="middle" x="850" y="-83.5" font-family="Helvetica,sans-Serif" font-size="10.00">Camera::logBandwidthDelaysToCSV</text>
</a>
</g>
</g>
<!-- Node1&#45;&gt;Node4 -->
<g id="edge3" class="edge">
<title>Node1&#45;&gt;Node4</title>
<path fill="none" stroke="midnightblue" d="M983.72,-86C971.45,-86 958.53,-86 945.76,-86"/>
<polygon fill="midnightblue" stroke="midnightblue" points="983.87,-89.5 993.87,-86 983.87,-82.5 983.87,-89.5"/>
</g>
<!-- Node6 -->
<g id="node6" class="node">
<title>Node6</title>
<g id="a_node6"><a xlink:href="classNetworkManager.html#ae856b2f8ac57cb540414667eccc6832a" target="_top" xlink:title=" ">
<polygon fill="none" stroke="black" points="742,-38.5 742,-57.5 958,-57.5 958,-38.5 742,-38.5"/>
<text text-anchor="middle" x="850" y="-45.5" font-family="Helvetica,sans-Serif" font-size="10.00">NetworkManager::logOffsetHistoryToCSV</text>
</a>
</g>
</g>
<!-- Node1&#45;&gt;Node6 -->
<g id="edge5" class="edge">
<title>Node1&#45;&gt;Node6</title>
<path fill="none" stroke="midnightblue" d="M997.25,-74.48C984.33,-71.98 970.71,-69.37 958,-67 941.03,-63.84 922.52,-60.51 905.74,-57.54"/>
<polygon fill="midnightblue" stroke="midnightblue" points="996.94,-77.99 1007.43,-76.47 998.28,-71.12 996.94,-77.99"/>
</g>
<!-- Node11 -->
<g id="node11" class="node">
<title>Node11</title>
<g id="a_node11"><a xlink:href="classNetworkManager.html#ae34ac9fc3697d706c4938c61f44ecd59" target="_top" xlink:title=" ">
<polygon fill="none" stroke="black" points="531,-0.5 531,-19.5 691,-19.5 691,-0.5 531,-0.5"/>
<text text-anchor="middle" x="611" y="-7.5" font-family="Helvetica,sans-Serif" font-size="10.00">NetworkManager::plotOffsets</text>
</a>
</g>
</g>
<!-- Node1&#45;&gt;Node11 -->
<g id="edge10" class="edge">
<title>Node1&#45;&gt;Node11</title>
<path fill="none" stroke="midnightblue" d="M1035.36,-70.34C1016.53,-56.68 987.02,-37.72 958,-29 869.42,-2.38 762.43,-0.88 691.11,-3.93"/>
<polygon fill="midnightblue" stroke="midnightblue" points="1033.35,-73.21 1043.47,-76.37 1037.53,-67.6 1033.35,-73.21"/>
</g>
<!-- Node12 -->
<g id="node12" class="node">
<title>Node12</title>
<g id="a_node12"><a xlink:href="classCamera.html#adb38ed40f81a6d3b3ef3a6c8d92477cf" target="_top" xlink:title=" ">
<polygon fill="none" stroke="black" points="778.5,-114.5 778.5,-133.5 921.5,-133.5 921.5,-114.5 778.5,-114.5"/>
<text text-anchor="middle" x="850" y="-121.5" font-family="Helvetica,sans-Serif" font-size="10.00">Camera::saveFrameToPng</text>
</a>
</g>
</g>
<!-- Node1&#45;&gt;Node12 -->
<g id="edge12" class="edge">
<title>Node1&#45;&gt;Node12</title>
<path fill="none" stroke="midnightblue" d="M997.25,-97.52C984.33,-100.02 970.71,-102.63 958,-105 941.03,-108.16 922.52,-111.49 905.74,-114.46"/>
<polygon fill="midnightblue" stroke="midnightblue" points="998.28,-100.88 1007.43,-95.53 996.94,-94.01 998.28,-100.88"/>
</g>
<!-- Node3 -->
<g id="node3" class="node">
<title>Node3</title>
<g id="a_node3"><a xlink:href="classCamera.html#ad9f2f078e719c799e1a677a12ea52b44" target="_top" xlink:title=" ">
<polygon fill="none" stroke="black" points="544,-133.5 544,-152.5 678,-152.5 678,-133.5 544,-133.5"/>
<text text-anchor="middle" x="611" y="-140.5" font-family="Helvetica,sans-Serif" font-size="10.00">Camera::startStreaming</text>
</a>
</g>
</g>
<!-- Node2&#45;&gt;Node3 -->
<g id="edge2" class="edge">
<title>Node2&#45;&gt;Node3</title>
<path fill="none" stroke="midnightblue" d="M759.24,-154.8C732.37,-152.65 703.41,-150.33 678.34,-148.32"/>
<polygon fill="midnightblue" stroke="midnightblue" points="759.18,-158.31 769.42,-155.62 759.73,-151.33 759.18,-158.31"/>
</g>
<!-- Node5 -->
<g id="node5" class="node">
<title>Node5</title>
<g id="a_node5"><a xlink:href="classCamera.html#a3edc9f5ef4ef86bcf1b9269795e91f90" target="_top" xlink:title=" ">
<polygon fill="none" stroke="black" points="530.5,-76.5 530.5,-95.5 691.5,-95.5 691.5,-76.5 530.5,-76.5"/>
<text text-anchor="middle" x="611" y="-83.5" font-family="Helvetica,sans-Serif" font-size="10.00">Camera::setBandwidthDelays</text>
</a>
</g>
</g>
<!-- Node4&#45;&gt;Node5 -->
<g id="edge4" class="edge">
<title>Node4&#45;&gt;Node5</title>
<path fill="none" stroke="midnightblue" d="M744.02,-86C726.45,-86 708.48,-86 691.68,-86"/>
<polygon fill="midnightblue" stroke="midnightblue" points="744.31,-89.5 754.31,-86 744.31,-82.5 744.31,-89.5"/>
</g>
<!-- Node7 -->
<g id="node7" class="node">
<title>Node7</title>
<g id="a_node7"><a xlink:href="classNetworkManager.html#a580689530037e60c278f61c2d541e86c" target="_top" xlink:title=" ">
<polygon fill="none" stroke="black" points="516,-38.5 516,-57.5 706,-57.5 706,-38.5 516,-38.5"/>
<text text-anchor="middle" x="611" y="-45.5" font-family="Helvetica,sans-Serif" font-size="10.00">NetworkManager::monitorPtpOffset</text>
</a>
</g>
</g>
<!-- Node6&#45;&gt;Node7 -->
<g id="edge6" class="edge">
<title>Node6&#45;&gt;Node7</title>
<path fill="none" stroke="midnightblue" d="M731.87,-48C723.29,-48 714.69,-48 706.26,-48"/>
<polygon fill="midnightblue" stroke="midnightblue" points="731.94,-51.5 741.94,-48 731.94,-44.5 731.94,-51.5"/>
</g>
<!-- Node8 -->
<g id="node8" class="node">
<title>Node8</title>
<g id="a_node8"><a xlink:href="classNetworkManager.html#a5131787ff8e8985e848e8456c1e6b202" target="_top" xlink:title=" ">
<polygon fill="none" stroke="black" points="313,-14 313,-44 480,-44 480,-14 313,-14"/>
<text text-anchor="start" x="321" y="-32" font-family="Helvetica,sans-Serif" font-size="10.00">NetworkManager::configurePtp</text>
<text text-anchor="middle" x="396.5" y="-21" font-family="Helvetica,sans-Serif" font-size="10.00">SyncFreeRun</text>
</a>
</g>
</g>
<!-- Node7&#45;&gt;Node8 -->
<g id="edge7" class="edge">
<title>Node7&#45;&gt;Node8</title>
<path fill="none" stroke="midnightblue" d="M505.81,-38.68C497.22,-37.92 488.62,-37.15 480.22,-36.4"/>
<polygon fill="midnightblue" stroke="midnightblue" points="505.59,-42.18 515.87,-39.58 506.22,-35.21 505.59,-42.18"/>
</g>
<!-- Node9 -->
<g id="node9" class="node">
<title>Node9</title>
<g id="a_node9"><a xlink:href="classSystemManager.html#addb2328a323747f21afb826811f288ab" target="_top" xlink:title=" ">
<polygon fill="none" stroke="black" points="77,-19.5 77,-38.5 277,-38.5 277,-19.5 77,-19.5"/>
<text text-anchor="middle" x="177" y="-26.5" font-family="Helvetica,sans-Serif" font-size="10.00">SystemManager::syncFreeRunStream</text>
</a>
</g>
</g>
<!-- Node8&#45;&gt;Node9 -->
<g id="edge8" class="edge">
<title>Node8&#45;&gt;Node9</title>
<path fill="none" stroke="midnightblue" d="M302.76,-29C294.33,-29 285.77,-29 277.29,-29"/>
<polygon fill="midnightblue" stroke="midnightblue" points="302.96,-32.5 312.96,-29 302.96,-25.5 302.96,-32.5"/>
</g>
<!-- Node10 -->
<g id="node10" class="node">
<title>Node10</title>
<g id="a_node10"><a xlink:href="main_8cpp.html#a0ddf1224851353fc92bfbff6f499fa97" target="_top" xlink:title=" ">
<polygon fill="none" stroke="black" points="0,-19.5 0,-38.5 41,-38.5 41,-19.5 0,-19.5"/>
<text text-anchor="middle" x="20.5" y="-26.5" font-family="Helvetica,sans-Serif" font-size="10.00">main</text>
</a>
</g>
</g>
<!-- Node9&#45;&gt;Node10 -->
<g id="edge9" class="edge">
<title>Node9&#45;&gt;Node10</title>
<path fill="none" stroke="midnightblue" d="M66.61,-29C57.05,-29 48.28,-29 41.07,-29"/>
<polygon fill="midnightblue" stroke="midnightblue" points="66.84,-32.5 76.84,-29 66.84,-25.5 66.84,-32.5"/>
</g>
<!-- Node11&#45;&gt;Node8 -->
<g id="edge11" class="edge">
<title>Node11&#45;&gt;Node8</title>
<path fill="none" stroke="midnightblue" d="M520.7,-17.98C507.29,-19.18 493.51,-20.42 480.25,-21.6"/>
<polygon fill="midnightblue" stroke="midnightblue" points="521.22,-21.45 530.87,-17.07 520.6,-14.48 521.22,-21.45"/>
</g>
<!-- Node12&#45;&gt;Node3 -->
<g id="edge13" class="edge">
<title>Node12&#45;&gt;Node3</title>
<path fill="none" stroke="midnightblue" d="M768.03,-130.49C738.81,-132.83 706.19,-135.45 678.37,-137.68"/>
<polygon fill="midnightblue" stroke="midnightblue" points="768.52,-133.96 778.21,-129.67 767.97,-126.99 768.52,-133.96"/>
</g>
</g>
</svg>
