<?xml version="1.0" encoding="UTF-8" standalone="no"?>
<!DOCTYPE svg PUBLIC "-//W3C//DTD SVG 1.1//EN"
 "http://www.w3.org/Graphics/SVG/1.1/DTD/svg11.dtd">
<!-- Generated by graphviz version 2.43.0 (0)
 -->
<!-- Title: setGlobalFpsUpperBound Pages: 1 -->
<svg width="1128pt" height="78pt"
 viewBox="0.00 0.00 1128.00 77.50" xmlns="http://www.w3.org/2000/svg" xmlns:xlink="http://www.w3.org/1999/xlink">
<g id="graph0" class="graph" transform="scale(1 1) rotate(0) translate(4 73.5)">
<title>setGlobalFpsUpperBound</title>
<!-- Node1 -->
<g id="node1" class="node">
<title>Node1</title>
<g id="a_node1"><a xlink:title=" ">
<polygon fill="#bfbfbf" stroke="black" points="980,-29 980,-48 1120,-48 1120,-29 980,-29"/>
<text text-anchor="middle" x="1050" y="-36" font-family="Helvetica,sans-Serif" font-size="10.00">setGlobalFpsUpperBound</text>
</a>
</g>
</g>
<!-- Node2 -->
<g id="node2" class="node">
<title>Node2</title>
<g id="a_node2"><a xlink:href="classCamera.html#a73d0377e77c2e760d29381cd1073c2cd" target="_top" xlink:title=" ">
<polygon fill="none" stroke="black" points="764.5,-49 764.5,-68 934.5,-68 934.5,-49 764.5,-49"/>
<text text-anchor="middle" x="849.5" y="-56" font-family="Helvetica,sans-Serif" font-size="10.00">Camera::adjustFpsDynamically</text>
</a>
</g>
</g>
<!-- Node1&#45;&gt;Node2 -->
<g id="edge1" class="edge">
<title>Node1&#45;&gt;Node2</title>
<path fill="none" stroke="midnightblue" d="M969.84,-46.48C958.31,-47.64 946.4,-48.84 934.78,-50.01"/>
<polygon fill="midnightblue" stroke="midnightblue" points="970.25,-49.95 979.85,-45.47 969.55,-42.99 970.25,-49.95"/>
</g>
<!-- Node5 -->
<g id="node5" class="node">
<title>Node5</title>
<g id="a_node5"><a xlink:href="classNetworkManager.html#acd8737d274da2f02b0e1635b4b9f63bb" target="_top" xlink:title=" ">
<polygon fill="none" stroke="black" points="755,-10 755,-29 944,-29 944,-10 755,-10"/>
<text text-anchor="middle" x="849.5" y="-17" font-family="Helvetica,sans-Serif" font-size="10.00">NetworkManager::calculateMaxFps</text>
</a>
</g>
</g>
<!-- Node1&#45;&gt;Node5 -->
<g id="edge4" class="edge">
<title>Node1&#45;&gt;Node5</title>
<path fill="none" stroke="midnightblue" d="M969.73,-30.91C961.33,-30.11 952.73,-29.29 944.19,-28.47"/>
<polygon fill="midnightblue" stroke="midnightblue" points="969.56,-34.41 979.85,-31.88 970.23,-27.44 969.56,-34.41"/>
</g>
<!-- Node3 -->
<g id="node3" class="node">
<title>Node3</title>
<g id="a_node3"><a xlink:href="classCamera.html#ac75a36ff4d008e091919c9a0e8d3d752" target="_top" xlink:title=" ">
<polygon fill="none" stroke="black" points="539,-49 539,-68 696,-68 696,-49 539,-49"/>
<text text-anchor="middle" x="617.5" y="-56" font-family="Helvetica,sans-Serif" font-size="10.00">Camera::updateGlobalFrame</text>
</a>
</g>
</g>
<!-- Node2&#45;&gt;Node3 -->
<g id="edge2" class="edge">
<title>Node2&#45;&gt;Node3</title>
<path fill="none" stroke="midnightblue" d="M754.45,-58.5C735.08,-58.5 714.89,-58.5 696.17,-58.5"/>
<polygon fill="midnightblue" stroke="midnightblue" points="754.49,-62 764.49,-58.5 754.49,-55 754.49,-62"/>
</g>
<!-- Node4 -->
<g id="node4" class="node">
<title>Node4</title>
<g id="a_node4"><a xlink:href="classCamera.html#ad9f2f078e719c799e1a677a12ea52b44" target="_top" xlink:title=" ">
<polygon fill="none" stroke="black" points="329.5,-50 329.5,-69 463.5,-69 463.5,-50 329.5,-50"/>
<text text-anchor="middle" x="396.5" y="-57" font-family="Helvetica,sans-Serif" font-size="10.00">Camera::startStreaming</text>
</a>
</g>
</g>
<!-- Node3&#45;&gt;Node4 -->
<g id="edge3" class="edge">
<title>Node3&#45;&gt;Node4</title>
<path fill="none" stroke="midnightblue" d="M528.77,-58.9C507.06,-59 484.16,-59.1 463.67,-59.2"/>
<polygon fill="midnightblue" stroke="midnightblue" points="529,-62.4 538.98,-58.85 528.96,-55.4 529,-62.4"/>
</g>
<!-- Node6 -->
<g id="node6" class="node">
<title>Node6</title>
<g id="a_node6"><a xlink:href="classNetworkManager.html#a22ca4e3eadd1f887bb5f90f98570709f" target="_top" xlink:title=" ">
<polygon fill="none" stroke="black" points="516,-9 516,-28 719,-28 719,-9 516,-9"/>
<text text-anchor="middle" x="617.5" y="-16" font-family="Helvetica,sans-Serif" font-size="10.00">NetworkManager::configureBandwidth</text>
</a>
</g>
</g>
<!-- Node5&#45;&gt;Node6 -->
<g id="edge5" class="edge">
<title>Node5&#45;&gt;Node6</title>
<path fill="none" stroke="midnightblue" d="M744.92,-19.05C736.33,-19.01 727.65,-18.97 719.09,-18.94"/>
<polygon fill="midnightblue" stroke="midnightblue" points="744.94,-22.55 754.95,-19.09 744.97,-15.55 744.94,-22.55"/>
</g>
<!-- Node7 -->
<g id="node7" class="node">
<title>Node7</title>
<g id="a_node7"><a xlink:href="classNetworkManager.html#a5131787ff8e8985e848e8456c1e6b202" target="_top" xlink:title=" ">
<polygon fill="none" stroke="black" points="313,-0.5 313,-30.5 480,-30.5 480,-0.5 313,-0.5"/>
<text text-anchor="start" x="321" y="-18.5" font-family="Helvetica,sans-Serif" font-size="10.00">NetworkManager::configurePtp</text>
<text text-anchor="middle" x="396.5" y="-7.5" font-family="Helvetica,sans-Serif" font-size="10.00">SyncFreeRun</text>
</a>
</g>
</g>
<!-- Node6&#45;&gt;Node7 -->
<g id="edge6" class="edge">
<title>Node6&#45;&gt;Node7</title>
<path fill="none" stroke="midnightblue" d="M505.8,-16.98C497.13,-16.86 488.46,-16.75 480.03,-16.63"/>
<polygon fill="midnightblue" stroke="midnightblue" points="505.93,-20.49 515.97,-17.12 506.02,-13.49 505.93,-20.49"/>
</g>
<!-- Node8 -->
<g id="node8" class="node">
<title>Node8</title>
<g id="a_node8"><a xlink:href="classSystemManager.html#addb2328a323747f21afb826811f288ab" target="_top" xlink:title=" ">
<polygon fill="none" stroke="black" points="77,-6 77,-25 277,-25 277,-6 77,-6"/>
<text text-anchor="middle" x="177" y="-13" font-family="Helvetica,sans-Serif" font-size="10.00">SystemManager::syncFreeRunStream</text>
</a>
</g>
</g>
<!-- Node7&#45;&gt;Node8 -->
<g id="edge7" class="edge">
<title>Node7&#45;&gt;Node8</title>
<path fill="none" stroke="midnightblue" d="M302.76,-15.5C294.33,-15.5 285.77,-15.5 277.29,-15.5"/>
<polygon fill="midnightblue" stroke="midnightblue" points="302.96,-19 312.96,-15.5 302.96,-12 302.96,-19"/>
</g>
<!-- Node9 -->
<g id="node9" class="node">
<title>Node9</title>
<g id="a_node9"><a xlink:href="main_8cpp.html#a0ddf1224851353fc92bfbff6f499fa97" target="_top" xlink:title=" ">
<polygon fill="none" stroke="black" points="0,-6 0,-25 41,-25 41,-6 0,-6"/>
<text text-anchor="middle" x="20.5" y="-13" font-family="Helvetica,sans-Serif" font-size="10.00">main</text>
</a>
</g>
</g>
<!-- Node8&#45;&gt;Node9 -->
<g id="edge8" class="edge">
<title>Node8&#45;&gt;Node9</title>
<path fill="none" stroke="midnightblue" d="M66.61,-15.5C57.05,-15.5 48.28,-15.5 41.07,-15.5"/>
<polygon fill="midnightblue" stroke="midnightblue" points="66.84,-19 76.84,-15.5 66.84,-12 66.84,-19"/>
</g>
</g>
</svg>
