<?xml version="1.0" encoding="UTF-8" standalone="no"?>
<!DOCTYPE svg PUBLIC "-//W3C//DTD SVG 1.1//EN"
 "http://www.w3.org/Graphics/SVG/1.1/DTD/svg11.dtd">
<!-- Generated by graphviz version 2.43.0 (0)
 -->
<!-- Title: main Pages: 1 -->
<!--zoomable 452 -->
<svg id="main" version="1.1" xmlns="http://www.w3.org/2000/svg" xmlns:xlink="http://www.w3.org/1999/xlink" xml:space="preserve" onload="init(evt)">
<style type="text/css"><![CDATA[
.edge:hover path { stroke: red; }
.edge:hover polygon { stroke: red; fill: red; }
]]></style>
<script type="text/javascript"><![CDATA[
var edges = document.getElementsByTagName('g');
if (edges && edges.length) {
  for (var i=0;i<edges.length;i++) {
    if (edges[i].id.substr(0,4)=='edge') {
      edges[i].setAttribute('class','edge');
    }
  }
}
]]></script>
        <defs>
                <circle id="rim" cx="0" cy="0" r="7"/>
                <circle id="rim2" cx="0" cy="0" r="3.5"/>
                <g id="zoomPlus">
                        <use xlink:href="#rim" fill="#404040">
                                <set attributeName="fill" to="#808080" begin="zoomplus.mouseover" end="zoomplus.mouseout"/>
                        </use>
                        <path d="M-4,0h8M0,-4v8" fill="none" stroke="white" stroke-width="1.5" pointer-events="none"/>
                </g>
                <g id="zoomMin">
                        <use xlink:href="#rim" fill="#404040">
                                <set attributeName="fill" to="#808080" begin="zoomminus.mouseover" end="zoomminus.mouseout"/>
                        </use>
                        <path d="M-4,0h8" fill="none" stroke="white" stroke-width="1.5" pointer-events="none"/>
                </g>
                <g id="dirArrow">
                        <path fill="none" stroke="white" stroke-width="1.5" d="M0,-3.0v7 M-2.5,-0.5L0,-3.0L2.5,-0.5"/>
                </g>
               <g id="resetDef">
                       <use xlink:href="#rim2" fill="#404040">
                               <set attributeName="fill" to="#808080" begin="reset.mouseover" end="reset.mouseout"/>
                       </use>
               </g>
        </defs>

<script type="text/javascript">
var viewWidth = 1271;
var viewHeight = 452;
var sectionId = 'dynsection-1';
</script>
<script xlink:href="svgpan.js"/>
<svg id="graph" class="graph">
<g id="viewport">
<title>main</title>
<!-- Node1 -->
<g id="node1" class="node">
<title>Node1</title>
<g id="a_node1"><a xlink:title=" ">
<polygon fill="#bfbfbf" stroke="black" points="0,-234.5 0,-253.5 41,-253.5 41,-234.5 0,-234.5"/>
<text text-anchor="middle" x="20.5" y="-241.5" font-family="Helvetica,sans-Serif" font-size="10.00">main</text>
</a>
</g>
</g>
<!-- Node2 -->
<g id="node2" class="node">
<title>Node2</title>
<g id="a_node2"><a xlink:href="classSystemManager.html#a1c1ba12c1709183b2bd1bd48ebebe24c" target="_top" xlink:title=" ">
<polygon fill="none" stroke="black" points="86.5,-386.5 86.5,-405.5 267.5,-405.5 267.5,-386.5 86.5,-386.5"/>
<text text-anchor="middle" x="177" y="-393.5" font-family="Helvetica,sans-Serif" font-size="10.00">SystemManager::initializeSystem</text>
</a>
</g>
</g>
<!-- Node1&#45;&gt;Node2 -->
<g id="edge1" class="edge">
<title>Node1&#45;&gt;Node2</title>
<path fill="none" stroke="midnightblue" d="M25.18,-253.71C32.58,-272.21 50.85,-313.01 77,-339 95.7,-357.59 121.68,-372.24 142.33,-382.03"/>
<polygon fill="midnightblue" stroke="midnightblue" points="141.14,-385.34 151.69,-386.32 144.06,-378.97 141.14,-385.34"/>
</g>
<!-- Node9 -->
<g id="node9" class="node">
<title>Node9</title>
<g id="a_node9"><a xlink:href="main_8cpp.html#ae87714a32069a99bdee647bb2c4a6c65" target="_top" xlink:title=" ">
<polygon fill="none" stroke="black" points="128,-196.5 128,-215.5 226,-215.5 226,-196.5 128,-196.5"/>
<text text-anchor="middle" x="177" y="-203.5" font-family="Helvetica,sans-Serif" font-size="10.00">parseCameraIDs</text>
</a>
</g>
</g>
<!-- Node1&#45;&gt;Node9 -->
<g id="edge8" class="edge">
<title>Node1&#45;&gt;Node9</title>
<path fill="none" stroke="midnightblue" d="M41.07,-236.55C51.61,-232.73 64.89,-228.22 77,-225 90.07,-221.53 104.28,-218.42 117.74,-215.77"/>
<polygon fill="midnightblue" stroke="midnightblue" points="118.69,-219.15 127.86,-213.84 117.38,-212.28 118.69,-219.15"/>
</g>
<!-- Node10 -->
<g id="node10" class="node">
<title>Node10</title>
<g id="a_node10"><a xlink:href="main_8cpp.html#a99cfd7f582dfad8278b8ebaddcaa9e41" target="_top" xlink:title=" ">
<polygon fill="none" stroke="black" points="142,-158.5 142,-177.5 212,-177.5 212,-158.5 142,-158.5"/>
<text text-anchor="middle" x="177" y="-165.5" font-family="Helvetica,sans-Serif" font-size="10.00">printUsage</text>
</a>
</g>
</g>
<!-- Node1&#45;&gt;Node10 -->
<g id="edge9" class="edge">
<title>Node1&#45;&gt;Node10</title>
<path fill="none" stroke="midnightblue" d="M28.1,-234.16C37.39,-221.15 55.6,-198.53 77,-187 93.61,-178.05 113.8,-173.27 131.6,-170.73"/>
<polygon fill="midnightblue" stroke="midnightblue" points="132.26,-174.18 141.75,-169.48 131.4,-167.23 132.26,-174.18"/>
</g>
<!-- Node11 -->
<g id="node11" class="node">
<title>Node11</title>
<g id="a_node11"><a xlink:href="classSystemManager.html#a051494c0cf33bac6dbd8e4c0eb3ed9ae" target="_top" xlink:title=" ">
<polygon fill="none" stroke="black" points="99.5,-310.5 99.5,-329.5 254.5,-329.5 254.5,-310.5 99.5,-310.5"/>
<text text-anchor="middle" x="177" y="-317.5" font-family="Helvetica,sans-Serif" font-size="10.00">SystemManager::ptpDisable</text>
</a>
</g>
</g>
<!-- Node1&#45;&gt;Node11 -->
<g id="edge10" class="edge">
<title>Node1&#45;&gt;Node11</title>
<path fill="none" stroke="midnightblue" d="M28.1,-253.84C37.39,-266.85 55.6,-289.47 77,-301 81.3,-303.32 85.84,-305.35 90.51,-307.14"/>
<polygon fill="midnightblue" stroke="midnightblue" points="89.67,-310.56 100.27,-310.49 91.94,-303.93 89.67,-310.56"/>
</g>
<!-- Node16 -->
<g id="node16" class="node">
<title>Node16</title>
<g id="a_node16"><a xlink:href="classSystemManager.html#af801ab01222b0c07d25a8fa780d423e4" target="_top" xlink:title=" ">
<polygon fill="none" stroke="black" points="101.5,-272.5 101.5,-291.5 252.5,-291.5 252.5,-272.5 101.5,-272.5"/>
<text text-anchor="middle" x="177" y="-279.5" font-family="Helvetica,sans-Serif" font-size="10.00">SystemManager::ptpEnable</text>
</a>
</g>
</g>
<!-- Node1&#45;&gt;Node16 -->
<g id="edge16" class="edge">
<title>Node1&#45;&gt;Node16</title>
<path fill="none" stroke="midnightblue" d="M41.07,-251.45C51.61,-255.27 64.89,-259.78 77,-263 87.3,-265.74 98.29,-268.24 109.07,-270.48"/>
<polygon fill="midnightblue" stroke="midnightblue" points="108.39,-273.91 118.89,-272.45 109.77,-267.05 108.39,-273.91"/>
</g>
<!-- Node18 -->
<g id="node18" class="node">
<title>Node18</title>
<g id="a_node18"><a xlink:href="classSystemManager.html#afa1d2e6e0615b3bba9a7c6086b39360f" target="_top" xlink:title=" ">
<polygon fill="none" stroke="black" points="84,-120.5 84,-139.5 270,-139.5 270,-120.5 84,-120.5"/>
<text text-anchor="middle" x="177" y="-127.5" font-family="Helvetica,sans-Serif" font-size="10.00">SystemManager::shutdownSystem</text>
</a>
</g>
</g>
<!-- Node1&#45;&gt;Node18 -->
<g id="edge20" class="edge">
<title>Node1&#45;&gt;Node18</title>
<path fill="none" stroke="midnightblue" d="M24.18,-234.35C30.14,-214.82 46.44,-170.63 77,-149 79.71,-147.08 82.57,-145.34 85.53,-143.76"/>
<polygon fill="midnightblue" stroke="midnightblue" points="87.11,-146.89 94.71,-139.51 84.16,-140.54 87.11,-146.89"/>
</g>
<!-- Node19 -->
<g id="node19" class="node">
<title>Node19</title>
<g id="a_node19"><a xlink:href="classSystemManager.html#addb2328a323747f21afb826811f288ab" target="_top" xlink:title=" ">
<polygon fill="none" stroke="black" points="77,-234.5 77,-253.5 277,-253.5 277,-234.5 77,-234.5"/>
<text text-anchor="middle" x="177" y="-241.5" font-family="Helvetica,sans-Serif" font-size="10.00">SystemManager::syncFreeRunStream</text>
</a>
</g>
</g>
<!-- Node1&#45;&gt;Node19 -->
<g id="edge21" class="edge">
<title>Node1&#45;&gt;Node19</title>
<path fill="none" stroke="midnightblue" d="M41.07,-244C48.3,-244 57.1,-244 66.7,-244"/>
<polygon fill="midnightblue" stroke="midnightblue" points="66.96,-247.5 76.96,-244 66.96,-240.5 66.96,-247.5"/>
</g>
<!-- Node3 -->
<g id="node3" class="node">
<title>Node3</title>
<g id="a_node3"><a xlink:href="classSystemManager.html#ad083133600bc7f1b8f3946a5b6cb0e1a" target="_top" xlink:title=" ">
<polygon fill="none" stroke="black" points="314.5,-386.5 314.5,-405.5 513.5,-405.5 513.5,-386.5 314.5,-386.5"/>
<text text-anchor="middle" x="414" y="-393.5" font-family="Helvetica,sans-Serif" font-size="10.00">SystemManager::enumerateCameras</text>
</a>
</g>
</g>
<!-- Node2&#45;&gt;Node3 -->
<g id="edge2" class="edge">
<title>Node2&#45;&gt;Node3</title>
<path fill="none" stroke="midnightblue" d="M267.51,-396C279.47,-396 291.84,-396 304.08,-396"/>
<polygon fill="midnightblue" stroke="midnightblue" points="304.33,-399.5 314.33,-396 304.33,-392.5 304.33,-399.5"/>
</g>
<!-- Node8 -->
<g id="node8" class="node">
<title>Node8</title>
<g id="a_node8"><a xlink:href="SystemManager_8cpp.html#aa025f45ed88b3ae4067ae664cf12f853" target="_top" xlink:title=" ">
<polygon fill="none" stroke="black" points="374,-424.5 374,-443.5 454,-443.5 454,-424.5 374,-424.5"/>
<text text-anchor="middle" x="414" y="-431.5" font-family="Helvetica,sans-Serif" font-size="10.00">handleSignal</text>
</a>
</g>
</g>
<!-- Node2&#45;&gt;Node8 -->
<g id="edge7" class="edge">
<title>Node2&#45;&gt;Node8</title>
<path fill="none" stroke="midnightblue" d="M237,-405.54C276.14,-411.87 326.92,-420.08 363.87,-426.06"/>
<polygon fill="midnightblue" stroke="midnightblue" points="363.47,-429.54 373.9,-427.68 364.59,-422.63 363.47,-429.54"/>
</g>
<!-- Node4 -->
<g id="node4" class="node">
<title>Node4</title>
<g id="a_node4"><a xlink:href="classDeviceManager.html#a8a18f2eeb06ca5683d69aed675dbffcb" target="_top" xlink:title=" ">
<polygon fill="none" stroke="black" points="551,-354.5 551,-373.5 754,-373.5 754,-354.5 551,-354.5"/>
<text text-anchor="middle" x="652.5" y="-361.5" font-family="Helvetica,sans-Serif" font-size="10.00">DeviceManager::getAvailableCameras</text>
</a>
</g>
</g>
<!-- Node3&#45;&gt;Node4 -->
<g id="edge3" class="edge">
<title>Node3&#45;&gt;Node4</title>
<path fill="none" stroke="midnightblue" d="M485.32,-386.49C512.24,-382.84 543.15,-378.66 570.95,-374.9"/>
<polygon fill="midnightblue" stroke="midnightblue" points="571.6,-378.34 581.05,-373.53 570.67,-371.41 571.6,-378.34"/>
</g>
<!-- Node7 -->
<g id="node7" class="node">
<title>Node7</title>
<g id="a_node7"><a xlink:href="classDeviceManager.html#a8e9faffa5ae7cf3ce2e292219bb82c32" target="_top" xlink:title=" ">
<polygon fill="none" stroke="black" points="573,-393 573,-423 732,-423 732,-393 573,-393"/>
<text text-anchor="start" x="581" y="-411" font-family="Helvetica,sans-Serif" font-size="10.00">DeviceManager::listAvailable</text>
<text text-anchor="middle" x="652.5" y="-400" font-family="Helvetica,sans-Serif" font-size="10.00">CamerasByID</text>
</a>
</g>
</g>
<!-- Node3&#45;&gt;Node7 -->
<g id="edge6" class="edge">
<title>Node3&#45;&gt;Node7</title>
<path fill="none" stroke="midnightblue" d="M513.58,-401C529.8,-401.83 546.53,-402.67 562.5,-403.48"/>
<polygon fill="midnightblue" stroke="midnightblue" points="562.71,-407 572.87,-404.01 563.06,-400.01 562.71,-407"/>
</g>
<!-- Node5 -->
<g id="node5" class="node">
<title>Node5</title>
<g id="a_node5"><a xlink:href="classDeviceManager.html#ab0ab314042a5d622db73d67b3bbdedf4" target="_top" xlink:title=" ">
<polygon fill="none" stroke="black" points="802.5,-349 802.5,-379 993.5,-379 993.5,-349 802.5,-349"/>
<text text-anchor="start" x="810.5" y="-367" font-family="Helvetica,sans-Serif" font-size="10.00">DeviceManager::enumerateDevices</text>
<text text-anchor="middle" x="898" y="-356" font-family="Helvetica,sans-Serif" font-size="10.00">FromSystems</text>
</a>
</g>
</g>
<!-- Node4&#45;&gt;Node5 -->
<g id="edge4" class="edge">
<title>Node4&#45;&gt;Node5</title>
<path fill="none" stroke="midnightblue" d="M754.3,-364C766.79,-364 779.59,-364 792.14,-364"/>
<polygon fill="midnightblue" stroke="midnightblue" points="792.14,-367.5 802.14,-364 792.14,-360.5 792.14,-367.5"/>
</g>
<!-- Node6 -->
<g id="node6" class="node">
<title>Node6</title>
<g id="a_node6"><a xlink:href="classDeviceManager.html#a6374a294f1d0d15f18ab35aea1fb6158" target="_top" xlink:title=" ">
<polygon fill="none" stroke="black" points="1042,-332.5 1042,-351.5 1263,-351.5 1263,-332.5 1042,-332.5"/>
<text text-anchor="middle" x="1152.5" y="-339.5" font-family="Helvetica,sans-Serif" font-size="10.00">DeviceManager::getAvailableCameraByID</text>
</a>
</g>
</g>
<!-- Node5&#45;&gt;Node6 -->
<g id="edge5" class="edge">
<title>Node5&#45;&gt;Node6</title>
<path fill="none" stroke="midnightblue" d="M993.74,-355.75C1006.22,-354.66 1019.13,-353.53 1031.96,-352.42"/>
<polygon fill="midnightblue" stroke="midnightblue" points="1032.55,-355.88 1042.21,-351.52 1031.95,-348.9 1032.55,-355.88"/>
</g>
<!-- Node12 -->
<g id="node12" class="node">
<title>Node12</title>
<g id="a_node12"><a xlink:href="classDeviceManager.html#a36a89dec4c09c02f7269093b346c37b6" target="_top" xlink:title=" ">
<polygon fill="none" stroke="black" points="327.5,-310.5 327.5,-329.5 500.5,-329.5 500.5,-310.5 327.5,-310.5"/>
<text text-anchor="middle" x="414" y="-317.5" font-family="Helvetica,sans-Serif" font-size="10.00">DeviceManager::createCameras</text>
</a>
</g>
</g>
<!-- Node11&#45;&gt;Node12 -->
<g id="edge11" class="edge">
<title>Node11&#45;&gt;Node12</title>
<path fill="none" stroke="midnightblue" d="M254.62,-320C274.54,-320 296.24,-320 317.01,-320"/>
<polygon fill="midnightblue" stroke="midnightblue" points="317.12,-323.5 327.12,-320 317.12,-316.5 317.12,-323.5"/>
</g>
<!-- Node14 -->
<g id="node14" class="node">
<title>Node14</title>
<g id="a_node14"><a xlink:href="classNetworkManager.html#a72d16c3ed9d65f8f9ac365fd576d9077" target="_top" xlink:title=" ">
<polygon fill="none" stroke="black" points="335,-348.5 335,-367.5 493,-367.5 493,-348.5 335,-348.5"/>
<text text-anchor="middle" x="414" y="-355.5" font-family="Helvetica,sans-Serif" font-size="10.00">NetworkManager::disablePtp</text>
</a>
</g>
</g>
<!-- Node11&#45;&gt;Node14 -->
<g id="edge14" class="edge">
<title>Node11&#45;&gt;Node14</title>
<path fill="none" stroke="midnightblue" d="M237,-329.54C269.4,-334.78 309.78,-341.31 343.68,-346.79"/>
<polygon fill="midnightblue" stroke="midnightblue" points="343.55,-350.31 353.98,-348.46 344.67,-343.4 343.55,-350.31"/>
</g>
<!-- Node15 -->
<g id="node15" class="node">
<title>Node15</title>
<g id="a_node15"><a xlink:href="classDeviceManager.html#aa5df5c2756fda96dc9438e1c85071699" target="_top" xlink:title=" ">
<polygon fill="none" stroke="black" points="322,-272.5 322,-291.5 506,-291.5 506,-272.5 322,-272.5"/>
<text text-anchor="middle" x="414" y="-279.5" font-family="Helvetica,sans-Serif" font-size="10.00">DeviceManager::getOpenCameras</text>
</a>
</g>
</g>
<!-- Node11&#45;&gt;Node15 -->
<g id="edge15" class="edge">
<title>Node11&#45;&gt;Node15</title>
<path fill="none" stroke="midnightblue" d="M237,-310.46C269.4,-305.22 309.78,-298.69 343.68,-293.21"/>
<polygon fill="midnightblue" stroke="midnightblue" points="344.67,-296.6 353.98,-291.54 343.55,-289.69 344.67,-296.6"/>
</g>
<!-- Node13 -->
<g id="node13" class="node">
<title>Node13</title>
<g id="a_node13"><a xlink:href="classDeviceManager.html#a5de621ae914e130ad5a5e977c02272f4" target="_top" xlink:title=" ">
<polygon fill="none" stroke="black" points="814,-310.5 814,-329.5 982,-329.5 982,-310.5 814,-310.5"/>
<text text-anchor="middle" x="898" y="-317.5" font-family="Helvetica,sans-Serif" font-size="10.00">DeviceManager::createCamera</text>
</a>
</g>
</g>
<!-- Node12&#45;&gt;Node13 -->
<g id="edge12" class="edge">
<title>Node12&#45;&gt;Node13</title>
<path fill="none" stroke="midnightblue" d="M500.62,-320C585.71,-320 715.85,-320 803.58,-320"/>
<polygon fill="midnightblue" stroke="midnightblue" points="803.79,-323.5 813.79,-320 803.79,-316.5 803.79,-323.5"/>
</g>
<!-- Node13&#45;&gt;Node6 -->
<g id="edge13" class="edge">
<title>Node13&#45;&gt;Node6</title>
<path fill="none" stroke="midnightblue" d="M982.03,-327.23C998.13,-328.64 1015.3,-330.13 1032.29,-331.61"/>
<polygon fill="midnightblue" stroke="midnightblue" points="1032.01,-335.1 1042.27,-332.48 1032.61,-328.13 1032.01,-335.1"/>
</g>
<!-- Node16&#45;&gt;Node12 -->
<g id="edge17" class="edge">
<title>Node16&#45;&gt;Node12</title>
<path fill="none" stroke="midnightblue" d="M237,-291.54C269.4,-296.78 309.78,-303.31 343.68,-308.79"/>
<polygon fill="midnightblue" stroke="midnightblue" points="343.55,-312.31 353.98,-310.46 344.67,-305.4 343.55,-312.31"/>
</g>
<!-- Node16&#45;&gt;Node15 -->
<g id="edge19" class="edge">
<title>Node16&#45;&gt;Node15</title>
<path fill="none" stroke="midnightblue" d="M252.68,-282C271.33,-282 291.66,-282 311.37,-282"/>
<polygon fill="midnightblue" stroke="midnightblue" points="311.62,-285.5 321.62,-282 311.62,-278.5 311.62,-285.5"/>
</g>
<!-- Node17 -->
<g id="node17" class="node">
<title>Node17</title>
<g id="a_node17"><a xlink:href="classNetworkManager.html#a97139087ce2feb24bce02b5e26ef1cf5" target="_top" xlink:title=" ">
<polygon fill="none" stroke="black" points="575,-266.5 575,-285.5 730,-285.5 730,-266.5 575,-266.5"/>
<text text-anchor="middle" x="652.5" y="-273.5" font-family="Helvetica,sans-Serif" font-size="10.00">NetworkManager::enablePtp</text>
</a>
</g>
</g>
<!-- Node16&#45;&gt;Node17 -->
<g id="edge18" class="edge">
<title>Node16&#45;&gt;Node17</title>
<path fill="none" stroke="midnightblue" d="M232.99,-272.49C257.41,-268.72 286.56,-264.85 313,-263 402.56,-256.73 425.32,-258.74 515,-263 531.05,-263.76 548.12,-265.03 564.57,-266.47"/>
<polygon fill="midnightblue" stroke="midnightblue" points="564.43,-269.98 574.71,-267.4 565.07,-263.01 564.43,-269.98"/>
</g>
<!-- Node19&#45;&gt;Node12 -->
<g id="edge37" class="edge">
<title>Node19&#45;&gt;Node12</title>
<path fill="none" stroke="midnightblue" d="M254.3,-253.57C262.22,-256.04 269.94,-259.13 277,-263 297.41,-274.17 292.58,-289.84 313,-301 317.24,-303.31 321.71,-305.35 326.31,-307.14"/>
<polygon fill="midnightblue" stroke="midnightblue" points="325.33,-310.51 335.93,-310.49 327.63,-303.9 325.33,-310.51"/>
</g>
<!-- Node19&#45;&gt;Node15 -->
<g id="edge38" class="edge">
<title>Node19&#45;&gt;Node15</title>
<path fill="none" stroke="midnightblue" d="M237,-253.54C269.4,-258.78 309.78,-265.31 343.68,-270.79"/>
<polygon fill="midnightblue" stroke="midnightblue" points="343.55,-274.31 353.98,-272.46 344.67,-267.4 343.55,-274.31"/>
</g>
<!-- Node20 -->
<g id="node20" class="node">
<title>Node20</title>
<g id="a_node20"><a xlink:href="classNetworkManager.html#a5131787ff8e8985e848e8456c1e6b202" target="_top" xlink:title=" ">
<polygon fill="none" stroke="black" points="330.5,-185 330.5,-215 497.5,-215 497.5,-185 330.5,-185"/>
<text text-anchor="start" x="338.5" y="-203" font-family="Helvetica,sans-Serif" font-size="10.00">NetworkManager::configurePtp</text>
<text text-anchor="middle" x="414" y="-192" font-family="Helvetica,sans-Serif" font-size="10.00">SyncFreeRun</text>
</a>
</g>
</g>
<!-- Node19&#45;&gt;Node20 -->
<g id="edge22" class="edge">
<title>Node19&#45;&gt;Node20</title>
<path fill="none" stroke="midnightblue" d="M228.99,-234.45C256.28,-229.34 290.7,-222.9 322.36,-216.97"/>
<polygon fill="midnightblue" stroke="midnightblue" points="323.35,-220.35 332.54,-215.07 322.06,-213.47 323.35,-220.35"/>
</g>
<!-- Node33 -->
<g id="node33" class="node">
<title>Node33</title>
<g id="a_node33"><a xlink:href="classStreamManager.html#a87567b0edf6975bd31e8176b7fe5cbce" target="_top" xlink:title=" ">
<polygon fill="none" stroke="black" points="313,-57.5 313,-76.5 515,-76.5 515,-57.5 313,-57.5"/>
<text text-anchor="middle" x="414" y="-64.5" font-family="Helvetica,sans-Serif" font-size="10.00">StreamManager::startPtpSyncFreeRun</text>
</a>
</g>
</g>
<!-- Node19&#45;&gt;Node33 -->
<g id="edge39" class="edge">
<title>Node19&#45;&gt;Node33</title>
<path fill="none" stroke="midnightblue" d="M257.36,-234.41C264.27,-231.92 270.93,-228.83 277,-225 299.85,-210.57 295.84,-196.88 313,-176 340.91,-142.05 376.19,-104.78 396.52,-83.8"/>
<polygon fill="midnightblue" stroke="midnightblue" points="399.06,-86.2 403.53,-76.6 394.05,-81.32 399.06,-86.2"/>
</g>
<!-- Node20&#45;&gt;Node17 -->
<g id="edge29" class="edge">
<title>Node20&#45;&gt;Node17</title>
<path fill="none" stroke="midnightblue" d="M477.4,-215.02C490.16,-219.1 503.27,-224.08 515,-230 532.85,-239.01 532.7,-248.93 551,-257 556.81,-259.56 562.96,-261.78 569.24,-263.7"/>
<polygon fill="midnightblue" stroke="midnightblue" points="568.61,-267.15 579.18,-266.47 570.49,-260.41 568.61,-267.15"/>
</g>
<!-- Node21 -->
<g id="node21" class="node">
<title>Node21</title>
<g id="a_node21"><a xlink:href="classNetworkManager.html#a22ca4e3eadd1f887bb5f90f98570709f" target="_top" xlink:title=" ">
<polygon fill="none" stroke="black" points="551,-190.5 551,-209.5 754,-209.5 754,-190.5 551,-190.5"/>
<text text-anchor="middle" x="652.5" y="-197.5" font-family="Helvetica,sans-Serif" font-size="10.00">NetworkManager::configureBandwidth</text>
</a>
</g>
</g>
<!-- Node20&#45;&gt;Node21 -->
<g id="edge23" class="edge">
<title>Node20&#45;&gt;Node21</title>
<path fill="none" stroke="midnightblue" d="M497.72,-200C511.68,-200 526.37,-200 540.9,-200"/>
<polygon fill="midnightblue" stroke="midnightblue" points="540.93,-203.5 550.93,-200 540.93,-196.5 540.93,-203.5"/>
</g>
<!-- Node27 -->
<g id="node27" class="node">
<title>Node27</title>
<g id="a_node27"><a xlink:href="classNetworkManager.html#a580689530037e60c278f61c2d541e86c" target="_top" xlink:title=" ">
<polygon fill="none" stroke="black" points="557.5,-152.5 557.5,-171.5 747.5,-171.5 747.5,-152.5 557.5,-152.5"/>
<text text-anchor="middle" x="652.5" y="-159.5" font-family="Helvetica,sans-Serif" font-size="10.00">NetworkManager::monitorPtpOffset</text>
</a>
</g>
</g>
<!-- Node20&#45;&gt;Node27 -->
<g id="edge30" class="edge">
<title>Node20&#45;&gt;Node27</title>
<path fill="none" stroke="midnightblue" d="M497.72,-186.71C525.35,-182.27 555.85,-177.37 582.34,-173.11"/>
<polygon fill="midnightblue" stroke="midnightblue" points="582.97,-176.56 592.29,-171.51 581.86,-169.64 582.97,-176.56"/>
</g>
<!-- Node31 -->
<g id="node31" class="node">
<title>Node31</title>
<g id="a_node31"><a xlink:href="classNetworkManager.html#a5cff683bdb24c9f3359fc259e73cc036" target="_top" xlink:title=" ">
<polygon fill="none" stroke="black" points="557,-228.5 557,-247.5 748,-247.5 748,-228.5 557,-228.5"/>
<text text-anchor="middle" x="652.5" y="-235.5" font-family="Helvetica,sans-Serif" font-size="10.00">NetworkManager::monitorPtpStatus</text>
</a>
</g>
</g>
<!-- Node20&#45;&gt;Node31 -->
<g id="edge34" class="edge">
<title>Node20&#45;&gt;Node31</title>
<path fill="none" stroke="midnightblue" d="M497.72,-213.29C525.35,-217.73 555.85,-222.63 582.34,-226.89"/>
<polygon fill="midnightblue" stroke="midnightblue" points="581.86,-230.36 592.29,-228.49 582.97,-223.44 581.86,-230.36"/>
</g>
<!-- Node32 -->
<g id="node32" class="node">
<title>Node32</title>
<g id="a_node32"><a xlink:href="classNetworkManager.html#ae34ac9fc3697d706c4938c61f44ecd59" target="_top" xlink:title=" ">
<polygon fill="none" stroke="black" points="818,-76.5 818,-95.5 978,-95.5 978,-76.5 818,-76.5"/>
<text text-anchor="middle" x="898" y="-83.5" font-family="Helvetica,sans-Serif" font-size="10.00">NetworkManager::plotOffsets</text>
</a>
</g>
</g>
<!-- Node20&#45;&gt;Node32 -->
<g id="edge35" class="edge">
<title>Node20&#45;&gt;Node32</title>
<path fill="none" stroke="midnightblue" d="M445.32,-184.87C472.4,-171.95 513.48,-153.79 551,-143 599.61,-129.02 730.9,-109.17 817.05,-96.96"/>
<polygon fill="midnightblue" stroke="midnightblue" points="817.65,-100.41 827.06,-95.55 816.67,-93.48 817.65,-100.41"/>
</g>
<!-- Node22 -->
<g id="node22" class="node">
<title>Node22</title>
<g id="a_node22"><a xlink:href="classNetworkManager.html#acd8737d274da2f02b0e1635b4b9f63bb" target="_top" xlink:title=" ">
<polygon fill="none" stroke="black" points="803.5,-228.5 803.5,-247.5 992.5,-247.5 992.5,-228.5 803.5,-228.5"/>
<text text-anchor="middle" x="898" y="-235.5" font-family="Helvetica,sans-Serif" font-size="10.00">NetworkManager::calculateMaxFps</text>
</a>
</g>
</g>
<!-- Node21&#45;&gt;Node22 -->
<g id="edge24" class="edge">
<title>Node21&#45;&gt;Node22</title>
<path fill="none" stroke="midnightblue" d="M714.63,-209.54C748.35,-214.8 790.41,-221.37 825.63,-226.86"/>
<polygon fill="midnightblue" stroke="midnightblue" points="825.42,-230.37 835.84,-228.46 826.5,-223.46 825.42,-230.37"/>
</g>
<!-- Node24 -->
<g id="node24" class="node">
<title>Node24</title>
<g id="a_node24"><a xlink:href="classNetworkManager.html#a88d3b203ca5c2d28212c5da9f8cdde7d" target="_top" xlink:title=" ">
<polygon fill="none" stroke="black" points="796.5,-190.5 796.5,-209.5 999.5,-209.5 999.5,-190.5 796.5,-190.5"/>
<text text-anchor="middle" x="898" y="-197.5" font-family="Helvetica,sans-Serif" font-size="10.00">NetworkManager::setExposureAndFps</text>
</a>
</g>
</g>
<!-- Node21&#45;&gt;Node24 -->
<g id="edge26" class="edge">
<title>Node21&#45;&gt;Node24</title>
<path fill="none" stroke="midnightblue" d="M754.3,-200C764.81,-200 775.53,-200 786.15,-200"/>
<polygon fill="midnightblue" stroke="midnightblue" points="786.28,-203.5 796.28,-200 786.28,-196.5 786.28,-203.5"/>
</g>
<!-- Node23 -->
<g id="node23" class="node">
<title>Node23</title>
<g id="a_node23"><a xlink:href="GlobalSettings_8cpp.html#a4e4d4e3815c368773a4dfcfc9d19666c" target="_top" xlink:title=" ">
<polygon fill="none" stroke="black" points="1082.5,-228.5 1082.5,-247.5 1222.5,-247.5 1222.5,-228.5 1082.5,-228.5"/>
<text text-anchor="middle" x="1152.5" y="-235.5" font-family="Helvetica,sans-Serif" font-size="10.00">setGlobalFpsUpperBound</text>
</a>
</g>
</g>
<!-- Node22&#45;&gt;Node23 -->
<g id="edge25" class="edge">
<title>Node22&#45;&gt;Node23</title>
<path fill="none" stroke="midnightblue" d="M992.66,-238C1018.81,-238 1046.97,-238 1072.2,-238"/>
<polygon fill="midnightblue" stroke="midnightblue" points="1072.45,-241.5 1082.45,-238 1072.45,-234.5 1072.45,-241.5"/>
</g>
<!-- Node25 -->
<g id="node25" class="node">
<title>Node25</title>
<g id="a_node25"><a xlink:href="GlobalSettings_8cpp.html#ae20198dd587799aa9d5579c3597f7fb4" target="_top" xlink:title=" ">
<polygon fill="none" stroke="black" points="1082,-190.5 1082,-209.5 1223,-209.5 1223,-190.5 1082,-190.5"/>
<text text-anchor="middle" x="1152.5" y="-197.5" font-family="Helvetica,sans-Serif" font-size="10.00">getGlobalFpsUpperBound</text>
</a>
</g>
</g>
<!-- Node24&#45;&gt;Node25 -->
<g id="edge27" class="edge">
<title>Node24&#45;&gt;Node25</title>
<path fill="none" stroke="midnightblue" d="M999.52,-200C1023.6,-200 1048.98,-200 1071.96,-200"/>
<polygon fill="midnightblue" stroke="midnightblue" points="1072,-203.5 1082,-200 1072,-196.5 1072,-203.5"/>
</g>
<!-- Node26 -->
<g id="node26" class="node">
<title>Node26</title>
<g id="a_node26"><a xlink:href="classNetworkManager.html#a2894fa4186d5341d1ceea4930cd1f448" target="_top" xlink:title=" ">
<polygon fill="none" stroke="black" points="1045.5,-152.5 1045.5,-171.5 1259.5,-171.5 1259.5,-152.5 1045.5,-152.5"/>
<text text-anchor="middle" x="1152.5" y="-159.5" font-family="Helvetica,sans-Serif" font-size="10.00">NetworkManager::getMinimumExposure</text>
</a>
</g>
</g>
<!-- Node24&#45;&gt;Node26 -->
<g id="edge28" class="edge">
<title>Node24&#45;&gt;Node26</title>
<path fill="none" stroke="midnightblue" d="M962.39,-190.46C997.51,-185.17 1041.34,-178.58 1077.96,-173.07"/>
<polygon fill="midnightblue" stroke="midnightblue" points="1078.72,-176.49 1088.08,-171.54 1077.67,-169.57 1078.72,-176.49"/>
</g>
<!-- Node28 -->
<g id="node28" class="node">
<title>Node28</title>
<g id="a_node28"><a xlink:href="classNetworkManager.html#ae856b2f8ac57cb540414667eccc6832a" target="_top" xlink:title=" ">
<polygon fill="none" stroke="black" points="790,-152.5 790,-171.5 1006,-171.5 1006,-152.5 790,-152.5"/>
<text text-anchor="middle" x="898" y="-159.5" font-family="Helvetica,sans-Serif" font-size="10.00">NetworkManager::logOffsetHistoryToCSV</text>
</a>
</g>
</g>
<!-- Node27&#45;&gt;Node28 -->
<g id="edge31" class="edge">
<title>Node27&#45;&gt;Node28</title>
<path fill="none" stroke="midnightblue" d="M747.64,-162C758.09,-162 768.82,-162 779.51,-162"/>
<polygon fill="midnightblue" stroke="midnightblue" points="779.73,-165.5 789.73,-162 779.73,-158.5 779.73,-165.5"/>
</g>
<!-- Node30 -->
<g id="node30" class="node">
<title>Node30</title>
<g id="a_node30"><a xlink:href="classNetworkManager.html#a8f23d31231702bcd91a3cf101a8394e6" target="_top" xlink:title=" ">
<polygon fill="none" stroke="black" points="810,-114.5 810,-133.5 986,-133.5 986,-114.5 810,-114.5"/>
<text text-anchor="middle" x="898" y="-121.5" font-family="Helvetica,sans-Serif" font-size="10.00">NetworkManager::printPtpConfig</text>
</a>
</g>
</g>
<!-- Node27&#45;&gt;Node30 -->
<g id="edge33" class="edge">
<title>Node27&#45;&gt;Node30</title>
<path fill="none" stroke="midnightblue" d="M714.63,-152.46C748.35,-147.2 790.41,-140.63 825.63,-135.14"/>
<polygon fill="midnightblue" stroke="midnightblue" points="826.5,-138.54 835.84,-133.54 825.42,-131.63 826.5,-138.54"/>
</g>
<!-- Node29 -->
<g id="node29" class="node">
<title>Node29</title>
<g id="a_node29"><a xlink:href="GlobalSettings_8hpp.html#a292086bff16224cc0653061c22440e60" target="_top" xlink:title=" ">
<polygon fill="none" stroke="black" points="1090,-95.5 1090,-114.5 1215,-114.5 1215,-95.5 1090,-95.5"/>
<text text-anchor="middle" x="1152.5" y="-102.5" font-family="Helvetica,sans-Serif" font-size="10.00">getSessionTimestamp</text>
</a>
</g>
</g>
<!-- Node28&#45;&gt;Node29 -->
<g id="edge32" class="edge">
<title>Node28&#45;&gt;Node29</title>
<path fill="none" stroke="midnightblue" d="M957.48,-152.49C973.28,-149.68 990.33,-146.43 1006,-143 1040.68,-135.41 1079.56,-125.16 1108.4,-117.22"/>
<polygon fill="midnightblue" stroke="midnightblue" points="1109.46,-120.56 1118.16,-114.52 1107.59,-113.81 1109.46,-120.56"/>
</g>
<!-- Node32&#45;&gt;Node29 -->
<g id="edge36" class="edge">
<title>Node32&#45;&gt;Node29</title>
<path fill="none" stroke="midnightblue" d="M978.2,-91.96C1010.7,-94.4 1048.04,-97.22 1079.73,-99.6"/>
<polygon fill="midnightblue" stroke="midnightblue" points="1079.57,-103.1 1089.8,-100.36 1080.09,-96.12 1079.57,-103.1"/>
</g>
<!-- Node34 -->
<g id="node34" class="node">
<title>Node34</title>
<g id="a_node34"><a xlink:href="classStreamManager.html#a9f70fad5bf4dd5108911c05af8f649e3" target="_top" xlink:title="Arrange frames into a composite grid. Supports up to 6 cameras.">
<polygon fill="none" stroke="black" points="560.5,-76.5 560.5,-95.5 744.5,-95.5 744.5,-76.5 560.5,-76.5"/>
<text text-anchor="middle" x="652.5" y="-83.5" font-family="Helvetica,sans-Serif" font-size="10.00">StreamManager::createComposite</text>
</a>
</g>
</g>
<!-- Node33&#45;&gt;Node34 -->
<g id="edge40" class="edge">
<title>Node33&#45;&gt;Node34</title>
<path fill="none" stroke="midnightblue" d="M515.3,-75.06C526.88,-75.99 538.71,-76.94 550.31,-77.87"/>
<polygon fill="midnightblue" stroke="midnightblue" points="550.18,-81.37 560.43,-78.68 550.74,-74.39 550.18,-81.37"/>
</g>
<!-- Node35 -->
<g id="node35" class="node">
<title>Node35</title>
<g id="a_node35"><a xlink:href="classStreamManager.html#a0257fcf9f99184dee55ffe95ab5a9c4c" target="_top" xlink:title=" ">
<polygon fill="none" stroke="black" points="553.5,-38.5 553.5,-57.5 751.5,-57.5 751.5,-38.5 553.5,-38.5"/>
<text text-anchor="middle" x="652.5" y="-45.5" font-family="Helvetica,sans-Serif" font-size="10.00">StreamManager::startFreeRunStream</text>
</a>
</g>
</g>
<!-- Node33&#45;&gt;Node35 -->
<g id="edge41" class="edge">
<title>Node33&#45;&gt;Node35</title>
<path fill="none" stroke="midnightblue" d="M515.3,-58.94C524.54,-58.2 533.94,-57.44 543.25,-56.7"/>
<polygon fill="midnightblue" stroke="midnightblue" points="543.62,-60.18 553.31,-55.89 543.06,-53.2 543.62,-60.18"/>
</g>
<!-- Node36 -->
<g id="node36" class="node">
<title>Node36</title>
<g id="a_node36"><a xlink:href="classStreamManager.html#abfb94b1e01cc9952b575a78995532e30" target="_top" xlink:title=" ">
<polygon fill="none" stroke="black" points="566.5,-0.5 566.5,-19.5 738.5,-19.5 738.5,-0.5 566.5,-0.5"/>
<text text-anchor="middle" x="652.5" y="-7.5" font-family="Helvetica,sans-Serif" font-size="10.00">StreamManager::stopStreaming</text>
</a>
</g>
</g>
<!-- Node33&#45;&gt;Node36 -->
<g id="edge42" class="edge">
<title>Node33&#45;&gt;Node36</title>
<path fill="none" stroke="midnightblue" d="M446.13,-57.48C473.57,-49.29 514.71,-37.48 551,-29 562.48,-26.32 574.77,-23.75 586.67,-21.41"/>
<polygon fill="midnightblue" stroke="midnightblue" points="587.4,-24.84 596.55,-19.51 586.07,-17.96 587.4,-24.84"/>
</g>
</g>
</svg>
        <g id="navigator" transform="translate(0 0)" fill="#404254">
                <rect fill="#f2f5e9" fill-opacity="0.5" stroke="#606060" stroke-width=".5" x="0" y="0" width="60" height="60"/>
                <use id="zoomplus" xlink:href="#zoomPlus" x="17" y="9" onmousedown="handleZoom(evt,'in')"/>
                <use id="zoomminus" xlink:href="#zoomMin" x="42" y="9" onmousedown="handleZoom(evt,'out')"/>
                <use id="reset" xlink:href="#resetDef" x="30" y="36" onmousedown="handleReset()"/>
                <g id="arrowUp" xlink:href="#dirArrow" transform="translate(30 24)" onmousedown="handlePan(0,-1)">
                  <use xlink:href="#rim" fill="#404040">
                        <set attributeName="fill" to="#808080" begin="arrowUp.mouseover" end="arrowUp.mouseout"/>
                  </use>
                  <path fill="none" stroke="white" stroke-width="1.5" d="M0,-3.0v7 M-2.5,-0.5L0,-3.0L2.5,-0.5"/>
                </g>
                <g id="arrowRight" xlink:href="#dirArrow" transform="rotate(90) translate(36 -43)" onmousedown="handlePan(1,0)">
                  <use xlink:href="#rim" fill="#404040">
                        <set attributeName="fill" to="#808080" begin="arrowRight.mouseover" end="arrowRight.mouseout"/>
                  </use>
                  <path fill="none" stroke="white" stroke-width="1.5" d="M0,-3.0v7 M-2.5,-0.5L0,-3.0L2.5,-0.5"/>
                </g>
                <g id="arrowDown" xlink:href="#dirArrow" transform="rotate(180) translate(-30 -48)" onmousedown="handlePan(0,1)">
                  <use xlink:href="#rim" fill="#404040">
                        <set attributeName="fill" to="#808080" begin="arrowDown.mouseover" end="arrowDown.mouseout"/>
                  </use>
                  <path fill="none" stroke="white" stroke-width="1.5" d="M0,-3.0v7 M-2.5,-0.5L0,-3.0L2.5,-0.5"/>
                </g>
                <g id="arrowLeft" xlink:href="#dirArrow" transform="rotate(270) translate(-36 17)" onmousedown="handlePan(-1,0)">
                  <use xlink:href="#rim" fill="#404040">
                        <set attributeName="fill" to="#808080" begin="arrowLeft.mouseover" end="arrowLeft.mouseout"/>
                  </use>
                  <path fill="none" stroke="white" stroke-width="1.5" d="M0,-3.0v7 M-2.5,-0.5L0,-3.0L2.5,-0.5"/>
                </g>
        </g>
        <svg viewBox="0 0 15 15" width="100%" height="30px" preserveAspectRatio="xMaxYMin meet">
         <g id="arrow_out" transform="scale(0.3 0.3)">
          <a xlink:href="main_8cpp_a0ddf1224851353fc92bfbff6f499fa97_cgraph_org.svg" target="_base">
           <rect id="button" ry="5" rx="5" y="6" x="6" height="38" width="38"
                fill="#f2f5e9" fill-opacity="0.5" stroke="#606060" stroke-width="1.0"/>
           <path id="arrow"
             d="M 11.500037,31.436501 C 11.940474,20.09759 22.043105,11.32322 32.158766,21.979434 L 37.068811,17.246167 C 37.068811,17.246167 37.088388,32 37.088388,32 L 22.160133,31.978069 C 22.160133,31.978069 26.997745,27.140456 26.997745,27.140456 C 18.528582,18.264221 13.291696,25.230495 11.500037,31.436501 z"
             style="fill:#404040;"/>
          </a>
         </g>
        </svg>
</svg>
