<?xml version="1.0" encoding="UTF-8" standalone="no"?>
<!DOCTYPE svg PUBLIC "-//W3C//DTD SVG 1.1//EN"
 "http://www.w3.org/Graphics/SVG/1.1/DTD/svg11.dtd">
<!-- Generated by graphviz version 2.43.0 (0)
 -->
<!-- Title: src/main.cpp Pages: 1 -->
<!--zoomable 308 -->
<svg id="main" version="1.1" xmlns="http://www.w3.org/2000/svg" xmlns:xlink="http://www.w3.org/1999/xlink" xml:space="preserve" onload="init(evt)">
<style type="text/css"><![CDATA[
.edge:hover path { stroke: red; }
.edge:hover polygon { stroke: red; fill: red; }
]]></style>
<script type="text/javascript"><![CDATA[
var edges = document.getElementsByTagName('g');
if (edges && edges.length) {
  for (var i=0;i<edges.length;i++) {
    if (edges[i].id.substr(0,4)=='edge') {
      edges[i].setAttribute('class','edge');
    }
  }
}
]]></script>
        <defs>
                <circle id="rim" cx="0" cy="0" r="7"/>
                <circle id="rim2" cx="0" cy="0" r="3.5"/>
                <g id="zoomPlus">
                        <use xlink:href="#rim" fill="#404040">
                                <set attributeName="fill" to="#808080" begin="zoomplus.mouseover" end="zoomplus.mouseout"/>
                        </use>
                        <path d="M-4,0h8M0,-4v8" fill="none" stroke="white" stroke-width="1.5" pointer-events="none"/>
                </g>
                <g id="zoomMin">
                        <use xlink:href="#rim" fill="#404040">
                                <set attributeName="fill" to="#808080" begin="zoomminus.mouseover" end="zoomminus.mouseout"/>
                        </use>
                        <path d="M-4,0h8" fill="none" stroke="white" stroke-width="1.5" pointer-events="none"/>
                </g>
                <g id="dirArrow">
                        <path fill="none" stroke="white" stroke-width="1.5" d="M0,-3.0v7 M-2.5,-0.5L0,-3.0L2.5,-0.5"/>
                </g>
               <g id="resetDef">
                       <use xlink:href="#rim2" fill="#404040">
                               <set attributeName="fill" to="#808080" begin="reset.mouseover" end="reset.mouseout"/>
                       </use>
               </g>
        </defs>

<script type="text/javascript">
var viewWidth = 2394;
var viewHeight = 308;
var sectionId = 'dynsection-0';
</script>
<script xlink:href="svgpan.js"/>
<svg id="graph" class="graph">
<g id="viewport">
<title>src/main.cpp</title>
<!-- Node1 -->
<g id="node1" class="node">
<title>Node1</title>
<g id="a_node1"><a xlink:title=" ">
<polygon fill="#bfbfbf" stroke="black" points="1772.5,-280.5 1772.5,-299.5 1851.5,-299.5 1851.5,-280.5 1772.5,-280.5"/>
<text text-anchor="middle" x="1812" y="-287.5" font-family="Helvetica,sans-Serif" font-size="10.00">src/main.cpp</text>
</a>
</g>
</g>
<!-- Node2 -->
<g id="node2" class="node">
<title>Node2</title>
<g id="a_node2"><a xlink:href="SystemManager_8hpp.html" target="_top" xlink:title=" ">
<polygon fill="none" stroke="black" points="1176,-224.5 1176,-243.5 1292,-243.5 1292,-224.5 1176,-224.5"/>
<text text-anchor="middle" x="1234" y="-231.5" font-family="Helvetica,sans-Serif" font-size="10.00">SystemManager.hpp</text>
</a>
</g>
</g>
<!-- Node1&#45;&gt;Node2 -->
<g id="edge1" class="edge">
<title>Node1&#45;&gt;Node2</title>
<path fill="none" stroke="midnightblue" d="M1772.27,-285.29C1675.03,-276.2 1424.11,-252.76 1302.33,-241.38"/>
<polygon fill="midnightblue" stroke="midnightblue" points="1302.65,-237.9 1292.37,-240.45 1302,-244.87 1302.65,-237.9"/>
</g>
<!-- Node8 -->
<g id="node8" class="node">
<title>Node8</title>
<g id="a_node8"><a xlink:title=" ">
<polygon fill="none" stroke="#bfbfbf" points="1567.5,-0.5 1567.5,-19.5 1704.5,-19.5 1704.5,-0.5 1567.5,-0.5"/>
<text text-anchor="middle" x="1636" y="-7.5" font-family="Helvetica,sans-Serif" font-size="10.00">rc_genicam_api/device.h</text>
</a>
</g>
</g>
<!-- Node1&#45;&gt;Node8 -->
<g id="edge67" class="edge">
<title>Node1&#45;&gt;Node8</title>
<path fill="none" stroke="midnightblue" d="M1851.59,-285.99C1948.92,-277.52 2192,-249.31 2192,-179 2192,-179 2192,-179 2192,-121 2192,-82.28 2168.59,-73.4 2134,-56 2062.7,-20.12 1836.87,-12.57 1715.31,-11.16"/>
<polygon fill="midnightblue" stroke="midnightblue" points="1714.99,-7.66 1704.95,-11.05 1714.91,-14.66 1714.99,-7.66"/>
</g>
<!-- Node15 -->
<g id="node15" class="node">
<title>Node15</title>
<g id="a_node15"><a xlink:title=" ">
<polygon fill="none" stroke="#bfbfbf" points="56.5,-0.5 56.5,-19.5 103.5,-19.5 103.5,-0.5 56.5,-0.5"/>
<text text-anchor="middle" x="80" y="-7.5" font-family="Helvetica,sans-Serif" font-size="10.00">vector</text>
</a>
</g>
</g>
<!-- Node1&#45;&gt;Node15 -->
<g id="edge71" class="edge">
<title>Node1&#45;&gt;Node15</title>
<path fill="none" stroke="midnightblue" d="M1772.34,-288.63C1538.67,-286.38 346.22,-273.48 186,-244 99.88,-228.16 0,-266.57 0,-179 0,-179 0,-179 0,-121 0,-80.62 35.69,-45.11 59.4,-25.97"/>
<polygon fill="midnightblue" stroke="midnightblue" points="61.74,-28.58 67.5,-19.69 57.45,-23.05 61.74,-28.58"/>
</g>
<!-- Node16 -->
<g id="node16" class="node">
<title>Node16</title>
<g id="a_node16"><a xlink:title=" ">
<polygon fill="none" stroke="#bfbfbf" points="131,-0.5 131,-19.5 181,-19.5 181,-0.5 131,-0.5"/>
<text text-anchor="middle" x="156" y="-7.5" font-family="Helvetica,sans-Serif" font-size="10.00">chrono</text>
</a>
</g>
</g>
<!-- Node1&#45;&gt;Node16 -->
<g id="edge74" class="edge">
<title>Node1&#45;&gt;Node16</title>
<path fill="none" stroke="midnightblue" d="M1772.46,-288.68C1510.71,-286.31 38,-268.97 38,-179 38,-179 38,-179 38,-121 38,-73.51 89.77,-40.67 124.72,-23.91"/>
<polygon fill="midnightblue" stroke="midnightblue" points="126.46,-26.97 134.08,-19.61 123.53,-20.61 126.46,-26.97"/>
</g>
<!-- Node18 -->
<g id="node18" class="node">
<title>Node18</title>
<g id="a_node18"><a xlink:title=" ">
<polygon fill="none" stroke="#bfbfbf" points="1371.5,-56.5 1371.5,-75.5 1520.5,-75.5 1520.5,-56.5 1371.5,-56.5"/>
<text text-anchor="middle" x="1446" y="-63.5" font-family="Helvetica,sans-Serif" font-size="10.00">rc_genicam_api/interface.h</text>
</a>
</g>
</g>
<!-- Node1&#45;&gt;Node18 -->
<g id="edge66" class="edge">
<title>Node1&#45;&gt;Node18</title>
<path fill="none" stroke="midnightblue" d="M1801.65,-280.23C1768.59,-252.54 1661.78,-165.62 1562,-112 1536.69,-98.4 1506.37,-86.79 1483.08,-78.76"/>
<polygon fill="midnightblue" stroke="midnightblue" points="1484.15,-75.43 1473.56,-75.55 1481.91,-82.07 1484.15,-75.43"/>
</g>
<!-- Node19 -->
<g id="node19" class="node">
<title>Node19</title>
<g id="a_node19"><a xlink:title=" ">
<polygon fill="none" stroke="#bfbfbf" points="1664,-56.5 1664,-75.5 1836,-75.5 1836,-56.5 1664,-56.5"/>
<text text-anchor="middle" x="1750" y="-63.5" font-family="Helvetica,sans-Serif" font-size="10.00">rc_genicam_api/nodemap_out.h</text>
</a>
</g>
</g>
<!-- Node1&#45;&gt;Node19 -->
<g id="edge68" class="edge">
<title>Node1&#45;&gt;Node19</title>
<path fill="none" stroke="midnightblue" d="M1809.57,-280.3C1800.43,-247.56 1767.98,-131.38 1755.21,-85.67"/>
<polygon fill="midnightblue" stroke="midnightblue" points="1758.54,-84.57 1752.48,-75.88 1751.8,-86.46 1758.54,-84.57"/>
</g>
<!-- Node20 -->
<g id="node20" class="node">
<title>Node20</title>
<g id="a_node20"><a xlink:title=" ">
<polygon fill="none" stroke="#bfbfbf" points="1854,-56.5 1854,-75.5 1914,-75.5 1914,-56.5 1854,-56.5"/>
<text text-anchor="middle" x="1884" y="-63.5" font-family="Helvetica,sans-Serif" font-size="10.00">iostream</text>
</a>
</g>
</g>
<!-- Node1&#45;&gt;Node20 -->
<g id="edge69" class="edge">
<title>Node1&#45;&gt;Node20</title>
<path fill="none" stroke="midnightblue" d="M1814.82,-280.3C1825.44,-247.56 1863.12,-131.38 1877.95,-85.67"/>
<polygon fill="midnightblue" stroke="midnightblue" points="1881.36,-86.48 1881.12,-75.88 1874.7,-84.32 1881.36,-86.48"/>
</g>
<!-- Node21 -->
<g id="node21" class="node">
<title>Node21</title>
<g id="a_node21"><a xlink:title=" ">
<polygon fill="none" stroke="#bfbfbf" points="1932,-56.5 1932,-75.5 1988,-75.5 1988,-56.5 1932,-56.5"/>
<text text-anchor="middle" x="1960" y="-63.5" font-family="Helvetica,sans-Serif" font-size="10.00">sstream</text>
</a>
</g>
</g>
<!-- Node1&#45;&gt;Node21 -->
<g id="edge70" class="edge">
<title>Node1&#45;&gt;Node21</title>
<path fill="none" stroke="midnightblue" d="M1818.47,-280.48C1825.23,-271.5 1836.08,-256.91 1845,-244 1884.82,-186.34 1929.32,-116.07 1949.29,-84.19"/>
<polygon fill="midnightblue" stroke="midnightblue" points="1952.33,-85.92 1954.66,-75.59 1946.39,-82.21 1952.33,-85.92"/>
</g>
<!-- Node25 -->
<g id="node25" class="node">
<title>Node25</title>
<g id="a_node25"><a xlink:title=" ">
<polygon fill="none" stroke="#bfbfbf" points="2006,-56.5 2006,-75.5 2050,-75.5 2050,-56.5 2006,-56.5"/>
<text text-anchor="middle" x="2028" y="-63.5" font-family="Helvetica,sans-Serif" font-size="10.00">regex</text>
</a>
</g>
</g>
<!-- Node1&#45;&gt;Node25 -->
<g id="edge73" class="edge">
<title>Node1&#45;&gt;Node25</title>
<path fill="none" stroke="midnightblue" d="M1823.13,-280.45C1834.31,-271.69 1851.88,-257.48 1866,-244 1924.11,-188.52 1986.61,-116.17 2013.91,-83.86"/>
<polygon fill="midnightblue" stroke="midnightblue" points="2016.88,-85.76 2020.64,-75.86 2011.52,-81.26 2016.88,-85.76"/>
</g>
<!-- Node34 -->
<g id="node34" class="node">
<title>Node34</title>
<g id="a_node34"><a xlink:title=" ">
<polygon fill="none" stroke="#bfbfbf" points="1521,-112.5 1521,-131.5 1553,-131.5 1553,-112.5 1521,-112.5"/>
<text text-anchor="middle" x="1537" y="-119.5" font-family="Helvetica,sans-Serif" font-size="10.00">list</text>
</a>
</g>
</g>
<!-- Node1&#45;&gt;Node34 -->
<g id="edge72" class="edge">
<title>Node1&#45;&gt;Node34</title>
<path fill="none" stroke="midnightblue" d="M1772.19,-281.7C1741.9,-274.97 1699.95,-263.1 1667,-244 1617.87,-215.53 1572.14,-165.39 1550.35,-139.5"/>
<polygon fill="midnightblue" stroke="midnightblue" points="1552.98,-137.19 1543.91,-131.72 1547.59,-141.66 1552.98,-137.19"/>
</g>
<!-- Node35 -->
<g id="node35" class="node">
<title>Node35</title>
<g id="a_node35"><a xlink:title=" ">
<polygon fill="none" stroke="#bfbfbf" points="2220.5,-224.5 2220.5,-243.5 2299.5,-243.5 2299.5,-224.5 2220.5,-224.5"/>
<text text-anchor="middle" x="2260" y="-231.5" font-family="Helvetica,sans-Serif" font-size="10.00">QApplication</text>
</a>
</g>
</g>
<!-- Node1&#45;&gt;Node35 -->
<g id="edge75" class="edge">
<title>Node1&#45;&gt;Node35</title>
<path fill="none" stroke="midnightblue" d="M1851.51,-285.17C1922.58,-278.12 2076.63,-262.16 2206,-244 2207.3,-243.82 2208.61,-243.63 2209.94,-243.44"/>
<polygon fill="midnightblue" stroke="midnightblue" points="2210.87,-246.83 2220.22,-241.87 2209.81,-239.91 2210.87,-246.83"/>
</g>
<!-- Node36 -->
<g id="node36" class="node">
<title>Node36</title>
<g id="a_node36"><a xlink:title=" ">
<polygon fill="none" stroke="#bfbfbf" points="2318,-224.5 2318,-243.5 2386,-243.5 2386,-224.5 2318,-224.5"/>
<text text-anchor="middle" x="2352" y="-231.5" font-family="Helvetica,sans-Serif" font-size="10.00">filesystem</text>
</a>
</g>
</g>
<!-- Node1&#45;&gt;Node36 -->
<g id="edge76" class="edge">
<title>Node1&#45;&gt;Node36</title>
<path fill="none" stroke="midnightblue" d="M1851.72,-286.9C1936.09,-282.11 2139.27,-268.83 2308,-244 2308.1,-243.99 2308.2,-243.97 2308.3,-243.96"/>
<polygon fill="midnightblue" stroke="midnightblue" points="2308.66,-247.44 2317.96,-242.35 2307.52,-240.54 2308.66,-247.44"/>
</g>
<!-- Node2&#45;&gt;Node2 -->
<g id="edge2" class="edge">
<title>Node2&#45;&gt;Node2</title>
<path fill="none" stroke="midnightblue" d="M1266.41,-243.53C1288.44,-246.31 1310,-243.13 1310,-234 1310,-226.29 1294.65,-222.83 1276.62,-223.61"/>
<polygon fill="midnightblue" stroke="midnightblue" points="1276.08,-220.14 1266.41,-224.47 1276.67,-227.11 1276.08,-220.14"/>
</g>
<!-- Node3 -->
<g id="node3" class="node">
<title>Node3</title>
<g id="a_node3"><a xlink:href="DeviceManager_8hpp.html" target="_top" xlink:title=" ">
<polygon fill="none" stroke="black" points="1389.5,-112.5 1389.5,-131.5 1502.5,-131.5 1502.5,-112.5 1389.5,-112.5"/>
<text text-anchor="middle" x="1446" y="-119.5" font-family="Helvetica,sans-Serif" font-size="10.00">DeviceManager.hpp</text>
</a>
</g>
</g>
<!-- Node2&#45;&gt;Node3 -->
<g id="edge3" class="edge">
<title>Node2&#45;&gt;Node3</title>
<path fill="none" stroke="midnightblue" d="M1250.64,-224.37C1287.56,-205.21 1376.55,-159.04 1420.53,-136.22"/>
<polygon fill="midnightblue" stroke="midnightblue" points="1422.18,-139.3 1429.44,-131.59 1418.95,-133.09 1422.18,-139.3"/>
</g>
<!-- Node4 -->
<g id="node4" class="node">
<title>Node4</title>
<g id="a_node4"><a xlink:href="Camera_8hpp.html" target="_top" xlink:title=" ">
<polygon fill="none" stroke="black" points="582,-56.5 582,-75.5 658,-75.5 658,-56.5 582,-56.5"/>
<text text-anchor="middle" x="620" y="-63.5" font-family="Helvetica,sans-Serif" font-size="10.00">Camera.hpp</text>
</a>
</g>
</g>
<!-- Node2&#45;&gt;Node4 -->
<g id="edge58" class="edge">
<title>Node2&#45;&gt;Node4</title>
<path fill="none" stroke="midnightblue" d="M1202.28,-224.42C1099.66,-196.68 776.66,-109.36 661.39,-78.19"/>
<polygon fill="midnightblue" stroke="midnightblue" points="662.1,-74.76 651.53,-75.52 660.27,-81.51 662.1,-74.76"/>
</g>
<!-- Node2&#45;&gt;Node8 -->
<g id="edge59" class="edge">
<title>Node2&#45;&gt;Node8</title>
<path fill="none" stroke="midnightblue" d="M1292.17,-231.17C1438.01,-226.29 1816.36,-211.68 1940,-188 2018.96,-172.88 2064.19,-196.63 2112,-132 2132.09,-104.84 2135.74,-80.98 2113,-56 2086.77,-27.18 1843.27,-16.44 1714.7,-12.75"/>
<polygon fill="midnightblue" stroke="midnightblue" points="1714.61,-9.25 1704.51,-12.47 1714.41,-16.25 1714.61,-9.25"/>
</g>
<!-- Node10 -->
<g id="node10" class="node">
<title>Node10</title>
<g id="a_node10"><a xlink:title=" ">
<polygon fill="none" stroke="#bfbfbf" points="199,-0.5 199,-19.5 249,-19.5 249,-0.5 199,-0.5"/>
<text text-anchor="middle" x="224" y="-7.5" font-family="Helvetica,sans-Serif" font-size="10.00">atomic</text>
</a>
</g>
</g>
<!-- Node2&#45;&gt;Node10 -->
<g id="edge64" class="edge">
<title>Node2&#45;&gt;Node10</title>
<path fill="none" stroke="midnightblue" d="M1175.68,-232.93C989.71,-232.31 418.64,-227.19 346,-188 281.43,-153.16 244.08,-67.45 230.23,-29.54"/>
<polygon fill="midnightblue" stroke="midnightblue" points="233.43,-28.08 226.81,-19.81 226.82,-30.4 233.43,-28.08"/>
</g>
<!-- Node12 -->
<g id="node12" class="node">
<title>Node12</title>
<g id="a_node12"><a xlink:title=" ">
<polygon fill="none" stroke="#bfbfbf" points="994,-0.5 994,-19.5 1052,-19.5 1052,-0.5 994,-0.5"/>
<text text-anchor="middle" x="1023" y="-7.5" font-family="Helvetica,sans-Serif" font-size="10.00">memory</text>
</a>
</g>
</g>
<!-- Node2&#45;&gt;Node12 -->
<g id="edge61" class="edge">
<title>Node2&#45;&gt;Node12</title>
<path fill="none" stroke="midnightblue" d="M1292.22,-229.95C1497.52,-218.2 2169.53,-170.59 2059,-56 2021.87,-17.51 1180.21,-26.68 1062.46,-19.44"/>
<polygon fill="midnightblue" stroke="midnightblue" points="1062.62,-15.94 1052.35,-18.55 1062.01,-22.91 1062.62,-15.94"/>
</g>
<!-- Node14 -->
<g id="node14" class="node">
<title>Node14</title>
<g id="a_node14"><a xlink:title=" ">
<polygon fill="none" stroke="#bfbfbf" points="1070,-0.5 1070,-19.5 1114,-19.5 1114,-0.5 1070,-0.5"/>
<text text-anchor="middle" x="1092" y="-7.5" font-family="Helvetica,sans-Serif" font-size="10.00">string</text>
</a>
</g>
</g>
<!-- Node2&#45;&gt;Node14 -->
<g id="edge63" class="edge">
<title>Node2&#45;&gt;Node14</title>
<path fill="none" stroke="midnightblue" d="M1292.23,-231.52C1432.67,-227.54 1786.87,-215.08 1902,-188 1924.5,-182.71 1928.07,-175.3 1950,-168 2011.77,-147.42 2052.02,-183.38 2092,-132 2112.74,-105.34 2115.34,-80.42 2092,-56 2074.88,-38.09 1294.31,-16.37 1124.42,-11.85"/>
<polygon fill="midnightblue" stroke="midnightblue" points="1124.43,-8.35 1114.34,-11.58 1124.25,-15.35 1124.43,-8.35"/>
</g>
<!-- Node2&#45;&gt;Node15 -->
<g id="edge60" class="edge">
<title>Node2&#45;&gt;Node15</title>
<path fill="none" stroke="midnightblue" d="M1175.77,-232.44C981.34,-230.25 362.15,-220.76 279,-188 192.94,-154.09 119.86,-65.09 92.03,-27.81"/>
<polygon fill="midnightblue" stroke="midnightblue" points="94.68,-25.51 85.95,-19.51 89.04,-29.65 94.68,-25.51"/>
</g>
<!-- Node2&#45;&gt;Node16 -->
<g id="edge65" class="edge">
<title>Node2&#45;&gt;Node16</title>
<path fill="none" stroke="midnightblue" d="M1175.9,-232.67C986.36,-231.25 393.7,-223.95 316,-188 241.46,-153.51 186.4,-66.27 165.36,-28.68"/>
<polygon fill="midnightblue" stroke="midnightblue" points="168.42,-26.96 160.55,-19.86 162.27,-30.32 168.42,-26.96"/>
</g>
<!-- Node26 -->
<g id="node26" class="node">
<title>Node26</title>
<g id="a_node26"><a xlink:href="NetworkManager_8hpp.html" target="_top" xlink:title=" ">
<polygon fill="none" stroke="black" points="897.5,-112.5 897.5,-131.5 1018.5,-131.5 1018.5,-112.5 897.5,-112.5"/>
<text text-anchor="middle" x="958" y="-119.5" font-family="Helvetica,sans-Serif" font-size="10.00">NetworkManager.hpp</text>
</a>
</g>
</g>
<!-- Node2&#45;&gt;Node26 -->
<g id="edge27" class="edge">
<title>Node2&#45;&gt;Node26</title>
<path fill="none" stroke="midnightblue" d="M1212.34,-224.37C1163.67,-204.97 1045.49,-157.87 989.03,-135.37"/>
<polygon fill="midnightblue" stroke="midnightblue" points="990.14,-132.04 979.56,-131.59 987.55,-138.55 990.14,-132.04"/>
</g>
<!-- Node32 -->
<g id="node32" class="node">
<title>Node32</title>
<g id="a_node32"><a xlink:href="StreamManager_8hpp.html" target="_top" xlink:title=" ">
<polygon fill="none" stroke="black" points="355.5,-168.5 355.5,-187.5 470.5,-187.5 470.5,-168.5 355.5,-168.5"/>
<text text-anchor="middle" x="413" y="-175.5" font-family="Helvetica,sans-Serif" font-size="10.00">StreamManager.hpp</text>
</a>
</g>
</g>
<!-- Node2&#45;&gt;Node32 -->
<g id="edge46" class="edge">
<title>Node2&#45;&gt;Node32</title>
<path fill="none" stroke="midnightblue" d="M1175.94,-229.18C1028.17,-219.46 638.35,-193.82 480.65,-183.45"/>
<polygon fill="midnightblue" stroke="midnightblue" points="480.81,-179.95 470.6,-182.79 480.35,-186.94 480.81,-179.95"/>
</g>
<!-- Node2&#45;&gt;Node34 -->
<g id="edge62" class="edge">
<title>Node2&#45;&gt;Node34</title>
<path fill="none" stroke="midnightblue" d="M1257.78,-224.37C1313.71,-204.06 1453.26,-153.4 1511.18,-132.38"/>
<polygon fill="midnightblue" stroke="midnightblue" points="1512.48,-135.62 1520.69,-128.92 1510.1,-129.04 1512.48,-135.62"/>
</g>
<!-- Node3&#45;&gt;Node4 -->
<g id="edge4" class="edge">
<title>Node3&#45;&gt;Node4</title>
<path fill="none" stroke="midnightblue" d="M1389.23,-118.42C1265.04,-112.59 959.95,-97.23 705,-76 693.1,-75.01 680.29,-73.75 668.31,-72.5"/>
<polygon fill="midnightblue" stroke="midnightblue" points="668.36,-68.98 658.05,-71.4 667.62,-75.94 668.36,-68.98"/>
</g>
<!-- Node3&#45;&gt;Node8 -->
<g id="edge19" class="edge">
<title>Node3&#45;&gt;Node8</title>
<path fill="none" stroke="midnightblue" d="M1500.38,-112.48C1543.59,-104.67 1599.44,-91.92 1616,-76 1628.49,-63.99 1633.24,-44.39 1635.01,-29.85"/>
<polygon fill="midnightblue" stroke="midnightblue" points="1638.53,-29.77 1635.88,-19.51 1631.55,-29.18 1638.53,-29.77"/>
</g>
<!-- Node17 -->
<g id="node17" class="node">
<title>Node17</title>
<g id="a_node17"><a xlink:title=" ">
<polygon fill="none" stroke="#bfbfbf" points="1212.5,-56.5 1212.5,-75.5 1353.5,-75.5 1353.5,-56.5 1212.5,-56.5"/>
<text text-anchor="middle" x="1283" y="-63.5" font-family="Helvetica,sans-Serif" font-size="10.00">rc_genicam_api/system.h</text>
</a>
</g>
</g>
<!-- Node3&#45;&gt;Node17 -->
<g id="edge17" class="edge">
<title>Node3&#45;&gt;Node17</title>
<path fill="none" stroke="midnightblue" d="M1420.17,-112.44C1392.75,-103.36 1349.22,-88.94 1318.57,-78.78"/>
<polygon fill="midnightblue" stroke="midnightblue" points="1319.3,-75.34 1308.71,-75.52 1317.1,-81.98 1319.3,-75.34"/>
</g>
<!-- Node3&#45;&gt;Node18 -->
<g id="edge18" class="edge">
<title>Node3&#45;&gt;Node18</title>
<path fill="none" stroke="midnightblue" d="M1446,-112.08C1446,-105.01 1446,-94.86 1446,-85.99"/>
<polygon fill="midnightblue" stroke="midnightblue" points="1449.5,-85.75 1446,-75.75 1442.5,-85.75 1449.5,-85.75"/>
</g>
<!-- Node3&#45;&gt;Node19 -->
<g id="edge20" class="edge">
<title>Node3&#45;&gt;Node19</title>
<path fill="none" stroke="midnightblue" d="M1494.17,-112.44C1547.87,-102.9 1634.69,-87.48 1692.05,-77.29"/>
<polygon fill="midnightblue" stroke="midnightblue" points="1692.82,-80.71 1702.06,-75.52 1691.6,-73.82 1692.82,-80.71"/>
</g>
<!-- Node3&#45;&gt;Node20 -->
<g id="edge21" class="edge">
<title>Node3&#45;&gt;Node20</title>
<path fill="none" stroke="midnightblue" d="M1502.51,-113.19C1505.72,-112.78 1508.9,-112.38 1512,-112 1656.59,-94.33 1696.51,-100.5 1843.97,-75.99"/>
<polygon fill="midnightblue" stroke="midnightblue" points="1844.56,-79.44 1853.84,-74.33 1843.4,-72.54 1844.56,-79.44"/>
</g>
<!-- Node3&#45;&gt;Node21 -->
<g id="edge22" class="edge">
<title>Node3&#45;&gt;Node21</title>
<path fill="none" stroke="midnightblue" d="M1502.5,-113.11C1505.71,-112.72 1508.9,-112.35 1512,-112 1691.03,-91.96 1740.34,-105.27 1921.93,-75.94"/>
<polygon fill="midnightblue" stroke="midnightblue" points="1922.5,-79.39 1931.81,-74.32 1921.37,-72.48 1922.5,-79.39"/>
</g>
<!-- Node22 -->
<g id="node22" class="node">
<title>Node22</title>
<g id="a_node22"><a xlink:title=" ">
<polygon fill="none" stroke="#bfbfbf" points="1162,-56.5 1162,-75.5 1194,-75.5 1194,-56.5 1162,-56.5"/>
<text text-anchor="middle" x="1178" y="-63.5" font-family="Helvetica,sans-Serif" font-size="10.00">set</text>
</a>
</g>
</g>
<!-- Node3&#45;&gt;Node22 -->
<g id="edge23" class="edge">
<title>Node3&#45;&gt;Node22</title>
<path fill="none" stroke="midnightblue" d="M1389.44,-113.19C1342.04,-106.04 1272.54,-94.17 1203.72,-75.83"/>
<polygon fill="midnightblue" stroke="midnightblue" points="1204.58,-72.44 1194.02,-73.2 1202.75,-79.19 1204.58,-72.44"/>
</g>
<!-- Node23 -->
<g id="node23" class="node">
<title>Node23</title>
<g id="a_node23"><a xlink:title=" ">
<polygon fill="none" stroke="#bfbfbf" points="1538.5,-56.5 1538.5,-75.5 1607.5,-75.5 1607.5,-56.5 1538.5,-56.5"/>
<text text-anchor="middle" x="1573" y="-63.5" font-family="Helvetica,sans-Serif" font-size="10.00">arpa/inet.h</text>
</a>
</g>
</g>
<!-- Node3&#45;&gt;Node23 -->
<g id="edge24" class="edge">
<title>Node3&#45;&gt;Node23</title>
<path fill="none" stroke="midnightblue" d="M1466.12,-112.44C1487.02,-103.56 1519.93,-89.56 1543.72,-79.45"/>
<polygon fill="midnightblue" stroke="midnightblue" points="1545.14,-82.65 1552.97,-75.52 1542.4,-76.21 1545.14,-82.65"/>
</g>
<!-- Node24 -->
<g id="node24" class="node">
<title>Node24</title>
<g id="a_node24"><a xlink:title=" ">
<polygon fill="none" stroke="#bfbfbf" points="1088,-56.5 1088,-75.5 1144,-75.5 1144,-56.5 1088,-56.5"/>
<text text-anchor="middle" x="1116" y="-63.5" font-family="Helvetica,sans-Serif" font-size="10.00">iomanip</text>
</a>
</g>
</g>
<!-- Node3&#45;&gt;Node24 -->
<g id="edge25" class="edge">
<title>Node3&#45;&gt;Node24</title>
<path fill="none" stroke="midnightblue" d="M1389.3,-113.77C1332.24,-106.16 1241.51,-93.15 1154.05,-76.07"/>
<polygon fill="midnightblue" stroke="midnightblue" points="1154.71,-72.63 1144.23,-74.13 1153.36,-79.5 1154.71,-72.63"/>
</g>
<!-- Node3&#45;&gt;Node25 -->
<g id="edge26" class="edge">
<title>Node3&#45;&gt;Node25</title>
<path fill="none" stroke="midnightblue" d="M1502.85,-113.02C1505.95,-112.66 1509.01,-112.31 1512,-112 1723.71,-89.73 1782.51,-113.6 1995.83,-75.84"/>
<polygon fill="midnightblue" stroke="midnightblue" points="1996.56,-79.26 2005.78,-74.05 1995.32,-72.37 1996.56,-79.26"/>
</g>
<!-- Node5 -->
<g id="node5" class="node">
<title>Node5</title>
<g id="a_node5"><a xlink:title=" ">
<polygon fill="none" stroke="#bfbfbf" points="876.5,-0.5 876.5,-19.5 975.5,-19.5 975.5,-0.5 876.5,-0.5"/>
<text text-anchor="middle" x="926" y="-7.5" font-family="Helvetica,sans-Serif" font-size="10.00">GenApi/GenApi.h</text>
</a>
</g>
</g>
<!-- Node4&#45;&gt;Node5 -->
<g id="edge5" class="edge">
<title>Node4&#45;&gt;Node5</title>
<path fill="none" stroke="midnightblue" d="M658.14,-58.27C710.8,-48.98 806.24,-32.13 867.84,-21.26"/>
<polygon fill="midnightblue" stroke="midnightblue" points="868.55,-24.69 877.79,-19.51 867.34,-17.8 868.55,-24.69"/>
</g>
<!-- Node6 -->
<g id="node6" class="node">
<title>Node6</title>
<g id="a_node6"><a xlink:title=" ">
<polygon fill="none" stroke="#bfbfbf" points="267,-0.5 267,-19.5 383,-19.5 383,-0.5 267,-0.5"/>
<text text-anchor="middle" x="325" y="-7.5" font-family="Helvetica,sans-Serif" font-size="10.00">opencv2/opencv.hpp</text>
</a>
</g>
</g>
<!-- Node4&#45;&gt;Node6 -->
<g id="edge6" class="edge">
<title>Node4&#45;&gt;Node6</title>
<path fill="none" stroke="midnightblue" d="M581.74,-58C530.75,-48.66 440.13,-32.07 381.33,-21.31"/>
<polygon fill="midnightblue" stroke="midnightblue" points="381.92,-17.86 371.45,-19.5 380.66,-24.75 381.92,-17.86"/>
</g>
<!-- Node7 -->
<g id="node7" class="node">
<title>Node7</title>
<g id="a_node7"><a xlink:title=" ">
<polygon fill="none" stroke="#bfbfbf" points="725.5,-0.5 725.5,-19.5 858.5,-19.5 858.5,-0.5 725.5,-0.5"/>
<text text-anchor="middle" x="792" y="-7.5" font-family="Helvetica,sans-Serif" font-size="10.00">rc_genicam_api/buffer.h</text>
</a>
</g>
</g>
<!-- Node4&#45;&gt;Node7 -->
<g id="edge7" class="edge">
<title>Node4&#45;&gt;Node7</title>
<path fill="none" stroke="midnightblue" d="M647.25,-56.44C676.44,-47.28 722.92,-32.69 755.31,-22.52"/>
<polygon fill="midnightblue" stroke="midnightblue" points="756.38,-25.85 764.87,-19.52 754.28,-19.17 756.38,-25.85"/>
</g>
<!-- Node4&#45;&gt;Node8 -->
<g id="edge8" class="edge">
<title>Node4&#45;&gt;Node8</title>
<path fill="none" stroke="midnightblue" d="M658.04,-60.5C672.7,-58.89 689.61,-57.19 705,-56 1020.16,-31.72 1396.41,-18.29 1557.03,-13.29"/>
<polygon fill="midnightblue" stroke="midnightblue" points="1557.41,-16.78 1567.3,-12.98 1557.19,-9.79 1557.41,-16.78"/>
</g>
<!-- Node9 -->
<g id="node9" class="node">
<title>Node9</title>
<g id="a_node9"><a xlink:title=" ">
<polygon fill="none" stroke="#bfbfbf" points="467,-0.5 467,-19.5 639,-19.5 639,-0.5 467,-0.5"/>
<text text-anchor="middle" x="553" y="-7.5" font-family="Helvetica,sans-Serif" font-size="10.00">rc_genicam_api/pixel_formats.h</text>
</a>
</g>
</g>
<!-- Node4&#45;&gt;Node9 -->
<g id="edge9" class="edge">
<title>Node4&#45;&gt;Node9</title>
<path fill="none" stroke="midnightblue" d="M609.24,-56.32C599.23,-48.26 584.11,-36.08 572.07,-26.37"/>
<polygon fill="midnightblue" stroke="midnightblue" points="573.94,-23.38 563.96,-19.83 569.55,-28.83 573.94,-23.38"/>
</g>
<!-- Node4&#45;&gt;Node10 -->
<g id="edge10" class="edge">
<title>Node4&#45;&gt;Node10</title>
<path fill="none" stroke="midnightblue" d="M581.98,-58.17C577.28,-57.4 572.53,-56.66 568,-56 433.94,-36.63 396.04,-45.38 259.19,-19.98"/>
<polygon fill="midnightblue" stroke="midnightblue" points="259.63,-16.5 249.16,-18.09 258.34,-23.38 259.63,-16.5"/>
</g>
<!-- Node11 -->
<g id="node11" class="node">
<title>Node11</title>
<g id="a_node11"><a xlink:title=" ">
<polygon fill="none" stroke="#bfbfbf" points="657,-0.5 657,-19.5 707,-19.5 707,-0.5 657,-0.5"/>
<text text-anchor="middle" x="682" y="-7.5" font-family="Helvetica,sans-Serif" font-size="10.00">cstdint</text>
</a>
</g>
</g>
<!-- Node4&#45;&gt;Node11 -->
<g id="edge11" class="edge">
<title>Node4&#45;&gt;Node11</title>
<path fill="none" stroke="midnightblue" d="M629.96,-56.32C639.13,-48.34 652.94,-36.31 664.03,-26.65"/>
<polygon fill="midnightblue" stroke="midnightblue" points="666.62,-29.04 671.86,-19.83 662.02,-23.76 666.62,-29.04"/>
</g>
<!-- Node4&#45;&gt;Node12 -->
<g id="edge12" class="edge">
<title>Node4&#45;&gt;Node12</title>
<path fill="none" stroke="midnightblue" d="M658.03,-60.81C734.53,-52.29 905.62,-32.82 983.35,-19.89"/>
<polygon fill="midnightblue" stroke="midnightblue" points="984.42,-23.26 993.68,-18.11 983.23,-16.36 984.42,-23.26"/>
</g>
<!-- Node13 -->
<g id="node13" class="node">
<title>Node13</title>
<g id="a_node13"><a xlink:title=" ">
<polygon fill="none" stroke="#bfbfbf" points="401,-0.5 401,-19.5 449,-19.5 449,-0.5 401,-0.5"/>
<text text-anchor="middle" x="425" y="-7.5" font-family="Helvetica,sans-Serif" font-size="10.00">mutex</text>
</a>
</g>
</g>
<!-- Node4&#45;&gt;Node13 -->
<g id="edge13" class="edge">
<title>Node4&#45;&gt;Node13</title>
<path fill="none" stroke="midnightblue" d="M589.1,-56.44C553.66,-46.63 495.74,-30.59 459.04,-20.43"/>
<polygon fill="midnightblue" stroke="midnightblue" points="459.86,-17.02 449.28,-17.73 457.99,-23.77 459.86,-17.02"/>
</g>
<!-- Node4&#45;&gt;Node14 -->
<g id="edge14" class="edge">
<title>Node4&#45;&gt;Node14</title>
<path fill="none" stroke="midnightblue" d="M658.08,-60.93C672.74,-59.37 689.65,-57.59 705,-56 859.94,-39.96 903.12,-49.87 1059.78,-19.91"/>
<polygon fill="midnightblue" stroke="midnightblue" points="1060.62,-23.32 1069.77,-17.98 1059.28,-16.44 1060.62,-23.32"/>
</g>
<!-- Node4&#45;&gt;Node15 -->
<g id="edge15" class="edge">
<title>Node4&#45;&gt;Node15</title>
<path fill="none" stroke="midnightblue" d="M581.65,-62.14C480.96,-54.53 210.72,-33.46 122,-20 119.33,-19.59 116.57,-19.12 113.8,-18.61"/>
<polygon fill="midnightblue" stroke="midnightblue" points="114.39,-15.16 103.9,-16.64 113.02,-22.03 114.39,-15.16"/>
</g>
<!-- Node4&#45;&gt;Node16 -->
<g id="edge16" class="edge">
<title>Node4&#45;&gt;Node16</title>
<path fill="none" stroke="midnightblue" d="M581.98,-61.18C487.95,-51.72 248.5,-27.5 191.24,-19.67"/>
<polygon fill="midnightblue" stroke="midnightblue" points="191.57,-16.18 181.15,-18.12 190.51,-23.1 191.57,-16.18"/>
</g>
<!-- Node26&#45;&gt;Node4 -->
<g id="edge28" class="edge">
<title>Node26&#45;&gt;Node4</title>
<path fill="none" stroke="midnightblue" d="M902.33,-112.5C844.66,-103.63 751.97,-89.21 672,-76 670.73,-75.79 669.44,-75.58 668.14,-75.36"/>
<polygon fill="midnightblue" stroke="midnightblue" points="668.49,-71.87 658.04,-73.65 667.32,-78.77 668.49,-71.87"/>
</g>
<!-- Node26&#45;&gt;Node5 -->
<g id="edge33" class="edge">
<title>Node26&#45;&gt;Node5</title>
<path fill="none" stroke="midnightblue" d="M897.4,-118.89C830.5,-115.13 729.07,-104.73 705,-76 699.29,-69.19 699.38,-62.88 705,-56 710.17,-49.67 802.71,-32.44 866.39,-21.23"/>
<polygon fill="midnightblue" stroke="midnightblue" points="867.09,-24.66 876.34,-19.48 865.89,-17.76 867.09,-24.66"/>
</g>
<!-- Node26&#45;&gt;Node8 -->
<g id="edge31" class="edge">
<title>Node26&#45;&gt;Node8</title>
<path fill="none" stroke="midnightblue" d="M973.42,-112.5C1004.75,-95.26 1073.37,-57.66 1079,-56 1166.4,-30.22 1425.47,-18.05 1557.19,-13.39"/>
<polygon fill="midnightblue" stroke="midnightblue" points="1557.35,-16.89 1567.22,-13.04 1557.11,-9.89 1557.35,-16.89"/>
</g>
<!-- Node26&#45;&gt;Node10 -->
<g id="edge42" class="edge">
<title>Node26&#45;&gt;Node10</title>
<path fill="none" stroke="midnightblue" d="M897.49,-119.85C820.67,-117.06 684.7,-107.62 573,-76 552.72,-70.26 550.24,-61.9 530,-56 416.01,-22.79 379.55,-42.54 259.14,-19.97"/>
<polygon fill="midnightblue" stroke="midnightblue" points="259.65,-16.51 249.17,-18.04 258.32,-23.38 259.65,-16.51"/>
</g>
<!-- Node26&#45;&gt;Node12 -->
<g id="edge35" class="edge">
<title>Node26&#45;&gt;Node12</title>
<path fill="none" stroke="midnightblue" d="M963.1,-112.37C973.78,-94.3 998.67,-52.18 1012.77,-28.31"/>
<polygon fill="midnightblue" stroke="midnightblue" points="1015.85,-29.98 1017.92,-19.59 1009.82,-26.42 1015.85,-29.98"/>
</g>
<!-- Node26&#45;&gt;Node14 -->
<g id="edge36" class="edge">
<title>Node26&#45;&gt;Node14</title>
<path fill="none" stroke="midnightblue" d="M968.51,-112.37C991.22,-93.73 1045.06,-49.53 1073.56,-26.13"/>
<polygon fill="midnightblue" stroke="midnightblue" points="1076.03,-28.64 1081.53,-19.59 1071.58,-23.23 1076.03,-28.64"/>
</g>
<!-- Node26&#45;&gt;Node16 -->
<g id="edge38" class="edge">
<title>Node26&#45;&gt;Node16</title>
<path fill="none" stroke="midnightblue" d="M897.16,-117.79C795.73,-111.91 596.62,-97.95 530,-76 513.35,-70.51 512.62,-61.59 496,-56 369.25,-13.37 326.53,-44.07 191.08,-19.92"/>
<polygon fill="midnightblue" stroke="midnightblue" points="191.63,-16.46 181.16,-18.08 190.36,-23.35 191.63,-16.46"/>
</g>
<!-- Node26&#45;&gt;Node17 -->
<g id="edge29" class="edge">
<title>Node26&#45;&gt;Node17</title>
<path fill="none" stroke="midnightblue" d="M1009.5,-112.44C1067.14,-102.87 1160.49,-87.36 1221.81,-77.17"/>
<polygon fill="midnightblue" stroke="midnightblue" points="1222.45,-80.61 1231.74,-75.52 1221.31,-73.7 1222.45,-80.61"/>
</g>
<!-- Node26&#45;&gt;Node18 -->
<g id="edge30" class="edge">
<title>Node26&#45;&gt;Node18</title>
<path fill="none" stroke="midnightblue" d="M1018.82,-114.27C1105.06,-104.73 1263.27,-87.22 1361.06,-76.4"/>
<polygon fill="midnightblue" stroke="midnightblue" points="1361.65,-79.85 1371.21,-75.28 1360.88,-72.9 1361.65,-79.85"/>
</g>
<!-- Node26&#45;&gt;Node19 -->
<g id="edge32" class="edge">
<title>Node26&#45;&gt;Node19</title>
<path fill="none" stroke="midnightblue" d="M1018.5,-116.87C1155.13,-107.56 1488.48,-84.83 1653.79,-73.56"/>
<polygon fill="midnightblue" stroke="midnightblue" points="1654.21,-77.04 1663.95,-72.87 1653.73,-70.06 1654.21,-77.04"/>
</g>
<!-- Node26&#45;&gt;Node20 -->
<g id="edge34" class="edge">
<title>Node26&#45;&gt;Node20</title>
<path fill="none" stroke="midnightblue" d="M1018.71,-119.31C1188.38,-114.39 1666.18,-98.97 1843.86,-75.86"/>
<polygon fill="midnightblue" stroke="midnightblue" points="1844.42,-79.32 1853.86,-74.51 1843.49,-72.38 1844.42,-79.32"/>
</g>
<!-- Node26&#45;&gt;Node22 -->
<g id="edge43" class="edge">
<title>Node26&#45;&gt;Node22</title>
<path fill="none" stroke="midnightblue" d="M1001.76,-112.45C1039.36,-104.77 1095.15,-92.53 1152.07,-76.01"/>
<polygon fill="midnightblue" stroke="midnightblue" points="1153.35,-79.28 1161.95,-73.09 1151.37,-72.56 1153.35,-79.28"/>
</g>
<!-- Node26&#45;&gt;Node24 -->
<g id="edge40" class="edge">
<title>Node26&#45;&gt;Node24</title>
<path fill="none" stroke="midnightblue" d="M983.04,-112.44C1009.62,-103.36 1051.81,-88.94 1081.52,-78.78"/>
<polygon fill="midnightblue" stroke="midnightblue" points="1082.75,-82.06 1091.08,-75.52 1080.49,-75.44 1082.75,-82.06"/>
</g>
<!-- Node27 -->
<g id="node27" class="node">
<title>Node27</title>
<g id="a_node27"><a xlink:title=" ">
<polygon fill="none" stroke="#bfbfbf" points="714.5,-56.5 714.5,-75.5 779.5,-75.5 779.5,-56.5 714.5,-56.5"/>
<text text-anchor="middle" x="747" y="-63.5" font-family="Helvetica,sans-Serif" font-size="10.00">stdexcept</text>
</a>
</g>
</g>
<!-- Node26&#45;&gt;Node27 -->
<g id="edge37" class="edge">
<title>Node26&#45;&gt;Node27</title>
<path fill="none" stroke="midnightblue" d="M924.57,-112.44C888.01,-103.09 829.33,-88.07 789.52,-77.88"/>
<polygon fill="midnightblue" stroke="midnightblue" points="790.14,-74.43 779.58,-75.34 788.4,-81.21 790.14,-74.43"/>
</g>
<!-- Node28 -->
<g id="node28" class="node">
<title>Node28</title>
<g id="a_node28"><a xlink:title=" ">
<polygon fill="none" stroke="#bfbfbf" points="370,-56.5 370,-75.5 418,-75.5 418,-56.5 370,-56.5"/>
<text text-anchor="middle" x="394" y="-63.5" font-family="Helvetica,sans-Serif" font-size="10.00">thread</text>
</a>
</g>
</g>
<!-- Node26&#45;&gt;Node28 -->
<g id="edge39" class="edge">
<title>Node26&#45;&gt;Node28</title>
<path fill="none" stroke="midnightblue" d="M897.41,-119.44C800.17,-116.16 603.24,-106.28 427.95,-75.85"/>
<polygon fill="midnightblue" stroke="midnightblue" points="428.49,-72.39 418.04,-74.1 427.28,-79.28 428.49,-72.39"/>
</g>
<!-- Node29 -->
<g id="node29" class="node">
<title>Node29</title>
<g id="a_node29"><a xlink:title=" ">
<polygon fill="none" stroke="#bfbfbf" points="436.5,-56.5 436.5,-75.5 487.5,-75.5 487.5,-56.5 436.5,-56.5"/>
<text text-anchor="middle" x="462" y="-63.5" font-family="Helvetica,sans-Serif" font-size="10.00">csignal</text>
</a>
</g>
</g>
<!-- Node26&#45;&gt;Node29 -->
<g id="edge41" class="edge">
<title>Node26&#45;&gt;Node29</title>
<path fill="none" stroke="midnightblue" d="M897.21,-117.39C809.51,-111.63 642.58,-98.66 502,-76 500.55,-75.77 499.08,-75.51 497.59,-75.24"/>
<polygon fill="midnightblue" stroke="midnightblue" points="498.22,-71.8 487.73,-73.28 496.85,-78.66 498.22,-71.8"/>
</g>
<!-- Node30 -->
<g id="node30" class="node">
<title>Node30</title>
<g id="a_node30"><a xlink:title=" ">
<polygon fill="none" stroke="#bfbfbf" points="797.5,-56.5 797.5,-75.5 890.5,-75.5 890.5,-56.5 797.5,-56.5"/>
<text text-anchor="middle" x="844" y="-63.5" font-family="Helvetica,sans-Serif" font-size="10.00">unordered_map</text>
</a>
</g>
</g>
<!-- Node26&#45;&gt;Node30 -->
<g id="edge44" class="edge">
<title>Node26&#45;&gt;Node30</title>
<path fill="none" stroke="midnightblue" d="M939.94,-112.44C921.43,-103.68 892.42,-89.94 871.14,-79.86"/>
<polygon fill="midnightblue" stroke="midnightblue" points="872.51,-76.63 861.98,-75.52 869.52,-82.96 872.51,-76.63"/>
</g>
<!-- Node31 -->
<g id="node31" class="node">
<title>Node31</title>
<g id="a_node31"><a xlink:title=" ">
<polygon fill="none" stroke="#bfbfbf" points="908.5,-56.5 908.5,-75.5 955.5,-75.5 955.5,-56.5 908.5,-56.5"/>
<text text-anchor="middle" x="932" y="-63.5" font-family="Helvetica,sans-Serif" font-size="10.00">deque</text>
</a>
</g>
</g>
<!-- Node26&#45;&gt;Node31 -->
<g id="edge45" class="edge">
<title>Node26&#45;&gt;Node31</title>
<path fill="none" stroke="midnightblue" d="M953.71,-112.08C950.15,-104.69 944.98,-93.95 940.58,-84.81"/>
<polygon fill="midnightblue" stroke="midnightblue" points="943.71,-83.24 936.21,-75.75 937.4,-86.28 943.71,-83.24"/>
</g>
<!-- Node32&#45;&gt;Node4 -->
<g id="edge48" class="edge">
<title>Node32&#45;&gt;Node4</title>
<path fill="none" stroke="midnightblue" d="M443.15,-168.48C468.29,-160.75 504.62,-148.11 534,-132 559.71,-117.9 586.17,-96.71 602.82,-82.39"/>
<polygon fill="midnightblue" stroke="midnightblue" points="605.36,-84.82 610.58,-75.6 600.75,-79.55 605.36,-84.82"/>
</g>
<!-- Node32&#45;&gt;Node6 -->
<g id="edge47" class="edge">
<title>Node32&#45;&gt;Node6</title>
<path fill="none" stroke="midnightblue" d="M399.1,-168.3C387.33,-160.25 370.84,-147.25 361,-132 340.07,-99.59 330.9,-54.53 327.22,-29.55"/>
<polygon fill="midnightblue" stroke="midnightblue" points="330.68,-29.05 325.89,-19.61 323.74,-29.98 330.68,-29.05"/>
</g>
<!-- Node32&#45;&gt;Node10 -->
<g id="edge50" class="edge">
<title>Node32&#45;&gt;Node10</title>
<path fill="none" stroke="midnightblue" d="M398.83,-168.38C385.1,-159.79 363.93,-145.91 347,-132 305.18,-97.64 261.12,-51.5 238.81,-27.33"/>
<polygon fill="midnightblue" stroke="midnightblue" points="241.21,-24.76 231.87,-19.75 236.04,-29.49 241.21,-24.76"/>
</g>
<!-- Node32&#45;&gt;Node13 -->
<g id="edge54" class="edge">
<title>Node32&#45;&gt;Node13</title>
<path fill="none" stroke="midnightblue" d="M403.9,-168.29C383.96,-148.12 339.82,-96.79 361,-56 368.15,-42.23 381.67,-31.78 394.45,-24.44"/>
<polygon fill="midnightblue" stroke="midnightblue" points="396.32,-27.41 403.52,-19.64 393.04,-21.23 396.32,-27.41"/>
</g>
<!-- Node32&#45;&gt;Node15 -->
<g id="edge56" class="edge">
<title>Node32&#45;&gt;Node15</title>
<path fill="none" stroke="midnightblue" d="M384.37,-168.46C358.44,-160.32 319.42,-147.11 287,-132 216.04,-98.94 137.63,-49.15 101,-25.06"/>
<polygon fill="midnightblue" stroke="midnightblue" points="102.9,-22.11 92.62,-19.51 99.03,-27.95 102.9,-22.11"/>
</g>
<!-- Node32&#45;&gt;Node16 -->
<g id="edge51" class="edge">
<title>Node32&#45;&gt;Node16</title>
<path fill="none" stroke="midnightblue" d="M393.08,-168.5C374.08,-160.1 344.89,-146.44 321,-132 264.84,-98.04 203.8,-50.07 174.17,-26.01"/>
<polygon fill="midnightblue" stroke="midnightblue" points="176.31,-23.23 166.35,-19.61 171.88,-28.65 176.31,-23.23"/>
</g>
<!-- Node32&#45;&gt;Node26 -->
<g id="edge49" class="edge">
<title>Node32&#45;&gt;Node26</title>
<path fill="none" stroke="midnightblue" d="M470.55,-171.3C571.01,-161.34 778.06,-140.83 887.16,-130.02"/>
<polygon fill="midnightblue" stroke="midnightblue" points="887.8,-133.47 897.41,-129 887.11,-126.51 887.8,-133.47"/>
</g>
<!-- Node32&#45;&gt;Node28 -->
<g id="edge55" class="edge">
<title>Node32&#45;&gt;Node28</title>
<path fill="none" stroke="midnightblue" d="M411.51,-168.37C408.44,-150.62 401.37,-109.67 397.21,-85.6"/>
<polygon fill="midnightblue" stroke="midnightblue" points="400.64,-84.85 395.48,-75.59 393.74,-86.04 400.64,-84.85"/>
</g>
<!-- Node32&#45;&gt;Node29 -->
<g id="edge52" class="edge">
<title>Node32&#45;&gt;Node29</title>
<path fill="none" stroke="midnightblue" d="M416.84,-168.37C424.82,-150.46 443.33,-108.92 454,-84.95"/>
<polygon fill="midnightblue" stroke="midnightblue" points="457.3,-86.15 458.17,-75.59 450.91,-83.3 457.3,-86.15"/>
</g>
<!-- Node33 -->
<g id="node33" class="node">
<title>Node33</title>
<g id="a_node33"><a xlink:title=" ">
<polygon fill="none" stroke="#bfbfbf" points="460.5,-112.5 460.5,-131.5 525.5,-131.5 525.5,-112.5 460.5,-112.5"/>
<text text-anchor="middle" x="493" y="-119.5" font-family="Helvetica,sans-Serif" font-size="10.00">functional</text>
</a>
</g>
</g>
<!-- Node32&#45;&gt;Node33 -->
<g id="edge53" class="edge">
<title>Node32&#45;&gt;Node33</title>
<path fill="none" stroke="midnightblue" d="M425.85,-168.32C438.22,-159.98 457.13,-147.21 471.74,-137.35"/>
<polygon fill="midnightblue" stroke="midnightblue" points="473.85,-140.15 480.18,-131.65 469.93,-134.35 473.85,-140.15"/>
</g>
<!-- Node32&#45;&gt;Node34 -->
<g id="edge57" class="edge">
<title>Node32&#45;&gt;Node34</title>
<path fill="none" stroke="midnightblue" d="M470.56,-176.85C666.8,-176.01 1308.67,-170.31 1511,-132 1511.1,-131.98 1511.21,-131.96 1511.31,-131.94"/>
<polygon fill="midnightblue" stroke="midnightblue" points="1512.21,-135.32 1520.97,-129.36 1510.41,-128.56 1512.21,-135.32"/>
</g>
</g>
</svg>
        <g id="navigator" transform="translate(0 0)" fill="#404254">
                <rect fill="#f2f5e9" fill-opacity="0.5" stroke="#606060" stroke-width=".5" x="0" y="0" width="60" height="60"/>
                <use id="zoomplus" xlink:href="#zoomPlus" x="17" y="9" onmousedown="handleZoom(evt,'in')"/>
                <use id="zoomminus" xlink:href="#zoomMin" x="42" y="9" onmousedown="handleZoom(evt,'out')"/>
                <use id="reset" xlink:href="#resetDef" x="30" y="36" onmousedown="handleReset()"/>
                <g id="arrowUp" xlink:href="#dirArrow" transform="translate(30 24)" onmousedown="handlePan(0,-1)">
                  <use xlink:href="#rim" fill="#404040">
                        <set attributeName="fill" to="#808080" begin="arrowUp.mouseover" end="arrowUp.mouseout"/>
                  </use>
                  <path fill="none" stroke="white" stroke-width="1.5" d="M0,-3.0v7 M-2.5,-0.5L0,-3.0L2.5,-0.5"/>
                </g>
                <g id="arrowRight" xlink:href="#dirArrow" transform="rotate(90) translate(36 -43)" onmousedown="handlePan(1,0)">
                  <use xlink:href="#rim" fill="#404040">
                        <set attributeName="fill" to="#808080" begin="arrowRight.mouseover" end="arrowRight.mouseout"/>
                  </use>
                  <path fill="none" stroke="white" stroke-width="1.5" d="M0,-3.0v7 M-2.5,-0.5L0,-3.0L2.5,-0.5"/>
                </g>
                <g id="arrowDown" xlink:href="#dirArrow" transform="rotate(180) translate(-30 -48)" onmousedown="handlePan(0,1)">
                  <use xlink:href="#rim" fill="#404040">
                        <set attributeName="fill" to="#808080" begin="arrowDown.mouseover" end="arrowDown.mouseout"/>
                  </use>
                  <path fill="none" stroke="white" stroke-width="1.5" d="M0,-3.0v7 M-2.5,-0.5L0,-3.0L2.5,-0.5"/>
                </g>
                <g id="arrowLeft" xlink:href="#dirArrow" transform="rotate(270) translate(-36 17)" onmousedown="handlePan(-1,0)">
                  <use xlink:href="#rim" fill="#404040">
                        <set attributeName="fill" to="#808080" begin="arrowLeft.mouseover" end="arrowLeft.mouseout"/>
                  </use>
                  <path fill="none" stroke="white" stroke-width="1.5" d="M0,-3.0v7 M-2.5,-0.5L0,-3.0L2.5,-0.5"/>
                </g>
        </g>
        <svg viewBox="0 0 15 15" width="100%" height="30px" preserveAspectRatio="xMaxYMin meet">
         <g id="arrow_out" transform="scale(0.3 0.3)">
          <a xlink:href="main_8cpp__incl_org.svg" target="_base">
           <rect id="button" ry="5" rx="5" y="6" x="6" height="38" width="38"
                fill="#f2f5e9" fill-opacity="0.5" stroke="#606060" stroke-width="1.0"/>
           <path id="arrow"
             d="M 11.500037,31.436501 C 11.940474,20.09759 22.043105,11.32322 32.158766,21.979434 L 37.068811,17.246167 C 37.068811,17.246167 37.088388,32 37.088388,32 L 22.160133,31.978069 C 22.160133,31.978069 26.997745,27.140456 26.997745,27.140456 C 18.528582,18.264221 13.291696,25.230495 11.500037,31.436501 z"
             style="fill:#404040;"/>
          </a>
         </g>
        </svg>
</svg>
