<?xml version="1.0" encoding="UTF-8" standalone="no"?>
<!DOCTYPE svg PUBLIC "-//W3C//DTD SVG 1.1//EN"
 "http://www.w3.org/Graphics/SVG/1.1/DTD/svg11.dtd">
<!-- Generated by graphviz version 2.43.0 (0)
 -->
<!-- Title: src/NetworkManager.cpp Pages: 1 -->
<svg width="2911pt" height="196pt"
 viewBox="0.00 0.00 2911.37 196.00" xmlns="http://www.w3.org/2000/svg" xmlns:xlink="http://www.w3.org/1999/xlink">
<g id="graph0" class="graph" transform="scale(1 1) rotate(0) translate(4 192)">
<title>src/NetworkManager.cpp</title>
<!-- Node1 -->
<g id="node1" class="node">
<title>Node1</title>
<g id="a_node1"><a xlink:title=" ">
<polygon fill="#bfbfbf" stroke="black" points="1566.37,-168.5 1566.37,-187.5 1703.37,-187.5 1703.37,-168.5 1566.37,-168.5"/>
<text text-anchor="middle" x="1634.87" y="-175.5" font-family="Helvetica,sans-Serif" font-size="10.00">src/NetworkManager.cpp</text>
</a>
</g>
</g>
<!-- Node2 -->
<g id="node2" class="node">
<title>Node2</title>
<g id="a_node2"><a xlink:href="Camera_8hpp.html" target="_top" xlink:title=" ">
<polygon fill="none" stroke="black" points="539.87,-56.5 539.87,-75.5 615.87,-75.5 615.87,-56.5 539.87,-56.5"/>
<text text-anchor="middle" x="577.87" y="-63.5" font-family="Helvetica,sans-Serif" font-size="10.00">Camera.hpp</text>
</a>
</g>
</g>
<!-- Node1&#45;&gt;Node2 -->
<g id="edge1" class="edge">
<title>Node1&#45;&gt;Node2</title>
<path fill="none" stroke="midnightblue" d="M1566.15,-176.18C1340.76,-173.21 636.17,-161.59 597.87,-132 584.02,-121.3 579.51,-101.2 578.16,-86.17"/>
<polygon fill="midnightblue" stroke="midnightblue" points="581.64,-85.72 577.64,-75.91 574.65,-86.07 581.64,-85.72"/>
</g>
<!-- Node3 -->
<g id="node3" class="node">
<title>Node3</title>
<g id="a_node3"><a xlink:title=" ">
<polygon fill="none" stroke="#bfbfbf" points="205.37,-0.5 205.37,-19.5 304.37,-19.5 304.37,-0.5 205.37,-0.5"/>
<text text-anchor="middle" x="254.87" y="-7.5" font-family="Helvetica,sans-Serif" font-size="10.00">GenApi/GenApi.h</text>
</a>
</g>
</g>
<!-- Node1&#45;&gt;Node3 -->
<g id="edge56" class="edge">
<title>Node1&#45;&gt;Node3</title>
<path fill="none" stroke="midnightblue" d="M1566.19,-177.15C1269.6,-177.53 110.78,-176.19 47.87,-132 19.1,-111.79 3.53,-83.16 25.87,-56 31.31,-49.39 129.45,-31.88 195.47,-20.75"/>
<polygon fill="midnightblue" stroke="midnightblue" points="196.09,-24.2 205.37,-19.09 194.93,-17.3 196.09,-24.2"/>
</g>
<!-- Node6 -->
<g id="node6" class="node">
<title>Node6</title>
<g id="a_node6"><a xlink:title=" ">
<polygon fill="none" stroke="#bfbfbf" points="322.37,-0.5 322.37,-19.5 459.37,-19.5 459.37,-0.5 322.37,-0.5"/>
<text text-anchor="middle" x="390.87" y="-7.5" font-family="Helvetica,sans-Serif" font-size="10.00">rc_genicam_api/device.h</text>
</a>
</g>
</g>
<!-- Node1&#45;&gt;Node6 -->
<g id="edge54" class="edge">
<title>Node1&#45;&gt;Node6</title>
<path fill="none" stroke="midnightblue" d="M1566.04,-176.61C1274.09,-174.74 150.04,-165.4 82.87,-132 47.72,-114.52 11.93,-85.46 37.87,-56 40.14,-53.43 208.67,-32.83 312.02,-20.41"/>
<polygon fill="midnightblue" stroke="midnightblue" points="312.61,-23.86 322.12,-19.19 311.77,-16.91 312.61,-23.86"/>
</g>
<!-- Node8 -->
<g id="node8" class="node">
<title>Node8</title>
<g id="a_node8"><a xlink:title=" ">
<polygon fill="none" stroke="#bfbfbf" points="1643.87,-0.5 1643.87,-19.5 1693.87,-19.5 1693.87,-0.5 1643.87,-0.5"/>
<text text-anchor="middle" x="1668.87" y="-7.5" font-family="Helvetica,sans-Serif" font-size="10.00">atomic</text>
</a>
</g>
</g>
<!-- Node1&#45;&gt;Node8 -->
<g id="edge65" class="edge">
<title>Node1&#45;&gt;Node8</title>
<path fill="none" stroke="midnightblue" d="M1647.31,-168.44C1666.84,-155.24 1706.19,-129.57 1741.87,-112 1781.63,-92.42 1809.82,-112.56 1834.87,-76 1839.9,-68.67 1840.27,-63.06 1834.87,-56 1819.08,-35.36 1748.03,-21.99 1704.16,-15.54"/>
<polygon fill="midnightblue" stroke="midnightblue" points="1704.57,-12.06 1694.18,-14.12 1703.59,-18.99 1704.57,-12.06"/>
</g>
<!-- Node10 -->
<g id="node10" class="node">
<title>Node10</title>
<g id="a_node10"><a xlink:title=" ">
<polygon fill="none" stroke="#bfbfbf" points="128.87,-0.5 128.87,-19.5 186.87,-19.5 186.87,-0.5 128.87,-0.5"/>
<text text-anchor="middle" x="157.87" y="-7.5" font-family="Helvetica,sans-Serif" font-size="10.00">memory</text>
</a>
</g>
</g>
<!-- Node1&#45;&gt;Node10 -->
<g id="edge58" class="edge">
<title>Node1&#45;&gt;Node10</title>
<path fill="none" stroke="midnightblue" d="M1566.29,-176.24C1262.74,-172.75 53.75,-157.29 23.87,-132 -2.18,-109.95 -7.37,-83.48 12.87,-56 36.96,-23.31 84.57,-13.67 118.67,-11.17"/>
<polygon fill="midnightblue" stroke="midnightblue" points="118.98,-14.66 128.77,-10.61 118.59,-7.67 118.98,-14.66"/>
</g>
<!-- Node12 -->
<g id="node12" class="node">
<title>Node12</title>
<g id="a_node12"><a xlink:title=" ">
<polygon fill="none" stroke="#bfbfbf" points="477.87,-0.5 477.87,-19.5 521.87,-19.5 521.87,-0.5 477.87,-0.5"/>
<text text-anchor="middle" x="499.87" y="-7.5" font-family="Helvetica,sans-Serif" font-size="10.00">string</text>
</a>
</g>
</g>
<!-- Node1&#45;&gt;Node12 -->
<g id="edge59" class="edge">
<title>Node1&#45;&gt;Node12</title>
<path fill="none" stroke="midnightblue" d="M1565.99,-176.42C1328.33,-174.15 543.66,-164.32 293.87,-132 182.67,-117.61 117.81,-163.65 47.87,-76 -9.08,-4.63 352.26,-34.86 467.56,-19.42"/>
<polygon fill="midnightblue" stroke="midnightblue" points="468.28,-22.85 477.62,-17.84 467.2,-15.94 468.28,-22.85"/>
</g>
<!-- Node14 -->
<g id="node14" class="node">
<title>Node14</title>
<g id="a_node14"><a xlink:title=" ">
<polygon fill="none" stroke="#bfbfbf" points="1782.87,-0.5 1782.87,-19.5 1832.87,-19.5 1832.87,-0.5 1782.87,-0.5"/>
<text text-anchor="middle" x="1807.87" y="-7.5" font-family="Helvetica,sans-Serif" font-size="10.00">chrono</text>
</a>
</g>
</g>
<!-- Node1&#45;&gt;Node14 -->
<g id="edge61" class="edge">
<title>Node1&#45;&gt;Node14</title>
<path fill="none" stroke="midnightblue" d="M1655.35,-168.38C1676.06,-159.57 1708.92,-145.32 1736.87,-132 1754.46,-123.62 1758.45,-120.71 1775.87,-112 1808.59,-95.65 1830.48,-107.01 1849.87,-76 1860.63,-58.8 1844.08,-39.27 1828.69,-26.15"/>
<polygon fill="midnightblue" stroke="midnightblue" points="1830.45,-23.07 1820.45,-19.57 1826.08,-28.54 1830.45,-23.07"/>
</g>
<!-- Node15 -->
<g id="node15" class="node">
<title>Node15</title>
<g id="a_node15"><a xlink:href="NetworkManager_8hpp.html" target="_top" xlink:title=" ">
<polygon fill="none" stroke="black" points="606.37,-112.5 606.37,-131.5 727.37,-131.5 727.37,-112.5 606.37,-112.5"/>
<text text-anchor="middle" x="666.87" y="-119.5" font-family="Helvetica,sans-Serif" font-size="10.00">NetworkManager.hpp</text>
</a>
</g>
</g>
<!-- Node1&#45;&gt;Node15 -->
<g id="edge14" class="edge">
<title>Node1&#45;&gt;Node15</title>
<path fill="none" stroke="midnightblue" d="M1566.03,-173.16C1388.61,-163.26 917.11,-136.96 737.61,-126.95"/>
<polygon fill="midnightblue" stroke="midnightblue" points="737.67,-123.44 727.49,-126.38 737.28,-130.43 737.67,-123.44"/>
</g>
<!-- Node16 -->
<g id="node16" class="node">
<title>Node16</title>
<g id="a_node16"><a xlink:title=" ">
<polygon fill="none" stroke="#bfbfbf" points="775.37,-56.5 775.37,-75.5 916.37,-75.5 916.37,-56.5 775.37,-56.5"/>
<text text-anchor="middle" x="845.87" y="-63.5" font-family="Helvetica,sans-Serif" font-size="10.00">rc_genicam_api/system.h</text>
</a>
</g>
</g>
<!-- Node1&#45;&gt;Node16 -->
<g id="edge52" class="edge">
<title>Node1&#45;&gt;Node16</title>
<path fill="none" stroke="midnightblue" d="M1566.33,-172.17C1477.4,-165.44 1317.55,-151.82 1181.87,-132 1078.49,-116.9 958.6,-91.88 893.66,-77.69"/>
<polygon fill="midnightblue" stroke="midnightblue" points="894.24,-74.23 883.72,-75.5 892.74,-81.07 894.24,-74.23"/>
</g>
<!-- Node17 -->
<g id="node17" class="node">
<title>Node17</title>
<g id="a_node17"><a xlink:title=" ">
<polygon fill="none" stroke="#bfbfbf" points="934.37,-56.5 934.37,-75.5 1083.37,-75.5 1083.37,-56.5 934.37,-56.5"/>
<text text-anchor="middle" x="1008.87" y="-63.5" font-family="Helvetica,sans-Serif" font-size="10.00">rc_genicam_api/interface.h</text>
</a>
</g>
</g>
<!-- Node1&#45;&gt;Node17 -->
<g id="edge53" class="edge">
<title>Node1&#45;&gt;Node17</title>
<path fill="none" stroke="midnightblue" d="M1566.17,-170.79C1493.46,-163.66 1375.53,-150.53 1274.87,-132 1193.78,-117.08 1100.48,-92.54 1048.73,-78.26"/>
<polygon fill="midnightblue" stroke="midnightblue" points="1049.52,-74.85 1038.95,-75.55 1047.65,-81.6 1049.52,-74.85"/>
</g>
<!-- Node18 -->
<g id="node18" class="node">
<title>Node18</title>
<g id="a_node18"><a xlink:title=" ">
<polygon fill="none" stroke="#bfbfbf" points="1101.87,-56.5 1101.87,-75.5 1273.87,-75.5 1273.87,-56.5 1101.87,-56.5"/>
<text text-anchor="middle" x="1187.87" y="-63.5" font-family="Helvetica,sans-Serif" font-size="10.00">rc_genicam_api/nodemap_out.h</text>
</a>
</g>
</g>
<!-- Node1&#45;&gt;Node18 -->
<g id="edge55" class="edge">
<title>Node1&#45;&gt;Node18</title>
<path fill="none" stroke="midnightblue" d="M1566.32,-172.25C1504.14,-166.68 1410.45,-155.08 1331.87,-132 1288.09,-119.14 1240.39,-95.54 1212.36,-80.59"/>
<polygon fill="midnightblue" stroke="midnightblue" points="1213.77,-77.37 1203.3,-75.7 1210.44,-83.53 1213.77,-77.37"/>
</g>
<!-- Node19 -->
<g id="node19" class="node">
<title>Node19</title>
<g id="a_node19"><a xlink:title=" ">
<polygon fill="none" stroke="#bfbfbf" points="1291.87,-56.5 1291.87,-75.5 1351.87,-75.5 1351.87,-56.5 1291.87,-56.5"/>
<text text-anchor="middle" x="1321.87" y="-63.5" font-family="Helvetica,sans-Serif" font-size="10.00">iostream</text>
</a>
</g>
</g>
<!-- Node1&#45;&gt;Node19 -->
<g id="edge57" class="edge">
<title>Node1&#45;&gt;Node19</title>
<path fill="none" stroke="midnightblue" d="M1566.05,-173.29C1493.64,-168.14 1385.68,-156.53 1352.87,-132 1337.89,-120.79 1329.83,-100.47 1325.72,-85.53"/>
<polygon fill="midnightblue" stroke="midnightblue" points="1329.12,-84.7 1323.38,-75.8 1322.31,-86.34 1329.12,-84.7"/>
</g>
<!-- Node20 -->
<g id="node20" class="node">
<title>Node20</title>
<g id="a_node20"><a xlink:title=" ">
<polygon fill="none" stroke="#bfbfbf" points="57.37,-56.5 57.37,-75.5 122.37,-75.5 122.37,-56.5 57.37,-56.5"/>
<text text-anchor="middle" x="89.87" y="-63.5" font-family="Helvetica,sans-Serif" font-size="10.00">stdexcept</text>
</a>
</g>
</g>
<!-- Node1&#45;&gt;Node20 -->
<g id="edge60" class="edge">
<title>Node1&#45;&gt;Node20</title>
<path fill="none" stroke="midnightblue" d="M1566.07,-175.79C1344.47,-171.68 650.84,-157.1 427.87,-132 320.72,-119.93 196.68,-92.58 132.81,-77.49"/>
<polygon fill="midnightblue" stroke="midnightblue" points="133.25,-74 122.71,-75.09 131.63,-80.81 133.25,-74"/>
</g>
<!-- Node21 -->
<g id="node21" class="node">
<title>Node21</title>
<g id="a_node21"><a xlink:title=" ">
<polygon fill="none" stroke="#bfbfbf" points="140.87,-56.5 140.87,-75.5 188.87,-75.5 188.87,-56.5 140.87,-56.5"/>
<text text-anchor="middle" x="164.87" y="-63.5" font-family="Helvetica,sans-Serif" font-size="10.00">thread</text>
</a>
</g>
</g>
<!-- Node1&#45;&gt;Node21 -->
<g id="edge62" class="edge">
<title>Node1&#45;&gt;Node21</title>
<path fill="none" stroke="midnightblue" d="M1566.19,-176.68C1397.72,-175.33 950.71,-168.32 579.87,-132 437.66,-118.07 270.02,-87.38 199.2,-73.75"/>
<polygon fill="midnightblue" stroke="midnightblue" points="199.55,-70.26 189.07,-71.79 198.22,-77.13 199.55,-70.26"/>
</g>
<!-- Node22 -->
<g id="node22" class="node">
<title>Node22</title>
<g id="a_node22"><a xlink:title=" ">
<polygon fill="none" stroke="#bfbfbf" points="1607.87,-56.5 1607.87,-75.5 1663.87,-75.5 1663.87,-56.5 1607.87,-56.5"/>
<text text-anchor="middle" x="1635.87" y="-63.5" font-family="Helvetica,sans-Serif" font-size="10.00">iomanip</text>
</a>
</g>
</g>
<!-- Node1&#45;&gt;Node22 -->
<g id="edge63" class="edge">
<title>Node1&#45;&gt;Node22</title>
<path fill="none" stroke="midnightblue" d="M1614.95,-168.35C1592.14,-157.08 1559.41,-135.99 1571.87,-112 1579.03,-98.23 1592.54,-87.78 1605.32,-80.44"/>
<polygon fill="midnightblue" stroke="midnightblue" points="1607.19,-83.41 1614.39,-75.64 1603.91,-77.23 1607.19,-83.41"/>
</g>
<!-- Node24 -->
<g id="node24" class="node">
<title>Node24</title>
<g id="a_node24"><a xlink:title=" ">
<polygon fill="none" stroke="#bfbfbf" points="1495.87,-56.5 1495.87,-75.5 1527.87,-75.5 1527.87,-56.5 1495.87,-56.5"/>
<text text-anchor="middle" x="1511.87" y="-63.5" font-family="Helvetica,sans-Serif" font-size="10.00">set</text>
</a>
</g>
</g>
<!-- Node1&#45;&gt;Node24 -->
<g id="edge66" class="edge">
<title>Node1&#45;&gt;Node24</title>
<path fill="none" stroke="midnightblue" d="M1618.58,-168.48C1603.71,-160.27 1581.57,-146.92 1564.87,-132 1548.81,-117.66 1533.62,-98.2 1523.66,-84.32"/>
<polygon fill="midnightblue" stroke="midnightblue" points="1526.25,-81.91 1517.64,-75.73 1520.51,-85.93 1526.25,-81.91"/>
</g>
<!-- Node26 -->
<g id="node26" class="node">
<title>Node26</title>
<g id="a_node26"><a xlink:title=" ">
<polygon fill="none" stroke="#bfbfbf" points="710.37,-56.5 710.37,-75.5 757.37,-75.5 757.37,-56.5 710.37,-56.5"/>
<text text-anchor="middle" x="733.87" y="-63.5" font-family="Helvetica,sans-Serif" font-size="10.00">deque</text>
</a>
</g>
</g>
<!-- Node1&#45;&gt;Node26 -->
<g id="edge69" class="edge">
<title>Node1&#45;&gt;Node26</title>
<path fill="none" stroke="midnightblue" d="M1566.31,-173.93C1459.15,-168.61 1245.63,-155.87 1065.87,-132 935.12,-114.64 900.32,-106.65 767.75,-76.06"/>
<polygon fill="midnightblue" stroke="midnightblue" points="768.14,-72.56 757.61,-73.72 766.56,-79.38 768.14,-72.56"/>
</g>
<!-- Node27 -->
<g id="node27" class="node">
<title>Node27</title>
<g id="a_node27"><a xlink:href="DeviceManager_8hpp.html" target="_top" xlink:title=" ">
<polygon fill="none" stroke="black" points="1361.37,-112.5 1361.37,-131.5 1474.37,-131.5 1474.37,-112.5 1361.37,-112.5"/>
<text text-anchor="middle" x="1417.87" y="-119.5" font-family="Helvetica,sans-Serif" font-size="10.00">DeviceManager.hpp</text>
</a>
</g>
</g>
<!-- Node1&#45;&gt;Node27 -->
<g id="edge33" class="edge">
<title>Node1&#45;&gt;Node27</title>
<path fill="none" stroke="midnightblue" d="M1600.49,-168.44C1562.95,-159.1 1502.74,-144.12 1461.81,-133.93"/>
<polygon fill="midnightblue" stroke="midnightblue" points="1462.65,-130.53 1452.1,-131.52 1460.95,-137.33 1462.65,-130.53"/>
</g>
<!-- Node31 -->
<g id="node31" class="node">
<title>Node31</title>
<g id="a_node31"><a xlink:href="GlobalSettings_8hpp.html" target="_top" xlink:title=" ">
<polygon fill="none" stroke="black" points="1580.37,-112.5 1580.37,-131.5 1689.37,-131.5 1689.37,-112.5 1580.37,-112.5"/>
<text text-anchor="middle" x="1634.87" y="-119.5" font-family="Helvetica,sans-Serif" font-size="10.00">GlobalSettings.hpp</text>
</a>
</g>
</g>
<!-- Node1&#45;&gt;Node31 -->
<g id="edge45" class="edge">
<title>Node1&#45;&gt;Node31</title>
<path fill="none" stroke="midnightblue" d="M1634.87,-168.08C1634.87,-161.01 1634.87,-150.86 1634.87,-141.99"/>
<polygon fill="midnightblue" stroke="midnightblue" points="1638.37,-141.75 1634.87,-131.75 1631.37,-141.75 1638.37,-141.75"/>
</g>
<!-- Node32 -->
<g id="node32" class="node">
<title>Node32</title>
<g id="a_node32"><a xlink:title=" ">
<polygon fill="none" stroke="#bfbfbf" points="1784.37,-112.5 1784.37,-131.5 1839.37,-131.5 1839.37,-112.5 1784.37,-112.5"/>
<text text-anchor="middle" x="1811.87" y="-119.5" font-family="Helvetica,sans-Serif" font-size="10.00">signal.h</text>
</a>
</g>
</g>
<!-- Node1&#45;&gt;Node32 -->
<g id="edge64" class="edge">
<title>Node1&#45;&gt;Node32</title>
<path fill="none" stroke="midnightblue" d="M1662.92,-168.44C1693.04,-159.25 1741.07,-144.6 1774.41,-134.43"/>
<polygon fill="midnightblue" stroke="midnightblue" points="1775.71,-137.69 1784.25,-131.43 1773.66,-131 1775.71,-137.69"/>
</g>
<!-- Node33 -->
<g id="node33" class="node">
<title>Node33</title>
<g id="a_node33"><a xlink:title=" ">
<polygon fill="none" stroke="#bfbfbf" points="1857.37,-112.5 1857.37,-131.5 1912.37,-131.5 1912.37,-112.5 1857.37,-112.5"/>
<text text-anchor="middle" x="1884.87" y="-119.5" font-family="Helvetica,sans-Serif" font-size="10.00">fstream</text>
</a>
</g>
</g>
<!-- Node1&#45;&gt;Node33 -->
<g id="edge67" class="edge">
<title>Node1&#45;&gt;Node33</title>
<path fill="none" stroke="midnightblue" d="M1678.02,-168.43C1719.2,-160.13 1783.23,-146.94 1847.15,-132.34"/>
<polygon fill="midnightblue" stroke="midnightblue" points="1848.03,-135.73 1856.99,-130.08 1846.46,-128.91 1848.03,-135.73"/>
</g>
<!-- Node34 -->
<g id="node34" class="node">
<title>Node34</title>
<g id="a_node34"><a xlink:title=" ">
<polygon fill="none" stroke="#bfbfbf" points="1930.87,-112.5 1930.87,-131.5 1994.87,-131.5 1994.87,-112.5 1930.87,-112.5"/>
<text text-anchor="middle" x="1962.87" y="-119.5" font-family="Helvetica,sans-Serif" font-size="10.00">algorithm</text>
</a>
</g>
</g>
<!-- Node1&#45;&gt;Node34 -->
<g id="edge68" class="edge">
<title>Node1&#45;&gt;Node34</title>
<path fill="none" stroke="midnightblue" d="M1696.08,-168.5C1752.1,-160.47 1837.49,-147.61 1920.8,-132.11"/>
<polygon fill="midnightblue" stroke="midnightblue" points="1921.5,-135.54 1930.68,-130.26 1920.21,-128.66 1921.5,-135.54"/>
</g>
<!-- Node35 -->
<g id="node35" class="node">
<title>Node35</title>
<g id="a_node35"><a xlink:title=" ">
<polygon fill="none" stroke="#bfbfbf" points="2012.87,-112.5 2012.87,-131.5 2066.87,-131.5 2066.87,-112.5 2012.87,-112.5"/>
<text text-anchor="middle" x="2039.87" y="-119.5" font-family="Helvetica,sans-Serif" font-size="10.00">random</text>
</a>
</g>
</g>
<!-- Node1&#45;&gt;Node35 -->
<g id="edge70" class="edge">
<title>Node1&#45;&gt;Node35</title>
<path fill="none" stroke="midnightblue" d="M1703.61,-171.18C1775.83,-164.49 1892.86,-152.01 2002.88,-131.98"/>
<polygon fill="midnightblue" stroke="midnightblue" points="2003.63,-135.4 2012.82,-130.14 2002.36,-128.52 2003.63,-135.4"/>
</g>
<!-- Node36 -->
<g id="node36" class="node">
<title>Node36</title>
<g id="a_node36"><a xlink:title=" ">
<polygon fill="none" stroke="#bfbfbf" points="2084.87,-112.5 2084.87,-131.5 2152.87,-131.5 2152.87,-112.5 2084.87,-112.5"/>
<text text-anchor="middle" x="2118.87" y="-119.5" font-family="Helvetica,sans-Serif" font-size="10.00">filesystem</text>
</a>
</g>
</g>
<!-- Node1&#45;&gt;Node36 -->
<g id="edge71" class="edge">
<title>Node1&#45;&gt;Node36</title>
<path fill="none" stroke="midnightblue" d="M1703.53,-172.23C1788.39,-165.84 1937.38,-152.98 2074.4,-132.08"/>
<polygon fill="midnightblue" stroke="midnightblue" points="2075.32,-135.48 2084.66,-130.5 2074.25,-128.56 2075.32,-135.48"/>
</g>
<!-- Node37 -->
<g id="node37" class="node">
<title>Node37</title>
<g id="a_node37"><a xlink:title=" ">
<polygon fill="none" stroke="#bfbfbf" points="2170.87,-112.5 2170.87,-131.5 2256.87,-131.5 2256.87,-112.5 2170.87,-112.5"/>
<text text-anchor="middle" x="2213.87" y="-119.5" font-family="Helvetica,sans-Serif" font-size="10.00">qcustomplot.h</text>
</a>
</g>
</g>
<!-- Node1&#45;&gt;Node37 -->
<g id="edge72" class="edge">
<title>Node1&#45;&gt;Node37</title>
<path fill="none" stroke="midnightblue" d="M1703.71,-173.02C1802.57,-166.89 1990.64,-153.65 2160.65,-132.05"/>
<polygon fill="midnightblue" stroke="midnightblue" points="2161.31,-135.5 2170.79,-130.75 2160.42,-128.55 2161.31,-135.5"/>
</g>
<!-- Node38 -->
<g id="node38" class="node">
<title>Node38</title>
<g id="a_node38"><a xlink:title=" ">
<polygon fill="none" stroke="#bfbfbf" points="2275.37,-112.5 2275.37,-131.5 2316.37,-131.5 2316.37,-112.5 2275.37,-112.5"/>
<text text-anchor="middle" x="2295.87" y="-119.5" font-family="Helvetica,sans-Serif" font-size="10.00">QFile</text>
</a>
</g>
</g>
<!-- Node1&#45;&gt;Node38 -->
<g id="edge73" class="edge">
<title>Node1&#45;&gt;Node38</title>
<path fill="none" stroke="midnightblue" d="M1703.66,-177.03C1818.46,-175.99 2056.28,-169.25 2265.42,-131.62"/>
<polygon fill="midnightblue" stroke="midnightblue" points="2266.15,-135.04 2275.36,-129.8 2264.9,-128.16 2266.15,-135.04"/>
</g>
<!-- Node39 -->
<g id="node39" class="node">
<title>Node39</title>
<g id="a_node39"><a xlink:title=" ">
<polygon fill="none" stroke="#bfbfbf" points="2334.87,-112.5 2334.87,-131.5 2414.87,-131.5 2414.87,-112.5 2334.87,-112.5"/>
<text text-anchor="middle" x="2374.87" y="-119.5" font-family="Helvetica,sans-Serif" font-size="10.00">QTextStream</text>
</a>
</g>
</g>
<!-- Node1&#45;&gt;Node39 -->
<g id="edge74" class="edge">
<title>Node1&#45;&gt;Node39</title>
<path fill="none" stroke="midnightblue" d="M1703.78,-175.17C1826.59,-171.33 2091.55,-160.42 2324.79,-131.99"/>
<polygon fill="midnightblue" stroke="midnightblue" points="2325.32,-135.45 2334.82,-130.75 2324.47,-128.5 2325.32,-135.45"/>
</g>
<!-- Node40 -->
<g id="node40" class="node">
<title>Node40</title>
<g id="a_node40"><a xlink:title=" ">
<polygon fill="none" stroke="#bfbfbf" points="2433.37,-112.5 2433.37,-131.5 2488.37,-131.5 2488.37,-112.5 2433.37,-112.5"/>
<text text-anchor="middle" x="2460.87" y="-119.5" font-family="Helvetica,sans-Serif" font-size="10.00">QVector</text>
</a>
</g>
</g>
<!-- Node1&#45;&gt;Node40 -->
<g id="edge75" class="edge">
<title>Node1&#45;&gt;Node40</title>
<path fill="none" stroke="midnightblue" d="M1703.64,-177.26C1839.52,-176.87 2152,-171.46 2423.07,-131.81"/>
<polygon fill="midnightblue" stroke="midnightblue" points="2423.72,-135.26 2433.1,-130.33 2422.69,-128.33 2423.72,-135.26"/>
</g>
<!-- Node41 -->
<g id="node41" class="node">
<title>Node41</title>
<g id="a_node41"><a xlink:title=" ">
<polygon fill="none" stroke="#bfbfbf" points="2506.37,-112.5 2506.37,-131.5 2551.37,-131.5 2551.37,-112.5 2506.37,-112.5"/>
<text text-anchor="middle" x="2528.87" y="-119.5" font-family="Helvetica,sans-Serif" font-size="10.00">QMap</text>
</a>
</g>
</g>
<!-- Node1&#45;&gt;Node41 -->
<g id="edge76" class="edge">
<title>Node1&#45;&gt;Node41</title>
<path fill="none" stroke="midnightblue" d="M1703.66,-175.46C1876.57,-171.26 2327.07,-158.26 2496.31,-131.83"/>
<polygon fill="midnightblue" stroke="midnightblue" points="2497.02,-135.26 2506.33,-130.2 2495.89,-128.36 2497.02,-135.26"/>
</g>
<!-- Node42 -->
<g id="node42" class="node">
<title>Node42</title>
<g id="a_node42"><a xlink:title=" ">
<polygon fill="none" stroke="#bfbfbf" points="2569.87,-112.5 2569.87,-131.5 2639.87,-131.5 2639.87,-112.5 2569.87,-112.5"/>
<text text-anchor="middle" x="2604.87" y="-119.5" font-family="Helvetica,sans-Serif" font-size="10.00">QStringList</text>
</a>
</g>
</g>
<!-- Node1&#45;&gt;Node42 -->
<g id="edge77" class="edge">
<title>Node1&#45;&gt;Node42</title>
<path fill="none" stroke="midnightblue" d="M1703.43,-177.25C1855.82,-177.03 2234.22,-172.21 2559.32,-132"/>
<polygon fill="midnightblue" stroke="midnightblue" points="2559.92,-135.45 2569.41,-130.74 2559.05,-128.51 2559.92,-135.45"/>
</g>
<!-- Node43 -->
<g id="node43" class="node">
<title>Node43</title>
<g id="a_node43"><a xlink:title=" ">
<polygon fill="none" stroke="#bfbfbf" points="2657.87,-112.5 2657.87,-131.5 2713.87,-131.5 2713.87,-112.5 2657.87,-112.5"/>
<text text-anchor="middle" x="2685.87" y="-119.5" font-family="Helvetica,sans-Serif" font-size="10.00">QDebug</text>
</a>
</g>
</g>
<!-- Node1&#45;&gt;Node43 -->
<g id="edge78" class="edge">
<title>Node1&#45;&gt;Node43</title>
<path fill="none" stroke="midnightblue" d="M1703.58,-175.69C1897.34,-171.73 2446.49,-158.55 2647.53,-131.85"/>
<polygon fill="midnightblue" stroke="midnightblue" points="2648.27,-135.29 2657.7,-130.45 2647.32,-128.35 2648.27,-135.29"/>
</g>
<!-- Node44 -->
<g id="node44" class="node">
<title>Node44</title>
<g id="a_node44"><a xlink:title=" ">
<polygon fill="none" stroke="#bfbfbf" points="2731.87,-112.5 2731.87,-131.5 2769.87,-131.5 2769.87,-112.5 2731.87,-112.5"/>
<text text-anchor="middle" x="2750.87" y="-119.5" font-family="Helvetica,sans-Serif" font-size="10.00">QDir</text>
</a>
</g>
</g>
<!-- Node1&#45;&gt;Node44 -->
<g id="edge79" class="edge">
<title>Node1&#45;&gt;Node44</title>
<path fill="none" stroke="midnightblue" d="M1703.49,-176.58C1907.13,-174.94 2506.68,-167.32 2721.81,-131.61"/>
<polygon fill="midnightblue" stroke="midnightblue" points="2722.51,-135.05 2731.77,-129.89 2721.32,-128.15 2722.51,-135.05"/>
</g>
<!-- Node45 -->
<g id="node45" class="node">
<title>Node45</title>
<g id="a_node45"><a xlink:title=" ">
<polygon fill="none" stroke="#bfbfbf" points="2788.37,-112.5 2788.37,-131.5 2903.37,-131.5 2903.37,-112.5 2788.37,-112.5"/>
<text text-anchor="middle" x="2845.87" y="-119.5" font-family="Helvetica,sans-Serif" font-size="10.00">QRegularExpression</text>
</a>
</g>
</g>
<!-- Node1&#45;&gt;Node45 -->
<g id="edge80" class="edge">
<title>Node1&#45;&gt;Node45</title>
<path fill="none" stroke="midnightblue" d="M1703.68,-176.55C1880.31,-174.91 2364.3,-167.36 2778.1,-131.97"/>
<polygon fill="midnightblue" stroke="midnightblue" points="2778.5,-135.45 2788.17,-131.1 2777.9,-128.47 2778.5,-135.45"/>
</g>
<!-- Node2&#45;&gt;Node3 -->
<g id="edge2" class="edge">
<title>Node2&#45;&gt;Node3</title>
<path fill="none" stroke="midnightblue" d="M539.87,-58.65C484.39,-49.37 380.67,-32.03 314.83,-21.02"/>
<polygon fill="midnightblue" stroke="midnightblue" points="315.05,-17.51 304.61,-19.31 313.89,-24.42 315.05,-17.51"/>
</g>
<!-- Node4 -->
<g id="node4" class="node">
<title>Node4</title>
<g id="a_node4"><a xlink:title=" ">
<polygon fill="none" stroke="#bfbfbf" points="539.87,-0.5 539.87,-19.5 655.87,-19.5 655.87,-0.5 539.87,-0.5"/>
<text text-anchor="middle" x="597.87" y="-7.5" font-family="Helvetica,sans-Serif" font-size="10.00">opencv2/opencv.hpp</text>
</a>
</g>
</g>
<!-- Node2&#45;&gt;Node4 -->
<g id="edge3" class="edge">
<title>Node2&#45;&gt;Node4</title>
<path fill="none" stroke="midnightblue" d="M581.18,-56.08C583.85,-48.85 587.72,-38.41 591.06,-29.4"/>
<polygon fill="midnightblue" stroke="midnightblue" points="594.44,-30.34 594.63,-19.75 587.88,-27.91 594.44,-30.34"/>
</g>
<!-- Node5 -->
<g id="node5" class="node">
<title>Node5</title>
<g id="a_node5"><a xlink:title=" ">
<polygon fill="none" stroke="#bfbfbf" points="674.37,-0.5 674.37,-19.5 807.37,-19.5 807.37,-0.5 674.37,-0.5"/>
<text text-anchor="middle" x="740.87" y="-7.5" font-family="Helvetica,sans-Serif" font-size="10.00">rc_genicam_api/buffer.h</text>
</a>
</g>
</g>
<!-- Node2&#45;&gt;Node5 -->
<g id="edge4" class="edge">
<title>Node2&#45;&gt;Node5</title>
<path fill="none" stroke="midnightblue" d="M603.7,-56.44C631.12,-47.36 674.65,-32.94 705.3,-22.78"/>
<polygon fill="midnightblue" stroke="midnightblue" points="706.77,-25.98 715.17,-19.52 704.57,-19.34 706.77,-25.98"/>
</g>
<!-- Node2&#45;&gt;Node6 -->
<g id="edge5" class="edge">
<title>Node2&#45;&gt;Node6</title>
<path fill="none" stroke="midnightblue" d="M548.24,-56.44C516.37,-47.24 465.54,-32.56 430.31,-22.39"/>
<polygon fill="midnightblue" stroke="midnightblue" points="430.94,-18.93 420.36,-19.52 429,-25.65 430.94,-18.93"/>
</g>
<!-- Node7 -->
<g id="node7" class="node">
<title>Node7</title>
<g id="a_node7"><a xlink:title=" ">
<polygon fill="none" stroke="#bfbfbf" points="825.87,-0.5 825.87,-19.5 997.87,-19.5 997.87,-0.5 825.87,-0.5"/>
<text text-anchor="middle" x="911.87" y="-7.5" font-family="Helvetica,sans-Serif" font-size="10.00">rc_genicam_api/pixel_formats.h</text>
</a>
</g>
</g>
<!-- Node2&#45;&gt;Node7 -->
<g id="edge6" class="edge">
<title>Node2&#45;&gt;Node7</title>
<path fill="none" stroke="midnightblue" d="M615.92,-58.36C620.62,-57.55 625.35,-56.75 629.87,-56 704.27,-43.63 789.82,-30.07 847,-21.1"/>
<polygon fill="midnightblue" stroke="midnightblue" points="847.65,-24.55 856.99,-19.54 846.56,-17.63 847.65,-24.55"/>
</g>
<!-- Node2&#45;&gt;Node8 -->
<g id="edge7" class="edge">
<title>Node2&#45;&gt;Node8</title>
<path fill="none" stroke="midnightblue" d="M616.13,-57.8C620.75,-57.1 625.41,-56.48 629.87,-56 1011.14,-15.22 1108.84,-37.74 1491.87,-20 1540.9,-17.73 1597.54,-14.79 1633.28,-12.9"/>
<polygon fill="midnightblue" stroke="midnightblue" points="1633.87,-16.38 1643.67,-12.35 1633.5,-9.39 1633.87,-16.38"/>
</g>
<!-- Node9 -->
<g id="node9" class="node">
<title>Node9</title>
<g id="a_node9"><a xlink:title=" ">
<polygon fill="none" stroke="#bfbfbf" points="1015.87,-0.5 1015.87,-19.5 1065.87,-19.5 1065.87,-0.5 1015.87,-0.5"/>
<text text-anchor="middle" x="1040.87" y="-7.5" font-family="Helvetica,sans-Serif" font-size="10.00">cstdint</text>
</a>
</g>
</g>
<!-- Node2&#45;&gt;Node9 -->
<g id="edge8" class="edge">
<title>Node2&#45;&gt;Node9</title>
<path fill="none" stroke="midnightblue" d="M615.88,-58.08C620.58,-57.32 625.33,-56.61 629.87,-56 793.44,-34.07 839.4,-49.02 1005.64,-19.94"/>
<polygon fill="midnightblue" stroke="midnightblue" points="1006.49,-23.34 1015.72,-18.15 1005.27,-16.45 1006.49,-23.34"/>
</g>
<!-- Node2&#45;&gt;Node10 -->
<g id="edge9" class="edge">
<title>Node2&#45;&gt;Node10</title>
<path fill="none" stroke="midnightblue" d="M539.71,-61.97C472.47,-56.32 328.37,-42.79 197.46,-20.11"/>
<polygon fill="midnightblue" stroke="midnightblue" points="197.72,-16.6 187.26,-18.31 196.51,-23.49 197.72,-16.6"/>
</g>
<!-- Node11 -->
<g id="node11" class="node">
<title>Node11</title>
<g id="a_node11"><a xlink:title=" ">
<polygon fill="none" stroke="#bfbfbf" points="1434.87,-0.5 1434.87,-19.5 1482.87,-19.5 1482.87,-0.5 1434.87,-0.5"/>
<text text-anchor="middle" x="1458.87" y="-7.5" font-family="Helvetica,sans-Serif" font-size="10.00">mutex</text>
</a>
</g>
</g>
<!-- Node2&#45;&gt;Node11 -->
<g id="edge10" class="edge">
<title>Node2&#45;&gt;Node11</title>
<path fill="none" stroke="midnightblue" d="M616.14,-57.85C620.75,-57.15 625.41,-56.51 629.87,-56 787.79,-38.11 1288.81,-17.65 1424.63,-12.32"/>
<polygon fill="midnightblue" stroke="midnightblue" points="1424.99,-15.81 1434.85,-11.92 1424.72,-8.82 1424.99,-15.81"/>
</g>
<!-- Node2&#45;&gt;Node12 -->
<g id="edge11" class="edge">
<title>Node2&#45;&gt;Node12</title>
<path fill="none" stroke="midnightblue" d="M565.34,-56.32C553.29,-47.98 534.85,-35.21 520.6,-25.35"/>
<polygon fill="midnightblue" stroke="midnightblue" points="522.59,-22.47 512.37,-19.65 518.6,-28.22 522.59,-22.47"/>
</g>
<!-- Node13 -->
<g id="node13" class="node">
<title>Node13</title>
<g id="a_node13"><a xlink:title=" ">
<polygon fill="none" stroke="#bfbfbf" points="1084.37,-0.5 1084.37,-19.5 1131.37,-19.5 1131.37,-0.5 1084.37,-0.5"/>
<text text-anchor="middle" x="1107.87" y="-7.5" font-family="Helvetica,sans-Serif" font-size="10.00">vector</text>
</a>
</g>
</g>
<!-- Node2&#45;&gt;Node13 -->
<g id="edge12" class="edge">
<title>Node2&#45;&gt;Node13</title>
<path fill="none" stroke="midnightblue" d="M616.15,-57.97C620.76,-57.24 625.42,-56.56 629.87,-56 823.45,-31.47 877.64,-53.49 1074.12,-19.78"/>
<polygon fill="midnightblue" stroke="midnightblue" points="1074.95,-23.19 1084.2,-18.02 1073.75,-16.29 1074.95,-23.19"/>
</g>
<!-- Node2&#45;&gt;Node14 -->
<g id="edge13" class="edge">
<title>Node2&#45;&gt;Node14</title>
<path fill="none" stroke="midnightblue" d="M615.93,-60.64C631.94,-58.95 650.79,-57.15 667.87,-56 1127.11,-25.08 1243.43,-47.66 1702.87,-20 1726.2,-18.6 1752.39,-16.35 1772.78,-14.46"/>
<polygon fill="midnightblue" stroke="midnightblue" points="1773.24,-17.93 1782.86,-13.5 1772.58,-10.96 1773.24,-17.93"/>
</g>
<!-- Node15&#45;&gt;Node2 -->
<g id="edge15" class="edge">
<title>Node15&#45;&gt;Node2</title>
<path fill="none" stroke="midnightblue" d="M652.57,-112.32C638.69,-103.9 617.38,-90.97 601.07,-81.07"/>
<polygon fill="midnightblue" stroke="midnightblue" points="602.5,-77.85 592.14,-75.65 598.87,-83.83 602.5,-77.85"/>
</g>
<!-- Node15&#45;&gt;Node3 -->
<g id="edge20" class="edge">
<title>Node15&#45;&gt;Node3</title>
<path fill="none" stroke="midnightblue" d="M606.13,-117.71C502.14,-111.55 298.75,-96.96 273.87,-76 260.55,-64.77 256.28,-44.76 255.05,-29.89"/>
<polygon fill="midnightblue" stroke="midnightblue" points="258.54,-29.6 254.61,-19.76 251.55,-29.91 258.54,-29.6"/>
</g>
<!-- Node15&#45;&gt;Node6 -->
<g id="edge18" class="edge">
<title>Node15&#45;&gt;Node6</title>
<path fill="none" stroke="midnightblue" d="M629.49,-112.5C597.62,-104.7 550.91,-91.95 511.87,-76 476.01,-61.35 436.94,-39.12 413.18,-24.83"/>
<polygon fill="midnightblue" stroke="midnightblue" points="414.93,-21.8 404.56,-19.6 411.29,-27.78 414.93,-21.8"/>
</g>
<!-- Node15&#45;&gt;Node8 -->
<g id="edge29" class="edge">
<title>Node15&#45;&gt;Node8</title>
<path fill="none" stroke="midnightblue" d="M663.77,-112.45C659.34,-98.54 653.24,-71.05 667.87,-56 699.81,-23.14 1446.1,-22.16 1491.87,-20 1540.89,-17.68 1597.54,-14.76 1633.28,-12.88"/>
<polygon fill="midnightblue" stroke="midnightblue" points="1633.87,-16.36 1643.67,-12.34 1633.5,-9.37 1633.87,-16.36"/>
</g>
<!-- Node15&#45;&gt;Node10 -->
<g id="edge22" class="edge">
<title>Node15&#45;&gt;Node10</title>
<path fill="none" stroke="midnightblue" d="M606.12,-117.82C508.09,-112.11 319.62,-98.56 256.87,-76 225.33,-64.66 193.81,-41.4 175.08,-26"/>
<polygon fill="midnightblue" stroke="midnightblue" points="177.32,-23.32 167.42,-19.55 172.81,-28.67 177.32,-23.32"/>
</g>
<!-- Node15&#45;&gt;Node12 -->
<g id="edge23" class="edge">
<title>Node15&#45;&gt;Node12</title>
<path fill="none" stroke="midnightblue" d="M608.75,-112.46C582.46,-106.11 552.51,-95.08 530.87,-76 517.12,-63.88 508.95,-44.32 504.48,-29.82"/>
<polygon fill="midnightblue" stroke="midnightblue" points="507.79,-28.63 501.76,-19.92 501.04,-30.49 507.79,-28.63"/>
</g>
<!-- Node15&#45;&gt;Node14 -->
<g id="edge25" class="edge">
<title>Node15&#45;&gt;Node14</title>
<path fill="none" stroke="midnightblue" d="M668.64,-112.37C672.13,-97.82 681.41,-68.73 701.87,-56 749.13,-26.61 1647.33,-23.38 1702.87,-20 1726.2,-18.58 1752.39,-16.34 1772.78,-14.45"/>
<polygon fill="midnightblue" stroke="midnightblue" points="1773.24,-17.92 1782.86,-13.49 1772.58,-10.95 1773.24,-17.92"/>
</g>
<!-- Node15&#45;&gt;Node16 -->
<g id="edge16" class="edge">
<title>Node15&#45;&gt;Node16</title>
<path fill="none" stroke="midnightblue" d="M695.24,-112.44C725.61,-103.28 773.98,-88.69 807.69,-78.52"/>
<polygon fill="midnightblue" stroke="midnightblue" points="809.08,-81.76 817.64,-75.52 807.06,-75.05 809.08,-81.76"/>
</g>
<!-- Node15&#45;&gt;Node17 -->
<g id="edge17" class="edge">
<title>Node15&#45;&gt;Node17</title>
<path fill="none" stroke="midnightblue" d="M721.06,-112.44C781.85,-102.85 880.36,-87.29 944.88,-77.1"/>
<polygon fill="midnightblue" stroke="midnightblue" points="945.6,-80.53 954.94,-75.52 944.51,-73.62 945.6,-80.53"/>
</g>
<!-- Node15&#45;&gt;Node18 -->
<g id="edge19" class="edge">
<title>Node15&#45;&gt;Node18</title>
<path fill="none" stroke="midnightblue" d="M727.4,-114.73C817.93,-105.34 989.28,-87.58 1095.51,-76.57"/>
<polygon fill="midnightblue" stroke="midnightblue" points="1095.99,-80.04 1105.58,-75.53 1095.27,-73.08 1095.99,-80.04"/>
</g>
<!-- Node15&#45;&gt;Node19 -->
<g id="edge21" class="edge">
<title>Node15&#45;&gt;Node19</title>
<path fill="none" stroke="midnightblue" d="M727.55,-119.66C836.67,-116.57 1073.34,-106.81 1281.82,-75.93"/>
<polygon fill="midnightblue" stroke="midnightblue" points="1282.36,-79.38 1291.73,-74.44 1281.32,-72.46 1282.36,-79.38"/>
</g>
<!-- Node15&#45;&gt;Node20 -->
<g id="edge24" class="edge">
<title>Node15&#45;&gt;Node20</title>
<path fill="none" stroke="midnightblue" d="M606.01,-118.4C508.27,-113.68 310.19,-101.83 132.85,-75.96"/>
<polygon fill="midnightblue" stroke="midnightblue" points="133.22,-72.47 122.82,-74.47 132.2,-79.4 133.22,-72.47"/>
</g>
<!-- Node15&#45;&gt;Node21 -->
<g id="edge26" class="edge">
<title>Node15&#45;&gt;Node21</title>
<path fill="none" stroke="midnightblue" d="M606.1,-117.75C517.12,-112.39 346.38,-99.84 202.87,-76 201.59,-75.79 200.29,-75.56 198.98,-75.31"/>
<polygon fill="midnightblue" stroke="midnightblue" points="199.4,-71.82 188.9,-73.21 197.97,-78.68 199.4,-71.82"/>
</g>
<!-- Node15&#45;&gt;Node22 -->
<g id="edge27" class="edge">
<title>Node15&#45;&gt;Node22</title>
<path fill="none" stroke="midnightblue" d="M727.46,-119.58C903.03,-115.24 1410.92,-100.96 1597.72,-75.84"/>
<polygon fill="midnightblue" stroke="midnightblue" points="1598.28,-79.29 1607.7,-74.44 1597.31,-72.36 1598.28,-79.29"/>
</g>
<!-- Node23 -->
<g id="node23" class="node">
<title>Node23</title>
<g id="a_node23"><a xlink:title=" ">
<polygon fill="none" stroke="#bfbfbf" points="394.37,-56.5 394.37,-75.5 445.37,-75.5 445.37,-56.5 394.37,-56.5"/>
<text text-anchor="middle" x="419.87" y="-63.5" font-family="Helvetica,sans-Serif" font-size="10.00">csignal</text>
</a>
</g>
</g>
<!-- Node15&#45;&gt;Node23 -->
<g id="edge28" class="edge">
<title>Node15&#45;&gt;Node23</title>
<path fill="none" stroke="midnightblue" d="M627.17,-112.46C585.49,-103.47 518.04,-88.87 459.87,-76 458.44,-75.68 456.98,-75.36 455.5,-75.03"/>
<polygon fill="midnightblue" stroke="midnightblue" points="456.21,-71.6 445.69,-72.84 454.68,-78.43 456.21,-71.6"/>
</g>
<!-- Node15&#45;&gt;Node24 -->
<g id="edge30" class="edge">
<title>Node15&#45;&gt;Node24</title>
<path fill="none" stroke="midnightblue" d="M727.52,-119.95C888.23,-116.82 1323.3,-105.93 1485.82,-75.54"/>
<polygon fill="midnightblue" stroke="midnightblue" points="1486.52,-78.97 1495.66,-73.6 1485.17,-72.1 1486.52,-78.97"/>
</g>
<!-- Node25 -->
<g id="node25" class="node">
<title>Node25</title>
<g id="a_node25"><a xlink:title=" ">
<polygon fill="none" stroke="#bfbfbf" points="283.37,-56.5 283.37,-75.5 376.37,-75.5 376.37,-56.5 283.37,-56.5"/>
<text text-anchor="middle" x="329.87" y="-63.5" font-family="Helvetica,sans-Serif" font-size="10.00">unordered_map</text>
</a>
</g>
</g>
<!-- Node15&#45;&gt;Node25 -->
<g id="edge31" class="edge">
<title>Node15&#45;&gt;Node25</title>
<path fill="none" stroke="midnightblue" d="M613.06,-112.48C558.47,-103.82 471.24,-89.94 386.44,-76.25"/>
<polygon fill="midnightblue" stroke="midnightblue" points="386.81,-72.76 376.38,-74.62 385.69,-79.67 386.81,-72.76"/>
</g>
<!-- Node15&#45;&gt;Node26 -->
<g id="edge32" class="edge">
<title>Node15&#45;&gt;Node26</title>
<path fill="none" stroke="midnightblue" d="M677.64,-112.32C687.64,-104.26 702.76,-92.08 714.8,-82.37"/>
<polygon fill="midnightblue" stroke="midnightblue" points="717.32,-84.83 722.91,-75.83 712.93,-79.38 717.32,-84.83"/>
</g>
<!-- Node27&#45;&gt;Node2 -->
<g id="edge34" class="edge">
<title>Node27&#45;&gt;Node2</title>
<path fill="none" stroke="midnightblue" d="M1361.24,-117.63C1240.19,-110.38 947.3,-92.62 701.87,-76 676.94,-74.31 649.2,-72.31 626.29,-70.62"/>
<polygon fill="midnightblue" stroke="midnightblue" points="626.36,-67.12 616.13,-69.87 625.84,-74.1 626.36,-67.12"/>
</g>
<!-- Node27&#45;&gt;Node6 -->
<g id="edge37" class="edge">
<title>Node27&#45;&gt;Node6</title>
<path fill="none" stroke="midnightblue" d="M1413.33,-112.25C1405.14,-97.52 1386.33,-68.16 1360.87,-56 1273.81,-14.42 605.78,-26.94 469.92,-19.87"/>
<polygon fill="midnightblue" stroke="midnightblue" points="469.95,-16.37 459.75,-19.23 469.51,-23.35 469.95,-16.37"/>
</g>
<!-- Node27&#45;&gt;Node16 -->
<g id="edge35" class="edge">
<title>Node27&#45;&gt;Node16</title>
<path fill="none" stroke="midnightblue" d="M1361.02,-116.19C1271.25,-108.5 1090.9,-92.72 926.82,-76.08"/>
<polygon fill="midnightblue" stroke="midnightblue" points="926.84,-72.56 916.53,-75.03 926.13,-79.52 926.84,-72.56"/>
</g>
<!-- Node27&#45;&gt;Node17 -->
<g id="edge36" class="edge">
<title>Node27&#45;&gt;Node17</title>
<path fill="none" stroke="midnightblue" d="M1361,-113.49C1288.59,-103.93 1163.31,-87.39 1083.34,-76.83"/>
<polygon fill="midnightblue" stroke="midnightblue" points="1083.71,-73.35 1073.34,-75.51 1082.8,-80.29 1083.71,-73.35"/>
</g>
<!-- Node27&#45;&gt;Node18 -->
<g id="edge38" class="edge">
<title>Node27&#45;&gt;Node18</title>
<path fill="none" stroke="midnightblue" d="M1381.43,-112.44C1341.47,-103.06 1277.29,-87.99 1233.89,-77.8"/>
<polygon fill="midnightblue" stroke="midnightblue" points="1234.68,-74.39 1224.15,-75.52 1233.08,-81.21 1234.68,-74.39"/>
</g>
<!-- Node27&#45;&gt;Node19 -->
<g id="edge39" class="edge">
<title>Node27&#45;&gt;Node19</title>
<path fill="none" stroke="midnightblue" d="M1402.45,-112.32C1387.33,-103.82 1364.06,-90.73 1346.4,-80.8"/>
<polygon fill="midnightblue" stroke="midnightblue" points="1347.69,-77.51 1337.26,-75.65 1344.26,-83.61 1347.69,-77.51"/>
</g>
<!-- Node27&#45;&gt;Node22 -->
<g id="edge43" class="edge">
<title>Node27&#45;&gt;Node22</title>
<path fill="none" stroke="midnightblue" d="M1452.42,-112.44C1492.04,-102.63 1556.81,-86.59 1597.84,-76.42"/>
<polygon fill="midnightblue" stroke="midnightblue" points="1598.87,-79.77 1607.73,-73.97 1597.18,-72.98 1598.87,-79.77"/>
</g>
<!-- Node27&#45;&gt;Node24 -->
<g id="edge41" class="edge">
<title>Node27&#45;&gt;Node24</title>
<path fill="none" stroke="midnightblue" d="M1432.98,-112.32C1447.78,-103.82 1470.57,-90.73 1487.85,-80.8"/>
<polygon fill="midnightblue" stroke="midnightblue" points="1489.88,-83.67 1496.81,-75.65 1486.39,-77.6 1489.88,-83.67"/>
</g>
<!-- Node28 -->
<g id="node28" class="node">
<title>Node28</title>
<g id="a_node28"><a xlink:title=" ">
<polygon fill="none" stroke="#bfbfbf" points="1681.87,-56.5 1681.87,-75.5 1737.87,-75.5 1737.87,-56.5 1681.87,-56.5"/>
<text text-anchor="middle" x="1709.87" y="-63.5" font-family="Helvetica,sans-Serif" font-size="10.00">sstream</text>
</a>
</g>
</g>
<!-- Node27&#45;&gt;Node28 -->
<g id="edge40" class="edge">
<title>Node27&#45;&gt;Node28</title>
<path fill="none" stroke="midnightblue" d="M1472.29,-112.43C1521.82,-104.4 1597.19,-91.59 1671.62,-76.16"/>
<polygon fill="midnightblue" stroke="midnightblue" points="1672.56,-79.54 1681.63,-74.07 1671.13,-72.69 1672.56,-79.54"/>
</g>
<!-- Node29 -->
<g id="node29" class="node">
<title>Node29</title>
<g id="a_node29"><a xlink:title=" ">
<polygon fill="none" stroke="#bfbfbf" points="1408.37,-56.5 1408.37,-75.5 1477.37,-75.5 1477.37,-56.5 1408.37,-56.5"/>
<text text-anchor="middle" x="1442.87" y="-63.5" font-family="Helvetica,sans-Serif" font-size="10.00">arpa/inet.h</text>
</a>
</g>
</g>
<!-- Node27&#45;&gt;Node29 -->
<g id="edge42" class="edge">
<title>Node27&#45;&gt;Node29</title>
<path fill="none" stroke="midnightblue" d="M1422,-112.08C1425.39,-104.77 1430.29,-94.18 1434.49,-85.1"/>
<polygon fill="midnightblue" stroke="midnightblue" points="1437.8,-86.3 1438.82,-75.75 1431.44,-83.36 1437.8,-86.3"/>
</g>
<!-- Node30 -->
<g id="node30" class="node">
<title>Node30</title>
<g id="a_node30"><a xlink:title=" ">
<polygon fill="none" stroke="#bfbfbf" points="1545.87,-56.5 1545.87,-75.5 1589.87,-75.5 1589.87,-56.5 1545.87,-56.5"/>
<text text-anchor="middle" x="1567.87" y="-63.5" font-family="Helvetica,sans-Serif" font-size="10.00">regex</text>
</a>
</g>
</g>
<!-- Node27&#45;&gt;Node30 -->
<g id="edge44" class="edge">
<title>Node27&#45;&gt;Node30</title>
<path fill="none" stroke="midnightblue" d="M1441.64,-112.44C1467.21,-103.24 1507.99,-88.56 1536.25,-78.38"/>
<polygon fill="midnightblue" stroke="midnightblue" points="1537.46,-81.67 1545.68,-74.99 1535.09,-75.08 1537.46,-81.67"/>
</g>
<!-- Node31&#45;&gt;Node8 -->
<g id="edge46" class="edge">
<title>Node31&#45;&gt;Node8</title>
<path fill="none" stroke="midnightblue" d="M1682.33,-112.45C1733.69,-102.72 1809.42,-86.78 1817.87,-76 1850.11,-34.87 1757.77,-19.24 1704.2,-13.73"/>
<polygon fill="midnightblue" stroke="midnightblue" points="1704.33,-10.23 1694.05,-12.76 1703.67,-17.2 1704.33,-10.23"/>
</g>
<!-- Node31&#45;&gt;Node11 -->
<g id="edge47" class="edge">
<title>Node31&#45;&gt;Node11</title>
<path fill="none" stroke="midnightblue" d="M1682.83,-112.43C1720.38,-104.63 1768.15,-91.92 1779.87,-76 1785.14,-68.84 1785.71,-62.71 1779.87,-56 1761.25,-34.58 1572.59,-18.97 1493.49,-13.32"/>
<polygon fill="midnightblue" stroke="midnightblue" points="1493.3,-9.8 1483.08,-12.59 1492.81,-16.78 1493.3,-9.8"/>
</g>
<!-- Node31&#45;&gt;Node12 -->
<g id="edge48" class="edge">
<title>Node31&#45;&gt;Node12</title>
<path fill="none" stroke="midnightblue" d="M1676.31,-112.48C1718.06,-102.16 1772.87,-82.78 1746.87,-56 1701.27,-9.02 665.49,-29.14 532.1,-19.23"/>
<polygon fill="midnightblue" stroke="midnightblue" points="532.38,-15.74 522.07,-18.17 531.65,-22.7 532.38,-15.74"/>
</g>
<!-- Node31&#45;&gt;Node14 -->
<g id="edge50" class="edge">
<title>Node31&#45;&gt;Node14</title>
<path fill="none" stroke="midnightblue" d="M1689.66,-116.25C1742.48,-110.4 1816.97,-98.37 1834.87,-76 1846.38,-61.62 1834.98,-41.64 1823.65,-27.64"/>
<polygon fill="midnightblue" stroke="midnightblue" points="1826.03,-25.04 1816.82,-19.8 1820.75,-29.64 1826.03,-25.04"/>
</g>
<!-- Node31&#45;&gt;Node22 -->
<g id="edge51" class="edge">
<title>Node31&#45;&gt;Node22</title>
<path fill="none" stroke="midnightblue" d="M1635.04,-112.08C1635.17,-105.01 1635.36,-94.86 1635.52,-85.99"/>
<polygon fill="midnightblue" stroke="midnightblue" points="1639.02,-85.81 1635.71,-75.75 1632.03,-85.68 1639.02,-85.81"/>
</g>
<!-- Node31&#45;&gt;Node28 -->
<g id="edge49" class="edge">
<title>Node31&#45;&gt;Node28</title>
<path fill="none" stroke="midnightblue" d="M1646.92,-112.32C1658.34,-104.11 1675.7,-91.6 1689.31,-81.81"/>
<polygon fill="midnightblue" stroke="midnightblue" points="1691.53,-84.52 1697.6,-75.83 1687.44,-78.84 1691.53,-84.52"/>
</g>
</g>
</svg>
