<?xml version="1.0" encoding="UTF-8" standalone="no"?>
<!DOCTYPE svg PUBLIC "-//W3C//DTD SVG 1.1//EN"
 "http://www.w3.org/Graphics/SVG/1.1/DTD/svg11.dtd">
<!-- Generated by graphviz version 2.43.0 (0)
 -->
<!-- Title: src/NetworkManager.hpp Pages: 1 -->
<svg width="542pt" height="196pt"
 viewBox="0.00 0.00 541.50 196.00" xmlns="http://www.w3.org/2000/svg" xmlns:xlink="http://www.w3.org/1999/xlink">
<g id="graph0" class="graph" transform="scale(1 1) rotate(0) translate(4 192)">
<title>src/NetworkManager.hpp</title>
<!-- Node1 -->
<g id="node1" class="node">
<title>Node1</title>
<g id="a_node1"><a xlink:title=" ">
<polygon fill="#bfbfbf" stroke="black" points="190.5,-168.5 190.5,-187.5 328.5,-187.5 328.5,-168.5 190.5,-168.5"/>
<text text-anchor="middle" x="259.5" y="-175.5" font-family="Helvetica,sans-Serif" font-size="10.00">src/NetworkManager.hpp</text>
</a>
</g>
</g>
<!-- Node2 -->
<g id="node2" class="node">
<title>Node2</title>
<g id="a_node2"><a xlink:href="NetworkManager_8cpp.html" target="_top" xlink:title=" ">
<polygon fill="none" stroke="black" points="0,-112.5 0,-131.5 137,-131.5 137,-112.5 0,-112.5"/>
<text text-anchor="middle" x="68.5" y="-119.5" font-family="Helvetica,sans-Serif" font-size="10.00">src/NetworkManager.cpp</text>
</a>
</g>
</g>
<!-- Node1&#45;&gt;Node2 -->
<g id="edge1" class="edge">
<title>Node1&#45;&gt;Node2</title>
<path fill="none" stroke="midnightblue" d="M219.53,-165.7C183.48,-155.51 131.26,-140.74 98.62,-131.52"/>
<polygon fill="midnightblue" stroke="midnightblue" points="218.66,-169.09 229.24,-168.44 220.56,-162.35 218.66,-169.09"/>
</g>
<!-- Node3 -->
<g id="node3" class="node">
<title>Node3</title>
<g id="a_node3"><a xlink:href="StreamManager_8hpp.html" target="_top" xlink:title=" ">
<polygon fill="none" stroke="black" points="240.5,-112.5 240.5,-131.5 372.5,-131.5 372.5,-112.5 240.5,-112.5"/>
<text text-anchor="middle" x="306.5" y="-119.5" font-family="Helvetica,sans-Serif" font-size="10.00">src/StreamManager.hpp</text>
</a>
</g>
</g>
<!-- Node1&#45;&gt;Node3 -->
<g id="edge2" class="edge">
<title>Node1&#45;&gt;Node3</title>
<path fill="none" stroke="midnightblue" d="M273.92,-160.43C282.16,-150.97 292.15,-139.48 298.88,-131.75"/>
<polygon fill="midnightblue" stroke="midnightblue" points="271.19,-158.24 267.26,-168.08 276.47,-162.84 271.19,-158.24"/>
</g>
<!-- Node5 -->
<g id="node5" class="node">
<title>Node5</title>
<g id="a_node5"><a xlink:href="SystemManager_8cpp.html" target="_top" xlink:title=" ">
<polygon fill="none" stroke="black" points="272,-0.5 272,-19.5 405,-19.5 405,-0.5 272,-0.5"/>
<text text-anchor="middle" x="338.5" y="-7.5" font-family="Helvetica,sans-Serif" font-size="10.00">src/SystemManager.cpp</text>
</a>
</g>
</g>
<!-- Node1&#45;&gt;Node5 -->
<g id="edge9" class="edge">
<title>Node1&#45;&gt;Node5</title>
<path fill="none" stroke="midnightblue" d="M238.49,-162.25C207.82,-138.9 157.25,-92.36 184.5,-56 196.82,-39.56 246.07,-27.13 285.6,-19.54"/>
<polygon fill="midnightblue" stroke="midnightblue" points="236.77,-165.33 246.9,-168.45 240.93,-159.7 236.77,-165.33"/>
</g>
<!-- Node6 -->
<g id="node6" class="node">
<title>Node6</title>
<g id="a_node6"><a xlink:href="SystemManager_8hpp.html" target="_top" xlink:title=" ">
<polygon fill="none" stroke="black" points="381.5,-56.5 381.5,-75.5 515.5,-75.5 515.5,-56.5 381.5,-56.5"/>
<text text-anchor="middle" x="448.5" y="-63.5" font-family="Helvetica,sans-Serif" font-size="10.00">src/SystemManager.hpp</text>
</a>
</g>
</g>
<!-- Node1&#45;&gt;Node6 -->
<g id="edge10" class="edge">
<title>Node1&#45;&gt;Node6</title>
<path fill="none" stroke="midnightblue" d="M303.49,-165.64C327.65,-158.24 357.49,-147.12 381.5,-132 406.74,-116.11 430.31,-89.49 441.57,-75.76"/>
<polygon fill="midnightblue" stroke="midnightblue" points="302.45,-162.3 293.86,-168.49 304.44,-169.01 302.45,-162.3"/>
</g>
<!-- Node4 -->
<g id="node4" class="node">
<title>Node4</title>
<g id="a_node4"><a xlink:href="StreamManager_8cpp.html" target="_top" xlink:title=" ">
<polygon fill="none" stroke="black" points="194,-56.5 194,-75.5 325,-75.5 325,-56.5 194,-56.5"/>
<text text-anchor="middle" x="259.5" y="-63.5" font-family="Helvetica,sans-Serif" font-size="10.00">src/StreamManager.cpp</text>
</a>
</g>
</g>
<!-- Node3&#45;&gt;Node4 -->
<g id="edge3" class="edge">
<title>Node3&#45;&gt;Node4</title>
<path fill="none" stroke="midnightblue" d="M292.08,-104.43C283.84,-94.97 273.85,-83.48 267.12,-75.75"/>
<polygon fill="midnightblue" stroke="midnightblue" points="289.53,-106.84 298.74,-112.08 294.81,-102.24 289.53,-106.84"/>
</g>
<!-- Node3&#45;&gt;Node5 -->
<g id="edge4" class="edge">
<title>Node3&#45;&gt;Node5</title>
<path fill="none" stroke="midnightblue" d="M319.73,-104.22C325.33,-96.15 331.29,-86.06 334.5,-76 340.69,-56.61 340.15,-32.35 339.29,-19.66"/>
<polygon fill="midnightblue" stroke="midnightblue" points="316.84,-102.23 313.72,-112.35 322.48,-106.38 316.84,-102.23"/>
</g>
<!-- Node3&#45;&gt;Node6 -->
<g id="edge5" class="edge">
<title>Node3&#45;&gt;Node6</title>
<path fill="none" stroke="midnightblue" d="M338.66,-108.77C365.33,-98.63 402.57,-84.47 426.1,-75.52"/>
<polygon fill="midnightblue" stroke="midnightblue" points="337.1,-105.62 329,-112.44 339.59,-112.16 337.1,-105.62"/>
</g>
<!-- Node6&#45;&gt;Node5 -->
<g id="edge7" class="edge">
<title>Node6&#45;&gt;Node5</title>
<path fill="none" stroke="midnightblue" d="M421.74,-51.86C401.34,-41.85 373.83,-28.35 356.13,-19.65"/>
<polygon fill="midnightblue" stroke="midnightblue" points="420.31,-55.06 430.83,-56.32 423.39,-48.78 420.31,-55.06"/>
</g>
<!-- Node6&#45;&gt;Node6 -->
<g id="edge8" class="edge">
<title>Node6&#45;&gt;Node6</title>
<path fill="none" stroke="midnightblue" d="M494.77,-76.33C515.53,-77.33 533.5,-73.88 533.5,-66 533.5,-56.87 509.39,-53.69 484.75,-56.47"/>
<polygon fill="midnightblue" stroke="midnightblue" points="495,-72.84 484.75,-75.53 494.44,-79.82 495,-72.84"/>
</g>
<!-- Node7 -->
<g id="node7" class="node">
<title>Node7</title>
<g id="a_node7"><a xlink:href="main_8cpp.html" target="_top" xlink:title=" ">
<polygon fill="none" stroke="black" points="423,-0.5 423,-19.5 502,-19.5 502,-0.5 423,-0.5"/>
<text text-anchor="middle" x="462.5" y="-7.5" font-family="Helvetica,sans-Serif" font-size="10.00">src/main.cpp</text>
</a>
</g>
</g>
<!-- Node6&#45;&gt;Node7 -->
<g id="edge6" class="edge">
<title>Node6&#45;&gt;Node7</title>
<path fill="none" stroke="midnightblue" d="M453.32,-46.4C455.67,-37.36 458.37,-26.94 460.23,-19.75"/>
<polygon fill="midnightblue" stroke="midnightblue" points="449.93,-45.52 450.81,-56.08 456.71,-47.28 449.93,-45.52"/>
</g>
</g>
</svg>
