<?xml version="1.0" encoding="UTF-8" standalone="no"?>
<!DOCTYPE svg PUBLIC "-//W3C//DTD SVG 1.1//EN"
 "http://www.w3.org/Graphics/SVG/1.1/DTD/svg11.dtd">
<!-- Generated by graphviz version 2.43.0 (0)
 -->
<!-- Title: src/SystemManager.cpp Pages: 1 -->
<!--zoomable 308 -->
<svg id="main" version="1.1" xmlns="http://www.w3.org/2000/svg" xmlns:xlink="http://www.w3.org/1999/xlink" xml:space="preserve" onload="init(evt)">
<style type="text/css"><![CDATA[
.edge:hover path { stroke: red; }
.edge:hover polygon { stroke: red; fill: red; }
]]></style>
<script type="text/javascript"><![CDATA[
var edges = document.getElementsByTagName('g');
if (edges && edges.length) {
  for (var i=0;i<edges.length;i++) {
    if (edges[i].id.substr(0,4)=='edge') {
      edges[i].setAttribute('class','edge');
    }
  }
}
]]></script>
        <defs>
                <circle id="rim" cx="0" cy="0" r="7"/>
                <circle id="rim2" cx="0" cy="0" r="3.5"/>
                <g id="zoomPlus">
                        <use xlink:href="#rim" fill="#404040">
                                <set attributeName="fill" to="#808080" begin="zoomplus.mouseover" end="zoomplus.mouseout"/>
                        </use>
                        <path d="M-4,0h8M0,-4v8" fill="none" stroke="white" stroke-width="1.5" pointer-events="none"/>
                </g>
                <g id="zoomMin">
                        <use xlink:href="#rim" fill="#404040">
                                <set attributeName="fill" to="#808080" begin="zoomminus.mouseover" end="zoomminus.mouseout"/>
                        </use>
                        <path d="M-4,0h8" fill="none" stroke="white" stroke-width="1.5" pointer-events="none"/>
                </g>
                <g id="dirArrow">
                        <path fill="none" stroke="white" stroke-width="1.5" d="M0,-3.0v7 M-2.5,-0.5L0,-3.0L2.5,-0.5"/>
                </g>
               <g id="resetDef">
                       <use xlink:href="#rim2" fill="#404040">
                               <set attributeName="fill" to="#808080" begin="reset.mouseover" end="reset.mouseout"/>
                       </use>
               </g>
        </defs>

<script type="text/javascript">
var viewWidth = 2395;
var viewHeight = 308;
var sectionId = 'dynsection-0';
</script>
<script xlink:href="svgpan.js"/>
<svg id="graph" class="graph">
<g id="viewport">
<title>src/SystemManager.cpp</title>
<!-- Node1 -->
<g id="node1" class="node">
<title>Node1</title>
<g id="a_node1"><a xlink:title=" ">
<polygon fill="#bfbfbf" stroke="black" points="944.5,-280.5 944.5,-299.5 1077.5,-299.5 1077.5,-280.5 944.5,-280.5"/>
<text text-anchor="middle" x="1011" y="-287.5" font-family="Helvetica,sans-Serif" font-size="10.00">src/SystemManager.cpp</text>
</a>
</g>
</g>
<!-- Node2 -->
<g id="node2" class="node">
<title>Node2</title>
<g id="a_node2"><a xlink:href="SystemManager_8hpp.html" target="_top" xlink:title=" ">
<polygon fill="none" stroke="black" points="801,-224.5 801,-243.5 917,-243.5 917,-224.5 801,-224.5"/>
<text text-anchor="middle" x="859" y="-231.5" font-family="Helvetica,sans-Serif" font-size="10.00">SystemManager.hpp</text>
</a>
</g>
</g>
<!-- Node1&#45;&gt;Node2 -->
<g id="edge1" class="edge">
<title>Node1&#45;&gt;Node2</title>
<path fill="none" stroke="midnightblue" d="M986.92,-280.44C961.46,-271.4 921.11,-257.06 892.54,-246.92"/>
<polygon fill="midnightblue" stroke="midnightblue" points="893.57,-243.57 882.97,-243.52 891.22,-250.16 893.57,-243.57"/>
</g>
<!-- Node3 -->
<g id="node3" class="node">
<title>Node3</title>
<g id="a_node3"><a xlink:href="DeviceManager_8hpp.html" target="_top" xlink:title=" ">
<polygon fill="none" stroke="black" points="1542.5,-112.5 1542.5,-131.5 1655.5,-131.5 1655.5,-112.5 1542.5,-112.5"/>
<text text-anchor="middle" x="1599" y="-119.5" font-family="Helvetica,sans-Serif" font-size="10.00">DeviceManager.hpp</text>
</a>
</g>
</g>
<!-- Node1&#45;&gt;Node3 -->
<g id="edge66" class="edge">
<title>Node1&#45;&gt;Node3</title>
<path fill="none" stroke="midnightblue" d="M1041.38,-280.42C1139.55,-252.71 1448.35,-165.53 1559.03,-134.28"/>
<polygon fill="midnightblue" stroke="midnightblue" points="1560.13,-137.61 1568.81,-131.52 1558.23,-130.87 1560.13,-137.61"/>
</g>
<!-- Node4 -->
<g id="node4" class="node">
<title>Node4</title>
<g id="a_node4"><a xlink:href="Camera_8hpp.html" target="_top" xlink:title=" ">
<polygon fill="none" stroke="black" points="699,-56.5 699,-75.5 775,-75.5 775,-56.5 699,-56.5"/>
<text text-anchor="middle" x="737" y="-63.5" font-family="Helvetica,sans-Serif" font-size="10.00">Camera.hpp</text>
</a>
</g>
</g>
<!-- Node1&#45;&gt;Node4 -->
<g id="edge69" class="edge">
<title>Node1&#45;&gt;Node4</title>
<path fill="none" stroke="midnightblue" d="M1003.24,-280.42C978.39,-253.28 897.8,-167.81 819,-112 801.72,-99.76 780.77,-88.31 764.37,-80.03"/>
<polygon fill="midnightblue" stroke="midnightblue" points="765.81,-76.84 755.3,-75.53 762.7,-83.11 765.81,-76.84"/>
</g>
<!-- Node10 -->
<g id="node10" class="node">
<title>Node10</title>
<g id="a_node10"><a xlink:title=" ">
<polygon fill="none" stroke="#bfbfbf" points="155,-0.5 155,-19.5 205,-19.5 205,-0.5 155,-0.5"/>
<text text-anchor="middle" x="180" y="-7.5" font-family="Helvetica,sans-Serif" font-size="10.00">atomic</text>
</a>
</g>
</g>
<!-- Node1&#45;&gt;Node10 -->
<g id="edge85" class="edge">
<title>Node1&#45;&gt;Node10</title>
<path fill="none" stroke="midnightblue" d="M944.27,-288.76C718.91,-287.09 0,-274.29 0,-179 0,-179 0,-179 0,-121 0,-53.7 92.74,-26.34 145.08,-16.26"/>
<polygon fill="midnightblue" stroke="midnightblue" points="145.76,-19.69 154.97,-14.47 144.51,-12.81 145.76,-19.69"/>
</g>
<!-- Node12 -->
<g id="node12" class="node">
<title>Node12</title>
<g id="a_node12"><a xlink:title=" ">
<polygon fill="none" stroke="#bfbfbf" points="1981,-0.5 1981,-19.5 2039,-19.5 2039,-0.5 1981,-0.5"/>
<text text-anchor="middle" x="2010" y="-7.5" font-family="Helvetica,sans-Serif" font-size="10.00">memory</text>
</a>
</g>
</g>
<!-- Node1&#45;&gt;Node12 -->
<g id="edge81" class="edge">
<title>Node1&#45;&gt;Node12</title>
<path fill="none" stroke="midnightblue" d="M1077.58,-287.61C1280.5,-283.17 1889.35,-268.13 2086,-244 2221.84,-227.33 2387,-315.86 2387,-179 2387,-179 2387,-179 2387,-121 2387,-80.77 2359.84,-74.28 2324,-56 2276.72,-31.88 2122.6,-18.57 2049.35,-13.47"/>
<polygon fill="midnightblue" stroke="midnightblue" points="2049.37,-9.96 2039.15,-12.77 2048.89,-16.94 2049.37,-9.96"/>
</g>
<!-- Node14 -->
<g id="node14" class="node">
<title>Node14</title>
<g id="a_node14"><a xlink:title=" ">
<polygon fill="none" stroke="#bfbfbf" points="1115,-0.5 1115,-19.5 1159,-19.5 1159,-0.5 1115,-0.5"/>
<text text-anchor="middle" x="1137" y="-7.5" font-family="Helvetica,sans-Serif" font-size="10.00">string</text>
</a>
</g>
</g>
<!-- Node1&#45;&gt;Node14 -->
<g id="edge82" class="edge">
<title>Node1&#45;&gt;Node14</title>
<path fill="none" stroke="midnightblue" d="M1077.81,-287.05C1348.46,-278.7 2349,-243.5 2349,-179 2349,-179 2349,-179 2349,-121 2349,-82.58 2326.68,-72.54 2292,-56 2265.94,-43.58 1353.1,-17.12 1169.12,-11.9"/>
<polygon fill="midnightblue" stroke="midnightblue" points="1169.1,-8.4 1159,-11.62 1168.9,-15.4 1169.1,-8.4"/>
</g>
<!-- Node16 -->
<g id="node16" class="node">
<title>Node16</title>
<g id="a_node16"><a xlink:title=" ">
<polygon fill="none" stroke="#bfbfbf" points="320,-0.5 320,-19.5 370,-19.5 370,-0.5 320,-0.5"/>
<text text-anchor="middle" x="345" y="-7.5" font-family="Helvetica,sans-Serif" font-size="10.00">chrono</text>
</a>
</g>
</g>
<!-- Node1&#45;&gt;Node16 -->
<g id="edge83" class="edge">
<title>Node1&#45;&gt;Node16</title>
<path fill="none" stroke="midnightblue" d="M944.45,-286.65C805.13,-281.34 486.94,-267.06 381,-244 311.47,-228.87 290.86,-226.48 231,-188 170.2,-148.91 90.33,-112.02 136,-56 184.21,3.14 229.98,-34.91 309.87,-19.94"/>
<polygon fill="midnightblue" stroke="midnightblue" points="310.73,-23.34 319.79,-17.84 309.28,-16.49 310.73,-23.34"/>
</g>
<!-- Node17 -->
<g id="node17" class="node">
<title>Node17</title>
<g id="a_node17"><a xlink:title=" ">
<polygon fill="none" stroke="#bfbfbf" points="1953.5,-56.5 1953.5,-75.5 2094.5,-75.5 2094.5,-56.5 1953.5,-56.5"/>
<text text-anchor="middle" x="2024" y="-63.5" font-family="Helvetica,sans-Serif" font-size="10.00">rc_genicam_api/system.h</text>
</a>
</g>
</g>
<!-- Node1&#45;&gt;Node17 -->
<g id="edge77" class="edge">
<title>Node1&#45;&gt;Node17</title>
<path fill="none" stroke="midnightblue" d="M1077.81,-283.79C1152.78,-277.29 1277.84,-264.45 1384,-244 1618.82,-198.76 1893.32,-110.62 1989,-78.81"/>
<polygon fill="midnightblue" stroke="midnightblue" points="1990.36,-82.04 1998.74,-75.56 1988.14,-75.4 1990.36,-82.04"/>
</g>
<!-- Node20 -->
<g id="node20" class="node">
<title>Node20</title>
<g id="a_node20"><a xlink:title=" ">
<polygon fill="none" stroke="#bfbfbf" points="1875,-56.5 1875,-75.5 1935,-75.5 1935,-56.5 1875,-56.5"/>
<text text-anchor="middle" x="1905" y="-63.5" font-family="Helvetica,sans-Serif" font-size="10.00">iostream</text>
</a>
</g>
</g>
<!-- Node1&#45;&gt;Node20 -->
<g id="edge79" class="edge">
<title>Node1&#45;&gt;Node20</title>
<path fill="none" stroke="midnightblue" d="M1077.51,-281.58C1141.31,-273.97 1240.2,-260.87 1325,-244 1539.04,-201.43 1786.74,-111.75 1873.25,-79.16"/>
<polygon fill="midnightblue" stroke="midnightblue" points="1874.64,-82.38 1882.75,-75.57 1872.16,-75.83 1874.64,-82.38"/>
</g>
<!-- Node26 -->
<g id="node26" class="node">
<title>Node26</title>
<g id="a_node26"><a xlink:href="NetworkManager_8hpp.html" target="_top" xlink:title=" ">
<polygon fill="none" stroke="black" points="1055.5,-112.5 1055.5,-131.5 1176.5,-131.5 1176.5,-112.5 1055.5,-112.5"/>
<text text-anchor="middle" x="1116" y="-119.5" font-family="Helvetica,sans-Serif" font-size="10.00">NetworkManager.hpp</text>
</a>
</g>
</g>
<!-- Node1&#45;&gt;Node26 -->
<g id="edge67" class="edge">
<title>Node1&#45;&gt;Node26</title>
<path fill="none" stroke="midnightblue" d="M1016.65,-280.08C1033.39,-253.61 1082.98,-175.21 1105.11,-140.21"/>
<polygon fill="midnightblue" stroke="midnightblue" points="1108.19,-141.89 1110.58,-131.57 1102.28,-138.15 1108.19,-141.89"/>
</g>
<!-- Node27 -->
<g id="node27" class="node">
<title>Node27</title>
<g id="a_node27"><a xlink:title=" ">
<polygon fill="none" stroke="#bfbfbf" points="1753.5,-56.5 1753.5,-75.5 1818.5,-75.5 1818.5,-56.5 1753.5,-56.5"/>
<text text-anchor="middle" x="1786" y="-63.5" font-family="Helvetica,sans-Serif" font-size="10.00">stdexcept</text>
</a>
</g>
</g>
<!-- Node1&#45;&gt;Node27 -->
<g id="edge84" class="edge">
<title>Node1&#45;&gt;Node27</title>
<path fill="none" stroke="midnightblue" d="M1068.52,-280.47C1184.31,-262.18 1452.58,-214.01 1665,-132 1701.33,-117.97 1740.55,-95.39 1764.19,-80.87"/>
<polygon fill="midnightblue" stroke="midnightblue" points="1766.09,-83.81 1772.74,-75.56 1762.4,-77.87 1766.09,-83.81"/>
</g>
<!-- Node29 -->
<g id="node29" class="node">
<title>Node29</title>
<g id="a_node29"><a xlink:title=" ">
<polygon fill="none" stroke="#bfbfbf" points="145.5,-56.5 145.5,-75.5 196.5,-75.5 196.5,-56.5 145.5,-56.5"/>
<text text-anchor="middle" x="171" y="-63.5" font-family="Helvetica,sans-Serif" font-size="10.00">csignal</text>
</a>
</g>
</g>
<!-- Node1&#45;&gt;Node29 -->
<g id="edge78" class="edge">
<title>Node1&#45;&gt;Node29</title>
<path fill="none" stroke="midnightblue" d="M944.19,-287.39C851.14,-284.09 677.64,-274.1 533,-244 376.41,-211.41 303.08,-246.11 191,-132 178.99,-119.77 174.17,-100.51 172.25,-86.12"/>
<polygon fill="midnightblue" stroke="midnightblue" points="175.7,-85.47 171.24,-75.85 168.73,-86.15 175.7,-85.47"/>
</g>
<!-- Node32 -->
<g id="node32" class="node">
<title>Node32</title>
<g id="a_node32"><a xlink:href="StreamManager_8hpp.html" target="_top" xlink:title=" ">
<polygon fill="none" stroke="black" points="395.5,-168.5 395.5,-187.5 510.5,-187.5 510.5,-168.5 395.5,-168.5"/>
<text text-anchor="middle" x="453" y="-175.5" font-family="Helvetica,sans-Serif" font-size="10.00">StreamManager.hpp</text>
</a>
</g>
</g>
<!-- Node1&#45;&gt;Node32 -->
<g id="edge68" class="edge">
<title>Node1&#45;&gt;Node32</title>
<path fill="none" stroke="midnightblue" d="M944.31,-289.14C859.26,-287.7 708.42,-279.68 585,-244 544.31,-232.24 500.95,-208.44 475.45,-193.14"/>
<polygon fill="midnightblue" stroke="midnightblue" points="476.96,-189.95 466.6,-187.73 473.31,-195.93 476.96,-189.95"/>
</g>
<!-- Node34 -->
<g id="node34" class="node">
<title>Node34</title>
<g id="a_node34"><a xlink:title=" ">
<polygon fill="none" stroke="#bfbfbf" points="557,-112.5 557,-131.5 589,-131.5 589,-112.5 557,-112.5"/>
<text text-anchor="middle" x="573" y="-119.5" font-family="Helvetica,sans-Serif" font-size="10.00">list</text>
</a>
</g>
</g>
<!-- Node1&#45;&gt;Node34 -->
<g id="edge80" class="edge">
<title>Node1&#45;&gt;Node34</title>
<path fill="none" stroke="midnightblue" d="M944.29,-284.38C892.31,-279.07 819.13,-267.79 759,-244 691.55,-217.31 622.69,-164.42 590.99,-138.31"/>
<polygon fill="midnightblue" stroke="midnightblue" points="592.99,-135.42 583.07,-131.7 588.51,-140.8 592.99,-135.42"/>
</g>
<!-- Node35 -->
<g id="node35" class="node">
<title>Node35</title>
<g id="a_node35"><a xlink:href="GlobalSettings_8hpp.html" target="_top" xlink:title=" ">
<polygon fill="none" stroke="black" points="607.5,-112.5 607.5,-131.5 716.5,-131.5 716.5,-112.5 607.5,-112.5"/>
<text text-anchor="middle" x="662" y="-119.5" font-family="Helvetica,sans-Serif" font-size="10.00">GlobalSettings.hpp</text>
</a>
</g>
</g>
<!-- Node1&#45;&gt;Node35 -->
<g id="edge70" class="edge">
<title>Node1&#45;&gt;Node35</title>
<path fill="none" stroke="midnightblue" d="M944.21,-284.62C899.17,-279.48 839.52,-268.3 792,-244 741.19,-218.02 695.9,-166.36 674.71,-139.73"/>
<polygon fill="midnightblue" stroke="midnightblue" points="677.38,-137.47 668.47,-131.74 671.86,-141.77 677.38,-137.47"/>
</g>
<!-- Node2&#45;&gt;Node2 -->
<g id="edge2" class="edge">
<title>Node2&#45;&gt;Node2</title>
<path fill="none" stroke="midnightblue" d="M891.41,-243.53C913.44,-246.31 935,-243.13 935,-234 935,-226.29 919.65,-222.83 901.62,-223.61"/>
<polygon fill="midnightblue" stroke="midnightblue" points="901.08,-220.14 891.41,-224.47 901.67,-227.11 901.08,-220.14"/>
</g>
<!-- Node2&#45;&gt;Node3 -->
<g id="edge3" class="edge">
<title>Node2&#45;&gt;Node3</title>
<path fill="none" stroke="midnightblue" d="M916.45,-224.46C1051.5,-204.38 1388.58,-154.28 1532.34,-132.91"/>
<polygon fill="midnightblue" stroke="midnightblue" points="1532.97,-136.35 1542.35,-131.42 1531.94,-129.43 1532.97,-136.35"/>
</g>
<!-- Node2&#45;&gt;Node4 -->
<g id="edge58" class="edge">
<title>Node2&#45;&gt;Node4</title>
<path fill="none" stroke="midnightblue" d="M856.1,-224.3C848.77,-203.25 827.88,-148.64 797,-112 786.77,-99.86 772.67,-89.08 760.72,-81.11"/>
<polygon fill="midnightblue" stroke="midnightblue" points="762.4,-78.03 752.09,-75.59 758.63,-83.93 762.4,-78.03"/>
</g>
<!-- Node8 -->
<g id="node8" class="node">
<title>Node8</title>
<g id="a_node8"><a xlink:title=" ">
<polygon fill="none" stroke="#bfbfbf" points="1493.5,-0.5 1493.5,-19.5 1630.5,-19.5 1630.5,-0.5 1493.5,-0.5"/>
<text text-anchor="middle" x="1562" y="-7.5" font-family="Helvetica,sans-Serif" font-size="10.00">rc_genicam_api/device.h</text>
</a>
</g>
</g>
<!-- Node2&#45;&gt;Node8 -->
<g id="edge59" class="edge">
<title>Node2&#45;&gt;Node8</title>
<path fill="none" stroke="midnightblue" d="M894.87,-224.44C950.99,-211.23 1063.07,-185.56 1159,-168 1324.33,-137.74 1366.45,-134.63 1533,-112 1598.44,-103.11 1784.22,-125.45 1828,-76 1833.89,-69.34 1833.74,-62.79 1828,-56 1804.37,-28.04 1710.43,-17.45 1640.84,-13.44"/>
<polygon fill="midnightblue" stroke="midnightblue" points="1640.94,-9.94 1630.77,-12.89 1640.56,-16.93 1640.94,-9.94"/>
</g>
<!-- Node2&#45;&gt;Node10 -->
<g id="edge64" class="edge">
<title>Node2&#45;&gt;Node10</title>
<path fill="none" stroke="midnightblue" d="M800.74,-232.26C650.28,-229.2 253.67,-213.42 156,-132 128.69,-109.23 116.7,-88.55 131,-56 136.39,-43.73 146.96,-33.34 156.9,-25.65"/>
<polygon fill="midnightblue" stroke="midnightblue" points="159.25,-28.27 165.34,-19.6 155.17,-22.58 159.25,-28.27"/>
</g>
<!-- Node2&#45;&gt;Node12 -->
<g id="edge61" class="edge">
<title>Node2&#45;&gt;Node12</title>
<path fill="none" stroke="midnightblue" d="M917.05,-231.12C1173.76,-222.2 2198.55,-180.24 2292,-76 2297.93,-69.38 2297.77,-62.76 2292,-56 2261.32,-20.03 2119.85,-12.68 2049.68,-11.27"/>
<polygon fill="midnightblue" stroke="midnightblue" points="2049.53,-7.77 2039.47,-11.1 2049.41,-14.77 2049.53,-7.77"/>
</g>
<!-- Node2&#45;&gt;Node14 -->
<g id="edge63" class="edge">
<title>Node2&#45;&gt;Node14</title>
<path fill="none" stroke="midnightblue" d="M858.4,-224.24C856.14,-190.31 848.92,-68.76 860,-56 894.33,-16.49 1036.32,-29.95 1104.77,-19.48"/>
<polygon fill="midnightblue" stroke="midnightblue" points="1105.5,-22.9 1114.71,-17.66 1104.25,-16.01 1105.5,-22.9"/>
</g>
<!-- Node15 -->
<g id="node15" class="node">
<title>Node15</title>
<g id="a_node15"><a xlink:title=" ">
<polygon fill="none" stroke="#bfbfbf" points="522.5,-0.5 522.5,-19.5 569.5,-19.5 569.5,-0.5 522.5,-0.5"/>
<text text-anchor="middle" x="546" y="-7.5" font-family="Helvetica,sans-Serif" font-size="10.00">vector</text>
</a>
</g>
</g>
<!-- Node2&#45;&gt;Node15 -->
<g id="edge60" class="edge">
<title>Node2&#45;&gt;Node15</title>
<path fill="none" stroke="midnightblue" d="M853.73,-224.28C840.32,-202.71 802.87,-146.15 759,-112 743.34,-99.81 629.17,-48.13 574.73,-23.78"/>
<polygon fill="midnightblue" stroke="midnightblue" points="575.86,-20.45 565.3,-19.57 573,-26.84 575.86,-20.45"/>
</g>
<!-- Node2&#45;&gt;Node16 -->
<g id="edge65" class="edge">
<title>Node2&#45;&gt;Node16</title>
<path fill="none" stroke="midnightblue" d="M849.81,-224.15C822.04,-197.47 739.96,-119.23 725,-112 637.77,-69.84 603.36,-101.9 510,-76 460.26,-62.2 404.9,-38.6 372.62,-23.95"/>
<polygon fill="midnightblue" stroke="midnightblue" points="373.92,-20.7 363.37,-19.71 371,-27.06 373.92,-20.7"/>
</g>
<!-- Node2&#45;&gt;Node26 -->
<g id="edge27" class="edge">
<title>Node2&#45;&gt;Node26</title>
<path fill="none" stroke="midnightblue" d="M869.77,-224.44C887.44,-210.76 924.14,-183.89 959,-168 992.64,-152.66 1032.74,-141.28 1063.99,-133.79"/>
<polygon fill="midnightblue" stroke="midnightblue" points="1064.87,-137.18 1073.81,-131.5 1063.28,-130.37 1064.87,-137.18"/>
</g>
<!-- Node2&#45;&gt;Node32 -->
<g id="edge46" class="edge">
<title>Node2&#45;&gt;Node32</title>
<path fill="none" stroke="midnightblue" d="M800.83,-225.26C726.86,-215.42 599.36,-198.47 520.98,-188.04"/>
<polygon fill="midnightblue" stroke="midnightblue" points="521.11,-184.53 510.73,-186.68 520.18,-191.47 521.11,-184.53"/>
</g>
<!-- Node2&#45;&gt;Node34 -->
<g id="edge62" class="edge">
<title>Node2&#45;&gt;Node34</title>
<path fill="none" stroke="midnightblue" d="M833.36,-224.42C807.41,-215.65 766.22,-201.42 731,-188 683.73,-169.98 629.32,-147.12 598.26,-133.87"/>
<polygon fill="midnightblue" stroke="midnightblue" points="599.61,-130.64 589.04,-129.92 596.86,-137.08 599.61,-130.64"/>
</g>
<!-- Node3&#45;&gt;Node4 -->
<g id="edge4" class="edge">
<title>Node3&#45;&gt;Node4</title>
<path fill="none" stroke="midnightblue" d="M1542.43,-117.79C1418.67,-110.72 1114.57,-93.06 860,-76 835.36,-74.35 807.96,-72.36 785.28,-70.67"/>
<polygon fill="midnightblue" stroke="midnightblue" points="785.45,-67.17 775.22,-69.92 784.93,-74.15 785.45,-67.17"/>
</g>
<!-- Node3&#45;&gt;Node8 -->
<g id="edge19" class="edge">
<title>Node3&#45;&gt;Node8</title>
<path fill="none" stroke="midnightblue" d="M1655.72,-120.16C1781.32,-117.72 2074.22,-108.55 2104,-76 2110,-69.44 2110.02,-62.54 2104,-56 2073.28,-22.63 1783.36,-14 1640.62,-11.77"/>
<polygon fill="midnightblue" stroke="midnightblue" points="1640.66,-8.27 1630.61,-11.62 1640.55,-15.27 1640.66,-8.27"/>
</g>
<!-- Node3&#45;&gt;Node17 -->
<g id="edge17" class="edge">
<title>Node3&#45;&gt;Node17</title>
<path fill="none" stroke="midnightblue" d="M1655.88,-113.77C1730.86,-104.25 1863.08,-87.45 1946.98,-76.79"/>
<polygon fill="midnightblue" stroke="midnightblue" points="1947.48,-80.25 1956.96,-75.52 1946.6,-73.31 1947.48,-80.25"/>
</g>
<!-- Node18 -->
<g id="node18" class="node">
<title>Node18</title>
<g id="a_node18"><a xlink:title=" ">
<polygon fill="none" stroke="#bfbfbf" points="1345.5,-56.5 1345.5,-75.5 1494.5,-75.5 1494.5,-56.5 1345.5,-56.5"/>
<text text-anchor="middle" x="1420" y="-63.5" font-family="Helvetica,sans-Serif" font-size="10.00">rc_genicam_api/interface.h</text>
</a>
</g>
</g>
<!-- Node3&#45;&gt;Node18 -->
<g id="edge18" class="edge">
<title>Node3&#45;&gt;Node18</title>
<path fill="none" stroke="midnightblue" d="M1570.64,-112.44C1540.26,-103.28 1491.89,-88.69 1458.18,-78.52"/>
<polygon fill="midnightblue" stroke="midnightblue" points="1458.82,-75.05 1448.23,-75.52 1456.79,-81.76 1458.82,-75.05"/>
</g>
<!-- Node19 -->
<g id="node19" class="node">
<title>Node19</title>
<g id="a_node19"><a xlink:title=" ">
<polygon fill="none" stroke="#bfbfbf" points="1513,-56.5 1513,-75.5 1685,-75.5 1685,-56.5 1513,-56.5"/>
<text text-anchor="middle" x="1599" y="-63.5" font-family="Helvetica,sans-Serif" font-size="10.00">rc_genicam_api/nodemap_out.h</text>
</a>
</g>
</g>
<!-- Node3&#45;&gt;Node19 -->
<g id="edge20" class="edge">
<title>Node3&#45;&gt;Node19</title>
<path fill="none" stroke="midnightblue" d="M1599,-112.08C1599,-105.01 1599,-94.86 1599,-85.99"/>
<polygon fill="midnightblue" stroke="midnightblue" points="1602.5,-85.75 1599,-75.75 1595.5,-85.75 1602.5,-85.75"/>
</g>
<!-- Node3&#45;&gt;Node20 -->
<g id="edge21" class="edge">
<title>Node3&#45;&gt;Node20</title>
<path fill="none" stroke="midnightblue" d="M1651.78,-112.44C1704.75,-103.73 1788.66,-89.61 1861,-76 1862.25,-75.76 1863.52,-75.52 1864.8,-75.28"/>
<polygon fill="midnightblue" stroke="midnightblue" points="1865.59,-78.69 1874.73,-73.32 1864.24,-71.82 1865.59,-78.69"/>
</g>
<!-- Node21 -->
<g id="node21" class="node">
<title>Node21</title>
<g id="a_node21"><a xlink:title=" ">
<polygon fill="none" stroke="#bfbfbf" points="869,-56.5 869,-75.5 925,-75.5 925,-56.5 869,-56.5"/>
<text text-anchor="middle" x="897" y="-63.5" font-family="Helvetica,sans-Serif" font-size="10.00">sstream</text>
</a>
</g>
</g>
<!-- Node3&#45;&gt;Node21 -->
<g id="edge22" class="edge">
<title>Node3&#45;&gt;Node21</title>
<path fill="none" stroke="midnightblue" d="M1542.29,-117.84C1432.21,-111.51 1181.94,-96.12 972,-76 959.98,-74.85 946.91,-73.36 935.1,-71.93"/>
<polygon fill="midnightblue" stroke="midnightblue" points="935.46,-68.45 925.1,-70.69 934.6,-75.39 935.46,-68.45"/>
</g>
<!-- Node22 -->
<g id="node22" class="node">
<title>Node22</title>
<g id="a_node22"><a xlink:title=" ">
<polygon fill="none" stroke="#bfbfbf" points="1703,-56.5 1703,-75.5 1735,-75.5 1735,-56.5 1703,-56.5"/>
<text text-anchor="middle" x="1719" y="-63.5" font-family="Helvetica,sans-Serif" font-size="10.00">set</text>
</a>
</g>
</g>
<!-- Node3&#45;&gt;Node22 -->
<g id="edge23" class="edge">
<title>Node3&#45;&gt;Node22</title>
<path fill="none" stroke="midnightblue" d="M1618.01,-112.44C1638.39,-103.27 1670.86,-88.66 1693.46,-78.5"/>
<polygon fill="midnightblue" stroke="midnightblue" points="1695.09,-81.6 1702.77,-74.3 1692.21,-75.22 1695.09,-81.6"/>
</g>
<!-- Node23 -->
<g id="node23" class="node">
<title>Node23</title>
<g id="a_node23"><a xlink:title=" ">
<polygon fill="none" stroke="#bfbfbf" points="2151.5,-56.5 2151.5,-75.5 2220.5,-75.5 2220.5,-56.5 2151.5,-56.5"/>
<text text-anchor="middle" x="2186" y="-63.5" font-family="Helvetica,sans-Serif" font-size="10.00">arpa/inet.h</text>
</a>
</g>
</g>
<!-- Node3&#45;&gt;Node23 -->
<g id="edge24" class="edge">
<title>Node3&#45;&gt;Node23</title>
<path fill="none" stroke="midnightblue" d="M1655.74,-118.09C1754.06,-112.64 1962.34,-99.29 2137,-76 2138.3,-75.83 2139.62,-75.64 2140.95,-75.45"/>
<polygon fill="midnightblue" stroke="midnightblue" points="2141.94,-78.84 2151.27,-73.81 2140.84,-71.92 2141.94,-78.84"/>
</g>
<!-- Node24 -->
<g id="node24" class="node">
<title>Node24</title>
<g id="a_node24"><a xlink:title=" ">
<polygon fill="none" stroke="#bfbfbf" points="1272,-56.5 1272,-75.5 1328,-75.5 1328,-56.5 1272,-56.5"/>
<text text-anchor="middle" x="1300" y="-63.5" font-family="Helvetica,sans-Serif" font-size="10.00">iomanip</text>
</a>
</g>
</g>
<!-- Node3&#45;&gt;Node24 -->
<g id="edge25" class="edge">
<title>Node3&#45;&gt;Node24</title>
<path fill="none" stroke="midnightblue" d="M1542.33,-112.57C1491.21,-104.68 1413.73,-92.01 1338.38,-76.4"/>
<polygon fill="midnightblue" stroke="midnightblue" points="1338.76,-72.9 1328.25,-74.28 1337.32,-79.75 1338.76,-72.9"/>
</g>
<!-- Node25 -->
<g id="node25" class="node">
<title>Node25</title>
<g id="a_node25"><a xlink:title=" ">
<polygon fill="none" stroke="#bfbfbf" points="2239,-56.5 2239,-75.5 2283,-75.5 2283,-56.5 2239,-56.5"/>
<text text-anchor="middle" x="2261" y="-63.5" font-family="Helvetica,sans-Serif" font-size="10.00">regex</text>
</a>
</g>
</g>
<!-- Node3&#45;&gt;Node25 -->
<g id="edge26" class="edge">
<title>Node3&#45;&gt;Node25</title>
<path fill="none" stroke="midnightblue" d="M1655.63,-120.95C1765.01,-120 2012.88,-113.64 2228.85,-75.83"/>
<polygon fill="midnightblue" stroke="midnightblue" points="2229.55,-79.26 2238.78,-74.06 2228.32,-72.36 2229.55,-79.26"/>
</g>
<!-- Node5 -->
<g id="node5" class="node">
<title>Node5</title>
<g id="a_node5"><a xlink:title=" ">
<polygon fill="none" stroke="#bfbfbf" points="997.5,-0.5 997.5,-19.5 1096.5,-19.5 1096.5,-0.5 997.5,-0.5"/>
<text text-anchor="middle" x="1047" y="-7.5" font-family="Helvetica,sans-Serif" font-size="10.00">GenApi/GenApi.h</text>
</a>
</g>
</g>
<!-- Node4&#45;&gt;Node5 -->
<g id="edge5" class="edge">
<title>Node4&#45;&gt;Node5</title>
<path fill="none" stroke="midnightblue" d="M775.01,-58.38C828.16,-49.12 925.17,-32.22 987.81,-21.31"/>
<polygon fill="midnightblue" stroke="midnightblue" points="988.69,-24.71 997.94,-19.55 987.49,-17.81 988.69,-24.71"/>
</g>
<!-- Node6 -->
<g id="node6" class="node">
<title>Node6</title>
<g id="a_node6"><a xlink:title=" ">
<polygon fill="none" stroke="#bfbfbf" points="388,-0.5 388,-19.5 504,-19.5 504,-0.5 388,-0.5"/>
<text text-anchor="middle" x="446" y="-7.5" font-family="Helvetica,sans-Serif" font-size="10.00">opencv2/opencv.hpp</text>
</a>
</g>
</g>
<!-- Node4&#45;&gt;Node6 -->
<g id="edge6" class="edge">
<title>Node4&#45;&gt;Node6</title>
<path fill="none" stroke="midnightblue" d="M698.96,-57.94C648.82,-48.64 560.21,-32.19 502.3,-21.45"/>
<polygon fill="midnightblue" stroke="midnightblue" points="502.69,-17.96 492.22,-19.58 501.41,-24.84 502.69,-17.96"/>
</g>
<!-- Node7 -->
<g id="node7" class="node">
<title>Node7</title>
<g id="a_node7"><a xlink:title=" ">
<polygon fill="none" stroke="#bfbfbf" points="587.5,-0.5 587.5,-19.5 720.5,-19.5 720.5,-0.5 587.5,-0.5"/>
<text text-anchor="middle" x="654" y="-7.5" font-family="Helvetica,sans-Serif" font-size="10.00">rc_genicam_api/buffer.h</text>
</a>
</g>
</g>
<!-- Node4&#45;&gt;Node7 -->
<g id="edge7" class="edge">
<title>Node4&#45;&gt;Node7</title>
<path fill="none" stroke="midnightblue" d="M723.66,-56.32C710.84,-47.98 691.22,-35.21 676.06,-25.35"/>
<polygon fill="midnightblue" stroke="midnightblue" points="677.59,-22.17 667.3,-19.65 673.78,-28.04 677.59,-22.17"/>
</g>
<!-- Node4&#45;&gt;Node8 -->
<g id="edge8" class="edge">
<title>Node4&#45;&gt;Node8</title>
<path fill="none" stroke="midnightblue" d="M775.22,-62.11C799.5,-60.3 831.59,-57.95 860,-56 1085.98,-40.49 1353.01,-23.83 1482.98,-15.83"/>
<polygon fill="midnightblue" stroke="midnightblue" points="1483.47,-19.31 1493.23,-15.2 1483.04,-12.32 1483.47,-19.31"/>
</g>
<!-- Node9 -->
<g id="node9" class="node">
<title>Node9</title>
<g id="a_node9"><a xlink:title=" ">
<polygon fill="none" stroke="#bfbfbf" points="739,-0.5 739,-19.5 911,-19.5 911,-0.5 739,-0.5"/>
<text text-anchor="middle" x="825" y="-7.5" font-family="Helvetica,sans-Serif" font-size="10.00">rc_genicam_api/pixel_formats.h</text>
</a>
</g>
</g>
<!-- Node4&#45;&gt;Node9 -->
<g id="edge9" class="edge">
<title>Node4&#45;&gt;Node9</title>
<path fill="none" stroke="midnightblue" d="M751.14,-56.32C764.87,-47.9 785.94,-34.97 802.06,-25.07"/>
<polygon fill="midnightblue" stroke="midnightblue" points="804.2,-27.87 810.9,-19.65 800.54,-21.9 804.2,-27.87"/>
</g>
<!-- Node4&#45;&gt;Node10 -->
<g id="edge10" class="edge">
<title>Node4&#45;&gt;Node10</title>
<path fill="none" stroke="midnightblue" d="M698.97,-62.13C616.28,-55.74 413.93,-39.41 245,-20 235.36,-18.89 224.94,-17.53 215.32,-16.19"/>
<polygon fill="midnightblue" stroke="midnightblue" points="215.67,-12.71 205.28,-14.78 214.69,-19.64 215.67,-12.71"/>
</g>
<!-- Node11 -->
<g id="node11" class="node">
<title>Node11</title>
<g id="a_node11"><a xlink:title=" ">
<polygon fill="none" stroke="#bfbfbf" points="929,-0.5 929,-19.5 979,-19.5 979,-0.5 929,-0.5"/>
<text text-anchor="middle" x="954" y="-7.5" font-family="Helvetica,sans-Serif" font-size="10.00">cstdint</text>
</a>
</g>
</g>
<!-- Node4&#45;&gt;Node11 -->
<g id="edge11" class="edge">
<title>Node4&#45;&gt;Node11</title>
<path fill="none" stroke="midnightblue" d="M772.47,-56.47C807.35,-48.05 862.37,-34.64 918.93,-20.24"/>
<polygon fill="midnightblue" stroke="midnightblue" points="919.94,-23.6 928.76,-17.73 918.21,-16.81 919.94,-23.6"/>
</g>
<!-- Node4&#45;&gt;Node12 -->
<g id="edge12" class="edge">
<title>Node4&#45;&gt;Node12</title>
<path fill="none" stroke="midnightblue" d="M775.21,-61.87C799.48,-59.96 831.57,-57.6 860,-56 1294.98,-31.58 1823.25,-16.11 1970.34,-12.06"/>
<polygon fill="midnightblue" stroke="midnightblue" points="1970.76,-15.55 1980.66,-11.78 1970.57,-8.56 1970.76,-15.55"/>
</g>
<!-- Node13 -->
<g id="node13" class="node">
<title>Node13</title>
<g id="a_node13"><a xlink:title=" ">
<polygon fill="none" stroke="#bfbfbf" points="254,-0.5 254,-19.5 302,-19.5 302,-0.5 254,-0.5"/>
<text text-anchor="middle" x="278" y="-7.5" font-family="Helvetica,sans-Serif" font-size="10.00">mutex</text>
</a>
</g>
</g>
<!-- Node4&#45;&gt;Node13 -->
<g id="edge13" class="edge">
<title>Node4&#45;&gt;Node13</title>
<path fill="none" stroke="midnightblue" d="M698.99,-61.78C612.46,-54.31 401.96,-35.44 312.13,-19.87"/>
<polygon fill="midnightblue" stroke="midnightblue" points="312.51,-16.38 302.05,-18.04 311.26,-23.27 312.51,-16.38"/>
</g>
<!-- Node4&#45;&gt;Node14 -->
<g id="edge14" class="edge">
<title>Node4&#45;&gt;Node14</title>
<path fill="none" stroke="midnightblue" d="M775.02,-58.16C779.72,-57.39 784.47,-56.65 789,-56 925.78,-36.39 964.56,-46.73 1104.89,-19.68"/>
<polygon fill="midnightblue" stroke="midnightblue" points="1105.59,-23.11 1114.73,-17.76 1104.24,-16.24 1105.59,-23.11"/>
</g>
<!-- Node4&#45;&gt;Node15 -->
<g id="edge15" class="edge">
<title>Node4&#45;&gt;Node15</title>
<path fill="none" stroke="midnightblue" d="M706.74,-56.44C672.17,-46.67 615.78,-30.73 579.8,-20.56"/>
<polygon fill="midnightblue" stroke="midnightblue" points="580.36,-17.08 569.79,-17.73 578.46,-23.81 580.36,-17.08"/>
</g>
<!-- Node4&#45;&gt;Node16 -->
<g id="edge16" class="edge">
<title>Node4&#45;&gt;Node16</title>
<path fill="none" stroke="midnightblue" d="M698.98,-58.18C694.28,-57.4 689.53,-56.66 685,-56 552.66,-36.78 515.27,-45.17 380.07,-19.96"/>
<polygon fill="midnightblue" stroke="midnightblue" points="380.64,-16.5 370.16,-18.08 379.34,-23.38 380.64,-16.5"/>
</g>
<!-- Node26&#45;&gt;Node4 -->
<g id="edge28" class="edge">
<title>Node26&#45;&gt;Node4</title>
<path fill="none" stroke="midnightblue" d="M1055.95,-112.44C981,-101.77 854.31,-83.71 785.31,-73.88"/>
<polygon fill="midnightblue" stroke="midnightblue" points="785.55,-70.38 775.15,-72.44 784.56,-77.31 785.55,-70.38"/>
</g>
<!-- Node26&#45;&gt;Node5 -->
<g id="edge33" class="edge">
<title>Node26&#45;&gt;Node5</title>
<path fill="none" stroke="midnightblue" d="M1055.24,-118.2C1025.07,-113.36 991.08,-101.96 972,-76 956.37,-54.73 986.3,-35.64 1012.86,-23.74"/>
<polygon fill="midnightblue" stroke="midnightblue" points="1014.57,-26.82 1022.4,-19.69 1011.83,-20.38 1014.57,-26.82"/>
</g>
<!-- Node26&#45;&gt;Node8 -->
<g id="edge31" class="edge">
<title>Node26&#45;&gt;Node8</title>
<path fill="none" stroke="midnightblue" d="M1127.59,-112.36C1147.42,-98.05 1189.65,-69.66 1230,-56 1313.58,-27.7 1414.7,-17.14 1483.21,-13.23"/>
<polygon fill="midnightblue" stroke="midnightblue" points="1483.7,-16.71 1493.5,-12.68 1483.33,-9.72 1483.7,-16.71"/>
</g>
<!-- Node26&#45;&gt;Node10 -->
<g id="edge42" class="edge">
<title>Node26&#45;&gt;Node10</title>
<path fill="none" stroke="midnightblue" d="M1055.07,-119.04C938.97,-114.74 690.35,-102.66 609,-76 592.7,-70.66 592.24,-61.5 576,-56 435.84,-8.52 391.86,-38.15 245,-20 235.37,-18.81 224.95,-17.41 215.33,-16.08"/>
<polygon fill="midnightblue" stroke="midnightblue" points="215.68,-12.6 205.29,-14.68 214.71,-19.53 215.68,-12.6"/>
</g>
<!-- Node26&#45;&gt;Node12 -->
<g id="edge35" class="edge">
<title>Node26&#45;&gt;Node12</title>
<path fill="none" stroke="midnightblue" d="M1137.5,-112.44C1159.23,-103.68 1193.7,-89.47 1223,-76 1241.06,-67.7 1243.8,-61.15 1263,-56 1331.48,-37.64 1826.3,-17.87 1970.6,-12.45"/>
<polygon fill="midnightblue" stroke="midnightblue" points="1970.9,-15.94 1980.76,-12.07 1970.64,-8.94 1970.9,-15.94"/>
</g>
<!-- Node26&#45;&gt;Node14 -->
<g id="edge36" class="edge">
<title>Node26&#45;&gt;Node14</title>
<path fill="none" stroke="midnightblue" d="M1124.75,-112.29C1132.56,-103.84 1143.45,-90.25 1148,-76 1152.94,-60.51 1149.02,-42.2 1144.54,-28.97"/>
<polygon fill="midnightblue" stroke="midnightblue" points="1147.8,-27.71 1140.99,-19.6 1141.26,-30.19 1147.8,-27.71"/>
</g>
<!-- Node26&#45;&gt;Node16 -->
<g id="edge38" class="edge">
<title>Node26&#45;&gt;Node16</title>
<path fill="none" stroke="midnightblue" d="M1055.32,-117.21C972.36,-111.44 819.11,-98.65 690,-76 653.48,-69.59 645.35,-63.32 609,-56 510.74,-36.22 482.04,-40.94 380.26,-20.08"/>
<polygon fill="midnightblue" stroke="midnightblue" points="380.69,-16.59 370.18,-17.98 379.26,-23.44 380.69,-16.59"/>
</g>
<!-- Node26&#45;&gt;Node17 -->
<g id="edge29" class="edge">
<title>Node26&#45;&gt;Node17</title>
<path fill="none" stroke="midnightblue" d="M1176.6,-118.91C1311.99,-113.97 1649.56,-100.22 1943.36,-76"/>
<polygon fill="midnightblue" stroke="midnightblue" points="1943.68,-79.49 1953.35,-75.17 1943.1,-72.51 1943.68,-79.49"/>
</g>
<!-- Node26&#45;&gt;Node18 -->
<g id="edge30" class="edge">
<title>Node26&#45;&gt;Node18</title>
<path fill="none" stroke="midnightblue" d="M1164.17,-112.44C1217.87,-102.9 1304.69,-87.48 1362.05,-77.29"/>
<polygon fill="midnightblue" stroke="midnightblue" points="1362.82,-80.71 1372.06,-75.52 1361.6,-73.82 1362.82,-80.71"/>
</g>
<!-- Node26&#45;&gt;Node19 -->
<g id="edge32" class="edge">
<title>Node26&#45;&gt;Node19</title>
<path fill="none" stroke="midnightblue" d="M1176.68,-114.22C1261.47,-104.74 1415.85,-87.48 1512.62,-76.66"/>
<polygon fill="midnightblue" stroke="midnightblue" points="1513.12,-80.12 1522.67,-75.53 1512.34,-73.17 1513.12,-80.12"/>
</g>
<!-- Node26&#45;&gt;Node20 -->
<g id="edge34" class="edge">
<title>Node26&#45;&gt;Node20</title>
<path fill="none" stroke="midnightblue" d="M1176.57,-118.26C1299.51,-112.46 1587.14,-97.67 1828,-76 1839.92,-74.93 1852.86,-73.51 1864.66,-72.13"/>
<polygon fill="midnightblue" stroke="midnightblue" points="1865.17,-75.59 1874.68,-70.92 1864.34,-68.64 1865.17,-75.59"/>
</g>
<!-- Node26&#45;&gt;Node22 -->
<g id="edge43" class="edge">
<title>Node26&#45;&gt;Node22</title>
<path fill="none" stroke="midnightblue" d="M1176.56,-118.34C1300.36,-112.58 1579.58,-97.83 1692.97,-75.58"/>
<polygon fill="midnightblue" stroke="midnightblue" points="1693.7,-79.01 1702.78,-73.55 1692.27,-72.15 1693.7,-79.01"/>
</g>
<!-- Node26&#45;&gt;Node24 -->
<g id="edge40" class="edge">
<title>Node26&#45;&gt;Node24</title>
<path fill="none" stroke="midnightblue" d="M1145.16,-112.44C1176.79,-103.16 1227.41,-88.3 1262.11,-78.12"/>
<polygon fill="midnightblue" stroke="midnightblue" points="1263.28,-81.43 1271.89,-75.25 1261.31,-74.71 1263.28,-81.43"/>
</g>
<!-- Node26&#45;&gt;Node27 -->
<g id="edge37" class="edge">
<title>Node26&#45;&gt;Node27</title>
<path fill="none" stroke="midnightblue" d="M1176.71,-117.73C1308.44,-110.48 1618.03,-92.45 1742.97,-75.9"/>
<polygon fill="midnightblue" stroke="midnightblue" points="1743.63,-79.35 1753.06,-74.51 1742.68,-72.41 1743.63,-79.35"/>
</g>
<!-- Node28 -->
<g id="node28" class="node">
<title>Node28</title>
<g id="a_node28"><a xlink:title=" ">
<polygon fill="none" stroke="#bfbfbf" points="519,-56.5 519,-75.5 567,-75.5 567,-56.5 519,-56.5"/>
<text text-anchor="middle" x="543" y="-63.5" font-family="Helvetica,sans-Serif" font-size="10.00">thread</text>
</a>
</g>
</g>
<!-- Node26&#45;&gt;Node28 -->
<g id="edge39" class="edge">
<title>Node26&#45;&gt;Node28</title>
<path fill="none" stroke="midnightblue" d="M1055.47,-118.84C955.95,-114.63 751.74,-103.25 581,-76 579.72,-75.8 578.42,-75.57 577.11,-75.33"/>
<polygon fill="midnightblue" stroke="midnightblue" points="577.52,-71.84 567.02,-73.26 576.11,-78.7 577.52,-71.84"/>
</g>
<!-- Node26&#45;&gt;Node29 -->
<g id="edge41" class="edge">
<title>Node26&#45;&gt;Node29</title>
<path fill="none" stroke="midnightblue" d="M1055.45,-117.54C875.8,-107.27 349.44,-77.2 206.93,-69.05"/>
<polygon fill="midnightblue" stroke="midnightblue" points="206.77,-65.54 196.59,-68.46 206.37,-72.53 206.77,-65.54"/>
</g>
<!-- Node30 -->
<g id="node30" class="node">
<title>Node30</title>
<g id="a_node30"><a xlink:title=" ">
<polygon fill="none" stroke="#bfbfbf" points="981.5,-56.5 981.5,-75.5 1074.5,-75.5 1074.5,-56.5 981.5,-56.5"/>
<text text-anchor="middle" x="1028" y="-63.5" font-family="Helvetica,sans-Serif" font-size="10.00">unordered_map</text>
</a>
</g>
</g>
<!-- Node26&#45;&gt;Node30 -->
<g id="edge44" class="edge">
<title>Node26&#45;&gt;Node30</title>
<path fill="none" stroke="midnightblue" d="M1101.86,-112.32C1088.13,-103.9 1067.06,-90.97 1050.94,-81.07"/>
<polygon fill="midnightblue" stroke="midnightblue" points="1052.46,-77.9 1042.1,-75.65 1048.8,-83.87 1052.46,-77.9"/>
</g>
<!-- Node31 -->
<g id="node31" class="node">
<title>Node31</title>
<g id="a_node31"><a xlink:title=" ">
<polygon fill="none" stroke="#bfbfbf" points="1092.5,-56.5 1092.5,-75.5 1139.5,-75.5 1139.5,-56.5 1092.5,-56.5"/>
<text text-anchor="middle" x="1116" y="-63.5" font-family="Helvetica,sans-Serif" font-size="10.00">deque</text>
</a>
</g>
</g>
<!-- Node26&#45;&gt;Node31 -->
<g id="edge45" class="edge">
<title>Node26&#45;&gt;Node31</title>
<path fill="none" stroke="midnightblue" d="M1116,-112.08C1116,-105.01 1116,-94.86 1116,-85.99"/>
<polygon fill="midnightblue" stroke="midnightblue" points="1119.5,-85.75 1116,-75.75 1112.5,-85.75 1119.5,-85.75"/>
</g>
<!-- Node32&#45;&gt;Node4 -->
<g id="edge48" class="edge">
<title>Node32&#45;&gt;Node4</title>
<path fill="none" stroke="midnightblue" d="M464.55,-168.3C485.79,-152.45 530.46,-119.77 548,-112 593.58,-91.81 649.52,-79.94 688.67,-73.5"/>
<polygon fill="midnightblue" stroke="midnightblue" points="689.42,-76.93 698.75,-71.91 688.32,-70.02 689.42,-76.93"/>
</g>
<!-- Node32&#45;&gt;Node6 -->
<g id="edge47" class="edge">
<title>Node32&#45;&gt;Node6</title>
<path fill="none" stroke="midnightblue" d="M449.4,-168.22C445.94,-159.28 440.97,-144.94 439,-132 433.54,-96.07 438.63,-53.54 442.53,-29.67"/>
<polygon fill="midnightblue" stroke="midnightblue" points="446.02,-30.02 444.29,-19.57 439.12,-28.82 446.02,-30.02"/>
</g>
<!-- Node32&#45;&gt;Node10 -->
<g id="edge50" class="edge">
<title>Node32&#45;&gt;Node10</title>
<path fill="none" stroke="midnightblue" d="M395.35,-177.12C340,-175 255.5,-165.77 191,-132 160.09,-115.82 149.2,-108.29 136,-76 128.34,-57.27 144.37,-38.4 159.19,-25.85"/>
<polygon fill="midnightblue" stroke="midnightblue" points="161.46,-28.52 167.14,-19.57 157.12,-23.02 161.46,-28.52"/>
</g>
<!-- Node32&#45;&gt;Node13 -->
<g id="edge54" class="edge">
<title>Node32&#45;&gt;Node13</title>
<path fill="none" stroke="midnightblue" d="M395.31,-172.36C341.01,-166.65 265.34,-154.78 247,-132 222.29,-101.31 248.27,-53.24 265.43,-27.91"/>
<polygon fill="midnightblue" stroke="midnightblue" points="268.33,-29.87 271.25,-19.68 262.62,-25.83 268.33,-29.87"/>
</g>
<!-- Node32&#45;&gt;Node15 -->
<g id="edge56" class="edge">
<title>Node32&#45;&gt;Node15</title>
<path fill="none" stroke="midnightblue" d="M456.23,-168.43C464.04,-148.13 485.18,-95.8 510,-56 516.29,-45.92 524.49,-35.51 531.47,-27.24"/>
<polygon fill="midnightblue" stroke="midnightblue" points="534.27,-29.35 538.18,-19.51 528.99,-24.77 534.27,-29.35"/>
</g>
<!-- Node32&#45;&gt;Node16 -->
<g id="edge51" class="edge">
<title>Node32&#45;&gt;Node16</title>
<path fill="none" stroke="midnightblue" d="M447.19,-168.08C429.97,-141.61 378.97,-63.21 356.2,-28.21"/>
<polygon fill="midnightblue" stroke="midnightblue" points="358.96,-26.04 350.57,-19.57 353.09,-29.86 358.96,-26.04"/>
</g>
<!-- Node32&#45;&gt;Node26 -->
<g id="edge49" class="edge">
<title>Node32&#45;&gt;Node26</title>
<path fill="none" stroke="midnightblue" d="M510.68,-172.3C631.96,-162.42 913.08,-139.53 1045.1,-128.77"/>
<polygon fill="midnightblue" stroke="midnightblue" points="1045.43,-132.26 1055.11,-127.96 1044.86,-125.28 1045.43,-132.26"/>
</g>
<!-- Node32&#45;&gt;Node28 -->
<g id="edge55" class="edge">
<title>Node32&#45;&gt;Node28</title>
<path fill="none" stroke="midnightblue" d="M460.06,-168.37C475.05,-150.05 510.23,-107.05 529.61,-83.36"/>
<polygon fill="midnightblue" stroke="midnightblue" points="532.35,-85.55 535.97,-75.59 526.93,-81.11 532.35,-85.55"/>
</g>
<!-- Node32&#45;&gt;Node29 -->
<g id="edge52" class="edge">
<title>Node32&#45;&gt;Node29</title>
<path fill="none" stroke="midnightblue" d="M395.42,-171.35C334.47,-164.47 243.11,-151.33 214,-132 196.97,-120.69 185.06,-100.08 178.16,-85.09"/>
<polygon fill="midnightblue" stroke="midnightblue" points="181.34,-83.62 174.18,-75.8 174.9,-86.37 181.34,-83.62"/>
</g>
<!-- Node33 -->
<g id="node33" class="node">
<title>Node33</title>
<g id="a_node33"><a xlink:title=" ">
<polygon fill="none" stroke="#bfbfbf" points="256.5,-112.5 256.5,-131.5 321.5,-131.5 321.5,-112.5 256.5,-112.5"/>
<text text-anchor="middle" x="289" y="-119.5" font-family="Helvetica,sans-Serif" font-size="10.00">functional</text>
</a>
</g>
</g>
<!-- Node32&#45;&gt;Node33 -->
<g id="edge53" class="edge">
<title>Node32&#45;&gt;Node33</title>
<path fill="none" stroke="midnightblue" d="M427.01,-168.44C399.3,-159.32 355.25,-144.81 324.38,-134.65"/>
<polygon fill="midnightblue" stroke="midnightblue" points="325.46,-131.32 314.86,-131.52 323.27,-137.97 325.46,-131.32"/>
</g>
<!-- Node32&#45;&gt;Node34 -->
<g id="edge57" class="edge">
<title>Node32&#45;&gt;Node34</title>
<path fill="none" stroke="midnightblue" d="M472.01,-168.44C492.39,-159.27 524.86,-144.66 547.46,-134.5"/>
<polygon fill="midnightblue" stroke="midnightblue" points="549.09,-137.6 556.77,-130.3 546.21,-131.22 549.09,-137.6"/>
</g>
<!-- Node35&#45;&gt;Node10 -->
<g id="edge71" class="edge">
<title>Node35&#45;&gt;Node10</title>
<path fill="none" stroke="midnightblue" d="M607.39,-113.25C519.84,-100.81 357.16,-77.6 351,-76 299.18,-62.58 241.46,-38.65 208.08,-23.87"/>
<polygon fill="midnightblue" stroke="midnightblue" points="209.09,-20.49 198.54,-19.6 206.24,-26.88 209.09,-20.49"/>
</g>
<!-- Node35&#45;&gt;Node13 -->
<g id="edge72" class="edge">
<title>Node35&#45;&gt;Node13</title>
<path fill="none" stroke="midnightblue" d="M607.47,-112.58C536.51,-101.49 419.27,-82.6 400,-76 362.72,-63.24 323.07,-40.1 299.43,-25.16"/>
<polygon fill="midnightblue" stroke="midnightblue" points="301.21,-22.14 290.9,-19.68 297.43,-28.03 301.21,-22.14"/>
</g>
<!-- Node35&#45;&gt;Node14 -->
<g id="edge73" class="edge">
<title>Node35&#45;&gt;Node14</title>
<path fill="none" stroke="midnightblue" d="M687,-112.45C711.82,-103.81 750.86,-89.79 784,-76 803.46,-67.9 806.76,-61.87 827,-56 943.63,-22.2 981.04,-43.77 1104.86,-19.69"/>
<polygon fill="midnightblue" stroke="midnightblue" points="1105.61,-23.11 1114.72,-17.71 1104.23,-16.25 1105.61,-23.11"/>
</g>
<!-- Node35&#45;&gt;Node16 -->
<g id="edge75" class="edge">
<title>Node35&#45;&gt;Node16</title>
<path fill="none" stroke="midnightblue" d="M607.33,-112.57C551.43,-103.49 468.71,-88.63 439,-76 409.81,-63.59 380.43,-41.34 362.47,-26.37"/>
<polygon fill="midnightblue" stroke="midnightblue" points="364.5,-23.5 354.62,-19.68 359.96,-28.83 364.5,-23.5"/>
</g>
<!-- Node35&#45;&gt;Node21 -->
<g id="edge74" class="edge">
<title>Node35&#45;&gt;Node21</title>
<path fill="none" stroke="midnightblue" d="M699.24,-112.44C742.94,-102.4 815.03,-85.84 859.04,-75.72"/>
<polygon fill="midnightblue" stroke="midnightblue" points="859.83,-79.13 868.79,-73.48 858.26,-72.31 859.83,-79.13"/>
</g>
<!-- Node35&#45;&gt;Node24 -->
<g id="edge76" class="edge">
<title>Node35&#45;&gt;Node24</title>
<path fill="none" stroke="midnightblue" d="M716.67,-116.37C843.14,-105.67 1153.34,-79.41 1261.81,-70.23"/>
<polygon fill="midnightblue" stroke="midnightblue" points="1262.29,-73.7 1271.96,-69.37 1261.7,-66.73 1262.29,-73.7"/>
</g>
</g>
</svg>
        <g id="navigator" transform="translate(0 0)" fill="#404254">
                <rect fill="#f2f5e9" fill-opacity="0.5" stroke="#606060" stroke-width=".5" x="0" y="0" width="60" height="60"/>
                <use id="zoomplus" xlink:href="#zoomPlus" x="17" y="9" onmousedown="handleZoom(evt,'in')"/>
                <use id="zoomminus" xlink:href="#zoomMin" x="42" y="9" onmousedown="handleZoom(evt,'out')"/>
                <use id="reset" xlink:href="#resetDef" x="30" y="36" onmousedown="handleReset()"/>
                <g id="arrowUp" xlink:href="#dirArrow" transform="translate(30 24)" onmousedown="handlePan(0,-1)">
                  <use xlink:href="#rim" fill="#404040">
                        <set attributeName="fill" to="#808080" begin="arrowUp.mouseover" end="arrowUp.mouseout"/>
                  </use>
                  <path fill="none" stroke="white" stroke-width="1.5" d="M0,-3.0v7 M-2.5,-0.5L0,-3.0L2.5,-0.5"/>
                </g>
                <g id="arrowRight" xlink:href="#dirArrow" transform="rotate(90) translate(36 -43)" onmousedown="handlePan(1,0)">
                  <use xlink:href="#rim" fill="#404040">
                        <set attributeName="fill" to="#808080" begin="arrowRight.mouseover" end="arrowRight.mouseout"/>
                  </use>
                  <path fill="none" stroke="white" stroke-width="1.5" d="M0,-3.0v7 M-2.5,-0.5L0,-3.0L2.5,-0.5"/>
                </g>
                <g id="arrowDown" xlink:href="#dirArrow" transform="rotate(180) translate(-30 -48)" onmousedown="handlePan(0,1)">
                  <use xlink:href="#rim" fill="#404040">
                        <set attributeName="fill" to="#808080" begin="arrowDown.mouseover" end="arrowDown.mouseout"/>
                  </use>
                  <path fill="none" stroke="white" stroke-width="1.5" d="M0,-3.0v7 M-2.5,-0.5L0,-3.0L2.5,-0.5"/>
                </g>
                <g id="arrowLeft" xlink:href="#dirArrow" transform="rotate(270) translate(-36 17)" onmousedown="handlePan(-1,0)">
                  <use xlink:href="#rim" fill="#404040">
                        <set attributeName="fill" to="#808080" begin="arrowLeft.mouseover" end="arrowLeft.mouseout"/>
                  </use>
                  <path fill="none" stroke="white" stroke-width="1.5" d="M0,-3.0v7 M-2.5,-0.5L0,-3.0L2.5,-0.5"/>
                </g>
        </g>
        <svg viewBox="0 0 15 15" width="100%" height="30px" preserveAspectRatio="xMaxYMin meet">
         <g id="arrow_out" transform="scale(0.3 0.3)">
          <a xlink:href="SystemManager_8cpp__incl_org.svg" target="_base">
           <rect id="button" ry="5" rx="5" y="6" x="6" height="38" width="38"
                fill="#f2f5e9" fill-opacity="0.5" stroke="#606060" stroke-width="1.0"/>
           <path id="arrow"
             d="M 11.500037,31.436501 C 11.940474,20.09759 22.043105,11.32322 32.158766,21.979434 L 37.068811,17.246167 C 37.068811,17.246167 37.088388,32 37.088388,32 L 22.160133,31.978069 C 22.160133,31.978069 26.997745,27.140456 26.997745,27.140456 C 18.528582,18.264221 13.291696,25.230495 11.500037,31.436501 z"
             style="fill:#404040;"/>
          </a>
         </g>
        </svg>
</svg>
