<?xml version="1.0" encoding="UTF-8" standalone="no"?>
<!DOCTYPE svg PUBLIC "-//W3C//DTD SVG 1.1//EN"
 "http://www.w3.org/Graphics/SVG/1.1/DTD/svg11.dtd">
<!-- Generated by graphviz version 2.43.0 (0)
 -->
<!-- Title: DeviceManager::getOpenCameraByID Pages: 1 -->
<svg width="629pt" height="66pt"
 viewBox="0.00 0.00 629.00 66.00" xmlns="http://www.w3.org/2000/svg" xmlns:xlink="http://www.w3.org/1999/xlink">
<g id="graph0" class="graph" transform="scale(1 1) rotate(0) translate(4 62)">
<title>DeviceManager::getOpenCameraByID</title>
<!-- Node1 -->
<g id="node1" class="node">
<title>Node1</title>
<g id="a_node1"><a xlink:title="Returns an open camera by its ID.">
<polygon fill="#bfbfbf" stroke="black" points="419,-19.5 419,-38.5 621,-38.5 621,-19.5 419,-19.5"/>
<text text-anchor="middle" x="520" y="-26.5" font-family="Helvetica,sans-Serif" font-size="10.00">DeviceManager::getOpenCameraByID</text>
</a>
</g>
</g>
<!-- Node2 -->
<g id="node2" class="node">
<title>Node2</title>
<g id="a_node2"><a xlink:href="classDeviceManager.html#a3f93dff8d6545e06c2ac5d4b782bfd7d" target="_top" xlink:title="Closes a camera by device ID.">
<polygon fill="none" stroke="black" points="220,-38.5 220,-57.5 383,-57.5 383,-38.5 220,-38.5"/>
<text text-anchor="middle" x="301.5" y="-45.5" font-family="Helvetica,sans-Serif" font-size="10.00">DeviceManager::closeCamera</text>
</a>
</g>
</g>
<!-- Node1&#45;&gt;Node2 -->
<g id="edge1" class="edge">
<title>Node1&#45;&gt;Node2</title>
<path fill="none" stroke="midnightblue" d="M408.87,-38.66C400.25,-39.42 391.65,-40.18 383.28,-40.91"/>
<polygon fill="midnightblue" stroke="midnightblue" points="409.33,-42.14 418.99,-37.78 408.72,-35.16 409.33,-42.14"/>
</g>
<!-- Node4 -->
<g id="node4" class="node">
<title>Node4</title>
<g id="a_node4"><a xlink:href="classSystemManager.html#afafb2e37213d40237e75284d5bc6eb9e" target="_top" xlink:title=" ">
<polygon fill="none" stroke="black" points="224.5,-0.5 224.5,-19.5 378.5,-19.5 378.5,-0.5 224.5,-0.5"/>
<text text-anchor="middle" x="301.5" y="-7.5" font-family="Helvetica,sans-Serif" font-size="10.00">SystemManager::setFeature</text>
</a>
</g>
</g>
<!-- Node1&#45;&gt;Node4 -->
<g id="edge3" class="edge">
<title>Node1&#45;&gt;Node4</title>
<path fill="none" stroke="midnightblue" d="M408.83,-19.33C398.67,-18.44 388.53,-17.55 378.77,-16.69"/>
<polygon fill="midnightblue" stroke="midnightblue" points="408.72,-22.84 418.99,-20.22 409.33,-15.86 408.72,-22.84"/>
</g>
<!-- Node3 -->
<g id="node3" class="node">
<title>Node3</title>
<g id="a_node3"><a xlink:href="classDeviceManager.html#ad91a247c8acfd51c533be52313ce7ddd" target="_top" xlink:title=" ">
<polygon fill="none" stroke="black" points="0,-38.5 0,-57.5 184,-57.5 184,-38.5 0,-38.5"/>
<text text-anchor="middle" x="92" y="-45.5" font-family="Helvetica,sans-Serif" font-size="10.00">DeviceManager::~DeviceManager</text>
</a>
</g>
</g>
<!-- Node2&#45;&gt;Node3 -->
<g id="edge2" class="edge">
<title>Node2&#45;&gt;Node3</title>
<path fill="none" stroke="midnightblue" d="M209.71,-48C201.24,-48 192.65,-48 184.17,-48"/>
<polygon fill="midnightblue" stroke="midnightblue" points="209.98,-51.5 219.98,-48 209.98,-44.5 209.98,-51.5"/>
</g>
<!-- Node5 -->
<g id="node5" class="node">
<title>Node5</title>
<g id="a_node5"><a xlink:href="cli_8cpp.html#a0ddf1224851353fc92bfbff6f499fa97" target="_top" xlink:title=" ">
<polygon fill="none" stroke="black" points="71.5,-0.5 71.5,-19.5 112.5,-19.5 112.5,-0.5 71.5,-0.5"/>
<text text-anchor="middle" x="92" y="-7.5" font-family="Helvetica,sans-Serif" font-size="10.00">main</text>
</a>
</g>
</g>
<!-- Node4&#45;&gt;Node5 -->
<g id="edge4" class="edge">
<title>Node4&#45;&gt;Node5</title>
<path fill="none" stroke="midnightblue" d="M213.98,-10C176.65,-10 136.25,-10 112.86,-10"/>
<polygon fill="midnightblue" stroke="midnightblue" points="214.41,-13.5 224.41,-10 214.41,-6.5 214.41,-13.5"/>
</g>
</g>
</svg>
