<?xml version="1.0" encoding="UTF-8" standalone="no"?>
<!DOCTYPE svg PUBLIC "-//W3C//DTD SVG 1.1//EN"
 "http://www.w3.org/Graphics/SVG/1.1/DTD/svg11.dtd">
<!-- Generated by graphviz version 2.43.0 (0)
 -->
<!-- Title: SystemManager::setFeature Pages: 1 -->
<!--zoomable 142 -->
<svg id="main" version="1.1" xmlns="http://www.w3.org/2000/svg" xmlns:xlink="http://www.w3.org/1999/xlink" xml:space="preserve" onload="init(evt)">
<style type="text/css"><![CDATA[
.edge:hover path { stroke: red; }
.edge:hover polygon { stroke: red; fill: red; }
]]></style>
<script type="text/javascript"><![CDATA[
var edges = document.getElementsByTagName('g');
if (edges && edges.length) {
  for (var i=0;i<edges.length;i++) {
    if (edges[i].id.substr(0,4)=='edge') {
      edges[i].setAttribute('class','edge');
    }
  }
}
]]></script>
        <defs>
                <circle id="rim" cx="0" cy="0" r="7"/>
                <circle id="rim2" cx="0" cy="0" r="3.5"/>
                <g id="zoomPlus">
                        <use xlink:href="#rim" fill="#404040">
                                <set attributeName="fill" to="#808080" begin="zoomplus.mouseover" end="zoomplus.mouseout"/>
                        </use>
                        <path d="M-4,0h8M0,-4v8" fill="none" stroke="white" stroke-width="1.5" pointer-events="none"/>
                </g>
                <g id="zoomMin">
                        <use xlink:href="#rim" fill="#404040">
                                <set attributeName="fill" to="#808080" begin="zoomminus.mouseover" end="zoomminus.mouseout"/>
                        </use>
                        <path d="M-4,0h8" fill="none" stroke="white" stroke-width="1.5" pointer-events="none"/>
                </g>
                <g id="dirArrow">
                        <path fill="none" stroke="white" stroke-width="1.5" d="M0,-3.0v7 M-2.5,-0.5L0,-3.0L2.5,-0.5"/>
                </g>
               <g id="resetDef">
                       <use xlink:href="#rim2" fill="#404040">
                               <set attributeName="fill" to="#808080" begin="reset.mouseover" end="reset.mouseout"/>
                       </use>
               </g>
        </defs>

<script type="text/javascript">
var viewWidth = 861;
var viewHeight = 142;
var sectionId = 'dynsection-10';
</script>
<script xlink:href="svgpan.js"/>
<svg id="graph" class="graph">
<g id="viewport">
<title>SystemManager::setFeature</title>
<!-- Node1 -->
<g id="node1" class="node">
<title>Node1</title>
<g id="a_node1"><a xlink:title=" ">
<polygon fill="#bfbfbf" stroke="black" points="0,-57.5 0,-76.5 154,-76.5 154,-57.5 0,-57.5"/>
<text text-anchor="middle" x="77" y="-64.5" font-family="Helvetica,sans-Serif" font-size="10.00">SystemManager::setFeature</text>
</a>
</g>
</g>
<!-- Node2 -->
<g id="node2" class="node">
<title>Node2</title>
<g id="a_node2"><a xlink:href="classDeviceManager.html#a36a89dec4c09c02f7269093b346c37b6" target="_top" xlink:title="Creates Camera objects for the specified device IDs.">
<polygon fill="none" stroke="black" points="204.5,-114.5 204.5,-133.5 377.5,-133.5 377.5,-114.5 204.5,-114.5"/>
<text text-anchor="middle" x="291" y="-121.5" font-family="Helvetica,sans-Serif" font-size="10.00">DeviceManager::createCameras</text>
</a>
</g>
</g>
<!-- Node1&#45;&gt;Node2 -->
<g id="edge1" class="edge">
<title>Node1&#45;&gt;Node2</title>
<path fill="none" stroke="midnightblue" d="M103.05,-76.62C125.55,-84.99 159.62,-97 190,-105 200.4,-107.74 211.51,-110.25 222.4,-112.48"/>
<polygon fill="midnightblue" stroke="midnightblue" points="221.83,-115.94 232.32,-114.46 223.19,-109.07 221.83,-115.94"/>
</g>
<!-- Node5 -->
<g id="node5" class="node">
<title>Node5</title>
<g id="a_node5"><a xlink:href="classDeviceManager.html#a6e25f6e110c117449b53e10ca0c65192" target="_top" xlink:title="Returns an open camera by its ID.">
<polygon fill="none" stroke="black" points="190,-76.5 190,-95.5 392,-95.5 392,-76.5 190,-76.5"/>
<text text-anchor="middle" x="291" y="-83.5" font-family="Helvetica,sans-Serif" font-size="10.00">DeviceManager::getOpenCameraByID</text>
</a>
</g>
</g>
<!-- Node1&#45;&gt;Node5 -->
<g id="edge4" class="edge">
<title>Node1&#45;&gt;Node5</title>
<path fill="none" stroke="midnightblue" d="M154.24,-73.83C162.51,-74.57 171.05,-75.34 179.63,-76.11"/>
<polygon fill="midnightblue" stroke="midnightblue" points="179.43,-79.6 189.7,-77.01 180.06,-72.63 179.43,-79.6"/>
</g>
<!-- Node6 -->
<g id="node6" class="node">
<title>Node6</title>
<g id="a_node6"><a xlink:href="classDeviceManager.html#a48de9e5e15c8d95c2d3cc4ef739b0f4c" target="_top" xlink:title="Sets the exposure time for all open cameras.">
<polygon fill="none" stroke="black" points="192.5,-38.5 192.5,-57.5 389.5,-57.5 389.5,-38.5 192.5,-38.5"/>
<text text-anchor="middle" x="291" y="-45.5" font-family="Helvetica,sans-Serif" font-size="10.00">DeviceManager::setExposureTimeAll</text>
</a>
</g>
</g>
<!-- Node1&#45;&gt;Node6 -->
<g id="edge5" class="edge">
<title>Node1&#45;&gt;Node6</title>
<path fill="none" stroke="midnightblue" d="M154.24,-60.17C163.3,-59.35 172.69,-58.51 182.09,-57.67"/>
<polygon fill="midnightblue" stroke="midnightblue" points="182.64,-61.14 192.29,-56.76 182.01,-54.16 182.64,-61.14"/>
</g>
<!-- Node7 -->
<g id="node7" class="node">
<title>Node7</title>
<g id="a_node7"><a xlink:href="classDeviceManager.html#a546e00328c31f53a9e94a583908ffe7d" target="_top" xlink:title="Sets the pixel format for all open cameras.">
<polygon fill="none" stroke="black" points="198.5,-0.5 198.5,-19.5 383.5,-19.5 383.5,-0.5 198.5,-0.5"/>
<text text-anchor="middle" x="291" y="-7.5" font-family="Helvetica,sans-Serif" font-size="10.00">DeviceManager::setPixelFormatAll</text>
</a>
</g>
</g>
<!-- Node1&#45;&gt;Node7 -->
<g id="edge6" class="edge">
<title>Node1&#45;&gt;Node7</title>
<path fill="none" stroke="midnightblue" d="M103.05,-57.38C125.55,-49.01 159.62,-37 190,-29 200.4,-26.26 211.51,-23.75 222.4,-21.52"/>
<polygon fill="midnightblue" stroke="midnightblue" points="223.19,-24.93 232.32,-19.54 221.83,-18.06 223.19,-24.93"/>
</g>
<!-- Node3 -->
<g id="node3" class="node">
<title>Node3</title>
<g id="a_node3"><a xlink:href="classDeviceManager.html#a5de621ae914e130ad5a5e977c02272f4" target="_top" xlink:title="Creates a camera by device ID.">
<polygon fill="none" stroke="black" points="428,-114.5 428,-133.5 596,-133.5 596,-114.5 428,-114.5"/>
<text text-anchor="middle" x="512" y="-121.5" font-family="Helvetica,sans-Serif" font-size="10.00">DeviceManager::createCamera</text>
</a>
</g>
</g>
<!-- Node2&#45;&gt;Node3 -->
<g id="edge2" class="edge">
<title>Node2&#45;&gt;Node3</title>
<path fill="none" stroke="midnightblue" d="M377.61,-124C390.8,-124 404.48,-124 417.83,-124"/>
<polygon fill="midnightblue" stroke="midnightblue" points="417.96,-127.5 427.96,-124 417.96,-120.5 417.96,-127.5"/>
</g>
<!-- Node4 -->
<g id="node4" class="node">
<title>Node4</title>
<g id="a_node4"><a xlink:href="classDeviceManager.html#a6374a294f1d0d15f18ab35aea1fb6158" target="_top" xlink:title="Returns a device by its ID.">
<polygon fill="none" stroke="black" points="632,-114.5 632,-133.5 853,-133.5 853,-114.5 632,-114.5"/>
<text text-anchor="middle" x="742.5" y="-121.5" font-family="Helvetica,sans-Serif" font-size="10.00">DeviceManager::getAvailableCameraByID</text>
</a>
</g>
</g>
<!-- Node3&#45;&gt;Node4 -->
<g id="edge3" class="edge">
<title>Node3&#45;&gt;Node4</title>
<path fill="none" stroke="midnightblue" d="M596.14,-124C604.49,-124 613.07,-124 621.7,-124"/>
<polygon fill="midnightblue" stroke="midnightblue" points="621.84,-127.5 631.84,-124 621.84,-120.5 621.84,-127.5"/>
</g>
</g>
</svg>
        <g id="navigator" transform="translate(0 0)" fill="#404254">
                <rect fill="#f2f5e9" fill-opacity="0.5" stroke="#606060" stroke-width=".5" x="0" y="0" width="60" height="60"/>
                <use id="zoomplus" xlink:href="#zoomPlus" x="17" y="9" onmousedown="handleZoom(evt,'in')"/>
                <use id="zoomminus" xlink:href="#zoomMin" x="42" y="9" onmousedown="handleZoom(evt,'out')"/>
                <use id="reset" xlink:href="#resetDef" x="30" y="36" onmousedown="handleReset()"/>
                <g id="arrowUp" xlink:href="#dirArrow" transform="translate(30 24)" onmousedown="handlePan(0,-1)">
                  <use xlink:href="#rim" fill="#404040">
                        <set attributeName="fill" to="#808080" begin="arrowUp.mouseover" end="arrowUp.mouseout"/>
                  </use>
                  <path fill="none" stroke="white" stroke-width="1.5" d="M0,-3.0v7 M-2.5,-0.5L0,-3.0L2.5,-0.5"/>
                </g>
                <g id="arrowRight" xlink:href="#dirArrow" transform="rotate(90) translate(36 -43)" onmousedown="handlePan(1,0)">
                  <use xlink:href="#rim" fill="#404040">
                        <set attributeName="fill" to="#808080" begin="arrowRight.mouseover" end="arrowRight.mouseout"/>
                  </use>
                  <path fill="none" stroke="white" stroke-width="1.5" d="M0,-3.0v7 M-2.5,-0.5L0,-3.0L2.5,-0.5"/>
                </g>
                <g id="arrowDown" xlink:href="#dirArrow" transform="rotate(180) translate(-30 -48)" onmousedown="handlePan(0,1)">
                  <use xlink:href="#rim" fill="#404040">
                        <set attributeName="fill" to="#808080" begin="arrowDown.mouseover" end="arrowDown.mouseout"/>
                  </use>
                  <path fill="none" stroke="white" stroke-width="1.5" d="M0,-3.0v7 M-2.5,-0.5L0,-3.0L2.5,-0.5"/>
                </g>
                <g id="arrowLeft" xlink:href="#dirArrow" transform="rotate(270) translate(-36 17)" onmousedown="handlePan(-1,0)">
                  <use xlink:href="#rim" fill="#404040">
                        <set attributeName="fill" to="#808080" begin="arrowLeft.mouseover" end="arrowLeft.mouseout"/>
                  </use>
                  <path fill="none" stroke="white" stroke-width="1.5" d="M0,-3.0v7 M-2.5,-0.5L0,-3.0L2.5,-0.5"/>
                </g>
        </g>
        <svg viewBox="0 0 15 15" width="100%" height="30px" preserveAspectRatio="xMaxYMin meet">
         <g id="arrow_out" transform="scale(0.3 0.3)">
          <a xlink:href="classSystemManager_afafb2e37213d40237e75284d5bc6eb9e_cgraph_org.svg" target="_base">
           <rect id="button" ry="5" rx="5" y="6" x="6" height="38" width="38"
                fill="#f2f5e9" fill-opacity="0.5" stroke="#606060" stroke-width="1.0"/>
           <path id="arrow"
             d="M 11.500037,31.436501 C 11.940474,20.09759 22.043105,11.32322 32.158766,21.979434 L 37.068811,17.246167 C 37.068811,17.246167 37.088388,32 37.088388,32 L 22.160133,31.978069 C 22.160133,31.978069 26.997745,27.140456 26.997745,27.140456 C 18.528582,18.264221 13.291696,25.230495 11.500037,31.436501 z"
             style="fill:#404040;"/>
          </a>
         </g>
        </svg>
</svg>
