<?xml version="1.0" encoding="UTF-8" standalone="no"?>
<!DOCTYPE svg PUBLIC "-//W3C//DTD SVG 1.1//EN"
 "http://www.w3.org/Graphics/SVG/1.1/DTD/svg11.dtd">
<!-- Generated by graphviz version 2.43.0 (0)
 -->
<!-- Title: SystemManager::ptpDisable Pages: 1 -->
<svg width="844pt" height="104pt"
 viewBox="0.00 0.00 844.00 104.00" xmlns="http://www.w3.org/2000/svg" xmlns:xlink="http://www.w3.org/1999/xlink">
<g id="graph0" class="graph" transform="scale(1 1) rotate(0) translate(4 100)">
<title>SystemManager::ptpDisable</title>
<!-- Node1 -->
<g id="node1" class="node">
<title>Node1</title>
<g id="a_node1"><a xlink:title=" ">
<polygon fill="#bfbfbf" stroke="black" points="0,-38.5 0,-57.5 155,-57.5 155,-38.5 0,-38.5"/>
<text text-anchor="middle" x="77.5" y="-45.5" font-family="Helvetica,sans-Serif" font-size="10.00">SystemManager::ptpDisable</text>
</a>
</g>
</g>
<!-- Node2 -->
<g id="node2" class="node">
<title>Node2</title>
<g id="a_node2"><a xlink:href="classDeviceManager.html#a36a89dec4c09c02f7269093b346c37b6" target="_top" xlink:title="Creates Camera objects for the specified device IDs.">
<polygon fill="none" stroke="black" points="196.5,-76.5 196.5,-95.5 369.5,-95.5 369.5,-76.5 196.5,-76.5"/>
<text text-anchor="middle" x="283" y="-83.5" font-family="Helvetica,sans-Serif" font-size="10.00">DeviceManager::createCameras</text>
</a>
</g>
</g>
<!-- Node1&#45;&gt;Node2 -->
<g id="edge1" class="edge">
<title>Node1&#45;&gt;Node2</title>
<path fill="none" stroke="midnightblue" d="M129.59,-57.54C157.29,-62.71 191.71,-69.14 220.83,-74.58"/>
<polygon fill="midnightblue" stroke="midnightblue" points="220.42,-78.06 230.89,-76.46 221.7,-71.18 220.42,-78.06"/>
</g>
<!-- Node5 -->
<g id="node5" class="node">
<title>Node5</title>
<g id="a_node5"><a xlink:href="classNetworkManager.html#a72d16c3ed9d65f8f9ac365fd576d9077" target="_top" xlink:title="Disables PTP synchronization on a list of open cameras.">
<polygon fill="none" stroke="black" points="204,-38.5 204,-57.5 362,-57.5 362,-38.5 204,-38.5"/>
<text text-anchor="middle" x="283" y="-45.5" font-family="Helvetica,sans-Serif" font-size="10.00">NetworkManager::disablePtp</text>
</a>
</g>
</g>
<!-- Node1&#45;&gt;Node5 -->
<g id="edge4" class="edge">
<title>Node1&#45;&gt;Node5</title>
<path fill="none" stroke="midnightblue" d="M155.14,-48C167.68,-48 180.76,-48 193.55,-48"/>
<polygon fill="midnightblue" stroke="midnightblue" points="193.73,-51.5 203.73,-48 193.73,-44.5 193.73,-51.5"/>
</g>
<!-- Node6 -->
<g id="node6" class="node">
<title>Node6</title>
<g id="a_node6"><a xlink:href="classDeviceManager.html#aa5df5c2756fda96dc9438e1c85071699" target="_top" xlink:title="Returns the list of currently open cameras.">
<polygon fill="none" stroke="black" points="191,-0.5 191,-19.5 375,-19.5 375,-0.5 191,-0.5"/>
<text text-anchor="middle" x="283" y="-7.5" font-family="Helvetica,sans-Serif" font-size="10.00">DeviceManager::getOpenCameras</text>
</a>
</g>
</g>
<!-- Node1&#45;&gt;Node6 -->
<g id="edge5" class="edge">
<title>Node1&#45;&gt;Node6</title>
<path fill="none" stroke="midnightblue" d="M129.59,-38.46C157.29,-33.29 191.71,-26.86 220.83,-21.42"/>
<polygon fill="midnightblue" stroke="midnightblue" points="221.7,-24.82 230.89,-19.54 220.42,-17.94 221.7,-24.82"/>
</g>
<!-- Node3 -->
<g id="node3" class="node">
<title>Node3</title>
<g id="a_node3"><a xlink:href="classDeviceManager.html#a5de621ae914e130ad5a5e977c02272f4" target="_top" xlink:title="Creates a camera by device ID.">
<polygon fill="none" stroke="black" points="411,-76.5 411,-95.5 579,-95.5 579,-76.5 411,-76.5"/>
<text text-anchor="middle" x="495" y="-83.5" font-family="Helvetica,sans-Serif" font-size="10.00">DeviceManager::createCamera</text>
</a>
</g>
</g>
<!-- Node2&#45;&gt;Node3 -->
<g id="edge2" class="edge">
<title>Node2&#45;&gt;Node3</title>
<path fill="none" stroke="midnightblue" d="M369.72,-86C379.93,-86 390.38,-86 400.69,-86"/>
<polygon fill="midnightblue" stroke="midnightblue" points="400.93,-89.5 410.93,-86 400.93,-82.5 400.93,-89.5"/>
</g>
<!-- Node4 -->
<g id="node4" class="node">
<title>Node4</title>
<g id="a_node4"><a xlink:href="classDeviceManager.html#a6374a294f1d0d15f18ab35aea1fb6158" target="_top" xlink:title="Returns a device by its ID.">
<polygon fill="none" stroke="black" points="615,-76.5 615,-95.5 836,-95.5 836,-76.5 615,-76.5"/>
<text text-anchor="middle" x="725.5" y="-83.5" font-family="Helvetica,sans-Serif" font-size="10.00">DeviceManager::getAvailableCameraByID</text>
</a>
</g>
</g>
<!-- Node3&#45;&gt;Node4 -->
<g id="edge3" class="edge">
<title>Node3&#45;&gt;Node4</title>
<path fill="none" stroke="midnightblue" d="M579.14,-86C587.49,-86 596.07,-86 604.7,-86"/>
<polygon fill="midnightblue" stroke="midnightblue" points="604.84,-89.5 614.84,-86 604.84,-82.5 604.84,-89.5"/>
</g>
</g>
</svg>
