<?xml version="1.0" encoding="UTF-8" standalone="no"?>
<!DOCTYPE svg PUBLIC "-//W3C//DTD SVG 1.1//EN"
 "http://www.w3.org/Graphics/SVG/1.1/DTD/svg11.dtd">
<!-- Generated by graphviz version 2.43.0 (0)
 -->
<!-- Title: NetworkManager::configurePtpSyncFreeRun Pages: 1 -->
<!--zoomable 199 -->
<svg id="main" version="1.1" xmlns="http://www.w3.org/2000/svg" xmlns:xlink="http://www.w3.org/1999/xlink" xml:space="preserve" onload="init(evt)">
<style type="text/css"><![CDATA[
.edge:hover path { stroke: red; }
.edge:hover polygon { stroke: red; fill: red; }
]]></style>
<script type="text/javascript"><![CDATA[
var edges = document.getElementsByTagName('g');
if (edges && edges.length) {
  for (var i=0;i<edges.length;i++) {
    if (edges[i].id.substr(0,4)=='edge') {
      edges[i].setAttribute('class','edge');
    }
  }
}
]]></script>
        <defs>
                <circle id="rim" cx="0" cy="0" r="7"/>
                <circle id="rim2" cx="0" cy="0" r="3.5"/>
                <g id="zoomPlus">
                        <use xlink:href="#rim" fill="#404040">
                                <set attributeName="fill" to="#808080" begin="zoomplus.mouseover" end="zoomplus.mouseout"/>
                        </use>
                        <path d="M-4,0h8M0,-4v8" fill="none" stroke="white" stroke-width="1.5" pointer-events="none"/>
                </g>
                <g id="zoomMin">
                        <use xlink:href="#rim" fill="#404040">
                                <set attributeName="fill" to="#808080" begin="zoomminus.mouseover" end="zoomminus.mouseout"/>
                        </use>
                        <path d="M-4,0h8" fill="none" stroke="white" stroke-width="1.5" pointer-events="none"/>
                </g>
                <g id="dirArrow">
                        <path fill="none" stroke="white" stroke-width="1.5" d="M0,-3.0v7 M-2.5,-0.5L0,-3.0L2.5,-0.5"/>
                </g>
               <g id="resetDef">
                       <use xlink:href="#rim2" fill="#404040">
                               <set attributeName="fill" to="#808080" begin="reset.mouseover" end="reset.mouseout"/>
                       </use>
               </g>
        </defs>

<script type="text/javascript">
var viewWidth = 916;
var viewHeight = 199;
var sectionId = 'dynsection-5';
</script>
<script xlink:href="svgpan.js"/>
<svg id="graph" class="graph">
<g id="viewport">
<title>NetworkManager::configurePtpSyncFreeRun</title>
<!-- Node1 -->
<g id="node1" class="node">
<title>Node1</title>
<g id="a_node1"><a xlink:title="Configures cameras for PTP&#45;synchronized free&#45;run streaming.">
<polygon fill="#bfbfbf" stroke="black" points="0,-71 0,-101 167,-101 167,-71 0,-71"/>
<text text-anchor="start" x="8" y="-89" font-family="Helvetica,sans-Serif" font-size="10.00">NetworkManager::configurePtp</text>
<text text-anchor="middle" x="83.5" y="-78" font-family="Helvetica,sans-Serif" font-size="10.00">SyncFreeRun</text>
</a>
</g>
</g>
<!-- Node2 -->
<g id="node2" class="node">
<title>Node2</title>
<g id="a_node2"><a xlink:href="classNetworkManager.html#a22ca4e3eadd1f887bb5f90f98570709f" target="_top" xlink:title="Configures network bandwidth settings.">
<polygon fill="none" stroke="black" points="203,-152.5 203,-171.5 406,-171.5 406,-152.5 203,-152.5"/>
<text text-anchor="middle" x="304.5" y="-159.5" font-family="Helvetica,sans-Serif" font-size="10.00">NetworkManager::configureBandwidth</text>
</a>
</g>
</g>
<!-- Node1&#45;&gt;Node2 -->
<g id="edge1" class="edge">
<title>Node1&#45;&gt;Node2</title>
<path fill="none" stroke="midnightblue" d="M110.96,-101.21C134.44,-114.1 170.04,-132.16 203,-143 211.49,-145.79 220.52,-148.22 229.55,-150.32"/>
<polygon fill="midnightblue" stroke="midnightblue" points="228.81,-153.74 239.33,-152.47 230.32,-146.9 228.81,-153.74"/>
</g>
<!-- Node8 -->
<g id="node8" class="node">
<title>Node8</title>
<g id="a_node8"><a xlink:href="classNetworkManager.html#a97139087ce2feb24bce02b5e26ef1cf5" target="_top" xlink:title="Enables PTP (Precision Time Protocol) synchronization on a list of open cameras.">
<polygon fill="none" stroke="black" points="227,-114.5 227,-133.5 382,-133.5 382,-114.5 227,-114.5"/>
<text text-anchor="middle" x="304.5" y="-121.5" font-family="Helvetica,sans-Serif" font-size="10.00">NetworkManager::enablePtp</text>
</a>
</g>
</g>
<!-- Node1&#45;&gt;Node8 -->
<g id="edge7" class="edge">
<title>Node1&#45;&gt;Node8</title>
<path fill="none" stroke="midnightblue" d="M167.29,-100.37C190.82,-104.45 216.1,-108.84 238.42,-112.71"/>
<polygon fill="midnightblue" stroke="midnightblue" points="238,-116.19 248.45,-114.45 239.19,-109.29 238,-116.19"/>
</g>
<!-- Node9 -->
<g id="node9" class="node">
<title>Node9</title>
<g id="a_node9"><a xlink:href="classNetworkManager.html#a580689530037e60c278f61c2d541e86c" target="_top" xlink:title="Monitors and logs PTP offsets over time.">
<polygon fill="none" stroke="black" points="209.5,-76.5 209.5,-95.5 399.5,-95.5 399.5,-76.5 209.5,-76.5"/>
<text text-anchor="middle" x="304.5" y="-83.5" font-family="Helvetica,sans-Serif" font-size="10.00">NetworkManager::monitorPtpOffset</text>
</a>
</g>
</g>
<!-- Node1&#45;&gt;Node9 -->
<g id="edge8" class="edge">
<title>Node1&#45;&gt;Node9</title>
<path fill="none" stroke="midnightblue" d="M167.29,-86C177.67,-86 188.38,-86 199.03,-86"/>
<polygon fill="midnightblue" stroke="midnightblue" points="199.21,-89.5 209.21,-86 199.21,-82.5 199.21,-89.5"/>
</g>
<!-- Node13 -->
<g id="node13" class="node">
<title>Node13</title>
<g id="a_node13"><a xlink:href="classNetworkManager.html#a5cff683bdb24c9f3359fc259e73cc036" target="_top" xlink:title="Monitors the PTP synchronization status of open cameras.">
<polygon fill="none" stroke="black" points="209,-38.5 209,-57.5 400,-57.5 400,-38.5 209,-38.5"/>
<text text-anchor="middle" x="304.5" y="-45.5" font-family="Helvetica,sans-Serif" font-size="10.00">NetworkManager::monitorPtpStatus</text>
</a>
</g>
</g>
<!-- Node1&#45;&gt;Node13 -->
<g id="edge12" class="edge">
<title>Node1&#45;&gt;Node13</title>
<path fill="none" stroke="midnightblue" d="M167.29,-71.63C190.82,-67.55 216.1,-63.16 238.42,-59.29"/>
<polygon fill="midnightblue" stroke="midnightblue" points="239.19,-62.71 248.45,-57.55 238,-55.81 239.19,-62.71"/>
</g>
<!-- Node14 -->
<g id="node14" class="node">
<title>Node14</title>
<g id="a_node14"><a xlink:href="classNetworkManager.html#ae34ac9fc3697d706c4938c61f44ecd59" target="_top" xlink:title="Plots the offset trends over time for PTP synchronization analysis.">
<polygon fill="none" stroke="black" points="470,-0.5 470,-19.5 630,-19.5 630,-0.5 470,-0.5"/>
<text text-anchor="middle" x="550" y="-7.5" font-family="Helvetica,sans-Serif" font-size="10.00">NetworkManager::plotOffsets</text>
</a>
</g>
</g>
<!-- Node1&#45;&gt;Node14 -->
<g id="edge13" class="edge">
<title>Node1&#45;&gt;Node14</title>
<path fill="none" stroke="midnightblue" d="M108.83,-70.76C132.05,-57.09 168.51,-37.87 203,-29 288.11,-7.12 388.74,-4.03 459.47,-5.4"/>
<polygon fill="midnightblue" stroke="midnightblue" points="459.6,-8.9 469.68,-5.63 459.76,-1.91 459.6,-8.9"/>
</g>
<!-- Node3 -->
<g id="node3" class="node">
<title>Node3</title>
<g id="a_node3"><a xlink:href="classNetworkManager.html#acd8737d274da2f02b0e1635b4b9f63bb" target="_top" xlink:title="Calculates the theoretical maximum frames per second (FPS) based on packet delay.">
<polygon fill="none" stroke="black" points="455.5,-171.5 455.5,-190.5 644.5,-190.5 644.5,-171.5 455.5,-171.5"/>
<text text-anchor="middle" x="550" y="-178.5" font-family="Helvetica,sans-Serif" font-size="10.00">NetworkManager::calculateMaxFps</text>
</a>
</g>
</g>
<!-- Node2&#45;&gt;Node3 -->
<g id="edge2" class="edge">
<title>Node2&#45;&gt;Node3</title>
<path fill="none" stroke="midnightblue" d="M406.3,-169.87C419.1,-170.86 432.22,-171.89 445.07,-172.89"/>
<polygon fill="midnightblue" stroke="midnightblue" points="445.06,-176.4 455.31,-173.69 445.61,-169.42 445.06,-176.4"/>
</g>
<!-- Node5 -->
<g id="node5" class="node">
<title>Node5</title>
<g id="a_node5"><a xlink:href="classNetworkManager.html#a88d3b203ca5c2d28212c5da9f8cdde7d" target="_top" xlink:title="Sets the exposure and frame rate of the cameras based on bandwidth and exposure constraints.">
<polygon fill="none" stroke="black" points="448.5,-133.5 448.5,-152.5 651.5,-152.5 651.5,-133.5 448.5,-133.5"/>
<text text-anchor="middle" x="550" y="-140.5" font-family="Helvetica,sans-Serif" font-size="10.00">NetworkManager::setExposureAndFps</text>
</a>
</g>
</g>
<!-- Node2&#45;&gt;Node5 -->
<g id="edge4" class="edge">
<title>Node2&#45;&gt;Node5</title>
<path fill="none" stroke="midnightblue" d="M406.3,-154.13C416.81,-153.31 427.53,-152.48 438.15,-151.65"/>
<polygon fill="midnightblue" stroke="midnightblue" points="438.58,-155.13 448.28,-150.86 438.04,-148.15 438.58,-155.13"/>
</g>
<!-- Node4 -->
<g id="node4" class="node">
<title>Node4</title>
<g id="a_node4"><a xlink:href="GlobalSettings_8cpp.html#a4e4d4e3815c368773a4dfcfc9d19666c" target="_top" xlink:title="Sets the global FPS upper bound.">
<polygon fill="none" stroke="black" points="731,-171.5 731,-190.5 871,-190.5 871,-171.5 731,-171.5"/>
<text text-anchor="middle" x="801" y="-178.5" font-family="Helvetica,sans-Serif" font-size="10.00">setGlobalFpsUpperBound</text>
</a>
</g>
</g>
<!-- Node3&#45;&gt;Node4 -->
<g id="edge3" class="edge">
<title>Node3&#45;&gt;Node4</title>
<path fill="none" stroke="midnightblue" d="M644.78,-181C669.75,-181 696.48,-181 720.6,-181"/>
<polygon fill="midnightblue" stroke="midnightblue" points="720.76,-184.5 730.76,-181 720.76,-177.5 720.76,-184.5"/>
</g>
<!-- Node6 -->
<g id="node6" class="node">
<title>Node6</title>
<g id="a_node6"><a xlink:href="GlobalSettings_8cpp.html#ae20198dd587799aa9d5579c3597f7fb4" target="_top" xlink:title="Gets the global FPS upper bound.">
<polygon fill="none" stroke="black" points="730.5,-133.5 730.5,-152.5 871.5,-152.5 871.5,-133.5 730.5,-133.5"/>
<text text-anchor="middle" x="801" y="-140.5" font-family="Helvetica,sans-Serif" font-size="10.00">getGlobalFpsUpperBound</text>
</a>
</g>
</g>
<!-- Node5&#45;&gt;Node6 -->
<g id="edge5" class="edge">
<title>Node5&#45;&gt;Node6</title>
<path fill="none" stroke="midnightblue" d="M651.56,-143C674.4,-143 698.35,-143 720.19,-143"/>
<polygon fill="midnightblue" stroke="midnightblue" points="720.4,-146.5 730.4,-143 720.4,-139.5 720.4,-146.5"/>
</g>
<!-- Node7 -->
<g id="node7" class="node">
<title>Node7</title>
<g id="a_node7"><a xlink:href="classNetworkManager.html#a2894fa4186d5341d1ceea4930cd1f448" target="_top" xlink:title="Retrieves the real minimum exposure time set on the cameras.">
<polygon fill="none" stroke="black" points="694,-95.5 694,-114.5 908,-114.5 908,-95.5 694,-95.5"/>
<text text-anchor="middle" x="801" y="-102.5" font-family="Helvetica,sans-Serif" font-size="10.00">NetworkManager::getMinimumExposure</text>
</a>
</g>
</g>
<!-- Node5&#45;&gt;Node7 -->
<g id="edge6" class="edge">
<title>Node5&#45;&gt;Node7</title>
<path fill="none" stroke="midnightblue" d="M613.51,-133.46C648.14,-128.17 691.37,-121.58 727.48,-116.07"/>
<polygon fill="midnightblue" stroke="midnightblue" points="728.1,-119.51 737.46,-114.54 727.05,-112.59 728.1,-119.51"/>
</g>
<!-- Node10 -->
<g id="node10" class="node">
<title>Node10</title>
<g id="a_node10"><a xlink:href="classNetworkManager.html#ae856b2f8ac57cb540414667eccc6832a" target="_top" xlink:title="Logs the history of PTP offsets to a CSV file.">
<polygon fill="none" stroke="black" points="442,-76.5 442,-95.5 658,-95.5 658,-76.5 442,-76.5"/>
<text text-anchor="middle" x="550" y="-83.5" font-family="Helvetica,sans-Serif" font-size="10.00">NetworkManager::logOffsetHistoryToCSV</text>
</a>
</g>
</g>
<!-- Node9&#45;&gt;Node10 -->
<g id="edge9" class="edge">
<title>Node9&#45;&gt;Node10</title>
<path fill="none" stroke="midnightblue" d="M399.64,-86C410.09,-86 420.82,-86 431.51,-86"/>
<polygon fill="midnightblue" stroke="midnightblue" points="431.73,-89.5 441.73,-86 431.73,-82.5 431.73,-89.5"/>
</g>
<!-- Node12 -->
<g id="node12" class="node">
<title>Node12</title>
<g id="a_node12"><a xlink:href="classNetworkManager.html#a8f23d31231702bcd91a3cf101a8394e6" target="_top" xlink:title="Prints the PTP configuration details of a camera.">
<polygon fill="none" stroke="black" points="462,-38.5 462,-57.5 638,-57.5 638,-38.5 462,-38.5"/>
<text text-anchor="middle" x="550" y="-45.5" font-family="Helvetica,sans-Serif" font-size="10.00">NetworkManager::printPtpConfig</text>
</a>
</g>
</g>
<!-- Node9&#45;&gt;Node12 -->
<g id="edge11" class="edge">
<title>Node9&#45;&gt;Node12</title>
<path fill="none" stroke="midnightblue" d="M366.63,-76.46C400.35,-71.2 442.41,-64.63 477.63,-59.14"/>
<polygon fill="midnightblue" stroke="midnightblue" points="478.5,-62.54 487.84,-57.54 477.42,-55.63 478.5,-62.54"/>
</g>
<!-- Node11 -->
<g id="node11" class="node">
<title>Node11</title>
<g id="a_node11"><a xlink:href="GlobalSettings_8hpp.html#a292086bff16224cc0653061c22440e60" target="_top" xlink:title="Returns the session timestamp as a string.">
<polygon fill="none" stroke="black" points="738.5,-38.5 738.5,-57.5 863.5,-57.5 863.5,-38.5 738.5,-38.5"/>
<text text-anchor="middle" x="801" y="-45.5" font-family="Helvetica,sans-Serif" font-size="10.00">getSessionTimestamp</text>
</a>
</g>
</g>
<!-- Node10&#45;&gt;Node11 -->
<g id="edge10" class="edge">
<title>Node10&#45;&gt;Node11</title>
<path fill="none" stroke="midnightblue" d="M613.51,-76.46C648.41,-71.13 692.02,-64.48 728.3,-58.94"/>
<polygon fill="midnightblue" stroke="midnightblue" points="728.97,-62.38 738.33,-57.41 727.91,-55.46 728.97,-62.38"/>
</g>
<!-- Node14&#45;&gt;Node11 -->
<g id="edge14" class="edge">
<title>Node14&#45;&gt;Node11</title>
<path fill="none" stroke="midnightblue" d="M613.51,-19.54C648.41,-24.87 692.02,-31.52 728.3,-37.06"/>
<polygon fill="midnightblue" stroke="midnightblue" points="727.91,-40.54 738.33,-38.59 728.97,-33.62 727.91,-40.54"/>
</g>
</g>
</svg>
        <g id="navigator" transform="translate(0 0)" fill="#404254">
                <rect fill="#f2f5e9" fill-opacity="0.5" stroke="#606060" stroke-width=".5" x="0" y="0" width="60" height="60"/>
                <use id="zoomplus" xlink:href="#zoomPlus" x="17" y="9" onmousedown="handleZoom(evt,'in')"/>
                <use id="zoomminus" xlink:href="#zoomMin" x="42" y="9" onmousedown="handleZoom(evt,'out')"/>
                <use id="reset" xlink:href="#resetDef" x="30" y="36" onmousedown="handleReset()"/>
                <g id="arrowUp" xlink:href="#dirArrow" transform="translate(30 24)" onmousedown="handlePan(0,-1)">
                  <use xlink:href="#rim" fill="#404040">
                        <set attributeName="fill" to="#808080" begin="arrowUp.mouseover" end="arrowUp.mouseout"/>
                  </use>
                  <path fill="none" stroke="white" stroke-width="1.5" d="M0,-3.0v7 M-2.5,-0.5L0,-3.0L2.5,-0.5"/>
                </g>
                <g id="arrowRight" xlink:href="#dirArrow" transform="rotate(90) translate(36 -43)" onmousedown="handlePan(1,0)">
                  <use xlink:href="#rim" fill="#404040">
                        <set attributeName="fill" to="#808080" begin="arrowRight.mouseover" end="arrowRight.mouseout"/>
                  </use>
                  <path fill="none" stroke="white" stroke-width="1.5" d="M0,-3.0v7 M-2.5,-0.5L0,-3.0L2.5,-0.5"/>
                </g>
                <g id="arrowDown" xlink:href="#dirArrow" transform="rotate(180) translate(-30 -48)" onmousedown="handlePan(0,1)">
                  <use xlink:href="#rim" fill="#404040">
                        <set attributeName="fill" to="#808080" begin="arrowDown.mouseover" end="arrowDown.mouseout"/>
                  </use>
                  <path fill="none" stroke="white" stroke-width="1.5" d="M0,-3.0v7 M-2.5,-0.5L0,-3.0L2.5,-0.5"/>
                </g>
                <g id="arrowLeft" xlink:href="#dirArrow" transform="rotate(270) translate(-36 17)" onmousedown="handlePan(-1,0)">
                  <use xlink:href="#rim" fill="#404040">
                        <set attributeName="fill" to="#808080" begin="arrowLeft.mouseover" end="arrowLeft.mouseout"/>
                  </use>
                  <path fill="none" stroke="white" stroke-width="1.5" d="M0,-3.0v7 M-2.5,-0.5L0,-3.0L2.5,-0.5"/>
                </g>
        </g>
        <svg viewBox="0 0 15 15" width="100%" height="30px" preserveAspectRatio="xMaxYMin meet">
         <g id="arrow_out" transform="scale(0.3 0.3)">
          <a xlink:href="classNetworkManager_a5131787ff8e8985e848e8456c1e6b202_cgraph_org.svg" target="_base">
           <rect id="button" ry="5" rx="5" y="6" x="6" height="38" width="38"
                fill="#f2f5e9" fill-opacity="0.5" stroke="#606060" stroke-width="1.0"/>
           <path id="arrow"
             d="M 11.500037,31.436501 C 11.940474,20.09759 22.043105,11.32322 32.158766,21.979434 L 37.068811,17.246167 C 37.068811,17.246167 37.088388,32 37.088388,32 L 22.160133,31.978069 C 22.160133,31.978069 26.997745,27.140456 26.997745,27.140456 C 18.528582,18.264221 13.291696,25.230495 11.500037,31.436501 z"
             style="fill:#404040;"/>
          </a>
         </g>
        </svg>
</svg>
