<?xml version="1.0" encoding="UTF-8" standalone="no"?>
<!DOCTYPE svg PUBLIC "-//W3C//DTD SVG 1.1//EN"
 "http://www.w3.org/Graphics/SVG/1.1/DTD/svg11.dtd">
<!-- Generated by graphviz version 2.43.0 (0)
 -->
<!-- Title: DeviceManager::getAvailableCameras Pages: 1 -->
<svg width="698pt" height="88pt"
 viewBox="0.00 0.00 698.00 88.00" xmlns="http://www.w3.org/2000/svg" xmlns:xlink="http://www.w3.org/1999/xlink">
<g id="graph0" class="graph" transform="scale(1 1) rotate(0) translate(4 84)">
<title>DeviceManager::getAvailableCameras</title>
<!-- Node1 -->
<g id="node1" class="node">
<title>Node1</title>
<g id="a_node1"><a xlink:title="Discovers available cameras on the network.">
<polygon fill="#bfbfbf" stroke="black" points="0,-30 0,-49 203,-49 203,-30 0,-30"/>
<text text-anchor="middle" x="101.5" y="-37" font-family="Helvetica,sans-Serif" font-size="10.00">DeviceManager::getAvailableCameras</text>
</a>
</g>
</g>
<!-- Node2 -->
<g id="node2" class="node">
<title>Node2</title>
<g id="a_node2"><a xlink:href="classDeviceManager.html#adc4c1e62f3f57bd1568a27891c2503a9" target="_top" xlink:title="Enumerates devices from default systems.">
<polygon fill="none" stroke="black" points="239,-49.5 239,-79.5 430,-79.5 430,-49.5 239,-49.5"/>
<text text-anchor="start" x="247" y="-67.5" font-family="Helvetica,sans-Serif" font-size="10.00">DeviceManager::enumerateDevices</text>
<text text-anchor="middle" x="334.5" y="-56.5" font-family="Helvetica,sans-Serif" font-size="10.00">FromDefault</text>
</a>
</g>
</g>
<!-- Node1&#45;&gt;Node2 -->
<g id="edge1" class="edge">
<title>Node1&#45;&gt;Node2</title>
<path fill="none" stroke="midnightblue" d="M190.49,-49.02C202.97,-50.37 215.9,-51.77 228.65,-53.15"/>
<polygon fill="midnightblue" stroke="midnightblue" points="228.51,-56.66 238.83,-54.25 229.26,-49.7 228.51,-56.66"/>
</g>
<!-- Node4 -->
<g id="node4" class="node">
<title>Node4</title>
<g id="a_node4"><a xlink:href="classDeviceManager.html#ab0ab314042a5d622db73d67b3bbdedf4" target="_top" xlink:title="Enumerates devices from given systems.">
<polygon fill="none" stroke="black" points="239,-0.5 239,-30.5 430,-30.5 430,-0.5 239,-0.5"/>
<text text-anchor="start" x="247" y="-18.5" font-family="Helvetica,sans-Serif" font-size="10.00">DeviceManager::enumerateDevices</text>
<text text-anchor="middle" x="334.5" y="-7.5" font-family="Helvetica,sans-Serif" font-size="10.00">FromSystems</text>
</a>
</g>
</g>
<!-- Node1&#45;&gt;Node4 -->
<g id="edge3" class="edge">
<title>Node1&#45;&gt;Node4</title>
<path fill="none" stroke="midnightblue" d="M194.13,-29.98C205.53,-28.8 217.25,-27.58 228.83,-26.38"/>
<polygon fill="midnightblue" stroke="midnightblue" points="229.37,-29.84 238.95,-25.32 228.64,-22.88 229.37,-29.84"/>
</g>
<!-- Node3 -->
<g id="node3" class="node">
<title>Node3</title>
<g id="a_node3"><a xlink:href="classDeviceManager.html#a43697adcb530c627f78ee0d18b357ca7" target="_top" xlink:title="Returns a device by its serial number.">
<polygon fill="none" stroke="black" points="466,-55 466,-74 690,-74 690,-55 466,-55"/>
<text text-anchor="middle" x="578" y="-62" font-family="Helvetica,sans-Serif" font-size="10.00">DeviceManager::getAvailableCameraBySN</text>
</a>
</g>
</g>
<!-- Node2&#45;&gt;Node3 -->
<g id="edge2" class="edge">
<title>Node2&#45;&gt;Node3</title>
<path fill="none" stroke="midnightblue" d="M430.25,-64.5C438.61,-64.5 447.14,-64.5 455.68,-64.5"/>
<polygon fill="midnightblue" stroke="midnightblue" points="455.69,-68 465.69,-64.5 455.69,-61 455.69,-68"/>
</g>
<!-- Node5 -->
<g id="node5" class="node">
<title>Node5</title>
<g id="a_node5"><a xlink:href="classDeviceManager.html#a6374a294f1d0d15f18ab35aea1fb6158" target="_top" xlink:title="Returns a device by its ID.">
<polygon fill="none" stroke="black" points="467.5,-6 467.5,-25 688.5,-25 688.5,-6 467.5,-6"/>
<text text-anchor="middle" x="578" y="-13" font-family="Helvetica,sans-Serif" font-size="10.00">DeviceManager::getAvailableCameraByID</text>
</a>
</g>
</g>
<!-- Node4&#45;&gt;Node5 -->
<g id="edge4" class="edge">
<title>Node4&#45;&gt;Node5</title>
<path fill="none" stroke="midnightblue" d="M430.25,-15.5C439.09,-15.5 448.11,-15.5 457.14,-15.5"/>
<polygon fill="midnightblue" stroke="midnightblue" points="457.31,-19 467.31,-15.5 457.31,-12 457.31,-19"/>
</g>
</g>
</svg>
