<?xml version="1.0" encoding="UTF-8" standalone="no"?>
<!DOCTYPE svg PUBLIC "-//W3C//DTD SVG 1.1//EN"
 "http://www.w3.org/Graphics/SVG/1.1/DTD/svg11.dtd">
<!-- Generated by graphviz version 2.43.0 (0)
 -->
<!-- Title: Camera::getLastSavedFps Pages: 1 -->
<svg width="523pt" height="47pt"
 viewBox="0.00 0.00 523.00 47.00" xmlns="http://www.w3.org/2000/svg" xmlns:xlink="http://www.w3.org/1999/xlink">
<g id="graph0" class="graph" transform="scale(1 1) rotate(0) translate(4 43)">
<title>Camera::getLastSavedFps</title>
<!-- Node1 -->
<g id="node1" class="node">
<title>Node1</title>
<g id="a_node1"><a xlink:title="Returns the last saved FPS value.">
<polygon fill="#bfbfbf" stroke="black" points="371,-0.5 371,-19.5 515,-19.5 515,-0.5 371,-0.5"/>
<text text-anchor="middle" x="443" y="-7.5" font-family="Helvetica,sans-Serif" font-size="10.00">Camera::getLastSavedFps</text>
</a>
</g>
</g>
<!-- Node2 -->
<g id="node2" class="node">
<title>Node2</title>
<g id="a_node2"><a xlink:href="classCamera.html#aefac8771f67d504e83aeff81eba2c8d0" target="_top" xlink:title="Checks if FPS is stable enough for saving.">
<polygon fill="none" stroke="black" points="170,-19.5 170,-38.5 335,-38.5 335,-19.5 170,-19.5"/>
<text text-anchor="middle" x="252.5" y="-26.5" font-family="Helvetica,sans-Serif" font-size="10.00">Camera::isFpsStableForSaving</text>
</a>
</g>
</g>
<!-- Node1&#45;&gt;Node2 -->
<g id="edge1" class="edge">
<title>Node1&#45;&gt;Node2</title>
<path fill="none" stroke="midnightblue" d="M360.6,-18.21C352.21,-19.05 343.69,-19.91 335.3,-20.76"/>
<polygon fill="midnightblue" stroke="midnightblue" points="361.14,-21.67 370.74,-17.18 360.44,-14.7 361.14,-21.67"/>
</g>
<!-- Node3 -->
<g id="node3" class="node">
<title>Node3</title>
<g id="a_node3"><a xlink:href="classCamera.html#ad9f2f078e719c799e1a677a12ea52b44" target="_top" xlink:title="Starts streaming frames from the camera.">
<polygon fill="none" stroke="black" points="0,-0.5 0,-19.5 134,-19.5 134,-0.5 0,-0.5"/>
<text text-anchor="middle" x="67" y="-7.5" font-family="Helvetica,sans-Serif" font-size="10.00">Camera::startStreaming</text>
</a>
</g>
</g>
<!-- Node1&#45;&gt;Node3 -->
<g id="edge3" class="edge">
<title>Node1&#45;&gt;Node3</title>
<path fill="none" stroke="midnightblue" d="M360.56,-10C292.76,-10 197.44,-10 134.26,-10"/>
<polygon fill="midnightblue" stroke="midnightblue" points="360.77,-13.5 370.77,-10 360.77,-6.5 360.77,-13.5"/>
</g>
<!-- Node2&#45;&gt;Node3 -->
<g id="edge2" class="edge">
<title>Node2&#45;&gt;Node3</title>
<path fill="none" stroke="midnightblue" d="M159.81,-19.51C151.17,-18.61 142.52,-17.72 134.18,-16.85"/>
<polygon fill="midnightblue" stroke="midnightblue" points="159.64,-23.01 169.95,-20.56 160.36,-16.04 159.64,-23.01"/>
</g>
</g>
</svg>
