<?xml version="1.0" encoding="UTF-8" standalone="no"?>
<!DOCTYPE svg PUBLIC "-//W3C//DTD SVG 1.1//EN"
 "http://www.w3.org/Graphics/SVG/1.1/DTD/svg11.dtd">
<!-- Generated by graphviz version 2.43.0 (0)
 -->
<!-- Title: DeviceManager::listCamera Pages: 1 -->
<svg width="672pt" height="39pt"
 viewBox="0.00 0.00 672.00 39.00" xmlns="http://www.w3.org/2000/svg" xmlns:xlink="http://www.w3.org/1999/xlink">
<g id="graph0" class="graph" transform="scale(1 1) rotate(0) translate(4 35)">
<title>DeviceManager::listCamera</title>
<!-- Node1 -->
<g id="node1" class="node">
<title>Node1</title>
<g id="a_node1"><a xlink:title="Lists a single camera.">
<polygon fill="#bfbfbf" stroke="black" points="512,-6 512,-25 664,-25 664,-6 512,-6"/>
<text text-anchor="middle" x="588" y="-13" font-family="Helvetica,sans-Serif" font-size="10.00">DeviceManager::listCamera</text>
</a>
</g>
</g>
<!-- Node2 -->
<g id="node2" class="node">
<title>Node2</title>
<g id="a_node2"><a xlink:href="classDeviceManager.html#a46948952d8a01fccc65158dec681858b" target="_top" xlink:title="Lists the currently open cameras.">
<polygon fill="none" stroke="black" points="294,-6 294,-25 476,-25 476,-6 294,-6"/>
<text text-anchor="middle" x="385" y="-13" font-family="Helvetica,sans-Serif" font-size="10.00">DeviceManager::listopenCameras</text>
</a>
</g>
</g>
<!-- Node1&#45;&gt;Node2 -->
<g id="edge1" class="edge">
<title>Node1&#45;&gt;Node2</title>
<path fill="none" stroke="midnightblue" d="M501.71,-15.5C493.31,-15.5 484.76,-15.5 476.31,-15.5"/>
<polygon fill="midnightblue" stroke="midnightblue" points="501.87,-19 511.87,-15.5 501.87,-12 501.87,-19"/>
</g>
<!-- Node3 -->
<g id="node3" class="node">
<title>Node3</title>
<g id="a_node3"><a xlink:href="classSystemManager.html#a66e896c8491898746732c76fe733d57d" target="_top" xlink:title=" ">
<polygon fill="none" stroke="black" points="77,-0.5 77,-30.5 258,-30.5 258,-0.5 77,-0.5"/>
<text text-anchor="start" x="85" y="-18.5" font-family="Helvetica,sans-Serif" font-size="10.00">SystemManager::enumerateOpen</text>
<text text-anchor="middle" x="167.5" y="-7.5" font-family="Helvetica,sans-Serif" font-size="10.00">Cameras</text>
</a>
</g>
</g>
<!-- Node2&#45;&gt;Node3 -->
<g id="edge2" class="edge">
<title>Node2&#45;&gt;Node3</title>
<path fill="none" stroke="midnightblue" d="M283.6,-15.5C275.15,-15.5 266.64,-15.5 258.28,-15.5"/>
<polygon fill="midnightblue" stroke="midnightblue" points="283.86,-19 293.86,-15.5 283.86,-12 283.86,-19"/>
</g>
<!-- Node4 -->
<g id="node4" class="node">
<title>Node4</title>
<g id="a_node4"><a xlink:href="cli_8cpp.html#a0ddf1224851353fc92bfbff6f499fa97" target="_top" xlink:title=" ">
<polygon fill="none" stroke="black" points="0,-6 0,-25 41,-25 41,-6 0,-6"/>
<text text-anchor="middle" x="20.5" y="-13" font-family="Helvetica,sans-Serif" font-size="10.00">main</text>
</a>
</g>
</g>
<!-- Node3&#45;&gt;Node4 -->
<g id="edge3" class="edge">
<title>Node3&#45;&gt;Node4</title>
<path fill="none" stroke="midnightblue" d="M66.62,-15.5C57.15,-15.5 48.4,-15.5 41.18,-15.5"/>
<polygon fill="midnightblue" stroke="midnightblue" points="66.73,-19 76.73,-15.5 66.73,-12 66.73,-19"/>
</g>
</g>
</svg>
