<?xml version="1.0" encoding="UTF-8" standalone="no"?>
<!DOCTYPE svg PUBLIC "-//W3C//DTD SVG 1.1//EN"
 "http://www.w3.org/Graphics/SVG/1.1/DTD/svg11.dtd">
<!-- Generated by graphviz version 2.43.0 (0)
 -->
<!-- Title: Camera::hexToMAC Pages: 1 -->
<svg width="390pt" height="28pt"
 viewBox="0.00 0.00 390.00 28.00" xmlns="http://www.w3.org/2000/svg" xmlns:xlink="http://www.w3.org/1999/xlink">
<g id="graph0" class="graph" transform="scale(1 1) rotate(0) translate(4 24)">
<title>Camera::hexToMAC</title>
<!-- Node1 -->
<g id="node1" class="node">
<title>Node1</title>
<g id="a_node1"><a xlink:title="Converts a hexadecimal MAC address to string.">
<polygon fill="#bfbfbf" stroke="black" points="270,-0.5 270,-19.5 382,-19.5 382,-0.5 270,-0.5"/>
<text text-anchor="middle" x="326" y="-7.5" font-family="Helvetica,sans-Serif" font-size="10.00">Camera::hexToMAC</text>
</a>
</g>
</g>
<!-- Node2 -->
<g id="node2" class="node">
<title>Node2</title>
<g id="a_node2"><a xlink:href="classCamera.html#abfa5e73af0569daf079c9e7604a42bb4" target="_top" xlink:title="Returns the MAC address.">
<polygon fill="none" stroke="black" points="135,-0.5 135,-19.5 234,-19.5 234,-0.5 135,-0.5"/>
<text text-anchor="middle" x="184.5" y="-7.5" font-family="Helvetica,sans-Serif" font-size="10.00">Camera::getMAC</text>
</a>
</g>
</g>
<!-- Node1&#45;&gt;Node2 -->
<g id="edge1" class="edge">
<title>Node1&#45;&gt;Node2</title>
<path fill="none" stroke="midnightblue" d="M259.86,-10C251.28,-10 242.6,-10 234.36,-10"/>
<polygon fill="midnightblue" stroke="midnightblue" points="259.87,-13.5 269.87,-10 259.87,-6.5 259.87,-13.5"/>
</g>
<!-- Node3 -->
<g id="node3" class="node">
<title>Node3</title>
<g id="a_node3"><a xlink:href="classCamera.html#a7a1de593de374d1627a2c8d2320095e6" target="_top" xlink:title="Constructs a Camera object.">
<polygon fill="none" stroke="black" points="0,-0.5 0,-19.5 99,-19.5 99,-0.5 0,-0.5"/>
<text text-anchor="middle" x="49.5" y="-7.5" font-family="Helvetica,sans-Serif" font-size="10.00">Camera::Camera</text>
</a>
</g>
</g>
<!-- Node2&#45;&gt;Node3 -->
<g id="edge2" class="edge">
<title>Node2&#45;&gt;Node3</title>
<path fill="none" stroke="midnightblue" d="M124.55,-10C116.1,-10 107.49,-10 99.26,-10"/>
<polygon fill="midnightblue" stroke="midnightblue" points="124.73,-13.5 134.73,-10 124.73,-6.5 124.73,-13.5"/>
</g>
</g>
</svg>
