<?xml version="1.0" encoding="UTF-8" standalone="no"?>
<!DOCTYPE svg PUBLIC "-//W3C//DTD SVG 1.1//EN"
 "http://www.w3.org/Graphics/SVG/1.1/DTD/svg11.dtd">
<!-- Generated by graphviz version 2.43.0 (0)
 -->
<!-- Title: SystemManager::setFeature Pages: 1 -->
<svg width="861pt" height="142pt"
 viewBox="0.00 0.00 861.00 142.00" xmlns="http://www.w3.org/2000/svg" xmlns:xlink="http://www.w3.org/1999/xlink">
<g id="graph0" class="graph" transform="scale(1 1) rotate(0) translate(4 138)">
<title>SystemManager::setFeature</title>
<!-- Node1 -->
<g id="node1" class="node">
<title>Node1</title>
<g id="a_node1"><a xlink:title=" ">
<polygon fill="#bfbfbf" stroke="black" points="0,-57.5 0,-76.5 154,-76.5 154,-57.5 0,-57.5"/>
<text text-anchor="middle" x="77" y="-64.5" font-family="Helvetica,sans-Serif" font-size="10.00">SystemManager::setFeature</text>
</a>
</g>
</g>
<!-- Node2 -->
<g id="node2" class="node">
<title>Node2</title>
<g id="a_node2"><a xlink:href="classDeviceManager.html#a36a89dec4c09c02f7269093b346c37b6" target="_top" xlink:title="Creates Camera objects for the specified device IDs.">
<polygon fill="none" stroke="black" points="204.5,-114.5 204.5,-133.5 377.5,-133.5 377.5,-114.5 204.5,-114.5"/>
<text text-anchor="middle" x="291" y="-121.5" font-family="Helvetica,sans-Serif" font-size="10.00">DeviceManager::createCameras</text>
</a>
</g>
</g>
<!-- Node1&#45;&gt;Node2 -->
<g id="edge1" class="edge">
<title>Node1&#45;&gt;Node2</title>
<path fill="none" stroke="midnightblue" d="M103.05,-76.62C125.55,-84.99 159.62,-97 190,-105 200.4,-107.74 211.51,-110.25 222.4,-112.48"/>
<polygon fill="midnightblue" stroke="midnightblue" points="221.83,-115.94 232.32,-114.46 223.19,-109.07 221.83,-115.94"/>
</g>
<!-- Node5 -->
<g id="node5" class="node">
<title>Node5</title>
<g id="a_node5"><a xlink:href="classDeviceManager.html#a6e25f6e110c117449b53e10ca0c65192" target="_top" xlink:title="Returns an open camera by its ID.">
<polygon fill="none" stroke="black" points="190,-76.5 190,-95.5 392,-95.5 392,-76.5 190,-76.5"/>
<text text-anchor="middle" x="291" y="-83.5" font-family="Helvetica,sans-Serif" font-size="10.00">DeviceManager::getOpenCameraByID</text>
</a>
</g>
</g>
<!-- Node1&#45;&gt;Node5 -->
<g id="edge4" class="edge">
<title>Node1&#45;&gt;Node5</title>
<path fill="none" stroke="midnightblue" d="M154.24,-73.83C162.51,-74.57 171.05,-75.34 179.63,-76.11"/>
<polygon fill="midnightblue" stroke="midnightblue" points="179.43,-79.6 189.7,-77.01 180.06,-72.63 179.43,-79.6"/>
</g>
<!-- Node6 -->
<g id="node6" class="node">
<title>Node6</title>
<g id="a_node6"><a xlink:href="classDeviceManager.html#a48de9e5e15c8d95c2d3cc4ef739b0f4c" target="_top" xlink:title="Sets the exposure time for all open cameras.">
<polygon fill="none" stroke="black" points="192.5,-38.5 192.5,-57.5 389.5,-57.5 389.5,-38.5 192.5,-38.5"/>
<text text-anchor="middle" x="291" y="-45.5" font-family="Helvetica,sans-Serif" font-size="10.00">DeviceManager::setExposureTimeAll</text>
</a>
</g>
</g>
<!-- Node1&#45;&gt;Node6 -->
<g id="edge5" class="edge">
<title>Node1&#45;&gt;Node6</title>
<path fill="none" stroke="midnightblue" d="M154.24,-60.17C163.3,-59.35 172.69,-58.51 182.09,-57.67"/>
<polygon fill="midnightblue" stroke="midnightblue" points="182.64,-61.14 192.29,-56.76 182.01,-54.16 182.64,-61.14"/>
</g>
<!-- Node7 -->
<g id="node7" class="node">
<title>Node7</title>
<g id="a_node7"><a xlink:href="classDeviceManager.html#a546e00328c31f53a9e94a583908ffe7d" target="_top" xlink:title="Sets the pixel format for all open cameras.">
<polygon fill="none" stroke="black" points="198.5,-0.5 198.5,-19.5 383.5,-19.5 383.5,-0.5 198.5,-0.5"/>
<text text-anchor="middle" x="291" y="-7.5" font-family="Helvetica,sans-Serif" font-size="10.00">DeviceManager::setPixelFormatAll</text>
</a>
</g>
</g>
<!-- Node1&#45;&gt;Node7 -->
<g id="edge6" class="edge">
<title>Node1&#45;&gt;Node7</title>
<path fill="none" stroke="midnightblue" d="M103.05,-57.38C125.55,-49.01 159.62,-37 190,-29 200.4,-26.26 211.51,-23.75 222.4,-21.52"/>
<polygon fill="midnightblue" stroke="midnightblue" points="223.19,-24.93 232.32,-19.54 221.83,-18.06 223.19,-24.93"/>
</g>
<!-- Node3 -->
<g id="node3" class="node">
<title>Node3</title>
<g id="a_node3"><a xlink:href="classDeviceManager.html#a5de621ae914e130ad5a5e977c02272f4" target="_top" xlink:title="Creates a camera by device ID.">
<polygon fill="none" stroke="black" points="428,-114.5 428,-133.5 596,-133.5 596,-114.5 428,-114.5"/>
<text text-anchor="middle" x="512" y="-121.5" font-family="Helvetica,sans-Serif" font-size="10.00">DeviceManager::createCamera</text>
</a>
</g>
</g>
<!-- Node2&#45;&gt;Node3 -->
<g id="edge2" class="edge">
<title>Node2&#45;&gt;Node3</title>
<path fill="none" stroke="midnightblue" d="M377.61,-124C390.8,-124 404.48,-124 417.83,-124"/>
<polygon fill="midnightblue" stroke="midnightblue" points="417.96,-127.5 427.96,-124 417.96,-120.5 417.96,-127.5"/>
</g>
<!-- Node4 -->
<g id="node4" class="node">
<title>Node4</title>
<g id="a_node4"><a xlink:href="classDeviceManager.html#a6374a294f1d0d15f18ab35aea1fb6158" target="_top" xlink:title="Returns a device by its ID.">
<polygon fill="none" stroke="black" points="632,-114.5 632,-133.5 853,-133.5 853,-114.5 632,-114.5"/>
<text text-anchor="middle" x="742.5" y="-121.5" font-family="Helvetica,sans-Serif" font-size="10.00">DeviceManager::getAvailableCameraByID</text>
</a>
</g>
</g>
<!-- Node3&#45;&gt;Node4 -->
<g id="edge3" class="edge">
<title>Node3&#45;&gt;Node4</title>
<path fill="none" stroke="midnightblue" d="M596.14,-124C604.49,-124 613.07,-124 621.7,-124"/>
<polygon fill="midnightblue" stroke="midnightblue" points="621.84,-127.5 631.84,-124 621.84,-120.5 621.84,-127.5"/>
</g>
</g>
</svg>
