<?xml version="1.0" encoding="UTF-8" standalone="no"?>
<!DOCTYPE svg PUBLIC "-//W3C//DTD SVG 1.1//EN"
 "http://www.w3.org/Graphics/SVG/1.1/DTD/svg11.dtd">
<!-- Generated by graphviz version 2.43.0 (0)
 -->
<!-- Title: SystemManager::SystemManager Pages: 1 -->
<svg width="1151pt" height="118pt"
 viewBox="0.00 0.00 1151.00 117.50" xmlns="http://www.w3.org/2000/svg" xmlns:xlink="http://www.w3.org/1999/xlink">
<g id="graph0" class="graph" transform="scale(1 1) rotate(0) translate(4 113.5)">
<title>SystemManager::SystemManager</title>
<!-- Node1 -->
<g id="node1" class="node">
<title>Node1</title>
<g id="a_node1"><a xlink:title=" ">
<polygon fill="#bfbfbf" stroke="black" points="0,-19.5 0,-38.5 182,-38.5 182,-19.5 0,-19.5"/>
<text text-anchor="middle" x="91" y="-26.5" font-family="Helvetica,sans-Serif" font-size="10.00">SystemManager::SystemManager</text>
</a>
</g>
</g>
<!-- Node2 -->
<g id="node2" class="node">
<title>Node2</title>
<g id="a_node2"><a xlink:href="classSystemManager.html#ad083133600bc7f1b8f3946a5b6cb0e1a" target="_top" xlink:title=" ">
<polygon fill="none" stroke="black" points="218,-38.5 218,-57.5 417,-57.5 417,-38.5 218,-38.5"/>
<text text-anchor="middle" x="317.5" y="-45.5" font-family="Helvetica,sans-Serif" font-size="10.00">SystemManager::enumerateCameras</text>
</a>
</g>
</g>
<!-- Node1&#45;&gt;Node2 -->
<g id="edge1" class="edge">
<title>Node1&#45;&gt;Node2</title>
<path fill="none" stroke="midnightblue" d="M182.02,-36.62C190.52,-37.34 199.21,-38.07 207.86,-38.81"/>
<polygon fill="midnightblue" stroke="midnightblue" points="207.73,-42.31 217.99,-39.66 208.32,-35.33 207.73,-42.31"/>
</g>
<!-- Node9 -->
<g id="node9" class="node">
<title>Node9</title>
<g id="a_node9"><a xlink:href="SystemManager_8cpp.html#aa025f45ed88b3ae4067ae664cf12f853" target="_top" xlink:title=" ">
<polygon fill="none" stroke="black" points="277.5,-0.5 277.5,-19.5 357.5,-19.5 357.5,-0.5 277.5,-0.5"/>
<text text-anchor="middle" x="317.5" y="-7.5" font-family="Helvetica,sans-Serif" font-size="10.00">handleSignal</text>
</a>
</g>
</g>
<!-- Node1&#45;&gt;Node9 -->
<g id="edge8" class="edge">
<title>Node1&#45;&gt;Node9</title>
<path fill="none" stroke="midnightblue" d="M182.02,-21.38C211.18,-18.91 242.43,-16.27 267.46,-14.15"/>
<polygon fill="midnightblue" stroke="midnightblue" points="267.76,-17.64 277.43,-13.31 267.17,-10.66 267.76,-17.64"/>
</g>
<!-- Node3 -->
<g id="node3" class="node">
<title>Node3</title>
<g id="a_node3"><a xlink:href="classDeviceManager.html#a8a18f2eeb06ca5683d69aed675dbffcb" target="_top" xlink:title="Discovers available cameras on the network.">
<polygon fill="none" stroke="black" points="453,-60.5 453,-79.5 656,-79.5 656,-60.5 453,-60.5"/>
<text text-anchor="middle" x="554.5" y="-67.5" font-family="Helvetica,sans-Serif" font-size="10.00">DeviceManager::getAvailableCameras</text>
</a>
</g>
</g>
<!-- Node2&#45;&gt;Node3 -->
<g id="edge2" class="edge">
<title>Node2&#45;&gt;Node3</title>
<path fill="none" stroke="midnightblue" d="M417.14,-57.23C425.63,-58.03 434.25,-58.84 442.82,-59.64"/>
<polygon fill="midnightblue" stroke="midnightblue" points="442.57,-63.13 452.85,-60.58 443.22,-56.16 442.57,-63.13"/>
</g>
<!-- Node8 -->
<g id="node8" class="node">
<title>Node8</title>
<g id="a_node8"><a xlink:href="classDeviceManager.html#a8e9faffa5ae7cf3ce2e292219bb82c32" target="_top" xlink:title="Lists all available camera IDs.">
<polygon fill="none" stroke="black" points="475,-11 475,-41 634,-41 634,-11 475,-11"/>
<text text-anchor="start" x="483" y="-29" font-family="Helvetica,sans-Serif" font-size="10.00">DeviceManager::listAvailable</text>
<text text-anchor="middle" x="554.5" y="-18" font-family="Helvetica,sans-Serif" font-size="10.00">CamerasByID</text>
</a>
</g>
</g>
<!-- Node2&#45;&gt;Node8 -->
<g id="edge7" class="edge">
<title>Node2&#45;&gt;Node8</title>
<path fill="none" stroke="midnightblue" d="M417.14,-38.77C432.9,-37.29 449.13,-35.77 464.65,-34.32"/>
<polygon fill="midnightblue" stroke="midnightblue" points="465.11,-37.79 474.74,-33.37 464.45,-30.82 465.11,-37.79"/>
</g>
<!-- Node4 -->
<g id="node4" class="node">
<title>Node4</title>
<g id="a_node4"><a xlink:href="classDeviceManager.html#adc4c1e62f3f57bd1568a27891c2503a9" target="_top" xlink:title="Enumerates devices from default systems.">
<polygon fill="none" stroke="black" points="692,-79 692,-109 883,-109 883,-79 692,-79"/>
<text text-anchor="start" x="700" y="-97" font-family="Helvetica,sans-Serif" font-size="10.00">DeviceManager::enumerateDevices</text>
<text text-anchor="middle" x="787.5" y="-86" font-family="Helvetica,sans-Serif" font-size="10.00">FromDefault</text>
</a>
</g>
</g>
<!-- Node3&#45;&gt;Node4 -->
<g id="edge3" class="edge">
<title>Node3&#45;&gt;Node4</title>
<path fill="none" stroke="midnightblue" d="M647.13,-79.52C658.53,-80.7 670.25,-81.92 681.83,-83.12"/>
<polygon fill="midnightblue" stroke="midnightblue" points="681.64,-86.62 691.95,-84.18 682.37,-79.66 681.64,-86.62"/>
</g>
<!-- Node6 -->
<g id="node6" class="node">
<title>Node6</title>
<g id="a_node6"><a xlink:href="classDeviceManager.html#ab0ab314042a5d622db73d67b3bbdedf4" target="_top" xlink:title="Enumerates devices from given systems.">
<polygon fill="none" stroke="black" points="692,-30 692,-60 883,-60 883,-30 692,-30"/>
<text text-anchor="start" x="700" y="-48" font-family="Helvetica,sans-Serif" font-size="10.00">DeviceManager::enumerateDevices</text>
<text text-anchor="middle" x="787.5" y="-37" font-family="Helvetica,sans-Serif" font-size="10.00">FromSystems</text>
</a>
</g>
</g>
<!-- Node3&#45;&gt;Node6 -->
<g id="edge5" class="edge">
<title>Node3&#45;&gt;Node6</title>
<path fill="none" stroke="midnightblue" d="M643.49,-60.48C655.97,-59.13 668.9,-57.73 681.65,-56.35"/>
<polygon fill="midnightblue" stroke="midnightblue" points="682.26,-59.8 691.83,-55.25 681.51,-52.84 682.26,-59.8"/>
</g>
<!-- Node5 -->
<g id="node5" class="node">
<title>Node5</title>
<g id="a_node5"><a xlink:href="classDeviceManager.html#a43697adcb530c627f78ee0d18b357ca7" target="_top" xlink:title="Returns a device by its serial number.">
<polygon fill="none" stroke="black" points="919,-84.5 919,-103.5 1143,-103.5 1143,-84.5 919,-84.5"/>
<text text-anchor="middle" x="1031" y="-91.5" font-family="Helvetica,sans-Serif" font-size="10.00">DeviceManager::getAvailableCameraBySN</text>
</a>
</g>
</g>
<!-- Node4&#45;&gt;Node5 -->
<g id="edge4" class="edge">
<title>Node4&#45;&gt;Node5</title>
<path fill="none" stroke="midnightblue" d="M883.25,-94C891.61,-94 900.14,-94 908.68,-94"/>
<polygon fill="midnightblue" stroke="midnightblue" points="908.69,-97.5 918.69,-94 908.69,-90.5 908.69,-97.5"/>
</g>
<!-- Node7 -->
<g id="node7" class="node">
<title>Node7</title>
<g id="a_node7"><a xlink:href="classDeviceManager.html#a6374a294f1d0d15f18ab35aea1fb6158" target="_top" xlink:title="Returns a device by its ID.">
<polygon fill="none" stroke="black" points="920.5,-35.5 920.5,-54.5 1141.5,-54.5 1141.5,-35.5 920.5,-35.5"/>
<text text-anchor="middle" x="1031" y="-42.5" font-family="Helvetica,sans-Serif" font-size="10.00">DeviceManager::getAvailableCameraByID</text>
</a>
</g>
</g>
<!-- Node6&#45;&gt;Node7 -->
<g id="edge6" class="edge">
<title>Node6&#45;&gt;Node7</title>
<path fill="none" stroke="midnightblue" d="M883.25,-45C892.09,-45 901.11,-45 910.14,-45"/>
<polygon fill="midnightblue" stroke="midnightblue" points="910.31,-48.5 920.31,-45 910.31,-41.5 910.31,-48.5"/>
</g>
</g>
</svg>
