<?xml version="1.0" encoding="UTF-8" standalone="no"?>
<!DOCTYPE svg PUBLIC "-//W3C//DTD SVG 1.1//EN"
 "http://www.w3.org/Graphics/SVG/1.1/DTD/svg11.dtd">
<!-- Generated by graphviz version 2.43.0 (0)
 -->
<!-- Title: StreamManager::startPtpSyncFreeRun Pages: 1 -->
<svg width="444pt" height="104pt"
 viewBox="0.00 0.00 444.00 104.00" xmlns="http://www.w3.org/2000/svg" xmlns:xlink="http://www.w3.org/1999/xlink">
<g id="graph0" class="graph" transform="scale(1 1) rotate(0) translate(4 100)">
<title>StreamManager::startPtpSyncFreeRun</title>
<!-- Node1 -->
<g id="node1" class="node">
<title>Node1</title>
<g id="a_node1"><a xlink:title="Starts synchronized streaming from multiple cameras using PTP synchronization.">
<polygon fill="#bfbfbf" stroke="black" points="0,-38.5 0,-57.5 202,-57.5 202,-38.5 0,-38.5"/>
<text text-anchor="middle" x="101" y="-45.5" font-family="Helvetica,sans-Serif" font-size="10.00">StreamManager::startPtpSyncFreeRun</text>
</a>
</g>
</g>
<!-- Node2 -->
<g id="node2" class="node">
<title>Node2</title>
<g id="a_node2"><a xlink:href="classStreamManager.html#a9f70fad5bf4dd5108911c05af8f649e3" target="_top" xlink:title="Creates a composite display grid from multiple camera frames.">
<polygon fill="none" stroke="black" points="245,-76.5 245,-95.5 429,-95.5 429,-76.5 245,-76.5"/>
<text text-anchor="middle" x="337" y="-83.5" font-family="Helvetica,sans-Serif" font-size="10.00">StreamManager::createComposite</text>
</a>
</g>
</g>
<!-- Node1&#45;&gt;Node2 -->
<g id="edge1" class="edge">
<title>Node1&#45;&gt;Node2</title>
<path fill="none" stroke="midnightblue" d="M160.75,-57.54C193.01,-62.78 233.22,-69.31 266.98,-74.79"/>
<polygon fill="midnightblue" stroke="midnightblue" points="266.8,-78.31 277.23,-76.46 267.92,-71.4 266.8,-78.31"/>
</g>
<!-- Node3 -->
<g id="node3" class="node">
<title>Node3</title>
<g id="a_node3"><a xlink:href="classStreamManager.html#a0257fcf9f99184dee55ffe95ab5a9c4c" target="_top" xlink:title="Launches a camera streaming thread in free&#45;run mode.">
<polygon fill="none" stroke="black" points="238,-38.5 238,-57.5 436,-57.5 436,-38.5 238,-38.5"/>
<text text-anchor="middle" x="337" y="-45.5" font-family="Helvetica,sans-Serif" font-size="10.00">StreamManager::startFreeRunStream</text>
</a>
</g>
</g>
<!-- Node1&#45;&gt;Node3 -->
<g id="edge2" class="edge">
<title>Node1&#45;&gt;Node3</title>
<path fill="none" stroke="midnightblue" d="M202.26,-48C210.63,-48 219.13,-48 227.56,-48"/>
<polygon fill="midnightblue" stroke="midnightblue" points="227.81,-51.5 237.81,-48 227.81,-44.5 227.81,-51.5"/>
</g>
<!-- Node4 -->
<g id="node4" class="node">
<title>Node4</title>
<g id="a_node4"><a xlink:href="classStreamManager.html#abfb94b1e01cc9952b575a78995532e30" target="_top" xlink:title="Stops all streaming threads and cleans up resources.">
<polygon fill="none" stroke="black" points="251,-0.5 251,-19.5 423,-19.5 423,-0.5 251,-0.5"/>
<text text-anchor="middle" x="337" y="-7.5" font-family="Helvetica,sans-Serif" font-size="10.00">StreamManager::stopStreaming</text>
</a>
</g>
</g>
<!-- Node1&#45;&gt;Node4 -->
<g id="edge3" class="edge">
<title>Node1&#45;&gt;Node4</title>
<path fill="none" stroke="midnightblue" d="M160.75,-38.46C193.01,-33.22 233.22,-26.69 266.98,-21.21"/>
<polygon fill="midnightblue" stroke="midnightblue" points="267.92,-24.6 277.23,-19.54 266.8,-17.69 267.92,-24.6"/>
</g>
</g>
</svg>
