<?xml version="1.0" encoding="UTF-8" standalone="no"?>
<!DOCTYPE svg PUBLIC "-//W3C//DTD SVG 1.1//EN"
 "http://www.w3.org/Graphics/SVG/1.1/DTD/svg11.dtd">
<!-- Generated by graphviz version 2.43.0 (0)
 -->
<!-- Title: SystemManager::ptpEnable Pages: 1 -->
<svg width="1125pt" height="259pt"
 viewBox="0.00 0.00 1125.00 259.00" xmlns="http://www.w3.org/2000/svg" xmlns:xlink="http://www.w3.org/1999/xlink">
<g id="graph0" class="graph" transform="scale(1 1) rotate(0) translate(4 255)">
<title>SystemManager::ptpEnable</title>
<!-- Node1 -->
<g id="node1" class="node">
<title>Node1</title>
<g id="a_node1"><a xlink:title=" ">
<polygon fill="#bfbfbf" stroke="black" points="0,-38.5 0,-57.5 151,-57.5 151,-38.5 0,-38.5"/>
<text text-anchor="middle" x="75.5" y="-45.5" font-family="Helvetica,sans-Serif" font-size="10.00">SystemManager::ptpEnable</text>
</a>
</g>
</g>
<!-- Node2 -->
<g id="node2" class="node">
<title>Node2</title>
<g id="a_node2"><a xlink:href="classNetworkManager.html#a5131787ff8e8985e848e8456c1e6b202" target="_top" xlink:title="Configures cameras for PTP&#45;synchronized free&#45;run streaming.">
<polygon fill="none" stroke="black" points="195.5,-112 195.5,-142 362.5,-142 362.5,-112 195.5,-112"/>
<text text-anchor="start" x="203.5" y="-130" font-family="Helvetica,sans-Serif" font-size="10.00">NetworkManager::configurePtp</text>
<text text-anchor="middle" x="279" y="-119" font-family="Helvetica,sans-Serif" font-size="10.00">SyncFreeRun</text>
</a>
</g>
</g>
<!-- Node1&#45;&gt;Node2 -->
<g id="edge1" class="edge">
<title>Node1&#45;&gt;Node2</title>
<path fill="none" stroke="midnightblue" d="M100.81,-57.53C132.69,-70.03 189.34,-92.24 230.02,-108.19"/>
<polygon fill="midnightblue" stroke="midnightblue" points="228.88,-111.5 239.47,-111.89 231.44,-104.99 228.88,-111.5"/>
</g>
<!-- Node16 -->
<g id="node16" class="node">
<title>Node16</title>
<g id="a_node16"><a xlink:href="classDeviceManager.html#a36a89dec4c09c02f7269093b346c37b6" target="_top" xlink:title="Creates Camera objects for the specified device IDs.">
<polygon fill="none" stroke="black" points="192.5,-38.5 192.5,-57.5 365.5,-57.5 365.5,-38.5 192.5,-38.5"/>
<text text-anchor="middle" x="279" y="-45.5" font-family="Helvetica,sans-Serif" font-size="10.00">DeviceManager::createCameras</text>
</a>
</g>
</g>
<!-- Node1&#45;&gt;Node16 -->
<g id="edge16" class="edge">
<title>Node1&#45;&gt;Node16</title>
<path fill="none" stroke="midnightblue" d="M151.24,-48C161.24,-48 171.6,-48 181.9,-48"/>
<polygon fill="midnightblue" stroke="midnightblue" points="182.16,-51.5 192.16,-48 182.16,-44.5 182.16,-51.5"/>
</g>
<!-- Node19 -->
<g id="node19" class="node">
<title>Node19</title>
<g id="a_node19"><a xlink:href="classDeviceManager.html#aa5df5c2756fda96dc9438e1c85071699" target="_top" xlink:title="Returns the list of currently open cameras.">
<polygon fill="none" stroke="black" points="187,-0.5 187,-19.5 371,-19.5 371,-0.5 187,-0.5"/>
<text text-anchor="middle" x="279" y="-7.5" font-family="Helvetica,sans-Serif" font-size="10.00">DeviceManager::getOpenCameras</text>
</a>
</g>
</g>
<!-- Node1&#45;&gt;Node19 -->
<g id="edge19" class="edge">
<title>Node1&#45;&gt;Node19</title>
<path fill="none" stroke="midnightblue" d="M127.09,-38.46C154.51,-33.29 188.6,-26.86 217.43,-21.42"/>
<polygon fill="midnightblue" stroke="midnightblue" points="218.21,-24.84 227.39,-19.54 216.92,-17.96 218.21,-24.84"/>
</g>
<!-- Node3 -->
<g id="node3" class="node">
<title>Node3</title>
<g id="a_node3"><a xlink:href="classNetworkManager.html#a22ca4e3eadd1f887bb5f90f98570709f" target="_top" xlink:title="Configures network bandwidth settings.">
<polygon fill="none" stroke="black" points="407,-212.5 407,-231.5 610,-231.5 610,-212.5 407,-212.5"/>
<text text-anchor="middle" x="508.5" y="-219.5" font-family="Helvetica,sans-Serif" font-size="10.00">NetworkManager::configureBandwidth</text>
</a>
</g>
</g>
<!-- Node2&#45;&gt;Node3 -->
<g id="edge2" class="edge">
<title>Node2&#45;&gt;Node3</title>
<path fill="none" stroke="midnightblue" d="M299.97,-142.02C324.06,-159.4 366.41,-187.58 407,-203 414.18,-205.73 421.8,-208.07 429.51,-210.09"/>
<polygon fill="midnightblue" stroke="midnightblue" points="428.75,-213.51 439.29,-212.48 430.41,-206.71 428.75,-213.51"/>
</g>
<!-- Node9 -->
<g id="node9" class="node">
<title>Node9</title>
<g id="a_node9"><a xlink:href="classNetworkManager.html#a97139087ce2feb24bce02b5e26ef1cf5" target="_top" xlink:title="Enables PTP (Precision Time Protocol) synchronization on a list of open cameras.">
<polygon fill="none" stroke="black" points="431,-174.5 431,-193.5 586,-193.5 586,-174.5 431,-174.5"/>
<text text-anchor="middle" x="508.5" y="-181.5" font-family="Helvetica,sans-Serif" font-size="10.00">NetworkManager::enablePtp</text>
</a>
</g>
</g>
<!-- Node2&#45;&gt;Node9 -->
<g id="edge8" class="edge">
<title>Node2&#45;&gt;Node9</title>
<path fill="none" stroke="midnightblue" d="M326.13,-142.06C350.09,-149.56 379.94,-158.41 407,-165 418.08,-167.7 429.92,-170.23 441.44,-172.53"/>
<polygon fill="midnightblue" stroke="midnightblue" points="440.98,-176 451.46,-174.47 442.31,-169.13 440.98,-176"/>
</g>
<!-- Node10 -->
<g id="node10" class="node">
<title>Node10</title>
<g id="a_node10"><a xlink:href="classNetworkManager.html#a580689530037e60c278f61c2d541e86c" target="_top" xlink:title="Monitors and logs PTP offsets over time.">
<polygon fill="none" stroke="black" points="413.5,-136.5 413.5,-155.5 603.5,-155.5 603.5,-136.5 413.5,-136.5"/>
<text text-anchor="middle" x="508.5" y="-143.5" font-family="Helvetica,sans-Serif" font-size="10.00">NetworkManager::monitorPtpOffset</text>
</a>
</g>
</g>
<!-- Node2&#45;&gt;Node10 -->
<g id="edge9" class="edge">
<title>Node2&#45;&gt;Node10</title>
<path fill="none" stroke="midnightblue" d="M362.78,-133.91C375.84,-135 389.49,-136.14 402.96,-137.27"/>
<polygon fill="midnightblue" stroke="midnightblue" points="402.96,-140.78 413.22,-138.13 403.55,-133.81 402.96,-140.78"/>
</g>
<!-- Node14 -->
<g id="node14" class="node">
<title>Node14</title>
<g id="a_node14"><a xlink:href="classNetworkManager.html#a5cff683bdb24c9f3359fc259e73cc036" target="_top" xlink:title="Monitors the PTP synchronization status of open cameras.">
<polygon fill="none" stroke="black" points="413,-98.5 413,-117.5 604,-117.5 604,-98.5 413,-98.5"/>
<text text-anchor="middle" x="508.5" y="-105.5" font-family="Helvetica,sans-Serif" font-size="10.00">NetworkManager::monitorPtpStatus</text>
</a>
</g>
</g>
<!-- Node2&#45;&gt;Node14 -->
<g id="edge13" class="edge">
<title>Node2&#45;&gt;Node14</title>
<path fill="none" stroke="midnightblue" d="M362.78,-120.09C375.74,-119 389.27,-117.87 402.65,-116.76"/>
<polygon fill="midnightblue" stroke="midnightblue" points="403.16,-120.23 412.83,-115.91 402.57,-113.25 403.16,-120.23"/>
</g>
<!-- Node15 -->
<g id="node15" class="node">
<title>Node15</title>
<g id="a_node15"><a xlink:href="classNetworkManager.html#ae34ac9fc3697d706c4938c61f44ecd59" target="_top" xlink:title="Plots the offset trends over time for PTP synchronization analysis.">
<polygon fill="none" stroke="black" points="676.5,-60.5 676.5,-79.5 836.5,-79.5 836.5,-60.5 676.5,-60.5"/>
<text text-anchor="middle" x="756.5" y="-67.5" font-family="Helvetica,sans-Serif" font-size="10.00">NetworkManager::plotOffsets</text>
</a>
</g>
</g>
<!-- Node2&#45;&gt;Node15 -->
<g id="edge14" class="edge">
<title>Node2&#45;&gt;Node15</title>
<path fill="none" stroke="midnightblue" d="M321.16,-111.99C345.73,-103.71 377.75,-94.1 407,-89 494.19,-73.8 595.34,-69.76 666.13,-69.09"/>
<polygon fill="midnightblue" stroke="midnightblue" points="666.38,-72.59 676.35,-69.02 666.33,-65.59 666.38,-72.59"/>
</g>
<!-- Node4 -->
<g id="node4" class="node">
<title>Node4</title>
<g id="a_node4"><a xlink:href="classNetworkManager.html#acd8737d274da2f02b0e1635b4b9f63bb" target="_top" xlink:title="Calculates the theoretical maximum frames per second (FPS) based on packet delay.">
<polygon fill="none" stroke="black" points="662,-231.5 662,-250.5 851,-250.5 851,-231.5 662,-231.5"/>
<text text-anchor="middle" x="756.5" y="-238.5" font-family="Helvetica,sans-Serif" font-size="10.00">NetworkManager::calculateMaxFps</text>
</a>
</g>
</g>
<!-- Node3&#45;&gt;Node4 -->
<g id="edge3" class="edge">
<title>Node3&#45;&gt;Node4</title>
<path fill="none" stroke="midnightblue" d="M610.27,-229.78C623.8,-230.83 637.71,-231.9 651.3,-232.95"/>
<polygon fill="midnightblue" stroke="midnightblue" points="651.38,-236.47 661.62,-233.75 651.92,-229.49 651.38,-236.47"/>
</g>
<!-- Node6 -->
<g id="node6" class="node">
<title>Node6</title>
<g id="a_node6"><a xlink:href="classNetworkManager.html#a88d3b203ca5c2d28212c5da9f8cdde7d" target="_top" xlink:title="Sets the exposure and frame rate of the cameras based on bandwidth and exposure constraints.">
<polygon fill="none" stroke="black" points="655,-193.5 655,-212.5 858,-212.5 858,-193.5 655,-193.5"/>
<text text-anchor="middle" x="756.5" y="-200.5" font-family="Helvetica,sans-Serif" font-size="10.00">NetworkManager::setExposureAndFps</text>
</a>
</g>
</g>
<!-- Node3&#45;&gt;Node6 -->
<g id="edge5" class="edge">
<title>Node3&#45;&gt;Node6</title>
<path fill="none" stroke="midnightblue" d="M610.27,-214.22C621.66,-213.34 633.31,-212.44 644.82,-211.55"/>
<polygon fill="midnightblue" stroke="midnightblue" points="645.19,-215.03 654.89,-210.77 644.65,-208.05 645.19,-215.03"/>
</g>
<!-- Node5 -->
<g id="node5" class="node">
<title>Node5</title>
<g id="a_node5"><a xlink:href="GlobalSettings_8cpp.html#a4e4d4e3815c368773a4dfcfc9d19666c" target="_top" xlink:title="Sets the global FPS upper bound.">
<polygon fill="none" stroke="black" points="940,-231.5 940,-250.5 1080,-250.5 1080,-231.5 940,-231.5"/>
<text text-anchor="middle" x="1010" y="-238.5" font-family="Helvetica,sans-Serif" font-size="10.00">setGlobalFpsUpperBound</text>
</a>
</g>
</g>
<!-- Node4&#45;&gt;Node5 -->
<g id="edge4" class="edge">
<title>Node4&#45;&gt;Node5</title>
<path fill="none" stroke="midnightblue" d="M851.15,-241C876.93,-241 904.63,-241 929.53,-241"/>
<polygon fill="midnightblue" stroke="midnightblue" points="929.64,-244.5 939.64,-241 929.64,-237.5 929.64,-244.5"/>
</g>
<!-- Node7 -->
<g id="node7" class="node">
<title>Node7</title>
<g id="a_node7"><a xlink:href="GlobalSettings_8cpp.html#ae20198dd587799aa9d5579c3597f7fb4" target="_top" xlink:title="Gets the global FPS upper bound.">
<polygon fill="none" stroke="black" points="939.5,-193.5 939.5,-212.5 1080.5,-212.5 1080.5,-193.5 939.5,-193.5"/>
<text text-anchor="middle" x="1010" y="-200.5" font-family="Helvetica,sans-Serif" font-size="10.00">getGlobalFpsUpperBound</text>
</a>
</g>
</g>
<!-- Node6&#45;&gt;Node7 -->
<g id="edge6" class="edge">
<title>Node6&#45;&gt;Node7</title>
<path fill="none" stroke="midnightblue" d="M858.35,-203C881.93,-203 906.73,-203 929.25,-203"/>
<polygon fill="midnightblue" stroke="midnightblue" points="929.42,-206.5 939.42,-203 929.42,-199.5 929.42,-206.5"/>
</g>
<!-- Node8 -->
<g id="node8" class="node">
<title>Node8</title>
<g id="a_node8"><a xlink:href="classNetworkManager.html#a2894fa4186d5341d1ceea4930cd1f448" target="_top" xlink:title="Retrieves the real minimum exposure time set on the cameras.">
<polygon fill="none" stroke="black" points="903,-155.5 903,-174.5 1117,-174.5 1117,-155.5 903,-155.5"/>
<text text-anchor="middle" x="1010" y="-162.5" font-family="Helvetica,sans-Serif" font-size="10.00">NetworkManager::getMinimumExposure</text>
</a>
</g>
</g>
<!-- Node6&#45;&gt;Node8 -->
<g id="edge7" class="edge">
<title>Node6&#45;&gt;Node8</title>
<path fill="none" stroke="midnightblue" d="M820.64,-193.46C855.62,-188.17 899.28,-181.58 935.75,-176.07"/>
<polygon fill="midnightblue" stroke="midnightblue" points="936.47,-179.5 945.83,-174.54 935.42,-172.58 936.47,-179.5"/>
</g>
<!-- Node11 -->
<g id="node11" class="node">
<title>Node11</title>
<g id="a_node11"><a xlink:href="classNetworkManager.html#ae856b2f8ac57cb540414667eccc6832a" target="_top" xlink:title="Logs the history of PTP offsets to a CSV file.">
<polygon fill="none" stroke="black" points="648.5,-136.5 648.5,-155.5 864.5,-155.5 864.5,-136.5 648.5,-136.5"/>
<text text-anchor="middle" x="756.5" y="-143.5" font-family="Helvetica,sans-Serif" font-size="10.00">NetworkManager::logOffsetHistoryToCSV</text>
</a>
</g>
</g>
<!-- Node10&#45;&gt;Node11 -->
<g id="edge10" class="edge">
<title>Node10&#45;&gt;Node11</title>
<path fill="none" stroke="midnightblue" d="M603.56,-146C614.89,-146 626.56,-146 638.17,-146"/>
<polygon fill="midnightblue" stroke="midnightblue" points="638.35,-149.5 648.35,-146 638.35,-142.5 638.35,-149.5"/>
</g>
<!-- Node13 -->
<g id="node13" class="node">
<title>Node13</title>
<g id="a_node13"><a xlink:href="classNetworkManager.html#a8f23d31231702bcd91a3cf101a8394e6" target="_top" xlink:title="Prints the PTP configuration details of a camera.">
<polygon fill="none" stroke="black" points="668.5,-98.5 668.5,-117.5 844.5,-117.5 844.5,-98.5 668.5,-98.5"/>
<text text-anchor="middle" x="756.5" y="-105.5" font-family="Helvetica,sans-Serif" font-size="10.00">NetworkManager::printPtpConfig</text>
</a>
</g>
</g>
<!-- Node10&#45;&gt;Node13 -->
<g id="edge12" class="edge">
<title>Node10&#45;&gt;Node13</title>
<path fill="none" stroke="midnightblue" d="M571.26,-136.46C605.33,-131.2 647.81,-124.63 683.39,-119.14"/>
<polygon fill="midnightblue" stroke="midnightblue" points="684.37,-122.53 693.72,-117.54 683.3,-115.61 684.37,-122.53"/>
</g>
<!-- Node12 -->
<g id="node12" class="node">
<title>Node12</title>
<g id="a_node12"><a xlink:href="GlobalSettings_8hpp.html#a292086bff16224cc0653061c22440e60" target="_top" xlink:title="Returns the session timestamp as a string.">
<polygon fill="none" stroke="black" points="947.5,-89.5 947.5,-108.5 1072.5,-108.5 1072.5,-89.5 947.5,-89.5"/>
<text text-anchor="middle" x="1010" y="-96.5" font-family="Helvetica,sans-Serif" font-size="10.00">getSessionTimestamp</text>
</a>
</g>
</g>
<!-- Node11&#45;&gt;Node12 -->
<g id="edge11" class="edge">
<title>Node11&#45;&gt;Node12</title>
<path fill="none" stroke="midnightblue" d="M813.81,-136.48C830.91,-133.53 849.74,-130.2 867,-127 895.03,-121.81 926.1,-115.72 952.01,-110.55"/>
<polygon fill="midnightblue" stroke="midnightblue" points="952.92,-113.93 962.04,-108.54 951.55,-107.07 952.92,-113.93"/>
</g>
<!-- Node15&#45;&gt;Node12 -->
<g id="edge15" class="edge">
<title>Node15&#45;&gt;Node12</title>
<path fill="none" stroke="midnightblue" d="M836.73,-79.14C868.95,-82.85 905.92,-87.11 937.32,-90.73"/>
<polygon fill="midnightblue" stroke="midnightblue" points="936.98,-94.22 947.31,-91.89 937.78,-87.26 936.98,-94.22"/>
</g>
<!-- Node17 -->
<g id="node17" class="node">
<title>Node17</title>
<g id="a_node17"><a xlink:href="classDeviceManager.html#a5de621ae914e130ad5a5e977c02272f4" target="_top" xlink:title="Creates a camera by device ID.">
<polygon fill="none" stroke="black" points="424.5,-22.5 424.5,-41.5 592.5,-41.5 592.5,-22.5 424.5,-22.5"/>
<text text-anchor="middle" x="508.5" y="-29.5" font-family="Helvetica,sans-Serif" font-size="10.00">DeviceManager::createCamera</text>
</a>
</g>
</g>
<!-- Node16&#45;&gt;Node17 -->
<g id="edge17" class="edge">
<title>Node16&#45;&gt;Node17</title>
<path fill="none" stroke="midnightblue" d="M365.68,-41.97C381.39,-40.87 397.86,-39.71 413.78,-38.59"/>
<polygon fill="midnightblue" stroke="midnightblue" points="414.43,-42.05 424.15,-37.86 413.93,-35.07 414.43,-42.05"/>
</g>
<!-- Node18 -->
<g id="node18" class="node">
<title>Node18</title>
<g id="a_node18"><a xlink:href="classDeviceManager.html#a6374a294f1d0d15f18ab35aea1fb6158" target="_top" xlink:title="Returns a device by its ID.">
<polygon fill="none" stroke="black" points="646,-22.5 646,-41.5 867,-41.5 867,-22.5 646,-22.5"/>
<text text-anchor="middle" x="756.5" y="-29.5" font-family="Helvetica,sans-Serif" font-size="10.00">DeviceManager::getAvailableCameraByID</text>
</a>
</g>
</g>
<!-- Node17&#45;&gt;Node18 -->
<g id="edge18" class="edge">
<title>Node17&#45;&gt;Node18</title>
<path fill="none" stroke="midnightblue" d="M592.78,-32C606.6,-32 621.17,-32 635.67,-32"/>
<polygon fill="midnightblue" stroke="midnightblue" points="635.7,-35.5 645.7,-32 635.7,-28.5 635.7,-35.5"/>
</g>
</g>
</svg>
