<?xml version="1.0" encoding="UTF-8" standalone="no"?>
<!DOCTYPE svg PUBLIC "-//W3C//DTD SVG 1.1//EN"
 "http://www.w3.org/Graphics/SVG/1.1/DTD/svg11.dtd">
<!-- Generated by graphviz version 2.43.0 (0)
 -->
<!-- Title: DeviceManager::listAvailableCamerasByID Pages: 1 -->
<svg width="620pt" height="39pt"
 viewBox="0.00 0.00 620.00 39.00" xmlns="http://www.w3.org/2000/svg" xmlns:xlink="http://www.w3.org/1999/xlink">
<g id="graph0" class="graph" transform="scale(1 1) rotate(0) translate(4 35)">
<title>DeviceManager::listAvailableCamerasByID</title>
<!-- Node1 -->
<g id="node1" class="node">
<title>Node1</title>
<g id="a_node1"><a xlink:title="Lists all available camera IDs.">
<polygon fill="#bfbfbf" stroke="black" points="453,-0.5 453,-30.5 612,-30.5 612,-0.5 453,-0.5"/>
<text text-anchor="start" x="461" y="-18.5" font-family="Helvetica,sans-Serif" font-size="10.00">DeviceManager::listAvailable</text>
<text text-anchor="middle" x="532.5" y="-7.5" font-family="Helvetica,sans-Serif" font-size="10.00">CamerasByID</text>
</a>
</g>
</g>
<!-- Node2 -->
<g id="node2" class="node">
<title>Node2</title>
<g id="a_node2"><a xlink:href="classSystemManager.html#ad083133600bc7f1b8f3946a5b6cb0e1a" target="_top" xlink:title=" ">
<polygon fill="none" stroke="black" points="218,-6 218,-25 417,-25 417,-6 218,-6"/>
<text text-anchor="middle" x="317.5" y="-13" font-family="Helvetica,sans-Serif" font-size="10.00">SystemManager::enumerateCameras</text>
</a>
</g>
</g>
<!-- Node1&#45;&gt;Node2 -->
<g id="edge1" class="edge">
<title>Node1&#45;&gt;Node2</title>
<path fill="none" stroke="midnightblue" d="M442.62,-15.5C434.2,-15.5 425.63,-15.5 417.14,-15.5"/>
<polygon fill="midnightblue" stroke="midnightblue" points="442.79,-19 452.79,-15.5 442.79,-12 442.79,-19"/>
</g>
<!-- Node3 -->
<g id="node3" class="node">
<title>Node3</title>
<g id="a_node3"><a xlink:href="classSystemManager.html#a2f8a3e2e1929be50ef8702629f50bb94" target="_top" xlink:title=" ">
<polygon fill="none" stroke="black" points="0,-6 0,-25 182,-25 182,-6 0,-6"/>
<text text-anchor="middle" x="91" y="-13" font-family="Helvetica,sans-Serif" font-size="10.00">SystemManager::SystemManager</text>
</a>
</g>
</g>
<!-- Node2&#45;&gt;Node3 -->
<g id="edge2" class="edge">
<title>Node2&#45;&gt;Node3</title>
<path fill="none" stroke="midnightblue" d="M207.47,-15.5C199.05,-15.5 190.61,-15.5 182.34,-15.5"/>
<polygon fill="midnightblue" stroke="midnightblue" points="207.7,-19 217.7,-15.5 207.7,-12 207.7,-19"/>
</g>
</g>
</svg>
