<?xml version="1.0" encoding="UTF-8" standalone="no"?>
<!DOCTYPE svg PUBLIC "-//W3C//DTD SVG 1.1//EN"
 "http://www.w3.org/Graphics/SVG/1.1/DTD/svg11.dtd">
<!-- Generated by graphviz version 2.43.0 (0)
 -->
<!-- Title: SystemManager::enumerateCameras Pages: 1 -->
<svg width="933pt" height="107pt"
 viewBox="0.00 0.00 933.00 107.00" xmlns="http://www.w3.org/2000/svg" xmlns:xlink="http://www.w3.org/1999/xlink">
<g id="graph0" class="graph" transform="scale(1 1) rotate(0) translate(4 103)">
<title>SystemManager::enumerateCameras</title>
<!-- Node1 -->
<g id="node1" class="node">
<title>Node1</title>
<g id="a_node1"><a xlink:title=" ">
<polygon fill="#bfbfbf" stroke="black" points="0,-28 0,-47 199,-47 199,-28 0,-28"/>
<text text-anchor="middle" x="99.5" y="-35" font-family="Helvetica,sans-Serif" font-size="10.00">SystemManager::enumerateCameras</text>
</a>
</g>
</g>
<!-- Node2 -->
<g id="node2" class="node">
<title>Node2</title>
<g id="a_node2"><a xlink:href="classDeviceManager.html#a8a18f2eeb06ca5683d69aed675dbffcb" target="_top" xlink:title="Discovers available cameras on the network.">
<polygon fill="none" stroke="black" points="235,-50 235,-69 438,-69 438,-50 235,-50"/>
<text text-anchor="middle" x="336.5" y="-57" font-family="Helvetica,sans-Serif" font-size="10.00">DeviceManager::getAvailableCameras</text>
</a>
</g>
</g>
<!-- Node1&#45;&gt;Node2 -->
<g id="edge1" class="edge">
<title>Node1&#45;&gt;Node2</title>
<path fill="none" stroke="midnightblue" d="M199.14,-46.73C207.63,-47.53 216.25,-48.34 224.82,-49.14"/>
<polygon fill="midnightblue" stroke="midnightblue" points="224.57,-52.63 234.85,-50.08 225.22,-45.66 224.57,-52.63"/>
</g>
<!-- Node7 -->
<g id="node7" class="node">
<title>Node7</title>
<g id="a_node7"><a xlink:href="classDeviceManager.html#a8e9faffa5ae7cf3ce2e292219bb82c32" target="_top" xlink:title="Lists all available camera IDs.">
<polygon fill="none" stroke="black" points="257,-0.5 257,-30.5 416,-30.5 416,-0.5 257,-0.5"/>
<text text-anchor="start" x="265" y="-18.5" font-family="Helvetica,sans-Serif" font-size="10.00">DeviceManager::listAvailable</text>
<text text-anchor="middle" x="336.5" y="-7.5" font-family="Helvetica,sans-Serif" font-size="10.00">CamerasByID</text>
</a>
</g>
</g>
<!-- Node1&#45;&gt;Node7 -->
<g id="edge6" class="edge">
<title>Node1&#45;&gt;Node7</title>
<path fill="none" stroke="midnightblue" d="M199.14,-28.27C214.9,-26.79 231.13,-25.27 246.65,-23.82"/>
<polygon fill="midnightblue" stroke="midnightblue" points="247.11,-27.29 256.74,-22.87 246.45,-20.32 247.11,-27.29"/>
</g>
<!-- Node3 -->
<g id="node3" class="node">
<title>Node3</title>
<g id="a_node3"><a xlink:href="classDeviceManager.html#adc4c1e62f3f57bd1568a27891c2503a9" target="_top" xlink:title="Enumerates devices from default systems.">
<polygon fill="none" stroke="black" points="474,-68.5 474,-98.5 665,-98.5 665,-68.5 474,-68.5"/>
<text text-anchor="start" x="482" y="-86.5" font-family="Helvetica,sans-Serif" font-size="10.00">DeviceManager::enumerateDevices</text>
<text text-anchor="middle" x="569.5" y="-75.5" font-family="Helvetica,sans-Serif" font-size="10.00">FromDefault</text>
</a>
</g>
</g>
<!-- Node2&#45;&gt;Node3 -->
<g id="edge2" class="edge">
<title>Node2&#45;&gt;Node3</title>
<path fill="none" stroke="midnightblue" d="M429.13,-69.02C440.53,-70.2 452.25,-71.42 463.83,-72.62"/>
<polygon fill="midnightblue" stroke="midnightblue" points="463.64,-76.12 473.95,-73.68 464.37,-69.16 463.64,-76.12"/>
</g>
<!-- Node5 -->
<g id="node5" class="node">
<title>Node5</title>
<g id="a_node5"><a xlink:href="classDeviceManager.html#ab0ab314042a5d622db73d67b3bbdedf4" target="_top" xlink:title="Enumerates devices from given systems.">
<polygon fill="none" stroke="black" points="474,-19.5 474,-49.5 665,-49.5 665,-19.5 474,-19.5"/>
<text text-anchor="start" x="482" y="-37.5" font-family="Helvetica,sans-Serif" font-size="10.00">DeviceManager::enumerateDevices</text>
<text text-anchor="middle" x="569.5" y="-26.5" font-family="Helvetica,sans-Serif" font-size="10.00">FromSystems</text>
</a>
</g>
</g>
<!-- Node2&#45;&gt;Node5 -->
<g id="edge4" class="edge">
<title>Node2&#45;&gt;Node5</title>
<path fill="none" stroke="midnightblue" d="M425.49,-49.98C437.97,-48.63 450.9,-47.23 463.65,-45.85"/>
<polygon fill="midnightblue" stroke="midnightblue" points="464.26,-49.3 473.83,-44.75 463.51,-42.34 464.26,-49.3"/>
</g>
<!-- Node4 -->
<g id="node4" class="node">
<title>Node4</title>
<g id="a_node4"><a xlink:href="classDeviceManager.html#a43697adcb530c627f78ee0d18b357ca7" target="_top" xlink:title="Returns a device by its serial number.">
<polygon fill="none" stroke="black" points="701,-74 701,-93 925,-93 925,-74 701,-74"/>
<text text-anchor="middle" x="813" y="-81" font-family="Helvetica,sans-Serif" font-size="10.00">DeviceManager::getAvailableCameraBySN</text>
</a>
</g>
</g>
<!-- Node3&#45;&gt;Node4 -->
<g id="edge3" class="edge">
<title>Node3&#45;&gt;Node4</title>
<path fill="none" stroke="midnightblue" d="M665.25,-83.5C673.61,-83.5 682.14,-83.5 690.68,-83.5"/>
<polygon fill="midnightblue" stroke="midnightblue" points="690.69,-87 700.69,-83.5 690.69,-80 690.69,-87"/>
</g>
<!-- Node6 -->
<g id="node6" class="node">
<title>Node6</title>
<g id="a_node6"><a xlink:href="classDeviceManager.html#a6374a294f1d0d15f18ab35aea1fb6158" target="_top" xlink:title="Returns a device by its ID.">
<polygon fill="none" stroke="black" points="702.5,-25 702.5,-44 923.5,-44 923.5,-25 702.5,-25"/>
<text text-anchor="middle" x="813" y="-32" font-family="Helvetica,sans-Serif" font-size="10.00">DeviceManager::getAvailableCameraByID</text>
</a>
</g>
</g>
<!-- Node5&#45;&gt;Node6 -->
<g id="edge5" class="edge">
<title>Node5&#45;&gt;Node6</title>
<path fill="none" stroke="midnightblue" d="M665.25,-34.5C674.09,-34.5 683.11,-34.5 692.14,-34.5"/>
<polygon fill="midnightblue" stroke="midnightblue" points="692.31,-38 702.31,-34.5 692.31,-31 692.31,-38"/>
</g>
</g>
</svg>
