<?xml version="1.0" encoding="UTF-8" standalone="no"?>
<!DOCTYPE svg PUBLIC "-//W3C//DTD SVG 1.1//EN"
 "http://www.w3.org/Graphics/SVG/1.1/DTD/svg11.dtd">
<!-- Generated by graphviz version 2.43.0 (0)
 -->
<!-- Title: Camera::startStreaming Pages: 1 -->
<!--zoomable 370 -->
<svg id="main" version="1.1" xmlns="http://www.w3.org/2000/svg" xmlns:xlink="http://www.w3.org/1999/xlink" xml:space="preserve" onload="init(evt)">
<style type="text/css"><![CDATA[
.edge:hover path { stroke: red; }
.edge:hover polygon { stroke: red; fill: red; }
]]></style>
<script type="text/javascript"><![CDATA[
var edges = document.getElementsByTagName('g');
if (edges && edges.length) {
  for (var i=0;i<edges.length;i++) {
    if (edges[i].id.substr(0,4)=='edge') {
      edges[i].setAttribute('class','edge');
    }
  }
}
]]></script>
        <defs>
                <circle id="rim" cx="0" cy="0" r="7"/>
                <circle id="rim2" cx="0" cy="0" r="3.5"/>
                <g id="zoomPlus">
                        <use xlink:href="#rim" fill="#404040">
                                <set attributeName="fill" to="#808080" begin="zoomplus.mouseover" end="zoomplus.mouseout"/>
                        </use>
                        <path d="M-4,0h8M0,-4v8" fill="none" stroke="white" stroke-width="1.5" pointer-events="none"/>
                </g>
                <g id="zoomMin">
                        <use xlink:href="#rim" fill="#404040">
                                <set attributeName="fill" to="#808080" begin="zoomminus.mouseover" end="zoomminus.mouseout"/>
                        </use>
                        <path d="M-4,0h8" fill="none" stroke="white" stroke-width="1.5" pointer-events="none"/>
                </g>
                <g id="dirArrow">
                        <path fill="none" stroke="white" stroke-width="1.5" d="M0,-3.0v7 M-2.5,-0.5L0,-3.0L2.5,-0.5"/>
                </g>
               <g id="resetDef">
                       <use xlink:href="#rim2" fill="#404040">
                               <set attributeName="fill" to="#808080" begin="reset.mouseover" end="reset.mouseout"/>
                       </use>
               </g>
        </defs>

<script type="text/javascript">
var viewWidth = 726;
var viewHeight = 370;
var sectionId = 'dynsection-39';
</script>
<script xlink:href="svgpan.js"/>
<svg id="graph" class="graph">
<g id="viewport">
<title>Camera::startStreaming</title>
<!-- Node1 -->
<g id="node1" class="node">
<title>Node1</title>
<g id="a_node1"><a xlink:title="Starts streaming frames from the camera.">
<polygon fill="#bfbfbf" stroke="black" points="0,-228.5 0,-247.5 134,-247.5 134,-228.5 0,-228.5"/>
<text text-anchor="middle" x="67" y="-235.5" font-family="Helvetica,sans-Serif" font-size="10.00">Camera::startStreaming</text>
</a>
</g>
</g>
<!-- Node2 -->
<g id="node2" class="node">
<title>Node2</title>
<g id="a_node2"><a xlink:href="classCamera.html#a01774134d5e2e33b4f5961e45378870b" target="_top" xlink:title="Cleans up the streaming resources.">
<polygon fill="none" stroke="black" points="185.5,-342.5 185.5,-361.5 319.5,-361.5 319.5,-342.5 185.5,-342.5"/>
<text text-anchor="middle" x="252.5" y="-349.5" font-family="Helvetica,sans-Serif" font-size="10.00">Camera::cleanupStream</text>
</a>
</g>
</g>
<!-- Node1&#45;&gt;Node2 -->
<g id="edge1" class="edge">
<title>Node1&#45;&gt;Node2</title>
<path fill="none" stroke="midnightblue" d="M76.24,-247.66C92.39,-266 130.1,-305.96 170,-328 178.15,-332.5 187.25,-336.25 196.31,-339.33"/>
<polygon fill="midnightblue" stroke="midnightblue" points="195.51,-342.75 206.1,-342.42 197.62,-336.07 195.51,-342.75"/>
</g>
<!-- Node3 -->
<g id="node3" class="node">
<title>Node3</title>
<g id="a_node3"><a xlink:href="classCamera.html#ad8910a05e1991b732f25ea3a7db7f141" target="_top" xlink:title="Returns the last saved FPS value.">
<polygon fill="none" stroke="black" points="384,-266.5 384,-285.5 528,-285.5 528,-266.5 384,-266.5"/>
<text text-anchor="middle" x="456" y="-273.5" font-family="Helvetica,sans-Serif" font-size="10.00">Camera::getLastSavedFps</text>
</a>
</g>
</g>
<!-- Node1&#45;&gt;Node3 -->
<g id="edge2" class="edge">
<title>Node1&#45;&gt;Node3</title>
<path fill="none" stroke="midnightblue" d="M80.29,-247.65C98.59,-261.36 134.66,-285.8 170,-295 252.39,-316.46 352.46,-300.59 409.44,-287.81"/>
<polygon fill="midnightblue" stroke="midnightblue" points="410.26,-291.21 419.22,-285.55 408.69,-284.39 410.26,-291.21"/>
</g>
<!-- Node4 -->
<g id="node4" class="node">
<title>Node4</title>
<g id="a_node4"><a xlink:href="classCamera.html#ac88e5fc34dc47f31f1a5c972dd899506" target="_top" xlink:title="Initializes a stream from the device.">
<polygon fill="none" stroke="black" points="183.5,-266.5 183.5,-285.5 321.5,-285.5 321.5,-266.5 183.5,-266.5"/>
<text text-anchor="middle" x="252.5" y="-273.5" font-family="Helvetica,sans-Serif" font-size="10.00">Camera::initializeStream</text>
</a>
</g>
</g>
<!-- Node1&#45;&gt;Node4 -->
<g id="edge3" class="edge">
<title>Node1&#45;&gt;Node4</title>
<path fill="none" stroke="midnightblue" d="M114.3,-247.59C138.96,-252.69 169.46,-259.01 195.44,-264.39"/>
<polygon fill="midnightblue" stroke="midnightblue" points="195.03,-267.88 205.53,-266.48 196.45,-261.02 195.03,-267.88"/>
</g>
<!-- Node5 -->
<g id="node5" class="node">
<title>Node5</title>
<g id="a_node5"><a xlink:href="classCamera.html#aefac8771f67d504e83aeff81eba2c8d0" target="_top" xlink:title="Checks if FPS is stable enough for saving.">
<polygon fill="none" stroke="black" points="170,-228.5 170,-247.5 335,-247.5 335,-228.5 170,-228.5"/>
<text text-anchor="middle" x="252.5" y="-235.5" font-family="Helvetica,sans-Serif" font-size="10.00">Camera::isFpsStableForSaving</text>
</a>
</g>
</g>
<!-- Node1&#45;&gt;Node5 -->
<g id="edge4" class="edge">
<title>Node1&#45;&gt;Node5</title>
<path fill="none" stroke="midnightblue" d="M134.25,-238C142.59,-238 151.23,-238 159.87,-238"/>
<polygon fill="midnightblue" stroke="midnightblue" points="160,-241.5 170,-238 160,-234.5 160,-241.5"/>
</g>
<!-- Node6 -->
<g id="node6" class="node">
<title>Node6</title>
<g id="a_node6"><a xlink:href="classCamera.html#ad66067095b7ae7b2727a48a5d9d8ab3b" target="_top" xlink:title="Processes a frame received from the device.">
<polygon fill="none" stroke="black" points="188,-190.5 188,-209.5 317,-209.5 317,-190.5 188,-190.5"/>
<text text-anchor="middle" x="252.5" y="-197.5" font-family="Helvetica,sans-Serif" font-size="10.00">Camera::processFrame</text>
</a>
</g>
</g>
<!-- Node1&#45;&gt;Node6 -->
<g id="edge6" class="edge">
<title>Node1&#45;&gt;Node6</title>
<path fill="none" stroke="midnightblue" d="M114.3,-228.41C138.96,-223.31 169.46,-216.99 195.44,-211.61"/>
<polygon fill="midnightblue" stroke="midnightblue" points="196.45,-214.98 205.53,-209.52 195.03,-208.12 196.45,-214.98"/>
</g>
<!-- Node8 -->
<g id="node8" class="node">
<title>Node8</title>
<g id="a_node8"><a xlink:href="classCamera.html#adb38ed40f81a6d3b3ef3a6c8d92477cf" target="_top" xlink:title="Saves a frame as a PNG file.">
<polygon fill="none" stroke="black" points="181,-152.5 181,-171.5 324,-171.5 324,-152.5 181,-152.5"/>
<text text-anchor="middle" x="252.5" y="-159.5" font-family="Helvetica,sans-Serif" font-size="10.00">Camera::saveFrameToPng</text>
</a>
</g>
</g>
<!-- Node1&#45;&gt;Node8 -->
<g id="edge8" class="edge">
<title>Node1&#45;&gt;Node8</title>
<path fill="none" stroke="midnightblue" d="M82.23,-228.34C101.39,-215.75 136.89,-193.81 170,-181 176.46,-178.5 183.35,-176.27 190.27,-174.3"/>
<polygon fill="midnightblue" stroke="midnightblue" points="191.64,-177.55 200.4,-171.59 189.84,-170.79 191.64,-177.55"/>
</g>
<!-- Node10 -->
<g id="node10" class="node">
<title>Node10</title>
<g id="a_node10"><a xlink:href="classCamera.html#ac75a36ff4d008e091919c9a0e8d3d752" target="_top" xlink:title="Updates the global frame buffer.">
<polygon fill="none" stroke="black" points="174,-95.5 174,-114.5 331,-114.5 331,-95.5 174,-95.5"/>
<text text-anchor="middle" x="252.5" y="-102.5" font-family="Helvetica,sans-Serif" font-size="10.00">Camera::updateGlobalFrame</text>
</a>
</g>
</g>
<!-- Node1&#45;&gt;Node10 -->
<g id="edge10" class="edge">
<title>Node1&#45;&gt;Node10</title>
<path fill="none" stroke="midnightblue" d="M76.46,-228.31C92.96,-209.84 131.27,-169.1 170,-143 184.34,-133.34 201.52,-124.92 216.41,-118.49"/>
<polygon fill="midnightblue" stroke="midnightblue" points="217.93,-121.64 225.8,-114.55 215.23,-115.19 217.93,-121.64"/>
</g>
<!-- Node5&#45;&gt;Node3 -->
<g id="edge5" class="edge">
<title>Node5&#45;&gt;Node3</title>
<path fill="none" stroke="midnightblue" d="M304.09,-247.54C331.51,-252.71 365.6,-259.14 394.43,-264.58"/>
<polygon fill="midnightblue" stroke="midnightblue" points="393.92,-268.04 404.39,-266.46 395.21,-261.16 393.92,-268.04"/>
</g>
<!-- Node7 -->
<g id="node7" class="node">
<title>Node7</title>
<g id="a_node7"><a xlink:href="classCamera.html#a6287fa61c0310386032d65cf61ed37e2" target="_top" xlink:title="Processes a raw frame into an output frame.">
<polygon fill="none" stroke="black" points="381,-190.5 381,-209.5 531,-209.5 531,-190.5 381,-190.5"/>
<text text-anchor="middle" x="456" y="-197.5" font-family="Helvetica,sans-Serif" font-size="10.00">Camera::processRawFrame</text>
</a>
</g>
</g>
<!-- Node6&#45;&gt;Node7 -->
<g id="edge7" class="edge">
<title>Node6&#45;&gt;Node7</title>
<path fill="none" stroke="midnightblue" d="M317.26,-200C334.12,-200 352.6,-200 370.38,-200"/>
<polygon fill="midnightblue" stroke="midnightblue" points="370.76,-203.5 380.76,-200 370.76,-196.5 370.76,-203.5"/>
</g>
<!-- Node9 -->
<g id="node9" class="node">
<title>Node9</title>
<g id="a_node9"><a xlink:href="GlobalSettings_8hpp.html#a292086bff16224cc0653061c22440e60" target="_top" xlink:title="Returns the session timestamp as a string.">
<polygon fill="none" stroke="black" points="393.5,-152.5 393.5,-171.5 518.5,-171.5 518.5,-152.5 393.5,-152.5"/>
<text text-anchor="middle" x="456" y="-159.5" font-family="Helvetica,sans-Serif" font-size="10.00">getSessionTimestamp</text>
</a>
</g>
</g>
<!-- Node8&#45;&gt;Node9 -->
<g id="edge9" class="edge">
<title>Node8&#45;&gt;Node9</title>
<path fill="none" stroke="midnightblue" d="M324.26,-162C343.39,-162 364.1,-162 383.28,-162"/>
<polygon fill="midnightblue" stroke="midnightblue" points="383.46,-165.5 393.46,-162 383.46,-158.5 383.46,-165.5"/>
</g>
<!-- Node11 -->
<g id="node11" class="node">
<title>Node11</title>
<g id="a_node11"><a xlink:href="classCamera.html#a73d0377e77c2e760d29381cd1073c2cd" target="_top" xlink:title="Adjusts FPS dynamically to maintain target values.">
<polygon fill="none" stroke="black" points="371,-76.5 371,-95.5 541,-95.5 541,-76.5 371,-76.5"/>
<text text-anchor="middle" x="456" y="-83.5" font-family="Helvetica,sans-Serif" font-size="10.00">Camera::adjustFpsDynamically</text>
</a>
</g>
</g>
<!-- Node10&#45;&gt;Node11 -->
<g id="edge11" class="edge">
<title>Node10&#45;&gt;Node11</title>
<path fill="none" stroke="midnightblue" d="M331.12,-97.68C340.74,-96.77 350.67,-95.84 360.51,-94.91"/>
<polygon fill="midnightblue" stroke="midnightblue" points="361.1,-98.37 370.73,-93.95 360.44,-91.4 361.1,-98.37"/>
</g>
<!-- Node13 -->
<g id="node13" class="node">
<title>Node13</title>
<g id="a_node13"><a xlink:href="GlobalSettings_8cpp.html#ae20198dd587799aa9d5579c3597f7fb4" target="_top" xlink:title="Gets the global FPS upper bound.">
<polygon fill="none" stroke="black" points="577,-114.5 577,-133.5 718,-133.5 718,-114.5 577,-114.5"/>
<text text-anchor="middle" x="647.5" y="-121.5" font-family="Helvetica,sans-Serif" font-size="10.00">getGlobalFpsUpperBound</text>
</a>
</g>
</g>
<!-- Node10&#45;&gt;Node13 -->
<g id="edge16" class="edge">
<title>Node10&#45;&gt;Node13</title>
<path fill="none" stroke="midnightblue" d="M331.14,-108.75C399.23,-112.05 497.82,-116.81 566.57,-120.14"/>
<polygon fill="midnightblue" stroke="midnightblue" points="566.76,-123.65 576.92,-120.64 567.1,-116.66 566.76,-123.65"/>
</g>
<!-- Node16 -->
<g id="node16" class="node">
<title>Node16</title>
<g id="a_node16"><a xlink:href="classCamera.html#a4b68939bf4d62a6a69a44b8a5b7000b3" target="_top" xlink:title="Retrieves the current timestamps from the camera.">
<polygon fill="none" stroke="black" points="387.5,-38.5 387.5,-57.5 524.5,-57.5 524.5,-38.5 387.5,-38.5"/>
<text text-anchor="middle" x="456" y="-45.5" font-family="Helvetica,sans-Serif" font-size="10.00">Camera::getTimestamps</text>
</a>
</g>
</g>
<!-- Node10&#45;&gt;Node16 -->
<g id="edge17" class="edge">
<title>Node10&#45;&gt;Node16</title>
<path fill="none" stroke="midnightblue" d="M280.83,-95.39C304.51,-87.24 339.78,-75.56 371,-67 380.2,-64.48 390.04,-62.03 399.62,-59.78"/>
<polygon fill="midnightblue" stroke="midnightblue" points="400.52,-63.16 409.48,-57.51 398.95,-56.34 400.52,-63.16"/>
</g>
<!-- Node12 -->
<g id="node12" class="node">
<title>Node12</title>
<g id="a_node12"><a xlink:href="classCamera.html#a5b1326da520053d87a9472577c401207" target="_top" xlink:title="Gets the configured frames per second.">
<polygon fill="none" stroke="black" points="600.5,-76.5 600.5,-95.5 694.5,-95.5 694.5,-76.5 600.5,-76.5"/>
<text text-anchor="middle" x="647.5" y="-83.5" font-family="Helvetica,sans-Serif" font-size="10.00">Camera::getFps</text>
</a>
</g>
</g>
<!-- Node11&#45;&gt;Node12 -->
<g id="edge12" class="edge">
<title>Node11&#45;&gt;Node12</title>
<path fill="none" stroke="midnightblue" d="M541.22,-86C557.77,-86 574.74,-86 590.1,-86"/>
<polygon fill="midnightblue" stroke="midnightblue" points="590.46,-89.5 600.46,-86 590.46,-82.5 590.46,-89.5"/>
</g>
<!-- Node11&#45;&gt;Node13 -->
<g id="edge13" class="edge">
<title>Node11&#45;&gt;Node13</title>
<path fill="none" stroke="midnightblue" d="M504.82,-95.59C530.39,-100.72 562.06,-107.07 588.97,-112.46"/>
<polygon fill="midnightblue" stroke="midnightblue" points="588.53,-115.95 599.03,-114.48 589.91,-109.08 588.53,-115.95"/>
</g>
<!-- Node14 -->
<g id="node14" class="node">
<title>Node14</title>
<g id="a_node14"><a xlink:href="classCamera.html#a476aadf5f98ad43eacfabfd465c40062" target="_top" xlink:title="Sets the maximum allowed frames per second.">
<polygon fill="none" stroke="black" points="601,-38.5 601,-57.5 694,-57.5 694,-38.5 601,-38.5"/>
<text text-anchor="middle" x="647.5" y="-45.5" font-family="Helvetica,sans-Serif" font-size="10.00">Camera::setFps</text>
</a>
</g>
</g>
<!-- Node11&#45;&gt;Node14 -->
<g id="edge14" class="edge">
<title>Node11&#45;&gt;Node14</title>
<path fill="none" stroke="midnightblue" d="M504.82,-76.41C531.09,-71.14 563.79,-64.58 591.16,-59.1"/>
<polygon fill="midnightblue" stroke="midnightblue" points="591.87,-62.53 600.98,-57.13 590.49,-55.66 591.87,-62.53"/>
</g>
<!-- Node15 -->
<g id="node15" class="node">
<title>Node15</title>
<g id="a_node15"><a xlink:href="GlobalSettings_8cpp.html#a4e4d4e3815c368773a4dfcfc9d19666c" target="_top" xlink:title="Sets the global FPS upper bound.">
<polygon fill="none" stroke="black" points="577.5,-0.5 577.5,-19.5 717.5,-19.5 717.5,-0.5 577.5,-0.5"/>
<text text-anchor="middle" x="647.5" y="-7.5" font-family="Helvetica,sans-Serif" font-size="10.00">setGlobalFpsUpperBound</text>
</a>
</g>
</g>
<!-- Node11&#45;&gt;Node15 -->
<g id="edge15" class="edge">
<title>Node11&#45;&gt;Node15</title>
<path fill="none" stroke="midnightblue" d="M519.14,-76.36C526.77,-73.91 534.24,-70.85 541,-67 561.22,-55.49 557.04,-40.95 577,-29 580.62,-26.83 584.5,-24.9 588.49,-23.19"/>
<polygon fill="midnightblue" stroke="midnightblue" points="589.89,-26.41 597.99,-19.58 587.4,-19.86 589.89,-26.41"/>
</g>
</g>
</svg>
        <g id="navigator" transform="translate(0 0)" fill="#404254">
                <rect fill="#f2f5e9" fill-opacity="0.5" stroke="#606060" stroke-width=".5" x="0" y="0" width="60" height="60"/>
                <use id="zoomplus" xlink:href="#zoomPlus" x="17" y="9" onmousedown="handleZoom(evt,'in')"/>
                <use id="zoomminus" xlink:href="#zoomMin" x="42" y="9" onmousedown="handleZoom(evt,'out')"/>
                <use id="reset" xlink:href="#resetDef" x="30" y="36" onmousedown="handleReset()"/>
                <g id="arrowUp" xlink:href="#dirArrow" transform="translate(30 24)" onmousedown="handlePan(0,-1)">
                  <use xlink:href="#rim" fill="#404040">
                        <set attributeName="fill" to="#808080" begin="arrowUp.mouseover" end="arrowUp.mouseout"/>
                  </use>
                  <path fill="none" stroke="white" stroke-width="1.5" d="M0,-3.0v7 M-2.5,-0.5L0,-3.0L2.5,-0.5"/>
                </g>
                <g id="arrowRight" xlink:href="#dirArrow" transform="rotate(90) translate(36 -43)" onmousedown="handlePan(1,0)">
                  <use xlink:href="#rim" fill="#404040">
                        <set attributeName="fill" to="#808080" begin="arrowRight.mouseover" end="arrowRight.mouseout"/>
                  </use>
                  <path fill="none" stroke="white" stroke-width="1.5" d="M0,-3.0v7 M-2.5,-0.5L0,-3.0L2.5,-0.5"/>
                </g>
                <g id="arrowDown" xlink:href="#dirArrow" transform="rotate(180) translate(-30 -48)" onmousedown="handlePan(0,1)">
                  <use xlink:href="#rim" fill="#404040">
                        <set attributeName="fill" to="#808080" begin="arrowDown.mouseover" end="arrowDown.mouseout"/>
                  </use>
                  <path fill="none" stroke="white" stroke-width="1.5" d="M0,-3.0v7 M-2.5,-0.5L0,-3.0L2.5,-0.5"/>
                </g>
                <g id="arrowLeft" xlink:href="#dirArrow" transform="rotate(270) translate(-36 17)" onmousedown="handlePan(-1,0)">
                  <use xlink:href="#rim" fill="#404040">
                        <set attributeName="fill" to="#808080" begin="arrowLeft.mouseover" end="arrowLeft.mouseout"/>
                  </use>
                  <path fill="none" stroke="white" stroke-width="1.5" d="M0,-3.0v7 M-2.5,-0.5L0,-3.0L2.5,-0.5"/>
                </g>
        </g>
        <svg viewBox="0 0 15 15" width="100%" height="30px" preserveAspectRatio="xMaxYMin meet">
         <g id="arrow_out" transform="scale(0.3 0.3)">
          <a xlink:href="classCamera_ad9f2f078e719c799e1a677a12ea52b44_cgraph_org.svg" target="_base">
           <rect id="button" ry="5" rx="5" y="6" x="6" height="38" width="38"
                fill="#f2f5e9" fill-opacity="0.5" stroke="#606060" stroke-width="1.0"/>
           <path id="arrow"
             d="M 11.500037,31.436501 C 11.940474,20.09759 22.043105,11.32322 32.158766,21.979434 L 37.068811,17.246167 C 37.068811,17.246167 37.088388,32 37.088388,32 L 22.160133,31.978069 C 22.160133,31.978069 26.997745,27.140456 26.997745,27.140456 C 18.528582,18.264221 13.291696,25.230495 11.500037,31.436501 z"
             style="fill:#404040;"/>
          </a>
         </g>
        </svg>
</svg>
