<?xml version="1.0" encoding="UTF-8" standalone="no"?>
<!DOCTYPE svg PUBLIC "-//W3C//DTD SVG 1.1//EN"
 "http://www.w3.org/Graphics/SVG/1.1/DTD/svg11.dtd">
<!-- Generated by graphviz version 2.43.0 (0)
 -->
<!-- Title: Camera::setBandwidthDelays Pages: 1 -->
<svg width="557pt" height="66pt"
 viewBox="0.00 0.00 557.00 66.00" xmlns="http://www.w3.org/2000/svg" xmlns:xlink="http://www.w3.org/1999/xlink">
<g id="graph0" class="graph" transform="scale(1 1) rotate(0) translate(4 62)">
<title>Camera::setBandwidthDelays</title>
<!-- Node1 -->
<g id="node1" class="node">
<title>Node1</title>
<g id="a_node1"><a xlink:title="Configures bandwidth delay parameters for the camera.">
<polygon fill="#bfbfbf" stroke="black" points="0,-19.5 0,-38.5 161,-38.5 161,-19.5 0,-19.5"/>
<text text-anchor="middle" x="80.5" y="-26.5" font-family="Helvetica,sans-Serif" font-size="10.00">Camera::setBandwidthDelays</text>
</a>
</g>
</g>
<!-- Node2 -->
<g id="node2" class="node">
<title>Node2</title>
<g id="a_node2"><a xlink:href="classCamera.html#aa126cf8fdae322f188238c22c409234c" target="_top" xlink:title="Calculates packet delay based on network parameters.">
<polygon fill="none" stroke="black" points="203.5,-38.5 203.5,-57.5 381.5,-57.5 381.5,-38.5 203.5,-38.5"/>
<text text-anchor="middle" x="292.5" y="-45.5" font-family="Helvetica,sans-Serif" font-size="10.00">Camera::calculatePacketDelayNs</text>
</a>
</g>
</g>
<!-- Node1&#45;&gt;Node2 -->
<g id="edge1" class="edge">
<title>Node1&#45;&gt;Node2</title>
<path fill="none" stroke="midnightblue" d="M161.19,-36.21C171.65,-37.16 182.48,-38.14 193.2,-39.11"/>
<polygon fill="midnightblue" stroke="midnightblue" points="193.17,-42.62 203.44,-40.03 193.8,-35.65 193.17,-42.62"/>
</g>
<!-- Node3 -->
<g id="node3" class="node">
<title>Node3</title>
<g id="a_node3"><a xlink:href="classCamera.html#ada78f0e2aa9cd9304e558c0cd61abd47" target="_top" xlink:title="Logs bandwidth delays to a CSV file.">
<polygon fill="none" stroke="black" points="197,-0.5 197,-19.5 388,-19.5 388,-0.5 197,-0.5"/>
<text text-anchor="middle" x="292.5" y="-7.5" font-family="Helvetica,sans-Serif" font-size="10.00">Camera::logBandwidthDelaysToCSV</text>
</a>
</g>
</g>
<!-- Node1&#45;&gt;Node3 -->
<g id="edge2" class="edge">
<title>Node1&#45;&gt;Node3</title>
<path fill="none" stroke="midnightblue" d="M161.19,-21.79C169.53,-21.04 178.1,-20.26 186.66,-19.49"/>
<polygon fill="midnightblue" stroke="midnightblue" points="187.06,-22.96 196.7,-18.58 186.43,-15.99 187.06,-22.96"/>
</g>
<!-- Node4 -->
<g id="node4" class="node">
<title>Node4</title>
<g id="a_node4"><a xlink:href="GlobalSettings_8hpp.html#a292086bff16224cc0653061c22440e60" target="_top" xlink:title="Returns the session timestamp as a string.">
<polygon fill="none" stroke="black" points="424,-0.5 424,-19.5 549,-19.5 549,-0.5 424,-0.5"/>
<text text-anchor="middle" x="486.5" y="-7.5" font-family="Helvetica,sans-Serif" font-size="10.00">getSessionTimestamp</text>
</a>
</g>
</g>
<!-- Node3&#45;&gt;Node4 -->
<g id="edge3" class="edge">
<title>Node3&#45;&gt;Node4</title>
<path fill="none" stroke="midnightblue" d="M388.09,-10C396.71,-10 405.34,-10 413.7,-10"/>
<polygon fill="midnightblue" stroke="midnightblue" points="413.76,-13.5 423.76,-10 413.76,-6.5 413.76,-13.5"/>
</g>
</g>
</svg>
