<?xml version="1.0" encoding="UTF-8" standalone="no"?>
<!DOCTYPE svg PUBLIC "-//W3C//DTD SVG 1.1//EN"
 "http://www.w3.org/Graphics/SVG/1.1/DTD/svg11.dtd">
<!-- Generated by graphviz version 2.43.0 (0)
 -->
<!-- Title: DeviceManager::getOpenCameras Pages: 1 -->
<svg width="505pt" height="104pt"
 viewBox="0.00 0.00 505.00 104.00" xmlns="http://www.w3.org/2000/svg" xmlns:xlink="http://www.w3.org/1999/xlink">
<g id="graph0" class="graph" transform="scale(1 1) rotate(0) translate(4 100)">
<title>DeviceManager::getOpenCameras</title>
<!-- Node1 -->
<g id="node1" class="node">
<title>Node1</title>
<g id="a_node1"><a xlink:title="Returns the list of currently open cameras.">
<polygon fill="#bfbfbf" stroke="black" points="313,-38.5 313,-57.5 497,-57.5 497,-38.5 313,-38.5"/>
<text text-anchor="middle" x="405" y="-45.5" font-family="Helvetica,sans-Serif" font-size="10.00">DeviceManager::getOpenCameras</text>
</a>
</g>
</g>
<!-- Node2 -->
<g id="node2" class="node">
<title>Node2</title>
<g id="a_node2"><a xlink:href="classSystemManager.html#a051494c0cf33bac6dbd8e4c0eb3ed9ae" target="_top" xlink:title=" ">
<polygon fill="none" stroke="black" points="99.5,-76.5 99.5,-95.5 254.5,-95.5 254.5,-76.5 99.5,-76.5"/>
<text text-anchor="middle" x="177" y="-83.5" font-family="Helvetica,sans-Serif" font-size="10.00">SystemManager::ptpDisable</text>
</a>
</g>
</g>
<!-- Node1&#45;&gt;Node2 -->
<g id="edge1" class="edge">
<title>Node1&#45;&gt;Node2</title>
<path fill="none" stroke="midnightblue" d="M337.36,-59.2C304.76,-64.69 265.93,-71.22 234.76,-76.46"/>
<polygon fill="midnightblue" stroke="midnightblue" points="337.98,-62.65 347.26,-57.54 336.82,-55.75 337.98,-62.65"/>
</g>
<!-- Node4 -->
<g id="node4" class="node">
<title>Node4</title>
<g id="a_node4"><a xlink:href="classSystemManager.html#af801ab01222b0c07d25a8fa780d423e4" target="_top" xlink:title=" ">
<polygon fill="none" stroke="black" points="101.5,-38.5 101.5,-57.5 252.5,-57.5 252.5,-38.5 101.5,-38.5"/>
<text text-anchor="middle" x="177" y="-45.5" font-family="Helvetica,sans-Serif" font-size="10.00">SystemManager::ptpEnable</text>
</a>
</g>
</g>
<!-- Node1&#45;&gt;Node4 -->
<g id="edge3" class="edge">
<title>Node1&#45;&gt;Node4</title>
<path fill="none" stroke="midnightblue" d="M302.36,-48C285.62,-48 268.55,-48 252.62,-48"/>
<polygon fill="midnightblue" stroke="midnightblue" points="302.73,-51.5 312.73,-48 302.73,-44.5 302.73,-51.5"/>
</g>
<!-- Node5 -->
<g id="node5" class="node">
<title>Node5</title>
<g id="a_node5"><a xlink:href="classSystemManager.html#addb2328a323747f21afb826811f288ab" target="_top" xlink:title=" ">
<polygon fill="none" stroke="black" points="77,-0.5 77,-19.5 277,-19.5 277,-0.5 77,-0.5"/>
<text text-anchor="middle" x="177" y="-7.5" font-family="Helvetica,sans-Serif" font-size="10.00">SystemManager::syncFreeRunStream</text>
</a>
</g>
</g>
<!-- Node1&#45;&gt;Node5 -->
<g id="edge5" class="edge">
<title>Node1&#45;&gt;Node5</title>
<path fill="none" stroke="midnightblue" d="M337.36,-36.8C304.76,-31.31 265.93,-24.78 234.76,-19.54"/>
<polygon fill="midnightblue" stroke="midnightblue" points="336.82,-40.25 347.26,-38.46 337.98,-33.35 336.82,-40.25"/>
</g>
<!-- Node3 -->
<g id="node3" class="node">
<title>Node3</title>
<g id="a_node3"><a xlink:href="cli_8cpp.html#a0ddf1224851353fc92bfbff6f499fa97" target="_top" xlink:title=" ">
<polygon fill="none" stroke="black" points="0,-38.5 0,-57.5 41,-57.5 41,-38.5 0,-38.5"/>
<text text-anchor="middle" x="20.5" y="-45.5" font-family="Helvetica,sans-Serif" font-size="10.00">main</text>
</a>
</g>
</g>
<!-- Node2&#45;&gt;Node3 -->
<g id="edge2" class="edge">
<title>Node2&#45;&gt;Node3</title>
<path fill="none" stroke="midnightblue" d="M109.07,-74.48C98.29,-72.24 87.3,-69.74 77,-67 64.89,-63.78 51.61,-59.27 41.07,-55.45"/>
<polygon fill="midnightblue" stroke="midnightblue" points="108.39,-77.91 118.89,-76.45 109.77,-71.05 108.39,-77.91"/>
</g>
<!-- Node4&#45;&gt;Node3 -->
<g id="edge4" class="edge">
<title>Node4&#45;&gt;Node3</title>
<path fill="none" stroke="midnightblue" d="M91.31,-48C72.54,-48 54.36,-48 41.26,-48"/>
<polygon fill="midnightblue" stroke="midnightblue" points="91.47,-51.5 101.47,-48 91.47,-44.5 91.47,-51.5"/>
</g>
<!-- Node5&#45;&gt;Node3 -->
<g id="edge6" class="edge">
<title>Node5&#45;&gt;Node3</title>
<path fill="none" stroke="midnightblue" d="M109.07,-21.52C98.29,-23.76 87.3,-26.26 77,-29 64.89,-32.22 51.61,-36.73 41.07,-40.55"/>
<polygon fill="midnightblue" stroke="midnightblue" points="109.77,-24.95 118.89,-19.55 108.39,-18.09 109.77,-24.95"/>
</g>
</g>
</svg>
