<?xml version="1.0" encoding="UTF-8" standalone="no"?>
<!DOCTYPE svg PUBLIC "-//W3C//DTD SVG 1.1//EN"
 "http://www.w3.org/Graphics/SVG/1.1/DTD/svg11.dtd">
<!-- Generated by graphviz version 2.43.0 (0)
 -->
<!-- Title: SystemManager::syncFreeRunStream Pages: 1 -->
<!--zoomable 351 -->
<svg id="main" version="1.1" xmlns="http://www.w3.org/2000/svg" xmlns:xlink="http://www.w3.org/1999/xlink" xml:space="preserve" onload="init(evt)">
<style type="text/css"><![CDATA[
.edge:hover path { stroke: red; }
.edge:hover polygon { stroke: red; fill: red; }
]]></style>
<script type="text/javascript"><![CDATA[
var edges = document.getElementsByTagName('g');
if (edges && edges.length) {
  for (var i=0;i<edges.length;i++) {
    if (edges[i].id.substr(0,4)=='edge') {
      edges[i].setAttribute('class','edge');
    }
  }
}
]]></script>
        <defs>
                <circle id="rim" cx="0" cy="0" r="7"/>
                <circle id="rim2" cx="0" cy="0" r="3.5"/>
                <g id="zoomPlus">
                        <use xlink:href="#rim" fill="#404040">
                                <set attributeName="fill" to="#808080" begin="zoomplus.mouseover" end="zoomplus.mouseout"/>
                        </use>
                        <path d="M-4,0h8M0,-4v8" fill="none" stroke="white" stroke-width="1.5" pointer-events="none"/>
                </g>
                <g id="zoomMin">
                        <use xlink:href="#rim" fill="#404040">
                                <set attributeName="fill" to="#808080" begin="zoomminus.mouseover" end="zoomminus.mouseout"/>
                        </use>
                        <path d="M-4,0h8" fill="none" stroke="white" stroke-width="1.5" pointer-events="none"/>
                </g>
                <g id="dirArrow">
                        <path fill="none" stroke="white" stroke-width="1.5" d="M0,-3.0v7 M-2.5,-0.5L0,-3.0L2.5,-0.5"/>
                </g>
               <g id="resetDef">
                       <use xlink:href="#rim2" fill="#404040">
                               <set attributeName="fill" to="#808080" begin="reset.mouseover" end="reset.mouseout"/>
                       </use>
               </g>
        </defs>

<script type="text/javascript">
var viewWidth = 1192;
var viewHeight = 351;
var sectionId = 'dynsection-12';
</script>
<script xlink:href="svgpan.js"/>
<svg id="graph" class="graph">
<g id="viewport">
<title>SystemManager::syncFreeRunStream</title>
<!-- Node1 -->
<g id="node1" class="node">
<title>Node1</title>
<g id="a_node1"><a xlink:title=" ">
<polygon fill="#bfbfbf" stroke="black" points="0,-95.5 0,-114.5 200,-114.5 200,-95.5 0,-95.5"/>
<text text-anchor="middle" x="100" y="-102.5" font-family="Helvetica,sans-Serif" font-size="10.00">SystemManager::syncFreeRunStream</text>
</a>
</g>
</g>
<!-- Node2 -->
<g id="node2" class="node">
<title>Node2</title>
<g id="a_node2"><a xlink:href="classNetworkManager.html#a5131787ff8e8985e848e8456c1e6b202" target="_top" xlink:title="Configures cameras for PTP&#45;synchronized free&#45;run streaming.">
<polygon fill="none" stroke="black" points="253.5,-204 253.5,-234 420.5,-234 420.5,-204 253.5,-204"/>
<text text-anchor="start" x="261.5" y="-222" font-family="Helvetica,sans-Serif" font-size="10.00">NetworkManager::configurePtp</text>
<text text-anchor="middle" x="337" y="-211" font-family="Helvetica,sans-Serif" font-size="10.00">SyncFreeRun</text>
</a>
</g>
</g>
<!-- Node1&#45;&gt;Node2 -->
<g id="edge1" class="edge">
<title>Node1&#45;&gt;Node2</title>
<path fill="none" stroke="midnightblue" d="M120.63,-114.52C159.06,-133.16 244.88,-174.8 295.82,-199.51"/>
<polygon fill="midnightblue" stroke="midnightblue" points="294.38,-202.7 304.91,-203.92 297.44,-196.4 294.38,-202.7"/>
</g>
<!-- Node16 -->
<g id="node16" class="node">
<title>Node16</title>
<g id="a_node16"><a xlink:href="classDeviceManager.html#a36a89dec4c09c02f7269093b346c37b6" target="_top" xlink:title="Creates Camera objects for the specified device IDs.">
<polygon fill="none" stroke="black" points="250.5,-114.5 250.5,-133.5 423.5,-133.5 423.5,-114.5 250.5,-114.5"/>
<text text-anchor="middle" x="337" y="-121.5" font-family="Helvetica,sans-Serif" font-size="10.00">DeviceManager::createCameras</text>
</a>
</g>
</g>
<!-- Node1&#45;&gt;Node16 -->
<g id="edge16" class="edge">
<title>Node1&#45;&gt;Node16</title>
<path fill="none" stroke="midnightblue" d="M200.32,-113.03C213.6,-114.1 227.19,-115.2 240.4,-116.27"/>
<polygon fill="midnightblue" stroke="midnightblue" points="240.17,-119.76 250.42,-117.08 240.73,-112.79 240.17,-119.76"/>
</g>
<!-- Node19 -->
<g id="node19" class="node">
<title>Node19</title>
<g id="a_node19"><a xlink:href="classDeviceManager.html#aa5df5c2756fda96dc9438e1c85071699" target="_top" xlink:title="Returns the list of currently open cameras.">
<polygon fill="none" stroke="black" points="245,-76.5 245,-95.5 429,-95.5 429,-76.5 245,-76.5"/>
<text text-anchor="middle" x="337" y="-83.5" font-family="Helvetica,sans-Serif" font-size="10.00">DeviceManager::getOpenCameras</text>
</a>
</g>
</g>
<!-- Node1&#45;&gt;Node19 -->
<g id="edge19" class="edge">
<title>Node1&#45;&gt;Node19</title>
<path fill="none" stroke="midnightblue" d="M200.32,-96.97C211.75,-96.05 223.42,-95.1 234.88,-94.18"/>
<polygon fill="midnightblue" stroke="midnightblue" points="235.19,-97.66 244.88,-93.37 234.63,-90.68 235.19,-97.66"/>
</g>
<!-- Node20 -->
<g id="node20" class="node">
<title>Node20</title>
<g id="a_node20"><a xlink:href="classStreamManager.html#a87567b0edf6975bd31e8176b7fe5cbce" target="_top" xlink:title="Starts synchronized streaming from multiple cameras using PTP synchronization.">
<polygon fill="none" stroke="black" points="236,-38.5 236,-57.5 438,-57.5 438,-38.5 236,-38.5"/>
<text text-anchor="middle" x="337" y="-45.5" font-family="Helvetica,sans-Serif" font-size="10.00">StreamManager::startPtpSyncFreeRun</text>
</a>
</g>
</g>
<!-- Node1&#45;&gt;Node20 -->
<g id="edge20" class="edge">
<title>Node1&#45;&gt;Node20</title>
<path fill="none" stroke="midnightblue" d="M131.9,-95.48C159.14,-87.28 199.97,-75.48 236,-67 247.42,-64.31 259.65,-61.74 271.49,-59.41"/>
<polygon fill="midnightblue" stroke="midnightblue" points="272.17,-62.84 281.32,-57.5 270.84,-55.97 272.17,-62.84"/>
</g>
<!-- Node3 -->
<g id="node3" class="node">
<title>Node3</title>
<g id="a_node3"><a xlink:href="classNetworkManager.html#a22ca4e3eadd1f887bb5f90f98570709f" target="_top" xlink:title="Configures network bandwidth settings.">
<polygon fill="none" stroke="black" points="474,-304.5 474,-323.5 677,-323.5 677,-304.5 474,-304.5"/>
<text text-anchor="middle" x="575.5" y="-311.5" font-family="Helvetica,sans-Serif" font-size="10.00">NetworkManager::configureBandwidth</text>
</a>
</g>
</g>
<!-- Node2&#45;&gt;Node3 -->
<g id="edge2" class="edge">
<title>Node2&#45;&gt;Node3</title>
<path fill="none" stroke="midnightblue" d="M360.02,-234.27C386.06,-251.61 431.29,-279.49 474,-295 481.54,-297.74 489.54,-300.1 497.61,-302.13"/>
<polygon fill="midnightblue" stroke="midnightblue" points="496.93,-305.57 507.46,-304.45 498.53,-298.75 496.93,-305.57"/>
</g>
<!-- Node9 -->
<g id="node9" class="node">
<title>Node9</title>
<g id="a_node9"><a xlink:href="classNetworkManager.html#a97139087ce2feb24bce02b5e26ef1cf5" target="_top" xlink:title="Enables PTP (Precision Time Protocol) synchronization on a list of open cameras.">
<polygon fill="none" stroke="black" points="498,-266.5 498,-285.5 653,-285.5 653,-266.5 498,-266.5"/>
<text text-anchor="middle" x="575.5" y="-273.5" font-family="Helvetica,sans-Serif" font-size="10.00">NetworkManager::enablePtp</text>
</a>
</g>
</g>
<!-- Node2&#45;&gt;Node9 -->
<g id="edge8" class="edge">
<title>Node2&#45;&gt;Node9</title>
<path fill="none" stroke="midnightblue" d="M387.79,-234.02C413.42,-241.46 445.23,-250.28 474,-257 485.48,-259.68 497.77,-262.25 509.67,-264.59"/>
<polygon fill="midnightblue" stroke="midnightblue" points="509.07,-268.04 519.55,-266.49 510.4,-261.16 509.07,-268.04"/>
</g>
<!-- Node10 -->
<g id="node10" class="node">
<title>Node10</title>
<g id="a_node10"><a xlink:href="classNetworkManager.html#a580689530037e60c278f61c2d541e86c" target="_top" xlink:title="Monitors and logs PTP offsets over time.">
<polygon fill="none" stroke="black" points="480.5,-228.5 480.5,-247.5 670.5,-247.5 670.5,-228.5 480.5,-228.5"/>
<text text-anchor="middle" x="575.5" y="-235.5" font-family="Helvetica,sans-Serif" font-size="10.00">NetworkManager::monitorPtpOffset</text>
</a>
</g>
</g>
<!-- Node2&#45;&gt;Node10 -->
<g id="edge9" class="edge">
<title>Node2&#45;&gt;Node10</title>
<path fill="none" stroke="midnightblue" d="M420.72,-225.65C436.6,-226.92 453.43,-228.27 469.9,-229.6"/>
<polygon fill="midnightblue" stroke="midnightblue" points="469.85,-233.1 480.09,-230.42 470.41,-226.13 469.85,-233.1"/>
</g>
<!-- Node14 -->
<g id="node14" class="node">
<title>Node14</title>
<g id="a_node14"><a xlink:href="classNetworkManager.html#a5cff683bdb24c9f3359fc259e73cc036" target="_top" xlink:title="Monitors the PTP synchronization status of open cameras.">
<polygon fill="none" stroke="black" points="480,-190.5 480,-209.5 671,-209.5 671,-190.5 480,-190.5"/>
<text text-anchor="middle" x="575.5" y="-197.5" font-family="Helvetica,sans-Serif" font-size="10.00">NetworkManager::monitorPtpStatus</text>
</a>
</g>
</g>
<!-- Node2&#45;&gt;Node14 -->
<g id="edge13" class="edge">
<title>Node2&#45;&gt;Node14</title>
<path fill="none" stroke="midnightblue" d="M420.72,-212.35C436.49,-211.09 453.19,-209.75 469.55,-208.43"/>
<polygon fill="midnightblue" stroke="midnightblue" points="470,-211.91 479.69,-207.62 469.44,-204.93 470,-211.91"/>
</g>
<!-- Node15 -->
<g id="node15" class="node">
<title>Node15</title>
<g id="a_node15"><a xlink:href="classNetworkManager.html#ae34ac9fc3697d706c4938c61f44ecd59" target="_top" xlink:title="Plots the offset trends over time for PTP synchronization analysis.">
<polygon fill="none" stroke="black" points="743.5,-152.5 743.5,-171.5 903.5,-171.5 903.5,-152.5 743.5,-152.5"/>
<text text-anchor="middle" x="823.5" y="-159.5" font-family="Helvetica,sans-Serif" font-size="10.00">NetworkManager::plotOffsets</text>
</a>
</g>
</g>
<!-- Node2&#45;&gt;Node15 -->
<g id="edge14" class="edge">
<title>Node2&#45;&gt;Node15</title>
<path fill="none" stroke="midnightblue" d="M382.47,-203.93C408.77,-195.68 442.92,-186.13 474,-181 561.33,-166.6 662.46,-162.44 733.21,-161.53"/>
<polygon fill="midnightblue" stroke="midnightblue" points="733.46,-165.03 743.42,-161.42 733.38,-158.03 733.46,-165.03"/>
</g>
<!-- Node4 -->
<g id="node4" class="node">
<title>Node4</title>
<g id="a_node4"><a xlink:href="classNetworkManager.html#acd8737d274da2f02b0e1635b4b9f63bb" target="_top" xlink:title="Calculates the theoretical maximum frames per second (FPS) based on packet delay.">
<polygon fill="none" stroke="black" points="729,-323.5 729,-342.5 918,-342.5 918,-323.5 729,-323.5"/>
<text text-anchor="middle" x="823.5" y="-330.5" font-family="Helvetica,sans-Serif" font-size="10.00">NetworkManager::calculateMaxFps</text>
</a>
</g>
</g>
<!-- Node3&#45;&gt;Node4 -->
<g id="edge3" class="edge">
<title>Node3&#45;&gt;Node4</title>
<path fill="none" stroke="midnightblue" d="M677.27,-321.78C690.8,-322.83 704.71,-323.9 718.3,-324.95"/>
<polygon fill="midnightblue" stroke="midnightblue" points="718.38,-328.47 728.62,-325.75 718.92,-321.49 718.38,-328.47"/>
</g>
<!-- Node6 -->
<g id="node6" class="node">
<title>Node6</title>
<g id="a_node6"><a xlink:href="classNetworkManager.html#a88d3b203ca5c2d28212c5da9f8cdde7d" target="_top" xlink:title="Sets the exposure and frame rate of the cameras based on bandwidth and exposure constraints.">
<polygon fill="none" stroke="black" points="722,-285.5 722,-304.5 925,-304.5 925,-285.5 722,-285.5"/>
<text text-anchor="middle" x="823.5" y="-292.5" font-family="Helvetica,sans-Serif" font-size="10.00">NetworkManager::setExposureAndFps</text>
</a>
</g>
</g>
<!-- Node3&#45;&gt;Node6 -->
<g id="edge5" class="edge">
<title>Node3&#45;&gt;Node6</title>
<path fill="none" stroke="midnightblue" d="M677.27,-306.22C688.66,-305.34 700.31,-304.44 711.82,-303.55"/>
<polygon fill="midnightblue" stroke="midnightblue" points="712.19,-307.03 721.89,-302.77 711.65,-300.05 712.19,-307.03"/>
</g>
<!-- Node5 -->
<g id="node5" class="node">
<title>Node5</title>
<g id="a_node5"><a xlink:href="GlobalSettings_8cpp.html#a4e4d4e3815c368773a4dfcfc9d19666c" target="_top" xlink:title="Sets the global FPS upper bound.">
<polygon fill="none" stroke="black" points="1007,-323.5 1007,-342.5 1147,-342.5 1147,-323.5 1007,-323.5"/>
<text text-anchor="middle" x="1077" y="-330.5" font-family="Helvetica,sans-Serif" font-size="10.00">setGlobalFpsUpperBound</text>
</a>
</g>
</g>
<!-- Node4&#45;&gt;Node5 -->
<g id="edge4" class="edge">
<title>Node4&#45;&gt;Node5</title>
<path fill="none" stroke="midnightblue" d="M918.15,-333C943.93,-333 971.63,-333 996.53,-333"/>
<polygon fill="midnightblue" stroke="midnightblue" points="996.64,-336.5 1006.64,-333 996.64,-329.5 996.64,-336.5"/>
</g>
<!-- Node7 -->
<g id="node7" class="node">
<title>Node7</title>
<g id="a_node7"><a xlink:href="GlobalSettings_8cpp.html#ae20198dd587799aa9d5579c3597f7fb4" target="_top" xlink:title="Gets the global FPS upper bound.">
<polygon fill="none" stroke="black" points="1006.5,-285.5 1006.5,-304.5 1147.5,-304.5 1147.5,-285.5 1006.5,-285.5"/>
<text text-anchor="middle" x="1077" y="-292.5" font-family="Helvetica,sans-Serif" font-size="10.00">getGlobalFpsUpperBound</text>
</a>
</g>
</g>
<!-- Node6&#45;&gt;Node7 -->
<g id="edge6" class="edge">
<title>Node6&#45;&gt;Node7</title>
<path fill="none" stroke="midnightblue" d="M925.35,-295C948.93,-295 973.73,-295 996.25,-295"/>
<polygon fill="midnightblue" stroke="midnightblue" points="996.42,-298.5 1006.42,-295 996.42,-291.5 996.42,-298.5"/>
</g>
<!-- Node8 -->
<g id="node8" class="node">
<title>Node8</title>
<g id="a_node8"><a xlink:href="classNetworkManager.html#a2894fa4186d5341d1ceea4930cd1f448" target="_top" xlink:title="Retrieves the real minimum exposure time set on the cameras.">
<polygon fill="none" stroke="black" points="970,-247.5 970,-266.5 1184,-266.5 1184,-247.5 970,-247.5"/>
<text text-anchor="middle" x="1077" y="-254.5" font-family="Helvetica,sans-Serif" font-size="10.00">NetworkManager::getMinimumExposure</text>
</a>
</g>
</g>
<!-- Node6&#45;&gt;Node8 -->
<g id="edge7" class="edge">
<title>Node6&#45;&gt;Node8</title>
<path fill="none" stroke="midnightblue" d="M887.64,-285.46C922.62,-280.17 966.28,-273.58 1002.75,-268.07"/>
<polygon fill="midnightblue" stroke="midnightblue" points="1003.47,-271.5 1012.83,-266.54 1002.42,-264.58 1003.47,-271.5"/>
</g>
<!-- Node11 -->
<g id="node11" class="node">
<title>Node11</title>
<g id="a_node11"><a xlink:href="classNetworkManager.html#ae856b2f8ac57cb540414667eccc6832a" target="_top" xlink:title="Logs the history of PTP offsets to a CSV file.">
<polygon fill="none" stroke="black" points="715.5,-228.5 715.5,-247.5 931.5,-247.5 931.5,-228.5 715.5,-228.5"/>
<text text-anchor="middle" x="823.5" y="-235.5" font-family="Helvetica,sans-Serif" font-size="10.00">NetworkManager::logOffsetHistoryToCSV</text>
</a>
</g>
</g>
<!-- Node10&#45;&gt;Node11 -->
<g id="edge10" class="edge">
<title>Node10&#45;&gt;Node11</title>
<path fill="none" stroke="midnightblue" d="M670.56,-238C681.89,-238 693.56,-238 705.17,-238"/>
<polygon fill="midnightblue" stroke="midnightblue" points="705.35,-241.5 715.35,-238 705.35,-234.5 705.35,-241.5"/>
</g>
<!-- Node13 -->
<g id="node13" class="node">
<title>Node13</title>
<g id="a_node13"><a xlink:href="classNetworkManager.html#a8f23d31231702bcd91a3cf101a8394e6" target="_top" xlink:title="Prints the PTP configuration details of a camera.">
<polygon fill="none" stroke="black" points="735.5,-190.5 735.5,-209.5 911.5,-209.5 911.5,-190.5 735.5,-190.5"/>
<text text-anchor="middle" x="823.5" y="-197.5" font-family="Helvetica,sans-Serif" font-size="10.00">NetworkManager::printPtpConfig</text>
</a>
</g>
</g>
<!-- Node10&#45;&gt;Node13 -->
<g id="edge12" class="edge">
<title>Node10&#45;&gt;Node13</title>
<path fill="none" stroke="midnightblue" d="M638.26,-228.46C672.33,-223.2 714.81,-216.63 750.39,-211.14"/>
<polygon fill="midnightblue" stroke="midnightblue" points="751.37,-214.53 760.72,-209.54 750.3,-207.61 751.37,-214.53"/>
</g>
<!-- Node12 -->
<g id="node12" class="node">
<title>Node12</title>
<g id="a_node12"><a xlink:href="GlobalSettings_8hpp.html#a292086bff16224cc0653061c22440e60" target="_top" xlink:title="Returns the session timestamp as a string.">
<polygon fill="none" stroke="black" points="1014.5,-181.5 1014.5,-200.5 1139.5,-200.5 1139.5,-181.5 1014.5,-181.5"/>
<text text-anchor="middle" x="1077" y="-188.5" font-family="Helvetica,sans-Serif" font-size="10.00">getSessionTimestamp</text>
</a>
</g>
</g>
<!-- Node11&#45;&gt;Node12 -->
<g id="edge11" class="edge">
<title>Node11&#45;&gt;Node12</title>
<path fill="none" stroke="midnightblue" d="M880.81,-228.48C897.91,-225.53 916.74,-222.2 934,-219 962.03,-213.81 993.1,-207.72 1019.01,-202.55"/>
<polygon fill="midnightblue" stroke="midnightblue" points="1019.92,-205.93 1029.04,-200.54 1018.55,-199.07 1019.92,-205.93"/>
</g>
<!-- Node15&#45;&gt;Node12 -->
<g id="edge15" class="edge">
<title>Node15&#45;&gt;Node12</title>
<path fill="none" stroke="midnightblue" d="M903.73,-171.14C935.95,-174.85 972.92,-179.11 1004.32,-182.73"/>
<polygon fill="midnightblue" stroke="midnightblue" points="1003.98,-186.22 1014.31,-183.89 1004.78,-179.26 1003.98,-186.22"/>
</g>
<!-- Node17 -->
<g id="node17" class="node">
<title>Node17</title>
<g id="a_node17"><a xlink:href="classDeviceManager.html#a5de621ae914e130ad5a5e977c02272f4" target="_top" xlink:title="Creates a camera by device ID.">
<polygon fill="none" stroke="black" points="491.5,-114.5 491.5,-133.5 659.5,-133.5 659.5,-114.5 491.5,-114.5"/>
<text text-anchor="middle" x="575.5" y="-121.5" font-family="Helvetica,sans-Serif" font-size="10.00">DeviceManager::createCamera</text>
</a>
</g>
</g>
<!-- Node16&#45;&gt;Node17 -->
<g id="edge17" class="edge">
<title>Node16&#45;&gt;Node17</title>
<path fill="none" stroke="midnightblue" d="M423.72,-124C442.43,-124 462.32,-124 481.31,-124"/>
<polygon fill="midnightblue" stroke="midnightblue" points="481.45,-127.5 491.45,-124 481.45,-120.5 481.45,-127.5"/>
</g>
<!-- Node18 -->
<g id="node18" class="node">
<title>Node18</title>
<g id="a_node18"><a xlink:href="classDeviceManager.html#a6374a294f1d0d15f18ab35aea1fb6158" target="_top" xlink:title="Returns a device by its ID.">
<polygon fill="none" stroke="black" points="713,-114.5 713,-133.5 934,-133.5 934,-114.5 713,-114.5"/>
<text text-anchor="middle" x="823.5" y="-121.5" font-family="Helvetica,sans-Serif" font-size="10.00">DeviceManager::getAvailableCameraByID</text>
</a>
</g>
</g>
<!-- Node17&#45;&gt;Node18 -->
<g id="edge18" class="edge">
<title>Node17&#45;&gt;Node18</title>
<path fill="none" stroke="midnightblue" d="M659.78,-124C673.6,-124 688.17,-124 702.67,-124"/>
<polygon fill="midnightblue" stroke="midnightblue" points="702.7,-127.5 712.7,-124 702.7,-120.5 702.7,-127.5"/>
</g>
<!-- Node21 -->
<g id="node21" class="node">
<title>Node21</title>
<g id="a_node21"><a xlink:href="classStreamManager.html#a9f70fad5bf4dd5108911c05af8f649e3" target="_top" xlink:title="Creates a composite display grid from multiple camera frames.">
<polygon fill="none" stroke="black" points="483.5,-76.5 483.5,-95.5 667.5,-95.5 667.5,-76.5 483.5,-76.5"/>
<text text-anchor="middle" x="575.5" y="-83.5" font-family="Helvetica,sans-Serif" font-size="10.00">StreamManager::createComposite</text>
</a>
</g>
</g>
<!-- Node20&#45;&gt;Node21 -->
<g id="edge21" class="edge">
<title>Node20&#45;&gt;Node21</title>
<path fill="none" stroke="midnightblue" d="M397.37,-57.54C430.13,-62.8 470.97,-69.37 505.18,-74.86"/>
<polygon fill="midnightblue" stroke="midnightblue" points="504.67,-78.33 515.1,-76.46 505.78,-71.41 504.67,-78.33"/>
</g>
<!-- Node22 -->
<g id="node22" class="node">
<title>Node22</title>
<g id="a_node22"><a xlink:href="classStreamManager.html#a0257fcf9f99184dee55ffe95ab5a9c4c" target="_top" xlink:title="Launches a camera streaming thread in free&#45;run mode.">
<polygon fill="none" stroke="black" points="476.5,-38.5 476.5,-57.5 674.5,-57.5 674.5,-38.5 476.5,-38.5"/>
<text text-anchor="middle" x="575.5" y="-45.5" font-family="Helvetica,sans-Serif" font-size="10.00">StreamManager::startFreeRunStream</text>
</a>
</g>
</g>
<!-- Node20&#45;&gt;Node22 -->
<g id="edge22" class="edge">
<title>Node20&#45;&gt;Node22</title>
<path fill="none" stroke="midnightblue" d="M438.3,-48C447.54,-48 456.94,-48 466.25,-48"/>
<polygon fill="midnightblue" stroke="midnightblue" points="466.31,-51.5 476.31,-48 466.31,-44.5 466.31,-51.5"/>
</g>
<!-- Node23 -->
<g id="node23" class="node">
<title>Node23</title>
<g id="a_node23"><a xlink:href="classStreamManager.html#abfb94b1e01cc9952b575a78995532e30" target="_top" xlink:title="Stops all streaming threads and cleans up resources.">
<polygon fill="none" stroke="black" points="489.5,-0.5 489.5,-19.5 661.5,-19.5 661.5,-0.5 489.5,-0.5"/>
<text text-anchor="middle" x="575.5" y="-7.5" font-family="Helvetica,sans-Serif" font-size="10.00">StreamManager::stopStreaming</text>
</a>
</g>
</g>
<!-- Node20&#45;&gt;Node23 -->
<g id="edge23" class="edge">
<title>Node20&#45;&gt;Node23</title>
<path fill="none" stroke="midnightblue" d="M397.37,-38.46C430.13,-33.2 470.97,-26.63 505.18,-21.14"/>
<polygon fill="midnightblue" stroke="midnightblue" points="505.78,-24.59 515.1,-19.54 504.67,-17.67 505.78,-24.59"/>
</g>
</g>
</svg>
        <g id="navigator" transform="translate(0 0)" fill="#404254">
                <rect fill="#f2f5e9" fill-opacity="0.5" stroke="#606060" stroke-width=".5" x="0" y="0" width="60" height="60"/>
                <use id="zoomplus" xlink:href="#zoomPlus" x="17" y="9" onmousedown="handleZoom(evt,'in')"/>
                <use id="zoomminus" xlink:href="#zoomMin" x="42" y="9" onmousedown="handleZoom(evt,'out')"/>
                <use id="reset" xlink:href="#resetDef" x="30" y="36" onmousedown="handleReset()"/>
                <g id="arrowUp" xlink:href="#dirArrow" transform="translate(30 24)" onmousedown="handlePan(0,-1)">
                  <use xlink:href="#rim" fill="#404040">
                        <set attributeName="fill" to="#808080" begin="arrowUp.mouseover" end="arrowUp.mouseout"/>
                  </use>
                  <path fill="none" stroke="white" stroke-width="1.5" d="M0,-3.0v7 M-2.5,-0.5L0,-3.0L2.5,-0.5"/>
                </g>
                <g id="arrowRight" xlink:href="#dirArrow" transform="rotate(90) translate(36 -43)" onmousedown="handlePan(1,0)">
                  <use xlink:href="#rim" fill="#404040">
                        <set attributeName="fill" to="#808080" begin="arrowRight.mouseover" end="arrowRight.mouseout"/>
                  </use>
                  <path fill="none" stroke="white" stroke-width="1.5" d="M0,-3.0v7 M-2.5,-0.5L0,-3.0L2.5,-0.5"/>
                </g>
                <g id="arrowDown" xlink:href="#dirArrow" transform="rotate(180) translate(-30 -48)" onmousedown="handlePan(0,1)">
                  <use xlink:href="#rim" fill="#404040">
                        <set attributeName="fill" to="#808080" begin="arrowDown.mouseover" end="arrowDown.mouseout"/>
                  </use>
                  <path fill="none" stroke="white" stroke-width="1.5" d="M0,-3.0v7 M-2.5,-0.5L0,-3.0L2.5,-0.5"/>
                </g>
                <g id="arrowLeft" xlink:href="#dirArrow" transform="rotate(270) translate(-36 17)" onmousedown="handlePan(-1,0)">
                  <use xlink:href="#rim" fill="#404040">
                        <set attributeName="fill" to="#808080" begin="arrowLeft.mouseover" end="arrowLeft.mouseout"/>
                  </use>
                  <path fill="none" stroke="white" stroke-width="1.5" d="M0,-3.0v7 M-2.5,-0.5L0,-3.0L2.5,-0.5"/>
                </g>
        </g>
        <svg viewBox="0 0 15 15" width="100%" height="30px" preserveAspectRatio="xMaxYMin meet">
         <g id="arrow_out" transform="scale(0.3 0.3)">
          <a xlink:href="classSystemManager_addb2328a323747f21afb826811f288ab_cgraph_org.svg" target="_base">
           <rect id="button" ry="5" rx="5" y="6" x="6" height="38" width="38"
                fill="#f2f5e9" fill-opacity="0.5" stroke="#606060" stroke-width="1.0"/>
           <path id="arrow"
             d="M 11.500037,31.436501 C 11.940474,20.09759 22.043105,11.32322 32.158766,21.979434 L 37.068811,17.246167 C 37.068811,17.246167 37.088388,32 37.088388,32 L 22.160133,31.978069 C 22.160133,31.978069 26.997745,27.140456 26.997745,27.140456 C 18.528582,18.264221 13.291696,25.230495 11.500037,31.436501 z"
             style="fill:#404040;"/>
          </a>
         </g>
        </svg>
</svg>
