<?xml version="1.0" encoding="UTF-8" standalone="no"?>
<!DOCTYPE svg PUBLIC "-//W3C//DTD SVG 1.1//EN"
 "http://www.w3.org/Graphics/SVG/1.1/DTD/svg11.dtd">
<!-- Generated by graphviz version 2.43.0 (0)
 -->
<!-- Title: SystemManager::enumerateOpenCameras Pages: 1 -->
<svg width="868pt" height="66pt"
 viewBox="0.00 0.00 868.00 66.00" xmlns="http://www.w3.org/2000/svg" xmlns:xlink="http://www.w3.org/1999/xlink">
<g id="graph0" class="graph" transform="scale(1 1) rotate(0) translate(4 62)">
<title>SystemManager::enumerateOpenCameras</title>
<!-- Node1 -->
<g id="node1" class="node">
<title>Node1</title>
<g id="a_node1"><a xlink:title=" ">
<polygon fill="#bfbfbf" stroke="black" points="0,-14 0,-44 181,-44 181,-14 0,-14"/>
<text text-anchor="start" x="8" y="-32" font-family="Helvetica,sans-Serif" font-size="10.00">SystemManager::enumerateOpen</text>
<text text-anchor="middle" x="90.5" y="-21" font-family="Helvetica,sans-Serif" font-size="10.00">Cameras</text>
</a>
</g>
</g>
<!-- Node2 -->
<g id="node2" class="node">
<title>Node2</title>
<g id="a_node2"><a xlink:href="classDeviceManager.html#a36a89dec4c09c02f7269093b346c37b6" target="_top" xlink:title="Creates Camera objects for the specified device IDs.">
<polygon fill="none" stroke="black" points="221.5,-38.5 221.5,-57.5 394.5,-57.5 394.5,-38.5 221.5,-38.5"/>
<text text-anchor="middle" x="308" y="-45.5" font-family="Helvetica,sans-Serif" font-size="10.00">DeviceManager::createCameras</text>
</a>
</g>
</g>
<!-- Node1&#45;&gt;Node2 -->
<g id="edge1" class="edge">
<title>Node1&#45;&gt;Node2</title>
<path fill="none" stroke="midnightblue" d="M181.02,-36.89C190.99,-37.77 201.18,-38.67 211.23,-39.56"/>
<polygon fill="midnightblue" stroke="midnightblue" points="210.95,-43.04 221.22,-40.44 211.56,-36.07 210.95,-43.04"/>
</g>
<!-- Node5 -->
<g id="node5" class="node">
<title>Node5</title>
<g id="a_node5"><a xlink:href="classDeviceManager.html#a46948952d8a01fccc65158dec681858b" target="_top" xlink:title="Lists the currently open cameras.">
<polygon fill="none" stroke="black" points="217,-0.5 217,-19.5 399,-19.5 399,-0.5 217,-0.5"/>
<text text-anchor="middle" x="308" y="-7.5" font-family="Helvetica,sans-Serif" font-size="10.00">DeviceManager::listopenCameras</text>
</a>
</g>
</g>
<!-- Node1&#45;&gt;Node5 -->
<g id="edge4" class="edge">
<title>Node1&#45;&gt;Node5</title>
<path fill="none" stroke="midnightblue" d="M181.02,-21.11C189.5,-20.36 198.13,-19.6 206.7,-18.84"/>
<polygon fill="midnightblue" stroke="midnightblue" points="207.06,-22.32 216.72,-17.96 206.45,-15.35 207.06,-22.32"/>
</g>
<!-- Node3 -->
<g id="node3" class="node">
<title>Node3</title>
<g id="a_node3"><a xlink:href="classDeviceManager.html#a5de621ae914e130ad5a5e977c02272f4" target="_top" xlink:title="Creates a camera by device ID.">
<polygon fill="none" stroke="black" points="435,-38.5 435,-57.5 603,-57.5 603,-38.5 435,-38.5"/>
<text text-anchor="middle" x="519" y="-45.5" font-family="Helvetica,sans-Serif" font-size="10.00">DeviceManager::createCamera</text>
</a>
</g>
</g>
<!-- Node2&#45;&gt;Node3 -->
<g id="edge2" class="edge">
<title>Node2&#45;&gt;Node3</title>
<path fill="none" stroke="midnightblue" d="M394.61,-48C404.59,-48 414.8,-48 424.87,-48"/>
<polygon fill="midnightblue" stroke="midnightblue" points="424.88,-51.5 434.88,-48 424.88,-44.5 424.88,-51.5"/>
</g>
<!-- Node4 -->
<g id="node4" class="node">
<title>Node4</title>
<g id="a_node4"><a xlink:href="classDeviceManager.html#a6374a294f1d0d15f18ab35aea1fb6158" target="_top" xlink:title="Returns a device by its ID.">
<polygon fill="none" stroke="black" points="639,-38.5 639,-57.5 860,-57.5 860,-38.5 639,-38.5"/>
<text text-anchor="middle" x="749.5" y="-45.5" font-family="Helvetica,sans-Serif" font-size="10.00">DeviceManager::getAvailableCameraByID</text>
</a>
</g>
</g>
<!-- Node3&#45;&gt;Node4 -->
<g id="edge3" class="edge">
<title>Node3&#45;&gt;Node4</title>
<path fill="none" stroke="midnightblue" d="M603.14,-48C611.49,-48 620.07,-48 628.7,-48"/>
<polygon fill="midnightblue" stroke="midnightblue" points="628.84,-51.5 638.84,-48 628.84,-44.5 628.84,-51.5"/>
</g>
<!-- Node6 -->
<g id="node6" class="node">
<title>Node6</title>
<g id="a_node6"><a xlink:href="classDeviceManager.html#adac223e4ad4bf72dcbcaf4ea2b5504eb" target="_top" xlink:title="Lists a single camera.">
<polygon fill="none" stroke="black" points="443,-0.5 443,-19.5 595,-19.5 595,-0.5 443,-0.5"/>
<text text-anchor="middle" x="519" y="-7.5" font-family="Helvetica,sans-Serif" font-size="10.00">DeviceManager::listCamera</text>
</a>
</g>
</g>
<!-- Node5&#45;&gt;Node6 -->
<g id="edge5" class="edge">
<title>Node5&#45;&gt;Node6</title>
<path fill="none" stroke="midnightblue" d="M399.15,-10C410.32,-10 421.7,-10 432.79,-10"/>
<polygon fill="midnightblue" stroke="midnightblue" points="432.88,-13.5 442.88,-10 432.88,-6.5 432.88,-13.5"/>
</g>
</g>
</svg>
