<?xml version="1.0" encoding="UTF-8" standalone="no"?>
<!DOCTYPE svg PUBLIC "-//W3C//DTD SVG 1.1//EN"
 "http://www.w3.org/Graphics/SVG/1.1/DTD/svg11.dtd">
<!-- Generated by graphviz version 2.43.0 (0)
 -->
<!-- Title: Camera::updateGlobalFrame Pages: 1 -->
<svg width="548pt" height="142pt"
 viewBox="0.00 0.00 548.00 142.00" xmlns="http://www.w3.org/2000/svg" xmlns:xlink="http://www.w3.org/1999/xlink">
<g id="graph0" class="graph" transform="scale(1 1) rotate(0) translate(4 138)">
<title>Camera::updateGlobalFrame</title>
<!-- Node1 -->
<g id="node1" class="node">
<title>Node1</title>
<g id="a_node1"><a xlink:title="Updates the global frame buffer.">
<polygon fill="#bfbfbf" stroke="black" points="0,-76.5 0,-95.5 157,-95.5 157,-76.5 0,-76.5"/>
<text text-anchor="middle" x="78.5" y="-83.5" font-family="Helvetica,sans-Serif" font-size="10.00">Camera::updateGlobalFrame</text>
</a>
</g>
</g>
<!-- Node2 -->
<g id="node2" class="node">
<title>Node2</title>
<g id="a_node2"><a xlink:href="classCamera.html#a73d0377e77c2e760d29381cd1073c2cd" target="_top" xlink:title="Adjusts FPS dynamically to maintain target values.">
<polygon fill="none" stroke="black" points="193,-76.5 193,-95.5 363,-95.5 363,-76.5 193,-76.5"/>
<text text-anchor="middle" x="278" y="-83.5" font-family="Helvetica,sans-Serif" font-size="10.00">Camera::adjustFpsDynamically</text>
</a>
</g>
</g>
<!-- Node1&#45;&gt;Node2 -->
<g id="edge1" class="edge">
<title>Node1&#45;&gt;Node2</title>
<path fill="none" stroke="midnightblue" d="M157.27,-86C165.56,-86 174.06,-86 182.51,-86"/>
<polygon fill="midnightblue" stroke="midnightblue" points="182.78,-89.5 192.78,-86 182.78,-82.5 182.78,-89.5"/>
</g>
<!-- Node4 -->
<g id="node4" class="node">
<title>Node4</title>
<g id="a_node4"><a xlink:href="GlobalSettings_8cpp.html#ae20198dd587799aa9d5579c3597f7fb4" target="_top" xlink:title="Gets the global FPS upper bound.">
<polygon fill="none" stroke="black" points="399,-114.5 399,-133.5 540,-133.5 540,-114.5 399,-114.5"/>
<text text-anchor="middle" x="469.5" y="-121.5" font-family="Helvetica,sans-Serif" font-size="10.00">getGlobalFpsUpperBound</text>
</a>
</g>
</g>
<!-- Node1&#45;&gt;Node4 -->
<g id="edge6" class="edge">
<title>Node1&#45;&gt;Node4</title>
<path fill="none" stroke="midnightblue" d="M129.92,-95.52C149.55,-98.94 172.27,-102.56 193,-105 258.78,-112.76 333.8,-117.67 388.92,-120.56"/>
<polygon fill="midnightblue" stroke="midnightblue" points="388.81,-124.06 398.98,-121.07 389.17,-117.07 388.81,-124.06"/>
</g>
<!-- Node7 -->
<g id="node7" class="node">
<title>Node7</title>
<g id="a_node7"><a xlink:href="classCamera.html#a4b68939bf4d62a6a69a44b8a5b7000b3" target="_top" xlink:title="Retrieves the current timestamps from the camera.">
<polygon fill="none" stroke="black" points="209.5,-38.5 209.5,-57.5 346.5,-57.5 346.5,-38.5 209.5,-38.5"/>
<text text-anchor="middle" x="278" y="-45.5" font-family="Helvetica,sans-Serif" font-size="10.00">Camera::getTimestamps</text>
</a>
</g>
</g>
<!-- Node1&#45;&gt;Node7 -->
<g id="edge7" class="edge">
<title>Node1&#45;&gt;Node7</title>
<path fill="none" stroke="midnightblue" d="M129.08,-76.46C155.85,-71.31 189.08,-64.92 217.26,-59.49"/>
<polygon fill="midnightblue" stroke="midnightblue" points="218.24,-62.87 227.4,-57.54 216.92,-56 218.24,-62.87"/>
</g>
<!-- Node3 -->
<g id="node3" class="node">
<title>Node3</title>
<g id="a_node3"><a xlink:href="classCamera.html#a5b1326da520053d87a9472577c401207" target="_top" xlink:title="Gets the configured frames per second.">
<polygon fill="none" stroke="black" points="422.5,-76.5 422.5,-95.5 516.5,-95.5 516.5,-76.5 422.5,-76.5"/>
<text text-anchor="middle" x="469.5" y="-83.5" font-family="Helvetica,sans-Serif" font-size="10.00">Camera::getFps</text>
</a>
</g>
</g>
<!-- Node2&#45;&gt;Node3 -->
<g id="edge2" class="edge">
<title>Node2&#45;&gt;Node3</title>
<path fill="none" stroke="midnightblue" d="M363.22,-86C379.77,-86 396.74,-86 412.1,-86"/>
<polygon fill="midnightblue" stroke="midnightblue" points="412.46,-89.5 422.46,-86 412.46,-82.5 412.46,-89.5"/>
</g>
<!-- Node2&#45;&gt;Node4 -->
<g id="edge3" class="edge">
<title>Node2&#45;&gt;Node4</title>
<path fill="none" stroke="midnightblue" d="M326.82,-95.59C352.39,-100.72 384.06,-107.07 410.97,-112.46"/>
<polygon fill="midnightblue" stroke="midnightblue" points="410.53,-115.95 421.03,-114.48 411.91,-109.08 410.53,-115.95"/>
</g>
<!-- Node5 -->
<g id="node5" class="node">
<title>Node5</title>
<g id="a_node5"><a xlink:href="classCamera.html#a476aadf5f98ad43eacfabfd465c40062" target="_top" xlink:title="Sets the maximum allowed frames per second.">
<polygon fill="none" stroke="black" points="423,-38.5 423,-57.5 516,-57.5 516,-38.5 423,-38.5"/>
<text text-anchor="middle" x="469.5" y="-45.5" font-family="Helvetica,sans-Serif" font-size="10.00">Camera::setFps</text>
</a>
</g>
</g>
<!-- Node2&#45;&gt;Node5 -->
<g id="edge4" class="edge">
<title>Node2&#45;&gt;Node5</title>
<path fill="none" stroke="midnightblue" d="M326.82,-76.41C353.09,-71.14 385.79,-64.58 413.16,-59.1"/>
<polygon fill="midnightblue" stroke="midnightblue" points="413.87,-62.53 422.98,-57.13 412.49,-55.66 413.87,-62.53"/>
</g>
<!-- Node6 -->
<g id="node6" class="node">
<title>Node6</title>
<g id="a_node6"><a xlink:href="GlobalSettings_8cpp.html#a4e4d4e3815c368773a4dfcfc9d19666c" target="_top" xlink:title="Sets the global FPS upper bound.">
<polygon fill="none" stroke="black" points="399.5,-0.5 399.5,-19.5 539.5,-19.5 539.5,-0.5 399.5,-0.5"/>
<text text-anchor="middle" x="469.5" y="-7.5" font-family="Helvetica,sans-Serif" font-size="10.00">setGlobalFpsUpperBound</text>
</a>
</g>
</g>
<!-- Node2&#45;&gt;Node6 -->
<g id="edge5" class="edge">
<title>Node2&#45;&gt;Node6</title>
<path fill="none" stroke="midnightblue" d="M341.14,-76.36C348.77,-73.91 356.24,-70.85 363,-67 383.22,-55.49 379.04,-40.95 399,-29 402.62,-26.83 406.5,-24.9 410.49,-23.19"/>
<polygon fill="midnightblue" stroke="midnightblue" points="411.89,-26.41 419.99,-19.58 409.4,-19.86 411.89,-26.41"/>
</g>
</g>
</svg>
