<?xml version="1.0" encoding="UTF-8" standalone="no"?>
<!DOCTYPE svg PUBLIC "-//W3C//DTD SVG 1.1//EN"
 "http://www.w3.org/Graphics/SVG/1.1/DTD/svg11.dtd">
<!-- Generated by graphviz version 2.43.0 (0)
 -->
<!-- Title: Camera::hexToIP Pages: 1 -->
<svg width="399pt" height="28pt"
 viewBox="0.00 0.00 399.00 28.00" xmlns="http://www.w3.org/2000/svg" xmlns:xlink="http://www.w3.org/1999/xlink">
<g id="graph0" class="graph" transform="scale(1 1) rotate(0) translate(4 24)">
<title>Camera::hexToIP</title>
<!-- Node1 -->
<g id="node1" class="node">
<title>Node1</title>
<g id="a_node1"><a xlink:title="Converts a hexadecimal IP address to string.">
<polygon fill="#bfbfbf" stroke="black" points="293,-0.5 293,-19.5 391,-19.5 391,-0.5 293,-0.5"/>
<text text-anchor="middle" x="342" y="-7.5" font-family="Helvetica,sans-Serif" font-size="10.00">Camera::hexToIP</text>
</a>
</g>
</g>
<!-- Node2 -->
<g id="node2" class="node">
<title>Node2</title>
<g id="a_node2"><a xlink:href="classCamera.html#ae840f24b0124bdbce1f84f9a345458fa" target="_top" xlink:title="Returns the current IP address.">
<polygon fill="none" stroke="black" points="135,-0.5 135,-19.5 257,-19.5 257,-0.5 135,-0.5"/>
<text text-anchor="middle" x="196" y="-7.5" font-family="Helvetica,sans-Serif" font-size="10.00">Camera::getCurrentIP</text>
</a>
</g>
</g>
<!-- Node1&#45;&gt;Node2 -->
<g id="edge1" class="edge">
<title>Node1&#45;&gt;Node2</title>
<path fill="none" stroke="midnightblue" d="M282.61,-10C274.25,-10 265.64,-10 257.25,-10"/>
<polygon fill="midnightblue" stroke="midnightblue" points="282.65,-13.5 292.65,-10 282.65,-6.5 282.65,-13.5"/>
</g>
<!-- Node3 -->
<g id="node3" class="node">
<title>Node3</title>
<g id="a_node3"><a xlink:href="classCamera.html#a7a1de593de374d1627a2c8d2320095e6" target="_top" xlink:title="Constructs a Camera object.">
<polygon fill="none" stroke="black" points="0,-0.5 0,-19.5 99,-19.5 99,-0.5 0,-0.5"/>
<text text-anchor="middle" x="49.5" y="-7.5" font-family="Helvetica,sans-Serif" font-size="10.00">Camera::Camera</text>
</a>
</g>
</g>
<!-- Node2&#45;&gt;Node3 -->
<g id="edge2" class="edge">
<title>Node2&#45;&gt;Node3</title>
<path fill="none" stroke="midnightblue" d="M124.82,-10C116.13,-10 107.4,-10 99.13,-10"/>
<polygon fill="midnightblue" stroke="midnightblue" points="124.97,-13.5 134.97,-10 124.97,-6.5 124.97,-13.5"/>
</g>
</g>
</svg>
