<?xml version="1.0" encoding="UTF-8" standalone="no"?>
<!DOCTYPE svg PUBLIC "-//W3C//DTD SVG 1.1//EN"
 "http://www.w3.org/Graphics/SVG/1.1/DTD/svg11.dtd">
<!-- Generated by graphviz version 2.43.0 (0)
 -->
<!-- Title: DeviceManager::createCamera Pages: 1 -->
<svg width="698pt" height="192pt"
 viewBox="0.00 0.00 698.00 191.50" xmlns="http://www.w3.org/2000/svg" xmlns:xlink="http://www.w3.org/1999/xlink">
<g id="graph0" class="graph" transform="scale(1 1) rotate(0) translate(4 187.5)">
<title>DeviceManager::createCamera</title>
<!-- Node1 -->
<g id="node1" class="node">
<title>Node1</title>
<g id="a_node1"><a xlink:title="Creates a camera by device ID.">
<polygon fill="#bfbfbf" stroke="black" points="522,-76.5 522,-95.5 690,-95.5 690,-76.5 522,-76.5"/>
<text text-anchor="middle" x="606" y="-83.5" font-family="Helvetica,sans-Serif" font-size="10.00">DeviceManager::createCamera</text>
</a>
</g>
</g>
<!-- Node2 -->
<g id="node2" class="node">
<title>Node2</title>
<g id="a_node2"><a xlink:href="classDeviceManager.html#a36a89dec4c09c02f7269093b346c37b6" target="_top" xlink:title="Creates Camera objects for the specified device IDs.">
<polygon fill="none" stroke="black" points="313,-76.5 313,-95.5 486,-95.5 486,-76.5 313,-76.5"/>
<text text-anchor="middle" x="399.5" y="-83.5" font-family="Helvetica,sans-Serif" font-size="10.00">DeviceManager::createCameras</text>
</a>
</g>
</g>
<!-- Node1&#45;&gt;Node2 -->
<g id="edge1" class="edge">
<title>Node1&#45;&gt;Node2</title>
<path fill="none" stroke="midnightblue" d="M511.59,-86C503.15,-86 494.63,-86 486.26,-86"/>
<polygon fill="midnightblue" stroke="midnightblue" points="511.82,-89.5 521.82,-86 511.82,-82.5 511.82,-89.5"/>
</g>
<!-- Node3 -->
<g id="node3" class="node">
<title>Node3</title>
<g id="a_node3"><a xlink:href="classSystemManager.html#a66e896c8491898746732c76fe733d57d" target="_top" xlink:title=" ">
<polygon fill="none" stroke="black" points="86.5,-153 86.5,-183 267.5,-183 267.5,-153 86.5,-153"/>
<text text-anchor="start" x="94.5" y="-171" font-family="Helvetica,sans-Serif" font-size="10.00">SystemManager::enumerateOpen</text>
<text text-anchor="middle" x="177" y="-160" font-family="Helvetica,sans-Serif" font-size="10.00">Cameras</text>
</a>
</g>
</g>
<!-- Node2&#45;&gt;Node3 -->
<g id="edge2" class="edge">
<title>Node2&#45;&gt;Node3</title>
<path fill="none" stroke="midnightblue" d="M371.91,-100.28C347.71,-112.85 310.71,-130.96 277,-143 266.73,-146.67 255.69,-150.01 244.82,-152.98"/>
<polygon fill="midnightblue" stroke="midnightblue" points="373.61,-103.35 380.84,-95.6 370.36,-97.15 373.61,-103.35"/>
</g>
<!-- Node5 -->
<g id="node5" class="node">
<title>Node5</title>
<g id="a_node5"><a xlink:href="classSystemManager.html#a051494c0cf33bac6dbd8e4c0eb3ed9ae" target="_top" xlink:title=" ">
<polygon fill="none" stroke="black" points="99.5,-114.5 99.5,-133.5 254.5,-133.5 254.5,-114.5 99.5,-114.5"/>
<text text-anchor="middle" x="177" y="-121.5" font-family="Helvetica,sans-Serif" font-size="10.00">SystemManager::ptpDisable</text>
</a>
</g>
</g>
<!-- Node2&#45;&gt;Node5 -->
<g id="edge4" class="edge">
<title>Node2&#45;&gt;Node5</title>
<path fill="none" stroke="midnightblue" d="M333.07,-97.28C301.35,-102.74 263.66,-109.24 233.38,-114.46"/>
<polygon fill="midnightblue" stroke="midnightblue" points="333.88,-100.69 343.14,-95.54 332.69,-93.79 333.88,-100.69"/>
</g>
<!-- Node6 -->
<g id="node6" class="node">
<title>Node6</title>
<g id="a_node6"><a xlink:href="classSystemManager.html#af801ab01222b0c07d25a8fa780d423e4" target="_top" xlink:title=" ">
<polygon fill="none" stroke="black" points="101.5,-76.5 101.5,-95.5 252.5,-95.5 252.5,-76.5 101.5,-76.5"/>
<text text-anchor="middle" x="177" y="-83.5" font-family="Helvetica,sans-Serif" font-size="10.00">SystemManager::ptpEnable</text>
</a>
</g>
</g>
<!-- Node2&#45;&gt;Node6 -->
<g id="edge6" class="edge">
<title>Node2&#45;&gt;Node6</title>
<path fill="none" stroke="midnightblue" d="M302.61,-86C285.92,-86 268.78,-86 252.75,-86"/>
<polygon fill="midnightblue" stroke="midnightblue" points="302.93,-89.5 312.93,-86 302.93,-82.5 302.93,-89.5"/>
</g>
<!-- Node7 -->
<g id="node7" class="node">
<title>Node7</title>
<g id="a_node7"><a xlink:href="classSystemManager.html#afafb2e37213d40237e75284d5bc6eb9e" target="_top" xlink:title=" ">
<polygon fill="none" stroke="black" points="100,-38.5 100,-57.5 254,-57.5 254,-38.5 100,-38.5"/>
<text text-anchor="middle" x="177" y="-45.5" font-family="Helvetica,sans-Serif" font-size="10.00">SystemManager::setFeature</text>
</a>
</g>
</g>
<!-- Node2&#45;&gt;Node7 -->
<g id="edge8" class="edge">
<title>Node2&#45;&gt;Node7</title>
<path fill="none" stroke="midnightblue" d="M333.07,-74.72C301.35,-69.26 263.66,-62.76 233.38,-57.54"/>
<polygon fill="midnightblue" stroke="midnightblue" points="332.69,-78.21 343.14,-76.46 333.88,-71.31 332.69,-78.21"/>
</g>
<!-- Node8 -->
<g id="node8" class="node">
<title>Node8</title>
<g id="a_node8"><a xlink:href="classSystemManager.html#addb2328a323747f21afb826811f288ab" target="_top" xlink:title=" ">
<polygon fill="none" stroke="black" points="77,-0.5 77,-19.5 277,-19.5 277,-0.5 77,-0.5"/>
<text text-anchor="middle" x="177" y="-7.5" font-family="Helvetica,sans-Serif" font-size="10.00">SystemManager::syncFreeRunStream</text>
</a>
</g>
</g>
<!-- Node2&#45;&gt;Node8 -->
<g id="edge10" class="edge">
<title>Node2&#45;&gt;Node8</title>
<path fill="none" stroke="midnightblue" d="M372.9,-71.69C348.82,-58.79 311.43,-40.19 277,-29 265.35,-25.21 252.67,-22.08 240.39,-19.52"/>
<polygon fill="midnightblue" stroke="midnightblue" points="371.29,-74.8 381.75,-76.49 374.63,-68.64 371.29,-74.8"/>
</g>
<!-- Node4 -->
<g id="node4" class="node">
<title>Node4</title>
<g id="a_node4"><a xlink:href="cli_8cpp.html#a0ddf1224851353fc92bfbff6f499fa97" target="_top" xlink:title=" ">
<polygon fill="none" stroke="black" points="0,-76.5 0,-95.5 41,-95.5 41,-76.5 0,-76.5"/>
<text text-anchor="middle" x="20.5" y="-83.5" font-family="Helvetica,sans-Serif" font-size="10.00">main</text>
</a>
</g>
</g>
<!-- Node3&#45;&gt;Node4 -->
<g id="edge3" class="edge">
<title>Node3&#45;&gt;Node4</title>
<path fill="none" stroke="midnightblue" d="M89.24,-149.17C85.01,-147.3 80.91,-145.25 77,-143 55.94,-130.86 37.61,-108.47 28.2,-95.66"/>
<polygon fill="midnightblue" stroke="midnightblue" points="88.09,-152.48 98.67,-152.98 90.71,-145.99 88.09,-152.48"/>
</g>
<!-- Node5&#45;&gt;Node4 -->
<g id="edge5" class="edge">
<title>Node5&#45;&gt;Node4</title>
<path fill="none" stroke="midnightblue" d="M109.07,-112.48C98.29,-110.24 87.3,-107.74 77,-105 64.89,-101.78 51.61,-97.27 41.07,-93.45"/>
<polygon fill="midnightblue" stroke="midnightblue" points="108.39,-115.91 118.89,-114.45 109.77,-109.05 108.39,-115.91"/>
</g>
<!-- Node6&#45;&gt;Node4 -->
<g id="edge7" class="edge">
<title>Node6&#45;&gt;Node4</title>
<path fill="none" stroke="midnightblue" d="M91.31,-86C72.54,-86 54.36,-86 41.26,-86"/>
<polygon fill="midnightblue" stroke="midnightblue" points="91.47,-89.5 101.47,-86 91.47,-82.5 91.47,-89.5"/>
</g>
<!-- Node7&#45;&gt;Node4 -->
<g id="edge9" class="edge">
<title>Node7&#45;&gt;Node4</title>
<path fill="none" stroke="midnightblue" d="M109.07,-59.52C98.29,-61.76 87.3,-64.26 77,-67 64.89,-70.22 51.61,-74.73 41.07,-78.55"/>
<polygon fill="midnightblue" stroke="midnightblue" points="109.77,-62.95 118.89,-57.55 108.39,-56.09 109.77,-62.95"/>
</g>
<!-- Node8&#45;&gt;Node4 -->
<g id="edge11" class="edge">
<title>Node8&#45;&gt;Node4</title>
<path fill="none" stroke="midnightblue" d="M90.51,-22.86C85.84,-24.65 81.3,-26.68 77,-29 55.6,-40.53 37.39,-63.15 28.1,-76.16"/>
<polygon fill="midnightblue" stroke="midnightblue" points="91.94,-26.07 100.27,-19.51 89.67,-19.44 91.94,-26.07"/>
</g>
</g>
</svg>
