<?xml version="1.0" encoding="UTF-8" standalone="no"?>
<!DOCTYPE svg PUBLIC "-//W3C//DTD SVG 1.1//EN"
 "http://www.w3.org/Graphics/SVG/1.1/DTD/svg11.dtd">
<!-- Generated by graphviz version 2.43.0 (0)
 -->
<!-- Title: main Pages: 1 -->
<!--zoomable 446 -->
<svg id="main" version="1.1" xmlns="http://www.w3.org/2000/svg" xmlns:xlink="http://www.w3.org/1999/xlink" xml:space="preserve" onload="init(evt)">
<style type="text/css"><![CDATA[
.edge:hover path { stroke: red; }
.edge:hover polygon { stroke: red; fill: red; }
]]></style>
<script type="text/javascript"><![CDATA[
var edges = document.getElementsByTagName('g');
if (edges && edges.length) {
  for (var i=0;i<edges.length;i++) {
    if (edges[i].id.substr(0,4)=='edge') {
      edges[i].setAttribute('class','edge');
    }
  }
}
]]></script>
        <defs>
                <circle id="rim" cx="0" cy="0" r="7"/>
                <circle id="rim2" cx="0" cy="0" r="3.5"/>
                <g id="zoomPlus">
                        <use xlink:href="#rim" fill="#404040">
                                <set attributeName="fill" to="#808080" begin="zoomplus.mouseover" end="zoomplus.mouseout"/>
                        </use>
                        <path d="M-4,0h8M0,-4v8" fill="none" stroke="white" stroke-width="1.5" pointer-events="none"/>
                </g>
                <g id="zoomMin">
                        <use xlink:href="#rim" fill="#404040">
                                <set attributeName="fill" to="#808080" begin="zoomminus.mouseover" end="zoomminus.mouseout"/>
                        </use>
                        <path d="M-4,0h8" fill="none" stroke="white" stroke-width="1.5" pointer-events="none"/>
                </g>
                <g id="dirArrow">
                        <path fill="none" stroke="white" stroke-width="1.5" d="M0,-3.0v7 M-2.5,-0.5L0,-3.0L2.5,-0.5"/>
                </g>
               <g id="resetDef">
                       <use xlink:href="#rim2" fill="#404040">
                               <set attributeName="fill" to="#808080" begin="reset.mouseover" end="reset.mouseout"/>
                       </use>
               </g>
        </defs>

<script type="text/javascript">
var viewWidth = 1269;
var viewHeight = 446;
var sectionId = 'dynsection-1';
</script>
<script xlink:href="svgpan.js"/>
<svg id="graph" class="graph">
<g id="viewport">
<title>main</title>
<!-- Node1 -->
<g id="node1" class="node">
<title>Node1</title>
<g id="a_node1"><a xlink:title=" ">
<polygon fill="#bfbfbf" stroke="black" points="0,-147.5 0,-166.5 41,-166.5 41,-147.5 0,-147.5"/>
<text text-anchor="middle" x="20.5" y="-154.5" font-family="Helvetica,sans-Serif" font-size="10.00">main</text>
</a>
</g>
</g>
<!-- Node2 -->
<g id="node2" class="node">
<title>Node2</title>
<g id="a_node2"><a xlink:href="classSystemManager.html#a66e896c8491898746732c76fe733d57d" target="_top" xlink:title=" ">
<polygon fill="none" stroke="black" points="86.5,-142 86.5,-172 267.5,-172 267.5,-142 86.5,-142"/>
<text text-anchor="start" x="94.5" y="-160" font-family="Helvetica,sans-Serif" font-size="10.00">SystemManager::enumerateOpen</text>
<text text-anchor="middle" x="177" y="-149" font-family="Helvetica,sans-Serif" font-size="10.00">Cameras</text>
</a>
</g>
</g>
<!-- Node1&#45;&gt;Node2 -->
<g id="edge1" class="edge">
<title>Node1&#45;&gt;Node2</title>
<path fill="none" stroke="midnightblue" d="M41.07,-157C50.58,-157 62.8,-157 76,-157"/>
<polygon fill="midnightblue" stroke="midnightblue" points="76.25,-160.5 86.25,-157 76.25,-153.5 76.25,-160.5"/>
</g>
<!-- Node8 -->
<g id="node8" class="node">
<title>Node8</title>
<g id="a_node8"><a xlink:href="cli_8cpp.html#ae87714a32069a99bdee647bb2c4a6c65" target="_top" xlink:title=" ">
<polygon fill="none" stroke="black" points="128,-65.5 128,-84.5 226,-84.5 226,-65.5 128,-65.5"/>
<text text-anchor="middle" x="177" y="-72.5" font-family="Helvetica,sans-Serif" font-size="10.00">parseCameraIDs</text>
</a>
</g>
</g>
<!-- Node1&#45;&gt;Node8 -->
<g id="edge7" class="edge">
<title>Node1&#45;&gt;Node8</title>
<path fill="none" stroke="midnightblue" d="M27.25,-147.08C36.04,-132.87 54.22,-107.02 77,-94 89.35,-86.94 103.84,-82.45 117.86,-79.61"/>
<polygon fill="midnightblue" stroke="midnightblue" points="118.72,-83.01 127.95,-77.82 117.49,-76.12 118.72,-83.01"/>
</g>
<!-- Node9 -->
<g id="node9" class="node">
<title>Node9</title>
<g id="a_node9"><a xlink:href="cli_8cpp.html#a99cfd7f582dfad8278b8ebaddcaa9e41" target="_top" xlink:title="Library component of the TU Berlin industrial automation framework.">
<polygon fill="none" stroke="black" points="142,-27.5 142,-46.5 212,-46.5 212,-27.5 142,-27.5"/>
<text text-anchor="middle" x="177" y="-34.5" font-family="Helvetica,sans-Serif" font-size="10.00">printUsage</text>
</a>
</g>
</g>
<!-- Node1&#45;&gt;Node9 -->
<g id="edge8" class="edge">
<title>Node1&#45;&gt;Node9</title>
<path fill="none" stroke="midnightblue" d="M23.82,-147.38C29.28,-126.98 44.97,-79.31 77,-56 92.76,-44.53 113.55,-39.45 132,-37.36"/>
<polygon fill="midnightblue" stroke="midnightblue" points="132.31,-40.85 141.97,-36.49 131.7,-33.87 132.31,-40.85"/>
</g>
<!-- Node10 -->
<g id="node10" class="node">
<title>Node10</title>
<g id="a_node10"><a xlink:href="classSystemManager.html#a051494c0cf33bac6dbd8e4c0eb3ed9ae" target="_top" xlink:title=" ">
<polygon fill="none" stroke="black" points="99.5,-274.5 99.5,-293.5 254.5,-293.5 254.5,-274.5 99.5,-274.5"/>
<text text-anchor="middle" x="177" y="-281.5" font-family="Helvetica,sans-Serif" font-size="10.00">SystemManager::ptpDisable</text>
</a>
</g>
</g>
<!-- Node1&#45;&gt;Node10 -->
<g id="edge9" class="edge">
<title>Node1&#45;&gt;Node10</title>
<path fill="none" stroke="midnightblue" d="M23.8,-166.8C29.23,-187.61 44.85,-236.33 77,-261 81.96,-264.81 87.45,-268 93.21,-270.68"/>
<polygon fill="midnightblue" stroke="midnightblue" points="91.9,-273.92 102.48,-274.47 94.55,-267.44 91.9,-273.92"/>
</g>
<!-- Node13 -->
<g id="node13" class="node">
<title>Node13</title>
<g id="a_node13"><a xlink:href="classSystemManager.html#af801ab01222b0c07d25a8fa780d423e4" target="_top" xlink:title=" ">
<polygon fill="none" stroke="black" points="101.5,-232.5 101.5,-251.5 252.5,-251.5 252.5,-232.5 101.5,-232.5"/>
<text text-anchor="middle" x="177" y="-239.5" font-family="Helvetica,sans-Serif" font-size="10.00">SystemManager::ptpEnable</text>
</a>
</g>
</g>
<!-- Node1&#45;&gt;Node13 -->
<g id="edge13" class="edge">
<title>Node1&#45;&gt;Node13</title>
<path fill="none" stroke="midnightblue" d="M27.3,-166.83C36.15,-180.93 54.41,-206.65 77,-220 83.2,-223.66 89.95,-226.72 96.91,-229.26"/>
<polygon fill="midnightblue" stroke="midnightblue" points="95.91,-232.62 106.5,-232.43 98.1,-225.97 95.91,-232.62"/>
</g>
<!-- Node28 -->
<g id="node28" class="node">
<title>Node28</title>
<g id="a_node28"><a xlink:href="classSystemManager.html#afafb2e37213d40237e75284d5bc6eb9e" target="_top" xlink:title=" ">
<polygon fill="none" stroke="black" points="100,-103.5 100,-122.5 254,-122.5 254,-103.5 100,-103.5"/>
<text text-anchor="middle" x="177" y="-110.5" font-family="Helvetica,sans-Serif" font-size="10.00">SystemManager::setFeature</text>
</a>
</g>
</g>
<!-- Node1&#45;&gt;Node28 -->
<g id="edge31" class="edge">
<title>Node1&#45;&gt;Node28</title>
<path fill="none" stroke="midnightblue" d="M40.9,-147.42C51.39,-142.55 64.68,-136.86 77,-133 87.02,-129.86 97.76,-127.1 108.35,-124.7"/>
<polygon fill="midnightblue" stroke="midnightblue" points="109.39,-128.06 118.42,-122.52 107.91,-121.22 109.39,-128.06"/>
</g>
<!-- Node32 -->
<g id="node32" class="node">
<title>Node32</title>
<g id="a_node32"><a xlink:href="classSystemManager.html#addb2328a323747f21afb826811f288ab" target="_top" xlink:title=" ">
<polygon fill="none" stroke="black" points="77,-191.5 77,-210.5 277,-210.5 277,-191.5 77,-191.5"/>
<text text-anchor="middle" x="177" y="-198.5" font-family="Helvetica,sans-Serif" font-size="10.00">SystemManager::syncFreeRunStream</text>
</a>
</g>
</g>
<!-- Node1&#45;&gt;Node32 -->
<g id="edge36" class="edge">
<title>Node1&#45;&gt;Node32</title>
<path fill="none" stroke="midnightblue" d="M39.83,-166.56C50.44,-171.77 64.2,-177.95 77,-182 85.7,-184.75 94.96,-187.17 104.2,-189.28"/>
<polygon fill="midnightblue" stroke="midnightblue" points="103.67,-192.75 114.18,-191.45 105.15,-185.91 103.67,-192.75"/>
</g>
<!-- Node3 -->
<g id="node3" class="node">
<title>Node3</title>
<g id="a_node3"><a xlink:href="classDeviceManager.html#a36a89dec4c09c02f7269093b346c37b6" target="_top" xlink:title="Creates Camera objects for the specified device IDs.">
<polygon fill="none" stroke="black" points="327.5,-190.5 327.5,-209.5 500.5,-209.5 500.5,-190.5 327.5,-190.5"/>
<text text-anchor="middle" x="414" y="-197.5" font-family="Helvetica,sans-Serif" font-size="10.00">DeviceManager::createCameras</text>
</a>
</g>
</g>
<!-- Node2&#45;&gt;Node3 -->
<g id="edge2" class="edge">
<title>Node2&#45;&gt;Node3</title>
<path fill="none" stroke="midnightblue" d="M260.19,-172.04C290.02,-177.5 323.19,-183.57 350.98,-188.65"/>
<polygon fill="midnightblue" stroke="midnightblue" points="350.49,-192.12 360.96,-190.48 351.75,-185.23 350.49,-192.12"/>
</g>
<!-- Node6 -->
<g id="node6" class="node">
<title>Node6</title>
<g id="a_node6"><a xlink:href="classDeviceManager.html#a46948952d8a01fccc65158dec681858b" target="_top" xlink:title="Lists the currently open cameras.">
<polygon fill="none" stroke="black" points="323,-114.5 323,-133.5 505,-133.5 505,-114.5 323,-114.5"/>
<text text-anchor="middle" x="414" y="-121.5" font-family="Helvetica,sans-Serif" font-size="10.00">DeviceManager::listopenCameras</text>
</a>
</g>
</g>
<!-- Node2&#45;&gt;Node6 -->
<g id="edge5" class="edge">
<title>Node2&#45;&gt;Node6</title>
<path fill="none" stroke="midnightblue" d="M267.51,-144.43C289.8,-141.3 313.51,-137.97 335.17,-134.93"/>
<polygon fill="midnightblue" stroke="midnightblue" points="335.89,-138.36 345.3,-133.51 334.91,-131.43 335.89,-138.36"/>
</g>
<!-- Node4 -->
<g id="node4" class="node">
<title>Node4</title>
<g id="a_node4"><a xlink:href="classDeviceManager.html#a5de621ae914e130ad5a5e977c02272f4" target="_top" xlink:title="Creates a camera by device ID.">
<polygon fill="none" stroke="black" points="568.5,-190.5 568.5,-209.5 736.5,-209.5 736.5,-190.5 568.5,-190.5"/>
<text text-anchor="middle" x="652.5" y="-197.5" font-family="Helvetica,sans-Serif" font-size="10.00">DeviceManager::createCamera</text>
</a>
</g>
</g>
<!-- Node3&#45;&gt;Node4 -->
<g id="edge3" class="edge">
<title>Node3&#45;&gt;Node4</title>
<path fill="none" stroke="midnightblue" d="M500.72,-200C519.43,-200 539.32,-200 558.31,-200"/>
<polygon fill="midnightblue" stroke="midnightblue" points="558.45,-203.5 568.45,-200 558.45,-196.5 558.45,-203.5"/>
</g>
<!-- Node5 -->
<g id="node5" class="node">
<title>Node5</title>
<g id="a_node5"><a xlink:href="classDeviceManager.html#a6374a294f1d0d15f18ab35aea1fb6158" target="_top" xlink:title="Returns a device by its ID.">
<polygon fill="none" stroke="black" points="790,-190.5 790,-209.5 1011,-209.5 1011,-190.5 790,-190.5"/>
<text text-anchor="middle" x="900.5" y="-197.5" font-family="Helvetica,sans-Serif" font-size="10.00">DeviceManager::getAvailableCameraByID</text>
</a>
</g>
</g>
<!-- Node4&#45;&gt;Node5 -->
<g id="edge4" class="edge">
<title>Node4&#45;&gt;Node5</title>
<path fill="none" stroke="midnightblue" d="M736.78,-200C750.6,-200 765.17,-200 779.67,-200"/>
<polygon fill="midnightblue" stroke="midnightblue" points="779.7,-203.5 789.7,-200 779.7,-196.5 779.7,-203.5"/>
</g>
<!-- Node7 -->
<g id="node7" class="node">
<title>Node7</title>
<g id="a_node7"><a xlink:href="classDeviceManager.html#adac223e4ad4bf72dcbcaf4ea2b5504eb" target="_top" xlink:title="Lists a single camera.">
<polygon fill="none" stroke="black" points="576.5,-38.5 576.5,-57.5 728.5,-57.5 728.5,-38.5 576.5,-38.5"/>
<text text-anchor="middle" x="652.5" y="-45.5" font-family="Helvetica,sans-Serif" font-size="10.00">DeviceManager::listCamera</text>
</a>
</g>
</g>
<!-- Node6&#45;&gt;Node7 -->
<g id="edge6" class="edge">
<title>Node6&#45;&gt;Node7</title>
<path fill="none" stroke="midnightblue" d="M492.07,-114.49C500.07,-112.01 507.87,-108.9 515,-105 535.42,-93.84 530.58,-78.15 551,-67 555.92,-64.31 561.15,-62 566.55,-60.01"/>
<polygon fill="midnightblue" stroke="midnightblue" points="568,-63.22 576.41,-56.77 565.81,-56.57 568,-63.22"/>
</g>
<!-- Node10&#45;&gt;Node3 -->
<g id="edge10" class="edge">
<title>Node10&#45;&gt;Node3</title>
<path fill="none" stroke="midnightblue" d="M244.92,-274.46C256.1,-271.2 267.23,-266.84 277,-261 297.81,-248.55 292,-232.13 313,-220 317.7,-217.29 322.7,-214.94 327.87,-212.9"/>
<polygon fill="midnightblue" stroke="midnightblue" points="329.06,-216.2 337.32,-209.57 326.73,-209.59 329.06,-216.2"/>
</g>
<!-- Node11 -->
<g id="node11" class="node">
<title>Node11</title>
<g id="a_node11"><a xlink:href="classNetworkManager.html#a72d16c3ed9d65f8f9ac365fd576d9077" target="_top" xlink:title="Disables PTP synchronization on a list of open cameras.">
<polygon fill="none" stroke="black" points="335,-316.5 335,-335.5 493,-335.5 493,-316.5 335,-316.5"/>
<text text-anchor="middle" x="414" y="-323.5" font-family="Helvetica,sans-Serif" font-size="10.00">NetworkManager::disablePtp</text>
</a>
</g>
</g>
<!-- Node10&#45;&gt;Node11 -->
<g id="edge11" class="edge">
<title>Node10&#45;&gt;Node11</title>
<path fill="none" stroke="midnightblue" d="M231.33,-293.53C266.36,-299.79 312.36,-308.01 349.31,-314.62"/>
<polygon fill="midnightblue" stroke="midnightblue" points="349.02,-318.12 359.48,-316.43 350.25,-311.23 349.02,-318.12"/>
</g>
<!-- Node12 -->
<g id="node12" class="node">
<title>Node12</title>
<g id="a_node12"><a xlink:href="classDeviceManager.html#aa5df5c2756fda96dc9438e1c85071699" target="_top" xlink:title="Returns the list of currently open cameras.">
<polygon fill="none" stroke="black" points="322,-278.5 322,-297.5 506,-297.5 506,-278.5 322,-278.5"/>
<text text-anchor="middle" x="414" y="-285.5" font-family="Helvetica,sans-Serif" font-size="10.00">DeviceManager::getOpenCameras</text>
</a>
</g>
</g>
<!-- Node10&#45;&gt;Node12 -->
<g id="edge12" class="edge">
<title>Node10&#45;&gt;Node12</title>
<path fill="none" stroke="midnightblue" d="M254.62,-285.3C272.79,-285.61 292.44,-285.95 311.52,-286.27"/>
<polygon fill="midnightblue" stroke="midnightblue" points="311.69,-289.78 321.74,-286.45 311.8,-282.78 311.69,-289.78"/>
</g>
<!-- Node13&#45;&gt;Node3 -->
<g id="edge29" class="edge">
<title>Node13&#45;&gt;Node3</title>
<path fill="none" stroke="midnightblue" d="M231.33,-232.47C266.36,-226.21 312.36,-217.99 349.31,-211.38"/>
<polygon fill="midnightblue" stroke="midnightblue" points="350.25,-214.77 359.48,-209.57 349.02,-207.88 350.25,-214.77"/>
</g>
<!-- Node13&#45;&gt;Node12 -->
<g id="edge30" class="edge">
<title>Node13&#45;&gt;Node12</title>
<path fill="none" stroke="midnightblue" d="M225.15,-251.55C251.06,-256.76 283.79,-263.3 313,-269 325.66,-271.47 339.23,-274.07 352.16,-276.54"/>
<polygon fill="midnightblue" stroke="midnightblue" points="351.89,-280.05 362.37,-278.48 353.2,-273.17 351.89,-280.05"/>
</g>
<!-- Node14 -->
<g id="node14" class="node">
<title>Node14</title>
<g id="a_node14"><a xlink:href="classNetworkManager.html#a5131787ff8e8985e848e8456c1e6b202" target="_top" xlink:title="Configures cameras for PTP&#45;synchronized free&#45;run streaming.">
<polygon fill="none" stroke="black" points="330.5,-229 330.5,-259 497.5,-259 497.5,-229 330.5,-229"/>
<text text-anchor="start" x="338.5" y="-247" font-family="Helvetica,sans-Serif" font-size="10.00">NetworkManager::configurePtp</text>
<text text-anchor="middle" x="414" y="-236" font-family="Helvetica,sans-Serif" font-size="10.00">SyncFreeRun</text>
</a>
</g>
</g>
<!-- Node13&#45;&gt;Node14 -->
<g id="edge14" class="edge">
<title>Node13&#45;&gt;Node14</title>
<path fill="none" stroke="midnightblue" d="M252.68,-242.64C274.12,-242.82 297.77,-243.02 320.17,-243.21"/>
<polygon fill="midnightblue" stroke="midnightblue" points="320.33,-246.71 330.36,-243.3 320.39,-239.71 320.33,-246.71"/>
</g>
<!-- Node15 -->
<g id="node15" class="node">
<title>Node15</title>
<g id="a_node15"><a xlink:href="classNetworkManager.html#a22ca4e3eadd1f887bb5f90f98570709f" target="_top" xlink:title="Configures network bandwidth settings.">
<polygon fill="none" stroke="black" points="551,-380.5 551,-399.5 754,-399.5 754,-380.5 551,-380.5"/>
<text text-anchor="middle" x="652.5" y="-387.5" font-family="Helvetica,sans-Serif" font-size="10.00">NetworkManager::configureBandwidth</text>
</a>
</g>
</g>
<!-- Node14&#45;&gt;Node15 -->
<g id="edge15" class="edge">
<title>Node14&#45;&gt;Node15</title>
<path fill="none" stroke="midnightblue" d="M497.62,-257.31C503.93,-260.46 509.84,-264.3 515,-269 550.56,-301.35 514.52,-339.69 551,-371 552.75,-372.5 554.58,-373.9 556.49,-375.21"/>
<polygon fill="midnightblue" stroke="midnightblue" points="554.82,-378.29 565.22,-380.32 558.36,-372.25 554.82,-378.29"/>
</g>
<!-- Node21 -->
<g id="node21" class="node">
<title>Node21</title>
<g id="a_node21"><a xlink:href="classNetworkManager.html#a97139087ce2feb24bce02b5e26ef1cf5" target="_top" xlink:title="Enables PTP (Precision Time Protocol) synchronization on a list of open cameras.">
<polygon fill="none" stroke="black" points="575,-342.5 575,-361.5 730,-361.5 730,-342.5 575,-342.5"/>
<text text-anchor="middle" x="652.5" y="-349.5" font-family="Helvetica,sans-Serif" font-size="10.00">NetworkManager::enablePtp</text>
</a>
</g>
</g>
<!-- Node14&#45;&gt;Node21 -->
<g id="edge21" class="edge">
<title>Node14&#45;&gt;Node21</title>
<path fill="none" stroke="midnightblue" d="M497.78,-258.77C503.9,-261.61 509.74,-264.98 515,-269 540.95,-288.79 524.49,-313.97 551,-333 555.46,-336.2 560.31,-338.91 565.4,-341.19"/>
<polygon fill="midnightblue" stroke="midnightblue" points="564.17,-344.47 574.76,-344.86 566.72,-337.95 564.17,-344.47"/>
</g>
<!-- Node22 -->
<g id="node22" class="node">
<title>Node22</title>
<g id="a_node22"><a xlink:href="classNetworkManager.html#a580689530037e60c278f61c2d541e86c" target="_top" xlink:title="Monitors and logs PTP offsets over time.">
<polygon fill="none" stroke="black" points="557.5,-304.5 557.5,-323.5 747.5,-323.5 747.5,-304.5 557.5,-304.5"/>
<text text-anchor="middle" x="652.5" y="-311.5" font-family="Helvetica,sans-Serif" font-size="10.00">NetworkManager::monitorPtpOffset</text>
</a>
</g>
</g>
<!-- Node14&#45;&gt;Node22 -->
<g id="edge22" class="edge">
<title>Node14&#45;&gt;Node22</title>
<path fill="none" stroke="midnightblue" d="M485.74,-259.02C495.71,-261.9 505.72,-265.22 515,-269 532.16,-275.98 533.81,-283.11 551,-290 562.89,-294.77 575.97,-298.74 588.64,-301.99"/>
<polygon fill="midnightblue" stroke="midnightblue" points="588.15,-305.48 598.69,-304.45 589.81,-298.68 588.15,-305.48"/>
</g>
<!-- Node26 -->
<g id="node26" class="node">
<title>Node26</title>
<g id="a_node26"><a xlink:href="classNetworkManager.html#a5cff683bdb24c9f3359fc259e73cc036" target="_top" xlink:title="Monitors the PTP synchronization status of open cameras.">
<polygon fill="none" stroke="black" points="557,-228.5 557,-247.5 748,-247.5 748,-228.5 557,-228.5"/>
<text text-anchor="middle" x="652.5" y="-235.5" font-family="Helvetica,sans-Serif" font-size="10.00">NetworkManager::monitorPtpStatus</text>
</a>
</g>
</g>
<!-- Node14&#45;&gt;Node26 -->
<g id="edge26" class="edge">
<title>Node14&#45;&gt;Node26</title>
<path fill="none" stroke="midnightblue" d="M497.72,-241.9C513.49,-241.5 530.19,-241.08 546.55,-240.66"/>
<polygon fill="midnightblue" stroke="midnightblue" points="546.78,-244.16 556.69,-240.41 546.6,-237.16 546.78,-244.16"/>
</g>
<!-- Node27 -->
<g id="node27" class="node">
<title>Node27</title>
<g id="a_node27"><a xlink:href="classNetworkManager.html#ae34ac9fc3697d706c4938c61f44ecd59" target="_top" xlink:title="Plots the offset trends over time for PTP synchronization analysis.">
<polygon fill="none" stroke="black" points="820.5,-266.5 820.5,-285.5 980.5,-285.5 980.5,-266.5 820.5,-266.5"/>
<text text-anchor="middle" x="900.5" y="-273.5" font-family="Helvetica,sans-Serif" font-size="10.00">NetworkManager::plotOffsets</text>
</a>
</g>
</g>
<!-- Node14&#45;&gt;Node27 -->
<g id="edge27" class="edge">
<title>Node14&#45;&gt;Node27</title>
<path fill="none" stroke="midnightblue" d="M497.66,-252.45C515.26,-254.09 533.73,-255.7 551,-257 638.97,-263.6 739.6,-268.84 810.03,-272.13"/>
<polygon fill="midnightblue" stroke="midnightblue" points="810.05,-275.63 820.2,-272.6 810.37,-268.64 810.05,-275.63"/>
</g>
<!-- Node16 -->
<g id="node16" class="node">
<title>Node16</title>
<g id="a_node16"><a xlink:href="classNetworkManager.html#acd8737d274da2f02b0e1635b4b9f63bb" target="_top" xlink:title="Calculates the theoretical maximum frames per second (FPS) based on packet delay.">
<polygon fill="none" stroke="black" points="806,-418.5 806,-437.5 995,-437.5 995,-418.5 806,-418.5"/>
<text text-anchor="middle" x="900.5" y="-425.5" font-family="Helvetica,sans-Serif" font-size="10.00">NetworkManager::calculateMaxFps</text>
</a>
</g>
</g>
<!-- Node15&#45;&gt;Node16 -->
<g id="edge16" class="edge">
<title>Node15&#45;&gt;Node16</title>
<path fill="none" stroke="midnightblue" d="M715.26,-399.54C749.33,-404.8 791.81,-411.37 827.39,-416.86"/>
<polygon fill="midnightblue" stroke="midnightblue" points="827.3,-420.39 837.72,-418.46 828.37,-413.47 827.3,-420.39"/>
</g>
<!-- Node18 -->
<g id="node18" class="node">
<title>Node18</title>
<g id="a_node18"><a xlink:href="classNetworkManager.html#a88d3b203ca5c2d28212c5da9f8cdde7d" target="_top" xlink:title="Sets the exposure and frame rate of the cameras based on bandwidth and exposure constraints.">
<polygon fill="none" stroke="black" points="799,-380.5 799,-399.5 1002,-399.5 1002,-380.5 799,-380.5"/>
<text text-anchor="middle" x="900.5" y="-387.5" font-family="Helvetica,sans-Serif" font-size="10.00">NetworkManager::setExposureAndFps</text>
</a>
</g>
</g>
<!-- Node15&#45;&gt;Node18 -->
<g id="edge18" class="edge">
<title>Node15&#45;&gt;Node18</title>
<path fill="none" stroke="midnightblue" d="M754.27,-390C765.66,-390 777.31,-390 788.82,-390"/>
<polygon fill="midnightblue" stroke="midnightblue" points="788.89,-393.5 798.89,-390 788.89,-386.5 788.89,-393.5"/>
</g>
<!-- Node17 -->
<g id="node17" class="node">
<title>Node17</title>
<g id="a_node17"><a xlink:href="GlobalSettings_8cpp.html#a4e4d4e3815c368773a4dfcfc9d19666c" target="_top" xlink:title="Sets the global FPS upper bound.">
<polygon fill="none" stroke="black" points="1084,-418.5 1084,-437.5 1224,-437.5 1224,-418.5 1084,-418.5"/>
<text text-anchor="middle" x="1154" y="-425.5" font-family="Helvetica,sans-Serif" font-size="10.00">setGlobalFpsUpperBound</text>
</a>
</g>
</g>
<!-- Node16&#45;&gt;Node17 -->
<g id="edge17" class="edge">
<title>Node16&#45;&gt;Node17</title>
<path fill="none" stroke="midnightblue" d="M995.15,-428C1020.93,-428 1048.63,-428 1073.53,-428"/>
<polygon fill="midnightblue" stroke="midnightblue" points="1073.64,-431.5 1083.64,-428 1073.64,-424.5 1073.64,-431.5"/>
</g>
<!-- Node19 -->
<g id="node19" class="node">
<title>Node19</title>
<g id="a_node19"><a xlink:href="GlobalSettings_8cpp.html#ae20198dd587799aa9d5579c3597f7fb4" target="_top" xlink:title="Gets the global FPS upper bound.">
<polygon fill="none" stroke="black" points="1083.5,-380.5 1083.5,-399.5 1224.5,-399.5 1224.5,-380.5 1083.5,-380.5"/>
<text text-anchor="middle" x="1154" y="-387.5" font-family="Helvetica,sans-Serif" font-size="10.00">getGlobalFpsUpperBound</text>
</a>
</g>
</g>
<!-- Node18&#45;&gt;Node19 -->
<g id="edge19" class="edge">
<title>Node18&#45;&gt;Node19</title>
<path fill="none" stroke="midnightblue" d="M1002.35,-390C1025.93,-390 1050.73,-390 1073.25,-390"/>
<polygon fill="midnightblue" stroke="midnightblue" points="1073.42,-393.5 1083.42,-390 1073.42,-386.5 1073.42,-393.5"/>
</g>
<!-- Node20 -->
<g id="node20" class="node">
<title>Node20</title>
<g id="a_node20"><a xlink:href="classNetworkManager.html#a2894fa4186d5341d1ceea4930cd1f448" target="_top" xlink:title="Retrieves the real minimum exposure time set on the cameras.">
<polygon fill="none" stroke="black" points="1047,-342.5 1047,-361.5 1261,-361.5 1261,-342.5 1047,-342.5"/>
<text text-anchor="middle" x="1154" y="-349.5" font-family="Helvetica,sans-Serif" font-size="10.00">NetworkManager::getMinimumExposure</text>
</a>
</g>
</g>
<!-- Node18&#45;&gt;Node20 -->
<g id="edge20" class="edge">
<title>Node18&#45;&gt;Node20</title>
<path fill="none" stroke="midnightblue" d="M964.64,-380.46C999.62,-375.17 1043.28,-368.58 1079.75,-363.07"/>
<polygon fill="midnightblue" stroke="midnightblue" points="1080.47,-366.5 1089.83,-361.54 1079.42,-359.58 1080.47,-366.5"/>
</g>
<!-- Node23 -->
<g id="node23" class="node">
<title>Node23</title>
<g id="a_node23"><a xlink:href="classNetworkManager.html#ae856b2f8ac57cb540414667eccc6832a" target="_top" xlink:title="Logs the history of PTP offsets to a CSV file.">
<polygon fill="none" stroke="black" points="792.5,-342.5 792.5,-361.5 1008.5,-361.5 1008.5,-342.5 792.5,-342.5"/>
<text text-anchor="middle" x="900.5" y="-349.5" font-family="Helvetica,sans-Serif" font-size="10.00">NetworkManager::logOffsetHistoryToCSV</text>
</a>
</g>
</g>
<!-- Node22&#45;&gt;Node23 -->
<g id="edge23" class="edge">
<title>Node22&#45;&gt;Node23</title>
<path fill="none" stroke="midnightblue" d="M715.26,-323.54C749.33,-328.8 791.81,-335.37 827.39,-340.86"/>
<polygon fill="midnightblue" stroke="midnightblue" points="827.3,-344.39 837.72,-342.46 828.37,-337.47 827.3,-344.39"/>
</g>
<!-- Node25 -->
<g id="node25" class="node">
<title>Node25</title>
<g id="a_node25"><a xlink:href="classNetworkManager.html#a8f23d31231702bcd91a3cf101a8394e6" target="_top" xlink:title="Prints the PTP configuration details of a camera.">
<polygon fill="none" stroke="black" points="812.5,-304.5 812.5,-323.5 988.5,-323.5 988.5,-304.5 812.5,-304.5"/>
<text text-anchor="middle" x="900.5" y="-311.5" font-family="Helvetica,sans-Serif" font-size="10.00">NetworkManager::printPtpConfig</text>
</a>
</g>
</g>
<!-- Node22&#45;&gt;Node25 -->
<g id="edge25" class="edge">
<title>Node22&#45;&gt;Node25</title>
<path fill="none" stroke="midnightblue" d="M747.56,-314C765.44,-314 784.19,-314 802.17,-314"/>
<polygon fill="midnightblue" stroke="midnightblue" points="802.37,-317.5 812.37,-314 802.37,-310.5 802.37,-317.5"/>
</g>
<!-- Node24 -->
<g id="node24" class="node">
<title>Node24</title>
<g id="a_node24"><a xlink:href="GlobalSettings_8hpp.html#a292086bff16224cc0653061c22440e60" target="_top" xlink:title="Returns the session timestamp as a string.">
<polygon fill="none" stroke="black" points="1091.5,-285.5 1091.5,-304.5 1216.5,-304.5 1216.5,-285.5 1091.5,-285.5"/>
<text text-anchor="middle" x="1154" y="-292.5" font-family="Helvetica,sans-Serif" font-size="10.00">getSessionTimestamp</text>
</a>
</g>
</g>
<!-- Node23&#45;&gt;Node24 -->
<g id="edge24" class="edge">
<title>Node23&#45;&gt;Node24</title>
<path fill="none" stroke="midnightblue" d="M962.22,-342.46C978.15,-339.69 995.27,-336.46 1011,-333 1044.85,-325.55 1082.75,-315.31 1110.88,-307.33"/>
<polygon fill="midnightblue" stroke="midnightblue" points="1112.12,-310.62 1120.77,-304.51 1110.2,-303.89 1112.12,-310.62"/>
</g>
<!-- Node27&#45;&gt;Node24 -->
<g id="edge28" class="edge">
<title>Node27&#45;&gt;Node24</title>
<path fill="none" stroke="midnightblue" d="M980.73,-281.99C1012.95,-284.42 1049.92,-287.21 1081.32,-289.58"/>
<polygon fill="midnightblue" stroke="midnightblue" points="1081.07,-293.08 1091.31,-290.34 1081.6,-286.1 1081.07,-293.08"/>
</g>
<!-- Node28&#45;&gt;Node3 -->
<g id="edge32" class="edge">
<title>Node28&#45;&gt;Node3</title>
<path fill="none" stroke="midnightblue" d="M254.03,-122.34C262.12,-125.07 269.96,-128.55 277,-133 299.55,-147.24 290.37,-166.89 313,-181 316.36,-183.1 319.9,-184.97 323.56,-186.65"/>
<polygon fill="midnightblue" stroke="midnightblue" points="322.3,-189.91 332.88,-190.42 324.93,-183.42 322.3,-189.91"/>
</g>
<!-- Node29 -->
<g id="node29" class="node">
<title>Node29</title>
<g id="a_node29"><a xlink:href="classDeviceManager.html#a6e25f6e110c117449b53e10ca0c65192" target="_top" xlink:title="Returns an open camera by its ID.">
<polygon fill="none" stroke="black" points="313,-76.5 313,-95.5 515,-95.5 515,-76.5 313,-76.5"/>
<text text-anchor="middle" x="414" y="-83.5" font-family="Helvetica,sans-Serif" font-size="10.00">DeviceManager::getOpenCameraByID</text>
</a>
</g>
</g>
<!-- Node28&#45;&gt;Node29 -->
<g id="edge33" class="edge">
<title>Node28&#45;&gt;Node29</title>
<path fill="none" stroke="midnightblue" d="M254.3,-104.23C275.33,-101.82 298.39,-99.17 320.24,-96.66"/>
<polygon fill="midnightblue" stroke="midnightblue" points="320.66,-100.13 330.19,-95.51 319.86,-93.18 320.66,-100.13"/>
</g>
<!-- Node30 -->
<g id="node30" class="node">
<title>Node30</title>
<g id="a_node30"><a xlink:href="classDeviceManager.html#a48de9e5e15c8d95c2d3cc4ef739b0f4c" target="_top" xlink:title="Sets the exposure time for all open cameras.">
<polygon fill="none" stroke="black" points="315.5,-38.5 315.5,-57.5 512.5,-57.5 512.5,-38.5 315.5,-38.5"/>
<text text-anchor="middle" x="414" y="-45.5" font-family="Helvetica,sans-Serif" font-size="10.00">DeviceManager::setExposureTimeAll</text>
</a>
</g>
</g>
<!-- Node28&#45;&gt;Node30 -->
<g id="edge34" class="edge">
<title>Node28&#45;&gt;Node30</title>
<path fill="none" stroke="midnightblue" d="M248.98,-103.46C258.61,-100.99 268.2,-97.89 277,-94 295.29,-85.91 294.7,-75.08 313,-67 318.78,-64.45 324.9,-62.24 331.15,-60.32"/>
<polygon fill="midnightblue" stroke="midnightblue" points="332.36,-63.62 341.04,-57.56 330.47,-56.88 332.36,-63.62"/>
</g>
<!-- Node31 -->
<g id="node31" class="node">
<title>Node31</title>
<g id="a_node31"><a xlink:href="classDeviceManager.html#a546e00328c31f53a9e94a583908ffe7d" target="_top" xlink:title="Sets the pixel format for all open cameras.">
<polygon fill="none" stroke="black" points="321.5,-0.5 321.5,-19.5 506.5,-19.5 506.5,-0.5 321.5,-0.5"/>
<text text-anchor="middle" x="414" y="-7.5" font-family="Helvetica,sans-Serif" font-size="10.00">DeviceManager::setPixelFormatAll</text>
</a>
</g>
</g>
<!-- Node28&#45;&gt;Node31 -->
<g id="edge35" class="edge">
<title>Node28&#45;&gt;Node31</title>
<path fill="none" stroke="midnightblue" d="M254.14,-105.61C262.31,-102.76 270.13,-98.98 277,-94 303.74,-74.62 286.25,-48.36 313,-29 315.57,-27.14 318.26,-25.45 321.06,-23.92"/>
<polygon fill="midnightblue" stroke="midnightblue" points="322.78,-26.98 330.29,-19.51 319.76,-20.66 322.78,-26.98"/>
</g>
<!-- Node32&#45;&gt;Node3 -->
<g id="edge38" class="edge">
<title>Node32&#45;&gt;Node3</title>
<path fill="none" stroke="midnightblue" d="M277.32,-200.58C290.6,-200.52 304.19,-200.46 317.4,-200.41"/>
<polygon fill="midnightblue" stroke="midnightblue" points="317.43,-203.91 327.42,-200.36 317.4,-196.91 317.43,-203.91"/>
</g>
<!-- Node32&#45;&gt;Node12 -->
<g id="edge39" class="edge">
<title>Node32&#45;&gt;Node12</title>
<path fill="none" stroke="midnightblue" d="M249.07,-210.51C258.9,-213.59 268.51,-217.65 277,-223 298.96,-236.85 290.83,-255.49 313,-269 316.47,-271.11 320.12,-273 323.89,-274.68"/>
<polygon fill="midnightblue" stroke="midnightblue" points="322.89,-278.05 333.48,-278.46 325.46,-271.54 322.89,-278.05"/>
</g>
<!-- Node32&#45;&gt;Node14 -->
<g id="edge37" class="edge">
<title>Node32&#45;&gt;Node14</title>
<path fill="none" stroke="midnightblue" d="M230.15,-210.54C256.88,-215.43 290.21,-221.53 321.07,-227.18"/>
<polygon fill="midnightblue" stroke="midnightblue" points="320.52,-230.64 330.99,-228.99 321.78,-223.75 320.52,-230.64"/>
</g>
<!-- Node33 -->
<g id="node33" class="node">
<title>Node33</title>
<g id="a_node33"><a xlink:href="classStreamManager.html#a87567b0edf6975bd31e8176b7fe5cbce" target="_top" xlink:title="Starts synchronized streaming from multiple cameras using PTP synchronization.">
<polygon fill="none" stroke="black" points="313,-152.5 313,-171.5 515,-171.5 515,-152.5 313,-152.5"/>
<text text-anchor="middle" x="414" y="-159.5" font-family="Helvetica,sans-Serif" font-size="10.00">StreamManager::startPtpSyncFreeRun</text>
</a>
</g>
</g>
<!-- Node32&#45;&gt;Node33 -->
<g id="edge40" class="edge">
<title>Node32&#45;&gt;Node33</title>
<path fill="none" stroke="midnightblue" d="M235.49,-191.46C268.76,-185.94 310.8,-178.96 345.62,-173.18"/>
<polygon fill="midnightblue" stroke="midnightblue" points="346.41,-176.6 355.7,-171.51 345.26,-169.69 346.41,-176.6"/>
</g>
<!-- Node34 -->
<g id="node34" class="node">
<title>Node34</title>
<g id="a_node34"><a xlink:href="classStreamManager.html#a9f70fad5bf4dd5108911c05af8f649e3" target="_top" xlink:title="Creates a composite display grid from multiple camera frames.">
<polygon fill="none" stroke="black" points="560.5,-76.5 560.5,-95.5 744.5,-95.5 744.5,-76.5 560.5,-76.5"/>
<text text-anchor="middle" x="652.5" y="-83.5" font-family="Helvetica,sans-Serif" font-size="10.00">StreamManager::createComposite</text>
</a>
</g>
</g>
<!-- Node33&#45;&gt;Node34 -->
<g id="edge41" class="edge">
<title>Node33&#45;&gt;Node34</title>
<path fill="none" stroke="midnightblue" d="M492.07,-152.49C500.07,-150.01 507.87,-146.9 515,-143 535.42,-131.84 530.58,-116.15 551,-105 555.21,-102.7 559.65,-100.68 564.23,-98.89"/>
<polygon fill="midnightblue" stroke="midnightblue" points="565.49,-102.16 573.78,-95.56 563.19,-95.55 565.49,-102.16"/>
</g>
<!-- Node35 -->
<g id="node35" class="node">
<title>Node35</title>
<g id="a_node35"><a xlink:href="classStreamManager.html#a0257fcf9f99184dee55ffe95ab5a9c4c" target="_top" xlink:title="Launches a camera streaming thread in free&#45;run mode.">
<polygon fill="none" stroke="black" points="553.5,-152.5 553.5,-171.5 751.5,-171.5 751.5,-152.5 553.5,-152.5"/>
<text text-anchor="middle" x="652.5" y="-159.5" font-family="Helvetica,sans-Serif" font-size="10.00">StreamManager::startFreeRunStream</text>
</a>
</g>
</g>
<!-- Node33&#45;&gt;Node35 -->
<g id="edge42" class="edge">
<title>Node33&#45;&gt;Node35</title>
<path fill="none" stroke="midnightblue" d="M515.3,-162C524.54,-162 533.94,-162 543.25,-162"/>
<polygon fill="midnightblue" stroke="midnightblue" points="543.31,-165.5 553.31,-162 543.31,-158.5 543.31,-165.5"/>
</g>
<!-- Node36 -->
<g id="node36" class="node">
<title>Node36</title>
<g id="a_node36"><a xlink:href="classStreamManager.html#abfb94b1e01cc9952b575a78995532e30" target="_top" xlink:title="Stops all streaming threads and cleans up resources.">
<polygon fill="none" stroke="black" points="566.5,-114.5 566.5,-133.5 738.5,-133.5 738.5,-114.5 566.5,-114.5"/>
<text text-anchor="middle" x="652.5" y="-121.5" font-family="Helvetica,sans-Serif" font-size="10.00">StreamManager::stopStreaming</text>
</a>
</g>
</g>
<!-- Node33&#45;&gt;Node36 -->
<g id="edge43" class="edge">
<title>Node33&#45;&gt;Node36</title>
<path fill="none" stroke="midnightblue" d="M474.37,-152.46C507.13,-147.2 547.97,-140.63 582.18,-135.14"/>
<polygon fill="midnightblue" stroke="midnightblue" points="582.78,-138.59 592.1,-133.54 581.67,-131.67 582.78,-138.59"/>
</g>
</g>
</svg>
        <g id="navigator" transform="translate(0 0)" fill="#404254">
                <rect fill="#f2f5e9" fill-opacity="0.5" stroke="#606060" stroke-width=".5" x="0" y="0" width="60" height="60"/>
                <use id="zoomplus" xlink:href="#zoomPlus" x="17" y="9" onmousedown="handleZoom(evt,'in')"/>
                <use id="zoomminus" xlink:href="#zoomMin" x="42" y="9" onmousedown="handleZoom(evt,'out')"/>
                <use id="reset" xlink:href="#resetDef" x="30" y="36" onmousedown="handleReset()"/>
                <g id="arrowUp" xlink:href="#dirArrow" transform="translate(30 24)" onmousedown="handlePan(0,-1)">
                  <use xlink:href="#rim" fill="#404040">
                        <set attributeName="fill" to="#808080" begin="arrowUp.mouseover" end="arrowUp.mouseout"/>
                  </use>
                  <path fill="none" stroke="white" stroke-width="1.5" d="M0,-3.0v7 M-2.5,-0.5L0,-3.0L2.5,-0.5"/>
                </g>
                <g id="arrowRight" xlink:href="#dirArrow" transform="rotate(90) translate(36 -43)" onmousedown="handlePan(1,0)">
                  <use xlink:href="#rim" fill="#404040">
                        <set attributeName="fill" to="#808080" begin="arrowRight.mouseover" end="arrowRight.mouseout"/>
                  </use>
                  <path fill="none" stroke="white" stroke-width="1.5" d="M0,-3.0v7 M-2.5,-0.5L0,-3.0L2.5,-0.5"/>
                </g>
                <g id="arrowDown" xlink:href="#dirArrow" transform="rotate(180) translate(-30 -48)" onmousedown="handlePan(0,1)">
                  <use xlink:href="#rim" fill="#404040">
                        <set attributeName="fill" to="#808080" begin="arrowDown.mouseover" end="arrowDown.mouseout"/>
                  </use>
                  <path fill="none" stroke="white" stroke-width="1.5" d="M0,-3.0v7 M-2.5,-0.5L0,-3.0L2.5,-0.5"/>
                </g>
                <g id="arrowLeft" xlink:href="#dirArrow" transform="rotate(270) translate(-36 17)" onmousedown="handlePan(-1,0)">
                  <use xlink:href="#rim" fill="#404040">
                        <set attributeName="fill" to="#808080" begin="arrowLeft.mouseover" end="arrowLeft.mouseout"/>
                  </use>
                  <path fill="none" stroke="white" stroke-width="1.5" d="M0,-3.0v7 M-2.5,-0.5L0,-3.0L2.5,-0.5"/>
                </g>
        </g>
        <svg viewBox="0 0 15 15" width="100%" height="30px" preserveAspectRatio="xMaxYMin meet">
         <g id="arrow_out" transform="scale(0.3 0.3)">
          <a xlink:href="cli_8cpp_a0ddf1224851353fc92bfbff6f499fa97_cgraph_org.svg" target="_base">
           <rect id="button" ry="5" rx="5" y="6" x="6" height="38" width="38"
                fill="#f2f5e9" fill-opacity="0.5" stroke="#606060" stroke-width="1.0"/>
           <path id="arrow"
             d="M 11.500037,31.436501 C 11.940474,20.09759 22.043105,11.32322 32.158766,21.979434 L 37.068811,17.246167 C 37.068811,17.246167 37.088388,32 37.088388,32 L 22.160133,31.978069 C 22.160133,31.978069 26.997745,27.140456 26.997745,27.140456 C 18.528582,18.264221 13.291696,25.230495 11.500037,31.436501 z"
             style="fill:#404040;"/>
          </a>
         </g>
        </svg>
</svg>
