<?xml version="1.0" encoding="UTF-8" standalone="no"?>
<!DOCTYPE svg PUBLIC "-//W3C//DTD SVG 1.1//EN"
 "http://www.w3.org/Graphics/SVG/1.1/DTD/svg11.dtd">
<!-- Generated by graphviz version 2.43.0 (0)
 -->
<!-- Title: src/cli.cpp Pages: 1 -->
<!--zoomable 252 -->
<svg id="main" version="1.1" xmlns="http://www.w3.org/2000/svg" xmlns:xlink="http://www.w3.org/1999/xlink" xml:space="preserve" onload="init(evt)">
<style type="text/css"><![CDATA[
.edge:hover path { stroke: red; }
.edge:hover polygon { stroke: red; fill: red; }
]]></style>
<script type="text/javascript"><![CDATA[
var edges = document.getElementsByTagName('g');
if (edges && edges.length) {
  for (var i=0;i<edges.length;i++) {
    if (edges[i].id.substr(0,4)=='edge') {
      edges[i].setAttribute('class','edge');
    }
  }
}
]]></script>
        <defs>
                <circle id="rim" cx="0" cy="0" r="7"/>
                <circle id="rim2" cx="0" cy="0" r="3.5"/>
                <g id="zoomPlus">
                        <use xlink:href="#rim" fill="#404040">
                                <set attributeName="fill" to="#808080" begin="zoomplus.mouseover" end="zoomplus.mouseout"/>
                        </use>
                        <path d="M-4,0h8M0,-4v8" fill="none" stroke="white" stroke-width="1.5" pointer-events="none"/>
                </g>
                <g id="zoomMin">
                        <use xlink:href="#rim" fill="#404040">
                                <set attributeName="fill" to="#808080" begin="zoomminus.mouseover" end="zoomminus.mouseout"/>
                        </use>
                        <path d="M-4,0h8" fill="none" stroke="white" stroke-width="1.5" pointer-events="none"/>
                </g>
                <g id="dirArrow">
                        <path fill="none" stroke="white" stroke-width="1.5" d="M0,-3.0v7 M-2.5,-0.5L0,-3.0L2.5,-0.5"/>
                </g>
               <g id="resetDef">
                       <use xlink:href="#rim2" fill="#404040">
                               <set attributeName="fill" to="#808080" begin="reset.mouseover" end="reset.mouseout"/>
                       </use>
               </g>
        </defs>

<script type="text/javascript">
var viewWidth = 2400;
var viewHeight = 252;
var sectionId = 'dynsection-0';
</script>
<script xlink:href="svgpan.js"/>
<svg id="graph" class="graph">
<g id="viewport">
<title>src/cli.cpp</title>
<!-- Node1 -->
<g id="node1" class="node">
<title>Node1</title>
<g id="a_node1"><a xlink:title=" ">
<polygon fill="#bfbfbf" stroke="black" points="1966.89,-224.5 1966.89,-243.5 2031.89,-243.5 2031.89,-224.5 1966.89,-224.5"/>
<text text-anchor="middle" x="1999.39" y="-231.5" font-family="Helvetica,sans-Serif" font-size="10.00">src/cli.cpp</text>
</a>
</g>
</g>
<!-- Node2 -->
<g id="node2" class="node">
<title>Node2</title>
<g id="a_node2"><a xlink:href="SystemManager_8hpp.html" target="_top" xlink:title=" ">
<polygon fill="none" stroke="black" points="548.39,-168.5 548.39,-187.5 664.39,-187.5 664.39,-168.5 548.39,-168.5"/>
<text text-anchor="middle" x="606.39" y="-175.5" font-family="Helvetica,sans-Serif" font-size="10.00">SystemManager.hpp</text>
</a>
</g>
</g>
<!-- Node1&#45;&gt;Node2 -->
<g id="edge1" class="edge">
<title>Node1&#45;&gt;Node2</title>
<path fill="none" stroke="midnightblue" d="M1966.67,-231.73C1787.62,-224.79 925.37,-191.37 674.81,-181.65"/>
<polygon fill="midnightblue" stroke="midnightblue" points="674.88,-178.15 664.75,-181.26 674.6,-185.15 674.88,-178.15"/>
</g>
<!-- Node8 -->
<g id="node8" class="node">
<title>Node8</title>
<g id="a_node8"><a xlink:title=" ">
<polygon fill="none" stroke="#bfbfbf" points="1514.89,-0.5 1514.89,-19.5 1651.89,-19.5 1651.89,-0.5 1514.89,-0.5"/>
<text text-anchor="middle" x="1583.39" y="-7.5" font-family="Helvetica,sans-Serif" font-size="10.00">rc_genicam_api/device.h</text>
</a>
</g>
</g>
<!-- Node1&#45;&gt;Node8 -->
<g id="edge60" class="edge">
<title>Node1&#45;&gt;Node8</title>
<path fill="none" stroke="midnightblue" d="M2031.93,-229.36C2077.6,-223.49 2157.09,-210.31 2174.39,-188 2210.34,-141.64 2214.27,-99.03 2174.39,-56 2140.29,-19.2 1815.17,-12.35 1662.22,-11.18"/>
<polygon fill="midnightblue" stroke="midnightblue" points="1661.98,-7.68 1651.95,-11.11 1661.93,-14.68 1661.98,-7.68"/>
</g>
<!-- Node15 -->
<g id="node15" class="node">
<title>Node15</title>
<g id="a_node15"><a xlink:title=" ">
<polygon fill="none" stroke="#bfbfbf" points="976.89,-0.5 976.89,-19.5 1023.89,-19.5 1023.89,-0.5 976.89,-0.5"/>
<text text-anchor="middle" x="1000.39" y="-7.5" font-family="Helvetica,sans-Serif" font-size="10.00">vector</text>
</a>
</g>
</g>
<!-- Node1&#45;&gt;Node15 -->
<g id="edge64" class="edge">
<title>Node1&#45;&gt;Node15</title>
<path fill="none" stroke="midnightblue" d="M1966.74,-230.06C1907.73,-224.39 1779.59,-210.5 1673.39,-188 1497.39,-150.72 1451.31,-143.14 1284.39,-76 1266.69,-68.88 1264.47,-62.11 1246.39,-56 1158.46,-26.28 1129.1,-39.68 1034.14,-19.93"/>
<polygon fill="midnightblue" stroke="midnightblue" points="1034.63,-16.45 1024.12,-17.77 1033.16,-23.3 1034.63,-16.45"/>
</g>
<!-- Node16 -->
<g id="node16" class="node">
<title>Node16</title>
<g id="a_node16"><a xlink:title=" ">
<polygon fill="none" stroke="#bfbfbf" points="1042.39,-0.5 1042.39,-19.5 1092.39,-19.5 1092.39,-0.5 1042.39,-0.5"/>
<text text-anchor="middle" x="1067.39" y="-7.5" font-family="Helvetica,sans-Serif" font-size="10.00">chrono</text>
</a>
</g>
</g>
<!-- Node1&#45;&gt;Node16 -->
<g id="edge67" class="edge">
<title>Node1&#45;&gt;Node16</title>
<path fill="none" stroke="midnightblue" d="M2015.66,-224.45C2063.88,-198.11 2199.2,-116.28 2141.39,-56 2122.99,-36.81 1285.76,-16.11 1102.57,-11.81"/>
<polygon fill="midnightblue" stroke="midnightblue" points="1102.49,-8.31 1092.41,-11.57 1102.32,-15.31 1102.49,-8.31"/>
</g>
<!-- Node18 -->
<g id="node18" class="node">
<title>Node18</title>
<g id="a_node18"><a xlink:title=" ">
<polygon fill="none" stroke="#bfbfbf" points="1452.89,-56.5 1452.89,-75.5 1601.89,-75.5 1601.89,-56.5 1452.89,-56.5"/>
<text text-anchor="middle" x="1527.39" y="-63.5" font-family="Helvetica,sans-Serif" font-size="10.00">rc_genicam_api/interface.h</text>
</a>
</g>
</g>
<!-- Node1&#45;&gt;Node18 -->
<g id="edge59" class="edge">
<title>Node1&#45;&gt;Node18</title>
<path fill="none" stroke="midnightblue" d="M1966.81,-230.43C1895.55,-223.65 1722.16,-200.8 1596.39,-132 1573.94,-119.72 1553.31,-98.38 1540.57,-83.51"/>
<polygon fill="midnightblue" stroke="midnightblue" points="1543.11,-81.09 1534.03,-75.63 1537.72,-85.56 1543.11,-81.09"/>
</g>
<!-- Node19 -->
<g id="node19" class="node">
<title>Node19</title>
<g id="a_node19"><a xlink:title=" ">
<polygon fill="none" stroke="#bfbfbf" points="1620.39,-56.5 1620.39,-75.5 1792.39,-75.5 1792.39,-56.5 1620.39,-56.5"/>
<text text-anchor="middle" x="1706.39" y="-63.5" font-family="Helvetica,sans-Serif" font-size="10.00">rc_genicam_api/nodemap_out.h</text>
</a>
</g>
</g>
<!-- Node1&#45;&gt;Node19 -->
<g id="edge61" class="edge">
<title>Node1&#45;&gt;Node19</title>
<path fill="none" stroke="midnightblue" d="M1984.05,-224.31C1936.09,-197.14 1788.71,-113.64 1730.45,-80.63"/>
<polygon fill="midnightblue" stroke="midnightblue" points="1732.01,-77.49 1721.58,-75.61 1728.56,-83.58 1732.01,-77.49"/>
</g>
<!-- Node20 -->
<g id="node20" class="node">
<title>Node20</title>
<g id="a_node20"><a xlink:title=" ">
<polygon fill="none" stroke="#bfbfbf" points="1898.39,-56.5 1898.39,-75.5 1958.39,-75.5 1958.39,-56.5 1898.39,-56.5"/>
<text text-anchor="middle" x="1928.39" y="-63.5" font-family="Helvetica,sans-Serif" font-size="10.00">iostream</text>
</a>
</g>
</g>
<!-- Node1&#45;&gt;Node20 -->
<g id="edge62" class="edge">
<title>Node1&#45;&gt;Node20</title>
<path fill="none" stroke="midnightblue" d="M1995.58,-224.08C1984.35,-197.83 1951.3,-120.55 1936.14,-85.12"/>
<polygon fill="midnightblue" stroke="midnightblue" points="1939.21,-83.39 1932.06,-75.57 1932.77,-86.14 1939.21,-83.39"/>
</g>
<!-- Node21 -->
<g id="node21" class="node">
<title>Node21</title>
<g id="a_node21"><a xlink:title=" ">
<polygon fill="none" stroke="#bfbfbf" points="2014.39,-56.5 2014.39,-75.5 2070.39,-75.5 2070.39,-56.5 2014.39,-56.5"/>
<text text-anchor="middle" x="2042.39" y="-63.5" font-family="Helvetica,sans-Serif" font-size="10.00">sstream</text>
</a>
</g>
</g>
<!-- Node1&#45;&gt;Node21 -->
<g id="edge63" class="edge">
<title>Node1&#45;&gt;Node21</title>
<path fill="none" stroke="midnightblue" d="M2001.71,-224.08C2008.47,-197.95 2028.35,-121.21 2037.58,-85.58"/>
<polygon fill="midnightblue" stroke="midnightblue" points="2041.06,-86.13 2040.17,-75.57 2034.28,-84.37 2041.06,-86.13"/>
</g>
<!-- Node25 -->
<g id="node25" class="node">
<title>Node25</title>
<g id="a_node25"><a xlink:title=" ">
<polygon fill="none" stroke="#bfbfbf" points="2088.39,-56.5 2088.39,-75.5 2132.39,-75.5 2132.39,-56.5 2088.39,-56.5"/>
<text text-anchor="middle" x="2110.39" y="-63.5" font-family="Helvetica,sans-Serif" font-size="10.00">regex</text>
</a>
</g>
</g>
<!-- Node1&#45;&gt;Node25 -->
<g id="edge66" class="edge">
<title>Node1&#45;&gt;Node25</title>
<path fill="none" stroke="midnightblue" d="M2005.36,-224.08C2023.06,-197.61 2075.48,-119.21 2098.89,-84.21"/>
<polygon fill="midnightblue" stroke="midnightblue" points="2102.02,-85.83 2104.66,-75.57 2096.2,-81.94 2102.02,-85.83"/>
</g>
<!-- Node34 -->
<g id="node34" class="node">
<title>Node34</title>
<g id="a_node34"><a xlink:title=" ">
<polygon fill="none" stroke="#bfbfbf" points="14.39,-56.5 14.39,-75.5 46.39,-75.5 46.39,-56.5 14.39,-56.5"/>
<text text-anchor="middle" x="30.39" y="-63.5" font-family="Helvetica,sans-Serif" font-size="10.00">list</text>
</a>
</g>
</g>
<!-- Node1&#45;&gt;Node34 -->
<g id="edge65" class="edge">
<title>Node1&#45;&gt;Node34</title>
<path fill="none" stroke="midnightblue" d="M1966.71,-233.04C1808.89,-233.02 1109.99,-230.42 539.39,-188 327.85,-172.27 240.81,-251.29 65.39,-132 49.53,-121.21 40.25,-100.82 35.28,-85.74"/>
<polygon fill="midnightblue" stroke="midnightblue" points="38.57,-84.52 32.39,-75.91 31.86,-86.5 38.57,-84.52"/>
</g>
<!-- Node35 -->
<g id="node35" class="node">
<title>Node35</title>
<g id="a_node35"><a xlink:title=" ">
<polygon fill="none" stroke="#bfbfbf" points="2226.89,-168.5 2226.89,-187.5 2305.89,-187.5 2305.89,-168.5 2226.89,-168.5"/>
<text text-anchor="middle" x="2266.39" y="-175.5" font-family="Helvetica,sans-Serif" font-size="10.00">QApplication</text>
</a>
</g>
</g>
<!-- Node1&#45;&gt;Node35 -->
<g id="edge68" class="edge">
<title>Node1&#45;&gt;Node35</title>
<path fill="none" stroke="midnightblue" d="M2032.13,-226.38C2078.31,-217.04 2162.95,-199.92 2216.85,-189.02"/>
<polygon fill="midnightblue" stroke="midnightblue" points="2217.76,-192.41 2226.87,-186.99 2216.38,-185.55 2217.76,-192.41"/>
</g>
<!-- Node36 -->
<g id="node36" class="node">
<title>Node36</title>
<g id="a_node36"><a xlink:title=" ">
<polygon fill="none" stroke="#bfbfbf" points="2324.39,-168.5 2324.39,-187.5 2392.39,-187.5 2392.39,-168.5 2324.39,-168.5"/>
<text text-anchor="middle" x="2358.39" y="-175.5" font-family="Helvetica,sans-Serif" font-size="10.00">filesystem</text>
</a>
</g>
</g>
<!-- Node1&#45;&gt;Node36 -->
<g id="edge69" class="edge">
<title>Node1&#45;&gt;Node36</title>
<path fill="none" stroke="midnightblue" d="M2032.15,-228.98C2089.5,-221.79 2211.8,-205.81 2314.39,-188 2314.5,-187.98 2314.6,-187.96 2314.7,-187.95"/>
<polygon fill="midnightblue" stroke="midnightblue" points="2315.12,-191.43 2324.32,-186.18 2313.85,-184.54 2315.12,-191.43"/>
</g>
<!-- Node3 -->
<g id="node3" class="node">
<title>Node3</title>
<g id="a_node3"><a xlink:href="DeviceManager_8hpp.html" target="_top" xlink:title=" ">
<polygon fill="none" stroke="black" points="1605.89,-112.5 1605.89,-131.5 1718.89,-131.5 1718.89,-112.5 1605.89,-112.5"/>
<text text-anchor="middle" x="1662.39" y="-119.5" font-family="Helvetica,sans-Serif" font-size="10.00">DeviceManager.hpp</text>
</a>
</g>
</g>
<!-- Node2&#45;&gt;Node3 -->
<g id="edge2" class="edge">
<title>Node2&#45;&gt;Node3</title>
<path fill="none" stroke="midnightblue" d="M664.67,-174.02C846.48,-164.72 1402.57,-136.29 1595.58,-126.42"/>
<polygon fill="midnightblue" stroke="midnightblue" points="1595.78,-129.91 1605.58,-125.91 1595.42,-122.92 1595.78,-129.91"/>
</g>
<!-- Node10 -->
<g id="node10" class="node">
<title>Node10</title>
<g id="a_node10"><a xlink:title=" ">
<polygon fill="none" stroke="#bfbfbf" points="43.39,-0.5 43.39,-19.5 93.39,-19.5 93.39,-0.5 43.39,-0.5"/>
<text text-anchor="middle" x="68.39" y="-7.5" font-family="Helvetica,sans-Serif" font-size="10.00">atomic</text>
</a>
</g>
</g>
<!-- Node2&#45;&gt;Node10 -->
<g id="edge57" class="edge">
<title>Node2&#45;&gt;Node10</title>
<path fill="none" stroke="midnightblue" d="M548.35,-176.93C426.98,-176.03 150.6,-169.74 65.39,-132 26.05,-114.57 -14.3,-94.27 5.39,-56 12.47,-42.25 25.92,-31.77 38.57,-24.39"/>
<polygon fill="midnightblue" stroke="midnightblue" points="40.39,-27.39 47.55,-19.57 37.08,-21.22 40.39,-27.39"/>
</g>
<!-- Node14 -->
<g id="node14" class="node">
<title>Node14</title>
<g id="a_node14"><a xlink:title=" ">
<polygon fill="none" stroke="#bfbfbf" points="111.39,-0.5 111.39,-19.5 155.39,-19.5 155.39,-0.5 111.39,-0.5"/>
<text text-anchor="middle" x="133.39" y="-7.5" font-family="Helvetica,sans-Serif" font-size="10.00">string</text>
</a>
</g>
</g>
<!-- Node2&#45;&gt;Node14 -->
<g id="edge56" class="edge">
<title>Node2&#45;&gt;Node14</title>
<path fill="none" stroke="midnightblue" d="M548.36,-176.97C473.36,-175.38 339.56,-167.24 231.39,-132 182.96,-116.22 157.15,-119.95 131.39,-76 123.2,-62.01 124.82,-43.26 127.84,-29.5"/>
<polygon fill="midnightblue" stroke="midnightblue" points="131.25,-30.27 130.38,-19.71 124.48,-28.5 131.25,-30.27"/>
</g>
<!-- Node2&#45;&gt;Node16 -->
<g id="edge58" class="edge">
<title>Node2&#45;&gt;Node16</title>
<path fill="none" stroke="midnightblue" d="M664.59,-173.03C749.97,-166.61 904.66,-152.56 956.39,-132 995.72,-116.37 1005.75,-108.04 1033.39,-76 1045.46,-62.02 1054.77,-43.02 1060.57,-29.17"/>
<polygon fill="midnightblue" stroke="midnightblue" points="1063.87,-30.34 1064.31,-19.76 1057.36,-27.76 1063.87,-30.34"/>
</g>
<!-- Node26 -->
<g id="node26" class="node">
<title>Node26</title>
<g id="a_node26"><a xlink:href="NetworkManager_8hpp.html" target="_top" xlink:title=" ">
<polygon fill="none" stroke="black" points="826.89,-112.5 826.89,-131.5 947.89,-131.5 947.89,-112.5 826.89,-112.5"/>
<text text-anchor="middle" x="887.39" y="-119.5" font-family="Helvetica,sans-Serif" font-size="10.00">NetworkManager.hpp</text>
</a>
</g>
</g>
<!-- Node2&#45;&gt;Node26 -->
<g id="edge26" class="edge">
<title>Node2&#45;&gt;Node26</title>
<path fill="none" stroke="midnightblue" d="M650.92,-168.44C700.35,-158.94 780.14,-143.61 833.17,-133.42"/>
<polygon fill="midnightblue" stroke="midnightblue" points="833.92,-136.84 843.08,-131.52 832.6,-129.97 833.92,-136.84"/>
</g>
<!-- Node32 -->
<g id="node32" class="node">
<title>Node32</title>
<g id="a_node32"><a xlink:href="StreamManager_8hpp.html" target="_top" xlink:title=" ">
<polygon fill="none" stroke="black" points="240.89,-112.5 240.89,-131.5 355.89,-131.5 355.89,-112.5 240.89,-112.5"/>
<text text-anchor="middle" x="298.39" y="-119.5" font-family="Helvetica,sans-Serif" font-size="10.00">StreamManager.hpp</text>
</a>
</g>
</g>
<!-- Node2&#45;&gt;Node32 -->
<g id="edge45" class="edge">
<title>Node2&#45;&gt;Node32</title>
<path fill="none" stroke="midnightblue" d="M557.59,-168.44C503.19,-158.9 415.23,-143.48 357.1,-133.29"/>
<polygon fill="midnightblue" stroke="midnightblue" points="357.42,-129.8 346.97,-131.52 356.21,-136.69 357.42,-129.8"/>
</g>
<!-- Node2&#45;&gt;Node34 -->
<g id="edge55" class="edge">
<title>Node2&#45;&gt;Node34</title>
<path fill="none" stroke="midnightblue" d="M548.34,-176.64C432.57,-175.15 177.32,-167.78 98.39,-132 75.02,-121.4 54.72,-99.32 42.52,-83.85"/>
<polygon fill="midnightblue" stroke="midnightblue" points="45.14,-81.51 36.32,-75.64 39.56,-85.73 45.14,-81.51"/>
</g>
<!-- Node4 -->
<g id="node4" class="node">
<title>Node4</title>
<g id="a_node4"><a xlink:href="Camera_8hpp.html" target="_top" xlink:title=" ">
<polygon fill="none" stroke="black" points="518.39,-56.5 518.39,-75.5 594.39,-75.5 594.39,-56.5 518.39,-56.5"/>
<text text-anchor="middle" x="556.39" y="-63.5" font-family="Helvetica,sans-Serif" font-size="10.00">Camera.hpp</text>
</a>
</g>
</g>
<!-- Node3&#45;&gt;Node4 -->
<g id="edge3" class="edge">
<title>Node3&#45;&gt;Node4</title>
<path fill="none" stroke="midnightblue" d="M1605.85,-118.95C1455.19,-113.38 1031.55,-96.94 679.39,-76 654.74,-74.53 627.34,-72.56 604.66,-70.84"/>
<polygon fill="midnightblue" stroke="midnightblue" points="604.84,-67.34 594.61,-70.07 604.31,-74.32 604.84,-67.34"/>
</g>
<!-- Node3&#45;&gt;Node8 -->
<g id="edge18" class="edge">
<title>Node3&#45;&gt;Node8</title>
<path fill="none" stroke="midnightblue" d="M1719.08,-121.09C1798.3,-119.88 1935.96,-112.41 1967.39,-76 1973.2,-69.27 1973.3,-62.64 1967.39,-56 1947.49,-33.62 1768.66,-20.57 1662.2,-14.72"/>
<polygon fill="midnightblue" stroke="midnightblue" points="1662.31,-11.22 1652.14,-14.18 1661.93,-18.21 1662.31,-11.22"/>
</g>
<!-- Node17 -->
<g id="node17" class="node">
<title>Node17</title>
<g id="a_node17"><a xlink:title=" ">
<polygon fill="none" stroke="#bfbfbf" points="1293.89,-56.5 1293.89,-75.5 1434.89,-75.5 1434.89,-56.5 1293.89,-56.5"/>
<text text-anchor="middle" x="1364.39" y="-63.5" font-family="Helvetica,sans-Serif" font-size="10.00">rc_genicam_api/system.h</text>
</a>
</g>
</g>
<!-- Node3&#45;&gt;Node17 -->
<g id="edge16" class="edge">
<title>Node3&#45;&gt;Node17</title>
<path fill="none" stroke="midnightblue" d="M1615.18,-112.44C1562.64,-102.92 1477.78,-87.55 1421.55,-77.36"/>
<polygon fill="midnightblue" stroke="midnightblue" points="1421.86,-73.86 1411.39,-75.52 1420.61,-80.74 1421.86,-73.86"/>
</g>
<!-- Node3&#45;&gt;Node18 -->
<g id="edge17" class="edge">
<title>Node3&#45;&gt;Node18</title>
<path fill="none" stroke="midnightblue" d="M1641,-112.44C1618.69,-103.52 1583.49,-89.44 1558.19,-79.32"/>
<polygon fill="midnightblue" stroke="midnightblue" points="1559.27,-75.98 1548.69,-75.52 1556.67,-82.48 1559.27,-75.98"/>
</g>
<!-- Node3&#45;&gt;Node19 -->
<g id="edge19" class="edge">
<title>Node3&#45;&gt;Node19</title>
<path fill="none" stroke="midnightblue" d="M1669.66,-112.08C1675.94,-104.38 1685.18,-93.03 1692.83,-83.65"/>
<polygon fill="midnightblue" stroke="midnightblue" points="1695.66,-85.71 1699.26,-75.75 1690.23,-81.29 1695.66,-85.71"/>
</g>
<!-- Node3&#45;&gt;Node20 -->
<g id="edge20" class="edge">
<title>Node3&#45;&gt;Node20</title>
<path fill="none" stroke="midnightblue" d="M1707.06,-112.45C1752.7,-103.62 1825.58,-89.32 1888.39,-76 1888.49,-75.98 1888.59,-75.96 1888.69,-75.94"/>
<polygon fill="midnightblue" stroke="midnightblue" points="1889.24,-79.4 1898.27,-73.86 1887.76,-72.56 1889.24,-79.4"/>
</g>
<!-- Node3&#45;&gt;Node21 -->
<g id="edge21" class="edge">
<title>Node3&#45;&gt;Node21</title>
<path fill="none" stroke="midnightblue" d="M1719.12,-114.83C1786.43,-107.19 1901.97,-93.07 2000.39,-76 2001.63,-75.78 2002.89,-75.56 2004.16,-75.32"/>
<polygon fill="midnightblue" stroke="midnightblue" points="2004.84,-78.76 2013.99,-73.4 2003.5,-71.89 2004.84,-78.76"/>
</g>
<!-- Node22 -->
<g id="node22" class="node">
<title>Node22</title>
<g id="a_node22"><a xlink:title=" ">
<polygon fill="none" stroke="#bfbfbf" points="1131.39,-56.5 1131.39,-75.5 1163.39,-75.5 1163.39,-56.5 1131.39,-56.5"/>
<text text-anchor="middle" x="1147.39" y="-63.5" font-family="Helvetica,sans-Serif" font-size="10.00">set</text>
</a>
</g>
</g>
<!-- Node3&#45;&gt;Node22 -->
<g id="edge22" class="edge">
<title>Node3&#45;&gt;Node22</title>
<path fill="none" stroke="midnightblue" d="M1605.83,-120.44C1515.75,-118.55 1334.31,-110.6 1173.69,-75.74"/>
<polygon fill="midnightblue" stroke="midnightblue" points="1174.14,-72.26 1163.62,-73.51 1172.63,-79.09 1174.14,-72.26"/>
</g>
<!-- Node23 -->
<g id="node23" class="node">
<title>Node23</title>
<g id="a_node23"><a xlink:title=" ">
<polygon fill="none" stroke="#bfbfbf" points="1810.89,-56.5 1810.89,-75.5 1879.89,-75.5 1879.89,-56.5 1810.89,-56.5"/>
<text text-anchor="middle" x="1845.39" y="-63.5" font-family="Helvetica,sans-Serif" font-size="10.00">arpa/inet.h</text>
</a>
</g>
</g>
<!-- Node3&#45;&gt;Node23 -->
<g id="edge23" class="edge">
<title>Node3&#45;&gt;Node23</title>
<path fill="none" stroke="midnightblue" d="M1691.39,-112.44C1722.58,-103.24 1772.32,-88.56 1806.8,-78.39"/>
<polygon fill="midnightblue" stroke="midnightblue" points="1807.93,-81.7 1816.53,-75.52 1805.95,-74.99 1807.93,-81.7"/>
</g>
<!-- Node24 -->
<g id="node24" class="node">
<title>Node24</title>
<g id="a_node24"><a xlink:title=" ">
<polygon fill="none" stroke="#bfbfbf" points="1181.39,-56.5 1181.39,-75.5 1237.39,-75.5 1237.39,-56.5 1181.39,-56.5"/>
<text text-anchor="middle" x="1209.39" y="-63.5" font-family="Helvetica,sans-Serif" font-size="10.00">iomanip</text>
</a>
</g>
</g>
<!-- Node3&#45;&gt;Node24 -->
<g id="edge24" class="edge">
<title>Node3&#45;&gt;Node24</title>
<path fill="none" stroke="midnightblue" d="M1605.72,-114.27C1531.78,-105.49 1398.41,-89.63 1284.39,-76 1272.41,-74.57 1259.35,-73 1247.53,-71.58"/>
<polygon fill="midnightblue" stroke="midnightblue" points="1247.88,-68.1 1237.53,-70.38 1247.04,-75.05 1247.88,-68.1"/>
</g>
<!-- Node3&#45;&gt;Node25 -->
<g id="edge25" class="edge">
<title>Node3&#45;&gt;Node25</title>
<path fill="none" stroke="midnightblue" d="M1719.19,-118.03C1797.91,-113.22 1944.67,-101.73 2078.16,-75.93"/>
<polygon fill="midnightblue" stroke="midnightblue" points="2079.02,-79.32 2088.16,-73.96 2077.67,-72.46 2079.02,-79.32"/>
</g>
<!-- Node5 -->
<g id="node5" class="node">
<title>Node5</title>
<g id="a_node5"><a xlink:title=" ">
<polygon fill="none" stroke="#bfbfbf" points="373.89,-0.5 373.89,-19.5 472.89,-19.5 472.89,-0.5 373.89,-0.5"/>
<text text-anchor="middle" x="423.39" y="-7.5" font-family="Helvetica,sans-Serif" font-size="10.00">GenApi/GenApi.h</text>
</a>
</g>
</g>
<!-- Node4&#45;&gt;Node5 -->
<g id="edge4" class="edge">
<title>Node4&#45;&gt;Node5</title>
<path fill="none" stroke="midnightblue" d="M535.32,-56.44C513.33,-47.52 478.66,-33.44 453.73,-23.32"/>
<polygon fill="midnightblue" stroke="midnightblue" points="454.95,-20.04 444.37,-19.52 452.32,-26.52 454.95,-20.04"/>
</g>
<!-- Node6 -->
<g id="node6" class="node">
<title>Node6</title>
<g id="a_node6"><a xlink:title=" ">
<polygon fill="none" stroke="#bfbfbf" points="173.39,-0.5 173.39,-19.5 289.39,-19.5 289.39,-0.5 173.39,-0.5"/>
<text text-anchor="middle" x="231.39" y="-7.5" font-family="Helvetica,sans-Serif" font-size="10.00">opencv2/opencv.hpp</text>
</a>
</g>
</g>
<!-- Node4&#45;&gt;Node6 -->
<g id="edge5" class="edge">
<title>Node4&#45;&gt;Node6</title>
<path fill="none" stroke="midnightblue" d="M518.16,-58.65C462.54,-49.41 358.74,-32.16 292.46,-21.15"/>
<polygon fill="midnightblue" stroke="midnightblue" points="292.99,-17.69 282.56,-19.5 291.85,-24.59 292.99,-17.69"/>
</g>
<!-- Node7 -->
<g id="node7" class="node">
<title>Node7</title>
<g id="a_node7"><a xlink:title=" ">
<polygon fill="none" stroke="#bfbfbf" points="825.89,-0.5 825.89,-19.5 958.89,-19.5 958.89,-0.5 825.89,-0.5"/>
<text text-anchor="middle" x="892.39" y="-7.5" font-family="Helvetica,sans-Serif" font-size="10.00">rc_genicam_api/buffer.h</text>
</a>
</g>
</g>
<!-- Node4&#45;&gt;Node7 -->
<g id="edge6" class="edge">
<title>Node4&#45;&gt;Node7</title>
<path fill="none" stroke="midnightblue" d="M594.44,-58.35C599.14,-57.55 603.87,-56.75 608.39,-56 683.31,-43.58 769.47,-30.03 827.06,-21.08"/>
<polygon fill="midnightblue" stroke="midnightblue" points="827.77,-24.51 837.12,-19.52 826.7,-17.6 827.77,-24.51"/>
</g>
<!-- Node4&#45;&gt;Node8 -->
<g id="edge7" class="edge">
<title>Node4&#45;&gt;Node8</title>
<path fill="none" stroke="midnightblue" d="M594.61,-61.97C618.88,-60.11 650.97,-57.75 679.39,-56 984.42,-37.25 1347.72,-21.02 1504.71,-14.3"/>
<polygon fill="midnightblue" stroke="midnightblue" points="1504.91,-17.79 1514.75,-13.87 1504.61,-10.8 1504.91,-17.79"/>
</g>
<!-- Node9 -->
<g id="node9" class="node">
<title>Node9</title>
<g id="a_node9"><a xlink:title=" ">
<polygon fill="none" stroke="#bfbfbf" points="567.39,-0.5 567.39,-19.5 739.39,-19.5 739.39,-0.5 567.39,-0.5"/>
<text text-anchor="middle" x="653.39" y="-7.5" font-family="Helvetica,sans-Serif" font-size="10.00">rc_genicam_api/pixel_formats.h</text>
</a>
</g>
</g>
<!-- Node4&#45;&gt;Node9 -->
<g id="edge8" class="edge">
<title>Node4&#45;&gt;Node9</title>
<path fill="none" stroke="midnightblue" d="M571.98,-56.32C587.39,-47.74 611.21,-34.49 629.1,-24.52"/>
<polygon fill="midnightblue" stroke="midnightblue" points="630.81,-27.58 637.85,-19.65 627.41,-21.46 630.81,-27.58"/>
</g>
<!-- Node4&#45;&gt;Node10 -->
<g id="edge9" class="edge">
<title>Node4&#45;&gt;Node10</title>
<path fill="none" stroke="midnightblue" d="M518.14,-63.28C441.27,-59.37 262.5,-48.05 103.5,-19.93"/>
<polygon fill="midnightblue" stroke="midnightblue" points="104.01,-16.46 93.54,-18.14 102.77,-23.35 104.01,-16.46"/>
</g>
<!-- Node11 -->
<g id="node11" class="node">
<title>Node11</title>
<g id="a_node11"><a xlink:title=" ">
<polygon fill="none" stroke="#bfbfbf" points="757.39,-0.5 757.39,-19.5 807.39,-19.5 807.39,-0.5 757.39,-0.5"/>
<text text-anchor="middle" x="782.39" y="-7.5" font-family="Helvetica,sans-Serif" font-size="10.00">cstdint</text>
</a>
</g>
</g>
<!-- Node4&#45;&gt;Node11 -->
<g id="edge10" class="edge">
<title>Node4&#45;&gt;Node11</title>
<path fill="none" stroke="midnightblue" d="M594.36,-56.44C631.1,-48.08 688.61,-34.8 747.35,-20.21"/>
<polygon fill="midnightblue" stroke="midnightblue" points="748.31,-23.58 757.16,-17.76 746.61,-16.79 748.31,-23.58"/>
</g>
<!-- Node12 -->
<g id="node12" class="node">
<title>Node12</title>
<g id="a_node12"><a xlink:title=" ">
<polygon fill="none" stroke="#bfbfbf" points="491.39,-0.5 491.39,-19.5 549.39,-19.5 549.39,-0.5 491.39,-0.5"/>
<text text-anchor="middle" x="520.39" y="-7.5" font-family="Helvetica,sans-Serif" font-size="10.00">memory</text>
</a>
</g>
</g>
<!-- Node4&#45;&gt;Node12 -->
<g id="edge11" class="edge">
<title>Node4&#45;&gt;Node12</title>
<path fill="none" stroke="midnightblue" d="M550.45,-56.08C545.42,-48.53 538.06,-37.49 531.88,-28.23"/>
<polygon fill="midnightblue" stroke="midnightblue" points="534.69,-26.13 526.23,-19.75 528.86,-30.01 534.69,-26.13"/>
</g>
<!-- Node13 -->
<g id="node13" class="node">
<title>Node13</title>
<g id="a_node13"><a xlink:title=" ">
<polygon fill="none" stroke="#bfbfbf" points="307.39,-0.5 307.39,-19.5 355.39,-19.5 355.39,-0.5 307.39,-0.5"/>
<text text-anchor="middle" x="331.39" y="-7.5" font-family="Helvetica,sans-Serif" font-size="10.00">mutex</text>
</a>
</g>
</g>
<!-- Node4&#45;&gt;Node13 -->
<g id="edge12" class="edge">
<title>Node4&#45;&gt;Node13</title>
<path fill="none" stroke="midnightblue" d="M518.05,-56.44C481.27,-48.13 423.94,-34.94 365.32,-20.17"/>
<polygon fill="midnightblue" stroke="midnightblue" points="366.07,-16.75 355.52,-17.69 364.35,-23.53 366.07,-16.75"/>
</g>
<!-- Node4&#45;&gt;Node14 -->
<g id="edge13" class="edge">
<title>Node4&#45;&gt;Node14</title>
<path fill="none" stroke="midnightblue" d="M518.22,-62.76C449.46,-58.26 300.19,-46.39 165.7,-19.95"/>
<polygon fill="midnightblue" stroke="midnightblue" points="166.13,-16.47 155.63,-17.94 164.75,-23.33 166.13,-16.47"/>
</g>
<!-- Node4&#45;&gt;Node15 -->
<g id="edge14" class="edge">
<title>Node4&#45;&gt;Node15</title>
<path fill="none" stroke="midnightblue" d="M594.4,-58.1C599.11,-57.34 603.86,-56.62 608.39,-56 764.02,-34.76 807.93,-48.6 966.59,-19.83"/>
<polygon fill="midnightblue" stroke="midnightblue" points="967.51,-23.22 976.71,-17.97 966.24,-16.34 967.51,-23.22"/>
</g>
<!-- Node4&#45;&gt;Node16 -->
<g id="edge15" class="edge">
<title>Node4&#45;&gt;Node16</title>
<path fill="none" stroke="midnightblue" d="M594.49,-61.13C610.51,-59.52 629.36,-57.65 646.39,-56 817.9,-39.43 862.65,-49.55 1032.39,-20 1032.49,-19.98 1032.6,-19.96 1032.7,-19.95"/>
<polygon fill="midnightblue" stroke="midnightblue" points="1033.18,-23.42 1042.26,-17.97 1031.76,-16.57 1033.18,-23.42"/>
</g>
<!-- Node26&#45;&gt;Node4 -->
<g id="edge27" class="edge">
<title>Node26&#45;&gt;Node4</title>
<path fill="none" stroke="midnightblue" d="M834.95,-112.44C771.7,-102.13 666.27,-84.93 604.86,-74.91"/>
<polygon fill="midnightblue" stroke="midnightblue" points="605.1,-71.4 594.67,-73.24 603.97,-78.31 605.1,-71.4"/>
</g>
<!-- Node26&#45;&gt;Node5 -->
<g id="edge32" class="edge">
<title>Node26&#45;&gt;Node5</title>
<path fill="none" stroke="midnightblue" d="M826.54,-118.27C732.48,-113.32 556.65,-100.99 499.39,-76 474.15,-64.98 451.01,-42.66 437.06,-27.28"/>
<polygon fill="midnightblue" stroke="midnightblue" points="439.52,-24.78 430.3,-19.56 434.26,-29.39 439.52,-24.78"/>
</g>
<!-- Node26&#45;&gt;Node8 -->
<g id="edge30" class="edge">
<title>Node26&#45;&gt;Node8</title>
<path fill="none" stroke="midnightblue" d="M912.79,-112.42C955.53,-98.32 1044.77,-70.41 1122.39,-56 1255.19,-31.35 1412.16,-19.67 1504.43,-14.56"/>
<polygon fill="midnightblue" stroke="midnightblue" points="1504.74,-18.05 1514.53,-14.01 1504.36,-11.06 1504.74,-18.05"/>
</g>
<!-- Node26&#45;&gt;Node10 -->
<g id="edge41" class="edge">
<title>Node26&#45;&gt;Node10</title>
<path fill="none" stroke="midnightblue" d="M826.78,-118.93C712.6,-114.46 469.92,-102.14 390.39,-76 374.1,-70.64 373.55,-61.76 357.39,-56 252.64,-18.64 216.62,-41.31 103.65,-20"/>
<polygon fill="midnightblue" stroke="midnightblue" points="104.05,-16.51 93.57,-18.02 102.71,-23.38 104.05,-16.51"/>
</g>
<!-- Node26&#45;&gt;Node12 -->
<g id="edge34" class="edge">
<title>Node26&#45;&gt;Node12</title>
<path fill="none" stroke="midnightblue" d="M826.73,-118.12C725.24,-112.68 530.07,-99.29 509.39,-76 498.03,-63.21 503.69,-43.19 510.37,-28.75"/>
<polygon fill="midnightblue" stroke="midnightblue" points="513.51,-30.29 514.96,-19.8 507.28,-27.1 513.51,-30.29"/>
</g>
<!-- Node26&#45;&gt;Node14 -->
<g id="edge35" class="edge">
<title>Node26&#45;&gt;Node14</title>
<path fill="none" stroke="midnightblue" d="M826.87,-117.49C744.54,-112.05 592.89,-99.65 465.39,-76 431.47,-69.71 424.14,-63.17 390.39,-56 294.01,-35.53 265.42,-41.79 165.55,-20.02"/>
<polygon fill="midnightblue" stroke="midnightblue" points="166.18,-16.57 155.66,-17.82 164.66,-23.41 166.18,-16.57"/>
</g>
<!-- Node26&#45;&gt;Node16 -->
<g id="edge37" class="edge">
<title>Node26&#45;&gt;Node16</title>
<path fill="none" stroke="midnightblue" d="M922.79,-112.44C947.84,-105.3 981.45,-93.45 1007.39,-76 1026.81,-62.94 1044.37,-42.4 1055.4,-27.91"/>
<polygon fill="midnightblue" stroke="midnightblue" points="1058.27,-29.92 1061.39,-19.79 1052.64,-25.76 1058.27,-29.92"/>
</g>
<!-- Node26&#45;&gt;Node17 -->
<g id="edge28" class="edge">
<title>Node26&#45;&gt;Node17</title>
<path fill="none" stroke="midnightblue" d="M948.29,-114.11C1033.59,-104.45 1188.82,-86.88 1283.67,-76.14"/>
<polygon fill="midnightblue" stroke="midnightblue" points="1284.24,-79.6 1293.79,-74.99 1283.46,-72.64 1284.24,-79.6"/>
</g>
<!-- Node26&#45;&gt;Node18 -->
<g id="edge29" class="edge">
<title>Node26&#45;&gt;Node18</title>
<path fill="none" stroke="midnightblue" d="M947.91,-116.62C1048.3,-109.24 1255.87,-93.5 1442.74,-76.04"/>
<polygon fill="midnightblue" stroke="midnightblue" points="1443.12,-79.52 1452.75,-75.1 1442.47,-72.55 1443.12,-79.52"/>
</g>
<!-- Node26&#45;&gt;Node19 -->
<g id="edge31" class="edge">
<title>Node26&#45;&gt;Node19</title>
<path fill="none" stroke="midnightblue" d="M947.9,-117.88C1070.5,-111.41 1357.27,-95.56 1610.19,-75.99"/>
<polygon fill="midnightblue" stroke="midnightblue" points="1610.61,-79.47 1620.31,-75.2 1610.07,-72.49 1610.61,-79.47"/>
</g>
<!-- Node26&#45;&gt;Node20 -->
<g id="edge33" class="edge">
<title>Node26&#45;&gt;Node20</title>
<path fill="none" stroke="midnightblue" d="M948.08,-119.68C1135.75,-115.36 1705.09,-100.55 1888.39,-76 1888.5,-75.99 1888.6,-75.97 1888.7,-75.96"/>
<polygon fill="midnightblue" stroke="midnightblue" points="1889.06,-79.45 1898.36,-74.36 1887.92,-72.54 1889.06,-79.45"/>
</g>
<!-- Node26&#45;&gt;Node22 -->
<g id="edge42" class="edge">
<title>Node26&#45;&gt;Node22</title>
<path fill="none" stroke="midnightblue" d="M938.87,-112.42C985.69,-104.27 1056.57,-91.04 1117.39,-76 1118.67,-75.68 1119.97,-75.35 1121.29,-75"/>
<polygon fill="midnightblue" stroke="midnightblue" points="1122.62,-78.26 1131.28,-72.15 1120.71,-71.52 1122.62,-78.26"/>
</g>
<!-- Node26&#45;&gt;Node24 -->
<g id="edge39" class="edge">
<title>Node26&#45;&gt;Node24</title>
<path fill="none" stroke="midnightblue" d="M947.97,-112.9C1003.64,-105.13 1088.63,-92.43 1171.35,-76.08"/>
<polygon fill="midnightblue" stroke="midnightblue" points="1172.04,-79.51 1181.17,-74.12 1170.67,-72.64 1172.04,-79.51"/>
</g>
<!-- Node27 -->
<g id="node27" class="node">
<title>Node27</title>
<g id="a_node27"><a xlink:title=" ">
<polygon fill="none" stroke="#bfbfbf" points="688.89,-56.5 688.89,-75.5 753.89,-75.5 753.89,-56.5 688.89,-56.5"/>
<text text-anchor="middle" x="721.39" y="-63.5" font-family="Helvetica,sans-Serif" font-size="10.00">stdexcept</text>
</a>
</g>
</g>
<!-- Node26&#45;&gt;Node27 -->
<g id="edge36" class="edge">
<title>Node26&#45;&gt;Node27</title>
<path fill="none" stroke="midnightblue" d="M861.09,-112.44C833.04,-103.32 788.45,-88.81 757.21,-78.65"/>
<polygon fill="midnightblue" stroke="midnightblue" points="758.17,-75.28 747.57,-75.52 756,-81.94 758.17,-75.28"/>
</g>
<!-- Node28 -->
<g id="node28" class="node">
<title>Node28</title>
<g id="a_node28"><a xlink:title=" ">
<polygon fill="none" stroke="#bfbfbf" points="300.39,-56.5 300.39,-75.5 348.39,-75.5 348.39,-56.5 300.39,-56.5"/>
<text text-anchor="middle" x="324.39" y="-63.5" font-family="Helvetica,sans-Serif" font-size="10.00">thread</text>
</a>
</g>
</g>
<!-- Node26&#45;&gt;Node28 -->
<g id="edge38" class="edge">
<title>Node26&#45;&gt;Node28</title>
<path fill="none" stroke="midnightblue" d="M826.81,-118.7C728.72,-114.34 529.27,-102.76 362.39,-76 361.11,-75.79 359.81,-75.57 358.5,-75.33"/>
<polygon fill="midnightblue" stroke="midnightblue" points="358.91,-71.84 348.41,-73.25 357.5,-78.7 358.91,-71.84"/>
</g>
<!-- Node29 -->
<g id="node29" class="node">
<title>Node29</title>
<g id="a_node29"><a xlink:title=" ">
<polygon fill="none" stroke="#bfbfbf" points="771.89,-56.5 771.89,-75.5 822.89,-75.5 822.89,-56.5 771.89,-56.5"/>
<text text-anchor="middle" x="797.39" y="-63.5" font-family="Helvetica,sans-Serif" font-size="10.00">csignal</text>
</a>
</g>
</g>
<!-- Node26&#45;&gt;Node29 -->
<g id="edge40" class="edge">
<title>Node26&#45;&gt;Node29</title>
<path fill="none" stroke="midnightblue" d="M872.93,-112.32C858.89,-103.9 837.35,-90.97 820.85,-81.07"/>
<polygon fill="midnightblue" stroke="midnightblue" points="822.19,-77.8 811.82,-75.65 818.59,-83.8 822.19,-77.8"/>
</g>
<!-- Node30 -->
<g id="node30" class="node">
<title>Node30</title>
<g id="a_node30"><a xlink:title=" ">
<polygon fill="none" stroke="#bfbfbf" points="840.89,-56.5 840.89,-75.5 933.89,-75.5 933.89,-56.5 840.89,-56.5"/>
<text text-anchor="middle" x="887.39" y="-63.5" font-family="Helvetica,sans-Serif" font-size="10.00">unordered_map</text>
</a>
</g>
</g>
<!-- Node26&#45;&gt;Node30 -->
<g id="edge43" class="edge">
<title>Node26&#45;&gt;Node30</title>
<path fill="none" stroke="midnightblue" d="M887.39,-112.08C887.39,-105.01 887.39,-94.86 887.39,-85.99"/>
<polygon fill="midnightblue" stroke="midnightblue" points="890.89,-85.75 887.39,-75.75 883.89,-85.75 890.89,-85.75"/>
</g>
<!-- Node31 -->
<g id="node31" class="node">
<title>Node31</title>
<g id="a_node31"><a xlink:title=" ">
<polygon fill="none" stroke="#bfbfbf" points="951.89,-56.5 951.89,-75.5 998.89,-75.5 998.89,-56.5 951.89,-56.5"/>
<text text-anchor="middle" x="975.39" y="-63.5" font-family="Helvetica,sans-Serif" font-size="10.00">deque</text>
</a>
</g>
</g>
<!-- Node26&#45;&gt;Node31 -->
<g id="edge44" class="edge">
<title>Node26&#45;&gt;Node31</title>
<path fill="none" stroke="midnightblue" d="M901.53,-112.32C915.26,-103.9 936.33,-90.97 952.46,-81.07"/>
<polygon fill="midnightblue" stroke="midnightblue" points="954.6,-83.87 961.29,-75.65 950.94,-77.9 954.6,-83.87"/>
</g>
<!-- Node32&#45;&gt;Node4 -->
<g id="edge47" class="edge">
<title>Node32&#45;&gt;Node4</title>
<path fill="none" stroke="midnightblue" d="M339.28,-112.44C385.17,-102.84 459.58,-87.26 508.25,-77.08"/>
<polygon fill="midnightblue" stroke="midnightblue" points="509.16,-80.46 518.23,-74.99 507.72,-73.61 509.16,-80.46"/>
</g>
<!-- Node32&#45;&gt;Node6 -->
<g id="edge46" class="edge">
<title>Node32&#45;&gt;Node6</title>
<path fill="none" stroke="midnightblue" d="M293.14,-112.37C282.13,-94.3 256.47,-52.18 241.94,-28.31"/>
<polygon fill="midnightblue" stroke="midnightblue" points="244.82,-26.31 236.63,-19.59 238.84,-29.95 244.82,-26.31"/>
</g>
<!-- Node32&#45;&gt;Node10 -->
<g id="edge48" class="edge">
<title>Node32&#45;&gt;Node10</title>
<path fill="none" stroke="midnightblue" d="M240.52,-113.27C206.92,-106.93 164.77,-95.65 131.39,-76 110.53,-63.72 91.97,-42.68 80.49,-27.88"/>
<polygon fill="midnightblue" stroke="midnightblue" points="83.09,-25.51 74.3,-19.6 77.48,-29.7 83.09,-25.51"/>
</g>
<!-- Node32&#45;&gt;Node13 -->
<g id="edge51" class="edge">
<title>Node32&#45;&gt;Node13</title>
<path fill="none" stroke="midnightblue" d="M294.99,-112.26C290.54,-99.47 284.13,-75.1 291.39,-56 295.73,-44.6 304.42,-34.24 312.6,-26.34"/>
<polygon fill="midnightblue" stroke="midnightblue" points="315.04,-28.86 320.13,-19.57 310.35,-23.66 315.04,-28.86"/>
</g>
<!-- Node32&#45;&gt;Node15 -->
<g id="edge53" class="edge">
<title>Node32&#45;&gt;Node15</title>
<path fill="none" stroke="midnightblue" d="M355.96,-117.47C418.09,-112.53 519.43,-101.14 603.39,-76 623.59,-69.95 626.1,-61.69 646.39,-56 781.51,-18.09 824.46,-45.67 966.74,-19.8"/>
<polygon fill="midnightblue" stroke="midnightblue" points="967.52,-23.22 976.7,-17.93 966.23,-16.33 967.52,-23.22"/>
</g>
<!-- Node32&#45;&gt;Node16 -->
<g id="edge49" class="edge">
<title>Node32&#45;&gt;Node16</title>
<path fill="none" stroke="midnightblue" d="M356.04,-119.2C424.86,-115.74 542.76,-105.62 639.39,-76 658.4,-70.18 660.31,-61.54 679.39,-56 830.84,-12.02 877.15,-47.72 1032.39,-20 1032.49,-19.98 1032.6,-19.96 1032.7,-19.95"/>
<polygon fill="midnightblue" stroke="midnightblue" points="1033.19,-23.42 1042.26,-17.94 1031.75,-16.57 1033.19,-23.42"/>
</g>
<!-- Node32&#45;&gt;Node28 -->
<g id="edge52" class="edge">
<title>Node32&#45;&gt;Node28</title>
<path fill="none" stroke="midnightblue" d="M302.69,-112.08C306.25,-104.69 311.42,-93.95 315.82,-84.81"/>
<polygon fill="midnightblue" stroke="midnightblue" points="319,-86.28 320.18,-75.75 312.69,-83.24 319,-86.28"/>
</g>
<!-- Node33 -->
<g id="node33" class="node">
<title>Node33</title>
<g id="a_node33"><a xlink:title=" ">
<polygon fill="none" stroke="#bfbfbf" points="140.89,-56.5 140.89,-75.5 205.89,-75.5 205.89,-56.5 140.89,-56.5"/>
<text text-anchor="middle" x="173.39" y="-63.5" font-family="Helvetica,sans-Serif" font-size="10.00">functional</text>
</a>
</g>
</g>
<!-- Node32&#45;&gt;Node33 -->
<g id="edge50" class="edge">
<title>Node32&#45;&gt;Node33</title>
<path fill="none" stroke="midnightblue" d="M278.59,-112.44C258.11,-103.6 225.91,-89.69 202.53,-79.59"/>
<polygon fill="midnightblue" stroke="midnightblue" points="203.68,-76.27 193.11,-75.52 200.9,-82.7 203.68,-76.27"/>
</g>
<!-- Node32&#45;&gt;Node34 -->
<g id="edge54" class="edge">
<title>Node32&#45;&gt;Node34</title>
<path fill="none" stroke="midnightblue" d="M244.64,-112.49C196.18,-104.42 123.11,-91.29 60.39,-76 59.12,-75.69 57.81,-75.36 56.5,-75.01"/>
<polygon fill="midnightblue" stroke="midnightblue" points="57.08,-71.53 46.5,-72.17 55.17,-78.27 57.08,-71.53"/>
</g>
</g>
</svg>
        <g id="navigator" transform="translate(0 0)" fill="#404254">
                <rect fill="#f2f5e9" fill-opacity="0.5" stroke="#606060" stroke-width=".5" x="0" y="0" width="60" height="60"/>
                <use id="zoomplus" xlink:href="#zoomPlus" x="17" y="9" onmousedown="handleZoom(evt,'in')"/>
                <use id="zoomminus" xlink:href="#zoomMin" x="42" y="9" onmousedown="handleZoom(evt,'out')"/>
                <use id="reset" xlink:href="#resetDef" x="30" y="36" onmousedown="handleReset()"/>
                <g id="arrowUp" xlink:href="#dirArrow" transform="translate(30 24)" onmousedown="handlePan(0,-1)">
                  <use xlink:href="#rim" fill="#404040">
                        <set attributeName="fill" to="#808080" begin="arrowUp.mouseover" end="arrowUp.mouseout"/>
                  </use>
                  <path fill="none" stroke="white" stroke-width="1.5" d="M0,-3.0v7 M-2.5,-0.5L0,-3.0L2.5,-0.5"/>
                </g>
                <g id="arrowRight" xlink:href="#dirArrow" transform="rotate(90) translate(36 -43)" onmousedown="handlePan(1,0)">
                  <use xlink:href="#rim" fill="#404040">
                        <set attributeName="fill" to="#808080" begin="arrowRight.mouseover" end="arrowRight.mouseout"/>
                  </use>
                  <path fill="none" stroke="white" stroke-width="1.5" d="M0,-3.0v7 M-2.5,-0.5L0,-3.0L2.5,-0.5"/>
                </g>
                <g id="arrowDown" xlink:href="#dirArrow" transform="rotate(180) translate(-30 -48)" onmousedown="handlePan(0,1)">
                  <use xlink:href="#rim" fill="#404040">
                        <set attributeName="fill" to="#808080" begin="arrowDown.mouseover" end="arrowDown.mouseout"/>
                  </use>
                  <path fill="none" stroke="white" stroke-width="1.5" d="M0,-3.0v7 M-2.5,-0.5L0,-3.0L2.5,-0.5"/>
                </g>
                <g id="arrowLeft" xlink:href="#dirArrow" transform="rotate(270) translate(-36 17)" onmousedown="handlePan(-1,0)">
                  <use xlink:href="#rim" fill="#404040">
                        <set attributeName="fill" to="#808080" begin="arrowLeft.mouseover" end="arrowLeft.mouseout"/>
                  </use>
                  <path fill="none" stroke="white" stroke-width="1.5" d="M0,-3.0v7 M-2.5,-0.5L0,-3.0L2.5,-0.5"/>
                </g>
        </g>
        <svg viewBox="0 0 15 15" width="100%" height="30px" preserveAspectRatio="xMaxYMin meet">
         <g id="arrow_out" transform="scale(0.3 0.3)">
          <a xlink:href="cli_8cpp__incl_org.svg" target="_base">
           <rect id="button" ry="5" rx="5" y="6" x="6" height="38" width="38"
                fill="#f2f5e9" fill-opacity="0.5" stroke="#606060" stroke-width="1.0"/>
           <path id="arrow"
             d="M 11.500037,31.436501 C 11.940474,20.09759 22.043105,11.32322 32.158766,21.979434 L 37.068811,17.246167 C 37.068811,17.246167 37.088388,32 37.088388,32 L 22.160133,31.978069 C 22.160133,31.978069 26.997745,27.140456 26.997745,27.140456 C 18.528582,18.264221 13.291696,25.230495 11.500037,31.436501 z"
             style="fill:#404040;"/>
          </a>
         </g>
        </svg>
</svg>
