<?xml version="1.0" encoding="UTF-8" standalone="no"?>
<!DOCTYPE svg PUBLIC "-//W3C//DTD SVG 1.1//EN"
 "http://www.w3.org/Graphics/SVG/1.1/DTD/svg11.dtd">
<!-- Generated by graphviz version 2.43.0 (0)
 -->
<!-- Title: getGlobalFpsUpperBound Pages: 1 -->
<!--zoomable 123 -->
<svg id="main" version="1.1" xmlns="http://www.w3.org/2000/svg" xmlns:xlink="http://www.w3.org/1999/xlink" xml:space="preserve" onload="init(evt)">
<style type="text/css"><![CDATA[
.edge:hover path { stroke: red; }
.edge:hover polygon { stroke: red; fill: red; }
]]></style>
<script type="text/javascript"><![CDATA[
var edges = document.getElementsByTagName('g');
if (edges && edges.length) {
  for (var i=0;i<edges.length;i++) {
    if (edges[i].id.substr(0,4)=='edge') {
      edges[i].setAttribute('class','edge');
    }
  }
}
]]></script>
        <defs>
                <circle id="rim" cx="0" cy="0" r="7"/>
                <circle id="rim2" cx="0" cy="0" r="3.5"/>
                <g id="zoomPlus">
                        <use xlink:href="#rim" fill="#404040">
                                <set attributeName="fill" to="#808080" begin="zoomplus.mouseover" end="zoomplus.mouseout"/>
                        </use>
                        <path d="M-4,0h8M0,-4v8" fill="none" stroke="white" stroke-width="1.5" pointer-events="none"/>
                </g>
                <g id="zoomMin">
                        <use xlink:href="#rim" fill="#404040">
                                <set attributeName="fill" to="#808080" begin="zoomminus.mouseover" end="zoomminus.mouseout"/>
                        </use>
                        <path d="M-4,0h8" fill="none" stroke="white" stroke-width="1.5" pointer-events="none"/>
                </g>
                <g id="dirArrow">
                        <path fill="none" stroke="white" stroke-width="1.5" d="M0,-3.0v7 M-2.5,-0.5L0,-3.0L2.5,-0.5"/>
                </g>
               <g id="resetDef">
                       <use xlink:href="#rim2" fill="#404040">
                               <set attributeName="fill" to="#808080" begin="reset.mouseover" end="reset.mouseout"/>
                       </use>
               </g>
        </defs>

<script type="text/javascript">
var viewWidth = 1143;
var viewHeight = 123;
var sectionId = 'dynsection-2';
</script>
<script xlink:href="svgpan.js"/>
<svg id="graph" class="graph">
<g id="viewport">
<title>getGlobalFpsUpperBound</title>
<!-- Node1 -->
<g id="node1" class="node">
<title>Node1</title>
<g id="a_node1"><a xlink:title="Gets the global FPS upper bound.">
<polygon fill="#bfbfbf" stroke="black" points="994,-57.5 994,-76.5 1135,-76.5 1135,-57.5 994,-57.5"/>
<text text-anchor="middle" x="1064.5" y="-64.5" font-family="Helvetica,sans-Serif" font-size="10.00">getGlobalFpsUpperBound</text>
</a>
</g>
</g>
<!-- Node2 -->
<g id="node2" class="node">
<title>Node2</title>
<g id="a_node2"><a xlink:href="classCamera.html#a73d0377e77c2e760d29381cd1073c2cd" target="_top" xlink:title="Adjusts FPS dynamically to maintain target values.">
<polygon fill="none" stroke="black" points="771.5,-95.5 771.5,-114.5 941.5,-114.5 941.5,-95.5 771.5,-95.5"/>
<text text-anchor="middle" x="856.5" y="-102.5" font-family="Helvetica,sans-Serif" font-size="10.00">Camera::adjustFpsDynamically</text>
</a>
</g>
</g>
<!-- Node1&#45;&gt;Node2 -->
<g id="edge1" class="edge">
<title>Node1&#45;&gt;Node2</title>
<path fill="none" stroke="midnightblue" d="M1001.6,-78.42C972.13,-83.86 937.28,-90.28 909.24,-95.46"/>
<polygon fill="midnightblue" stroke="midnightblue" points="1002.58,-81.8 1011.78,-76.54 1001.31,-74.91 1002.58,-81.8"/>
</g>
<!-- Node3 -->
<g id="node3" class="node">
<title>Node3</title>
<g id="a_node3"><a xlink:href="classCamera.html#ac75a36ff4d008e091919c9a0e8d3d752" target="_top" xlink:title="Updates the global frame buffer.">
<polygon fill="none" stroke="black" points="539,-79.5 539,-98.5 696,-98.5 696,-79.5 539,-79.5"/>
<text text-anchor="middle" x="617.5" y="-86.5" font-family="Helvetica,sans-Serif" font-size="10.00">Camera::updateGlobalFrame</text>
</a>
</g>
</g>
<!-- Node1&#45;&gt;Node3 -->
<g id="edge11" class="edge">
<title>Node1&#45;&gt;Node3</title>
<path fill="none" stroke="midnightblue" d="M983.77,-70.94C902.36,-74.97 776.79,-81.17 696.14,-85.16"/>
<polygon fill="midnightblue" stroke="midnightblue" points="984.15,-74.43 993.97,-70.44 983.81,-67.44 984.15,-74.43"/>
</g>
<!-- Node5 -->
<g id="node5" class="node">
<title>Node5</title>
<g id="a_node5"><a xlink:href="classNetworkManager.html#a88d3b203ca5c2d28212c5da9f8cdde7d" target="_top" xlink:title="Sets the exposure and frame rate of the cameras based on bandwidth and exposure constraints.">
<polygon fill="none" stroke="black" points="755,-19.5 755,-38.5 958,-38.5 958,-19.5 755,-19.5"/>
<text text-anchor="middle" x="856.5" y="-26.5" font-family="Helvetica,sans-Serif" font-size="10.00">NetworkManager::setExposureAndFps</text>
</a>
</g>
</g>
<!-- Node1&#45;&gt;Node5 -->
<g id="edge4" class="edge">
<title>Node1&#45;&gt;Node5</title>
<path fill="none" stroke="midnightblue" d="M1001.6,-55.58C972.13,-50.14 937.28,-43.72 909.24,-38.54"/>
<polygon fill="midnightblue" stroke="midnightblue" points="1001.31,-59.09 1011.78,-57.46 1002.58,-52.2 1001.31,-59.09"/>
</g>
<!-- Node2&#45;&gt;Node3 -->
<g id="edge2" class="edge">
<title>Node2&#45;&gt;Node3</title>
<path fill="none" stroke="midnightblue" d="M761.13,-98.63C739.56,-97.17 716.89,-95.64 696.12,-94.24"/>
<polygon fill="midnightblue" stroke="midnightblue" points="761.06,-102.13 771.28,-99.31 761.53,-95.15 761.06,-102.13"/>
</g>
<!-- Node4 -->
<g id="node4" class="node">
<title>Node4</title>
<g id="a_node4"><a xlink:href="classCamera.html#ad9f2f078e719c799e1a677a12ea52b44" target="_top" xlink:title="Starts streaming frames from the camera.">
<polygon fill="none" stroke="black" points="329.5,-79.5 329.5,-98.5 463.5,-98.5 463.5,-79.5 329.5,-79.5"/>
<text text-anchor="middle" x="396.5" y="-86.5" font-family="Helvetica,sans-Serif" font-size="10.00">Camera::startStreaming</text>
</a>
</g>
</g>
<!-- Node3&#45;&gt;Node4 -->
<g id="edge3" class="edge">
<title>Node3&#45;&gt;Node4</title>
<path fill="none" stroke="midnightblue" d="M528.77,-89C507.06,-89 484.16,-89 463.67,-89"/>
<polygon fill="midnightblue" stroke="midnightblue" points="528.98,-92.5 538.98,-89 528.98,-85.5 528.98,-92.5"/>
</g>
<!-- Node6 -->
<g id="node6" class="node">
<title>Node6</title>
<g id="a_node6"><a xlink:href="classNetworkManager.html#a22ca4e3eadd1f887bb5f90f98570709f" target="_top" xlink:title="Configures network bandwidth settings.">
<polygon fill="none" stroke="black" points="516,-19.5 516,-38.5 719,-38.5 719,-19.5 516,-19.5"/>
<text text-anchor="middle" x="617.5" y="-26.5" font-family="Helvetica,sans-Serif" font-size="10.00">NetworkManager::configureBandwidth</text>
</a>
</g>
</g>
<!-- Node5&#45;&gt;Node6 -->
<g id="edge5" class="edge">
<title>Node5&#45;&gt;Node6</title>
<path fill="none" stroke="midnightblue" d="M744.94,-29C736.34,-29 727.69,-29 719.17,-29"/>
<polygon fill="midnightblue" stroke="midnightblue" points="744.99,-32.5 754.99,-29 744.99,-25.5 744.99,-32.5"/>
</g>
<!-- Node7 -->
<g id="node7" class="node">
<title>Node7</title>
<g id="a_node7"><a xlink:href="classNetworkManager.html#a5131787ff8e8985e848e8456c1e6b202" target="_top" xlink:title="Configures cameras for PTP&#45;synchronized free&#45;run streaming.">
<polygon fill="none" stroke="black" points="313,-14 313,-44 480,-44 480,-14 313,-14"/>
<text text-anchor="start" x="321" y="-32" font-family="Helvetica,sans-Serif" font-size="10.00">NetworkManager::configurePtp</text>
<text text-anchor="middle" x="396.5" y="-21" font-family="Helvetica,sans-Serif" font-size="10.00">SyncFreeRun</text>
</a>
</g>
</g>
<!-- Node6&#45;&gt;Node7 -->
<g id="edge6" class="edge">
<title>Node6&#45;&gt;Node7</title>
<path fill="none" stroke="midnightblue" d="M505.8,-29C497.13,-29 488.46,-29 480.03,-29"/>
<polygon fill="midnightblue" stroke="midnightblue" points="505.97,-32.5 515.97,-29 505.97,-25.5 505.97,-32.5"/>
</g>
<!-- Node8 -->
<g id="node8" class="node">
<title>Node8</title>
<g id="a_node8"><a xlink:href="classSystemManager.html#af801ab01222b0c07d25a8fa780d423e4" target="_top" xlink:title=" ">
<polygon fill="none" stroke="black" points="101.5,-38.5 101.5,-57.5 252.5,-57.5 252.5,-38.5 101.5,-38.5"/>
<text text-anchor="middle" x="177" y="-45.5" font-family="Helvetica,sans-Serif" font-size="10.00">SystemManager::ptpEnable</text>
</a>
</g>
</g>
<!-- Node7&#45;&gt;Node8 -->
<g id="edge7" class="edge">
<title>Node7&#45;&gt;Node8</title>
<path fill="none" stroke="midnightblue" d="M302.64,-37.11C285.94,-38.57 268.73,-40.07 252.62,-41.48"/>
<polygon fill="midnightblue" stroke="midnightblue" points="303.31,-40.57 312.96,-36.21 302.7,-33.59 303.31,-40.57"/>
</g>
<!-- Node10 -->
<g id="node10" class="node">
<title>Node10</title>
<g id="a_node10"><a xlink:href="classSystemManager.html#addb2328a323747f21afb826811f288ab" target="_top" xlink:title=" ">
<polygon fill="none" stroke="black" points="77,-0.5 77,-19.5 277,-19.5 277,-0.5 77,-0.5"/>
<text text-anchor="middle" x="177" y="-7.5" font-family="Helvetica,sans-Serif" font-size="10.00">SystemManager::syncFreeRunStream</text>
</a>
</g>
</g>
<!-- Node7&#45;&gt;Node10 -->
<g id="edge9" class="edge">
<title>Node7&#45;&gt;Node10</title>
<path fill="none" stroke="midnightblue" d="M302.76,-20.9C294.33,-20.16 285.77,-19.41 277.29,-18.67"/>
<polygon fill="midnightblue" stroke="midnightblue" points="302.7,-24.41 312.96,-21.79 303.31,-17.43 302.7,-24.41"/>
</g>
<!-- Node9 -->
<g id="node9" class="node">
<title>Node9</title>
<g id="a_node9"><a xlink:href="cli_8cpp.html#a0ddf1224851353fc92bfbff6f499fa97" target="_top" xlink:title=" ">
<polygon fill="none" stroke="black" points="0,-19.5 0,-38.5 41,-38.5 41,-19.5 0,-19.5"/>
<text text-anchor="middle" x="20.5" y="-26.5" font-family="Helvetica,sans-Serif" font-size="10.00">main</text>
</a>
</g>
</g>
<!-- Node8&#45;&gt;Node9 -->
<g id="edge8" class="edge">
<title>Node8&#45;&gt;Node9</title>
<path fill="none" stroke="midnightblue" d="M91.31,-37.59C72.54,-35.28 54.36,-33.04 41.26,-31.43"/>
<polygon fill="midnightblue" stroke="midnightblue" points="91.11,-41.09 101.47,-38.83 91.97,-34.14 91.11,-41.09"/>
</g>
<!-- Node10&#45;&gt;Node9 -->
<g id="edge10" class="edge">
<title>Node10&#45;&gt;Node9</title>
<path fill="none" stroke="midnightblue" d="M87.9,-20.83C70.34,-22.99 53.55,-25.06 41.24,-26.57"/>
<polygon fill="midnightblue" stroke="midnightblue" points="88.8,-24.25 98.3,-19.56 87.94,-17.3 88.8,-24.25"/>
</g>
</g>
</svg>
        <g id="navigator" transform="translate(0 0)" fill="#404254">
                <rect fill="#f2f5e9" fill-opacity="0.5" stroke="#606060" stroke-width=".5" x="0" y="0" width="60" height="60"/>
                <use id="zoomplus" xlink:href="#zoomPlus" x="17" y="9" onmousedown="handleZoom(evt,'in')"/>
                <use id="zoomminus" xlink:href="#zoomMin" x="42" y="9" onmousedown="handleZoom(evt,'out')"/>
                <use id="reset" xlink:href="#resetDef" x="30" y="36" onmousedown="handleReset()"/>
                <g id="arrowUp" xlink:href="#dirArrow" transform="translate(30 24)" onmousedown="handlePan(0,-1)">
                  <use xlink:href="#rim" fill="#404040">
                        <set attributeName="fill" to="#808080" begin="arrowUp.mouseover" end="arrowUp.mouseout"/>
                  </use>
                  <path fill="none" stroke="white" stroke-width="1.5" d="M0,-3.0v7 M-2.5,-0.5L0,-3.0L2.5,-0.5"/>
                </g>
                <g id="arrowRight" xlink:href="#dirArrow" transform="rotate(90) translate(36 -43)" onmousedown="handlePan(1,0)">
                  <use xlink:href="#rim" fill="#404040">
                        <set attributeName="fill" to="#808080" begin="arrowRight.mouseover" end="arrowRight.mouseout"/>
                  </use>
                  <path fill="none" stroke="white" stroke-width="1.5" d="M0,-3.0v7 M-2.5,-0.5L0,-3.0L2.5,-0.5"/>
                </g>
                <g id="arrowDown" xlink:href="#dirArrow" transform="rotate(180) translate(-30 -48)" onmousedown="handlePan(0,1)">
                  <use xlink:href="#rim" fill="#404040">
                        <set attributeName="fill" to="#808080" begin="arrowDown.mouseover" end="arrowDown.mouseout"/>
                  </use>
                  <path fill="none" stroke="white" stroke-width="1.5" d="M0,-3.0v7 M-2.5,-0.5L0,-3.0L2.5,-0.5"/>
                </g>
                <g id="arrowLeft" xlink:href="#dirArrow" transform="rotate(270) translate(-36 17)" onmousedown="handlePan(-1,0)">
                  <use xlink:href="#rim" fill="#404040">
                        <set attributeName="fill" to="#808080" begin="arrowLeft.mouseover" end="arrowLeft.mouseout"/>
                  </use>
                  <path fill="none" stroke="white" stroke-width="1.5" d="M0,-3.0v7 M-2.5,-0.5L0,-3.0L2.5,-0.5"/>
                </g>
        </g>
        <svg viewBox="0 0 15 15" width="100%" height="30px" preserveAspectRatio="xMaxYMin meet">
         <g id="arrow_out" transform="scale(0.3 0.3)">
          <a xlink:href="GlobalSettings_8hpp_ae20198dd587799aa9d5579c3597f7fb4_icgraph_org.svg" target="_base">
           <rect id="button" ry="5" rx="5" y="6" x="6" height="38" width="38"
                fill="#f2f5e9" fill-opacity="0.5" stroke="#606060" stroke-width="1.0"/>
           <path id="arrow"
             d="M 11.500037,31.436501 C 11.940474,20.09759 22.043105,11.32322 32.158766,21.979434 L 37.068811,17.246167 C 37.068811,17.246167 37.088388,32 37.088388,32 L 22.160133,31.978069 C 22.160133,31.978069 26.997745,27.140456 26.997745,27.140456 C 18.528582,18.264221 13.291696,25.230495 11.500037,31.436501 z"
             style="fill:#404040;"/>
          </a>
         </g>
        </svg>
</svg>
