<?xml version="1.0" encoding="UTF-8" standalone="no"?>
<!DOCTYPE svg PUBLIC "-//W3C//DTD SVG 1.1//EN"
 "http://www.w3.org/Graphics/SVG/1.1/DTD/svg11.dtd">
<!-- Generated by graphviz version 2.43.0 (0)
 -->
<!-- Title: setGlobalFpsUpperBound Pages: 1 -->
<svg width="1128pt" height="91pt"
 viewBox="0.00 0.00 1128.00 91.00" xmlns="http://www.w3.org/2000/svg" xmlns:xlink="http://www.w3.org/1999/xlink">
<g id="graph0" class="graph" transform="scale(1 1) rotate(0) translate(4 87)">
<title>setGlobalFpsUpperBound</title>
<!-- Node1 -->
<g id="node1" class="node">
<title>Node1</title>
<g id="a_node1"><a xlink:title="Sets the global FPS upper bound.">
<polygon fill="#bfbfbf" stroke="black" points="980,-42.5 980,-61.5 1120,-61.5 1120,-42.5 980,-42.5"/>
<text text-anchor="middle" x="1050" y="-49.5" font-family="Helvetica,sans-Serif" font-size="10.00">setGlobalFpsUpperBound</text>
</a>
</g>
</g>
<!-- Node2 -->
<g id="node2" class="node">
<title>Node2</title>
<g id="a_node2"><a xlink:href="classCamera.html#a73d0377e77c2e760d29381cd1073c2cd" target="_top" xlink:title="Adjusts FPS dynamically to maintain target values.">
<polygon fill="none" stroke="black" points="764.5,-62.5 764.5,-81.5 934.5,-81.5 934.5,-62.5 764.5,-62.5"/>
<text text-anchor="middle" x="849.5" y="-69.5" font-family="Helvetica,sans-Serif" font-size="10.00">Camera::adjustFpsDynamically</text>
</a>
</g>
</g>
<!-- Node1&#45;&gt;Node2 -->
<g id="edge1" class="edge">
<title>Node1&#45;&gt;Node2</title>
<path fill="none" stroke="midnightblue" d="M969.84,-59.98C958.31,-61.14 946.4,-62.34 934.78,-63.51"/>
<polygon fill="midnightblue" stroke="midnightblue" points="970.25,-63.45 979.85,-58.97 969.55,-56.49 970.25,-63.45"/>
</g>
<!-- Node5 -->
<g id="node5" class="node">
<title>Node5</title>
<g id="a_node5"><a xlink:href="classNetworkManager.html#acd8737d274da2f02b0e1635b4b9f63bb" target="_top" xlink:title="Calculates the theoretical maximum frames per second (FPS) based on packet delay.">
<polygon fill="none" stroke="black" points="755,-23.5 755,-42.5 944,-42.5 944,-23.5 755,-23.5"/>
<text text-anchor="middle" x="849.5" y="-30.5" font-family="Helvetica,sans-Serif" font-size="10.00">NetworkManager::calculateMaxFps</text>
</a>
</g>
</g>
<!-- Node1&#45;&gt;Node5 -->
<g id="edge4" class="edge">
<title>Node1&#45;&gt;Node5</title>
<path fill="none" stroke="midnightblue" d="M969.73,-44.41C961.33,-43.61 952.73,-42.79 944.19,-41.97"/>
<polygon fill="midnightblue" stroke="midnightblue" points="969.56,-47.91 979.85,-45.38 970.23,-40.94 969.56,-47.91"/>
</g>
<!-- Node3 -->
<g id="node3" class="node">
<title>Node3</title>
<g id="a_node3"><a xlink:href="classCamera.html#ac75a36ff4d008e091919c9a0e8d3d752" target="_top" xlink:title="Updates the global frame buffer.">
<polygon fill="none" stroke="black" points="539,-62.5 539,-81.5 696,-81.5 696,-62.5 539,-62.5"/>
<text text-anchor="middle" x="617.5" y="-69.5" font-family="Helvetica,sans-Serif" font-size="10.00">Camera::updateGlobalFrame</text>
</a>
</g>
</g>
<!-- Node2&#45;&gt;Node3 -->
<g id="edge2" class="edge">
<title>Node2&#45;&gt;Node3</title>
<path fill="none" stroke="midnightblue" d="M754.45,-72C735.08,-72 714.89,-72 696.17,-72"/>
<polygon fill="midnightblue" stroke="midnightblue" points="754.49,-75.5 764.49,-72 754.49,-68.5 754.49,-75.5"/>
</g>
<!-- Node4 -->
<g id="node4" class="node">
<title>Node4</title>
<g id="a_node4"><a xlink:href="classCamera.html#ad9f2f078e719c799e1a677a12ea52b44" target="_top" xlink:title="Starts streaming frames from the camera.">
<polygon fill="none" stroke="black" points="329.5,-63.5 329.5,-82.5 463.5,-82.5 463.5,-63.5 329.5,-63.5"/>
<text text-anchor="middle" x="396.5" y="-70.5" font-family="Helvetica,sans-Serif" font-size="10.00">Camera::startStreaming</text>
</a>
</g>
</g>
<!-- Node3&#45;&gt;Node4 -->
<g id="edge3" class="edge">
<title>Node3&#45;&gt;Node4</title>
<path fill="none" stroke="midnightblue" d="M528.77,-72.4C507.06,-72.5 484.16,-72.6 463.67,-72.7"/>
<polygon fill="midnightblue" stroke="midnightblue" points="529,-75.9 538.98,-72.35 528.96,-68.9 529,-75.9"/>
</g>
<!-- Node6 -->
<g id="node6" class="node">
<title>Node6</title>
<g id="a_node6"><a xlink:href="classNetworkManager.html#a22ca4e3eadd1f887bb5f90f98570709f" target="_top" xlink:title="Configures network bandwidth settings.">
<polygon fill="none" stroke="black" points="516,-22.5 516,-41.5 719,-41.5 719,-22.5 516,-22.5"/>
<text text-anchor="middle" x="617.5" y="-29.5" font-family="Helvetica,sans-Serif" font-size="10.00">NetworkManager::configureBandwidth</text>
</a>
</g>
</g>
<!-- Node5&#45;&gt;Node6 -->
<g id="edge5" class="edge">
<title>Node5&#45;&gt;Node6</title>
<path fill="none" stroke="midnightblue" d="M744.92,-32.55C736.33,-32.51 727.65,-32.47 719.09,-32.44"/>
<polygon fill="midnightblue" stroke="midnightblue" points="744.94,-36.05 754.95,-32.59 744.97,-29.05 744.94,-36.05"/>
</g>
<!-- Node7 -->
<g id="node7" class="node">
<title>Node7</title>
<g id="a_node7"><a xlink:href="classNetworkManager.html#a5131787ff8e8985e848e8456c1e6b202" target="_top" xlink:title="Configures cameras for PTP&#45;synchronized free&#45;run streaming.">
<polygon fill="none" stroke="black" points="313,-14 313,-44 480,-44 480,-14 313,-14"/>
<text text-anchor="start" x="321" y="-32" font-family="Helvetica,sans-Serif" font-size="10.00">NetworkManager::configurePtp</text>
<text text-anchor="middle" x="396.5" y="-21" font-family="Helvetica,sans-Serif" font-size="10.00">SyncFreeRun</text>
</a>
</g>
</g>
<!-- Node6&#45;&gt;Node7 -->
<g id="edge6" class="edge">
<title>Node6&#45;&gt;Node7</title>
<path fill="none" stroke="midnightblue" d="M505.8,-30.48C497.13,-30.36 488.46,-30.25 480.03,-30.13"/>
<polygon fill="midnightblue" stroke="midnightblue" points="505.93,-33.99 515.97,-30.62 506.02,-26.99 505.93,-33.99"/>
</g>
<!-- Node8 -->
<g id="node8" class="node">
<title>Node8</title>
<g id="a_node8"><a xlink:href="classSystemManager.html#af801ab01222b0c07d25a8fa780d423e4" target="_top" xlink:title=" ">
<polygon fill="none" stroke="black" points="101.5,-38.5 101.5,-57.5 252.5,-57.5 252.5,-38.5 101.5,-38.5"/>
<text text-anchor="middle" x="177" y="-45.5" font-family="Helvetica,sans-Serif" font-size="10.00">SystemManager::ptpEnable</text>
</a>
</g>
</g>
<!-- Node7&#45;&gt;Node8 -->
<g id="edge7" class="edge">
<title>Node7&#45;&gt;Node8</title>
<path fill="none" stroke="midnightblue" d="M302.64,-37.11C285.94,-38.57 268.73,-40.07 252.62,-41.48"/>
<polygon fill="midnightblue" stroke="midnightblue" points="303.31,-40.57 312.96,-36.21 302.7,-33.59 303.31,-40.57"/>
</g>
<!-- Node10 -->
<g id="node10" class="node">
<title>Node10</title>
<g id="a_node10"><a xlink:href="classSystemManager.html#addb2328a323747f21afb826811f288ab" target="_top" xlink:title=" ">
<polygon fill="none" stroke="black" points="77,-0.5 77,-19.5 277,-19.5 277,-0.5 77,-0.5"/>
<text text-anchor="middle" x="177" y="-7.5" font-family="Helvetica,sans-Serif" font-size="10.00">SystemManager::syncFreeRunStream</text>
</a>
</g>
</g>
<!-- Node7&#45;&gt;Node10 -->
<g id="edge9" class="edge">
<title>Node7&#45;&gt;Node10</title>
<path fill="none" stroke="midnightblue" d="M302.76,-20.9C294.33,-20.16 285.77,-19.41 277.29,-18.67"/>
<polygon fill="midnightblue" stroke="midnightblue" points="302.7,-24.41 312.96,-21.79 303.31,-17.43 302.7,-24.41"/>
</g>
<!-- Node9 -->
<g id="node9" class="node">
<title>Node9</title>
<g id="a_node9"><a xlink:href="cli_8cpp.html#a0ddf1224851353fc92bfbff6f499fa97" target="_top" xlink:title=" ">
<polygon fill="none" stroke="black" points="0,-19.5 0,-38.5 41,-38.5 41,-19.5 0,-19.5"/>
<text text-anchor="middle" x="20.5" y="-26.5" font-family="Helvetica,sans-Serif" font-size="10.00">main</text>
</a>
</g>
</g>
<!-- Node8&#45;&gt;Node9 -->
<g id="edge8" class="edge">
<title>Node8&#45;&gt;Node9</title>
<path fill="none" stroke="midnightblue" d="M91.31,-37.59C72.54,-35.28 54.36,-33.04 41.26,-31.43"/>
<polygon fill="midnightblue" stroke="midnightblue" points="91.11,-41.09 101.47,-38.83 91.97,-34.14 91.11,-41.09"/>
</g>
<!-- Node10&#45;&gt;Node9 -->
<g id="edge10" class="edge">
<title>Node10&#45;&gt;Node9</title>
<path fill="none" stroke="midnightblue" d="M87.9,-20.83C70.34,-22.99 53.55,-25.06 41.24,-26.57"/>
<polygon fill="midnightblue" stroke="midnightblue" points="88.8,-24.25 98.3,-19.56 87.94,-17.3 88.8,-24.25"/>
</g>
</g>
</svg>
