<?xml version="1.0" encoding="UTF-8" standalone="no"?>
<!DOCTYPE svg PUBLIC "-//W3C//DTD SVG 1.1//EN"
 "http://www.w3.org/Graphics/SVG/1.1/DTD/svg11.dtd">
<!-- Generated by graphviz version 2.43.0 (0)
 -->
<!-- Title: src/GlobalSettings.cpp Pages: 1 -->
<svg width="402pt" height="140pt"
 viewBox="0.00 0.00 402.00 140.00" xmlns="http://www.w3.org/2000/svg" xmlns:xlink="http://www.w3.org/1999/xlink">
<g id="graph0" class="graph" transform="scale(1 1) rotate(0) translate(4 136)">
<title>src/GlobalSettings.cpp</title>
<!-- Node1 -->
<g id="node1" class="node">
<title>Node1</title>
<g id="a_node1"><a xlink:title=" ">
<polygon fill="#bfbfbf" stroke="black" points="225.5,-112.5 225.5,-131.5 350.5,-131.5 350.5,-112.5 225.5,-112.5"/>
<text text-anchor="middle" x="288" y="-119.5" font-family="Helvetica,sans-Serif" font-size="10.00">src/GlobalSettings.cpp</text>
</a>
</g>
</g>
<!-- Node2 -->
<g id="node2" class="node">
<title>Node2</title>
<g id="a_node2"><a xlink:href="GlobalSettings_8hpp.html" target="_top" xlink:title=" ">
<polygon fill="none" stroke="black" points="135.5,-56.5 135.5,-75.5 244.5,-75.5 244.5,-56.5 135.5,-56.5"/>
<text text-anchor="middle" x="190" y="-63.5" font-family="Helvetica,sans-Serif" font-size="10.00">GlobalSettings.hpp</text>
</a>
</g>
</g>
<!-- Node1&#45;&gt;Node2 -->
<g id="edge1" class="edge">
<title>Node1&#45;&gt;Node2</title>
<path fill="none" stroke="midnightblue" d="M272.25,-112.32C256.68,-103.74 232.62,-90.49 214.54,-80.52"/>
<polygon fill="midnightblue" stroke="midnightblue" points="216.15,-77.42 205.71,-75.65 212.78,-83.55 216.15,-77.42"/>
</g>
<!-- Node9 -->
<g id="node9" class="node">
<title>Node9</title>
<g id="a_node9"><a xlink:title=" ">
<polygon fill="none" stroke="#bfbfbf" points="262.5,-56.5 262.5,-75.5 313.5,-75.5 313.5,-56.5 262.5,-56.5"/>
<text text-anchor="middle" x="288" y="-63.5" font-family="Helvetica,sans-Serif" font-size="10.00">csignal</text>
</a>
</g>
</g>
<!-- Node1&#45;&gt;Node9 -->
<g id="edge8" class="edge">
<title>Node1&#45;&gt;Node9</title>
<path fill="none" stroke="midnightblue" d="M288,-112.08C288,-105.01 288,-94.86 288,-85.99"/>
<polygon fill="midnightblue" stroke="midnightblue" points="291.5,-85.75 288,-75.75 284.5,-85.75 291.5,-85.75"/>
</g>
<!-- Node10 -->
<g id="node10" class="node">
<title>Node10</title>
<g id="a_node10"><a xlink:title=" ">
<polygon fill="none" stroke="#bfbfbf" points="332,-56.5 332,-75.5 392,-75.5 392,-56.5 332,-56.5"/>
<text text-anchor="middle" x="362" y="-63.5" font-family="Helvetica,sans-Serif" font-size="10.00">iostream</text>
</a>
</g>
</g>
<!-- Node1&#45;&gt;Node10 -->
<g id="edge9" class="edge">
<title>Node1&#45;&gt;Node10</title>
<path fill="none" stroke="midnightblue" d="M299.89,-112.32C311.15,-104.11 328.29,-91.6 341.71,-81.81"/>
<polygon fill="midnightblue" stroke="midnightblue" points="343.88,-84.56 349.89,-75.83 339.75,-78.9 343.88,-84.56"/>
</g>
<!-- Node3 -->
<g id="node3" class="node">
<title>Node3</title>
<g id="a_node3"><a xlink:title=" ">
<polygon fill="none" stroke="#bfbfbf" points="0,-0.5 0,-19.5 50,-19.5 50,-0.5 0,-0.5"/>
<text text-anchor="middle" x="25" y="-7.5" font-family="Helvetica,sans-Serif" font-size="10.00">atomic</text>
</a>
</g>
</g>
<!-- Node2&#45;&gt;Node3 -->
<g id="edge2" class="edge">
<title>Node2&#45;&gt;Node3</title>
<path fill="none" stroke="midnightblue" d="M163.86,-56.44C135.73,-47.24 90.87,-32.56 59.78,-22.38"/>
<polygon fill="midnightblue" stroke="midnightblue" points="60.8,-19.03 50.21,-19.25 58.63,-25.69 60.8,-19.03"/>
</g>
<!-- Node4 -->
<g id="node4" class="node">
<title>Node4</title>
<g id="a_node4"><a xlink:title=" ">
<polygon fill="none" stroke="#bfbfbf" points="68,-0.5 68,-19.5 116,-19.5 116,-0.5 68,-0.5"/>
<text text-anchor="middle" x="92" y="-7.5" font-family="Helvetica,sans-Serif" font-size="10.00">mutex</text>
</a>
</g>
</g>
<!-- Node2&#45;&gt;Node4 -->
<g id="edge3" class="edge">
<title>Node2&#45;&gt;Node4</title>
<path fill="none" stroke="midnightblue" d="M174.25,-56.32C158.68,-47.74 134.62,-34.49 116.54,-24.52"/>
<polygon fill="midnightblue" stroke="midnightblue" points="118.15,-21.42 107.71,-19.65 114.78,-27.55 118.15,-21.42"/>
</g>
<!-- Node5 -->
<g id="node5" class="node">
<title>Node5</title>
<g id="a_node5"><a xlink:title=" ">
<polygon fill="none" stroke="#bfbfbf" points="134,-0.5 134,-19.5 178,-19.5 178,-0.5 134,-0.5"/>
<text text-anchor="middle" x="156" y="-7.5" font-family="Helvetica,sans-Serif" font-size="10.00">string</text>
</a>
</g>
</g>
<!-- Node2&#45;&gt;Node5 -->
<g id="edge4" class="edge">
<title>Node2&#45;&gt;Node5</title>
<path fill="none" stroke="midnightblue" d="M184.39,-56.08C179.63,-48.53 172.68,-37.49 166.85,-28.23"/>
<polygon fill="midnightblue" stroke="midnightblue" points="169.8,-26.35 161.51,-19.75 163.88,-30.08 169.8,-26.35"/>
</g>
<!-- Node6 -->
<g id="node6" class="node">
<title>Node6</title>
<g id="a_node6"><a xlink:title=" ">
<polygon fill="none" stroke="#bfbfbf" points="196,-0.5 196,-19.5 252,-19.5 252,-0.5 196,-0.5"/>
<text text-anchor="middle" x="224" y="-7.5" font-family="Helvetica,sans-Serif" font-size="10.00">sstream</text>
</a>
</g>
</g>
<!-- Node2&#45;&gt;Node6 -->
<g id="edge5" class="edge">
<title>Node2&#45;&gt;Node6</title>
<path fill="none" stroke="midnightblue" d="M195.61,-56.08C200.37,-48.53 207.32,-37.49 213.15,-28.23"/>
<polygon fill="midnightblue" stroke="midnightblue" points="216.12,-30.08 218.49,-19.75 210.2,-26.35 216.12,-30.08"/>
</g>
<!-- Node7 -->
<g id="node7" class="node">
<title>Node7</title>
<g id="a_node7"><a xlink:title=" ">
<polygon fill="none" stroke="#bfbfbf" points="270,-0.5 270,-19.5 320,-19.5 320,-0.5 270,-0.5"/>
<text text-anchor="middle" x="295" y="-7.5" font-family="Helvetica,sans-Serif" font-size="10.00">chrono</text>
</a>
</g>
</g>
<!-- Node2&#45;&gt;Node7 -->
<g id="edge6" class="edge">
<title>Node2&#45;&gt;Node7</title>
<path fill="none" stroke="midnightblue" d="M206.87,-56.32C223.71,-47.66 249.81,-34.24 269.24,-24.25"/>
<polygon fill="midnightblue" stroke="midnightblue" points="270.88,-27.34 278.17,-19.65 267.68,-21.12 270.88,-27.34"/>
</g>
<!-- Node8 -->
<g id="node8" class="node">
<title>Node8</title>
<g id="a_node8"><a xlink:title=" ">
<polygon fill="none" stroke="#bfbfbf" points="338,-0.5 338,-19.5 394,-19.5 394,-0.5 338,-0.5"/>
<text text-anchor="middle" x="366" y="-7.5" font-family="Helvetica,sans-Serif" font-size="10.00">iomanip</text>
</a>
</g>
</g>
<!-- Node2&#45;&gt;Node8 -->
<g id="edge7" class="edge">
<title>Node2&#45;&gt;Node8</title>
<path fill="none" stroke="midnightblue" d="M217.89,-56.44C247.75,-47.28 295.31,-32.69 328.46,-22.52"/>
<polygon fill="midnightblue" stroke="midnightblue" points="329.71,-25.8 338.24,-19.52 327.66,-19.1 329.71,-25.8"/>
</g>
</g>
</svg>
