<?xml version="1.0" encoding="UTF-8" standalone="no"?>
<!DOCTYPE svg PUBLIC "-//W3C//DTD SVG 1.1//EN"
 "http://www.w3.org/Graphics/SVG/1.1/DTD/svg11.dtd">
<!-- Generated by graphviz version 2.43.0 (0)
 -->
<!-- Title: getSessionTimestamp Pages: 1 -->
<svg width="1127pt" height="142pt"
 viewBox="0.00 0.00 1127.00 142.00" xmlns="http://www.w3.org/2000/svg" xmlns:xlink="http://www.w3.org/1999/xlink">
<g id="graph0" class="graph" transform="scale(1 1) rotate(0) translate(4 138)">
<title>getSessionTimestamp</title>
<!-- Node1 -->
<g id="node1" class="node">
<title>Node1</title>
<g id="a_node1"><a xlink:title="Returns the session timestamp as a string.">
<polygon fill="#bfbfbf" stroke="black" points="994,-57.5 994,-76.5 1119,-76.5 1119,-57.5 994,-57.5"/>
<text text-anchor="middle" x="1056.5" y="-64.5" font-family="Helvetica,sans-Serif" font-size="10.00">getSessionTimestamp</text>
</a>
</g>
</g>
<!-- Node2 -->
<g id="node2" class="node">
<title>Node2</title>
<g id="a_node2"><a xlink:href="classCamera.html#ada78f0e2aa9cd9304e558c0cd61abd47" target="_top" xlink:title="Logs bandwidth delays to a CSV file.">
<polygon fill="none" stroke="black" points="754.5,-114.5 754.5,-133.5 945.5,-133.5 945.5,-114.5 754.5,-114.5"/>
<text text-anchor="middle" x="850" y="-121.5" font-family="Helvetica,sans-Serif" font-size="10.00">Camera::logBandwidthDelaysToCSV</text>
</a>
</g>
</g>
<!-- Node1&#45;&gt;Node2 -->
<g id="edge1" class="edge">
<title>Node1&#45;&gt;Node2</title>
<path fill="none" stroke="midnightblue" d="M1025.28,-80.55C1006.29,-88.62 981.09,-98.52 958,-105 944.74,-108.72 930.34,-111.87 916.53,-114.46"/>
<polygon fill="midnightblue" stroke="midnightblue" points="1026.81,-83.7 1034.61,-76.52 1024.04,-77.27 1026.81,-83.7"/>
</g>
<!-- Node4 -->
<g id="node4" class="node">
<title>Node4</title>
<g id="a_node4"><a xlink:href="classNetworkManager.html#ae856b2f8ac57cb540414667eccc6832a" target="_top" xlink:title="Logs the history of PTP offsets to a CSV file.">
<polygon fill="none" stroke="black" points="742,-76.5 742,-95.5 958,-95.5 958,-76.5 742,-76.5"/>
<text text-anchor="middle" x="850" y="-83.5" font-family="Helvetica,sans-Serif" font-size="10.00">NetworkManager::logOffsetHistoryToCSV</text>
</a>
</g>
</g>
<!-- Node1&#45;&gt;Node4 -->
<g id="edge3" class="edge">
<title>Node1&#45;&gt;Node4</title>
<path fill="none" stroke="midnightblue" d="M983.77,-73.66C973.91,-74.58 963.64,-75.53 953.37,-76.49"/>
<polygon fill="midnightblue" stroke="midnightblue" points="984.23,-77.14 993.87,-72.73 983.58,-70.17 984.23,-77.14"/>
</g>
<!-- Node10 -->
<g id="node10" class="node">
<title>Node10</title>
<g id="a_node10"><a xlink:href="classNetworkManager.html#ae34ac9fc3697d706c4938c61f44ecd59" target="_top" xlink:title="Plots the offset trends over time for PTP synchronization analysis.">
<polygon fill="none" stroke="black" points="531,-38.5 531,-57.5 691,-57.5 691,-38.5 531,-38.5"/>
<text text-anchor="middle" x="611" y="-45.5" font-family="Helvetica,sans-Serif" font-size="10.00">NetworkManager::plotOffsets</text>
</a>
</g>
</g>
<!-- Node1&#45;&gt;Node10 -->
<g id="edge10" class="edge">
<title>Node1&#45;&gt;Node10</title>
<path fill="none" stroke="midnightblue" d="M983.82,-63.93C903.65,-60.49 774.17,-54.95 691.1,-51.39"/>
<polygon fill="midnightblue" stroke="midnightblue" points="983.69,-67.43 993.83,-64.36 983.99,-60.43 983.69,-67.43"/>
</g>
<!-- Node11 -->
<g id="node11" class="node">
<title>Node11</title>
<g id="a_node11"><a xlink:href="classCamera.html#adb38ed40f81a6d3b3ef3a6c8d92477cf" target="_top" xlink:title="Saves a frame as a PNG file.">
<polygon fill="none" stroke="black" points="778.5,-0.5 778.5,-19.5 921.5,-19.5 921.5,-0.5 778.5,-0.5"/>
<text text-anchor="middle" x="850" y="-7.5" font-family="Helvetica,sans-Serif" font-size="10.00">Camera::saveFrameToPng</text>
</a>
</g>
</g>
<!-- Node1&#45;&gt;Node11 -->
<g id="edge12" class="edge">
<title>Node1&#45;&gt;Node11</title>
<path fill="none" stroke="midnightblue" d="M1020.22,-54.05C1001.82,-47.56 978.86,-39.85 958,-34 938.66,-28.57 917.09,-23.55 898.41,-19.51"/>
<polygon fill="midnightblue" stroke="midnightblue" points="1019.07,-57.36 1029.66,-57.42 1021.42,-50.77 1019.07,-57.36"/>
</g>
<!-- Node3 -->
<g id="node3" class="node">
<title>Node3</title>
<g id="a_node3"><a xlink:href="classCamera.html#a3edc9f5ef4ef86bcf1b9269795e91f90" target="_top" xlink:title="Configures bandwidth delay parameters for the camera.">
<polygon fill="none" stroke="black" points="530.5,-114.5 530.5,-133.5 691.5,-133.5 691.5,-114.5 530.5,-114.5"/>
<text text-anchor="middle" x="611" y="-121.5" font-family="Helvetica,sans-Serif" font-size="10.00">Camera::setBandwidthDelays</text>
</a>
</g>
</g>
<!-- Node2&#45;&gt;Node3 -->
<g id="edge2" class="edge">
<title>Node2&#45;&gt;Node3</title>
<path fill="none" stroke="midnightblue" d="M744.02,-124C726.45,-124 708.48,-124 691.68,-124"/>
<polygon fill="midnightblue" stroke="midnightblue" points="744.31,-127.5 754.31,-124 744.31,-120.5 744.31,-127.5"/>
</g>
<!-- Node5 -->
<g id="node5" class="node">
<title>Node5</title>
<g id="a_node5"><a xlink:href="classNetworkManager.html#a580689530037e60c278f61c2d541e86c" target="_top" xlink:title="Monitors and logs PTP offsets over time.">
<polygon fill="none" stroke="black" points="516,-76.5 516,-95.5 706,-95.5 706,-76.5 516,-76.5"/>
<text text-anchor="middle" x="611" y="-83.5" font-family="Helvetica,sans-Serif" font-size="10.00">NetworkManager::monitorPtpOffset</text>
</a>
</g>
</g>
<!-- Node4&#45;&gt;Node5 -->
<g id="edge4" class="edge">
<title>Node4&#45;&gt;Node5</title>
<path fill="none" stroke="midnightblue" d="M731.87,-86C723.29,-86 714.69,-86 706.26,-86"/>
<polygon fill="midnightblue" stroke="midnightblue" points="731.94,-89.5 741.94,-86 731.94,-82.5 731.94,-89.5"/>
</g>
<!-- Node6 -->
<g id="node6" class="node">
<title>Node6</title>
<g id="a_node6"><a xlink:href="classNetworkManager.html#a5131787ff8e8985e848e8456c1e6b202" target="_top" xlink:title="Configures cameras for PTP&#45;synchronized free&#45;run streaming.">
<polygon fill="none" stroke="black" points="313,-52 313,-82 480,-82 480,-52 313,-52"/>
<text text-anchor="start" x="321" y="-70" font-family="Helvetica,sans-Serif" font-size="10.00">NetworkManager::configurePtp</text>
<text text-anchor="middle" x="396.5" y="-59" font-family="Helvetica,sans-Serif" font-size="10.00">SyncFreeRun</text>
</a>
</g>
</g>
<!-- Node5&#45;&gt;Node6 -->
<g id="edge5" class="edge">
<title>Node5&#45;&gt;Node6</title>
<path fill="none" stroke="midnightblue" d="M505.81,-76.68C497.22,-75.92 488.62,-75.15 480.22,-74.4"/>
<polygon fill="midnightblue" stroke="midnightblue" points="505.59,-80.18 515.87,-77.58 506.22,-73.21 505.59,-80.18"/>
</g>
<!-- Node7 -->
<g id="node7" class="node">
<title>Node7</title>
<g id="a_node7"><a xlink:href="classSystemManager.html#af801ab01222b0c07d25a8fa780d423e4" target="_top" xlink:title=" ">
<polygon fill="none" stroke="black" points="101.5,-76.5 101.5,-95.5 252.5,-95.5 252.5,-76.5 101.5,-76.5"/>
<text text-anchor="middle" x="177" y="-83.5" font-family="Helvetica,sans-Serif" font-size="10.00">SystemManager::ptpEnable</text>
</a>
</g>
</g>
<!-- Node6&#45;&gt;Node7 -->
<g id="edge6" class="edge">
<title>Node6&#45;&gt;Node7</title>
<path fill="none" stroke="midnightblue" d="M302.64,-75.11C285.94,-76.57 268.73,-78.07 252.62,-79.48"/>
<polygon fill="midnightblue" stroke="midnightblue" points="303.31,-78.57 312.96,-74.21 302.7,-71.59 303.31,-78.57"/>
</g>
<!-- Node9 -->
<g id="node9" class="node">
<title>Node9</title>
<g id="a_node9"><a xlink:href="classSystemManager.html#addb2328a323747f21afb826811f288ab" target="_top" xlink:title=" ">
<polygon fill="none" stroke="black" points="77,-38.5 77,-57.5 277,-57.5 277,-38.5 77,-38.5"/>
<text text-anchor="middle" x="177" y="-45.5" font-family="Helvetica,sans-Serif" font-size="10.00">SystemManager::syncFreeRunStream</text>
</a>
</g>
</g>
<!-- Node6&#45;&gt;Node9 -->
<g id="edge8" class="edge">
<title>Node6&#45;&gt;Node9</title>
<path fill="none" stroke="midnightblue" d="M302.76,-58.9C294.33,-58.16 285.77,-57.41 277.29,-56.67"/>
<polygon fill="midnightblue" stroke="midnightblue" points="302.7,-62.41 312.96,-59.79 303.31,-55.43 302.7,-62.41"/>
</g>
<!-- Node8 -->
<g id="node8" class="node">
<title>Node8</title>
<g id="a_node8"><a xlink:href="cli_8cpp.html#a0ddf1224851353fc92bfbff6f499fa97" target="_top" xlink:title=" ">
<polygon fill="none" stroke="black" points="0,-57.5 0,-76.5 41,-76.5 41,-57.5 0,-57.5"/>
<text text-anchor="middle" x="20.5" y="-64.5" font-family="Helvetica,sans-Serif" font-size="10.00">main</text>
</a>
</g>
</g>
<!-- Node7&#45;&gt;Node8 -->
<g id="edge7" class="edge">
<title>Node7&#45;&gt;Node8</title>
<path fill="none" stroke="midnightblue" d="M91.31,-75.59C72.54,-73.28 54.36,-71.04 41.26,-69.43"/>
<polygon fill="midnightblue" stroke="midnightblue" points="91.11,-79.09 101.47,-76.83 91.97,-72.14 91.11,-79.09"/>
</g>
<!-- Node9&#45;&gt;Node8 -->
<g id="edge9" class="edge">
<title>Node9&#45;&gt;Node8</title>
<path fill="none" stroke="midnightblue" d="M87.9,-58.83C70.34,-60.99 53.55,-63.06 41.24,-64.57"/>
<polygon fill="midnightblue" stroke="midnightblue" points="88.8,-62.25 98.3,-57.56 87.94,-55.3 88.8,-62.25"/>
</g>
<!-- Node10&#45;&gt;Node6 -->
<g id="edge11" class="edge">
<title>Node10&#45;&gt;Node6</title>
<path fill="none" stroke="midnightblue" d="M520.7,-55.98C507.29,-57.18 493.51,-58.42 480.25,-59.6"/>
<polygon fill="midnightblue" stroke="midnightblue" points="521.22,-59.45 530.87,-55.07 520.6,-52.48 521.22,-59.45"/>
</g>
<!-- Node12 -->
<g id="node12" class="node">
<title>Node12</title>
<g id="a_node12"><a xlink:href="classCamera.html#ad9f2f078e719c799e1a677a12ea52b44" target="_top" xlink:title="Starts streaming frames from the camera.">
<polygon fill="none" stroke="black" points="544,-0.5 544,-19.5 678,-19.5 678,-0.5 544,-0.5"/>
<text text-anchor="middle" x="611" y="-7.5" font-family="Helvetica,sans-Serif" font-size="10.00">Camera::startStreaming</text>
</a>
</g>
</g>
<!-- Node11&#45;&gt;Node12 -->
<g id="edge13" class="edge">
<title>Node11&#45;&gt;Node12</title>
<path fill="none" stroke="midnightblue" d="M768.03,-10C738.81,-10 706.19,-10 678.37,-10"/>
<polygon fill="midnightblue" stroke="midnightblue" points="768.21,-13.5 778.21,-10 768.21,-6.5 768.21,-13.5"/>
</g>
</g>
</svg>
