<?xml version="1.0" encoding="UTF-8" standalone="no"?>
<!DOCTYPE svg PUBLIC "-//W3C//DTD SVG 1.1//EN"
 "http://www.w3.org/Graphics/SVG/1.1/DTD/svg11.dtd">
<!-- Generated by graphviz version 2.43.0 (0)
 -->
<!-- Title: src/NetworkManager.hpp Pages: 1 -->
<svg width="2052pt" height="140pt"
 viewBox="0.00 0.00 2052.00 140.00" xmlns="http://www.w3.org/2000/svg" xmlns:xlink="http://www.w3.org/1999/xlink">
<g id="graph0" class="graph" transform="scale(1 1) rotate(0) translate(4 136)">
<title>src/NetworkManager.hpp</title>
<!-- Node1 -->
<g id="node1" class="node">
<title>Node1</title>
<g id="a_node1"><a xlink:title=" ">
<polygon fill="#bfbfbf" stroke="black" points="1200.5,-112.5 1200.5,-131.5 1338.5,-131.5 1338.5,-112.5 1200.5,-112.5"/>
<text text-anchor="middle" x="1269.5" y="-119.5" font-family="Helvetica,sans-Serif" font-size="10.00">src/NetworkManager.hpp</text>
</a>
</g>
</g>
<!-- Node2 -->
<g id="node2" class="node">
<title>Node2</title>
<g id="a_node2"><a xlink:href="Camera_8hpp.html" target="_top" xlink:title=" ">
<polygon fill="none" stroke="black" points="738.5,-56.5 738.5,-75.5 814.5,-75.5 814.5,-56.5 738.5,-56.5"/>
<text text-anchor="middle" x="776.5" y="-63.5" font-family="Helvetica,sans-Serif" font-size="10.00">Camera.hpp</text>
</a>
</g>
</g>
<!-- Node1&#45;&gt;Node2 -->
<g id="edge1" class="edge">
<title>Node1&#45;&gt;Node2</title>
<path fill="none" stroke="midnightblue" d="M1200.2,-115.43C1113.19,-108.1 959.45,-93.99 828.5,-76 827.22,-75.82 825.93,-75.64 824.63,-75.45"/>
<polygon fill="midnightblue" stroke="midnightblue" points="824.92,-71.96 814.51,-73.89 823.86,-78.87 824.92,-71.96"/>
</g>
<!-- Node3 -->
<g id="node3" class="node">
<title>Node3</title>
<g id="a_node3"><a xlink:title=" ">
<polygon fill="none" stroke="#bfbfbf" points="0,-0.5 0,-19.5 99,-19.5 99,-0.5 0,-0.5"/>
<text text-anchor="middle" x="49.5" y="-7.5" font-family="Helvetica,sans-Serif" font-size="10.00">GenApi/GenApi.h</text>
</a>
</g>
</g>
<!-- Node1&#45;&gt;Node3 -->
<g id="edge18" class="edge">
<title>Node1&#45;&gt;Node3</title>
<path fill="none" stroke="midnightblue" d="M1200.49,-120.16C1055.55,-117.76 709.05,-108.8 420.5,-76 304.54,-62.82 169.95,-36.42 99.06,-21.65"/>
<polygon fill="midnightblue" stroke="midnightblue" points="99.58,-18.18 89.08,-19.55 98.15,-25.03 99.58,-18.18"/>
</g>
<!-- Node6 -->
<g id="node6" class="node">
<title>Node6</title>
<g id="a_node6"><a xlink:title=" ">
<polygon fill="none" stroke="#bfbfbf" points="117,-0.5 117,-19.5 254,-19.5 254,-0.5 117,-0.5"/>
<text text-anchor="middle" x="185.5" y="-7.5" font-family="Helvetica,sans-Serif" font-size="10.00">rc_genicam_api/device.h</text>
</a>
</g>
</g>
<!-- Node1&#45;&gt;Node6 -->
<g id="edge16" class="edge">
<title>Node1&#45;&gt;Node6</title>
<path fill="none" stroke="midnightblue" d="M1200.29,-119.15C1072.77,-115.18 792.27,-103.84 557.5,-76 441.61,-62.26 307.04,-36.2 235.79,-21.6"/>
<polygon fill="midnightblue" stroke="midnightblue" points="236.25,-18.12 225.75,-19.53 234.83,-24.98 236.25,-18.12"/>
</g>
<!-- Node8 -->
<g id="node8" class="node">
<title>Node8</title>
<g id="a_node8"><a xlink:title=" ">
<polygon fill="none" stroke="#bfbfbf" points="272.5,-0.5 272.5,-19.5 322.5,-19.5 322.5,-0.5 272.5,-0.5"/>
<text text-anchor="middle" x="297.5" y="-7.5" font-family="Helvetica,sans-Serif" font-size="10.00">atomic</text>
</a>
</g>
</g>
<!-- Node1&#45;&gt;Node8 -->
<g id="edge27" class="edge">
<title>Node1&#45;&gt;Node8</title>
<path fill="none" stroke="midnightblue" d="M1200.28,-117.91C1045.6,-110.07 660.4,-85.32 332.83,-20.06"/>
<polygon fill="midnightblue" stroke="midnightblue" points="333.17,-16.56 322.67,-18.02 331.79,-23.42 333.17,-16.56"/>
</g>
<!-- Node10 -->
<g id="node10" class="node">
<title>Node10</title>
<g id="a_node10"><a xlink:title=" ">
<polygon fill="none" stroke="#bfbfbf" points="1016.5,-0.5 1016.5,-19.5 1074.5,-19.5 1074.5,-0.5 1016.5,-0.5"/>
<text text-anchor="middle" x="1045.5" y="-7.5" font-family="Helvetica,sans-Serif" font-size="10.00">memory</text>
</a>
</g>
</g>
<!-- Node1&#45;&gt;Node10 -->
<g id="edge20" class="edge">
<title>Node1&#45;&gt;Node10</title>
<path fill="none" stroke="midnightblue" d="M1200.28,-118.02C1093.02,-112.68 896.7,-99.76 875.5,-76 869.58,-69.37 870.08,-63.04 875.5,-56 877.55,-53.34 957.03,-33.09 1006.57,-20.68"/>
<polygon fill="midnightblue" stroke="midnightblue" points="1007.5,-24.06 1016.35,-18.24 1005.8,-17.27 1007.5,-24.06"/>
</g>
<!-- Node12 -->
<g id="node12" class="node">
<title>Node12</title>
<g id="a_node12"><a xlink:title=" ">
<polygon fill="none" stroke="#bfbfbf" points="1092.5,-0.5 1092.5,-19.5 1136.5,-19.5 1136.5,-0.5 1092.5,-0.5"/>
<text text-anchor="middle" x="1114.5" y="-7.5" font-family="Helvetica,sans-Serif" font-size="10.00">string</text>
</a>
</g>
</g>
<!-- Node1&#45;&gt;Node12 -->
<g id="edge21" class="edge">
<title>Node1&#45;&gt;Node12</title>
<path fill="none" stroke="midnightblue" d="M1200.5,-117.4C1099.67,-111.43 921.88,-97.9 902.5,-76 863.04,-31.4 840.13,-78.29 1082.36,-20.11"/>
<polygon fill="midnightblue" stroke="midnightblue" points="1083.32,-23.48 1092.21,-17.72 1081.67,-16.68 1083.32,-23.48"/>
</g>
<!-- Node14 -->
<g id="node14" class="node">
<title>Node14</title>
<g id="a_node14"><a xlink:title=" ">
<polygon fill="none" stroke="#bfbfbf" points="1154.5,-0.5 1154.5,-19.5 1204.5,-19.5 1204.5,-0.5 1154.5,-0.5"/>
<text text-anchor="middle" x="1179.5" y="-7.5" font-family="Helvetica,sans-Serif" font-size="10.00">chrono</text>
</a>
</g>
</g>
<!-- Node1&#45;&gt;Node14 -->
<g id="edge23" class="edge">
<title>Node1&#45;&gt;Node14</title>
<path fill="none" stroke="midnightblue" d="M1200.34,-121.81C1113.49,-121.18 971.78,-114.11 938.5,-76 894.5,-25.62 822.4,-89.71 1144.18,-20.13"/>
<polygon fill="midnightblue" stroke="midnightblue" points="1145.28,-23.48 1154.31,-17.93 1143.79,-16.64 1145.28,-23.48"/>
</g>
<!-- Node15 -->
<g id="node15" class="node">
<title>Node15</title>
<g id="a_node15"><a xlink:title=" ">
<polygon fill="none" stroke="#bfbfbf" points="947,-56.5 947,-75.5 1088,-75.5 1088,-56.5 947,-56.5"/>
<text text-anchor="middle" x="1017.5" y="-63.5" font-family="Helvetica,sans-Serif" font-size="10.00">rc_genicam_api/system.h</text>
</a>
</g>
</g>
<!-- Node1&#45;&gt;Node15 -->
<g id="edge14" class="edge">
<title>Node1&#45;&gt;Node15</title>
<path fill="none" stroke="midnightblue" d="M1229.57,-112.44C1185.61,-103.02 1114.87,-87.87 1067.32,-77.68"/>
<polygon fill="midnightblue" stroke="midnightblue" points="1067.75,-74.19 1057.24,-75.52 1066.29,-81.03 1067.75,-74.19"/>
</g>
<!-- Node16 -->
<g id="node16" class="node">
<title>Node16</title>
<g id="a_node16"><a xlink:title=" ">
<polygon fill="none" stroke="#bfbfbf" points="1106,-56.5 1106,-75.5 1255,-75.5 1255,-56.5 1106,-56.5"/>
<text text-anchor="middle" x="1180.5" y="-63.5" font-family="Helvetica,sans-Serif" font-size="10.00">rc_genicam_api/interface.h</text>
</a>
</g>
</g>
<!-- Node1&#45;&gt;Node16 -->
<g id="edge15" class="edge">
<title>Node1&#45;&gt;Node16</title>
<path fill="none" stroke="midnightblue" d="M1255.2,-112.32C1241.32,-103.9 1220.01,-90.97 1203.7,-81.07"/>
<polygon fill="midnightblue" stroke="midnightblue" points="1205.13,-77.85 1194.76,-75.65 1201.5,-83.83 1205.13,-77.85"/>
</g>
<!-- Node17 -->
<g id="node17" class="node">
<title>Node17</title>
<g id="a_node17"><a xlink:title=" ">
<polygon fill="none" stroke="#bfbfbf" points="1273.5,-56.5 1273.5,-75.5 1445.5,-75.5 1445.5,-56.5 1273.5,-56.5"/>
<text text-anchor="middle" x="1359.5" y="-63.5" font-family="Helvetica,sans-Serif" font-size="10.00">rc_genicam_api/nodemap_out.h</text>
</a>
</g>
</g>
<!-- Node1&#45;&gt;Node17 -->
<g id="edge17" class="edge">
<title>Node1&#45;&gt;Node17</title>
<path fill="none" stroke="midnightblue" d="M1283.96,-112.32C1298,-103.9 1319.55,-90.97 1336.04,-81.07"/>
<polygon fill="midnightblue" stroke="midnightblue" points="1338.3,-83.8 1345.08,-75.65 1334.7,-77.8 1338.3,-83.8"/>
</g>
<!-- Node18 -->
<g id="node18" class="node">
<title>Node18</title>
<g id="a_node18"><a xlink:title=" ">
<polygon fill="none" stroke="#bfbfbf" points="1463.5,-56.5 1463.5,-75.5 1523.5,-75.5 1523.5,-56.5 1463.5,-56.5"/>
<text text-anchor="middle" x="1493.5" y="-63.5" font-family="Helvetica,sans-Serif" font-size="10.00">iostream</text>
</a>
</g>
</g>
<!-- Node1&#45;&gt;Node18 -->
<g id="edge19" class="edge">
<title>Node1&#45;&gt;Node18</title>
<path fill="none" stroke="midnightblue" d="M1304.99,-112.44C1345.34,-102.72 1411.05,-86.88 1453.27,-76.7"/>
<polygon fill="midnightblue" stroke="midnightblue" points="1454.3,-80.05 1463.2,-74.3 1452.66,-73.25 1454.3,-80.05"/>
</g>
<!-- Node19 -->
<g id="node19" class="node">
<title>Node19</title>
<g id="a_node19"><a xlink:title=" ">
<polygon fill="none" stroke="#bfbfbf" points="1542,-56.5 1542,-75.5 1607,-75.5 1607,-56.5 1542,-56.5"/>
<text text-anchor="middle" x="1574.5" y="-63.5" font-family="Helvetica,sans-Serif" font-size="10.00">stdexcept</text>
</a>
</g>
</g>
<!-- Node1&#45;&gt;Node19 -->
<g id="edge22" class="edge">
<title>Node1&#45;&gt;Node19</title>
<path fill="none" stroke="midnightblue" d="M1323.26,-112.47C1374.32,-104.22 1453.47,-91.04 1531.91,-76.05"/>
<polygon fill="midnightblue" stroke="midnightblue" points="1532.81,-79.44 1541.97,-74.11 1531.49,-72.56 1532.81,-79.44"/>
</g>
<!-- Node20 -->
<g id="node20" class="node">
<title>Node20</title>
<g id="a_node20"><a xlink:title=" ">
<polygon fill="none" stroke="#bfbfbf" points="1625.5,-56.5 1625.5,-75.5 1673.5,-75.5 1673.5,-56.5 1625.5,-56.5"/>
<text text-anchor="middle" x="1649.5" y="-63.5" font-family="Helvetica,sans-Serif" font-size="10.00">thread</text>
</a>
</g>
</g>
<!-- Node1&#45;&gt;Node20 -->
<g id="edge24" class="edge">
<title>Node1&#45;&gt;Node20</title>
<path fill="none" stroke="midnightblue" d="M1338.76,-114.84C1406.93,-108.15 1514.09,-95.91 1615.63,-75.93"/>
<polygon fill="midnightblue" stroke="midnightblue" points="1616.32,-79.36 1625.44,-73.97 1614.95,-72.5 1616.32,-79.36"/>
</g>
<!-- Node21 -->
<g id="node21" class="node">
<title>Node21</title>
<g id="a_node21"><a xlink:title=" ">
<polygon fill="none" stroke="#bfbfbf" points="1691.5,-56.5 1691.5,-75.5 1747.5,-75.5 1747.5,-56.5 1691.5,-56.5"/>
<text text-anchor="middle" x="1719.5" y="-63.5" font-family="Helvetica,sans-Serif" font-size="10.00">iomanip</text>
</a>
</g>
</g>
<!-- Node1&#45;&gt;Node21 -->
<g id="edge25" class="edge">
<title>Node1&#45;&gt;Node21</title>
<path fill="none" stroke="midnightblue" d="M1338.58,-116.23C1418.74,-110.09 1555.02,-97.72 1681.08,-76.04"/>
<polygon fill="midnightblue" stroke="midnightblue" points="1682.05,-79.43 1691.3,-74.26 1680.85,-72.53 1682.05,-79.43"/>
</g>
<!-- Node22 -->
<g id="node22" class="node">
<title>Node22</title>
<g id="a_node22"><a xlink:title=" ">
<polygon fill="none" stroke="#bfbfbf" points="1766,-56.5 1766,-75.5 1817,-75.5 1817,-56.5 1766,-56.5"/>
<text text-anchor="middle" x="1791.5" y="-63.5" font-family="Helvetica,sans-Serif" font-size="10.00">csignal</text>
</a>
</g>
</g>
<!-- Node1&#45;&gt;Node22 -->
<g id="edge26" class="edge">
<title>Node1&#45;&gt;Node22</title>
<path fill="none" stroke="midnightblue" d="M1338.51,-118.09C1431.26,-113.42 1601.34,-102.14 1755.84,-75.82"/>
<polygon fill="midnightblue" stroke="midnightblue" points="1756.73,-79.21 1765.99,-74.06 1755.54,-72.32 1756.73,-79.21"/>
</g>
<!-- Node23 -->
<g id="node23" class="node">
<title>Node23</title>
<g id="a_node23"><a xlink:title=" ">
<polygon fill="none" stroke="#bfbfbf" points="1835.5,-56.5 1835.5,-75.5 1867.5,-75.5 1867.5,-56.5 1835.5,-56.5"/>
<text text-anchor="middle" x="1851.5" y="-63.5" font-family="Helvetica,sans-Serif" font-size="10.00">set</text>
</a>
</g>
</g>
<!-- Node1&#45;&gt;Node23 -->
<g id="edge28" class="edge">
<title>Node1&#45;&gt;Node23</title>
<path fill="none" stroke="midnightblue" d="M1338.52,-121.26C1442.71,-120.37 1646.17,-113.64 1825.41,-75.67"/>
<polygon fill="midnightblue" stroke="midnightblue" points="1826.24,-79.07 1835.28,-73.54 1824.76,-72.23 1826.24,-79.07"/>
</g>
<!-- Node24 -->
<g id="node24" class="node">
<title>Node24</title>
<g id="a_node24"><a xlink:title=" ">
<polygon fill="none" stroke="#bfbfbf" points="1886,-56.5 1886,-75.5 1979,-75.5 1979,-56.5 1886,-56.5"/>
<text text-anchor="middle" x="1932.5" y="-63.5" font-family="Helvetica,sans-Serif" font-size="10.00">unordered_map</text>
</a>
</g>
</g>
<!-- Node1&#45;&gt;Node24 -->
<g id="edge29" class="edge">
<title>Node1&#45;&gt;Node24</title>
<path fill="none" stroke="midnightblue" d="M1338.87,-117.79C1449.93,-112.22 1674.72,-99.2 1875.64,-76"/>
<polygon fill="midnightblue" stroke="midnightblue" points="1876.26,-79.45 1885.79,-74.81 1875.45,-72.49 1876.26,-79.45"/>
</g>
<!-- Node25 -->
<g id="node25" class="node">
<title>Node25</title>
<g id="a_node25"><a xlink:title=" ">
<polygon fill="none" stroke="#bfbfbf" points="1997,-56.5 1997,-75.5 2044,-75.5 2044,-56.5 1997,-56.5"/>
<text text-anchor="middle" x="2020.5" y="-63.5" font-family="Helvetica,sans-Serif" font-size="10.00">deque</text>
</a>
</g>
</g>
<!-- Node1&#45;&gt;Node25 -->
<g id="edge30" class="edge">
<title>Node1&#45;&gt;Node25</title>
<path fill="none" stroke="midnightblue" d="M1338.71,-121.51C1465.79,-121.4 1744.77,-116.25 1986.82,-75.95"/>
<polygon fill="midnightblue" stroke="midnightblue" points="1987.58,-79.37 1996.86,-74.25 1986.42,-72.46 1987.58,-79.37"/>
</g>
<!-- Node2&#45;&gt;Node3 -->
<g id="edge2" class="edge">
<title>Node2&#45;&gt;Node3</title>
<path fill="none" stroke="midnightblue" d="M738.31,-63.59C637.29,-59.62 354.58,-46.91 109.31,-20.11"/>
<polygon fill="midnightblue" stroke="midnightblue" points="109.46,-16.61 99.14,-18.99 108.69,-23.57 109.46,-16.61"/>
</g>
<!-- Node4 -->
<g id="node4" class="node">
<title>Node4</title>
<g id="a_node4"><a xlink:title=" ">
<polygon fill="none" stroke="#bfbfbf" points="340.5,-0.5 340.5,-19.5 456.5,-19.5 456.5,-0.5 340.5,-0.5"/>
<text text-anchor="middle" x="398.5" y="-7.5" font-family="Helvetica,sans-Serif" font-size="10.00">opencv2/opencv.hpp</text>
</a>
</g>
</g>
<!-- Node2&#45;&gt;Node4 -->
<g id="edge3" class="edge">
<title>Node2&#45;&gt;Node4</title>
<path fill="none" stroke="midnightblue" d="M738.18,-59.53C674.46,-50.42 545.9,-32.06 466.5,-20.71"/>
<polygon fill="midnightblue" stroke="midnightblue" points="466.99,-17.25 456.6,-19.3 466,-24.18 466.99,-17.25"/>
</g>
<!-- Node5 -->
<g id="node5" class="node">
<title>Node5</title>
<g id="a_node5"><a xlink:title=" ">
<polygon fill="none" stroke="#bfbfbf" points="475,-0.5 475,-19.5 608,-19.5 608,-0.5 475,-0.5"/>
<text text-anchor="middle" x="541.5" y="-7.5" font-family="Helvetica,sans-Serif" font-size="10.00">rc_genicam_api/buffer.h</text>
</a>
</g>
</g>
<!-- Node2&#45;&gt;Node5 -->
<g id="edge4" class="edge">
<title>Node2&#45;&gt;Node5</title>
<path fill="none" stroke="midnightblue" d="M739.26,-56.44C698.44,-47.06 632.86,-31.99 588.52,-21.8"/>
<polygon fill="midnightblue" stroke="midnightblue" points="589.09,-18.34 578.56,-19.52 587.52,-25.17 589.09,-18.34"/>
</g>
<!-- Node2&#45;&gt;Node6 -->
<g id="edge5" class="edge">
<title>Node2&#45;&gt;Node6</title>
<path fill="none" stroke="midnightblue" d="M738.5,-62.02C654.91,-55.4 448.58,-38.64 264.53,-20.08"/>
<polygon fill="midnightblue" stroke="midnightblue" points="264.69,-16.58 254.39,-19.05 263.99,-23.54 264.69,-16.58"/>
</g>
<!-- Node7 -->
<g id="node7" class="node">
<title>Node7</title>
<g id="a_node7"><a xlink:title=" ">
<polygon fill="none" stroke="#bfbfbf" points="626.5,-0.5 626.5,-19.5 798.5,-19.5 798.5,-0.5 626.5,-0.5"/>
<text text-anchor="middle" x="712.5" y="-7.5" font-family="Helvetica,sans-Serif" font-size="10.00">rc_genicam_api/pixel_formats.h</text>
</a>
</g>
</g>
<!-- Node2&#45;&gt;Node7 -->
<g id="edge6" class="edge">
<title>Node2&#45;&gt;Node7</title>
<path fill="none" stroke="midnightblue" d="M766.22,-56.32C756.66,-48.26 742.22,-36.08 730.72,-26.37"/>
<polygon fill="midnightblue" stroke="midnightblue" points="732.87,-23.61 722.97,-19.83 728.36,-28.96 732.87,-23.61"/>
</g>
<!-- Node2&#45;&gt;Node8 -->
<g id="edge7" class="edge">
<title>Node2&#45;&gt;Node8</title>
<path fill="none" stroke="midnightblue" d="M738.42,-63.18C662.82,-59.13 488.38,-47.62 332.87,-19.98"/>
<polygon fill="midnightblue" stroke="midnightblue" points="333.11,-16.46 322.65,-18.13 331.87,-23.35 333.11,-16.46"/>
</g>
<!-- Node9 -->
<g id="node9" class="node">
<title>Node9</title>
<g id="a_node9"><a xlink:title=" ">
<polygon fill="none" stroke="#bfbfbf" points="816.5,-0.5 816.5,-19.5 866.5,-19.5 866.5,-0.5 816.5,-0.5"/>
<text text-anchor="middle" x="841.5" y="-7.5" font-family="Helvetica,sans-Serif" font-size="10.00">cstdint</text>
</a>
</g>
</g>
<!-- Node2&#45;&gt;Node9 -->
<g id="edge8" class="edge">
<title>Node2&#45;&gt;Node9</title>
<path fill="none" stroke="midnightblue" d="M786.94,-56.32C796.65,-48.26 811.32,-36.08 823,-26.37"/>
<polygon fill="midnightblue" stroke="midnightblue" points="825.41,-28.92 830.87,-19.83 820.94,-23.53 825.41,-28.92"/>
</g>
<!-- Node2&#45;&gt;Node10 -->
<g id="edge9" class="edge">
<title>Node2&#45;&gt;Node10</title>
<path fill="none" stroke="midnightblue" d="M814.61,-58.06C858.51,-49.96 933.05,-35.88 1006.59,-20.13"/>
<polygon fill="midnightblue" stroke="midnightblue" points="1007.44,-23.53 1016.48,-18 1005.97,-16.68 1007.44,-23.53"/>
</g>
<!-- Node11 -->
<g id="node11" class="node">
<title>Node11</title>
<g id="a_node11"><a xlink:title=" ">
<polygon fill="none" stroke="#bfbfbf" points="884.5,-0.5 884.5,-19.5 932.5,-19.5 932.5,-0.5 884.5,-0.5"/>
<text text-anchor="middle" x="908.5" y="-7.5" font-family="Helvetica,sans-Serif" font-size="10.00">mutex</text>
</a>
</g>
</g>
<!-- Node2&#45;&gt;Node11 -->
<g id="edge10" class="edge">
<title>Node2&#45;&gt;Node11</title>
<path fill="none" stroke="midnightblue" d="M797.42,-56.44C819.24,-47.52 853.65,-33.44 878.39,-23.32"/>
<polygon fill="midnightblue" stroke="midnightblue" points="879.75,-26.54 887.68,-19.52 877.1,-20.06 879.75,-26.54"/>
</g>
<!-- Node2&#45;&gt;Node12 -->
<g id="edge11" class="edge">
<title>Node2&#45;&gt;Node12</title>
<path fill="none" stroke="midnightblue" d="M814.61,-61.11C871.12,-54.98 980.58,-41.69 1082.41,-19.98"/>
<polygon fill="midnightblue" stroke="midnightblue" points="1083.21,-23.39 1092.24,-17.86 1081.73,-16.55 1083.21,-23.39"/>
</g>
<!-- Node13 -->
<g id="node13" class="node">
<title>Node13</title>
<g id="a_node13"><a xlink:title=" ">
<polygon fill="none" stroke="#bfbfbf" points="951,-0.5 951,-19.5 998,-19.5 998,-0.5 951,-0.5"/>
<text text-anchor="middle" x="974.5" y="-7.5" font-family="Helvetica,sans-Serif" font-size="10.00">vector</text>
</a>
</g>
</g>
<!-- Node2&#45;&gt;Node13 -->
<g id="edge12" class="edge">
<title>Node2&#45;&gt;Node13</title>
<path fill="none" stroke="midnightblue" d="M807.87,-56.44C844.15,-46.55 903.65,-30.32 940.86,-20.17"/>
<polygon fill="midnightblue" stroke="midnightblue" points="942,-23.49 950.73,-17.48 940.16,-16.74 942,-23.49"/>
</g>
<!-- Node2&#45;&gt;Node14 -->
<g id="edge13" class="edge">
<title>Node2&#45;&gt;Node14</title>
<path fill="none" stroke="midnightblue" d="M814.75,-62.08C880.28,-56.7 1018.35,-43.72 1144.15,-20.02"/>
<polygon fill="midnightblue" stroke="midnightblue" points="1145.17,-23.39 1154.34,-18.07 1143.86,-16.51 1145.17,-23.39"/>
</g>
</g>
</svg>
