<?xml version="1.0" encoding="UTF-8" standalone="no"?>
<!DOCTYPE svg PUBLIC "-//W3C//DTD SVG 1.1//EN"
 "http://www.w3.org/Graphics/SVG/1.1/DTD/svg11.dtd">
<!-- Generated by graphviz version 2.43.0 (0)
 -->
<!-- Title: src/StreamManager.cpp Pages: 1 -->
<!--zoomable 196 -->
<svg id="main" version="1.1" xmlns="http://www.w3.org/2000/svg" xmlns:xlink="http://www.w3.org/1999/xlink" xml:space="preserve" onload="init(evt)">
<style type="text/css"><![CDATA[
.edge:hover path { stroke: red; }
.edge:hover polygon { stroke: red; fill: red; }
]]></style>
<script type="text/javascript"><![CDATA[
var edges = document.getElementsByTagName('g');
if (edges && edges.length) {
  for (var i=0;i<edges.length;i++) {
    if (edges[i].id.substr(0,4)=='edge') {
      edges[i].setAttribute('class','edge');
    }
  }
}
]]></script>
        <defs>
                <circle id="rim" cx="0" cy="0" r="7"/>
                <circle id="rim2" cx="0" cy="0" r="3.5"/>
                <g id="zoomPlus">
                        <use xlink:href="#rim" fill="#404040">
                                <set attributeName="fill" to="#808080" begin="zoomplus.mouseover" end="zoomplus.mouseout"/>
                        </use>
                        <path d="M-4,0h8M0,-4v8" fill="none" stroke="white" stroke-width="1.5" pointer-events="none"/>
                </g>
                <g id="zoomMin">
                        <use xlink:href="#rim" fill="#404040">
                                <set attributeName="fill" to="#808080" begin="zoomminus.mouseover" end="zoomminus.mouseout"/>
                        </use>
                        <path d="M-4,0h8" fill="none" stroke="white" stroke-width="1.5" pointer-events="none"/>
                </g>
                <g id="dirArrow">
                        <path fill="none" stroke="white" stroke-width="1.5" d="M0,-3.0v7 M-2.5,-0.5L0,-3.0L2.5,-0.5"/>
                </g>
               <g id="resetDef">
                       <use xlink:href="#rim2" fill="#404040">
                               <set attributeName="fill" to="#808080" begin="reset.mouseover" end="reset.mouseout"/>
                       </use>
               </g>
        </defs>

<script type="text/javascript">
var viewWidth = 2255;
var viewHeight = 196;
var sectionId = 'dynsection-0';
</script>
<script xlink:href="svgpan.js"/>
<svg id="graph" class="graph">
<g id="viewport">
<title>src/StreamManager.cpp</title>
<!-- Node1 -->
<g id="node1" class="node">
<title>Node1</title>
<g id="a_node1"><a xlink:title=" ">
<polygon fill="#bfbfbf" stroke="black" points="798,-168.5 798,-187.5 929,-187.5 929,-168.5 798,-168.5"/>
<text text-anchor="middle" x="863.5" y="-175.5" font-family="Helvetica,sans-Serif" font-size="10.00">src/StreamManager.cpp</text>
</a>
</g>
</g>
<!-- Node2 -->
<g id="node2" class="node">
<title>Node2</title>
<g id="a_node2"><a xlink:href="StreamManager_8hpp.html" target="_top" xlink:title=" ">
<polygon fill="none" stroke="black" points="546,-112.5 546,-131.5 661,-131.5 661,-112.5 546,-112.5"/>
<text text-anchor="middle" x="603.5" y="-119.5" font-family="Helvetica,sans-Serif" font-size="10.00">StreamManager.hpp</text>
</a>
</g>
</g>
<!-- Node1&#45;&gt;Node2 -->
<g id="edge1" class="edge">
<title>Node1&#45;&gt;Node2</title>
<path fill="none" stroke="midnightblue" d="M822.3,-168.44C776.85,-159 703.66,-143.8 654.59,-133.61"/>
<polygon fill="midnightblue" stroke="midnightblue" points="655.01,-130.12 644.51,-131.52 653.58,-136.98 655.01,-130.12"/>
</g>
<!-- Node3 -->
<g id="node3" class="node">
<title>Node3</title>
<g id="a_node3"><a xlink:title=" ">
<polygon fill="none" stroke="#bfbfbf" points="151.5,-0.5 151.5,-19.5 267.5,-19.5 267.5,-0.5 151.5,-0.5"/>
<text text-anchor="middle" x="209.5" y="-7.5" font-family="Helvetica,sans-Serif" font-size="10.00">opencv2/opencv.hpp</text>
</a>
</g>
</g>
<!-- Node1&#45;&gt;Node3 -->
<g id="edge47" class="edge">
<title>Node1&#45;&gt;Node3</title>
<path fill="none" stroke="midnightblue" d="M797.87,-176.86C675.02,-175.71 415.46,-168.84 334.5,-132 283.37,-108.74 240.56,-55.41 220.96,-27.99"/>
<polygon fill="midnightblue" stroke="midnightblue" points="223.82,-25.96 215.23,-19.76 218.08,-29.96 223.82,-25.96"/>
</g>
<!-- Node4 -->
<g id="node4" class="node">
<title>Node4</title>
<g id="a_node4"><a xlink:href="Camera_8hpp.html" target="_top" xlink:title=" ">
<polygon fill="none" stroke="black" points="598.5,-56.5 598.5,-75.5 674.5,-75.5 674.5,-56.5 598.5,-56.5"/>
<text text-anchor="middle" x="636.5" y="-63.5" font-family="Helvetica,sans-Serif" font-size="10.00">Camera.hpp</text>
</a>
</g>
</g>
<!-- Node1&#45;&gt;Node4 -->
<g id="edge42" class="edge">
<title>Node1&#45;&gt;Node4</title>
<path fill="none" stroke="midnightblue" d="M844.04,-168.45C823.99,-159.58 791.89,-145.17 764.5,-132 728.65,-114.76 687.75,-93.75 662.03,-80.37"/>
<polygon fill="midnightblue" stroke="midnightblue" points="663.44,-77.16 652.96,-75.64 660.21,-83.37 663.44,-77.16"/>
</g>
<!-- Node6 -->
<g id="node6" class="node">
<title>Node6</title>
<g id="a_node6"><a xlink:title=" ">
<polygon fill="none" stroke="#bfbfbf" points="0,-0.5 0,-19.5 133,-19.5 133,-0.5 0,-0.5"/>
<text text-anchor="middle" x="66.5" y="-7.5" font-family="Helvetica,sans-Serif" font-size="10.00">rc_genicam_api/buffer.h</text>
</a>
</g>
</g>
<!-- Node1&#45;&gt;Node6 -->
<g id="edge46" class="edge">
<title>Node1&#45;&gt;Node6</title>
<path fill="none" stroke="midnightblue" d="M797.88,-175.03C669.9,-170.66 391.44,-158.37 299.5,-132 215.54,-107.92 126.71,-52.09 87.36,-25.53"/>
<polygon fill="midnightblue" stroke="midnightblue" points="89.11,-22.49 78.87,-19.74 85.16,-28.27 89.11,-22.49"/>
</g>
<!-- Node7 -->
<g id="node7" class="node">
<title>Node7</title>
<g id="a_node7"><a xlink:title=" ">
<polygon fill="none" stroke="#bfbfbf" points="1216,-0.5 1216,-19.5 1353,-19.5 1353,-0.5 1216,-0.5"/>
<text text-anchor="middle" x="1284.5" y="-7.5" font-family="Helvetica,sans-Serif" font-size="10.00">rc_genicam_api/device.h</text>
</a>
</g>
</g>
<!-- Node1&#45;&gt;Node7 -->
<g id="edge44" class="edge">
<title>Node1&#45;&gt;Node7</title>
<path fill="none" stroke="midnightblue" d="M929.11,-176.21C1157.52,-172.77 1907.66,-155.46 1976.5,-76 1982.32,-69.28 1982.58,-62.49 1976.5,-56 1935.31,-12.05 1535.58,-9.31 1363.09,-10.21"/>
<polygon fill="midnightblue" stroke="midnightblue" points="1363.03,-6.71 1353.05,-10.27 1363.07,-13.71 1363.03,-6.71"/>
</g>
<!-- Node9 -->
<g id="node9" class="node">
<title>Node9</title>
<g id="a_node9"><a xlink:title=" ">
<polygon fill="none" stroke="#bfbfbf" points="427.5,-0.5 427.5,-19.5 477.5,-19.5 477.5,-0.5 427.5,-0.5"/>
<text text-anchor="middle" x="452.5" y="-7.5" font-family="Helvetica,sans-Serif" font-size="10.00">atomic</text>
</a>
</g>
</g>
<!-- Node1&#45;&gt;Node9 -->
<g id="edge49" class="edge">
<title>Node1&#45;&gt;Node9</title>
<path fill="none" stroke="midnightblue" d="M797.93,-174.77C670.18,-168.86 395.65,-147.89 341.5,-76 336.15,-68.9 336.53,-63.37 341.5,-56 350.41,-42.77 388.5,-29.24 417.6,-20.51"/>
<polygon fill="midnightblue" stroke="midnightblue" points="418.84,-23.8 427.46,-17.64 416.88,-17.08 418.84,-23.8"/>
</g>
<!-- Node11 -->
<g id="node11" class="node">
<title>Node11</title>
<g id="a_node11"><a xlink:title=" ">
<polygon fill="none" stroke="#bfbfbf" points="285.5,-0.5 285.5,-19.5 343.5,-19.5 343.5,-0.5 285.5,-0.5"/>
<text text-anchor="middle" x="314.5" y="-7.5" font-family="Helvetica,sans-Serif" font-size="10.00">memory</text>
</a>
</g>
</g>
<!-- Node1&#45;&gt;Node11 -->
<g id="edge51" class="edge">
<title>Node1&#45;&gt;Node11</title>
<path fill="none" stroke="midnightblue" d="M797.92,-174.72C669.05,-169.73 392.2,-156.31 356.5,-132 323.06,-109.23 315.94,-57.71 314.62,-29.81"/>
<polygon fill="midnightblue" stroke="midnightblue" points="318.11,-29.66 314.35,-19.75 311.12,-29.84 318.11,-29.66"/>
</g>
<!-- Node12 -->
<g id="node12" class="node">
<title>Node12</title>
<g id="a_node12"><a xlink:title=" ">
<polygon fill="none" stroke="#bfbfbf" points="939.5,-0.5 939.5,-19.5 987.5,-19.5 987.5,-0.5 939.5,-0.5"/>
<text text-anchor="middle" x="963.5" y="-7.5" font-family="Helvetica,sans-Serif" font-size="10.00">mutex</text>
</a>
</g>
</g>
<!-- Node1&#45;&gt;Node12 -->
<g id="edge56" class="edge">
<title>Node1&#45;&gt;Node12</title>
<path fill="none" stroke="midnightblue" d="M864.46,-168.27C867.14,-147.15 876.34,-92.37 902.5,-56 911.68,-43.23 925.59,-32.57 937.81,-24.84"/>
<polygon fill="midnightblue" stroke="midnightblue" points="939.93,-27.65 946.71,-19.51 936.34,-21.64 939.93,-27.65"/>
</g>
<!-- Node13 -->
<g id="node13" class="node">
<title>Node13</title>
<g id="a_node13"><a xlink:title=" ">
<polygon fill="none" stroke="#bfbfbf" points="1005.5,-0.5 1005.5,-19.5 1049.5,-19.5 1049.5,-0.5 1005.5,-0.5"/>
<text text-anchor="middle" x="1027.5" y="-7.5" font-family="Helvetica,sans-Serif" font-size="10.00">string</text>
</a>
</g>
</g>
<!-- Node1&#45;&gt;Node13 -->
<g id="edge52" class="edge">
<title>Node1&#45;&gt;Node13</title>
<path fill="none" stroke="midnightblue" d="M894.49,-168.41C934,-155.6 1000.65,-127.32 1029.5,-76 1037.44,-61.87 1035.85,-43.13 1032.91,-29.41"/>
<polygon fill="midnightblue" stroke="midnightblue" points="1036.29,-28.49 1030.43,-19.66 1029.51,-30.22 1036.29,-28.49"/>
</g>
<!-- Node14 -->
<g id="node14" class="node">
<title>Node14</title>
<g id="a_node14"><a xlink:title=" ">
<polygon fill="none" stroke="#bfbfbf" points="362,-0.5 362,-19.5 409,-19.5 409,-0.5 362,-0.5"/>
<text text-anchor="middle" x="385.5" y="-7.5" font-family="Helvetica,sans-Serif" font-size="10.00">vector</text>
</a>
</g>
</g>
<!-- Node1&#45;&gt;Node14 -->
<g id="edge55" class="edge">
<title>Node1&#45;&gt;Node14</title>
<path fill="none" stroke="midnightblue" d="M797.87,-175.72C686.74,-172.73 466.74,-162.98 396.5,-132 362.53,-117.02 349.58,-109.93 334.5,-76 325.82,-56.47 344.53,-37.65 361.68,-25.33"/>
<polygon fill="midnightblue" stroke="midnightblue" points="364,-27.99 370.35,-19.51 360.1,-22.18 364,-27.99"/>
</g>
<!-- Node15 -->
<g id="node15" class="node">
<title>Node15</title>
<g id="a_node15"><a xlink:title=" ">
<polygon fill="none" stroke="#bfbfbf" points="871.5,-0.5 871.5,-19.5 921.5,-19.5 921.5,-0.5 871.5,-0.5"/>
<text text-anchor="middle" x="896.5" y="-7.5" font-family="Helvetica,sans-Serif" font-size="10.00">chrono</text>
</a>
</g>
</g>
<!-- Node1&#45;&gt;Node15 -->
<g id="edge54" class="edge">
<title>Node1&#45;&gt;Node15</title>
<path fill="none" stroke="midnightblue" d="M852.06,-168.24C827,-147.97 771.46,-96.44 797.5,-56 804.94,-44.44 835.97,-31.47 861.33,-22.43"/>
<polygon fill="midnightblue" stroke="midnightblue" points="862.76,-25.64 871.06,-19.05 860.47,-19.02 862.76,-25.64"/>
</g>
<!-- Node17 -->
<g id="node17" class="node">
<title>Node17</title>
<g id="a_node17"><a xlink:title=" ">
<polygon fill="none" stroke="#bfbfbf" points="806.5,-56.5 806.5,-75.5 854.5,-75.5 854.5,-56.5 806.5,-56.5"/>
<text text-anchor="middle" x="830.5" y="-63.5" font-family="Helvetica,sans-Serif" font-size="10.00">thread</text>
</a>
</g>
</g>
<!-- Node1&#45;&gt;Node17 -->
<g id="edge50" class="edge">
<title>Node1&#45;&gt;Node17</title>
<path fill="none" stroke="midnightblue" d="M860.91,-168.37C855.56,-150.54 843.19,-109.3 835.98,-85.27"/>
<polygon fill="midnightblue" stroke="midnightblue" points="839.3,-84.16 833.08,-75.59 832.6,-86.18 839.3,-84.16"/>
</g>
<!-- Node19 -->
<g id="node19" class="node">
<title>Node19</title>
<g id="a_node19"><a xlink:href="DeviceManager_8hpp.html" target="_top" xlink:title=" ">
<polygon fill="none" stroke="black" points="1322,-112.5 1322,-131.5 1435,-131.5 1435,-112.5 1322,-112.5"/>
<text text-anchor="middle" x="1378.5" y="-119.5" font-family="Helvetica,sans-Serif" font-size="10.00">DeviceManager.hpp</text>
</a>
</g>
</g>
<!-- Node1&#45;&gt;Node19 -->
<g id="edge23" class="edge">
<title>Node1&#45;&gt;Node19</title>
<path fill="none" stroke="midnightblue" d="M929.25,-170.11C1027.72,-159.78 1212.51,-140.4 1311.63,-130.01"/>
<polygon fill="midnightblue" stroke="midnightblue" points="1312.25,-133.47 1321.83,-128.94 1311.52,-126.5 1312.25,-133.47"/>
</g>
<!-- Node20 -->
<g id="node20" class="node">
<title>Node20</title>
<g id="a_node20"><a xlink:title=" ">
<polygon fill="none" stroke="#bfbfbf" points="1077,-56.5 1077,-75.5 1218,-75.5 1218,-56.5 1077,-56.5"/>
<text text-anchor="middle" x="1147.5" y="-63.5" font-family="Helvetica,sans-Serif" font-size="10.00">rc_genicam_api/system.h</text>
</a>
</g>
</g>
<!-- Node1&#45;&gt;Node20 -->
<g id="edge43" class="edge">
<title>Node1&#45;&gt;Node20</title>
<path fill="none" stroke="midnightblue" d="M929.44,-169.36C969.35,-162.99 1020.47,-151.66 1062.5,-132 1089.15,-119.53 1115.36,-97.61 1131.48,-82.7"/>
<polygon fill="midnightblue" stroke="midnightblue" points="1134.08,-85.06 1138.93,-75.64 1129.26,-79.98 1134.08,-85.06"/>
</g>
<!-- Node23 -->
<g id="node23" class="node">
<title>Node23</title>
<g id="a_node23"><a xlink:title=" ">
<polygon fill="none" stroke="#bfbfbf" points="1907.5,-56.5 1907.5,-75.5 1967.5,-75.5 1967.5,-56.5 1907.5,-56.5"/>
<text text-anchor="middle" x="1937.5" y="-63.5" font-family="Helvetica,sans-Serif" font-size="10.00">iostream</text>
</a>
</g>
</g>
<!-- Node1&#45;&gt;Node23 -->
<g id="edge48" class="edge">
<title>Node1&#45;&gt;Node23</title>
<path fill="none" stroke="midnightblue" d="M929.07,-174.13C1091.89,-166.26 1527.62,-140.55 1897.24,-76.06"/>
<polygon fill="midnightblue" stroke="midnightblue" points="1898.09,-79.47 1907.33,-74.29 1896.87,-72.57 1898.09,-79.47"/>
</g>
<!-- Node29 -->
<g id="node29" class="node">
<title>Node29</title>
<g id="a_node29"><a xlink:href="GlobalSettings_8hpp.html" target="_top" xlink:title=" ">
<polygon fill="none" stroke="black" points="911,-56.5 911,-75.5 1020,-75.5 1020,-56.5 911,-56.5"/>
<text text-anchor="middle" x="965.5" y="-63.5" font-family="Helvetica,sans-Serif" font-size="10.00">GlobalSettings.hpp</text>
</a>
</g>
</g>
<!-- Node1&#45;&gt;Node29 -->
<g id="edge35" class="edge">
<title>Node1&#45;&gt;Node29</title>
<path fill="none" stroke="midnightblue" d="M871.5,-168.37C888.56,-149.97 928.71,-106.67 950.62,-83.05"/>
<polygon fill="midnightblue" stroke="midnightblue" points="953.3,-85.3 957.53,-75.59 948.17,-80.54 953.3,-85.3"/>
</g>
<!-- Node30 -->
<g id="node30" class="node">
<title>Node30</title>
<g id="a_node30"><a xlink:title=" ">
<polygon fill="none" stroke="#bfbfbf" points="2023.5,-112.5 2023.5,-131.5 2163.5,-131.5 2163.5,-112.5 2023.5,-112.5"/>
<text text-anchor="middle" x="2093.5" y="-119.5" font-family="Helvetica,sans-Serif" font-size="10.00">rc_genicam_api/stream.h</text>
</a>
</g>
</g>
<!-- Node1&#45;&gt;Node30 -->
<g id="edge45" class="edge">
<title>Node1&#45;&gt;Node30</title>
<path fill="none" stroke="midnightblue" d="M929.16,-175.97C1104.65,-172.89 1599.18,-162 2009.5,-132 2010.78,-131.91 2012.06,-131.81 2013.36,-131.71"/>
<polygon fill="midnightblue" stroke="midnightblue" points="2013.73,-135.19 2023.41,-130.87 2013.15,-128.21 2013.73,-135.19"/>
</g>
<!-- Node31 -->
<g id="node31" class="node">
<title>Node31</title>
<g id="a_node31"><a xlink:title=" ">
<polygon fill="none" stroke="#bfbfbf" points="2182,-112.5 2182,-131.5 2247,-131.5 2247,-112.5 2182,-112.5"/>
<text text-anchor="middle" x="2214.5" y="-119.5" font-family="Helvetica,sans-Serif" font-size="10.00">stdexcept</text>
</a>
</g>
</g>
<!-- Node1&#45;&gt;Node31 -->
<g id="edge53" class="edge">
<title>Node1&#45;&gt;Node31</title>
<path fill="none" stroke="midnightblue" d="M929.13,-176.28C1156.09,-173.55 1907.74,-162.47 2171.28,-131.87"/>
<polygon fill="midnightblue" stroke="midnightblue" points="2172.07,-135.3 2181.58,-130.63 2171.23,-128.35 2172.07,-135.3"/>
</g>
<!-- Node2&#45;&gt;Node3 -->
<g id="edge2" class="edge">
<title>Node2&#45;&gt;Node3</title>
<path fill="none" stroke="midnightblue" d="M583.92,-112.44C564.51,-103.78 534.05,-89.75 508.5,-76 493.4,-67.87 491.57,-61.98 475.5,-56 457.16,-49.17 349.38,-32.08 276.77,-21.03"/>
<polygon fill="midnightblue" stroke="midnightblue" points="277.18,-17.56 266.77,-19.52 276.13,-24.48 277.18,-17.56"/>
</g>
<!-- Node2&#45;&gt;Node4 -->
<g id="edge3" class="edge">
<title>Node2&#45;&gt;Node4</title>
<path fill="none" stroke="midnightblue" d="M608.95,-112.08C613.51,-104.61 620.17,-93.72 625.79,-84.52"/>
<polygon fill="midnightblue" stroke="midnightblue" points="628.92,-86.11 631.15,-75.75 622.95,-82.46 628.92,-86.11"/>
</g>
<!-- Node2&#45;&gt;Node9 -->
<g id="edge16" class="edge">
<title>Node2&#45;&gt;Node9</title>
<path fill="none" stroke="midnightblue" d="M597.73,-112.43C588.33,-98.96 568.51,-72.68 546.5,-56 528.33,-42.22 505.27,-31.11 486.53,-23.37"/>
<polygon fill="midnightblue" stroke="midnightblue" points="487.77,-20.09 477.18,-19.63 485.17,-26.59 487.77,-20.09"/>
</g>
<!-- Node2&#45;&gt;Node12 -->
<g id="edge19" class="edge">
<title>Node2&#45;&gt;Node12</title>
<path fill="none" stroke="midnightblue" d="M627.55,-112.43C664.07,-99.54 735.79,-74.67 797.5,-56 853.14,-39.17 869.74,-36.32 929.39,-20.28"/>
<polygon fill="midnightblue" stroke="midnightblue" points="930.61,-23.58 939.35,-17.59 928.78,-16.82 930.61,-23.58"/>
</g>
<!-- Node2&#45;&gt;Node14 -->
<g id="edge21" class="edge">
<title>Node2&#45;&gt;Node14</title>
<path fill="none" stroke="midnightblue" d="M592.94,-112.46C575.97,-99.05 541.19,-72.83 508.5,-56 479.54,-41.09 444.47,-28.78 419.2,-20.82"/>
<polygon fill="midnightblue" stroke="midnightblue" points="419.94,-17.39 409.36,-17.79 417.88,-24.08 419.94,-17.39"/>
</g>
<!-- Node2&#45;&gt;Node15 -->
<g id="edge17" class="edge">
<title>Node2&#45;&gt;Node15</title>
<path fill="none" stroke="midnightblue" d="M618.67,-112.43C646.51,-96.78 704.9,-64.44 726.5,-56 726.7,-55.92 812.07,-33.34 861.74,-20.2"/>
<polygon fill="midnightblue" stroke="midnightblue" points="862.68,-23.57 871.45,-17.63 860.89,-16.8 862.68,-23.57"/>
</g>
<!-- Node16 -->
<g id="node16" class="node">
<title>Node16</title>
<g id="a_node16"><a xlink:title=" ">
<polygon fill="none" stroke="#bfbfbf" points="351,-56.5 351,-75.5 416,-75.5 416,-56.5 351,-56.5"/>
<text text-anchor="middle" x="383.5" y="-63.5" font-family="Helvetica,sans-Serif" font-size="10.00">functional</text>
</a>
</g>
</g>
<!-- Node2&#45;&gt;Node16 -->
<g id="edge18" class="edge">
<title>Node2&#45;&gt;Node16</title>
<path fill="none" stroke="midnightblue" d="M568.64,-112.44C529.91,-102.94 467.38,-87.59 425.86,-77.4"/>
<polygon fill="midnightblue" stroke="midnightblue" points="426.59,-73.97 416.04,-74.99 424.92,-80.77 426.59,-73.97"/>
</g>
<!-- Node2&#45;&gt;Node17 -->
<g id="edge20" class="edge">
<title>Node2&#45;&gt;Node17</title>
<path fill="none" stroke="midnightblue" d="M639.47,-112.44C682.55,-102.2 754.17,-85.16 796.4,-75.11"/>
<polygon fill="midnightblue" stroke="midnightblue" points="797.3,-78.5 806.22,-72.78 795.68,-71.69 797.3,-78.5"/>
</g>
<!-- Node18 -->
<g id="node18" class="node">
<title>Node18</title>
<g id="a_node18"><a xlink:title=" ">
<polygon fill="none" stroke="#bfbfbf" points="434.5,-56.5 434.5,-75.5 466.5,-75.5 466.5,-56.5 434.5,-56.5"/>
<text text-anchor="middle" x="450.5" y="-63.5" font-family="Helvetica,sans-Serif" font-size="10.00">list</text>
</a>
</g>
</g>
<!-- Node2&#45;&gt;Node18 -->
<g id="edge22" class="edge">
<title>Node2&#45;&gt;Node18</title>
<path fill="none" stroke="midnightblue" d="M579.26,-112.44C551.19,-102.54 505.15,-86.29 476.4,-76.14"/>
<polygon fill="midnightblue" stroke="midnightblue" points="477.25,-72.73 466.65,-72.7 474.92,-79.33 477.25,-72.73"/>
</g>
<!-- Node4&#45;&gt;Node3 -->
<g id="edge5" class="edge">
<title>Node4&#45;&gt;Node3</title>
<path fill="none" stroke="midnightblue" d="M598.39,-60.35C534.4,-52.52 401.05,-36.1 277.61,-20.13"/>
<polygon fill="midnightblue" stroke="midnightblue" points="277.97,-16.65 267.6,-18.84 277.07,-23.59 277.97,-16.65"/>
</g>
<!-- Node5 -->
<g id="node5" class="node">
<title>Node5</title>
<g id="a_node5"><a xlink:title=" ">
<polygon fill="none" stroke="#bfbfbf" points="754,-0.5 754,-19.5 853,-19.5 853,-0.5 754,-0.5"/>
<text text-anchor="middle" x="803.5" y="-7.5" font-family="Helvetica,sans-Serif" font-size="10.00">GenApi/GenApi.h</text>
</a>
</g>
</g>
<!-- Node4&#45;&gt;Node5 -->
<g id="edge4" class="edge">
<title>Node4&#45;&gt;Node5</title>
<path fill="none" stroke="midnightblue" d="M662.96,-56.44C691.18,-47.32 736.04,-32.81 767.47,-22.65"/>
<polygon fill="midnightblue" stroke="midnightblue" points="768.72,-25.92 777.16,-19.52 766.57,-19.26 768.72,-25.92"/>
</g>
<!-- Node4&#45;&gt;Node6 -->
<g id="edge6" class="edge">
<title>Node4&#45;&gt;Node6</title>
<path fill="none" stroke="midnightblue" d="M598.35,-61.88C516.91,-55.14 319.8,-38.42 143.21,-20.05"/>
<polygon fill="midnightblue" stroke="midnightblue" points="143.53,-16.56 133.22,-19 142.8,-23.52 143.53,-16.56"/>
</g>
<!-- Node4&#45;&gt;Node7 -->
<g id="edge7" class="edge">
<title>Node4&#45;&gt;Node7</title>
<path fill="none" stroke="midnightblue" d="M674.56,-62.47C764.75,-56.38 998.73,-39.97 1205.48,-20.07"/>
<polygon fill="midnightblue" stroke="midnightblue" points="1205.99,-23.53 1215.61,-19.09 1205.32,-16.56 1205.99,-23.53"/>
</g>
<!-- Node8 -->
<g id="node8" class="node">
<title>Node8</title>
<g id="a_node8"><a xlink:title=" ">
<polygon fill="none" stroke="#bfbfbf" points="495.5,-0.5 495.5,-19.5 667.5,-19.5 667.5,-0.5 495.5,-0.5"/>
<text text-anchor="middle" x="581.5" y="-7.5" font-family="Helvetica,sans-Serif" font-size="10.00">rc_genicam_api/pixel_formats.h</text>
</a>
</g>
</g>
<!-- Node4&#45;&gt;Node8 -->
<g id="edge8" class="edge">
<title>Node4&#45;&gt;Node8</title>
<path fill="none" stroke="midnightblue" d="M627.42,-56.08C619.33,-48.14 607.3,-36.34 597.59,-26.8"/>
<polygon fill="midnightblue" stroke="midnightblue" points="600,-24.26 590.41,-19.75 595.1,-29.25 600,-24.26"/>
</g>
<!-- Node4&#45;&gt;Node9 -->
<g id="edge9" class="edge">
<title>Node4&#45;&gt;Node9</title>
<path fill="none" stroke="midnightblue" d="M607.34,-56.44C574.79,-46.89 522.12,-31.43 487.4,-21.24"/>
<polygon fill="midnightblue" stroke="midnightblue" points="488.26,-17.85 477.68,-18.39 486.29,-24.56 488.26,-17.85"/>
</g>
<!-- Node10 -->
<g id="node10" class="node">
<title>Node10</title>
<g id="a_node10"><a xlink:title=" ">
<polygon fill="none" stroke="#bfbfbf" points="685.5,-0.5 685.5,-19.5 735.5,-19.5 735.5,-0.5 685.5,-0.5"/>
<text text-anchor="middle" x="710.5" y="-7.5" font-family="Helvetica,sans-Serif" font-size="10.00">cstdint</text>
</a>
</g>
</g>
<!-- Node4&#45;&gt;Node10 -->
<g id="edge10" class="edge">
<title>Node4&#45;&gt;Node10</title>
<path fill="none" stroke="midnightblue" d="M648.39,-56.32C659.65,-48.11 676.79,-35.6 690.21,-25.81"/>
<polygon fill="midnightblue" stroke="midnightblue" points="692.38,-28.56 698.39,-19.83 688.25,-22.9 692.38,-28.56"/>
</g>
<!-- Node4&#45;&gt;Node11 -->
<g id="edge11" class="edge">
<title>Node4&#45;&gt;Node11</title>
<path fill="none" stroke="midnightblue" d="M598.21,-59.87C545.38,-52.58 446.95,-38.27 353.78,-20.14"/>
<polygon fill="midnightblue" stroke="midnightblue" points="354.4,-16.69 343.91,-18.2 353.05,-23.56 354.4,-16.69"/>
</g>
<!-- Node4&#45;&gt;Node12 -->
<g id="edge12" class="edge">
<title>Node4&#45;&gt;Node12</title>
<path fill="none" stroke="midnightblue" d="M674.81,-60.56C729.3,-53.93 832.44,-40.24 929.46,-20.01"/>
<polygon fill="midnightblue" stroke="midnightblue" points="930.37,-23.4 939.43,-17.91 928.92,-16.55 930.37,-23.4"/>
</g>
<!-- Node4&#45;&gt;Node13 -->
<g id="edge13" class="edge">
<title>Node4&#45;&gt;Node13</title>
<path fill="none" stroke="midnightblue" d="M674.66,-62.23C739,-57.12 873.21,-44.61 995.36,-19.95"/>
<polygon fill="midnightblue" stroke="midnightblue" points="996.16,-23.35 1005.25,-17.92 994.76,-16.5 996.16,-23.35"/>
</g>
<!-- Node4&#45;&gt;Node14 -->
<g id="edge14" class="edge">
<title>Node4&#45;&gt;Node14</title>
<path fill="none" stroke="midnightblue" d="M598.14,-57.84C556.52,-49.9 487.89,-36.32 419.36,-20.08"/>
<polygon fill="midnightblue" stroke="midnightblue" points="419.79,-16.59 409.25,-17.67 418.16,-23.4 419.79,-16.59"/>
</g>
<!-- Node4&#45;&gt;Node15 -->
<g id="edge15" class="edge">
<title>Node4&#45;&gt;Node15</title>
<path fill="none" stroke="midnightblue" d="M674.64,-58.15C717.67,-50.27 789.96,-36.52 861.24,-20.18"/>
<polygon fill="midnightblue" stroke="midnightblue" points="862.34,-23.52 871.29,-17.86 860.76,-16.7 862.34,-23.52"/>
</g>
<!-- Node19&#45;&gt;Node4 -->
<g id="edge24" class="edge">
<title>Node19&#45;&gt;Node4</title>
<path fill="none" stroke="midnightblue" d="M1321.81,-116.87C1180.81,-106.61 816.15,-80.07 684.66,-70.51"/>
<polygon fill="midnightblue" stroke="midnightblue" points="684.73,-67 674.5,-69.77 684.22,-73.98 684.73,-67"/>
</g>
<!-- Node19&#45;&gt;Node7 -->
<g id="edge27" class="edge">
<title>Node19&#45;&gt;Node7</title>
<path fill="none" stroke="midnightblue" d="M1355.69,-112.35C1339.25,-105.02 1317.71,-92.97 1304.5,-76 1294.08,-62.62 1289.06,-43.8 1286.66,-29.85"/>
<polygon fill="midnightblue" stroke="midnightblue" points="1290.12,-29.31 1285.24,-19.9 1283.19,-30.3 1290.12,-29.31"/>
</g>
<!-- Node19&#45;&gt;Node20 -->
<g id="edge25" class="edge">
<title>Node19&#45;&gt;Node20</title>
<path fill="none" stroke="midnightblue" d="M1341.9,-112.44C1301.77,-103.06 1237.3,-87.99 1193.72,-77.8"/>
<polygon fill="midnightblue" stroke="midnightblue" points="1194.47,-74.38 1183.93,-75.52 1192.87,-81.2 1194.47,-74.38"/>
</g>
<!-- Node21 -->
<g id="node21" class="node">
<title>Node21</title>
<g id="a_node21"><a xlink:title=" ">
<polygon fill="none" stroke="#bfbfbf" points="1500,-56.5 1500,-75.5 1649,-75.5 1649,-56.5 1500,-56.5"/>
<text text-anchor="middle" x="1574.5" y="-63.5" font-family="Helvetica,sans-Serif" font-size="10.00">rc_genicam_api/interface.h</text>
</a>
</g>
</g>
<!-- Node19&#45;&gt;Node21 -->
<g id="edge26" class="edge">
<title>Node19&#45;&gt;Node21</title>
<path fill="none" stroke="midnightblue" d="M1409.56,-112.44C1443.1,-103.2 1496.7,-88.44 1533.64,-78.26"/>
<polygon fill="midnightblue" stroke="midnightblue" points="1534.88,-81.55 1543.59,-75.52 1533.02,-74.8 1534.88,-81.55"/>
</g>
<!-- Node22 -->
<g id="node22" class="node">
<title>Node22</title>
<g id="a_node22"><a xlink:title=" ">
<polygon fill="none" stroke="#bfbfbf" points="1667.5,-56.5 1667.5,-75.5 1839.5,-75.5 1839.5,-56.5 1667.5,-56.5"/>
<text text-anchor="middle" x="1753.5" y="-63.5" font-family="Helvetica,sans-Serif" font-size="10.00">rc_genicam_api/nodemap_out.h</text>
</a>
</g>
</g>
<!-- Node19&#45;&gt;Node22 -->
<g id="edge28" class="edge">
<title>Node19&#45;&gt;Node22</title>
<path fill="none" stroke="midnightblue" d="M1435.05,-112.86C1501.65,-103.27 1612.27,-87.34 1684.03,-77"/>
<polygon fill="midnightblue" stroke="midnightblue" points="1684.92,-80.41 1694.32,-75.52 1683.93,-73.48 1684.92,-80.41"/>
</g>
<!-- Node19&#45;&gt;Node23 -->
<g id="edge29" class="edge">
<title>Node19&#45;&gt;Node23</title>
<path fill="none" stroke="midnightblue" d="M1435.37,-118.7C1529.52,-114.31 1723.77,-102.83 1897.27,-75.98"/>
<polygon fill="midnightblue" stroke="midnightblue" points="1898.01,-79.41 1907.35,-74.4 1896.93,-72.49 1898.01,-79.41"/>
</g>
<!-- Node24 -->
<g id="node24" class="node">
<title>Node24</title>
<g id="a_node24"><a xlink:title=" ">
<polygon fill="none" stroke="#bfbfbf" points="1067.5,-0.5 1067.5,-19.5 1123.5,-19.5 1123.5,-0.5 1067.5,-0.5"/>
<text text-anchor="middle" x="1095.5" y="-7.5" font-family="Helvetica,sans-Serif" font-size="10.00">sstream</text>
</a>
</g>
</g>
<!-- Node19&#45;&gt;Node24 -->
<g id="edge30" class="edge">
<title>Node19&#45;&gt;Node24</title>
<path fill="none" stroke="midnightblue" d="M1359.63,-112.31C1331.23,-99.37 1275.71,-74.56 1227.5,-56 1195.64,-43.73 1158.84,-31.33 1132.2,-22.66"/>
<polygon fill="midnightblue" stroke="midnightblue" points="1133.11,-19.28 1122.52,-19.53 1130.96,-25.94 1133.11,-19.28"/>
</g>
<!-- Node25 -->
<g id="node25" class="node">
<title>Node25</title>
<g id="a_node25"><a xlink:title=" ">
<polygon fill="none" stroke="#bfbfbf" points="1857.5,-56.5 1857.5,-75.5 1889.5,-75.5 1889.5,-56.5 1857.5,-56.5"/>
<text text-anchor="middle" x="1873.5" y="-63.5" font-family="Helvetica,sans-Serif" font-size="10.00">set</text>
</a>
</g>
</g>
<!-- Node19&#45;&gt;Node25 -->
<g id="edge31" class="edge">
<title>Node19&#45;&gt;Node25</title>
<path fill="none" stroke="midnightblue" d="M1435.29,-120.12C1522.45,-117.78 1694.34,-109.23 1847.23,-75.75"/>
<polygon fill="midnightblue" stroke="midnightblue" points="1848.27,-79.1 1857.27,-73.5 1846.75,-72.27 1848.27,-79.1"/>
</g>
<!-- Node26 -->
<g id="node26" class="node">
<title>Node26</title>
<g id="a_node26"><a xlink:title=" ">
<polygon fill="none" stroke="#bfbfbf" points="1313,-56.5 1313,-75.5 1382,-75.5 1382,-56.5 1313,-56.5"/>
<text text-anchor="middle" x="1347.5" y="-63.5" font-family="Helvetica,sans-Serif" font-size="10.00">arpa/inet.h</text>
</a>
</g>
</g>
<!-- Node19&#45;&gt;Node26 -->
<g id="edge32" class="edge">
<title>Node19&#45;&gt;Node26</title>
<path fill="none" stroke="midnightblue" d="M1373.38,-112.08C1369.09,-104.61 1362.84,-93.72 1357.56,-84.52"/>
<polygon fill="midnightblue" stroke="midnightblue" points="1360.54,-82.68 1352.52,-75.75 1354.47,-86.17 1360.54,-82.68"/>
</g>
<!-- Node27 -->
<g id="node27" class="node">
<title>Node27</title>
<g id="a_node27"><a xlink:title=" ">
<polygon fill="none" stroke="#bfbfbf" points="1141.5,-0.5 1141.5,-19.5 1197.5,-19.5 1197.5,-0.5 1141.5,-0.5"/>
<text text-anchor="middle" x="1169.5" y="-7.5" font-family="Helvetica,sans-Serif" font-size="10.00">iomanip</text>
</a>
</g>
</g>
<!-- Node19&#45;&gt;Node27 -->
<g id="edge33" class="edge">
<title>Node19&#45;&gt;Node27</title>
<path fill="none" stroke="midnightblue" d="M1384.2,-112.35C1392.35,-98.77 1404.96,-72.35 1391.5,-56 1338.54,8.33 1288.95,-37.61 1207.5,-20 1207.4,-19.98 1207.3,-19.96 1207.2,-19.94"/>
<polygon fill="midnightblue" stroke="midnightblue" points="1208.22,-16.58 1197.69,-17.81 1206.69,-23.41 1208.22,-16.58"/>
</g>
<!-- Node28 -->
<g id="node28" class="node">
<title>Node28</title>
<g id="a_node28"><a xlink:title=" ">
<polygon fill="none" stroke="#bfbfbf" points="1438.5,-56.5 1438.5,-75.5 1482.5,-75.5 1482.5,-56.5 1438.5,-56.5"/>
<text text-anchor="middle" x="1460.5" y="-63.5" font-family="Helvetica,sans-Serif" font-size="10.00">regex</text>
</a>
</g>
</g>
<!-- Node19&#45;&gt;Node28 -->
<g id="edge34" class="edge">
<title>Node19&#45;&gt;Node28</title>
<path fill="none" stroke="midnightblue" d="M1391.67,-112.32C1404.35,-103.98 1423.73,-91.21 1438.71,-81.35"/>
<polygon fill="midnightblue" stroke="midnightblue" points="1440.93,-84.08 1447.36,-75.65 1437.08,-78.23 1440.93,-84.08"/>
</g>
<!-- Node29&#45;&gt;Node9 -->
<g id="edge36" class="edge">
<title>Node29&#45;&gt;Node9</title>
<path fill="none" stroke="midnightblue" d="M910.63,-60.09C798.03,-49.98 547.05,-27.28 487.84,-19.65"/>
<polygon fill="midnightblue" stroke="midnightblue" points="488.05,-16.14 477.65,-18.15 487.03,-23.07 488.05,-16.14"/>
</g>
<!-- Node29&#45;&gt;Node12 -->
<g id="edge37" class="edge">
<title>Node29&#45;&gt;Node12</title>
<path fill="none" stroke="midnightblue" d="M965.17,-56.08C964.91,-49.01 964.53,-38.86 964.2,-29.99"/>
<polygon fill="midnightblue" stroke="midnightblue" points="967.69,-29.61 963.82,-19.75 960.7,-29.87 967.69,-29.61"/>
</g>
<!-- Node29&#45;&gt;Node13 -->
<g id="edge38" class="edge">
<title>Node29&#45;&gt;Node13</title>
<path fill="none" stroke="midnightblue" d="M975.46,-56.32C984.63,-48.34 998.44,-36.31 1009.53,-26.65"/>
<polygon fill="midnightblue" stroke="midnightblue" points="1012.12,-29.04 1017.36,-19.83 1007.52,-23.76 1012.12,-29.04"/>
</g>
<!-- Node29&#45;&gt;Node15 -->
<g id="edge40" class="edge">
<title>Node29&#45;&gt;Node15</title>
<path fill="none" stroke="midnightblue" d="M954.41,-56.32C944.01,-48.18 928.24,-35.84 915.78,-26.09"/>
<polygon fill="midnightblue" stroke="midnightblue" points="917.82,-23.24 907.79,-19.83 913.51,-28.75 917.82,-23.24"/>
</g>
<!-- Node29&#45;&gt;Node24 -->
<g id="edge39" class="edge">
<title>Node29&#45;&gt;Node24</title>
<path fill="none" stroke="midnightblue" d="M986.1,-56.44C1007.49,-47.56 1041.18,-33.56 1065.52,-23.45"/>
<polygon fill="midnightblue" stroke="midnightblue" points="1067.11,-26.58 1075,-19.52 1064.42,-20.12 1067.11,-26.58"/>
</g>
<!-- Node29&#45;&gt;Node27 -->
<g id="edge41" class="edge">
<title>Node29&#45;&gt;Node27</title>
<path fill="none" stroke="midnightblue" d="M997.82,-56.44C1034.13,-46.83 1092.99,-31.25 1131.47,-21.07"/>
<polygon fill="midnightblue" stroke="midnightblue" points="1132.5,-24.42 1141.27,-18.47 1130.71,-17.65 1132.5,-24.42"/>
</g>
</g>
</svg>
        <g id="navigator" transform="translate(0 0)" fill="#404254">
                <rect fill="#f2f5e9" fill-opacity="0.5" stroke="#606060" stroke-width=".5" x="0" y="0" width="60" height="60"/>
                <use id="zoomplus" xlink:href="#zoomPlus" x="17" y="9" onmousedown="handleZoom(evt,'in')"/>
                <use id="zoomminus" xlink:href="#zoomMin" x="42" y="9" onmousedown="handleZoom(evt,'out')"/>
                <use id="reset" xlink:href="#resetDef" x="30" y="36" onmousedown="handleReset()"/>
                <g id="arrowUp" xlink:href="#dirArrow" transform="translate(30 24)" onmousedown="handlePan(0,-1)">
                  <use xlink:href="#rim" fill="#404040">
                        <set attributeName="fill" to="#808080" begin="arrowUp.mouseover" end="arrowUp.mouseout"/>
                  </use>
                  <path fill="none" stroke="white" stroke-width="1.5" d="M0,-3.0v7 M-2.5,-0.5L0,-3.0L2.5,-0.5"/>
                </g>
                <g id="arrowRight" xlink:href="#dirArrow" transform="rotate(90) translate(36 -43)" onmousedown="handlePan(1,0)">
                  <use xlink:href="#rim" fill="#404040">
                        <set attributeName="fill" to="#808080" begin="arrowRight.mouseover" end="arrowRight.mouseout"/>
                  </use>
                  <path fill="none" stroke="white" stroke-width="1.5" d="M0,-3.0v7 M-2.5,-0.5L0,-3.0L2.5,-0.5"/>
                </g>
                <g id="arrowDown" xlink:href="#dirArrow" transform="rotate(180) translate(-30 -48)" onmousedown="handlePan(0,1)">
                  <use xlink:href="#rim" fill="#404040">
                        <set attributeName="fill" to="#808080" begin="arrowDown.mouseover" end="arrowDown.mouseout"/>
                  </use>
                  <path fill="none" stroke="white" stroke-width="1.5" d="M0,-3.0v7 M-2.5,-0.5L0,-3.0L2.5,-0.5"/>
                </g>
                <g id="arrowLeft" xlink:href="#dirArrow" transform="rotate(270) translate(-36 17)" onmousedown="handlePan(-1,0)">
                  <use xlink:href="#rim" fill="#404040">
                        <set attributeName="fill" to="#808080" begin="arrowLeft.mouseover" end="arrowLeft.mouseout"/>
                  </use>
                  <path fill="none" stroke="white" stroke-width="1.5" d="M0,-3.0v7 M-2.5,-0.5L0,-3.0L2.5,-0.5"/>
                </g>
        </g>
        <svg viewBox="0 0 15 15" width="100%" height="30px" preserveAspectRatio="xMaxYMin meet">
         <g id="arrow_out" transform="scale(0.3 0.3)">
          <a xlink:href="StreamManager_8cpp__incl_org.svg" target="_base">
           <rect id="button" ry="5" rx="5" y="6" x="6" height="38" width="38"
                fill="#f2f5e9" fill-opacity="0.5" stroke="#606060" stroke-width="1.0"/>
           <path id="arrow"
             d="M 11.500037,31.436501 C 11.940474,20.09759 22.043105,11.32322 32.158766,21.979434 L 37.068811,17.246167 C 37.068811,17.246167 37.088388,32 37.088388,32 L 22.160133,31.978069 C 22.160133,31.978069 26.997745,27.140456 26.997745,27.140456 C 18.528582,18.264221 13.291696,25.230495 11.500037,31.436501 z"
             style="fill:#404040;"/>
          </a>
         </g>
        </svg>
</svg>
