<?xml version="1.0" encoding="UTF-8" standalone="no"?>
<!DOCTYPE svg PUBLIC "-//W3C//DTD SVG 1.1//EN"
 "http://www.w3.org/Graphics/SVG/1.1/DTD/svg11.dtd">
<!-- Generated by graphviz version 2.43.0 (0)
 -->
<!-- Title: src/SystemManager.hpp Pages: 1 -->
<!--zoomable 196 -->
<svg id="main" version="1.1" xmlns="http://www.w3.org/2000/svg" xmlns:xlink="http://www.w3.org/1999/xlink" xml:space="preserve" onload="init(evt)">
<style type="text/css"><![CDATA[
.edge:hover path { stroke: red; }
.edge:hover polygon { stroke: red; fill: red; }
]]></style>
<script type="text/javascript"><![CDATA[
var edges = document.getElementsByTagName('g');
if (edges && edges.length) {
  for (var i=0;i<edges.length;i++) {
    if (edges[i].id.substr(0,4)=='edge') {
      edges[i].setAttribute('class','edge');
    }
  }
}
]]></script>
        <defs>
                <circle id="rim" cx="0" cy="0" r="7"/>
                <circle id="rim2" cx="0" cy="0" r="3.5"/>
                <g id="zoomPlus">
                        <use xlink:href="#rim" fill="#404040">
                                <set attributeName="fill" to="#808080" begin="zoomplus.mouseover" end="zoomplus.mouseout"/>
                        </use>
                        <path d="M-4,0h8M0,-4v8" fill="none" stroke="white" stroke-width="1.5" pointer-events="none"/>
                </g>
                <g id="zoomMin">
                        <use xlink:href="#rim" fill="#404040">
                                <set attributeName="fill" to="#808080" begin="zoomminus.mouseover" end="zoomminus.mouseout"/>
                        </use>
                        <path d="M-4,0h8" fill="none" stroke="white" stroke-width="1.5" pointer-events="none"/>
                </g>
                <g id="dirArrow">
                        <path fill="none" stroke="white" stroke-width="1.5" d="M0,-3.0v7 M-2.5,-0.5L0,-3.0L2.5,-0.5"/>
                </g>
               <g id="resetDef">
                       <use xlink:href="#rim2" fill="#404040">
                               <set attributeName="fill" to="#808080" begin="reset.mouseover" end="reset.mouseout"/>
                       </use>
               </g>
        </defs>

<script type="text/javascript">
var viewWidth = 2070;
var viewHeight = 196;
var sectionId = 'dynsection-0';
</script>
<script xlink:href="svgpan.js"/>
<svg id="graph" class="graph">
<g id="viewport">
<title>src/SystemManager.hpp</title>
<!-- Node1 -->
<g id="node1" class="node">
<title>Node1</title>
<g id="a_node1"><a xlink:title=" ">
<polygon fill="#bfbfbf" stroke="black" points="173.17,-168.5 173.17,-187.5 307.17,-187.5 307.17,-168.5 173.17,-168.5"/>
<text text-anchor="middle" x="240.17" y="-175.5" font-family="Helvetica,sans-Serif" font-size="10.00">src/SystemManager.hpp</text>
</a>
</g>
</g>
<!-- Node2 -->
<g id="node2" class="node">
<title>Node2</title>
<g id="a_node2"><a xlink:href="DeviceManager_8hpp.html" target="_top" xlink:title=" ">
<polygon fill="none" stroke="black" points="1596.67,-112.5 1596.67,-131.5 1709.67,-131.5 1709.67,-112.5 1596.67,-112.5"/>
<text text-anchor="middle" x="1653.17" y="-119.5" font-family="Helvetica,sans-Serif" font-size="10.00">DeviceManager.hpp</text>
</a>
</g>
</g>
<!-- Node1&#45;&gt;Node2 -->
<g id="edge1" class="edge">
<title>Node1&#45;&gt;Node2</title>
<path fill="none" stroke="midnightblue" d="M307.37,-174.43C545.7,-165.32 1348.88,-134.63 1586.45,-125.55"/>
<polygon fill="midnightblue" stroke="midnightblue" points="1586.8,-129.04 1596.66,-125.16 1586.54,-122.04 1586.8,-129.04"/>
</g>
<!-- Node9 -->
<g id="node9" class="node">
<title>Node9</title>
<g id="a_node9"><a xlink:title=" ">
<polygon fill="none" stroke="#bfbfbf" points="14.17,-0.5 14.17,-19.5 64.17,-19.5 64.17,-0.5 14.17,-0.5"/>
<text text-anchor="middle" x="39.17" y="-7.5" font-family="Helvetica,sans-Serif" font-size="10.00">atomic</text>
</a>
</g>
</g>
<!-- Node1&#45;&gt;Node9 -->
<g id="edge56" class="edge">
<title>Node1&#45;&gt;Node9</title>
<path fill="none" stroke="midnightblue" d="M172.86,-174.02C132.04,-169.38 80.6,-158.24 42.17,-132 10.98,-110.71 -8.09,-91.72 4.17,-56 7.89,-45.16 15.4,-34.92 22.52,-26.96"/>
<polygon fill="midnightblue" stroke="midnightblue" points="25.22,-29.19 29.61,-19.55 20.17,-24.35 25.22,-29.19"/>
</g>
<!-- Node13 -->
<g id="node13" class="node">
<title>Node13</title>
<g id="a_node13"><a xlink:title=" ">
<polygon fill="none" stroke="#bfbfbf" points="942.17,-0.5 942.17,-19.5 986.17,-19.5 986.17,-0.5 942.17,-0.5"/>
<text text-anchor="middle" x="964.17" y="-7.5" font-family="Helvetica,sans-Serif" font-size="10.00">string</text>
</a>
</g>
</g>
<!-- Node1&#45;&gt;Node13 -->
<g id="edge55" class="edge">
<title>Node1&#45;&gt;Node13</title>
<path fill="none" stroke="midnightblue" d="M273.12,-168.46C337.79,-151.59 485.76,-112.46 609.17,-76 637.34,-67.68 643.52,-62.47 672.17,-56 783.27,-30.9 816.81,-43.64 932.01,-19.97"/>
<polygon fill="midnightblue" stroke="midnightblue" points="932.85,-23.36 941.92,-17.88 931.41,-16.51 932.85,-23.36"/>
</g>
<!-- Node15 -->
<g id="node15" class="node">
<title>Node15</title>
<g id="a_node15"><a xlink:title=" ">
<polygon fill="none" stroke="#bfbfbf" points="82.17,-0.5 82.17,-19.5 132.17,-19.5 132.17,-0.5 82.17,-0.5"/>
<text text-anchor="middle" x="107.17" y="-7.5" font-family="Helvetica,sans-Serif" font-size="10.00">chrono</text>
</a>
</g>
</g>
<!-- Node1&#45;&gt;Node15 -->
<g id="edge57" class="edge">
<title>Node1&#45;&gt;Node15</title>
<path fill="none" stroke="midnightblue" d="M173.78,-168.47C119.02,-157.46 45.04,-132.45 11.17,-76 6.6,-68.38 6.4,-63.5 11.17,-56 18.32,-44.75 48.09,-31.84 72.6,-22.73"/>
<polygon fill="midnightblue" stroke="midnightblue" points="73.81,-26.02 82.02,-19.32 71.43,-19.44 73.81,-26.02"/>
</g>
<!-- Node25 -->
<g id="node25" class="node">
<title>Node25</title>
<g id="a_node25"><a xlink:href="NetworkManager_8hpp.html" target="_top" xlink:title=" ">
<polygon fill="none" stroke="black" points="832.67,-112.5 832.67,-131.5 953.67,-131.5 953.67,-112.5 832.67,-112.5"/>
<text text-anchor="middle" x="893.17" y="-119.5" font-family="Helvetica,sans-Serif" font-size="10.00">NetworkManager.hpp</text>
</a>
</g>
</g>
<!-- Node1&#45;&gt;Node25 -->
<g id="edge25" class="edge">
<title>Node1&#45;&gt;Node25</title>
<path fill="none" stroke="midnightblue" d="M307.29,-171.45C431.35,-161.19 695.42,-139.35 822.26,-128.86"/>
<polygon fill="midnightblue" stroke="midnightblue" points="822.58,-132.35 832.26,-128.04 822.01,-125.37 822.58,-132.35"/>
</g>
<!-- Node31 -->
<g id="node31" class="node">
<title>Node31</title>
<g id="a_node31"><a xlink:href="StreamManager_8hpp.html" target="_top" xlink:title=" ">
<polygon fill="none" stroke="black" points="182.67,-112.5 182.67,-131.5 297.67,-131.5 297.67,-112.5 182.67,-112.5"/>
<text text-anchor="middle" x="240.17" y="-119.5" font-family="Helvetica,sans-Serif" font-size="10.00">StreamManager.hpp</text>
</a>
</g>
</g>
<!-- Node1&#45;&gt;Node31 -->
<g id="edge44" class="edge">
<title>Node1&#45;&gt;Node31</title>
<path fill="none" stroke="midnightblue" d="M240.17,-168.08C240.17,-161.01 240.17,-150.86 240.17,-141.99"/>
<polygon fill="midnightblue" stroke="midnightblue" points="243.67,-141.75 240.17,-131.75 236.67,-141.75 243.67,-141.75"/>
</g>
<!-- Node33 -->
<g id="node33" class="node">
<title>Node33</title>
<g id="a_node33"><a xlink:title=" ">
<polygon fill="none" stroke="#bfbfbf" points="20.17,-56.5 20.17,-75.5 52.17,-75.5 52.17,-56.5 20.17,-56.5"/>
<text text-anchor="middle" x="36.17" y="-63.5" font-family="Helvetica,sans-Serif" font-size="10.00">list</text>
</a>
</g>
</g>
<!-- Node1&#45;&gt;Node33 -->
<g id="edge54" class="edge">
<title>Node1&#45;&gt;Node33</title>
<path fill="none" stroke="midnightblue" d="M224.16,-168.37C188.71,-149.25 103.36,-103.23 60.95,-80.36"/>
<polygon fill="midnightblue" stroke="midnightblue" points="62.57,-77.26 52.1,-75.59 59.24,-83.42 62.57,-77.26"/>
</g>
<!-- Node3 -->
<g id="node3" class="node">
<title>Node3</title>
<g id="a_node3"><a xlink:href="Camera_8hpp.html" target="_top" xlink:title=" ">
<polygon fill="none" stroke="black" points="524.17,-56.5 524.17,-75.5 600.17,-75.5 600.17,-56.5 524.17,-56.5"/>
<text text-anchor="middle" x="562.17" y="-63.5" font-family="Helvetica,sans-Serif" font-size="10.00">Camera.hpp</text>
</a>
</g>
</g>
<!-- Node2&#45;&gt;Node3 -->
<g id="edge2" class="edge">
<title>Node2&#45;&gt;Node3</title>
<path fill="none" stroke="midnightblue" d="M1596.41,-118.89C1447.11,-113.22 1031.12,-96.69 685.17,-76 660.52,-74.53 633.11,-72.55 610.44,-70.83"/>
<polygon fill="midnightblue" stroke="midnightblue" points="610.62,-67.33 600.38,-70.06 610.09,-74.31 610.62,-67.33"/>
</g>
<!-- Node7 -->
<g id="node7" class="node">
<title>Node7</title>
<g id="a_node7"><a xlink:title=" ">
<polygon fill="none" stroke="#bfbfbf" points="1080.67,-0.5 1080.67,-19.5 1217.67,-19.5 1217.67,-0.5 1080.67,-0.5"/>
<text text-anchor="middle" x="1149.17" y="-7.5" font-family="Helvetica,sans-Serif" font-size="10.00">rc_genicam_api/device.h</text>
</a>
</g>
</g>
<!-- Node2&#45;&gt;Node7 -->
<g id="edge17" class="edge">
<title>Node2&#45;&gt;Node7</title>
<path fill="none" stroke="midnightblue" d="M1709.78,-115.74C1766.95,-108.36 1842.42,-91.59 1809.17,-56 1770.25,-14.33 1394.53,-10.23 1227.98,-10.49"/>
<polygon fill="midnightblue" stroke="midnightblue" points="1227.79,-6.99 1217.8,-10.51 1227.81,-13.99 1227.79,-6.99"/>
</g>
<!-- Node16 -->
<g id="node16" class="node">
<title>Node16</title>
<g id="a_node16"><a xlink:title=" ">
<polygon fill="none" stroke="#bfbfbf" points="1173.67,-56.5 1173.67,-75.5 1314.67,-75.5 1314.67,-56.5 1173.67,-56.5"/>
<text text-anchor="middle" x="1244.17" y="-63.5" font-family="Helvetica,sans-Serif" font-size="10.00">rc_genicam_api/system.h</text>
</a>
</g>
</g>
<!-- Node2&#45;&gt;Node16 -->
<g id="edge15" class="edge">
<title>Node2&#45;&gt;Node16</title>
<path fill="none" stroke="midnightblue" d="M1596.3,-113.49C1523.89,-103.93 1398.61,-87.39 1318.64,-76.83"/>
<polygon fill="midnightblue" stroke="midnightblue" points="1319.01,-73.35 1308.64,-75.51 1318.09,-80.29 1319.01,-73.35"/>
</g>
<!-- Node17 -->
<g id="node17" class="node">
<title>Node17</title>
<g id="a_node17"><a xlink:title=" ">
<polygon fill="none" stroke="#bfbfbf" points="1332.67,-56.5 1332.67,-75.5 1481.67,-75.5 1481.67,-56.5 1332.67,-56.5"/>
<text text-anchor="middle" x="1407.17" y="-63.5" font-family="Helvetica,sans-Serif" font-size="10.00">rc_genicam_api/interface.h</text>
</a>
</g>
</g>
<!-- Node2&#45;&gt;Node17 -->
<g id="edge16" class="edge">
<title>Node2&#45;&gt;Node17</title>
<path fill="none" stroke="midnightblue" d="M1614.19,-112.44C1571.28,-103.02 1502.22,-87.87 1455.8,-77.68"/>
<polygon fill="midnightblue" stroke="midnightblue" points="1456.49,-74.24 1445.97,-75.52 1454.98,-81.08 1456.49,-74.24"/>
</g>
<!-- Node18 -->
<g id="node18" class="node">
<title>Node18</title>
<g id="a_node18"><a xlink:title=" ">
<polygon fill="none" stroke="#bfbfbf" points="1500.17,-56.5 1500.17,-75.5 1672.17,-75.5 1672.17,-56.5 1500.17,-56.5"/>
<text text-anchor="middle" x="1586.17" y="-63.5" font-family="Helvetica,sans-Serif" font-size="10.00">rc_genicam_api/nodemap_out.h</text>
</a>
</g>
</g>
<!-- Node2&#45;&gt;Node18 -->
<g id="edge18" class="edge">
<title>Node2&#45;&gt;Node18</title>
<path fill="none" stroke="midnightblue" d="M1642.41,-112.32C1632.4,-104.26 1617.28,-92.08 1605.24,-82.37"/>
<polygon fill="midnightblue" stroke="midnightblue" points="1607.11,-79.38 1597.13,-75.83 1602.72,-84.83 1607.11,-79.38"/>
</g>
<!-- Node19 -->
<g id="node19" class="node">
<title>Node19</title>
<g id="a_node19"><a xlink:title=" ">
<polygon fill="none" stroke="#bfbfbf" points="1690.17,-56.5 1690.17,-75.5 1750.17,-75.5 1750.17,-56.5 1690.17,-56.5"/>
<text text-anchor="middle" x="1720.17" y="-63.5" font-family="Helvetica,sans-Serif" font-size="10.00">iostream</text>
</a>
</g>
</g>
<!-- Node2&#45;&gt;Node19 -->
<g id="edge19" class="edge">
<title>Node2&#45;&gt;Node19</title>
<path fill="none" stroke="midnightblue" d="M1663.94,-112.32C1673.94,-104.26 1689.06,-92.08 1701.1,-82.37"/>
<polygon fill="midnightblue" stroke="midnightblue" points="1703.62,-84.83 1709.21,-75.83 1699.23,-79.38 1703.62,-84.83"/>
</g>
<!-- Node20 -->
<g id="node20" class="node">
<title>Node20</title>
<g id="a_node20"><a xlink:title=" ">
<polygon fill="none" stroke="#bfbfbf" points="1856.17,-56.5 1856.17,-75.5 1912.17,-75.5 1912.17,-56.5 1856.17,-56.5"/>
<text text-anchor="middle" x="1884.17" y="-63.5" font-family="Helvetica,sans-Serif" font-size="10.00">sstream</text>
</a>
</g>
</g>
<!-- Node2&#45;&gt;Node20 -->
<g id="edge20" class="edge">
<title>Node2&#45;&gt;Node20</title>
<path fill="none" stroke="midnightblue" d="M1689.77,-112.44C1732.53,-102.45 1802.9,-86 1846.23,-75.87"/>
<polygon fill="midnightblue" stroke="midnightblue" points="1847.15,-79.25 1856.1,-73.56 1845.56,-72.43 1847.15,-79.25"/>
</g>
<!-- Node21 -->
<g id="node21" class="node">
<title>Node21</title>
<g id="a_node21"><a xlink:title=" ">
<polygon fill="none" stroke="#bfbfbf" points="1768.17,-56.5 1768.17,-75.5 1800.17,-75.5 1800.17,-56.5 1768.17,-56.5"/>
<text text-anchor="middle" x="1784.17" y="-63.5" font-family="Helvetica,sans-Serif" font-size="10.00">set</text>
</a>
</g>
</g>
<!-- Node2&#45;&gt;Node21 -->
<g id="edge21" class="edge">
<title>Node2&#45;&gt;Node21</title>
<path fill="none" stroke="midnightblue" d="M1673.93,-112.44C1696.88,-102.98 1733.88,-87.73 1758.6,-77.54"/>
<polygon fill="midnightblue" stroke="midnightblue" points="1760.14,-80.69 1768.05,-73.64 1757.47,-74.22 1760.14,-80.69"/>
</g>
<!-- Node22 -->
<g id="node22" class="node">
<title>Node22</title>
<g id="a_node22"><a xlink:title=" ">
<polygon fill="none" stroke="#bfbfbf" points="1930.67,-56.5 1930.67,-75.5 1999.67,-75.5 1999.67,-56.5 1930.67,-56.5"/>
<text text-anchor="middle" x="1965.17" y="-63.5" font-family="Helvetica,sans-Serif" font-size="10.00">arpa/inet.h</text>
</a>
</g>
</g>
<!-- Node2&#45;&gt;Node22 -->
<g id="edge22" class="edge">
<title>Node2&#45;&gt;Node22</title>
<path fill="none" stroke="midnightblue" d="M1707.42,-112.47C1759.41,-104.16 1840.33,-90.9 1920.35,-76.1"/>
<polygon fill="midnightblue" stroke="midnightblue" points="1921.41,-79.46 1930.61,-74.19 1920.13,-72.58 1921.41,-79.46"/>
</g>
<!-- Node23 -->
<g id="node23" class="node">
<title>Node23</title>
<g id="a_node23"><a xlink:title=" ">
<polygon fill="none" stroke="#bfbfbf" points="1099.17,-56.5 1099.17,-75.5 1155.17,-75.5 1155.17,-56.5 1099.17,-56.5"/>
<text text-anchor="middle" x="1127.17" y="-63.5" font-family="Helvetica,sans-Serif" font-size="10.00">iomanip</text>
</a>
</g>
</g>
<!-- Node2&#45;&gt;Node23 -->
<g id="edge23" class="edge">
<title>Node2&#45;&gt;Node23</title>
<path fill="none" stroke="midnightblue" d="M1596.49,-118.36C1505.18,-113.54 1320.08,-101.36 1165.17,-76 1165.07,-75.98 1164.97,-75.97 1164.87,-75.95"/>
<polygon fill="midnightblue" stroke="midnightblue" points="1165.78,-72.56 1155.3,-74.13 1164.47,-79.44 1165.78,-72.56"/>
</g>
<!-- Node24 -->
<g id="node24" class="node">
<title>Node24</title>
<g id="a_node24"><a xlink:title=" ">
<polygon fill="none" stroke="#bfbfbf" points="2018.17,-56.5 2018.17,-75.5 2062.17,-75.5 2062.17,-56.5 2018.17,-56.5"/>
<text text-anchor="middle" x="2040.17" y="-63.5" font-family="Helvetica,sans-Serif" font-size="10.00">regex</text>
</a>
</g>
</g>
<!-- Node2&#45;&gt;Node24 -->
<g id="edge24" class="edge">
<title>Node2&#45;&gt;Node24</title>
<path fill="none" stroke="midnightblue" d="M1709.73,-116.61C1778.26,-110.67 1897.32,-98.41 2007.93,-75.97"/>
<polygon fill="midnightblue" stroke="midnightblue" points="2008.84,-79.36 2017.92,-73.91 2007.42,-72.5 2008.84,-79.36"/>
</g>
<!-- Node4 -->
<g id="node4" class="node">
<title>Node4</title>
<g id="a_node4"><a xlink:title=" ">
<polygon fill="none" stroke="#bfbfbf" points="415.67,-0.5 415.67,-19.5 514.67,-19.5 514.67,-0.5 415.67,-0.5"/>
<text text-anchor="middle" x="465.17" y="-7.5" font-family="Helvetica,sans-Serif" font-size="10.00">GenApi/GenApi.h</text>
</a>
</g>
</g>
<!-- Node3&#45;&gt;Node4 -->
<g id="edge3" class="edge">
<title>Node3&#45;&gt;Node4</title>
<path fill="none" stroke="midnightblue" d="M546.59,-56.32C531.17,-47.74 507.36,-34.49 489.46,-24.52"/>
<polygon fill="midnightblue" stroke="midnightblue" points="491.16,-21.46 480.72,-19.65 487.75,-27.58 491.16,-21.46"/>
</g>
<!-- Node5 -->
<g id="node5" class="node">
<title>Node5</title>
<g id="a_node5"><a xlink:title=" ">
<polygon fill="none" stroke="#bfbfbf" points="150.17,-0.5 150.17,-19.5 266.17,-19.5 266.17,-0.5 150.17,-0.5"/>
<text text-anchor="middle" x="208.17" y="-7.5" font-family="Helvetica,sans-Serif" font-size="10.00">opencv2/opencv.hpp</text>
</a>
</g>
</g>
<!-- Node3&#45;&gt;Node5 -->
<g id="edge4" class="edge">
<title>Node3&#45;&gt;Node5</title>
<path fill="none" stroke="midnightblue" d="M523.95,-59.17C464.1,-50.04 347.52,-32.26 273.98,-21.04"/>
<polygon fill="midnightblue" stroke="midnightblue" points="274.32,-17.55 263.9,-19.5 273.26,-24.47 274.32,-17.55"/>
</g>
<!-- Node6 -->
<g id="node6" class="node">
<title>Node6</title>
<g id="a_node6"><a xlink:title=" ">
<polygon fill="none" stroke="#bfbfbf" points="532.67,-0.5 532.67,-19.5 665.67,-19.5 665.67,-0.5 532.67,-0.5"/>
<text text-anchor="middle" x="599.17" y="-7.5" font-family="Helvetica,sans-Serif" font-size="10.00">rc_genicam_api/buffer.h</text>
</a>
</g>
</g>
<!-- Node3&#45;&gt;Node6 -->
<g id="edge5" class="edge">
<title>Node3&#45;&gt;Node6</title>
<path fill="none" stroke="midnightblue" d="M568.28,-56.08C573.45,-48.53 581.02,-37.49 587.36,-28.23"/>
<polygon fill="midnightblue" stroke="midnightblue" points="590.41,-29.98 593.17,-19.75 584.63,-26.02 590.41,-29.98"/>
</g>
<!-- Node3&#45;&gt;Node7 -->
<g id="edge6" class="edge">
<title>Node3&#45;&gt;Node7</title>
<path fill="none" stroke="midnightblue" d="M600.2,-61.99C683.33,-55.33 887.76,-38.54 1070.23,-20.07"/>
<polygon fill="midnightblue" stroke="midnightblue" points="1070.68,-23.54 1080.28,-19.05 1069.98,-16.58 1070.68,-23.54"/>
</g>
<!-- Node8 -->
<g id="node8" class="node">
<title>Node8</title>
<g id="a_node8"><a xlink:title=" ">
<polygon fill="none" stroke="#bfbfbf" points="684.17,-0.5 684.17,-19.5 856.17,-19.5 856.17,-0.5 684.17,-0.5"/>
<text text-anchor="middle" x="770.17" y="-7.5" font-family="Helvetica,sans-Serif" font-size="10.00">rc_genicam_api/pixel_formats.h</text>
</a>
</g>
</g>
<!-- Node3&#45;&gt;Node8 -->
<g id="edge7" class="edge">
<title>Node3&#45;&gt;Node8</title>
<path fill="none" stroke="midnightblue" d="M595.13,-56.44C630.96,-47.14 688.33,-32.25 727.56,-22.06"/>
<polygon fill="midnightblue" stroke="midnightblue" points="728.57,-25.42 737.37,-19.52 726.81,-18.64 728.57,-25.42"/>
</g>
<!-- Node3&#45;&gt;Node9 -->
<g id="edge8" class="edge">
<title>Node3&#45;&gt;Node9</title>
<path fill="none" stroke="midnightblue" d="M524.11,-62.32C428.16,-55.45 177.26,-36.65 74.38,-19.88"/>
<polygon fill="midnightblue" stroke="midnightblue" points="74.76,-16.39 64.32,-18.16 73.58,-23.29 74.76,-16.39"/>
</g>
<!-- Node10 -->
<g id="node10" class="node">
<title>Node10</title>
<g id="a_node10"><a xlink:title=" ">
<polygon fill="none" stroke="#bfbfbf" points="874.17,-0.5 874.17,-19.5 924.17,-19.5 924.17,-0.5 874.17,-0.5"/>
<text text-anchor="middle" x="899.17" y="-7.5" font-family="Helvetica,sans-Serif" font-size="10.00">cstdint</text>
</a>
</g>
</g>
<!-- Node3&#45;&gt;Node10 -->
<g id="edge9" class="edge">
<title>Node3&#45;&gt;Node10</title>
<path fill="none" stroke="midnightblue" d="M600.2,-58.29C604.9,-57.5 609.65,-56.72 614.17,-56 722.33,-38.89 753.01,-42.24 864.08,-20.02"/>
<polygon fill="midnightblue" stroke="midnightblue" points="864.89,-23.43 874,-18.01 863.5,-16.57 864.89,-23.43"/>
</g>
<!-- Node11 -->
<g id="node11" class="node">
<title>Node11</title>
<g id="a_node11"><a xlink:title=" ">
<polygon fill="none" stroke="#bfbfbf" points="1004.17,-0.5 1004.17,-19.5 1062.17,-19.5 1062.17,-0.5 1004.17,-0.5"/>
<text text-anchor="middle" x="1033.17" y="-7.5" font-family="Helvetica,sans-Serif" font-size="10.00">memory</text>
</a>
</g>
</g>
<!-- Node3&#45;&gt;Node11 -->
<g id="edge10" class="edge">
<title>Node3&#45;&gt;Node11</title>
<path fill="none" stroke="midnightblue" d="M600.44,-61.66C688.2,-53.91 902.81,-34.36 993.83,-19.99"/>
<polygon fill="midnightblue" stroke="midnightblue" points="994.49,-23.43 1003.79,-18.35 993.35,-16.52 994.49,-23.43"/>
</g>
<!-- Node12 -->
<g id="node12" class="node">
<title>Node12</title>
<g id="a_node12"><a xlink:title=" ">
<polygon fill="none" stroke="#bfbfbf" points="284.17,-0.5 284.17,-19.5 332.17,-19.5 332.17,-0.5 284.17,-0.5"/>
<text text-anchor="middle" x="308.17" y="-7.5" font-family="Helvetica,sans-Serif" font-size="10.00">mutex</text>
</a>
</g>
</g>
<!-- Node3&#45;&gt;Node12 -->
<g id="edge11" class="edge">
<title>Node3&#45;&gt;Node12</title>
<path fill="none" stroke="midnightblue" d="M524.07,-58.03C481.88,-50.13 411.64,-36.48 342.08,-20.1"/>
<polygon fill="midnightblue" stroke="midnightblue" points="342.81,-16.67 332.27,-17.77 341.2,-23.48 342.81,-16.67"/>
</g>
<!-- Node3&#45;&gt;Node13 -->
<g id="edge12" class="edge">
<title>Node3&#45;&gt;Node13</title>
<path fill="none" stroke="midnightblue" d="M600.18,-58.15C604.89,-57.39 609.64,-56.65 614.17,-56 752.24,-36.28 791.51,-47.46 932.08,-19.91"/>
<polygon fill="midnightblue" stroke="midnightblue" points="932.81,-23.33 941.93,-17.95 931.44,-16.47 932.81,-23.33"/>
</g>
<!-- Node14 -->
<g id="node14" class="node">
<title>Node14</title>
<g id="a_node14"><a xlink:title=" ">
<polygon fill="none" stroke="#bfbfbf" points="350.67,-0.5 350.67,-19.5 397.67,-19.5 397.67,-0.5 350.67,-0.5"/>
<text text-anchor="middle" x="374.17" y="-7.5" font-family="Helvetica,sans-Serif" font-size="10.00">vector</text>
</a>
</g>
</g>
<!-- Node3&#45;&gt;Node14 -->
<g id="edge13" class="edge">
<title>Node3&#45;&gt;Node14</title>
<path fill="none" stroke="midnightblue" d="M532.38,-56.44C498.46,-46.7 443.16,-30.82 407.74,-20.64"/>
<polygon fill="midnightblue" stroke="midnightblue" points="408.45,-17.2 397.87,-17.81 406.51,-23.93 408.45,-17.2"/>
</g>
<!-- Node3&#45;&gt;Node15 -->
<g id="edge14" class="edge">
<title>Node3&#45;&gt;Node15</title>
<path fill="none" stroke="midnightblue" d="M523.86,-61.06C431.23,-51.53 199.1,-27.51 142.55,-19.7"/>
<polygon fill="midnightblue" stroke="midnightblue" points="142.74,-16.19 132.32,-18.12 141.67,-23.11 142.74,-16.19"/>
</g>
<!-- Node25&#45;&gt;Node3 -->
<g id="edge26" class="edge">
<title>Node25&#45;&gt;Node3</title>
<path fill="none" stroke="midnightblue" d="M840.72,-112.44C777.48,-102.13 672.05,-84.93 610.64,-74.91"/>
<polygon fill="midnightblue" stroke="midnightblue" points="610.88,-71.4 600.44,-73.24 609.75,-78.31 610.88,-71.4"/>
</g>
<!-- Node25&#45;&gt;Node4 -->
<g id="edge31" class="edge">
<title>Node25&#45;&gt;Node4</title>
<path fill="none" stroke="midnightblue" d="M832.45,-119.44C739.71,-116.12 567.96,-106 515.17,-76 496.08,-65.15 481.85,-43.78 473.54,-28.51"/>
<polygon fill="midnightblue" stroke="midnightblue" points="476.62,-26.84 468.95,-19.52 470.39,-30.02 476.62,-26.84"/>
</g>
<!-- Node25&#45;&gt;Node7 -->
<g id="edge29" class="edge">
<title>Node25&#45;&gt;Node7</title>
<path fill="none" stroke="midnightblue" d="M926.1,-112.43C954.91,-104.46 997.59,-91.5 1033.17,-76 1067.4,-61.09 1104.67,-39.08 1127.48,-24.89"/>
<polygon fill="midnightblue" stroke="midnightblue" points="1129.44,-27.79 1136.05,-19.51 1125.72,-21.87 1129.44,-27.79"/>
</g>
<!-- Node25&#45;&gt;Node9 -->
<g id="edge40" class="edge">
<title>Node25&#45;&gt;Node9</title>
<path fill="none" stroke="midnightblue" d="M832.61,-118.4C725.37,-113.24 506.53,-100.08 434.17,-76 417.9,-70.58 417.41,-61.51 401.17,-56 265.41,-9.94 219.41,-45.18 74.48,-19.94"/>
<polygon fill="midnightblue" stroke="midnightblue" points="74.79,-16.44 64.33,-18.11 73.54,-23.33 74.79,-16.44"/>
</g>
<!-- Node25&#45;&gt;Node11 -->
<g id="edge33" class="edge">
<title>Node25&#45;&gt;Node11</title>
<path fill="none" stroke="midnightblue" d="M944.8,-112.45C968.5,-106.08 995.25,-95.04 1013.17,-76 1024.92,-63.52 1029.78,-44.29 1031.78,-29.98"/>
<polygon fill="midnightblue" stroke="midnightblue" points="1035.28,-30.09 1032.85,-19.78 1028.32,-29.36 1035.28,-30.09"/>
</g>
<!-- Node25&#45;&gt;Node13 -->
<g id="edge34" class="edge">
<title>Node25&#45;&gt;Node13</title>
<path fill="none" stroke="midnightblue" d="M832.49,-120.69C756.58,-118.23 641.54,-106.42 685.17,-56 719.83,-15.94 863.69,-30.19 932.01,-19.68"/>
<polygon fill="midnightblue" stroke="midnightblue" points="932.71,-23.11 941.91,-17.86 931.44,-16.23 932.71,-23.11"/>
</g>
<!-- Node25&#45;&gt;Node15 -->
<g id="edge36" class="edge">
<title>Node25&#45;&gt;Node15</title>
<path fill="none" stroke="midnightblue" d="M832.35,-118.6C752.81,-114.46 609.52,-103.58 490.17,-76 464.42,-70.05 459.89,-62.09 434.17,-56 309.62,-26.49 271.83,-43.94 142.24,-19.95"/>
<polygon fill="midnightblue" stroke="midnightblue" points="142.81,-16.5 132.33,-18.07 141.5,-23.37 142.81,-16.5"/>
</g>
<!-- Node25&#45;&gt;Node16 -->
<g id="edge27" class="edge">
<title>Node25&#45;&gt;Node16</title>
<path fill="none" stroke="midnightblue" d="M948.79,-112.44C1011.3,-102.83 1112.69,-87.23 1178.9,-77.04"/>
<polygon fill="midnightblue" stroke="midnightblue" points="1179.46,-80.5 1188.81,-75.52 1178.4,-73.58 1179.46,-80.5"/>
</g>
<!-- Node25&#45;&gt;Node17 -->
<g id="edge28" class="edge">
<title>Node25&#45;&gt;Node17</title>
<path fill="none" stroke="midnightblue" d="M953.85,-114.74C1035.25,-106.33 1184.61,-90.83 1322.21,-76.21"/>
<polygon fill="midnightblue" stroke="midnightblue" points="1322.94,-79.65 1332.52,-75.11 1322.2,-72.69 1322.94,-79.65"/>
</g>
<!-- Node25&#45;&gt;Node18 -->
<g id="edge30" class="edge">
<title>Node25&#45;&gt;Node18</title>
<path fill="none" stroke="midnightblue" d="M953.89,-116.82C1060.19,-109.42 1287.15,-93.23 1489.73,-76.11"/>
<polygon fill="midnightblue" stroke="midnightblue" points="1490.29,-79.57 1499.96,-75.24 1489.7,-72.6 1490.29,-79.57"/>
</g>
<!-- Node25&#45;&gt;Node19 -->
<g id="edge32" class="edge">
<title>Node25&#45;&gt;Node19</title>
<path fill="none" stroke="midnightblue" d="M953.82,-121.03C1084.82,-120.35 1403.99,-114.62 1679.83,-75.94"/>
<polygon fill="midnightblue" stroke="midnightblue" points="1680.62,-79.36 1690.03,-74.49 1679.64,-72.43 1680.62,-79.36"/>
</g>
<!-- Node25&#45;&gt;Node21 -->
<g id="edge41" class="edge">
<title>Node25&#45;&gt;Node21</title>
<path fill="none" stroke="midnightblue" d="M953.81,-120.16C1120.86,-117.48 1586.1,-107.5 1758.04,-75.55"/>
<polygon fill="midnightblue" stroke="midnightblue" points="1758.82,-78.96 1767.96,-73.61 1757.48,-72.09 1758.82,-78.96"/>
</g>
<!-- Node25&#45;&gt;Node23 -->
<g id="edge38" class="edge">
<title>Node25&#45;&gt;Node23</title>
<path fill="none" stroke="midnightblue" d="M930.25,-112.44C973.68,-102.42 1045.24,-85.91 1089.1,-75.79"/>
<polygon fill="midnightblue" stroke="midnightblue" points="1090.12,-79.14 1099.08,-73.48 1088.55,-72.32 1090.12,-79.14"/>
</g>
<!-- Node26 -->
<g id="node26" class="node">
<title>Node26</title>
<g id="a_node26"><a xlink:title=" ">
<polygon fill="none" stroke="#bfbfbf" points="694.67,-56.5 694.67,-75.5 759.67,-75.5 759.67,-56.5 694.67,-56.5"/>
<text text-anchor="middle" x="727.17" y="-63.5" font-family="Helvetica,sans-Serif" font-size="10.00">stdexcept</text>
</a>
</g>
</g>
<!-- Node25&#45;&gt;Node26 -->
<g id="edge35" class="edge">
<title>Node25&#45;&gt;Node26</title>
<path fill="none" stroke="midnightblue" d="M866.87,-112.44C838.82,-103.32 794.23,-88.81 762.99,-78.65"/>
<polygon fill="midnightblue" stroke="midnightblue" points="763.94,-75.28 753.35,-75.52 761.78,-81.94 763.94,-75.28"/>
</g>
<!-- Node27 -->
<g id="node27" class="node">
<title>Node27</title>
<g id="a_node27"><a xlink:title=" ">
<polygon fill="none" stroke="#bfbfbf" points="344.17,-56.5 344.17,-75.5 392.17,-75.5 392.17,-56.5 344.17,-56.5"/>
<text text-anchor="middle" x="368.17" y="-63.5" font-family="Helvetica,sans-Serif" font-size="10.00">thread</text>
</a>
</g>
</g>
<!-- Node25&#45;&gt;Node27 -->
<g id="edge37" class="edge">
<title>Node25&#45;&gt;Node27</title>
<path fill="none" stroke="midnightblue" d="M832.47,-118.13C739.98,-113.15 558.46,-100.94 406.17,-76 404.89,-75.79 403.59,-75.56 402.28,-75.32"/>
<polygon fill="midnightblue" stroke="midnightblue" points="402.69,-71.83 392.19,-73.23 401.27,-78.68 402.69,-71.83"/>
</g>
<!-- Node28 -->
<g id="node28" class="node">
<title>Node28</title>
<g id="a_node28"><a xlink:title=" ">
<polygon fill="none" stroke="#bfbfbf" points="777.67,-56.5 777.67,-75.5 828.67,-75.5 828.67,-56.5 777.67,-56.5"/>
<text text-anchor="middle" x="803.17" y="-63.5" font-family="Helvetica,sans-Serif" font-size="10.00">csignal</text>
</a>
</g>
</g>
<!-- Node25&#45;&gt;Node28 -->
<g id="edge39" class="edge">
<title>Node25&#45;&gt;Node28</title>
<path fill="none" stroke="midnightblue" d="M878.71,-112.32C864.67,-103.9 843.12,-90.97 826.63,-81.07"/>
<polygon fill="midnightblue" stroke="midnightblue" points="827.97,-77.8 817.59,-75.65 824.37,-83.8 827.97,-77.8"/>
</g>
<!-- Node29 -->
<g id="node29" class="node">
<title>Node29</title>
<g id="a_node29"><a xlink:title=" ">
<polygon fill="none" stroke="#bfbfbf" points="846.67,-56.5 846.67,-75.5 939.67,-75.5 939.67,-56.5 846.67,-56.5"/>
<text text-anchor="middle" x="893.17" y="-63.5" font-family="Helvetica,sans-Serif" font-size="10.00">unordered_map</text>
</a>
</g>
</g>
<!-- Node25&#45;&gt;Node29 -->
<g id="edge42" class="edge">
<title>Node25&#45;&gt;Node29</title>
<path fill="none" stroke="midnightblue" d="M893.17,-112.08C893.17,-105.01 893.17,-94.86 893.17,-85.99"/>
<polygon fill="midnightblue" stroke="midnightblue" points="896.67,-85.75 893.17,-75.75 889.67,-85.75 896.67,-85.75"/>
</g>
<!-- Node30 -->
<g id="node30" class="node">
<title>Node30</title>
<g id="a_node30"><a xlink:title=" ">
<polygon fill="none" stroke="#bfbfbf" points="957.67,-56.5 957.67,-75.5 1004.67,-75.5 1004.67,-56.5 957.67,-56.5"/>
<text text-anchor="middle" x="981.17" y="-63.5" font-family="Helvetica,sans-Serif" font-size="10.00">deque</text>
</a>
</g>
</g>
<!-- Node25&#45;&gt;Node30 -->
<g id="edge43" class="edge">
<title>Node25&#45;&gt;Node30</title>
<path fill="none" stroke="midnightblue" d="M907.31,-112.32C921.04,-103.9 942.11,-90.97 958.23,-81.07"/>
<polygon fill="midnightblue" stroke="midnightblue" points="960.37,-83.87 967.07,-75.65 956.71,-77.9 960.37,-83.87"/>
</g>
<!-- Node31&#45;&gt;Node3 -->
<g id="edge46" class="edge">
<title>Node31&#45;&gt;Node3</title>
<path fill="none" stroke="midnightblue" d="M291.19,-112.44C352.38,-102.18 454.16,-85.11 514.04,-75.07"/>
<polygon fill="midnightblue" stroke="midnightblue" points="514.71,-78.51 523.99,-73.4 513.55,-71.6 514.71,-78.51"/>
</g>
<!-- Node31&#45;&gt;Node5 -->
<g id="edge45" class="edge">
<title>Node31&#45;&gt;Node5</title>
<path fill="none" stroke="midnightblue" d="M237.66,-112.37C232.47,-94.54 220.47,-53.3 213.49,-29.27"/>
<polygon fill="midnightblue" stroke="midnightblue" points="216.82,-28.22 210.67,-19.59 210.1,-30.17 216.82,-28.22"/>
</g>
<!-- Node31&#45;&gt;Node9 -->
<g id="edge47" class="edge">
<title>Node31&#45;&gt;Node9</title>
<path fill="none" stroke="midnightblue" d="M209.4,-112.43C184.42,-104.79 148.79,-92.29 120.17,-76 95.84,-62.15 71.23,-41.19 55.63,-26.84"/>
<polygon fill="midnightblue" stroke="midnightblue" points="57.63,-23.93 47.95,-19.64 52.85,-29.03 57.63,-23.93"/>
</g>
<!-- Node31&#45;&gt;Node12 -->
<g id="edge50" class="edge">
<title>Node31&#45;&gt;Node12</title>
<path fill="none" stroke="midnightblue" d="M245.51,-112.37C256.68,-94.3 282.72,-52.18 297.47,-28.31"/>
<polygon fill="midnightblue" stroke="midnightblue" points="300.58,-29.94 302.86,-19.59 294.62,-26.26 300.58,-29.94"/>
</g>
<!-- Node31&#45;&gt;Node14 -->
<g id="edge52" class="edge">
<title>Node31&#45;&gt;Node14</title>
<path fill="none" stroke="midnightblue" d="M250.69,-112.37C273.39,-93.73 327.23,-49.53 355.73,-26.13"/>
<polygon fill="midnightblue" stroke="midnightblue" points="358.2,-28.64 363.7,-19.59 353.75,-23.23 358.2,-28.64"/>
</g>
<!-- Node31&#45;&gt;Node15 -->
<g id="edge48" class="edge">
<title>Node31&#45;&gt;Node15</title>
<path fill="none" stroke="midnightblue" d="M204.53,-112.4C182.79,-105.6 155.71,-94.16 137.17,-76 124.15,-63.25 116.21,-43.78 111.79,-29.47"/>
<polygon fill="midnightblue" stroke="midnightblue" points="115.13,-28.43 109.08,-19.73 108.39,-30.31 115.13,-28.43"/>
</g>
<!-- Node31&#45;&gt;Node27 -->
<g id="edge51" class="edge">
<title>Node31&#45;&gt;Node27</title>
<path fill="none" stroke="midnightblue" d="M260.45,-112.44C281.52,-103.56 314.69,-89.56 338.66,-79.45"/>
<polygon fill="midnightblue" stroke="midnightblue" points="340.13,-82.63 347.98,-75.52 337.41,-76.18 340.13,-82.63"/>
</g>
<!-- Node32 -->
<g id="node32" class="node">
<title>Node32</title>
<g id="a_node32"><a xlink:title=" ">
<polygon fill="none" stroke="#bfbfbf" points="146.67,-56.5 146.67,-75.5 211.67,-75.5 211.67,-56.5 146.67,-56.5"/>
<text text-anchor="middle" x="179.17" y="-63.5" font-family="Helvetica,sans-Serif" font-size="10.00">functional</text>
</a>
</g>
</g>
<!-- Node31&#45;&gt;Node32 -->
<g id="edge49" class="edge">
<title>Node31&#45;&gt;Node32</title>
<path fill="none" stroke="midnightblue" d="M230.37,-112.32C221.35,-104.34 207.76,-92.31 196.85,-82.65"/>
<polygon fill="midnightblue" stroke="midnightblue" points="198.96,-79.84 189.15,-75.83 194.32,-85.08 198.96,-79.84"/>
</g>
<!-- Node31&#45;&gt;Node33 -->
<g id="edge53" class="edge">
<title>Node31&#45;&gt;Node33</title>
<path fill="none" stroke="midnightblue" d="M205.4,-112.43C170.2,-103.65 114.25,-89.43 66.17,-76 64.9,-75.65 63.61,-75.28 62.3,-74.9"/>
<polygon fill="midnightblue" stroke="midnightblue" points="62.91,-71.44 52.33,-71.97 60.94,-78.15 62.91,-71.44"/>
</g>
</g>
</svg>
        <g id="navigator" transform="translate(0 0)" fill="#404254">
                <rect fill="#f2f5e9" fill-opacity="0.5" stroke="#606060" stroke-width=".5" x="0" y="0" width="60" height="60"/>
                <use id="zoomplus" xlink:href="#zoomPlus" x="17" y="9" onmousedown="handleZoom(evt,'in')"/>
                <use id="zoomminus" xlink:href="#zoomMin" x="42" y="9" onmousedown="handleZoom(evt,'out')"/>
                <use id="reset" xlink:href="#resetDef" x="30" y="36" onmousedown="handleReset()"/>
                <g id="arrowUp" xlink:href="#dirArrow" transform="translate(30 24)" onmousedown="handlePan(0,-1)">
                  <use xlink:href="#rim" fill="#404040">
                        <set attributeName="fill" to="#808080" begin="arrowUp.mouseover" end="arrowUp.mouseout"/>
                  </use>
                  <path fill="none" stroke="white" stroke-width="1.5" d="M0,-3.0v7 M-2.5,-0.5L0,-3.0L2.5,-0.5"/>
                </g>
                <g id="arrowRight" xlink:href="#dirArrow" transform="rotate(90) translate(36 -43)" onmousedown="handlePan(1,0)">
                  <use xlink:href="#rim" fill="#404040">
                        <set attributeName="fill" to="#808080" begin="arrowRight.mouseover" end="arrowRight.mouseout"/>
                  </use>
                  <path fill="none" stroke="white" stroke-width="1.5" d="M0,-3.0v7 M-2.5,-0.5L0,-3.0L2.5,-0.5"/>
                </g>
                <g id="arrowDown" xlink:href="#dirArrow" transform="rotate(180) translate(-30 -48)" onmousedown="handlePan(0,1)">
                  <use xlink:href="#rim" fill="#404040">
                        <set attributeName="fill" to="#808080" begin="arrowDown.mouseover" end="arrowDown.mouseout"/>
                  </use>
                  <path fill="none" stroke="white" stroke-width="1.5" d="M0,-3.0v7 M-2.5,-0.5L0,-3.0L2.5,-0.5"/>
                </g>
                <g id="arrowLeft" xlink:href="#dirArrow" transform="rotate(270) translate(-36 17)" onmousedown="handlePan(-1,0)">
                  <use xlink:href="#rim" fill="#404040">
                        <set attributeName="fill" to="#808080" begin="arrowLeft.mouseover" end="arrowLeft.mouseout"/>
                  </use>
                  <path fill="none" stroke="white" stroke-width="1.5" d="M0,-3.0v7 M-2.5,-0.5L0,-3.0L2.5,-0.5"/>
                </g>
        </g>
        <svg viewBox="0 0 15 15" width="100%" height="30px" preserveAspectRatio="xMaxYMin meet">
         <g id="arrow_out" transform="scale(0.3 0.3)">
          <a xlink:href="SystemManager_8hpp__incl_org.svg" target="_base">
           <rect id="button" ry="5" rx="5" y="6" x="6" height="38" width="38"
                fill="#f2f5e9" fill-opacity="0.5" stroke="#606060" stroke-width="1.0"/>
           <path id="arrow"
             d="M 11.500037,31.436501 C 11.940474,20.09759 22.043105,11.32322 32.158766,21.979434 L 37.068811,17.246167 C 37.068811,17.246167 37.088388,32 37.088388,32 L 22.160133,31.978069 C 22.160133,31.978069 26.997745,27.140456 26.997745,27.140456 C 18.528582,18.264221 13.291696,25.230495 11.500037,31.436501 z"
             style="fill:#404040;"/>
          </a>
         </g>
        </svg>
</svg>
