<?xml version="1.0" encoding="UTF-8" standalone="no"?>
<!DOCTYPE svg PUBLIC "-//W3C//DTD SVG 1.1//EN"
 "http://www.w3.org/Graphics/SVG/1.1/DTD/svg11.dtd">
<!-- Generated by graphviz version 2.43.0 (0)
 -->
<!-- Title: src/SystemManager.cpp Pages: 1 -->
<!--zoomable 252 -->
<svg id="main" version="1.1" xmlns="http://www.w3.org/2000/svg" xmlns:xlink="http://www.w3.org/1999/xlink" xml:space="preserve" onload="init(evt)">
<style type="text/css"><![CDATA[
.edge:hover path { stroke: red; }
.edge:hover polygon { stroke: red; fill: red; }
]]></style>
<script type="text/javascript"><![CDATA[
var edges = document.getElementsByTagName('g');
if (edges && edges.length) {
  for (var i=0;i<edges.length;i++) {
    if (edges[i].id.substr(0,4)=='edge') {
      edges[i].setAttribute('class','edge');
    }
  }
}
]]></script>
        <defs>
                <circle id="rim" cx="0" cy="0" r="7"/>
                <circle id="rim2" cx="0" cy="0" r="3.5"/>
                <g id="zoomPlus">
                        <use xlink:href="#rim" fill="#404040">
                                <set attributeName="fill" to="#808080" begin="zoomplus.mouseover" end="zoomplus.mouseout"/>
                        </use>
                        <path d="M-4,0h8M0,-4v8" fill="none" stroke="white" stroke-width="1.5" pointer-events="none"/>
                </g>
                <g id="zoomMin">
                        <use xlink:href="#rim" fill="#404040">
                                <set attributeName="fill" to="#808080" begin="zoomminus.mouseover" end="zoomminus.mouseout"/>
                        </use>
                        <path d="M-4,0h8" fill="none" stroke="white" stroke-width="1.5" pointer-events="none"/>
                </g>
                <g id="dirArrow">
                        <path fill="none" stroke="white" stroke-width="1.5" d="M0,-3.0v7 M-2.5,-0.5L0,-3.0L2.5,-0.5"/>
                </g>
               <g id="resetDef">
                       <use xlink:href="#rim2" fill="#404040">
                               <set attributeName="fill" to="#808080" begin="reset.mouseover" end="reset.mouseout"/>
                       </use>
               </g>
        </defs>

<script type="text/javascript">
var viewWidth = 2343;
var viewHeight = 252;
var sectionId = 'dynsection-0';
</script>
<script xlink:href="svgpan.js"/>
<svg id="graph" class="graph">
<g id="viewport">
<title>src/SystemManager.cpp</title>
<!-- Node1 -->
<g id="node1" class="node">
<title>Node1</title>
<g id="a_node1"><a xlink:title=" ">
<polygon fill="#bfbfbf" stroke="black" points="762.48,-224.5 762.48,-243.5 895.48,-243.5 895.48,-224.5 762.48,-224.5"/>
<text text-anchor="middle" x="828.98" y="-231.5" font-family="Helvetica,sans-Serif" font-size="10.00">src/SystemManager.cpp</text>
</a>
</g>
</g>
<!-- Node2 -->
<g id="node2" class="node">
<title>Node2</title>
<g id="a_node2"><a xlink:href="SystemManager_8hpp.html" target="_top" xlink:title=" ">
<polygon fill="none" stroke="black" points="81.98,-168.5 81.98,-187.5 197.98,-187.5 197.98,-168.5 81.98,-168.5"/>
<text text-anchor="middle" x="139.98" y="-175.5" font-family="Helvetica,sans-Serif" font-size="10.00">SystemManager.hpp</text>
</a>
</g>
</g>
<!-- Node1&#45;&gt;Node2 -->
<g id="edge1" class="edge">
<title>Node1&#45;&gt;Node2</title>
<path fill="none" stroke="midnightblue" d="M762.23,-229.26C648.94,-222.67 411.84,-207.77 211.98,-188 210.71,-187.87 209.43,-187.74 208.14,-187.61"/>
<polygon fill="midnightblue" stroke="midnightblue" points="208.43,-184.12 198.11,-186.53 207.67,-191.08 208.43,-184.12"/>
</g>
<!-- Node3 -->
<g id="node3" class="node">
<title>Node3</title>
<g id="a_node3"><a xlink:href="DeviceManager_8hpp.html" target="_top" xlink:title=" ">
<polygon fill="none" stroke="black" points="1504.48,-112.5 1504.48,-131.5 1617.48,-131.5 1617.48,-112.5 1504.48,-112.5"/>
<text text-anchor="middle" x="1560.98" y="-119.5" font-family="Helvetica,sans-Serif" font-size="10.00">DeviceManager.hpp</text>
</a>
</g>
</g>
<!-- Node1&#45;&gt;Node3 -->
<g id="edge59" class="edge">
<title>Node1&#45;&gt;Node3</title>
<path fill="none" stroke="midnightblue" d="M885.81,-224.46C1019.24,-204.41 1352.01,-154.4 1494.51,-132.99"/>
<polygon fill="midnightblue" stroke="midnightblue" points="1495.07,-136.44 1504.44,-131.5 1494.03,-129.52 1495.07,-136.44"/>
</g>
<!-- Node4 -->
<g id="node4" class="node">
<title>Node4</title>
<g id="a_node4"><a xlink:href="Camera_8hpp.html" target="_top" xlink:title=" ">
<polygon fill="none" stroke="black" points="821.98,-56.5 821.98,-75.5 897.98,-75.5 897.98,-56.5 821.98,-56.5"/>
<text text-anchor="middle" x="859.98" y="-63.5" font-family="Helvetica,sans-Serif" font-size="10.00">Camera.hpp</text>
</a>
</g>
</g>
<!-- Node1&#45;&gt;Node4 -->
<g id="edge69" class="edge">
<title>Node1&#45;&gt;Node4</title>
<path fill="none" stroke="midnightblue" d="M830.64,-224.08C835.52,-197.95 849.85,-121.21 856.51,-85.58"/>
<polygon fill="midnightblue" stroke="midnightblue" points="859.98,-86.04 858.38,-75.57 853.1,-84.76 859.98,-86.04"/>
</g>
<!-- Node10 -->
<g id="node10" class="node">
<title>Node10</title>
<g id="a_node10"><a xlink:title=" ">
<polygon fill="none" stroke="#bfbfbf" points="207.98,-0.5 207.98,-19.5 257.98,-19.5 257.98,-0.5 207.98,-0.5"/>
<text text-anchor="middle" x="232.98" y="-7.5" font-family="Helvetica,sans-Serif" font-size="10.00">atomic</text>
</a>
</g>
</g>
<!-- Node1&#45;&gt;Node10 -->
<g id="edge77" class="edge">
<title>Node1&#45;&gt;Node10</title>
<path fill="none" stroke="midnightblue" d="M762.21,-233.33C581.73,-233.65 93.77,-230.52 35.98,-188 -11.3,-153.21 -11.04,-95.93 31.98,-56 55.71,-33.97 146.47,-20.59 197.54,-14.64"/>
<polygon fill="midnightblue" stroke="midnightblue" points="198.25,-18.09 207.79,-13.49 197.46,-11.13 198.25,-18.09"/>
</g>
<!-- Node12 -->
<g id="node12" class="node">
<title>Node12</title>
<g id="a_node12"><a xlink:title=" ">
<polygon fill="none" stroke="#bfbfbf" points="1399.98,-0.5 1399.98,-19.5 1457.98,-19.5 1457.98,-0.5 1399.98,-0.5"/>
<text text-anchor="middle" x="1428.98" y="-7.5" font-family="Helvetica,sans-Serif" font-size="10.00">memory</text>
</a>
</g>
</g>
<!-- Node1&#45;&gt;Node12 -->
<g id="edge73" class="edge">
<title>Node1&#45;&gt;Node12</title>
<path fill="none" stroke="midnightblue" d="M895.92,-231.27C1175,-223.37 2235.85,-186.22 2330.98,-76 2336.79,-69.27 2337.1,-62.44 2330.98,-56 2300.84,-24.32 1638.23,-13.68 1468.37,-11.47"/>
<polygon fill="midnightblue" stroke="midnightblue" points="1468.18,-7.97 1458.13,-11.34 1468.09,-14.97 1468.18,-7.97"/>
</g>
<!-- Node14 -->
<g id="node14" class="node">
<title>Node14</title>
<g id="a_node14"><a xlink:title=" ">
<polygon fill="none" stroke="#bfbfbf" points="388.98,-0.5 388.98,-19.5 432.98,-19.5 432.98,-0.5 388.98,-0.5"/>
<text text-anchor="middle" x="410.98" y="-7.5" font-family="Helvetica,sans-Serif" font-size="10.00">string</text>
</a>
</g>
</g>
<!-- Node1&#45;&gt;Node14 -->
<g id="edge74" class="edge">
<title>Node1&#45;&gt;Node14</title>
<path fill="none" stroke="midnightblue" d="M762.47,-227.08C619.4,-212.63 291.55,-169.65 244.98,-76 207.47,-0.58 290.35,-40.06 378.69,-20.06"/>
<polygon fill="midnightblue" stroke="midnightblue" points="379.8,-23.39 388.64,-17.55 378.09,-16.6 379.8,-23.39"/>
</g>
<!-- Node16 -->
<g id="node16" class="node">
<title>Node16</title>
<g id="a_node16"><a xlink:title=" ">
<polygon fill="none" stroke="#bfbfbf" points="320.98,-0.5 320.98,-19.5 370.98,-19.5 370.98,-0.5 320.98,-0.5"/>
<text text-anchor="middle" x="345.98" y="-7.5" font-family="Helvetica,sans-Serif" font-size="10.00">chrono</text>
</a>
</g>
</g>
<!-- Node1&#45;&gt;Node16 -->
<g id="edge75" class="edge">
<title>Node1&#45;&gt;Node16</title>
<path fill="none" stroke="midnightblue" d="M762.4,-231.41C579.74,-226.76 82.55,-211.94 56.98,-188 13.9,-147.69 4.45,-100.68 42.98,-56 51.67,-45.92 232.3,-24.06 310.45,-15.03"/>
<polygon fill="midnightblue" stroke="midnightblue" points="311.24,-18.46 320.77,-13.84 310.44,-11.51 311.24,-18.46"/>
</g>
<!-- Node20 -->
<g id="node20" class="node">
<title>Node20</title>
<g id="a_node20"><a xlink:title=" ">
<polygon fill="none" stroke="#bfbfbf" points="1958.98,-56.5 1958.98,-75.5 2018.98,-75.5 2018.98,-56.5 1958.98,-56.5"/>
<text text-anchor="middle" x="1988.98" y="-63.5" font-family="Helvetica,sans-Serif" font-size="10.00">iostream</text>
</a>
</g>
</g>
<!-- Node1&#45;&gt;Node20 -->
<g id="edge71" class="edge">
<title>Node1&#45;&gt;Node20</title>
<path fill="none" stroke="midnightblue" d="M895.64,-225.92C1032.87,-211.04 1356.75,-174.38 1626.98,-132 1744.04,-113.64 1881.61,-87.74 1948.44,-74.88"/>
<polygon fill="midnightblue" stroke="midnightblue" points="1949.39,-78.26 1958.54,-72.93 1948.06,-71.39 1949.39,-78.26"/>
</g>
<!-- Node26 -->
<g id="node26" class="node">
<title>Node26</title>
<g id="a_node26"><a xlink:href="NetworkManager_8hpp.html" target="_top" xlink:title=" ">
<polygon fill="none" stroke="black" points="1135.48,-112.5 1135.48,-131.5 1256.48,-131.5 1256.48,-112.5 1135.48,-112.5"/>
<text text-anchor="middle" x="1195.98" y="-119.5" font-family="Helvetica,sans-Serif" font-size="10.00">NetworkManager.hpp</text>
</a>
</g>
</g>
<!-- Node1&#45;&gt;Node26 -->
<g id="edge60" class="edge">
<title>Node1&#45;&gt;Node26</title>
<path fill="none" stroke="midnightblue" d="M857.47,-224.46C922.85,-204.86 1083.72,-156.65 1157.66,-134.48"/>
<polygon fill="midnightblue" stroke="midnightblue" points="1158.93,-137.76 1167.5,-131.53 1156.92,-131.05 1158.93,-137.76"/>
</g>
<!-- Node27 -->
<g id="node27" class="node">
<title>Node27</title>
<g id="a_node27"><a xlink:title=" ">
<polygon fill="none" stroke="#bfbfbf" points="2124.48,-56.5 2124.48,-75.5 2189.48,-75.5 2189.48,-56.5 2124.48,-56.5"/>
<text text-anchor="middle" x="2156.98" y="-63.5" font-family="Helvetica,sans-Serif" font-size="10.00">stdexcept</text>
</a>
</g>
</g>
<!-- Node1&#45;&gt;Node27 -->
<g id="edge76" class="edge">
<title>Node1&#45;&gt;Node27</title>
<path fill="none" stroke="midnightblue" d="M895.62,-227.78C989.04,-220.23 1164.19,-205.28 1312.98,-188 1667.59,-146.81 1759.58,-139.7 2114.31,-76.2"/>
<polygon fill="midnightblue" stroke="midnightblue" points="2115.12,-79.61 2124.35,-74.4 2113.89,-72.72 2115.12,-79.61"/>
</g>
<!-- Node29 -->
<g id="node29" class="node">
<title>Node29</title>
<g id="a_node29"><a xlink:title=" ">
<polygon fill="none" stroke="#bfbfbf" points="2270.48,-56.5 2270.48,-75.5 2321.48,-75.5 2321.48,-56.5 2270.48,-56.5"/>
<text text-anchor="middle" x="2295.98" y="-63.5" font-family="Helvetica,sans-Serif" font-size="10.00">csignal</text>
</a>
</g>
</g>
<!-- Node1&#45;&gt;Node29 -->
<g id="edge70" class="edge">
<title>Node1&#45;&gt;Node29</title>
<path fill="none" stroke="midnightblue" d="M895.5,-228.86C1003.27,-221.93 1222.66,-206.85 1407.98,-188 1606.29,-167.83 1655.34,-158 1852.98,-132 2031.26,-108.55 2079.69,-111.19 2260.6,-75.86"/>
<polygon fill="midnightblue" stroke="midnightblue" points="2261.3,-79.29 2270.44,-73.93 2259.95,-72.42 2261.3,-79.29"/>
</g>
<!-- Node32 -->
<g id="node32" class="node">
<title>Node32</title>
<g id="a_node32"><a xlink:href="StreamManager_8hpp.html" target="_top" xlink:title=" ">
<polygon fill="none" stroke="black" points="328.48,-112.5 328.48,-131.5 443.48,-131.5 443.48,-112.5 328.48,-112.5"/>
<text text-anchor="middle" x="385.98" y="-119.5" font-family="Helvetica,sans-Serif" font-size="10.00">StreamManager.hpp</text>
</a>
</g>
</g>
<!-- Node1&#45;&gt;Node32 -->
<g id="edge61" class="edge">
<title>Node1&#45;&gt;Node32</title>
<path fill="none" stroke="midnightblue" d="M794.58,-224.46C715.01,-204.7 518.3,-155.86 430.05,-133.94"/>
<polygon fill="midnightblue" stroke="midnightblue" points="430.9,-130.55 420.35,-131.53 429.21,-137.34 430.9,-130.55"/>
</g>
<!-- Node34 -->
<g id="node34" class="node">
<title>Node34</title>
<g id="a_node34"><a xlink:title=" ">
<polygon fill="none" stroke="#bfbfbf" points="51.98,-56.5 51.98,-75.5 83.98,-75.5 83.98,-56.5 51.98,-56.5"/>
<text text-anchor="middle" x="67.98" y="-63.5" font-family="Helvetica,sans-Serif" font-size="10.00">list</text>
</a>
</g>
</g>
<!-- Node1&#45;&gt;Node34 -->
<g id="edge72" class="edge">
<title>Node1&#45;&gt;Node34</title>
<path fill="none" stroke="midnightblue" d="M762.39,-231.44C582.2,-226.89 96.96,-212.42 72.98,-188 46.42,-160.96 54.78,-112.01 62.06,-85.41"/>
<polygon fill="midnightblue" stroke="midnightblue" points="65.51,-86.09 65,-75.51 58.8,-84.1 65.51,-86.09"/>
</g>
<!-- Node35 -->
<g id="node35" class="node">
<title>Node35</title>
<g id="a_node35"><a xlink:href="GlobalSettings_8hpp.html" target="_top" xlink:title=" ">
<polygon fill="none" stroke="black" points="701.48,-112.5 701.48,-131.5 810.48,-131.5 810.48,-112.5 701.48,-112.5"/>
<text text-anchor="middle" x="755.98" y="-119.5" font-family="Helvetica,sans-Serif" font-size="10.00">GlobalSettings.hpp</text>
</a>
</g>
</g>
<!-- Node1&#45;&gt;Node35 -->
<g id="edge62" class="edge">
<title>Node1&#45;&gt;Node35</title>
<path fill="none" stroke="midnightblue" d="M823.25,-224.37C811.2,-206.22 783.05,-163.8 767.25,-139.99"/>
<polygon fill="midnightblue" stroke="midnightblue" points="770.12,-137.99 761.68,-131.59 764.29,-141.86 770.12,-137.99"/>
</g>
<!-- Node2&#45;&gt;Node3 -->
<g id="edge2" class="edge">
<title>Node2&#45;&gt;Node3</title>
<path fill="none" stroke="midnightblue" d="M198.33,-174.78C425.9,-166.13 1253.08,-134.7 1494.44,-125.53"/>
<polygon fill="midnightblue" stroke="midnightblue" points="1494.61,-129.02 1504.47,-125.15 1494.35,-122.03 1494.61,-129.02"/>
</g>
<!-- Node2&#45;&gt;Node10 -->
<g id="edge57" class="edge">
<title>Node2&#45;&gt;Node10</title>
<path fill="none" stroke="midnightblue" d="M123.56,-168.37C87.96,-148.58 9.49,-98.34 42.98,-56 61.92,-32.05 148.32,-19.52 197.84,-14.2"/>
<polygon fill="midnightblue" stroke="midnightblue" points="198.22,-17.68 207.81,-13.17 197.5,-10.72 198.22,-17.68"/>
</g>
<!-- Node2&#45;&gt;Node14 -->
<g id="edge56" class="edge">
<title>Node2&#45;&gt;Node14</title>
<path fill="none" stroke="midnightblue" d="M142.46,-168.32C149.38,-145.82 171.07,-85.36 211.98,-56 271.47,-13.3 303.26,-36.55 378.75,-20.03"/>
<polygon fill="midnightblue" stroke="midnightblue" points="379.75,-23.39 388.68,-17.68 378.14,-16.57 379.75,-23.39"/>
</g>
<!-- Node2&#45;&gt;Node16 -->
<g id="edge58" class="edge">
<title>Node2&#45;&gt;Node16</title>
<path fill="none" stroke="midnightblue" d="M136.34,-168.5C127.75,-146.94 108.89,-89.51 135.98,-56 146.93,-42.45 253.79,-24.71 310.7,-16.11"/>
<polygon fill="midnightblue" stroke="midnightblue" points="311.34,-19.55 320.71,-14.61 310.31,-12.63 311.34,-19.55"/>
</g>
<!-- Node2&#45;&gt;Node26 -->
<g id="edge26" class="edge">
<title>Node2&#45;&gt;Node26</title>
<path fill="none" stroke="midnightblue" d="M198.26,-174.02C378.79,-164.79 928.38,-136.68 1125.05,-126.63"/>
<polygon fill="midnightblue" stroke="midnightblue" points="1125.45,-130.11 1135.26,-126.1 1125.1,-123.12 1125.45,-130.11"/>
</g>
<!-- Node2&#45;&gt;Node32 -->
<g id="edge45" class="edge">
<title>Node2&#45;&gt;Node32</title>
<path fill="none" stroke="midnightblue" d="M178.96,-168.44C221.87,-159.02 290.92,-143.87 337.35,-133.68"/>
<polygon fill="midnightblue" stroke="midnightblue" points="338.16,-137.08 347.18,-131.52 336.66,-130.24 338.16,-137.08"/>
</g>
<!-- Node2&#45;&gt;Node34 -->
<g id="edge55" class="edge">
<title>Node2&#45;&gt;Node34</title>
<path fill="none" stroke="midnightblue" d="M130.37,-168.43C121.19,-159.87 107.39,-146.01 97.98,-132 88.13,-117.35 79.98,-98.95 74.67,-85.47"/>
<polygon fill="midnightblue" stroke="midnightblue" points="77.85,-83.99 71.04,-75.88 71.3,-86.47 77.85,-83.99"/>
</g>
<!-- Node3&#45;&gt;Node4 -->
<g id="edge3" class="edge">
<title>Node3&#45;&gt;Node4</title>
<path fill="none" stroke="midnightblue" d="M1504.33,-119.4C1392.31,-115.74 1134.48,-104.83 908.2,-76"/>
<polygon fill="midnightblue" stroke="midnightblue" points="908.5,-72.51 898.13,-74.71 907.61,-79.45 908.5,-72.51"/>
</g>
<!-- Node8 -->
<g id="node8" class="node">
<title>Node8</title>
<g id="a_node8"><a xlink:title=" ">
<polygon fill="none" stroke="#bfbfbf" points="1244.48,-0.5 1244.48,-19.5 1381.48,-19.5 1381.48,-0.5 1244.48,-0.5"/>
<text text-anchor="middle" x="1312.98" y="-7.5" font-family="Helvetica,sans-Serif" font-size="10.00">rc_genicam_api/device.h</text>
</a>
</g>
</g>
<!-- Node3&#45;&gt;Node8 -->
<g id="edge18" class="edge">
<title>Node3&#45;&gt;Node8</title>
<path fill="none" stroke="midnightblue" d="M1617.49,-117.81C1712.01,-111.89 1893.79,-97.79 1912.98,-76 1918.85,-69.33 1919.04,-62.5 1912.98,-56 1874.93,-15.24 1483.04,-24.45 1391.86,-19.8"/>
<polygon fill="midnightblue" stroke="midnightblue" points="1392.08,-16.31 1381.86,-19.12 1391.6,-23.29 1392.08,-16.31"/>
</g>
<!-- Node17 -->
<g id="node17" class="node">
<title>Node17</title>
<g id="a_node17"><a xlink:title=" ">
<polygon fill="none" stroke="#bfbfbf" points="1595.48,-56.5 1595.48,-75.5 1736.48,-75.5 1736.48,-56.5 1595.48,-56.5"/>
<text text-anchor="middle" x="1665.98" y="-63.5" font-family="Helvetica,sans-Serif" font-size="10.00">rc_genicam_api/system.h</text>
</a>
</g>
</g>
<!-- Node3&#45;&gt;Node17 -->
<g id="edge16" class="edge">
<title>Node3&#45;&gt;Node17</title>
<path fill="none" stroke="midnightblue" d="M1577.85,-112.32C1594.69,-103.66 1620.78,-90.24 1640.22,-80.25"/>
<polygon fill="midnightblue" stroke="midnightblue" points="1641.86,-83.34 1649.15,-75.65 1638.66,-77.12 1641.86,-83.34"/>
</g>
<!-- Node18 -->
<g id="node18" class="node">
<title>Node18</title>
<g id="a_node18"><a xlink:title=" ">
<polygon fill="none" stroke="#bfbfbf" points="1754.48,-56.5 1754.48,-75.5 1903.48,-75.5 1903.48,-56.5 1754.48,-56.5"/>
<text text-anchor="middle" x="1828.98" y="-63.5" font-family="Helvetica,sans-Serif" font-size="10.00">rc_genicam_api/interface.h</text>
</a>
</g>
</g>
<!-- Node3&#45;&gt;Node18 -->
<g id="edge17" class="edge">
<title>Node3&#45;&gt;Node18</title>
<path fill="none" stroke="midnightblue" d="M1603.44,-112.44C1650.39,-102.98 1726.05,-87.74 1776.63,-77.55"/>
<polygon fill="midnightblue" stroke="midnightblue" points="1777.6,-80.92 1786.71,-75.52 1776.22,-74.06 1777.6,-80.92"/>
</g>
<!-- Node19 -->
<g id="node19" class="node">
<title>Node19</title>
<g id="a_node19"><a xlink:title=" ">
<polygon fill="none" stroke="#bfbfbf" points="1354.98,-56.5 1354.98,-75.5 1526.98,-75.5 1526.98,-56.5 1354.98,-56.5"/>
<text text-anchor="middle" x="1440.98" y="-63.5" font-family="Helvetica,sans-Serif" font-size="10.00">rc_genicam_api/nodemap_out.h</text>
</a>
</g>
</g>
<!-- Node3&#45;&gt;Node19 -->
<g id="edge19" class="edge">
<title>Node3&#45;&gt;Node19</title>
<path fill="none" stroke="midnightblue" d="M1541.96,-112.44C1522.39,-103.64 1491.67,-89.81 1469.25,-79.72"/>
<polygon fill="midnightblue" stroke="midnightblue" points="1470.46,-76.43 1459.9,-75.52 1467.59,-82.81 1470.46,-76.43"/>
</g>
<!-- Node3&#45;&gt;Node20 -->
<g id="edge20" class="edge">
<title>Node3&#45;&gt;Node20</title>
<path fill="none" stroke="midnightblue" d="M1617.79,-115.87C1692.92,-108.73 1829.33,-94.57 1944.98,-76 1946.23,-75.8 1947.51,-75.59 1948.79,-75.36"/>
<polygon fill="midnightblue" stroke="midnightblue" points="1949.54,-78.79 1958.74,-73.54 1948.27,-71.9 1949.54,-78.79"/>
</g>
<!-- Node21 -->
<g id="node21" class="node">
<title>Node21</title>
<g id="a_node21"><a xlink:title=" ">
<polygon fill="none" stroke="#bfbfbf" points="915.98,-56.5 915.98,-75.5 971.98,-75.5 971.98,-56.5 915.98,-56.5"/>
<text text-anchor="middle" x="943.98" y="-63.5" font-family="Helvetica,sans-Serif" font-size="10.00">sstream</text>
</a>
</g>
</g>
<!-- Node3&#45;&gt;Node21 -->
<g id="edge21" class="edge">
<title>Node3&#45;&gt;Node21</title>
<path fill="none" stroke="midnightblue" d="M1504.22,-119.63C1401.71,-116.49 1178.79,-106.65 982.1,-75.93"/>
<polygon fill="midnightblue" stroke="midnightblue" points="982.59,-72.46 972.16,-74.35 981.49,-79.37 982.59,-72.46"/>
</g>
<!-- Node22 -->
<g id="node22" class="node">
<title>Node22</title>
<g id="a_node22"><a xlink:title=" ">
<polygon fill="none" stroke="#bfbfbf" points="1544.98,-56.5 1544.98,-75.5 1576.98,-75.5 1576.98,-56.5 1544.98,-56.5"/>
<text text-anchor="middle" x="1560.98" y="-63.5" font-family="Helvetica,sans-Serif" font-size="10.00">set</text>
</a>
</g>
</g>
<!-- Node3&#45;&gt;Node22 -->
<g id="edge22" class="edge">
<title>Node3&#45;&gt;Node22</title>
<path fill="none" stroke="midnightblue" d="M1560.98,-112.08C1560.98,-105.01 1560.98,-94.86 1560.98,-85.99"/>
<polygon fill="midnightblue" stroke="midnightblue" points="1564.48,-85.75 1560.98,-75.75 1557.48,-85.75 1564.48,-85.75"/>
</g>
<!-- Node23 -->
<g id="node23" class="node">
<title>Node23</title>
<g id="a_node23"><a xlink:title=" ">
<polygon fill="none" stroke="#bfbfbf" points="2037.48,-56.5 2037.48,-75.5 2106.48,-75.5 2106.48,-56.5 2037.48,-56.5"/>
<text text-anchor="middle" x="2071.98" y="-63.5" font-family="Helvetica,sans-Serif" font-size="10.00">arpa/inet.h</text>
</a>
</g>
</g>
<!-- Node3&#45;&gt;Node23 -->
<g id="edge23" class="edge">
<title>Node3&#45;&gt;Node23</title>
<path fill="none" stroke="midnightblue" d="M1617.64,-117.48C1703.86,-111.7 1873.29,-98.66 2027.33,-75.93"/>
<polygon fill="midnightblue" stroke="midnightblue" points="2028.08,-79.36 2037.45,-74.42 2027.04,-72.44 2028.08,-79.36"/>
</g>
<!-- Node24 -->
<g id="node24" class="node">
<title>Node24</title>
<g id="a_node24"><a xlink:title=" ">
<polygon fill="none" stroke="#bfbfbf" points="1242.98,-56.5 1242.98,-75.5 1298.98,-75.5 1298.98,-56.5 1242.98,-56.5"/>
<text text-anchor="middle" x="1270.98" y="-63.5" font-family="Helvetica,sans-Serif" font-size="10.00">iomanip</text>
</a>
</g>
</g>
<!-- Node3&#45;&gt;Node24 -->
<g id="edge24" class="edge">
<title>Node3&#45;&gt;Node24</title>
<path fill="none" stroke="midnightblue" d="M1515.03,-112.44C1458.13,-101.85 1362.26,-84 1309.19,-74.12"/>
<polygon fill="midnightblue" stroke="midnightblue" points="1309.65,-70.64 1299.18,-72.25 1308.37,-77.52 1309.65,-70.64"/>
</g>
<!-- Node25 -->
<g id="node25" class="node">
<title>Node25</title>
<g id="a_node25"><a xlink:title=" ">
<polygon fill="none" stroke="#bfbfbf" points="2207.98,-56.5 2207.98,-75.5 2251.98,-75.5 2251.98,-56.5 2207.98,-56.5"/>
<text text-anchor="middle" x="2229.98" y="-63.5" font-family="Helvetica,sans-Serif" font-size="10.00">regex</text>
</a>
</g>
</g>
<!-- Node3&#45;&gt;Node25 -->
<g id="edge25" class="edge">
<title>Node3&#45;&gt;Node25</title>
<path fill="none" stroke="midnightblue" d="M1617.8,-121.02C1728.17,-120.17 1979.16,-114.01 2197.71,-75.84"/>
<polygon fill="midnightblue" stroke="midnightblue" points="2198.52,-79.25 2207.76,-74.06 2197.3,-72.36 2198.52,-79.25"/>
</g>
<!-- Node5 -->
<g id="node5" class="node">
<title>Node5</title>
<g id="a_node5"><a xlink:title=" ">
<polygon fill="none" stroke="#bfbfbf" points="1127.48,-0.5 1127.48,-19.5 1226.48,-19.5 1226.48,-0.5 1127.48,-0.5"/>
<text text-anchor="middle" x="1176.98" y="-7.5" font-family="Helvetica,sans-Serif" font-size="10.00">GenApi/GenApi.h</text>
</a>
</g>
</g>
<!-- Node4&#45;&gt;Node5 -->
<g id="edge4" class="edge">
<title>Node4&#45;&gt;Node5</title>
<path fill="none" stroke="midnightblue" d="M898.18,-57.6C901.16,-57.05 904.12,-56.51 906.98,-56 979.2,-43.07 1062.51,-29.37 1117.27,-20.53"/>
<polygon fill="midnightblue" stroke="midnightblue" points="1117.84,-23.98 1127.15,-18.94 1116.72,-17.07 1117.84,-23.98"/>
</g>
<!-- Node6 -->
<g id="node6" class="node">
<title>Node6</title>
<g id="a_node6"><a xlink:title=" ">
<polygon fill="none" stroke="#bfbfbf" points="450.98,-0.5 450.98,-19.5 566.98,-19.5 566.98,-0.5 450.98,-0.5"/>
<text text-anchor="middle" x="508.98" y="-7.5" font-family="Helvetica,sans-Serif" font-size="10.00">opencv2/opencv.hpp</text>
</a>
</g>
</g>
<!-- Node4&#45;&gt;Node6 -->
<g id="edge5" class="edge">
<title>Node4&#45;&gt;Node6</title>
<path fill="none" stroke="midnightblue" d="M821.94,-58.32C817.24,-57.52 812.5,-56.73 807.98,-56 728.99,-43.22 638.05,-29.71 577.41,-20.86"/>
<polygon fill="midnightblue" stroke="midnightblue" points="577.59,-17.35 567.19,-19.37 576.59,-24.28 577.59,-17.35"/>
</g>
<!-- Node7 -->
<g id="node7" class="node">
<title>Node7</title>
<g id="a_node7"><a xlink:title=" ">
<polygon fill="none" stroke="#bfbfbf" points="717.48,-0.5 717.48,-19.5 850.48,-19.5 850.48,-0.5 717.48,-0.5"/>
<text text-anchor="middle" x="783.98" y="-7.5" font-family="Helvetica,sans-Serif" font-size="10.00">rc_genicam_api/buffer.h</text>
</a>
</g>
</g>
<!-- Node4&#45;&gt;Node7 -->
<g id="edge6" class="edge">
<title>Node4&#45;&gt;Node7</title>
<path fill="none" stroke="midnightblue" d="M847.77,-56.32C836.2,-48.11 818.6,-35.6 804.82,-25.81"/>
<polygon fill="midnightblue" stroke="midnightblue" points="806.59,-22.77 796.41,-19.83 802.53,-28.48 806.59,-22.77"/>
</g>
<!-- Node4&#45;&gt;Node8 -->
<g id="edge7" class="edge">
<title>Node4&#45;&gt;Node8</title>
<path fill="none" stroke="midnightblue" d="M898.15,-57.43C901.13,-56.91 904.1,-56.43 906.98,-56 1048.74,-34.68 1087.52,-36.32 1233.82,-20.12"/>
<polygon fill="midnightblue" stroke="midnightblue" points="1234.53,-23.56 1244.08,-18.97 1233.75,-16.6 1234.53,-23.56"/>
</g>
<!-- Node9 -->
<g id="node9" class="node">
<title>Node9</title>
<g id="a_node9"><a xlink:title=" ">
<polygon fill="none" stroke="#bfbfbf" points="868.98,-0.5 868.98,-19.5 1040.98,-19.5 1040.98,-0.5 868.98,-0.5"/>
<text text-anchor="middle" x="954.98" y="-7.5" font-family="Helvetica,sans-Serif" font-size="10.00">rc_genicam_api/pixel_formats.h</text>
</a>
</g>
</g>
<!-- Node4&#45;&gt;Node9 -->
<g id="edge8" class="edge">
<title>Node4&#45;&gt;Node9</title>
<path fill="none" stroke="midnightblue" d="M875.24,-56.32C890.2,-47.82 913.23,-34.73 930.7,-24.8"/>
<polygon fill="midnightblue" stroke="midnightblue" points="932.79,-27.64 939.75,-19.65 929.33,-21.55 932.79,-27.64"/>
</g>
<!-- Node4&#45;&gt;Node10 -->
<g id="edge9" class="edge">
<title>Node4&#45;&gt;Node10</title>
<path fill="none" stroke="midnightblue" d="M821.74,-62.28C732.42,-55.82 503.17,-38.74 311.98,-20 297.64,-18.59 281.85,-16.84 268.19,-15.25"/>
<polygon fill="midnightblue" stroke="midnightblue" points="268.56,-11.77 258.22,-14.08 267.74,-18.72 268.56,-11.77"/>
</g>
<!-- Node11 -->
<g id="node11" class="node">
<title>Node11</title>
<g id="a_node11"><a xlink:title=" ">
<polygon fill="none" stroke="#bfbfbf" points="1058.98,-0.5 1058.98,-19.5 1108.98,-19.5 1108.98,-0.5 1058.98,-0.5"/>
<text text-anchor="middle" x="1083.98" y="-7.5" font-family="Helvetica,sans-Serif" font-size="10.00">cstdint</text>
</a>
</g>
</g>
<!-- Node4&#45;&gt;Node11 -->
<g id="edge10" class="edge">
<title>Node4&#45;&gt;Node11</title>
<path fill="none" stroke="midnightblue" d="M897.18,-56.49C933.52,-48.12 990.62,-34.77 1048.99,-20.2"/>
<polygon fill="midnightblue" stroke="midnightblue" points="1049.9,-23.58 1058.75,-17.76 1048.19,-16.79 1049.9,-23.58"/>
</g>
<!-- Node4&#45;&gt;Node12 -->
<g id="edge11" class="edge">
<title>Node4&#45;&gt;Node12</title>
<path fill="none" stroke="midnightblue" d="M898.14,-57.31C901.12,-56.83 904.09,-56.38 906.98,-56 1117.58,-28.1 1176.04,-52.21 1389.65,-19.97"/>
<polygon fill="midnightblue" stroke="midnightblue" points="1390.26,-23.42 1399.61,-18.44 1389.19,-16.5 1390.26,-23.42"/>
</g>
<!-- Node13 -->
<g id="node13" class="node">
<title>Node13</title>
<g id="a_node13"><a xlink:title=" ">
<polygon fill="none" stroke="#bfbfbf" points="650.98,-0.5 650.98,-19.5 698.98,-19.5 698.98,-0.5 650.98,-0.5"/>
<text text-anchor="middle" x="674.98" y="-7.5" font-family="Helvetica,sans-Serif" font-size="10.00">mutex</text>
</a>
</g>
</g>
<!-- Node4&#45;&gt;Node13 -->
<g id="edge12" class="edge">
<title>Node4&#45;&gt;Node13</title>
<path fill="none" stroke="midnightblue" d="M830.66,-56.44C797.56,-46.78 743.77,-31.08 708.88,-20.9"/>
<polygon fill="midnightblue" stroke="midnightblue" points="709.72,-17.5 699.14,-18.05 707.76,-24.22 709.72,-17.5"/>
</g>
<!-- Node4&#45;&gt;Node14 -->
<g id="edge13" class="edge">
<title>Node4&#45;&gt;Node14</title>
<path fill="none" stroke="midnightblue" d="M821.97,-58.09C817.27,-57.33 812.52,-56.62 807.98,-56 649.33,-34.5 604.31,-50.24 443.47,-19.95"/>
<polygon fill="midnightblue" stroke="midnightblue" points="443.69,-16.43 433.21,-17.99 442.37,-23.3 443.69,-16.43"/>
</g>
<!-- Node15 -->
<g id="node15" class="node">
<title>Node15</title>
<g id="a_node15"><a xlink:title=" ">
<polygon fill="none" stroke="#bfbfbf" points="585.48,-0.5 585.48,-19.5 632.48,-19.5 632.48,-0.5 585.48,-0.5"/>
<text text-anchor="middle" x="608.98" y="-7.5" font-family="Helvetica,sans-Serif" font-size="10.00">vector</text>
</a>
</g>
</g>
<!-- Node4&#45;&gt;Node15 -->
<g id="edge14" class="edge">
<title>Node4&#45;&gt;Node15</title>
<path fill="none" stroke="midnightblue" d="M821.62,-57.84C780,-49.9 711.37,-36.32 642.83,-20.08"/>
<polygon fill="midnightblue" stroke="midnightblue" points="643.26,-16.59 632.72,-17.67 641.64,-23.4 643.26,-16.59"/>
</g>
<!-- Node4&#45;&gt;Node16 -->
<g id="edge15" class="edge">
<title>Node4&#45;&gt;Node16</title>
<path fill="none" stroke="midnightblue" d="M821.91,-62.25C727.2,-55.28 481.88,-36.41 381,-19.85"/>
<polygon fill="midnightblue" stroke="midnightblue" points="381.57,-16.4 371.12,-18.15 380.39,-23.3 381.57,-16.4"/>
</g>
<!-- Node26&#45;&gt;Node4 -->
<g id="edge27" class="edge">
<title>Node26&#45;&gt;Node4</title>
<path fill="none" stroke="midnightblue" d="M1137.21,-112.46C1080.97,-104.15 993.5,-90.87 908.29,-76.18"/>
<polygon fill="midnightblue" stroke="midnightblue" points="908.63,-72.69 898.18,-74.43 907.43,-79.58 908.63,-72.69"/>
</g>
<!-- Node26&#45;&gt;Node5 -->
<g id="edge32" class="edge">
<title>Node26&#45;&gt;Node5</title>
<path fill="none" stroke="midnightblue" d="M1194.49,-112.37C1191.42,-94.62 1184.35,-53.67 1180.19,-29.6"/>
<polygon fill="midnightblue" stroke="midnightblue" points="1183.61,-28.85 1178.46,-19.59 1176.71,-30.04 1183.61,-28.85"/>
</g>
<!-- Node26&#45;&gt;Node8 -->
<g id="edge30" class="edge">
<title>Node26&#45;&gt;Node8</title>
<path fill="none" stroke="midnightblue" d="M1199.25,-112.48C1204.73,-99.09 1216.87,-72.91 1233.98,-56 1247.64,-42.49 1266.17,-31.65 1281.85,-24"/>
<polygon fill="midnightblue" stroke="midnightblue" points="1283.6,-27.05 1291.18,-19.65 1280.64,-20.71 1283.6,-27.05"/>
</g>
<!-- Node26&#45;&gt;Node10 -->
<g id="edge41" class="edge">
<title>Node26&#45;&gt;Node10</title>
<path fill="none" stroke="midnightblue" d="M1135.34,-119.44C1013.62,-115.73 743.66,-104.48 655.98,-76 639.67,-70.7 639.2,-61.56 622.98,-56 620.88,-55.28 363.65,-25.9 268.15,-15.01"/>
<polygon fill="midnightblue" stroke="midnightblue" points="268.44,-11.52 258.11,-13.86 267.65,-18.47 268.44,-11.52"/>
</g>
<!-- Node26&#45;&gt;Node12 -->
<g id="edge34" class="edge">
<title>Node26&#45;&gt;Node12</title>
<path fill="none" stroke="midnightblue" d="M1219.47,-112.43C1242.35,-103.88 1277.99,-90.03 1307.98,-76 1317.51,-71.54 1371.46,-42.31 1404.01,-24.6"/>
<polygon fill="midnightblue" stroke="midnightblue" points="1405.86,-27.58 1412.97,-19.73 1402.51,-21.43 1405.86,-27.58"/>
</g>
<!-- Node26&#45;&gt;Node14 -->
<g id="edge35" class="edge">
<title>Node26&#45;&gt;Node14</title>
<path fill="none" stroke="midnightblue" d="M1135.27,-116.23C1059.45,-109.73 925.95,-96.5 812.98,-76 776.49,-69.38 768.44,-62.74 731.98,-56 607.51,-32.99 571.03,-45.51 443.39,-19.99"/>
<polygon fill="midnightblue" stroke="midnightblue" points="443.72,-16.49 433.22,-17.92 442.32,-23.35 443.72,-16.49"/>
</g>
<!-- Node26&#45;&gt;Node16 -->
<g id="edge37" class="edge">
<title>Node26&#45;&gt;Node16</title>
<path fill="none" stroke="midnightblue" d="M1135.12,-118.22C1046.04,-113.44 875.18,-101.62 731.98,-76 697.6,-69.85 690.25,-62.72 655.98,-56 537.78,-32.84 503.17,-43.29 381.25,-20.02"/>
<polygon fill="midnightblue" stroke="midnightblue" points="381.63,-16.52 371.14,-18.05 380.29,-23.4 381.63,-16.52"/>
</g>
<!-- Node26&#45;&gt;Node17 -->
<g id="edge28" class="edge">
<title>Node26&#45;&gt;Node17</title>
<path fill="none" stroke="midnightblue" d="M1256.94,-114C1340.82,-104.36 1491.99,-86.99 1585.2,-76.28"/>
<polygon fill="midnightblue" stroke="midnightblue" points="1585.62,-79.76 1595.15,-75.14 1584.82,-72.8 1585.62,-79.76"/>
</g>
<!-- Node26&#45;&gt;Node18 -->
<g id="edge29" class="edge">
<title>Node26&#45;&gt;Node18</title>
<path fill="none" stroke="midnightblue" d="M1256.66,-116.56C1356.23,-109.16 1560.78,-93.47 1744.23,-76.15"/>
<polygon fill="midnightblue" stroke="midnightblue" points="1744.71,-79.62 1754.33,-75.19 1744.04,-72.65 1744.71,-79.62"/>
</g>
<!-- Node26&#45;&gt;Node19 -->
<g id="edge31" class="edge">
<title>Node26&#45;&gt;Node19</title>
<path fill="none" stroke="midnightblue" d="M1234.8,-112.44C1277.54,-103.02 1346.31,-87.87 1392.54,-77.68"/>
<polygon fill="midnightblue" stroke="midnightblue" points="1393.33,-81.09 1402.34,-75.52 1391.82,-74.25 1393.33,-81.09"/>
</g>
<!-- Node26&#45;&gt;Node20 -->
<g id="edge33" class="edge">
<title>Node26&#45;&gt;Node20</title>
<path fill="none" stroke="midnightblue" d="M1256.5,-118.33C1380.05,-112.63 1670.13,-97.98 1912.98,-76 1924.53,-74.95 1937.04,-73.58 1948.51,-72.21"/>
<polygon fill="midnightblue" stroke="midnightblue" points="1949.19,-75.66 1958.69,-70.97 1948.34,-68.71 1949.19,-75.66"/>
</g>
<!-- Node26&#45;&gt;Node22 -->
<g id="edge42" class="edge">
<title>Node26&#45;&gt;Node22</title>
<path fill="none" stroke="midnightblue" d="M1256.58,-116.91C1323,-111.55 1432.67,-100.14 1534.86,-75.81"/>
<polygon fill="midnightblue" stroke="midnightblue" points="1535.83,-79.18 1544.72,-73.42 1534.18,-72.37 1535.83,-79.18"/>
</g>
<!-- Node26&#45;&gt;Node24 -->
<g id="edge39" class="edge">
<title>Node26&#45;&gt;Node24</title>
<path fill="none" stroke="midnightblue" d="M1208.03,-112.32C1219.44,-104.11 1236.81,-91.6 1250.41,-81.81"/>
<polygon fill="midnightblue" stroke="midnightblue" points="1252.64,-84.52 1258.71,-75.83 1248.55,-78.84 1252.64,-84.52"/>
</g>
<!-- Node26&#45;&gt;Node27 -->
<g id="edge36" class="edge">
<title>Node26&#45;&gt;Node27</title>
<path fill="none" stroke="midnightblue" d="M1256.71,-119.36C1430.74,-114.44 1930.05,-98.84 2114.28,-75.97"/>
<polygon fill="midnightblue" stroke="midnightblue" points="2114.92,-79.42 2124.39,-74.67 2114.03,-72.48 2114.92,-79.42"/>
</g>
<!-- Node28 -->
<g id="node28" class="node">
<title>Node28</title>
<g id="a_node28"><a xlink:title=" ">
<polygon fill="none" stroke="#bfbfbf" points="565.98,-56.5 565.98,-75.5 613.98,-75.5 613.98,-56.5 565.98,-56.5"/>
<text text-anchor="middle" x="589.98" y="-63.5" font-family="Helvetica,sans-Serif" font-size="10.00">thread</text>
</a>
</g>
</g>
<!-- Node26&#45;&gt;Node28 -->
<g id="edge38" class="edge">
<title>Node26&#45;&gt;Node28</title>
<path fill="none" stroke="midnightblue" d="M1135.09,-119.24C1030.73,-115.54 811.21,-104.78 627.98,-76 626.7,-75.8 625.39,-75.58 624.08,-75.34"/>
<polygon fill="midnightblue" stroke="midnightblue" points="624.49,-71.85 613.99,-73.27 623.08,-78.71 624.49,-71.85"/>
</g>
<!-- Node26&#45;&gt;Node29 -->
<g id="edge40" class="edge">
<title>Node26&#45;&gt;Node29</title>
<path fill="none" stroke="midnightblue" d="M1256.78,-119.18C1462.12,-112.91 2124.25,-91.87 2259.93,-75.65"/>
<polygon fill="midnightblue" stroke="midnightblue" points="2260.66,-79.09 2270.11,-74.3 2259.73,-72.15 2260.66,-79.09"/>
</g>
<!-- Node30 -->
<g id="node30" class="node">
<title>Node30</title>
<g id="a_node30"><a xlink:title=" ">
<polygon fill="none" stroke="#bfbfbf" points="990.48,-56.5 990.48,-75.5 1083.48,-75.5 1083.48,-56.5 990.48,-56.5"/>
<text text-anchor="middle" x="1036.98" y="-63.5" font-family="Helvetica,sans-Serif" font-size="10.00">unordered_map</text>
</a>
</g>
</g>
<!-- Node26&#45;&gt;Node30 -->
<g id="edge43" class="edge">
<title>Node26&#45;&gt;Node30</title>
<path fill="none" stroke="midnightblue" d="M1170.78,-112.44C1144.03,-103.36 1101.57,-88.94 1071.67,-78.78"/>
<polygon fill="midnightblue" stroke="midnightblue" points="1072.65,-75.42 1062.05,-75.52 1070.4,-82.05 1072.65,-75.42"/>
</g>
<!-- Node31 -->
<g id="node31" class="node">
<title>Node31</title>
<g id="a_node31"><a xlink:title=" ">
<polygon fill="none" stroke="#bfbfbf" points="1101.48,-56.5 1101.48,-75.5 1148.48,-75.5 1148.48,-56.5 1101.48,-56.5"/>
<text text-anchor="middle" x="1124.98" y="-63.5" font-family="Helvetica,sans-Serif" font-size="10.00">deque</text>
</a>
</g>
</g>
<!-- Node26&#45;&gt;Node31 -->
<g id="edge44" class="edge">
<title>Node26&#45;&gt;Node31</title>
<path fill="none" stroke="midnightblue" d="M1184.57,-112.32C1173.87,-104.18 1157.64,-91.84 1144.81,-82.09"/>
<polygon fill="midnightblue" stroke="midnightblue" points="1146.67,-79.1 1136.59,-75.83 1142.43,-84.67 1146.67,-79.1"/>
</g>
<!-- Node32&#45;&gt;Node4 -->
<g id="edge47" class="edge">
<title>Node32&#45;&gt;Node4</title>
<path fill="none" stroke="midnightblue" d="M443.63,-114.43C538.08,-103.67 724.07,-82.48 811.89,-72.48"/>
<polygon fill="midnightblue" stroke="midnightblue" points="812.31,-75.95 821.85,-71.34 811.52,-69 812.31,-75.95"/>
</g>
<!-- Node32&#45;&gt;Node6 -->
<g id="edge46" class="edge">
<title>Node32&#45;&gt;Node6</title>
<path fill="none" stroke="midnightblue" d="M387.03,-112.31C389.1,-98.7 394.91,-72.21 409.98,-56 424.43,-40.46 445.27,-29.89 464.11,-22.92"/>
<polygon fill="midnightblue" stroke="midnightblue" points="465.43,-26.17 473.74,-19.6 463.15,-19.55 465.43,-26.17"/>
</g>
<!-- Node32&#45;&gt;Node10 -->
<g id="edge48" class="edge">
<title>Node32&#45;&gt;Node10</title>
<path fill="none" stroke="midnightblue" d="M328.27,-116.39C299.24,-111.03 265.87,-99.72 244.98,-76 233.96,-63.5 231.58,-44.27 231.59,-29.97"/>
<polygon fill="midnightblue" stroke="midnightblue" points="235.09,-29.9 231.98,-19.77 228.1,-29.63 235.09,-29.9"/>
</g>
<!-- Node32&#45;&gt;Node13 -->
<g id="edge51" class="edge">
<title>Node32&#45;&gt;Node13</title>
<path fill="none" stroke="midnightblue" d="M408.65,-112.37C459.72,-92.93 583.88,-45.67 642.85,-23.23"/>
<polygon fill="midnightblue" stroke="midnightblue" points="644.3,-26.42 652.41,-19.59 641.81,-19.88 644.3,-26.42"/>
</g>
<!-- Node32&#45;&gt;Node15 -->
<g id="edge53" class="edge">
<title>Node32&#45;&gt;Node15</title>
<path fill="none" stroke="midnightblue" d="M397.47,-112.29C415.55,-98.88 452.08,-72.94 485.98,-56 515.12,-41.43 550.16,-29.08 575.38,-21.02"/>
<polygon fill="midnightblue" stroke="midnightblue" points="576.7,-24.27 585.2,-17.94 574.61,-17.59 576.7,-24.27"/>
</g>
<!-- Node32&#45;&gt;Node16 -->
<g id="edge49" class="edge">
<title>Node32&#45;&gt;Node16</title>
<path fill="none" stroke="midnightblue" d="M382.84,-112.37C376.35,-94.54 361.36,-53.3 352.62,-29.27"/>
<polygon fill="midnightblue" stroke="midnightblue" points="355.81,-27.79 349.1,-19.59 349.23,-30.19 355.81,-27.79"/>
</g>
<!-- Node32&#45;&gt;Node28 -->
<g id="edge52" class="edge">
<title>Node32&#45;&gt;Node28</title>
<path fill="none" stroke="midnightblue" d="M418.3,-112.44C455.78,-102.52 517.31,-86.23 555.64,-76.09"/>
<polygon fill="midnightblue" stroke="midnightblue" points="557.02,-79.35 565.79,-73.4 555.23,-72.58 557.02,-79.35"/>
</g>
<!-- Node33 -->
<g id="node33" class="node">
<title>Node33</title>
<g id="a_node33"><a xlink:title=" ">
<polygon fill="none" stroke="#bfbfbf" points="254.48,-56.5 254.48,-75.5 319.48,-75.5 319.48,-56.5 254.48,-56.5"/>
<text text-anchor="middle" x="286.98" y="-63.5" font-family="Helvetica,sans-Serif" font-size="10.00">functional</text>
</a>
</g>
</g>
<!-- Node32&#45;&gt;Node33 -->
<g id="edge50" class="edge">
<title>Node32&#45;&gt;Node33</title>
<path fill="none" stroke="midnightblue" d="M370.07,-112.32C354.34,-103.74 330.03,-90.49 311.77,-80.52"/>
<polygon fill="midnightblue" stroke="midnightblue" points="313.3,-77.37 302.84,-75.65 309.95,-83.52 313.3,-77.37"/>
</g>
<!-- Node32&#45;&gt;Node34 -->
<g id="edge54" class="edge">
<title>Node32&#45;&gt;Node34</title>
<path fill="none" stroke="midnightblue" d="M335.59,-112.44C266.94,-100.79 146.54,-80.34 93.88,-71.4"/>
<polygon fill="midnightblue" stroke="midnightblue" points="94.44,-67.94 83.99,-69.72 93.27,-74.84 94.44,-67.94"/>
</g>
<!-- Node35&#45;&gt;Node10 -->
<g id="edge63" class="edge">
<title>Node35&#45;&gt;Node10</title>
<path fill="none" stroke="midnightblue" d="M701.32,-113.48C646.01,-105.53 558.16,-91.94 482.98,-76 405.52,-59.58 316,-34.9 267.89,-21.15"/>
<polygon fill="midnightblue" stroke="midnightblue" points="268.57,-17.71 257.99,-18.31 266.64,-24.43 268.57,-17.71"/>
</g>
<!-- Node35&#45;&gt;Node13 -->
<g id="edge64" class="edge">
<title>Node35&#45;&gt;Node13</title>
<path fill="none" stroke="midnightblue" d="M749.62,-112.37C736.19,-94.14 704.75,-51.43 687.26,-27.68"/>
<polygon fill="midnightblue" stroke="midnightblue" points="690.05,-25.57 681.3,-19.59 684.41,-29.72 690.05,-25.57"/>
</g>
<!-- Node35&#45;&gt;Node14 -->
<g id="edge65" class="edge">
<title>Node35&#45;&gt;Node14</title>
<path fill="none" stroke="midnightblue" d="M741.36,-112.28C717.42,-98.38 668.03,-71.2 622.98,-56 548.3,-30.8 523.58,-38.75 443.34,-20.13"/>
<polygon fill="midnightblue" stroke="midnightblue" points="443.81,-16.64 433.27,-17.72 442.18,-23.45 443.81,-16.64"/>
</g>
<!-- Node35&#45;&gt;Node16 -->
<g id="edge67" class="edge">
<title>Node35&#45;&gt;Node16</title>
<path fill="none" stroke="midnightblue" d="M713.82,-112.44C673.38,-104.01 610.71,-90.33 556.98,-76 494.36,-59.3 422.43,-36.31 380.79,-22.62"/>
<polygon fill="midnightblue" stroke="midnightblue" points="381.72,-19.24 371.13,-19.43 379.53,-25.89 381.72,-19.24"/>
</g>
<!-- Node35&#45;&gt;Node21 -->
<g id="edge66" class="edge">
<title>Node35&#45;&gt;Node21</title>
<path fill="none" stroke="midnightblue" d="M785.77,-112.44C818.28,-103.11 870.42,-88.13 905.88,-77.94"/>
<polygon fill="midnightblue" stroke="midnightblue" points="907.22,-81.2 915.86,-75.08 905.29,-74.47 907.22,-81.2"/>
</g>
<!-- Node35&#45;&gt;Node24 -->
<g id="edge68" class="edge">
<title>Node35&#45;&gt;Node24</title>
<path fill="none" stroke="midnightblue" d="M810.6,-115.27C915.44,-104.28 1142.44,-80.48 1232.78,-71.01"/>
<polygon fill="midnightblue" stroke="midnightblue" points="1233.27,-74.47 1242.85,-69.95 1232.54,-67.51 1233.27,-74.47"/>
</g>
</g>
</svg>
        <g id="navigator" transform="translate(0 0)" fill="#404254">
                <rect fill="#f2f5e9" fill-opacity="0.5" stroke="#606060" stroke-width=".5" x="0" y="0" width="60" height="60"/>
                <use id="zoomplus" xlink:href="#zoomPlus" x="17" y="9" onmousedown="handleZoom(evt,'in')"/>
                <use id="zoomminus" xlink:href="#zoomMin" x="42" y="9" onmousedown="handleZoom(evt,'out')"/>
                <use id="reset" xlink:href="#resetDef" x="30" y="36" onmousedown="handleReset()"/>
                <g id="arrowUp" xlink:href="#dirArrow" transform="translate(30 24)" onmousedown="handlePan(0,-1)">
                  <use xlink:href="#rim" fill="#404040">
                        <set attributeName="fill" to="#808080" begin="arrowUp.mouseover" end="arrowUp.mouseout"/>
                  </use>
                  <path fill="none" stroke="white" stroke-width="1.5" d="M0,-3.0v7 M-2.5,-0.5L0,-3.0L2.5,-0.5"/>
                </g>
                <g id="arrowRight" xlink:href="#dirArrow" transform="rotate(90) translate(36 -43)" onmousedown="handlePan(1,0)">
                  <use xlink:href="#rim" fill="#404040">
                        <set attributeName="fill" to="#808080" begin="arrowRight.mouseover" end="arrowRight.mouseout"/>
                  </use>
                  <path fill="none" stroke="white" stroke-width="1.5" d="M0,-3.0v7 M-2.5,-0.5L0,-3.0L2.5,-0.5"/>
                </g>
                <g id="arrowDown" xlink:href="#dirArrow" transform="rotate(180) translate(-30 -48)" onmousedown="handlePan(0,1)">
                  <use xlink:href="#rim" fill="#404040">
                        <set attributeName="fill" to="#808080" begin="arrowDown.mouseover" end="arrowDown.mouseout"/>
                  </use>
                  <path fill="none" stroke="white" stroke-width="1.5" d="M0,-3.0v7 M-2.5,-0.5L0,-3.0L2.5,-0.5"/>
                </g>
                <g id="arrowLeft" xlink:href="#dirArrow" transform="rotate(270) translate(-36 17)" onmousedown="handlePan(-1,0)">
                  <use xlink:href="#rim" fill="#404040">
                        <set attributeName="fill" to="#808080" begin="arrowLeft.mouseover" end="arrowLeft.mouseout"/>
                  </use>
                  <path fill="none" stroke="white" stroke-width="1.5" d="M0,-3.0v7 M-2.5,-0.5L0,-3.0L2.5,-0.5"/>
                </g>
        </g>
        <svg viewBox="0 0 15 15" width="100%" height="30px" preserveAspectRatio="xMaxYMin meet">
         <g id="arrow_out" transform="scale(0.3 0.3)">
          <a xlink:href="SystemManager_8cpp__incl_org.svg" target="_base">
           <rect id="button" ry="5" rx="5" y="6" x="6" height="38" width="38"
                fill="#f2f5e9" fill-opacity="0.5" stroke="#606060" stroke-width="1.0"/>
           <path id="arrow"
             d="M 11.500037,31.436501 C 11.940474,20.09759 22.043105,11.32322 32.158766,21.979434 L 37.068811,17.246167 C 37.068811,17.246167 37.088388,32 37.088388,32 L 22.160133,31.978069 C 22.160133,31.978069 26.997745,27.140456 26.997745,27.140456 C 18.528582,18.264221 13.291696,25.230495 11.500037,31.436501 z"
             style="fill:#404040;"/>
          </a>
         </g>
        </svg>
</svg>
