<?xml version="1.0" encoding="UTF-8"?><svg id="a" xmlns="http://www.w3.org/2000/svg" width="607.63" height="62.82" viewBox="0 0 607.63 62.82"><path d="M57.77,27.91c.41-1.13.54-1.31.75-1.31s.36.17.75,1.22c.51,1.29,5.85,15.35,7.93,20.53,1.22,3.03,2.21,3.57,2.93,3.78.44.14.9.21,1.36.21.21,0,.36.03.36.2s-.31.27-.68.27c-.51,0-3,0-5.34-.07-.65-.04-1.02-.04-1.02-.24,0-.14.1-.21.24-.24.21-.07.41-.37.21-.92l-3.17-8.37c-.04-.13-.17-.22-.31-.21h-7.33c-.17,0-.27.1-.36.27l-2.04,6.04c-.28.73-.44,1.5-.48,2.28,0,.68.71.99,1.29.99h.36c.24,0,.36.07.36.2,0,.21-.21.27-.51.27-.82,0-2.28-.1-2.66-.1s-2.25.1-3.84.1c-.44,0-.65-.07-.65-.27,0-.13.13-.2.31-.2.24,0,.71-.04.99-.07,1.57-.2,2.25-1.49,2.84-3.2l7.73-21.17ZM61.32,41.53c.17,0,.17-.1.13-.24l-3.23-9.19c-.17-.51-.34-.51-.51,0l-3,9.19c-.07.17,0,.24.1.24h6.5ZM75.64,36.93c0-5.33,0-6.27-.07-7.35-.07-1.16-.36-1.7-1.46-1.94-.38-.07-.77-.1-1.16-.1-.13,0-.27-.07-.27-.2,0-.21.17-.27.55-.27,1.53,0,3.67.1,3.84.1.38,0,2.96-.1,4.02-.1,2.13,0,4.42.21,6.23,1.5,1.45,1.1,2.31,2.8,2.35,4.62,0,2.52-1.07,5.04-4.12,7.86,2.79,3.57,5.11,6.6,7.08,8.71,1.84,1.94,3.3,2.31,4.15,2.45.44.07.88.11,1.33.1.17,0,.31.1.31.2,0,.21-.2.27-.82.27h-2.42c-1.91,0-2.75-.17-3.64-.65-1.46-.78-2.66-2.45-4.59-5.01-1.42-1.87-3.03-4.15-3.71-5.04-.11-.13-.27-.21-.44-.21l-4.19-.07c-.17,0-.24.1-.24.27v.84c0,3.27,0,5.96.17,7.39.1.99.31,1.74,1.33,1.87.51.07,1.02.12,1.53.14.2,0,.27.1.27.2,0,.17-.17.27-.55.27-1.87,0-4.02-.1-4.19-.1-.04,0-2.18.1-3.2.1-.37,0-.54-.07-.54-.27,0-.1.07-.2.27-.2.34-.01.68-.06,1.02-.14.68-.13.85-.88.99-1.87.17-1.42.17-4.12.17-7.39v-6ZM78.37,39.89c0,.17.09.33.24.41.51.31,2.08.54,3.57.54.9.05,1.79-.18,2.56-.65,1.19-.82,2.08-2.66,2.08-5.24,0-4.26-2.25-6.81-5.89-6.81-.77-.02-1.53.05-2.28.2-.17.06-.28.23-.27.41v11.13ZM101.05,36.93c0-5.33,0-6.27-.06-7.35-.06-1.16-.32-1.7-1.39-1.94-.36-.07-.73-.1-1.1-.1-.13,0-.26-.07-.26-.2,0-.21.16-.27.51-.27,1.46,0,3.37.1,3.55.1.29,0,2.17-.1,3.14-.1.36,0,.52.07.52.27,0,.13-.13.2-.26.2-.27.01-.54.04-.81.1-.87.17-1.13.75-1.2,1.94-.06,1.09-.06,2.04-.06,7.35v2.04h.12c.55-.65,6.39-6.91,7.57-8.24.91-.99,1.75-1.87,1.75-2.45.04-.31-.14-.6-.42-.71-.16-.07-.29-.14-.29-.27s.16-.24.39-.24c.65,0,1.65.1,2.42.1.16,0,2.29-.1,3.1-.1.36,0,.49.07.49.24s-.06.24-.32.24c-.63.04-1.24.2-1.8.48-1.33.61-2.04,1.47-3.49,2.93-.81.82-6.44,6.6-7.1,7.46.84.99,5.62,8.3,6.95,9.59,2.72,2.66,3.27,3.2,4.82,3.88.64.27,1.32.42,2.01.44.23,0,.42.07.42.2s-.16.27-.71.27h-1.65c-.91,0-1.52,0-2.23-.07-1.71-.17-2.52-.92-3.91-2.08-1.46-1.26-6.37-9.06-7.92-11.07h-.16v3.35c0,3.27,0,5.96.16,7.39.1.99.29,1.74,1.26,1.87.42.07.84.12,1.26.14.2,0,.26.1.26.2,0,.17-.16.27-.52.27-1.58,0-3.46-.1-3.72-.1s-2.13.1-3.1.1c-.36,0-.52-.07-.52-.27,0-.1.06-.2.26-.2.33-.01.65-.06.97-.14.65-.13.81-.88.94-1.87.16-1.42.16-4.12.16-7.39l-.02-6ZM132.7,27.91c.41-1.13.54-1.33.75-1.33s.36.17.75,1.22c.51,1.29,5.85,15.35,7.93,20.53,1.22,3.03,2.21,3.57,2.93,3.78.44.14.9.21,1.36.21.21,0,.36.03.36.2s-.31.27-.68.27c-.51,0-3,0-5.33-.07-.65-.04-1.02-.04-1.02-.24,0-.14.1-.21.24-.24.21-.07.41-.37.21-.92l-3.17-8.37c-.04-.13-.17-.22-.31-.21h-7.35c-.17,0-.27.1-.36.27l-2.04,6.04c-.28.73-.44,1.5-.48,2.28,0,.68.71.99,1.29.99h.36c.24,0,.36.07.36.2,0,.21-.2.27-.51.27-.82,0-2.28-.1-2.66-.1s-2.25.1-3.84.1c-.44,0-.65-.07-.65-.27,0-.13.13-.2.31-.2.24,0,.71-.04.99-.07,1.57-.2,2.25-1.49,2.86-3.2l7.71-21.15ZM136.25,41.53c.17,0,.17-.1.14-.24l-3.23-9.19c-.17-.51-.34-.51-.51,0l-3,9.19c-.07.17,0,.24.1.24h6.5ZM176.96,52.35c-.48-.24-.51-.36-.51-1.29,0-1.7.13-3.06.17-3.61.04-.36.1-.54.27-.54s.24.1.24.38c-.01.42.02.84.1,1.26.51,2.52,2.75,3.47,5.04,3.47,3.27,0,4.87-2.35,4.87-4.53,0-2.35-.99-3.71-3.91-6.13l-1.54-1.27c-3.61-2.96-4.43-5.07-4.43-7.38,0-3.62,2.72-6.11,7.05-6.11,1.07-.01,2.13.11,3.17.36.39.1.79.15,1.19.17.27,0,.36.07.36.24s-.13,1.29-.13,3.61c0,.54-.07.78-.24.78s-.24-.17-.27-.44c-.06-.59-.21-1.16-.44-1.7-.2-.38-1.12-1.81-4.26-1.81-2.35,0-4.19,1.47-4.19,3.95,0,1.94.88,3.16,4.15,5.72l.95.75c4.02,3.17,4.97,5.28,4.97,8-.01,2.23-1.09,4.33-2.89,5.65-1.47,1.02-3.3,1.42-5.14,1.42-1.57.04-3.14-.28-4.57-.94h0ZM202.45,27.91c.41-1.13.55-1.33.75-1.33s.36.17.75,1.22c.51,1.29,5.85,15.35,7.93,20.53,1.23,3.03,2.22,3.57,2.93,3.78.44.14.9.21,1.36.21.2,0,.36.03.36.2s-.31.27-.68.27c-.51,0-3,0-5.35-.07-.65-.04-1.02-.04-1.02-.24,0-.14.1-.21.24-.24.2-.07.41-.37.2-.92l-3.16-8.37c-.04-.13-.17-.21-.31-.21h-7.33c-.17,0-.32.11-.36.27l-2.04,6.04c-.28.73-.45,1.5-.48,2.28,0,.68.71.99,1.29.99h.36c.24,0,.36.07.36.2,0,.21-.2.27-.51.27-.82,0-2.28-.1-2.66-.1s-2.25.1-3.85.1c-.44,0-.65-.07-.65-.27,0-.13.13-.2.31-.2.33,0,.66-.03.99-.07,1.57-.2,2.25-1.49,2.86-3.2l7.71-21.15ZM206,41.53c.17,0,.17-.1.13-.24l-3.23-9.19c-.17-.51-.34-.51-.51,0l-3,9.19c-.07.17,0,.24.1.24h6.5ZM218.88,52.35c-.48-.24-.51-.36-.51-1.29,0-1.7.14-3.06.17-3.61.04-.36.1-.54.27-.54s.24.1.24.38c-.01.42.02.84.1,1.26.51,2.52,2.75,3.47,5.04,3.47,3.27,0,4.87-2.35,4.87-4.53,0-2.35-.99-3.71-3.91-6.13l-1.54-1.27c-3.61-2.96-4.43-5.07-4.43-7.38,0-3.62,2.72-6.11,7.05-6.11,1.07-.01,2.13.11,3.17.36.39.1.79.15,1.19.17.27,0,.36.07.36.24s-.13,1.29-.13,3.61c0,.54-.07.78-.24.78s-.24-.17-.27-.44c-.06-.59-.21-1.16-.44-1.7-.21-.38-1.13-1.81-4.26-1.81-2.35,0-4.19,1.47-4.19,3.95,0,1.94.88,3.16,4.15,5.72l.95.75c4.02,3.17,4.97,5.28,4.97,8-.01,2.23-1.09,4.33-2.89,5.65-1.47,1.02-3.3,1.42-5.14,1.42-1.58.04-3.14-.28-4.58-.94ZM152,48.16c.06,2.79.36,3.68,1.19,3.95.5.13,1.02.2,1.53.2.15,0,.24.07.24.21,0,.2-.18.27-.55.27-1.75,0-2.97-.1-3.25-.1s-1.56.1-2.94.1c-.31,0-.49-.03-.49-.27,0-.14.09-.21.24-.21.43,0,.85-.07,1.25-.2.77-.24.92-1.23.92-4.32l.03-19.5c0-1.33.09-1.7.34-1.7s.77.75,1.07,1.09c.46.58,5.02,6.06,9.74,11.68,3.03,3.61,6.39,7.76,7.35,8.88l-.32-17.28c-.03-2.22-.24-2.96-1.2-3.23-.49-.11-1-.17-1.5-.17-.21,0-.24-.1-.24-.24,0-.21.24-.24.61-.24,1.38,0,2.84.1,3.2.1s1.35-.1,2.61-.1c.34,0,.55.04.55.24,0,.13-.12.24-.34.24-.25,0-.5.03-.73.1-1.01.24-1.13.99-1.13,3.03l-.06,19.95c0,2.24-.06,2.41-.28,2.41s-.61-.36-2.24-2.18c-.34-.36-4.75-5.33-7.99-9.23-3.55-4.26-7.01-8.54-7.99-9.77l.38,16.31ZM53.06,15.17c0-2.63,0-3.11-.04-3.65s-.17-.84-.71-.96c-.19-.03-.38-.05-.58-.05-.07,0-.13-.04-.13-.1s.09-.13.27-.13c.76,0,1.78.05,1.94.05s1.15-.05,1.66-.05c.18,0,.27.04.27.13s-.07.1-.13.1c-.14,0-.28.02-.42.05-.45.07-.59.36-.62.96-.03.54-.03,1.01-.03,3.65v2.36c0,2.43.54,3.48,1.26,4.17.68.66,1.61,1,2.55.93,1.02,0,1.98-.45,2.65-1.21.77-.96.98-2.4.98-4.14v-2.11c0-2.63,0-3.11-.03-3.65s-.17-.84-.71-.96c-.19-.03-.38-.05-.57-.05-.07,0-.13-.04-.13-.1s.08-.13.27-.13c.76,0,1.69.05,1.78.05s.91-.05,1.42-.05c.18,0,.27.04.27.13s-.07.1-.13.1c-.14,0-.28.02-.42.05-.45.1-.59.36-.62.96-.03.54-.03,1.01-.03,3.65v1.8c0,1.82-.2,3.85-1.55,5.05-.95.85-2.2,1.3-3.48,1.25-.58,0-2.28-.07-3.48-1.2-.83-.79-1.47-1.97-1.47-4.44v-2.46ZM72.13,20.74c.03,1.38.2,1.82.66,1.96.28.07.56.1.84.1.09,0,.13.03.13.1s-.1.13-.31.13c-.96,0-1.64-.05-1.78-.05s-.86.05-1.62.05c-.17,0-.27,0-.27-.13,0-.07.05-.1.13-.1.23,0,.47-.04.69-.1.42-.12.51-.61.51-2.13v-9.67c0-.66.05-.84.19-.84s.42.36.59.54c.25.28,2.77,3,5.37,5.79,1.67,1.78,3.51,3.85,4.05,4.41l-.18-8.57c-.02-1.1-.13-1.47-.66-1.6-.27-.05-.55-.08-.83-.08-.12,0-.13-.05-.13-.12s.13-.12.36-.12c.76,0,1.57.05,1.76.05s.74-.05,1.42-.05c.18,0,.31.02.31.12s-.07.12-.19.12c-.14,0-.27.01-.4.05-.56.12-.62.49-.62,1.5l-.04,9.88c0,1.11-.04,1.2-.15,1.2s-.36-.19-1.23-1.08c-.18-.17-2.62-2.65-4.41-4.57-1.96-2.13-3.87-4.24-4.41-4.85l.22,8.09ZM92.7,18.14c0,1.62,0,2.95.09,3.66.05.49.15.86.66.93.24.03.61.07.76.07s.13.05.13.1-.09.13-.27.13c-.93,0-1.99-.05-2.08-.05s-1.15.05-1.65.05c-.18,0-.27-.03-.27-.13,0-.05.04-.1.13-.1.17,0,.34-.03.51-.07.34-.07.42-.44.49-.93.09-.71.09-2.04.09-3.66v-2.97c0-2.63,0-3.11-.04-3.65s-.2-.86-.58-.94c-.17-.04-.35-.07-.52-.07-.07,0-.13-.04-.13-.1s.09-.13.27-.13c.56,0,1.62.05,1.7.05s1.15-.05,1.65-.05c.18,0,.27.04.27.13s-.07.1-.13.1c-.14,0-.28.02-.42.05-.45.08-.59.36-.62.96-.03.54-.03,1.01-.03,3.65v2.97ZM106,20.97c.98-2.26,3.24-8.17,3.61-9.37.08-.21.13-.42.15-.64,0-.16-.08-.31-.22-.39-.21-.05-.42-.08-.64-.07-.1,0-.19,0-.19-.1s.1-.13.36-.13c.67,0,1.45.05,1.65.05.1,0,.83-.05,1.32-.05.18,0,.29.04.29.12s-.07.12-.21.12c-.28,0-.56.06-.81.2-.22.15-.47.44-.93,1.58-.18.48-1.03,2.49-1.89,4.58-1.03,2.46-1.78,4.28-2.18,5.12-.47,1.01-.54,1.28-.71,1.28s-.28-.24-.61-1.07l-4.12-10.33c-.36-.95-.62-1.13-1.21-1.3-.21-.05-.43-.07-.64-.07-.1,0-.13-.05-.13-.12s.17-.12.44-.12c.81,0,1.78.05,1.97.05s.93-.05,1.57-.05c.31,0,.46.04.46.12s-.05.12-.17.12c-.22,0-.43.02-.64.08-.14.06-.23.2-.22.36.1.49.25.97.45,1.42l3.24,8.61ZM118.49,15.17c0-2.63,0-3.11-.04-3.65s-.17-.84-.71-.96c-.19-.03-.38-.05-.58-.05-.07,0-.13-.04-.13-.1s.09-.13.27-.13c.39,0,.84,0,1.21.02l.69.03h3.87c.24,0,.49-.04.73-.09.08,0,.15-.09.23-.09s.07.07.07.15-.09.32-.13.79c0,.17-.05.91-.09,1.11,0,.09-.05.18-.12.18s-.13-.09-.13-.22c0-.21-.03-.41-.1-.61-.12-.27-.29-.47-1.2-.57-.29-.04-2.13-.05-2.31-.05-.07,0-.1.05-.1.17v4.64c0,.12.02.17.1.17.22,0,2.29,0,2.68-.04s.64-.07.8-.23.18-.22.25-.22.09.03.09.13-.09.39-.13.94c-.03.34-.07.96-.07,1.07s0,.32-.12.32-.12-.07-.12-.15c0-.19-.02-.38-.07-.56-.07-.24-.22-.52-.88-.59-.45-.05-2.13-.09-2.41-.09-.06,0-.11.04-.12.09,0,0,0,.02,0,.02v1.49c0,.57-.02,2.53,0,2.89.05,1.16.31,1.38,1.96,1.38.55.03,1.09-.03,1.62-.18.44-.18.64-.52.76-1.21.03-.19.07-.26.15-.26s.1.13.1.26c-.05.55-.12,1.1-.22,1.64-.12.44-.25.44-.91.44-1.27,0-2.19-.03-2.84-.05s-1.07-.05-1.32-.05h-.67c-.36,0-.71.03-.98.03-.18,0-.27-.03-.27-.13,0-.05.04-.1.13-.1.17,0,.34-.03.51-.07.34-.07.42-.44.49-.93.09-.71.09-2.04.09-3.66l-.03-2.94ZM132.41,15.17c0-2.63,0-3.11-.04-3.65s-.17-.84-.71-.96c-.19-.03-.38-.05-.58-.05-.07,0-.13-.04-.13-.1s.09-.13.27-.13c.76,0,1.82.05,1.91.05.19,0,1.47-.05,1.99-.05,1.07,0,2.19.1,3.09.74.72.55,1.15,1.39,1.17,2.3,0,1.25-.53,2.49-2.04,3.91,1.38,1.78,2.53,3.27,3.51,4.32.91.96,1.64,1.15,2.06,1.21.22.04.44.05.66.05.08,0,.15.05.15.1,0,.1-.1.13-.4.13h-1.21c-.95,0-1.37-.08-1.81-.32-.73-.39-1.32-1.21-2.28-2.49-.71-.93-1.5-2.06-1.84-2.49-.05-.07-.14-.1-.22-.1l-2.08-.04c-.09,0-.12.05-.12.13v.41c0,1.62,0,2.95.09,3.66.05.49.15.86.66.93.24.03.61.07.76.07s.13.05.13.1-.09.13-.27.13c-.93,0-1.99-.05-2.08-.05,0,0-1.07.05-1.59.05-.18,0-.27-.03-.27-.13,0-.05.04-.1.13-.1.17,0,.34-.03.51-.07.34-.07.42-.44.49-.93.09-.71.09-2.04.09-3.66v-2.99ZM133.76,16.63c0,.08.04.16.12.2.57.2,1.17.3,1.78.27.45.03.89-.09,1.27-.32.59-.4,1.03-1.32,1.03-2.6,0-2.11-1.11-3.38-2.92-3.38-.38,0-.76.03-1.13.1-.09.03-.14.11-.13.2v5.52ZM147.69,22.81c-.24-.12-.25-.18-.25-.64,0-.84.07-1.52.08-1.78.02-.19.05-.27.13-.27s.12.05.12.18c0,.21.01.42.05.62.25,1.25,1.37,1.72,2.49,1.72,1.62,0,2.41-1.16,2.41-2.24,0-1.16-.49-1.84-1.94-3.04l-.76-.62c-1.78-1.47-2.19-2.51-2.19-3.66,0-1.81,1.35-3.04,3.49-3.04.53,0,1.06.05,1.57.17.19.05.39.08.59.09.13,0,.17.03.17.12s-.07.64-.07,1.78c0,.27-.03.39-.12.39s-.12-.08-.14-.22c-.03-.29-.1-.57-.22-.84-.1-.19-.56-.89-2.11-.89-1.16,0-2.08.71-2.08,1.96,0,.96.44,1.57,2.06,2.84l.47.37c1.99,1.57,2.46,2.62,2.46,3.97,0,1.11-.53,2.14-1.42,2.8-.76.49-1.65.74-2.55.71-.78.02-1.55-.14-2.26-.46h0ZM163.43,18.14c0,1.62,0,2.95.08,3.66.05.49.15.86.66.93.23.03.61.07.76.07s.13.05.13.1-.09.13-.27.13c-.93,0-1.99-.05-2.08-.05s-1.15.05-1.65.05c-.18,0-.27-.03-.27-.13,0-.05.03-.1.13-.1.17,0,.34-.03.5-.07.36-.07.42-.44.49-.93.09-.71.09-2.04.09-3.66v-2.97c0-2.63,0-3.11-.03-3.65s-.2-.86-.58-.94c-.17-.04-.35-.07-.52-.07-.07,0-.14-.04-.14-.1s.09-.13.27-.13c.56,0,1.62.05,1.71.05s1.15-.05,1.65-.05c.18,0,.27.04.27.13s-.07.1-.13.1c-.14,0-.28.02-.42.05-.46.08-.59.36-.62.96-.03.54-.03,1.01-.03,3.65v2.97ZM176.66,18.14c0,1.62,0,2.95.09,3.66.05.49.15.86.66.93.23.03.61.07.76.07.1,0,.13.05.13.1s-.09.13-.27.13c-.93,0-1.99-.05-2.07-.05s-1.15.05-1.65.05c-.18,0-.27-.03-.27-.13,0-.05.03-.1.13-.1.17,0,.34-.03.5-.07.36-.07.42-.44.49-.93.09-.71.09-2.04.09-3.66v-7.14l-2.49.04c-1.04.02-1.45.13-1.72.54-.11.16-.21.34-.29.52-.05.14-.1.17-.17.17s-.09-.05-.09-.15c0-.17.36-1.62.37-1.75s.1-.32.17-.32c.24.1.49.17.74.2.49.05,1.13.09,1.33.09h6.33c.4,0,.8-.02,1.2-.09.25-.03.4-.08.47-.08s.09.1.09.2c0,.5-.05,1.67-.05,1.86s-.05.22-.12.22-.12-.05-.13-.28v-.19c-.05-.5-.45-.89-2.07-.93l-2.13-.04-.03,7.14ZM190.23,18.66c.03-.62-.11-1.23-.39-1.78-.12-.27-2.38-3.98-2.97-4.86-.3-.48-.69-.9-1.15-1.25-.21-.15-.46-.24-.71-.27-.09,0-.17-.04-.17-.12s.07-.12.22-.12c.32,0,1.59.05,1.67.05s.76-.05,1.42-.05c.18,0,.22.05.22.12s-.1.09-.26.15c-.12.05-.21.17-.22.3.02.23.09.46.22.66.27.49,2.8,4.84,3.11,5.33.32-.71,2.47-4.41,2.8-4.97.17-.26.27-.55.28-.86,0-.23-.07-.42-.27-.47s-.25-.09-.25-.17.1-.1.27-.1c.44,0,.98.05,1.11.05s1.32-.05,1.64-.05c.12,0,.22.04.22.1s-.09.13-.22.13c-.27.01-.54.09-.78.23-.35.23-.66.52-.89.86-1.18,1.72-2.25,3.52-3.22,5.36-.2.54-.29,1.12-.25,1.69v1.45c0,.27,0,.98.05,1.69.04.49.18.86.69.93.24.03.61.07.76.07s.13.05.13.1-.09.13-.27.13c-.93,0-1.99-.05-2.08-.05s-1.15.05-1.65.05c-.18,0-.27-.03-.27-.13,0-.05.04-.1.13-.1.17,0,.34-.02.5-.05.34-.07.49-.44.52-.93.05-.71.05-1.42.05-1.69v-1.45ZM212.31,10.03c3.8,0,6.63,2.4,6.63,6.33s-2.67,6.9-6.75,6.9c-4.62,0-6.55-3.6-6.55-6.64,0-2.73,2-6.6,6.66-6.6ZM212.66,22.63c1.52,0,4.66-.88,4.66-5.79,0-4.05-2.45-6.21-5.13-6.21s-4.93,1.86-4.93,5.55c0,3.92,2.36,6.45,5.4,6.45h0ZM226.65,15.17c0-2.63,0-3.11-.03-3.65s-.17-.84-.73-.96c-.19-.03-.38-.05-.57-.05-.07,0-.13-.04-.13-.1s.09-.13.27-.13c.39,0,.84,0,1.21.02l.69.03c.36.02,3.76,0,4.15,0,.25,0,.5-.02.74-.07.1-.03.17-.1.23-.1s.1.07.1.15-.09.32-.13.79c0,.17-.05.91-.09,1.11,0,.09-.05.18-.13.18s-.12-.09-.12-.2c-.01-.22-.06-.44-.15-.64-.26-.37-.7-.58-1.15-.54l-2.6-.05c-.1,0-.15.05-.15.18v4.65c0,.1,0,.15.12.15h2.92c.41-.04.62-.09.78-.31.07-.08.12-.17.19-.17s.08.05.08.13-.08.39-.13.94c-.03.34-.07,1.01-.07,1.13s0,.32-.12.32-.12-.07-.12-.15c-.01-.21-.05-.41-.1-.61-.15-.35-.49-.59-.88-.61-.42-.05-2.26-.05-2.55-.05-.09,0-.12.03-.12.15v1.44c0,1.62,0,2.95.09,3.66.05.49.15.86.66.93.24.03.61.07.76.07s.13.05.13.1-.09.13-.27.13c-.93,0-1.99-.05-2.08-.05s-1.15.05-1.65.05c-.18,0-.27-.03-.27-.13,0-.05.04-.1.13-.1.17,0,.34-.03.51-.07.36-.07.42-.44.49-.93.08-.71.08-2.04.08-3.66v-3Z"/><path d="M29.4,50.36s2.22-.31,4.03-.74c1.6-.38,3.15-.92,3.15-.92l-1.15-2.23,1-2.77s-1.91.55-3.6.91c-1.13.23-2.26.41-3.41.52l-.03,5.23ZM9.46,50.36s-2.23-.31-4.03-.74c-1.61-.38-3.15-.92-3.15-.92l1.15-2.23-1.01-2.77s1.91.55,3.6.91c1.13.23,2.27.41,3.41.52l.03,5.23Z" fill="#fff"/><path d="M29.07,50.74l.04-5.9.29-.03c1.13-.11,2.26-.28,3.37-.51,1.65-.35,3.55-.89,3.57-.9l.62-.18-1.17,3.23,1.25,2.43-.36.12s-1.58.55-3.18.93c-1.8.43-4.04.74-4.06.74l-.37.05ZM29.76,45.43l-.03,4.55c.71-.11,2.29-.36,3.62-.68,1.12-.27,2.21-.61,2.76-.79l-1.04-2.01.84-2.3c-.71.19-1.91.51-3,.74-1.04.21-2.1.38-3.15.49ZM9.79,50.74l-.37-.05s-2.26-.32-4.06-.74c-1.61-.38-3.17-.92-3.18-.93l-.36-.12,1.25-2.43-1.18-3.23.62.18s1.92.55,3.57.9c1.11.23,2.25.4,3.38.51l.29.03.04,5.9ZM2.75,48.52c.55.18,1.64.52,2.76.79,1.33.32,2.92.57,3.62.68l-.03-4.55c-1.06-.11-2.11-.28-3.15-.49-1.1-.23-2.3-.55-3.01-.74l.84,2.3-1.04,2.01Z"/><path d="M19.43,3.21s4.41,4.97,9.49,6.48c2.1.61,4.28.93,6.46.93,1,.01,2-.06,2.98-.21,0,0,.14,9.23.14,15.87,0,11.33-5.93,18.85-11.21,23.89-4.68,4.47-7.32,5.47-7.85,5.64,0,0-3.16-1.16-7.87-5.66C6.29,45.12.35,37.78.35,26.27c0-6.51.15-15.87.15-15.87.99.15,1.98.22,2.98.21,2.19,0,4.36-.3,6.46-.91,5.08-1.5,9.49-6.48,9.49-6.48Z" fill="#8f1028"/><path d="M19.44,56.2l-.12-.04c-.13-.05-3.28-1.24-7.99-5.74C6.46,45.77,0,38.22,0,26.27c0-6.44.14-15.78.15-15.88v-.4s.41.06.41.06c.97.15,1.95.22,2.93.21,2.15-.01,4.3-.3,6.37-.9,4.92-1.45,9.28-6.32,9.32-6.37l.26-.3.26.3s4.4,4.91,9.32,6.37c2.07.61,4.21.91,6.36.92.98.01,1.96-.06,2.93-.21l.4-.06v.4c0,.09.14,9.31.14,15.88,0,11.95-6.46,19.51-11.32,24.15-4.6,4.39-7.28,5.49-7.99,5.72l-.12.04ZM.85,10.8c-.03,1.86-.14,9.8-.14,15.47,0,11.68,6.34,19.08,11.11,23.64,4.1,3.92,7.04,5.29,7.64,5.54.71-.26,3.28-1.4,7.6-5.52,9.95-9.5,11.1-18.04,11.1-23.64s-.11-13.62-.13-15.47c-.87.11-1.76.16-2.64.16-2.22,0-4.43-.32-6.56-.94-4.47-1.33-8.35-5.2-9.39-6.3-1.04,1.1-4.92,4.98-9.39,6.3-2.14.62-4.35.93-6.57.93-.88,0-1.76-.04-2.63-.16Z"/><path d="M7.65,26.58h23.57v22.1H7.65v-22.1Z"/><path d="M7.76,22.56s2.68-4.34,2.99-8.49c.12-1.65,0-3.48.19-5.14.24-2.21,2.1-6.04,2.1-6.04h12.79s1.86,3.81,2.11,6.04c.18,1.66.07,3.49.19,5.14.3,4.15,2.97,8.49,2.97,8.49H7.76Z" fill="#fff"/><path d="M31.1,22.91H7.12l.33-.54s2.64-4.32,2.94-8.33c.05-.71.06-1.47.07-2.21,0-.98.02-1.99.13-2.94.25-2.24,2.06-5.99,2.13-6.15l.1-.2h13.24l.1.2c.08.16,1.89,3.89,2.14,6.15.11.95.12,1.95.13,2.92,0,.75.02,1.52.07,2.23.29,4.01,2.9,8.29,2.92,8.33l.33.54h-.63ZM8.37,22.2h22.12c-.73-1.3-2.47-4.74-2.71-8.11-.05-.74-.06-1.52-.07-2.28,0-.95-.02-1.94-.12-2.85-.21-1.85-1.6-4.92-1.98-5.72h-12.35c-.38.81-1.77,3.88-1.97,5.72-.11.92-.11,1.91-.12,2.87,0,.75-.01,1.52-.07,2.26-.25,3.37-2,6.81-2.73,8.11Z"/><path d="M10.74,28.04h17.38v23H10.74v-23Z"/><path d="M27.71,28.45v22.18H11.15v-22.18h16.57M28.53,27.63H10.33v23.82h18.2v-23.82Z" fill="#fff"/><path d="M12.85,3.09v-1.11h13.17v1.12h-13.17Z"/><path d="M25.83,2.16v.75h-12.81v-.75h12.81M26.19,1.81h-13.53v1.48h13.54v-1.5.02Z"/><path d="M26.88,1.53h-14.89l-.53-1.18h15.95l-.53,1.18ZM13.03,2.16l-.64-.63h14.08l-.63.63h-12.81Z"/><path d="M25.92,2.34h-12.96l-.64-.63h-.45l-.69-1.54h16.52l-.7,1.54h-.45l-.63.63ZM13.11,1.97h12.65l.26-.26h-13.18l.27.26ZM12.1,1.34h14.65l.36-.81h-15.38l.36.81Z"/><path d="M7.78,26.83c-.39-.56-.82-1.08-1.3-1.56-.67-.64-1.46-1.14-2.33-1.49l-.87-1.97h32.27l-.85,1.98c-.84.36-1.61.86-2.27,1.48-.48.46-.89.98-1.24,1.54l-23.42.02Z"/><path d="M35.38,21.92l-.76,1.78c-.84.36-1.6.87-2.26,1.49-.47.45-.88.96-1.22,1.51l-23.29.02c-.38-.55-.82-1.06-1.29-1.54-.67-.64-1.46-1.15-2.32-1.5l-.76-1.78h31.9M35.74,21.67H3.12l.94,2.18c.86.34,1.66.84,2.33,1.48.49.49.94,1.04,1.33,1.62l23.55-.02c.34-.58.76-1.11,1.25-1.57.67-.62,1.44-1.12,2.28-1.48l.94-2.18v-.02Z"/><path d="M10.17,34.62h18.52v1.31H10.17v-1.31Z" fill="#fff"/><path d="M28.53,34.76v.99H10.33v-.99h18.19M28.85,34.44H10.01v1.64h18.84v-1.64h0ZM26.76,13.64c-.1-1.39,0-2.93-.16-4.32-.15-1.31-.96-3.2-1.42-4.18-.31.24-.76.19-1-.12-.1-.12-.15-.27-.15-.43,0-.05,0-.1,0-.15h-9.23c0,.05,0,.11,0,.16,0,.39-.32.71-.71.71-.15,0-.3-.05-.43-.15-.48,1.01-1.28,2.86-1.42,4.17-.16,1.4-.06,2.94-.16,4.32-.26,3.5-2.04,7.16-2.04,7.16h18.73s-1.76-3.66-2.02-7.16Z"/><path d="M23.62,12.69c0-2.32-1.88-4.2-4.2-4.2-2.32,0-4.2,1.88-4.2,4.2h0s-.92,0-.92,0l.57,1.44h.59l1.61,4.08h-.88v1.07h6.53v-1.07h-.93l1.53-4.06h.67l.57-1.45h-.94Z" fill="#fff"/><path d="M22.79,19.34h-6.67v-1.21h.85l-1.55-3.94h-.59l-.62-1.58h.96c.04-2.32,1.94-4.2,4.27-4.2,1.14,0,2.21.44,3.02,1.25.79.79,1.23,1.84,1.25,2.95h.97s-.62,1.6-.62,1.6h-.67l-1.48,3.92h.9v1.21ZM16.25,19.2h6.39v-.92h-.97l1.59-4.2h.67l.51-1.31h-.9v-.08c0-1.1-.43-2.14-1.21-2.92-.78-.78-1.82-1.21-2.92-1.21-2.28,0-4.13,1.85-4.13,4.13v.07h-.89s.51,1.3.51,1.3h.59l1.66,4.22h-.91v.92Z" fill="#fff"/><path d="M22.31,12.69c0,1.6-1.3,2.9-2.9,2.9-1.6,0-2.9-1.3-2.9-2.9,0-1.6,1.3-2.9,2.9-2.9,0,0,0,0,0,0,1.6,0,2.9,1.3,2.9,2.9h0Z"/><path d="M11.46.35l.53,1.18h.4l.64.63h12.81l.63-.63h.41l.53-1.18s-15.95,0-15.95,0Z" fill="#fff"/><path d="M25.98,2.51h-13.1l-.64-.63h-.49l-.84-1.88h17.04l-.85,1.88h-.49l-.63.63ZM13.17,1.8h12.51l.63-.63h.33l.21-.47h-14.86l.21.47h.32l.64.63Z"/><path d="M4.29,23.52l-.64-1.48h31.55l-.64,1.48H4.29Z" fill="#fff"/><path d="M34.67,22.39l-.33.78H4.51l-.33-.78h30.48M35.72,21.68H3.12l.94,2.18h30.74l.94-2.18h-.01Z"/><path d="M11.31,34.6v-.19c0-1.69,1.27-3.06,2.84-3.06,1.21.04,2.27.84,2.63,2,.39-1.47,1.9-2.35,3.37-1.96.96.25,1.7,1,1.96,1.96.36-1.17,1.43-1.97,2.65-2,1.56,0,2.84,1.37,2.84,3.06v.17H11.31Z" fill="#fff"/><path d="M19.44,31.53c1.46,0,2.67,1.29,2.67,2.88,0-1.59,1.19-2.89,2.65-2.89s2.65,1.29,2.65,2.89h-15.92c0-1.59,1.19-2.89,2.65-2.89s2.64,1.3,2.64,2.88c0-1.59,1.19-2.89,2.65-2.89M19.43,31.17c-1.14.02-2.17.69-2.65,1.73-.48-1.03-1.51-1.7-2.65-1.72-1.65,0-3,1.45-3,3.24v.36h16.61v-.36c0-1.78-1.35-3.24-3-3.24-1.13.03-2.15.69-2.63,1.72-.48-1.03-1.51-1.7-2.65-1.72h-.03Z"/><path d="M12.37,43.75v-9.18s0-1.99,1.75-1.99,1.75,1.99,1.75,1.99v9.18h-3.5ZM14.51,32.56h-.78l-.18-1.94h1.13l-.18,1.94ZM17.7,43.75v-9.18s0-1.99,1.75-1.99,1.75,1.99,1.75,1.99v9.18h-3.5ZM19.83,32.56h-.78l-.18-1.94h1.13l-.18,1.94ZM23.02,43.75v-9.18s0-1.99,1.75-1.99,1.75,1.99,1.75,1.99v9.18h-3.5ZM25.16,32.56h-.78l-.18-1.94h1.13l-.18,1.94Z" fill="#fff"/><path d="M26.69,43.93h-3.85v-9.36c0-.65.3-1.78,1.35-2.09l-.19-2.03h1.52l-.19,2.03c.28.08.52.22.72.42.63.63.64,1.63.64,1.67v9.36ZM23.2,43.57h3.15v-9c0-.07-.02-1.82-1.57-1.82s-1.57,1.74-1.57,1.82v9ZM24.54,32.39h.46l.15-1.59h-.75l.15,1.59ZM21.37,43.93h-3.85v-9.36c0-.65.3-1.78,1.35-2.09l-.19-2.03h1.52l-.19,2.03c.28.08.52.22.72.42.63.63.64,1.63.64,1.67v9.36ZM17.87,43.57h3.15v-9c0-.07-.02-1.82-1.57-1.82s-1.57,1.74-1.57,1.82v9ZM19.22,32.39h.46l.15-1.59h-.75l.15,1.59ZM16.04,43.93h-3.85v-9.36c0-.65.3-1.78,1.35-2.09l-.19-2.03h1.52l-.19,2.03c.28.08.52.22.72.42.63.63.64,1.63.64,1.67v9.36ZM12.55,43.57h3.15v-9c0-.07-.02-1.82-1.57-1.82s-1.57,1.74-1.57,1.82v9ZM13.89,32.39h.46l.15-1.59h-.75l.15,1.59Z"/><path d="M7.41,46.44v5.27s4.84,1.04,11.97,1.04,11.97-1.04,11.97-1.04v-5.27s-4.81.97-12.07.97-11.87-.97-11.87-.97Z" fill="#fff"/><path d="M19.39,53.08c-7.09,0-11.99-1.04-12.04-1.05l-.26-.06v-5.94l.39.08s4.67.97,11.8.97,11.96-.96,12.01-.97l.39-.08v5.93l-.26.06s-4.95,1.05-12.04,1.05ZM7.74,51.44c1.09.21,5.55.99,11.65.99s10.55-.78,11.64-.99v-4.61c-1.29.23-5.7.91-11.74.91s-10.27-.68-11.54-.9v4.61Z"/><path d="M16.13,51.65l-.33-.04c-.14-.02-.33-.04-.45-.04h-.05c-.11,0-.43-.03-.59-.04h-.29c-.05,0-.08-.02-.08-.07v-.12l.05-.03h.16c.36,0,.44-.04.46-.07s.06-.16.07-.32l.12-1.44c.03-.18.03-.37,0-.55,0-.03-.05-.05-.11-.05h-.33c-.07-.05-.07-.11-.07-.19v-.04h.04c.26,0,.52-.08.76-.2l.05-.02s.08-.04.12-.04h.14l-.21,2.55c-.03.12-.02.24.02.36.05.08.36.13.47.15h.11v.18l-.06.02h0Z"/><path d="M15.64,48.42h.09l-.2,2.49c-.03.12-.02.25.03.37.07.12.52.16.57.18v.09s0,.02-.02.02l-.33-.04c-.16-.02-.39-.04-.49-.05s-.43-.04-.59-.04h-.32v-.11s0-.02.02-.02h.15c.17,0,.43,0,.49-.08s.07-.16.08-.36l.12-1.44c.03-.19.02-.38-.02-.57-.02-.05-.07-.07-.15-.07h-.33s-.03-.07-.02-.14c.27-.01.53-.08.77-.2.05-.03.09-.05.15-.06M15.64,48.28c-.05,0-.1.02-.14.05l-.04.02c-.23.12-.49.18-.75.19l-.06.06v.07c-.02.08,0,.16.05.22l.02.02h.36s.05,0,.08,0c.03.18.03.35,0,.53l-.12,1.44c0,.1-.01.2-.06.29,0,0-.07.05-.43.05h-.16c-.05,0-.1.05-.1.1v.09c0,.06.03.11.09.11,0,0,0,0,0,0h.32c.16,0,.49.03.59.04h.06c.11,0,.31.02.44.05l.33.04c.06,0,.11-.04.12-.09,0,0,0,0,0,0v-.17l-.08-.03s-.06-.01-.09-.02c-.36-.05-.42-.1-.43-.12-.04-.1-.04-.21-.02-.32l.2-2.5v-.09h-.17v-.04ZM17.94,51.8c-.61,0-.98-.34-.97-.84.05-.39.31-.72.68-.85-.3-.15-.5-.46-.51-.8,0-.43.36-.77.79-.77.03,0,.06,0,.09,0,.44,0,.86.24.85.71-.05.31-.25.58-.54.71.38.25.64.51.62.93-.02.51-.45.91-.96.89,0,0,0,0-.01,0h-.04ZM17.87,50.25c-.25.13-.41.38-.4.66-.04.32.18.61.5.66.28,0,.5-.24.5-.52,0-.01,0-.03,0-.04.01-.37-.24-.55-.6-.78h0ZM17.98,48.78c-.26,0-.36.28-.38.43,0,.27.26.46.49.63.19-.13.3-.34.29-.56.04-.24-.12-.46-.36-.5-.02,0-.04,0-.06,0v-.04.05Z"/><path d="M18.01,48.59h.03c.42,0,.78.24.77.67-.05.33-.27.6-.58.71.41.26.68.51.67.93-.03.49-.44.87-.93.84h-.03c-.53,0-.94-.27-.93-.79.05-.4.34-.73.73-.84-.28-.19-.58-.4-.57-.81,0-.41.35-.73.75-.72.03,0,.05,0,.08,0M18.11,49.91c.21-.14.33-.37.33-.62.04-.26-.13-.5-.39-.54-.02,0-.05,0-.07,0-.24.02-.42.23-.42.47,0,.31.31.52.56.71M17.99,51.63c.31-.01.54-.28.53-.58,0,0,0-.01,0-.02,0-.4-.29-.6-.64-.82-.27.13-.45.41-.45.71-.04.35.2.66.55.71M18,48.52c-.45-.05-.86.27-.92.72,0,.03,0,.06,0,.08,0,.33.18.63.47.8-.35.15-.59.48-.63.86,0,.53.38.87,1.02.88h.03c.54.02.99-.39,1.02-.93,0-.39-.23-.75-.59-.93.27-.14.46-.41.49-.71,0-.43-.37-.77-.8-.76-.02,0-.04,0-.06,0h-.03ZM18.11,49.8c-.22-.16-.47-.36-.47-.59,0-.13.11-.38.33-.38.22,0,.39.19.38.41,0,.02,0,.03,0,.05,0,.2-.09.39-.25.51h0ZM17.98,51.63v-.09c-.29-.05-.49-.32-.46-.61,0-.25.13-.49.36-.61.36.22.56.39.56.71.03.26-.16.49-.42.51,0,0-.01,0-.02,0v.09h-.01ZM20.46,51.8c-.07,0-.13,0-.19-.05-.02-.03-.03-.06-.03-.1.1-.51.27-1,.51-1.45.13-.29.42-.88.61-1.19h-.64c-.18-.02-.37,0-.54.07-.06.04-.1.1-.12.17,0,.03-.02.07-.03.1-.02.07-.1.07-.21.07h-.05l-.02-.05.12-.77,1.88-.05v.29c-.56.83-.9,1.79-.99,2.79,0,.12-.1.14-.27.15l-.03.02Z"/><path d="M21.7,48.61v.25c-.56.83-.9,1.79-.99,2.79,0,.07-.04.1-.23.1h-.04c-.14,0-.18-.03-.17-.1.09-.5.26-.99.51-1.44.2-.43.41-.84.65-1.24h-.71c-.19-.01-.38.01-.56.08-.13.1-.11.15-.16.29-.02.05-.09.05-.2.05l.12-.73,1.8-.05M21.81,48.51h-.09l-1.8.05h-.07v.07l-.12.73v.11h.14c.11,0,.21,0,.25-.11.01-.03.02-.07.03-.1.01-.06.05-.11.1-.15.16-.05.32-.07.49-.06h.59c-.19.33-.44.86-.57,1.13-.25.46-.42.96-.51,1.47,0,.05.01.1.04.13.06.05.14.07.22.06h.04c.12,0,.31,0,.32-.19.08-.98.42-1.92.97-2.74v-.39l-.02-.02ZM22.84,51.64v-.18l.05-.04h.08c.11,0,.47-.07.51-.15s.03-.17,0-.33l-.11-1.44c0-.18-.04-.37-.1-.54-.02-.02-.05-.04-.08-.03h-.04l-.18.03h-.15c-.08-.03-.09-.1-.1-.17v-.04h.04c.26-.05.5-.16.71-.31l.04-.03s.08-.05.12-.06h.13l.21,2.55c0,.18.03.28.08.33s.13.07.47.07h.13l.02.05v.13l-.06.02h-.33c-.14,0-.36.02-.46.02h-.11c-.14,0-.38.04-.51.05l-.22.03h-.1l-.02.02Z"/><path d="M23.72,48.39l.2,2.51c0,.19.03.3.09.36s.36.09.49.09h.1v.11h-.33c-.16,0-.39.02-.49.03s-.43.04-.59.06c-.04,0-.21.02-.32.04v-.11s.55-.06.62-.18c.05-.07.04-.17.02-.36l-.12-1.44c0-.19-.04-.38-.11-.56-.03-.04-.07-.05-.12-.05h-.05c-.09,0-.2.04-.32.06-.03,0-.04-.06-.05-.13.26-.05.51-.16.73-.32.04-.03.1-.08.13-.09h.09M23.8,48.29h-.18c-.05.01-.1.04-.14.07l-.04.02c-.21.15-.45.26-.71.31l-.07.02v.07c0,.07,0,.16.09.2h.06l.14-.02c.06-.01.12-.02.17-.03h.09c.06.17.09.34.09.52l.12,1.44c0,.15.02.26,0,.3s-.11.07-.49.13l-.09.02c-.05.01-.09.06-.08.11v.09c0,.06.05.1.11.1h.11l.22-.03c.13-.02.37-.04.51-.05h.11c.11,0,.32-.02.45-.02h.33c.06,0,.11-.06.1-.12,0,0,0,0,0,0v-.16h-.2c-.36,0-.42-.04-.43-.05-.05-.09-.08-.2-.07-.31l-.2-2.51v-.09l-.02-.02ZM232.02,52.08c0-.69.56-1.24,1.25-1.24.69,0,1.24.56,1.24,1.25,0,.69-.56,1.24-1.25,1.24-.69,0-1.24-.55-1.25-1.24,0,0,0,0,0-.01ZM234.31,52.08c-.01-.59-.5-1.06-1.09-1.04-.59.01-1.06.5-1.04,1.09.01.58.48,1.04,1.06,1.04.57.02,1.05-.43,1.07-1.01,0-.03,0-.05,0-.08ZM233.89,52.79h-.2l-.4-.64h-.31v.64h-.17v-1.39h.61c.36,0,.49.14.49.36s-.19.36-.44.38l.42.66ZM233.24,52.01c.2,0,.49.04.49-.25,0-.22-.18-.24-.36-.24h-.39v.49h.26Z"/><rect x="253.01" y="1.83" width=".99" height="60.99" fill="#dbdbdb"/><path d="M292.11,23.01c-.1.18-.22.31-.33.39-.12.09-.27.13-.46.13-.2,0-.43-.1-.69-.3-.26-.2-.59-.42-1-.66-.4-.24-.89-.46-1.45-.66-.57-.2-1.25-.3-2.06-.3-.76,0-1.43.1-2.01.31-.58.2-1.07.48-1.46.83-.39.35-.69.76-.88,1.23-.2.47-.3.98-.3,1.53,0,.7.17,1.28.52,1.74.34.46.8.85,1.37,1.18.57.33,1.21.61,1.92.85.72.24,1.45.49,2.21.74.75.26,1.49.55,2.21.87.72.32,1.36.73,1.92,1.22.57.49,1.02,1.09,1.37,1.8.34.71.52,1.59.52,2.62,0,1.1-.19,2.13-.56,3.09-.37.96-.92,1.8-1.64,2.51-.72.71-1.6,1.27-2.64,1.68s-2.23.61-3.56.61c-1.62,0-3.1-.29-4.44-.88-1.34-.59-2.48-1.39-3.42-2.39l.98-1.61c.09-.13.21-.24.34-.32.13-.09.28-.13.45-.13.24,0,.52.13.84.39.31.26.71.55,1.18.87s1.04.6,1.71.87c.67.26,1.49.39,2.46.39.81,0,1.52-.11,2.15-.33.63-.22,1.16-.53,1.6-.94.44-.4.77-.88,1.01-1.44s.35-1.18.35-1.87c0-.76-.17-1.38-.52-1.86-.34-.48-.8-.89-1.36-1.22-.56-.33-1.2-.6-1.92-.83-.72-.23-1.45-.46-2.21-.7-.75-.24-1.49-.52-2.21-.83-.72-.31-1.36-.72-1.92-1.23-.56-.5-1.01-1.13-1.36-1.88s-.52-1.68-.52-2.79c0-.89.17-1.74.52-2.57.34-.83.84-1.56,1.5-2.21.65-.64,1.46-1.15,2.42-1.54.96-.39,2.07-.58,3.32-.58,1.4,0,2.68.22,3.83.67,1.15.44,2.16,1.08,3.03,1.92l-.82,1.61Z" fill="#232020"/><path d="M309.33,29.59c-.09.13-.19.23-.28.3-.09.07-.23.1-.4.1s-.36-.07-.57-.22c-.2-.15-.46-.31-.78-.48s-.7-.34-1.15-.48c-.45-.15-1-.22-1.65-.22-.86,0-1.63.15-2.29.46-.67.31-1.22.76-1.67,1.34s-.79,1.29-1.01,2.12c-.23.83-.34,1.76-.34,2.78s.12,2.03.37,2.86c.24.83.59,1.53,1.03,2.1s.98,1,1.62,1.29,1.35.45,2.14.45,1.38-.09,1.87-.27c.49-.18.9-.38,1.22-.6s.6-.42.81-.6c.21-.18.42-.27.63-.27.27,0,.47.1.6.3l.88,1.14c-.77.94-1.73,1.64-2.89,2.07-1.15.44-2.37.66-3.66.66-1.11,0-2.14-.2-3.09-.61-.95-.41-1.78-1-2.48-1.78-.7-.78-1.25-1.73-1.65-2.86-.4-1.13-.6-2.42-.6-3.87,0-1.32.18-2.54.55-3.66.37-1.12.9-2.09,1.61-2.9.71-.81,1.58-1.44,2.62-1.9,1.04-.45,2.23-.68,3.57-.68,1.24,0,2.33.2,3.29.6.96.4,1.8.97,2.54,1.71l-.82,1.12Z" fill="#232020"/><path d="M312.98,44.17v-25.78h3.11v10.43c.76-.8,1.6-1.45,2.52-1.93.92-.48,1.98-.73,3.19-.73.97,0,1.82.16,2.56.48.74.32,1.36.78,1.85,1.37.5.59.87,1.3,1.13,2.13.26.83.39,1.74.39,2.75v11.29h-3.12v-11.29c0-1.34-.31-2.38-.92-3.12-.61-.74-1.55-1.11-2.81-1.11-.92,0-1.78.22-2.58.67-.8.44-1.54,1.04-2.21,1.8v13.06h-3.11Z" fill="#232020"/><path d="M339.32,26.16c1.29,0,2.46.22,3.51.65,1.04.43,1.93,1.04,2.66,1.84.73.79,1.29,1.75,1.68,2.88s.59,2.38.59,3.77-.2,2.66-.59,3.78c-.39,1.12-.95,2.08-1.68,2.87-.73.79-1.62,1.4-2.66,1.83-1.04.43-2.21.64-3.51.64s-2.46-.21-3.51-.64c-1.04-.43-1.93-1.04-2.67-1.83-.74-.79-1.3-1.75-1.7-2.87-.4-1.12-.6-2.38-.6-3.78s.2-2.65.6-3.77c.4-1.13.96-2.09,1.7-2.88.73-.79,1.62-1.41,2.67-1.84,1.04-.43,2.21-.65,3.51-.65ZM339.32,41.98c1.75,0,3.06-.59,3.92-1.76s1.29-2.81,1.29-4.91-.43-3.76-1.29-4.94c-.86-1.18-2.17-1.77-3.92-1.77-.89,0-1.66.15-2.31.46-.65.3-1.2.74-1.64,1.31-.44.57-.76,1.27-.98,2.11s-.32,1.78-.32,2.83.11,1.99.32,2.82c.22.83.54,1.53.98,2.09s.98,1,1.64,1.3c.65.3,1.42.46,2.31.46Z" fill="#232020"/><path d="M354.43,18.39v25.78h-3.12v-25.78h3.12Z" fill="#232020"/><path d="M371.85,44.17h-1.38c-.3,0-.55-.05-.73-.14-.19-.09-.31-.29-.37-.59l-.35-1.65c-.47.42-.92.8-1.37,1.13s-.91.61-1.4.84c-.49.23-1.01.4-1.57.52s-1.17.17-1.85.17-1.33-.1-1.93-.29c-.6-.19-1.12-.48-1.57-.87s-.8-.88-1.06-1.47c-.26-.59-.39-1.29-.39-2.1,0-.7.19-1.38.58-2.03.38-.65,1.01-1.23,1.86-1.73s1.98-.92,3.37-1.24c1.39-.32,3.09-.48,5.09-.48v-1.39c0-1.39-.29-2.43-.88-3.14-.59-.71-1.46-1.07-2.62-1.07-.76,0-1.4.1-1.92.29-.52.19-.97.41-1.35.65-.38.24-.71.46-.98.65-.27.19-.55.29-.81.29-.21,0-.39-.06-.55-.17-.16-.11-.28-.25-.38-.41l-.56-1c.98-.94,2.04-1.65,3.17-2.12,1.13-.47,2.39-.7,3.76-.7.99,0,1.87.16,2.64.49.77.33,1.42.78,1.94,1.37.52.58.92,1.29,1.19,2.12.27.83.4,1.74.4,2.73v11.34ZM363.77,42.26c.55,0,1.05-.06,1.5-.17s.88-.27,1.29-.47c.4-.2.79-.45,1.15-.74.37-.29.73-.62,1.08-1v-3.66c-1.44,0-2.65.09-3.66.27-1,.18-1.82.42-2.45.71-.63.29-1.09.64-1.37,1.04-.29.4-.43.85-.43,1.34s.08.87.23,1.21c.15.34.36.62.61.84.26.22.56.38.91.48.35.1.73.15,1.14.15Z" fill="#232020"/><path d="M376.05,44.17v-17.73h1.78c.34,0,.57.06.7.19.13.13.22.35.26.67l.21,2.77c.61-1.24,1.36-2.2,2.25-2.9.89-.69,1.94-1.04,3.14-1.04.49,0,.93.06,1.33.17.4.11.76.27,1.1.46l-.4,2.33c-.08.29-.26.44-.54.44-.16,0-.41-.06-.75-.17-.34-.11-.81-.17-1.42-.17-1.09,0-1.99.31-2.72.94-.73.63-1.34,1.55-1.83,2.75v11.29h-3.11Z" fill="#232020"/><path d="M387.38,19.09h2.82c.3,0,.55.08.75.23.2.15.33.34.4.58l5.18,17.43c.09.31.18.65.25,1.01.08.36.15.74.22,1.14.08-.4.16-.78.25-1.15.08-.37.17-.7.28-1.01l5.9-17.43c.07-.2.21-.38.41-.55.2-.17.45-.25.74-.25h.98c.3,0,.55.08.74.23.19.15.33.34.41.58l5.86,17.43c.21.61.4,1.3.56,2.08.07-.39.13-.75.19-1.1.06-.35.13-.68.23-.98l5.2-17.43c.06-.21.19-.4.39-.56.2-.16.45-.25.74-.25h2.64l-7.82,25.08h-3.04l-6.35-19.13c-.13-.36-.25-.78-.35-1.26-.06.23-.11.46-.17.67-.05.22-.11.41-.17.59l-6.39,19.13h-3.04l-7.82-25.08Z" fill="#232020"/><path d="M430.92,26.16c1.29,0,2.46.22,3.51.65,1.04.43,1.93,1.04,2.66,1.84.73.79,1.29,1.75,1.68,2.88s.59,2.38.59,3.77-.2,2.66-.59,3.78c-.39,1.12-.95,2.08-1.68,2.87-.73.79-1.62,1.4-2.66,1.83-1.04.43-2.21.64-3.51.64s-2.46-.21-3.51-.64c-1.04-.43-1.93-1.04-2.67-1.83-.74-.79-1.3-1.75-1.7-2.87-.4-1.12-.6-2.38-.6-3.78s.2-2.65.6-3.77c.4-1.13.96-2.09,1.7-2.88.73-.79,1.62-1.41,2.67-1.84,1.04-.43,2.21-.65,3.51-.65ZM430.92,41.98c1.75,0,3.06-.59,3.92-1.76s1.29-2.81,1.29-4.91-.43-3.76-1.29-4.94c-.86-1.18-2.17-1.77-3.92-1.77-.89,0-1.66.15-2.31.46-.65.3-1.2.74-1.64,1.31-.44.57-.76,1.27-.98,2.11s-.32,1.78-.32,2.83.11,1.99.32,2.82c.22.83.54,1.53.98,2.09s.98,1,1.64,1.3c.65.3,1.42.46,2.31.46Z" fill="#232020"/><path d="M442.7,44.17v-17.73h1.78c.34,0,.57.06.7.19.13.13.22.35.26.67l.21,2.77c.61-1.24,1.36-2.2,2.25-2.9.89-.69,1.94-1.04,3.14-1.04.49,0,.93.06,1.33.17.4.11.76.27,1.1.46l-.4,2.33c-.08.29-.26.44-.54.44-.16,0-.41-.06-.75-.17-.34-.11-.81-.17-1.42-.17-1.09,0-1.99.31-2.72.94-.73.63-1.34,1.55-1.83,2.75v11.29h-3.11Z" fill="#232020"/><path d="M459.32,18.39v15.17h.81c.23,0,.43-.03.58-.1.15-.06.32-.2.51-.39l5.6-6c.17-.19.35-.34.52-.46.17-.12.41-.17.7-.17h2.83l-6.53,6.95c-.16.2-.32.37-.48.52-.16.15-.34.29-.53.4.21.14.4.3.57.48s.33.39.48.62l6.93,8.75h-2.8c-.26,0-.48-.05-.66-.15-.18-.1-.35-.25-.52-.46l-5.83-7.26c-.17-.25-.35-.41-.52-.48-.18-.08-.44-.11-.79-.11h-.88v8.47h-3.13v-25.78h3.13Z" fill="#232020"/><path d="M484.31,29.36c-.14.26-.36.39-.65.39-.18,0-.37-.06-.6-.19s-.49-.27-.81-.43c-.32-.16-.7-.3-1.15-.44-.44-.13-.97-.2-1.57-.2-.53,0-1,.07-1.42.2-.42.13-.78.32-1.08.55-.3.23-.52.5-.68.81-.16.31-.24.65-.24,1.01,0,.46.13.83.39,1.14.26.3.61.57,1.04.79.43.22.92.42,1.47.59.55.17,1.11.35,1.69.54.58.19,1.14.41,1.69.64s1.04.52,1.47.88.78.78,1.04,1.29c.26.51.39,1.12.39,1.83,0,.82-.15,1.57-.44,2.27-.29.69-.72,1.29-1.29,1.8-.57.51-1.27.91-2.1,1.2-.83.29-1.79.44-2.87.44-1.24,0-2.36-.2-3.36-.6-1-.4-1.85-.92-2.56-1.55l.73-1.19c.09-.15.2-.27.33-.35.13-.08.3-.12.51-.12s.43.08.67.25c.23.16.52.34.85.54.33.2.73.38,1.21.54.47.16,1.06.25,1.78.25.61,0,1.14-.08,1.59-.24.46-.16.83-.37,1.14-.64.3-.27.53-.58.67-.93.15-.35.22-.72.22-1.12,0-.49-.13-.9-.39-1.22s-.61-.6-1.04-.82c-.43-.23-.92-.43-1.48-.59s-1.12-.35-1.7-.53c-.58-.19-1.14-.4-1.7-.64-.55-.24-1.05-.54-1.48-.9-.43-.36-.78-.81-1.04-1.34-.26-.53-.39-1.18-.39-1.93,0-.68.14-1.33.42-1.95.28-.62.69-1.17,1.23-1.65.54-.47,1.2-.85,1.98-1.13.78-.28,1.67-.42,2.68-.42,1.17,0,2.21.18,3.14.55.93.37,1.73.87,2.41,1.51l-.7,1.14Z" fill="#232020"/><path d="M506.75,40.91c-.91,0-1.65-.22-2.22-.66s-.93-1.11-1.08-2.02c-.68.95-1.41,1.62-2.21,2.03-.79.41-1.65.61-2.55.61-.7,0-1.31-.12-1.82-.36-.51-.24-.94-.57-1.29-1-.34-.43-.6-.93-.77-1.51-.17-.58-.25-1.21-.25-1.89,0-.99.19-1.99.57-3,.38-1.01.94-1.92,1.69-2.73.75-.81,1.68-1.47,2.79-1.99,1.11-.51,2.4-.77,3.86-.77.78,0,1.47.06,2.05.18.59.12,1.15.3,1.67.53l-1.63,6.32c-.22.88-.33,1.6-.33,2.17,0,.42.05.77.16,1.04.11.27.25.49.43.65.18.16.39.27.63.32.24.06.49.09.76.09.57,0,1.11-.16,1.63-.49.51-.33.97-.79,1.36-1.38s.7-1.31.93-2.14c.23-.83.34-1.76.34-2.77,0-1.61-.26-3.02-.78-4.23-.52-1.21-1.23-2.23-2.14-3.04-.9-.81-1.97-1.42-3.2-1.82s-2.56-.6-3.98-.6c-1.56,0-3.03.3-4.39.89-1.36.6-2.55,1.42-3.57,2.47-1.01,1.05-1.81,2.29-2.4,3.73-.58,1.44-.88,3-.88,4.69,0,1.98.31,3.72.94,5.22.62,1.5,1.48,2.76,2.55,3.77,1.08,1.01,2.34,1.78,3.8,2.29,1.45.51,3.01.77,4.68.77,1.77,0,3.34-.19,4.7-.58,1.36-.39,2.54-.88,3.53-1.47.18-.1.33-.16.47-.16.24,0,.43.14.54.42l.44,1.15c-1.25.84-2.67,1.5-4.26,1.98-1.59.48-3.4.72-5.42.72s-3.9-.32-5.63-.96c-1.74-.64-3.25-1.57-4.52-2.77-1.28-1.21-2.28-2.69-3.01-4.44-.73-1.75-1.09-3.73-1.09-5.95,0-1.27.16-2.5.48-3.68.32-1.18.77-2.28,1.36-3.3.58-1.02,1.28-1.95,2.1-2.8.82-.85,1.73-1.57,2.73-2.17,1-.6,2.08-1.07,3.24-1.4,1.15-.33,2.36-.5,3.62-.5,1.07,0,2.12.12,3.15.35,1.03.23,2,.58,2.91,1.03s1.76,1.02,2.53,1.69c.77.67,1.43,1.44,1.99,2.31.55.87.98,1.84,1.29,2.91.31,1.07.46,2.23.46,3.47s-.18,2.42-.53,3.49-.85,1.99-1.47,2.77c-.62.78-1.36,1.39-2.21,1.84s-1.76.67-2.74.67ZM499.3,38.81c.36,0,.73-.06,1.09-.17s.72-.32,1.07-.61c.34-.29.66-.69.95-1.19.29-.5.53-1.13.72-1.89l1.33-5.16c-.46-.11-.95-.16-1.49-.16-.88,0-1.68.18-2.41.55-.73.37-1.36.85-1.88,1.44-.53.59-.94,1.28-1.23,2.05s-.45,1.56-.45,2.36.19,1.51.58,2.02.96.76,1.71.76Z" fill="#232020"/><path d="M527.58,41.47c1.04,0,1.96-.18,2.78-.53.82-.35,1.51-.84,2.07-1.47.57-.63,1-1.38,1.29-2.26.3-.88.45-1.84.45-2.89v-15.24h3.38v15.24c0,1.45-.23,2.79-.69,4.02-.46,1.24-1.12,2.31-1.98,3.21s-1.9,1.61-3.14,2.13c-1.24.51-2.62.77-4.16.77s-2.93-.26-4.17-.77c-1.24-.51-2.29-1.22-3.15-2.13s-1.53-1.97-1.99-3.21c-.46-1.24-.69-2.58-.69-4.02v-15.24h3.38v15.23c0,1.05.15,2.01.45,2.89.3.88.73,1.63,1.29,2.26.57.63,1.26,1.12,2.08,1.48.82.36,1.75.53,2.79.53Z" fill="#232020"/><path d="M562.67,44.17h-2.62c-.3,0-.55-.08-.74-.23-.19-.15-.33-.34-.42-.58l-2.34-6.05h-11.25l-2.34,6.05c-.08.21-.22.4-.42.56-.2.16-.44.25-.74.25h-2.62l10.03-25.08h3.45l10.03,25.08ZM546.24,34.86h9.36l-3.94-10.2c-.26-.63-.51-1.42-.75-2.36-.13.48-.25.92-.38,1.32-.12.4-.24.76-.36,1.06l-3.94,10.19Z" fill="#232020"/><path d="M569.14,33.7v10.46h-3.38v-25.08h7.09c1.59,0,2.96.16,4.11.48,1.16.32,2.11.78,2.86,1.39.75.61,1.31,1.34,1.67,2.2.36.86.54,1.82.54,2.88,0,.89-.14,1.71-.42,2.48s-.69,1.46-1.22,2.07c-.53.61-1.18,1.13-1.94,1.57-.76.43-1.63.76-2.6.98.42.25.79.6,1.12,1.07l7.32,9.96h-3.01c-.62,0-1.07-.24-1.37-.72l-6.51-8.96c-.2-.28-.42-.48-.65-.6s-.58-.18-1.05-.18h-2.57ZM569.14,31.23h3.55c.99,0,1.86-.12,2.62-.36.75-.24,1.38-.58,1.89-1.02.51-.44.89-.96,1.15-1.57.26-.61.38-1.28.38-2.01,0-1.49-.49-2.62-1.48-3.38-.99-.76-2.45-1.14-4.4-1.14h-3.71v9.47Z" fill="#232020"/><path d="M590.99,30.08h1.28c.44,0,.8-.06,1.06-.17.26-.11.51-.3.74-.57l8.35-9.45c.26-.29.5-.5.74-.62.24-.12.55-.18.92-.18h2.89l-9.55,10.8c-.25.27-.48.5-.69.68-.22.19-.45.34-.69.46.33.1.61.26.86.47s.5.47.77.79l9.97,11.88h-2.94c-.22,0-.41-.02-.56-.05-.15-.03-.28-.08-.39-.14-.11-.06-.21-.13-.31-.23s-.19-.19-.28-.3l-8.66-9.96c-.13-.14-.25-.26-.36-.36-.11-.1-.24-.18-.39-.25-.15-.07-.31-.12-.51-.15-.19-.03-.43-.04-.71-.04h-1.54v11.48h-3.38v-25.08h3.38v10.99Z" fill="#232020"/></svg>