<?xml version="1.0" encoding="UTF-8" standalone="no"?>
<!DOCTYPE svg PUBLIC "-//W3C//DTD SVG 1.1//EN"
 "http://www.w3.org/Graphics/SVG/1.1/DTD/svg11.dtd">
<!-- Generated by graphviz version 2.43.0 (0)
 -->
<!-- Title: src/Camera.cpp Pages: 1 -->
<svg width="3080pt" height="140pt"
 viewBox="0.00 0.00 3080.00 140.00" xmlns="http://www.w3.org/2000/svg" xmlns:xlink="http://www.w3.org/1999/xlink">
<g id="graph0" class="graph" transform="scale(1 1) rotate(0) translate(4 136)">
<title>src/Camera.cpp</title>
<polygon fill="white" stroke="transparent" points="-4,4 -4,-136 3076,-136 3076,4 -4,4"/>
<!-- Node1 -->
<g id="node1" class="node">
<title>Node1</title>
<g id="a_node1"><a xlink:title=" ">
<polygon fill="#bfbfbf" stroke="black" points="1847,-112.5 1847,-131.5 1939,-131.5 1939,-112.5 1847,-112.5"/>
<text text-anchor="middle" x="1893" y="-119.5" font-family="Helvetica,sans-Serif" font-size="10.00">src/Camera.cpp</text>
</a>
</g>
</g>
<!-- Node2 -->
<g id="node2" class="node">
<title>Node2</title>
<g id="a_node2"><a xlink:href="Camera_8hpp.html" target="_top" xlink:title=" ">
<polygon fill="white" stroke="black" points="812,-56.5 812,-75.5 888,-75.5 888,-56.5 812,-56.5"/>
<text text-anchor="middle" x="850" y="-63.5" font-family="Helvetica,sans-Serif" font-size="10.00">Camera.hpp</text>
</a>
</g>
</g>
<!-- Node1&#45;&gt;Node2 -->
<g id="edge1" class="edge">
<title>Node1&#45;&gt;Node2</title>
<path fill="none" stroke="midnightblue" d="M1846.67,-120.3C1706.38,-117.88 1273.89,-108.14 917,-76 911.01,-75.46 904.73,-74.78 898.52,-74.03"/>
<polygon fill="midnightblue" stroke="midnightblue" points="898.56,-70.5 888.2,-72.72 897.68,-77.45 898.56,-70.5"/>
</g>
<!-- Node4 -->
<g id="node4" class="node">
<title>Node4</title>
<g id="a_node4"><a xlink:title=" ">
<polygon fill="white" stroke="#bfbfbf" points="0,-0.5 0,-19.5 116,-19.5 116,-0.5 0,-0.5"/>
<text text-anchor="middle" x="58" y="-7.5" font-family="Helvetica,sans-Serif" font-size="10.00">opencv2/opencv.hpp</text>
</a>
</g>
</g>
<!-- Node1&#45;&gt;Node4 -->
<g id="edge28" class="edge">
<title>Node1&#45;&gt;Node4</title>
<path fill="none" stroke="midnightblue" d="M1846.68,-120.27C1634.91,-116.8 757.57,-101.15 484,-76 349.51,-63.64 192.85,-36.39 112.18,-21.39"/>
<polygon fill="midnightblue" stroke="midnightblue" points="112.72,-17.93 102.25,-19.54 111.44,-24.82 112.72,-17.93"/>
</g>
<!-- Node6 -->
<g id="node6" class="node">
<title>Node6</title>
<g id="a_node6"><a xlink:title=" ">
<polygon fill="white" stroke="#bfbfbf" points="134.5,-0.5 134.5,-19.5 271.5,-19.5 271.5,-0.5 134.5,-0.5"/>
<text text-anchor="middle" x="203" y="-7.5" font-family="Helvetica,sans-Serif" font-size="10.00">rc_genicam_api/device.h</text>
</a>
</g>
</g>
<!-- Node1&#45;&gt;Node6 -->
<g id="edge23" class="edge">
<title>Node1&#45;&gt;Node6</title>
<path fill="none" stroke="midnightblue" d="M1846.74,-121.16C1682.67,-121.32 1113.35,-118.59 646,-76 506.29,-63.27 343.4,-36.18 259.44,-21.31"/>
<polygon fill="midnightblue" stroke="midnightblue" points="259.82,-17.82 249.36,-19.51 258.59,-24.71 259.82,-17.82"/>
</g>
<!-- Node7 -->
<g id="node7" class="node">
<title>Node7</title>
<g id="a_node7"><a xlink:title=" ">
<polygon fill="white" stroke="#bfbfbf" points="290,-0.5 290,-19.5 462,-19.5 462,-0.5 290,-0.5"/>
<text text-anchor="middle" x="376" y="-7.5" font-family="Helvetica,sans-Serif" font-size="10.00">rc_genicam_api/pixel_formats.h</text>
</a>
</g>
</g>
<!-- Node1&#45;&gt;Node7 -->
<g id="edge26" class="edge">
<title>Node1&#45;&gt;Node7</title>
<path fill="none" stroke="midnightblue" d="M1846.92,-120.9C1696.49,-120.21 1206.2,-114.89 803,-76 668.61,-63.04 512.04,-36.16 430.97,-21.35"/>
<polygon fill="midnightblue" stroke="midnightblue" points="431.45,-17.88 420.99,-19.51 430.19,-24.76 431.45,-17.88"/>
</g>
<!-- Node8 -->
<g id="node8" class="node">
<title>Node8</title>
<g id="a_node8"><a xlink:title=" ">
<polygon fill="white" stroke="#bfbfbf" points="959,-0.5 959,-19.5 1009,-19.5 1009,-0.5 959,-0.5"/>
<text text-anchor="middle" x="984" y="-7.5" font-family="Helvetica,sans-Serif" font-size="10.00">atomic</text>
</a>
</g>
</g>
<!-- Node1&#45;&gt;Node8 -->
<g id="edge37" class="edge">
<title>Node1&#45;&gt;Node8</title>
<path fill="none" stroke="midnightblue" d="M1846.83,-120.14C1668.96,-116.63 1036.37,-102.35 1003,-76 989.32,-65.2 985.12,-45.12 984,-30.12"/>
<polygon fill="midnightblue" stroke="midnightblue" points="987.48,-29.75 983.64,-19.88 980.49,-30 987.48,-29.75"/>
</g>
<!-- Node13 -->
<g id="node13" class="node">
<title>Node13</title>
<g id="a_node13"><a xlink:title=" ">
<polygon fill="white" stroke="#bfbfbf" points="893.5,-0.5 893.5,-19.5 940.5,-19.5 940.5,-0.5 893.5,-0.5"/>
<text text-anchor="middle" x="917" y="-7.5" font-family="Helvetica,sans-Serif" font-size="10.00">vector</text>
</a>
</g>
</g>
<!-- Node1&#45;&gt;Node13 -->
<g id="edge36" class="edge">
<title>Node1&#45;&gt;Node13</title>
<path fill="none" stroke="midnightblue" d="M1846.91,-120.57C1673.42,-118.72 1065.46,-109.84 986,-76 962.2,-65.87 941.62,-43.68 929.27,-28.06"/>
<polygon fill="midnightblue" stroke="midnightblue" points="931.82,-25.62 922.99,-19.76 926.24,-29.84 931.82,-25.62"/>
</g>
<!-- Node14 -->
<g id="node14" class="node">
<title>Node14</title>
<g id="a_node14"><a xlink:title=" ">
<polygon fill="white" stroke="#bfbfbf" points="1155,-0.5 1155,-19.5 1205,-19.5 1205,-0.5 1155,-0.5"/>
<text text-anchor="middle" x="1180" y="-7.5" font-family="Helvetica,sans-Serif" font-size="10.00">chrono</text>
</a>
</g>
</g>
<!-- Node1&#45;&gt;Node14 -->
<g id="edge40" class="edge">
<title>Node1&#45;&gt;Node14</title>
<path fill="none" stroke="midnightblue" d="M1846.85,-120.19C1704.52,-117.39 1278.77,-106.52 1225,-76 1206.77,-65.65 1194.27,-44.51 1187.16,-29.14"/>
<polygon fill="midnightblue" stroke="midnightblue" points="1190.24,-27.44 1183.09,-19.63 1183.8,-30.2 1190.24,-27.44"/>
</g>
<!-- Node15 -->
<g id="node15" class="node">
<title>Node15</title>
<g id="a_node15"><a xlink:href="GlobalSettings_8hpp.html" target="_top" xlink:title=" ">
<polygon fill="white" stroke="black" points="1012.5,-56.5 1012.5,-75.5 1121.5,-75.5 1121.5,-56.5 1012.5,-56.5"/>
<text text-anchor="middle" x="1067" y="-63.5" font-family="Helvetica,sans-Serif" font-size="10.00">GlobalSettings.hpp</text>
</a>
</g>
</g>
<!-- Node1&#45;&gt;Node15 -->
<g id="edge14" class="edge">
<title>Node1&#45;&gt;Node15</title>
<path fill="none" stroke="midnightblue" d="M1846.83,-119.39C1728.48,-115.01 1404.69,-101.48 1136,-76 1134.53,-75.86 1133.05,-75.71 1131.56,-75.56"/>
<polygon fill="midnightblue" stroke="midnightblue" points="1131.89,-72.08 1121.57,-74.48 1131.14,-79.04 1131.89,-72.08"/>
</g>
<!-- Node16 -->
<g id="node16" class="node">
<title>Node16</title>
<g id="a_node16"><a xlink:title=" ">
<polygon fill="white" stroke="#bfbfbf" points="1223,-0.5 1223,-19.5 1279,-19.5 1279,-0.5 1223,-0.5"/>
<text text-anchor="middle" x="1251" y="-7.5" font-family="Helvetica,sans-Serif" font-size="10.00">sstream</text>
</a>
</g>
</g>
<!-- Node1&#45;&gt;Node16 -->
<g id="edge30" class="edge">
<title>Node1&#45;&gt;Node16</title>
<path fill="none" stroke="midnightblue" d="M1846.88,-121.39C1704.28,-122.1 1277.53,-120.47 1236,-76 1224.07,-63.22 1231.42,-42.92 1239.47,-28.4"/>
<polygon fill="midnightblue" stroke="midnightblue" points="1242.47,-30.2 1244.66,-19.84 1236.48,-26.58 1242.47,-30.2"/>
</g>
<!-- Node17 -->
<g id="node17" class="node">
<title>Node17</title>
<g id="a_node17"><a xlink:title=" ">
<polygon fill="white" stroke="#bfbfbf" points="1297,-0.5 1297,-19.5 1353,-19.5 1353,-0.5 1297,-0.5"/>
<text text-anchor="middle" x="1325" y="-7.5" font-family="Helvetica,sans-Serif" font-size="10.00">iomanip</text>
</a>
</g>
</g>
<!-- Node1&#45;&gt;Node17 -->
<g id="edge34" class="edge">
<title>Node1&#45;&gt;Node17</title>
<path fill="none" stroke="midnightblue" d="M1846.84,-121.33C1705.67,-121.87 1286.8,-119.74 1246,-76 1226.95,-55.58 1261.1,-35.72 1290.29,-23.44"/>
<polygon fill="midnightblue" stroke="midnightblue" points="1291.93,-26.55 1299.91,-19.58 1289.33,-20.06 1291.93,-26.55"/>
</g>
<!-- Node18 -->
<g id="node18" class="node">
<title>Node18</title>
<g id="a_node18"><a xlink:title=" ">
<polygon fill="white" stroke="#bfbfbf" points="1254.5,-56.5 1254.5,-75.5 1395.5,-75.5 1395.5,-56.5 1254.5,-56.5"/>
<text text-anchor="middle" x="1325" y="-63.5" font-family="Helvetica,sans-Serif" font-size="10.00">rc_genicam_api/system.h</text>
</a>
</g>
</g>
<!-- Node1&#45;&gt;Node18 -->
<g id="edge21" class="edge">
<title>Node1&#45;&gt;Node18</title>
<path fill="none" stroke="midnightblue" d="M1846.88,-117.06C1761.94,-109.73 1574.79,-93.27 1405.74,-76.06"/>
<polygon fill="midnightblue" stroke="midnightblue" points="1405.97,-72.56 1395.66,-75.03 1405.25,-79.53 1405.97,-72.56"/>
</g>
<!-- Node19 -->
<g id="node19" class="node">
<title>Node19</title>
<g id="a_node19"><a xlink:title=" ">
<polygon fill="white" stroke="#bfbfbf" points="1413.5,-56.5 1413.5,-75.5 1562.5,-75.5 1562.5,-56.5 1413.5,-56.5"/>
<text text-anchor="middle" x="1488" y="-63.5" font-family="Helvetica,sans-Serif" font-size="10.00">rc_genicam_api/interface.h</text>
</a>
</g>
</g>
<!-- Node1&#45;&gt;Node19 -->
<g id="edge22" class="edge">
<title>Node1&#45;&gt;Node19</title>
<path fill="none" stroke="midnightblue" d="M1846.94,-114.86C1777.48,-105.6 1645.23,-87.96 1562.11,-76.88"/>
<polygon fill="midnightblue" stroke="midnightblue" points="1562.35,-73.38 1551.97,-75.53 1561.42,-80.32 1562.35,-73.38"/>
</g>
<!-- Node20 -->
<g id="node20" class="node">
<title>Node20</title>
<g id="a_node20"><a xlink:title=" ">
<polygon fill="white" stroke="#bfbfbf" points="1581,-56.5 1581,-75.5 1721,-75.5 1721,-56.5 1581,-56.5"/>
<text text-anchor="middle" x="1651" y="-63.5" font-family="Helvetica,sans-Serif" font-size="10.00">rc_genicam_api/stream.h</text>
</a>
</g>
</g>
<!-- Node1&#45;&gt;Node20 -->
<g id="edge24" class="edge">
<title>Node1&#45;&gt;Node20</title>
<path fill="none" stroke="midnightblue" d="M1854.65,-112.44C1812.53,-103.04 1744.79,-87.93 1699.13,-77.74"/>
<polygon fill="midnightblue" stroke="midnightblue" points="1699.69,-74.28 1689.17,-75.52 1698.16,-81.11 1699.69,-74.28"/>
</g>
<!-- Node21 -->
<g id="node21" class="node">
<title>Node21</title>
<g id="a_node21"><a xlink:title=" ">
<polygon fill="white" stroke="#bfbfbf" points="1739,-56.5 1739,-75.5 1875,-75.5 1875,-56.5 1739,-56.5"/>
<text text-anchor="middle" x="1807" y="-63.5" font-family="Helvetica,sans-Serif" font-size="10.00">rc_genicam_api/image.h</text>
</a>
</g>
</g>
<!-- Node1&#45;&gt;Node21 -->
<g id="edge25" class="edge">
<title>Node1&#45;&gt;Node21</title>
<path fill="none" stroke="midnightblue" d="M1879.18,-112.32C1865.77,-103.9 1845.18,-90.97 1829.41,-81.07"/>
<polygon fill="midnightblue" stroke="midnightblue" points="1831.11,-78.01 1820.78,-75.65 1827.39,-83.94 1831.11,-78.01"/>
</g>
<!-- Node22 -->
<g id="node22" class="node">
<title>Node22</title>
<g id="a_node22"><a xlink:title=" ">
<polygon fill="white" stroke="#bfbfbf" points="1893,-56.5 1893,-75.5 2065,-75.5 2065,-56.5 1893,-56.5"/>
<text text-anchor="middle" x="1979" y="-63.5" font-family="Helvetica,sans-Serif" font-size="10.00">rc_genicam_api/nodemap_out.h</text>
</a>
</g>
</g>
<!-- Node1&#45;&gt;Node22 -->
<g id="edge27" class="edge">
<title>Node1&#45;&gt;Node22</title>
<path fill="none" stroke="midnightblue" d="M1906.82,-112.32C1920.23,-103.9 1940.82,-90.97 1956.59,-81.07"/>
<polygon fill="midnightblue" stroke="midnightblue" points="1958.61,-83.94 1965.22,-75.65 1954.89,-78.01 1958.61,-83.94"/>
</g>
<!-- Node23 -->
<g id="node23" class="node">
<title>Node23</title>
<g id="a_node23"><a xlink:title=" ">
<polygon fill="white" stroke="#bfbfbf" points="2083,-56.5 2083,-75.5 2143,-75.5 2143,-56.5 2083,-56.5"/>
<text text-anchor="middle" x="2113" y="-63.5" font-family="Helvetica,sans-Serif" font-size="10.00">iostream</text>
</a>
</g>
</g>
<!-- Node1&#45;&gt;Node23 -->
<g id="edge29" class="edge">
<title>Node1&#45;&gt;Node23</title>
<path fill="none" stroke="midnightblue" d="M1927.86,-112.44C1967.37,-102.75 2031.66,-86.97 2073.13,-76.79"/>
<polygon fill="midnightblue" stroke="midnightblue" points="2074.02,-80.17 2082.9,-74.39 2072.35,-73.37 2074.02,-80.17"/>
</g>
<!-- Node24 -->
<g id="node24" class="node">
<title>Node24</title>
<g id="a_node24"><a xlink:title=" ">
<polygon fill="white" stroke="#bfbfbf" points="2161.5,-56.5 2161.5,-75.5 2216.5,-75.5 2216.5,-56.5 2161.5,-56.5"/>
<text text-anchor="middle" x="2189" y="-63.5" font-family="Helvetica,sans-Serif" font-size="10.00">fstream</text>
</a>
</g>
</g>
<!-- Node1&#45;&gt;Node24 -->
<g id="edge31" class="edge">
<title>Node1&#45;&gt;Node24</title>
<path fill="none" stroke="midnightblue" d="M1939.03,-113.95C1988.82,-106.12 2070.76,-92.61 2150.9,-76.11"/>
<polygon fill="midnightblue" stroke="midnightblue" points="2152.09,-79.44 2161.16,-73.98 2150.66,-72.59 2152.09,-79.44"/>
</g>
<!-- Node25 -->
<g id="node25" class="node">
<title>Node25</title>
<g id="a_node25"><a xlink:title=" ">
<polygon fill="white" stroke="#bfbfbf" points="2235,-56.5 2235,-75.5 2267,-75.5 2267,-56.5 2235,-56.5"/>
<text text-anchor="middle" x="2251" y="-63.5" font-family="Helvetica,sans-Serif" font-size="10.00">set</text>
</a>
</g>
</g>
<!-- Node1&#45;&gt;Node25 -->
<g id="edge32" class="edge">
<title>Node1&#45;&gt;Node25</title>
<path fill="none" stroke="midnightblue" d="M1939.08,-117.86C2001.92,-112.91 2117.98,-101.37 2224.77,-75.84"/>
<polygon fill="midnightblue" stroke="midnightblue" points="2225.86,-79.18 2234.75,-73.41 2224.2,-72.38 2225.86,-79.18"/>
</g>
<!-- Node26 -->
<g id="node26" class="node">
<title>Node26</title>
<g id="a_node26"><a xlink:title=" ">
<polygon fill="white" stroke="#bfbfbf" points="2285.5,-56.5 2285.5,-75.5 2354.5,-75.5 2354.5,-56.5 2285.5,-56.5"/>
<text text-anchor="middle" x="2320" y="-63.5" font-family="Helvetica,sans-Serif" font-size="10.00">arpa/inet.h</text>
</a>
</g>
</g>
<!-- Node1&#45;&gt;Node26 -->
<g id="edge33" class="edge">
<title>Node1&#45;&gt;Node26</title>
<path fill="none" stroke="midnightblue" d="M1939.16,-116.85C2009.47,-110.26 2147.78,-96.18 2275.5,-75.95"/>
<polygon fill="midnightblue" stroke="midnightblue" points="2276.14,-79.39 2285.46,-74.35 2275.04,-72.48 2276.14,-79.39"/>
</g>
<!-- Node27 -->
<g id="node27" class="node">
<title>Node27</title>
<g id="a_node27"><a xlink:title=" ">
<polygon fill="white" stroke="#bfbfbf" points="2373,-56.5 2373,-75.5 2417,-75.5 2417,-56.5 2373,-56.5"/>
<text text-anchor="middle" x="2395" y="-63.5" font-family="Helvetica,sans-Serif" font-size="10.00">regex</text>
</a>
</g>
</g>
<!-- Node1&#45;&gt;Node27 -->
<g id="edge35" class="edge">
<title>Node1&#45;&gt;Node27</title>
<path fill="none" stroke="midnightblue" d="M1939.2,-119.45C2022.31,-116.05 2202.51,-105.85 2362.73,-75.9"/>
<polygon fill="midnightblue" stroke="midnightblue" points="2363.6,-79.3 2372.77,-73.99 2362.29,-72.42 2363.6,-79.3"/>
</g>
<!-- Node28 -->
<g id="node28" class="node">
<title>Node28</title>
<g id="a_node28"><a xlink:title=" ">
<polygon fill="white" stroke="#bfbfbf" points="2435,-56.5 2435,-75.5 2483,-75.5 2483,-56.5 2435,-56.5"/>
<text text-anchor="middle" x="2459" y="-63.5" font-family="Helvetica,sans-Serif" font-size="10.00">thread</text>
</a>
</g>
</g>
<!-- Node1&#45;&gt;Node28 -->
<g id="edge38" class="edge">
<title>Node1&#45;&gt;Node28</title>
<path fill="none" stroke="midnightblue" d="M1939.35,-119.92C2030.69,-117.18 2240.38,-107.87 2425.07,-75.84"/>
<polygon fill="midnightblue" stroke="midnightblue" points="2425.72,-79.28 2434.96,-74.1 2424.51,-72.39 2425.72,-79.28"/>
</g>
<!-- Node29 -->
<g id="node29" class="node">
<title>Node29</title>
<g id="a_node29"><a xlink:title=" ">
<polygon fill="white" stroke="#bfbfbf" points="2501,-56.5 2501,-75.5 2565,-75.5 2565,-56.5 2501,-56.5"/>
<text text-anchor="middle" x="2533" y="-63.5" font-family="Helvetica,sans-Serif" font-size="10.00">sys/stat.h</text>
</a>
</g>
</g>
<!-- Node1&#45;&gt;Node29 -->
<g id="edge39" class="edge">
<title>Node1&#45;&gt;Node29</title>
<path fill="none" stroke="midnightblue" d="M1939.08,-119.75C2038.28,-116.59 2279.49,-106.35 2490.81,-75.97"/>
<polygon fill="midnightblue" stroke="midnightblue" points="2491.46,-79.41 2500.85,-74.51 2490.45,-72.48 2491.46,-79.41"/>
</g>
<!-- Node30 -->
<g id="node30" class="node">
<title>Node30</title>
<g id="a_node30"><a xlink:title=" ">
<polygon fill="white" stroke="#bfbfbf" points="2583.5,-56.5 2583.5,-75.5 2676.5,-75.5 2676.5,-56.5 2583.5,-56.5"/>
<text text-anchor="middle" x="2630" y="-63.5" font-family="Helvetica,sans-Serif" font-size="10.00">unordered_map</text>
</a>
</g>
</g>
<!-- Node1&#45;&gt;Node30 -->
<g id="edge41" class="edge">
<title>Node1&#45;&gt;Node30</title>
<path fill="none" stroke="midnightblue" d="M1939.37,-119.43C2048.16,-115.43 2328.37,-103.25 2573.14,-75.98"/>
<polygon fill="midnightblue" stroke="midnightblue" points="2573.75,-79.44 2583.29,-74.84 2572.97,-72.48 2573.75,-79.44"/>
</g>
<!-- Node31 -->
<g id="node31" class="node">
<title>Node31</title>
<g id="a_node31"><a xlink:title=" ">
<polygon fill="white" stroke="#bfbfbf" points="2694.5,-56.5 2694.5,-75.5 2759.5,-75.5 2759.5,-56.5 2694.5,-56.5"/>
<text text-anchor="middle" x="2727" y="-63.5" font-family="Helvetica,sans-Serif" font-size="10.00">stdexcept</text>
</a>
</g>
</g>
<!-- Node1&#45;&gt;Node31 -->
<g id="edge42" class="edge">
<title>Node1&#45;&gt;Node31</title>
<path fill="none" stroke="midnightblue" d="M1939.28,-120.94C2060.32,-120.25 2396.24,-114.8 2684.19,-76.04"/>
<polygon fill="midnightblue" stroke="midnightblue" points="2684.97,-79.46 2694.41,-74.64 2684.03,-72.53 2684.97,-79.46"/>
</g>
<!-- Node32 -->
<g id="node32" class="node">
<title>Node32</title>
<g id="a_node32"><a xlink:title=" ">
<polygon fill="white" stroke="#bfbfbf" points="2778,-56.5 2778,-75.5 2822,-75.5 2822,-56.5 2778,-56.5"/>
<text text-anchor="middle" x="2800" y="-63.5" font-family="Helvetica,sans-Serif" font-size="10.00">ctime</text>
</a>
</g>
</g>
<!-- Node1&#45;&gt;Node32 -->
<g id="edge43" class="edge">
<title>Node1&#45;&gt;Node32</title>
<path fill="none" stroke="midnightblue" d="M1939.14,-120.04C2092.88,-116.61 2587.67,-103.8 2767.67,-75.76"/>
<polygon fill="midnightblue" stroke="midnightblue" points="2768.49,-79.18 2777.79,-74.11 2767.36,-72.27 2768.49,-79.18"/>
</g>
<!-- Node33 -->
<g id="node33" class="node">
<title>Node33</title>
<g id="a_node33"><a xlink:title=" ">
<polygon fill="white" stroke="#bfbfbf" points="2840,-56.5 2840,-75.5 2896,-75.5 2896,-56.5 2840,-56.5"/>
<text text-anchor="middle" x="2868" y="-63.5" font-family="Helvetica,sans-Serif" font-size="10.00">numeric</text>
</a>
</g>
</g>
<!-- Node1&#45;&gt;Node33 -->
<g id="edge44" class="edge">
<title>Node1&#45;&gt;Node33</title>
<path fill="none" stroke="midnightblue" d="M1939.2,-119.95C2100.17,-116.11 2636.51,-101.79 2829.79,-75.84"/>
<polygon fill="midnightblue" stroke="midnightblue" points="2830.41,-79.29 2839.83,-74.44 2829.44,-72.36 2830.41,-79.29"/>
</g>
<!-- Node34 -->
<g id="node34" class="node">
<title>Node34</title>
<g id="a_node34"><a xlink:title=" ">
<polygon fill="white" stroke="#bfbfbf" points="2914,-56.5 2914,-75.5 2986,-75.5 2986,-56.5 2914,-56.5"/>
<text text-anchor="middle" x="2950" y="-63.5" font-family="Helvetica,sans-Serif" font-size="10.00">sys/types.h</text>
</a>
</g>
</g>
<!-- Node1&#45;&gt;Node34 -->
<g id="edge45" class="edge">
<title>Node1&#45;&gt;Node34</title>
<path fill="none" stroke="midnightblue" d="M1939.1,-121.45C2081.43,-122.32 2526.53,-121.05 2903.71,-75.96"/>
<polygon fill="midnightblue" stroke="midnightblue" points="2904.22,-79.42 2913.73,-74.75 2903.38,-72.47 2904.22,-79.42"/>
</g>
<!-- Node35 -->
<g id="node35" class="node">
<title>Node35</title>
<g id="a_node35"><a xlink:title=" ">
<polygon fill="white" stroke="#bfbfbf" points="3004,-56.5 3004,-75.5 3072,-75.5 3072,-56.5 3004,-56.5"/>
<text text-anchor="middle" x="3038" y="-63.5" font-family="Helvetica,sans-Serif" font-size="10.00">filesystem</text>
</a>
</g>
</g>
<!-- Node1&#45;&gt;Node35 -->
<g id="edge46" class="edge">
<title>Node1&#45;&gt;Node35</title>
<path fill="none" stroke="midnightblue" d="M1939.23,-120.13C2118.1,-116.62 2765.72,-102.43 2993.61,-75.92"/>
<polygon fill="midnightblue" stroke="midnightblue" points="2994.31,-79.36 3003.82,-74.69 2993.47,-72.41 2994.31,-79.36"/>
</g>
<!-- Node3 -->
<g id="node3" class="node">
<title>Node3</title>
<g id="a_node3"><a xlink:title=" ">
<polygon fill="white" stroke="#bfbfbf" points="556.5,-0.5 556.5,-19.5 655.5,-19.5 655.5,-0.5 556.5,-0.5"/>
<text text-anchor="middle" x="606" y="-7.5" font-family="Helvetica,sans-Serif" font-size="10.00">GenApi/GenApi.h</text>
</a>
</g>
</g>
<!-- Node2&#45;&gt;Node3 -->
<g id="edge2" class="edge">
<title>Node2&#45;&gt;Node3</title>
<path fill="none" stroke="midnightblue" d="M811.88,-56.56C769.42,-47.17 700.7,-31.96 654.46,-21.72"/>
<polygon fill="midnightblue" stroke="midnightblue" points="655.18,-18.3 644.66,-19.56 653.67,-25.13 655.18,-18.3"/>
</g>
<!-- Node2&#45;&gt;Node4 -->
<g id="edge3" class="edge">
<title>Node2&#45;&gt;Node4</title>
<path fill="none" stroke="midnightblue" d="M811.8,-63.59C705.16,-59.46 395.01,-46.04 126.42,-20.07"/>
<polygon fill="midnightblue" stroke="midnightblue" points="126.37,-16.55 116.08,-19.06 125.69,-23.51 126.37,-16.55"/>
</g>
<!-- Node5 -->
<g id="node5" class="node">
<title>Node5</title>
<g id="a_node5"><a xlink:title=" ">
<polygon fill="white" stroke="#bfbfbf" points="673.5,-0.5 673.5,-19.5 806.5,-19.5 806.5,-0.5 673.5,-0.5"/>
<text text-anchor="middle" x="740" y="-7.5" font-family="Helvetica,sans-Serif" font-size="10.00">rc_genicam_api/buffer.h</text>
</a>
</g>
</g>
<!-- Node2&#45;&gt;Node5 -->
<g id="edge4" class="edge">
<title>Node2&#45;&gt;Node5</title>
<path fill="none" stroke="midnightblue" d="M832.33,-56.32C814.61,-47.62 787.1,-34.12 766.71,-24.11"/>
<polygon fill="midnightblue" stroke="midnightblue" points="768.15,-20.92 757.63,-19.65 765.06,-27.2 768.15,-20.92"/>
</g>
<!-- Node2&#45;&gt;Node6 -->
<g id="edge5" class="edge">
<title>Node2&#45;&gt;Node6</title>
<path fill="none" stroke="midnightblue" d="M811.66,-62.45C721.39,-56.33 488.15,-39.93 282,-20.06"/>
<polygon fill="midnightblue" stroke="midnightblue" points="282.18,-16.57 271.89,-19.08 281.51,-23.53 282.18,-16.57"/>
</g>
<!-- Node2&#45;&gt;Node7 -->
<g id="edge6" class="edge">
<title>Node2&#45;&gt;Node7</title>
<path fill="none" stroke="midnightblue" d="M811.61,-60.63C735.68,-51.98 564.69,-32.5 460.96,-20.68"/>
<polygon fill="midnightblue" stroke="midnightblue" points="461.16,-17.18 450.82,-19.52 460.36,-24.13 461.16,-17.18"/>
</g>
<!-- Node2&#45;&gt;Node8 -->
<g id="edge7" class="edge">
<title>Node2&#45;&gt;Node8</title>
<path fill="none" stroke="midnightblue" d="M871.23,-56.44C893.38,-47.52 928.32,-33.44 953.44,-23.32"/>
<polygon fill="midnightblue" stroke="midnightblue" points="954.9,-26.5 962.87,-19.52 952.28,-20.01 954.9,-26.5"/>
</g>
<!-- Node9 -->
<g id="node9" class="node">
<title>Node9</title>
<g id="a_node9"><a xlink:title=" ">
<polygon fill="white" stroke="#bfbfbf" points="825,-0.5 825,-19.5 875,-19.5 875,-0.5 825,-0.5"/>
<text text-anchor="middle" x="850" y="-7.5" font-family="Helvetica,sans-Serif" font-size="10.00">cstdint</text>
</a>
</g>
</g>
<!-- Node2&#45;&gt;Node9 -->
<g id="edge8" class="edge">
<title>Node2&#45;&gt;Node9</title>
<path fill="none" stroke="midnightblue" d="M850,-56.08C850,-49.01 850,-38.86 850,-29.99"/>
<polygon fill="midnightblue" stroke="midnightblue" points="853.5,-29.75 850,-19.75 846.5,-29.75 853.5,-29.75"/>
</g>
<!-- Node10 -->
<g id="node10" class="node">
<title>Node10</title>
<g id="a_node10"><a xlink:title=" ">
<polygon fill="white" stroke="#bfbfbf" points="480,-0.5 480,-19.5 538,-19.5 538,-0.5 480,-0.5"/>
<text text-anchor="middle" x="509" y="-7.5" font-family="Helvetica,sans-Serif" font-size="10.00">memory</text>
</a>
</g>
</g>
<!-- Node2&#45;&gt;Node10 -->
<g id="edge9" class="edge">
<title>Node2&#45;&gt;Node10</title>
<path fill="none" stroke="midnightblue" d="M811.56,-60.36C755.71,-53.38 648.71,-39.14 548.4,-20.14"/>
<polygon fill="midnightblue" stroke="midnightblue" points="548.88,-16.67 538.41,-18.23 547.57,-23.54 548.88,-16.67"/>
</g>
<!-- Node11 -->
<g id="node11" class="node">
<title>Node11</title>
<g id="a_node11"><a xlink:title=" ">
<polygon fill="white" stroke="#bfbfbf" points="1027,-0.5 1027,-19.5 1075,-19.5 1075,-0.5 1027,-0.5"/>
<text text-anchor="middle" x="1051" y="-7.5" font-family="Helvetica,sans-Serif" font-size="10.00">mutex</text>
</a>
</g>
</g>
<!-- Node2&#45;&gt;Node11 -->
<g id="edge10" class="edge">
<title>Node2&#45;&gt;Node11</title>
<path fill="none" stroke="midnightblue" d="M881.91,-56.5C913.73,-48.01 964.27,-34.5 1016.99,-20.27"/>
<polygon fill="midnightblue" stroke="midnightblue" points="1018.11,-23.59 1026.85,-17.6 1016.29,-16.83 1018.11,-23.59"/>
</g>
<!-- Node12 -->
<g id="node12" class="node">
<title>Node12</title>
<g id="a_node12"><a xlink:title=" ">
<polygon fill="white" stroke="#bfbfbf" points="1093,-0.5 1093,-19.5 1137,-19.5 1137,-0.5 1093,-0.5"/>
<text text-anchor="middle" x="1115" y="-7.5" font-family="Helvetica,sans-Serif" font-size="10.00">string</text>
</a>
</g>
</g>
<!-- Node2&#45;&gt;Node12 -->
<g id="edge11" class="edge">
<title>Node2&#45;&gt;Node12</title>
<path fill="none" stroke="midnightblue" d="M888.33,-58.75C932.87,-51.24 1008.75,-37.69 1082.76,-20.13"/>
<polygon fill="midnightblue" stroke="midnightblue" points="1083.81,-23.48 1092.71,-17.74 1082.17,-16.67 1083.81,-23.48"/>
</g>
<!-- Node2&#45;&gt;Node13 -->
<g id="edge12" class="edge">
<title>Node2&#45;&gt;Node13</title>
<path fill="none" stroke="midnightblue" d="M860.76,-56.32C870.77,-48.26 885.89,-36.08 897.93,-26.37"/>
<polygon fill="midnightblue" stroke="midnightblue" points="900.45,-28.83 906.04,-19.83 896.06,-23.38 900.45,-28.83"/>
</g>
<!-- Node2&#45;&gt;Node14 -->
<g id="edge13" class="edge">
<title>Node2&#45;&gt;Node14</title>
<path fill="none" stroke="midnightblue" d="M888.08,-60.55C942.79,-53.86 1046.93,-40.04 1144.77,-20.07"/>
<polygon fill="midnightblue" stroke="midnightblue" points="1145.74,-23.44 1154.82,-17.99 1144.32,-16.59 1145.74,-23.44"/>
</g>
<!-- Node15&#45;&gt;Node8 -->
<g id="edge15" class="edge">
<title>Node15&#45;&gt;Node8</title>
<path fill="none" stroke="midnightblue" d="M1053.66,-56.32C1040.84,-47.98 1021.22,-35.21 1006.06,-25.35"/>
<polygon fill="midnightblue" stroke="midnightblue" points="1007.59,-22.17 997.3,-19.65 1003.78,-28.04 1007.59,-22.17"/>
</g>
<!-- Node15&#45;&gt;Node11 -->
<g id="edge16" class="edge">
<title>Node15&#45;&gt;Node11</title>
<path fill="none" stroke="midnightblue" d="M1064.36,-56.08C1062.21,-48.85 1059.12,-38.41 1056.45,-29.4"/>
<polygon fill="midnightblue" stroke="midnightblue" points="1059.79,-28.34 1053.59,-19.75 1053.08,-30.33 1059.79,-28.34"/>
</g>
<!-- Node15&#45;&gt;Node12 -->
<g id="edge17" class="edge">
<title>Node15&#45;&gt;Node12</title>
<path fill="none" stroke="midnightblue" d="M1074.93,-56.08C1081.85,-48.3 1092.07,-36.8 1100.45,-27.37"/>
<polygon fill="midnightblue" stroke="midnightblue" points="1103.19,-29.55 1107.22,-19.75 1097.96,-24.9 1103.19,-29.55"/>
</g>
<!-- Node15&#45;&gt;Node14 -->
<g id="edge19" class="edge">
<title>Node15&#45;&gt;Node14</title>
<path fill="none" stroke="midnightblue" d="M1084.91,-56.44C1103.25,-47.68 1132.01,-33.94 1153.09,-23.86"/>
<polygon fill="midnightblue" stroke="midnightblue" points="1154.67,-26.99 1162.18,-19.52 1151.65,-20.67 1154.67,-26.99"/>
</g>
<!-- Node15&#45;&gt;Node16 -->
<g id="edge18" class="edge">
<title>Node15&#45;&gt;Node16</title>
<path fill="none" stroke="midnightblue" d="M1096.16,-56.44C1127.79,-47.16 1178.41,-32.3 1213.11,-22.12"/>
<polygon fill="midnightblue" stroke="midnightblue" points="1214.28,-25.43 1222.89,-19.25 1212.31,-18.71 1214.28,-25.43"/>
</g>
<!-- Node15&#45;&gt;Node17 -->
<g id="edge20" class="edge">
<title>Node15&#45;&gt;Node17</title>
<path fill="none" stroke="midnightblue" d="M1111.55,-56.44C1154.16,-48.14 1220.47,-34.93 1286.94,-20.18"/>
<polygon fill="midnightblue" stroke="midnightblue" points="1287.75,-23.58 1296.74,-17.99 1286.22,-16.75 1287.75,-23.58"/>
</g>
</g>
</svg>
