<?xml version="1.0" encoding="UTF-8" standalone="no"?>
<!DOCTYPE svg PUBLIC "-//W3C//DTD SVG 1.1//EN"
 "http://www.w3.org/Graphics/SVG/1.1/DTD/svg11.dtd">
<!-- Generated by graphviz version 2.43.0 (0)
 -->
<!-- Title: Camera::Camera Pages: 1 -->
<svg width="594pt" height="161pt"
 viewBox="0.00 0.00 594.00 161.00" xmlns="http://www.w3.org/2000/svg" xmlns:xlink="http://www.w3.org/1999/xlink">
<g id="graph0" class="graph" transform="scale(1 1) rotate(0) translate(4 157)">
<title>Camera::Camera</title>
<polygon fill="white" stroke="transparent" points="-4,4 -4,-157 590,-157 590,4 -4,4"/>
<!-- Node1 -->
<g id="node1" class="node">
<title>Node1</title>
<g id="a_node1"><a xlink:title=" ">
<polygon fill="#bfbfbf" stroke="black" points="0,-38.5 0,-57.5 99,-57.5 99,-38.5 0,-38.5"/>
<text text-anchor="middle" x="49.5" y="-45.5" font-family="Helvetica,sans-Serif" font-size="10.00">Camera::Camera</text>
</a>
</g>
</g>
<!-- Node2 -->
<g id="node2" class="node">
<title>Node2</title>
<g id="a_node2"><a xlink:href="classCamera.html#ae840f24b0124bdbce1f84f9a345458fa" target="_top" xlink:title=" ">
<polygon fill="white" stroke="black" points="141,-95.5 141,-114.5 263,-114.5 263,-95.5 141,-95.5"/>
<text text-anchor="middle" x="202" y="-102.5" font-family="Helvetica,sans-Serif" font-size="10.00">Camera::getCurrentIP</text>
</a>
</g>
</g>
<!-- Node1&#45;&gt;Node2 -->
<g id="edge1" class="edge">
<title>Node1&#45;&gt;Node2</title>
<path fill="none" stroke="midnightblue" d="M75.69,-57.54C100.43,-66.91 138.39,-81.29 166.05,-91.76"/>
<polygon fill="midnightblue" stroke="midnightblue" points="165.14,-95.16 175.73,-95.43 167.62,-88.61 165.14,-95.16"/>
</g>
<!-- Node6 -->
<g id="node6" class="node">
<title>Node6</title>
<g id="a_node6"><a xlink:href="classCamera.html#abfa5e73af0569daf079c9e7604a42bb4" target="_top" xlink:title=" ">
<polygon fill="white" stroke="black" points="152.5,-38.5 152.5,-57.5 251.5,-57.5 251.5,-38.5 152.5,-38.5"/>
<text text-anchor="middle" x="202" y="-45.5" font-family="Helvetica,sans-Serif" font-size="10.00">Camera::getMAC</text>
</a>
</g>
</g>
<!-- Node1&#45;&gt;Node6 -->
<g id="edge6" class="edge">
<title>Node1&#45;&gt;Node6</title>
<path fill="none" stroke="midnightblue" d="M99.36,-48C113.04,-48 128.04,-48 142.23,-48"/>
<polygon fill="midnightblue" stroke="midnightblue" points="142.38,-51.5 152.38,-48 142.38,-44.5 142.38,-51.5"/>
</g>
<!-- Node9 -->
<g id="node9" class="node">
<title>Node9</title>
<g id="a_node9"><a xlink:href="classCamera.html#a5d4c34805e90431d2cd05d413e1b49f2" target="_top" xlink:title=" ">
<polygon fill="white" stroke="black" points="135,-0.5 135,-19.5 269,-19.5 269,-0.5 135,-0.5"/>
<text text-anchor="middle" x="202" y="-7.5" font-family="Helvetica,sans-Serif" font-size="10.00">Camera::getPixelFormat</text>
</a>
</g>
</g>
<!-- Node1&#45;&gt;Node9 -->
<g id="edge10" class="edge">
<title>Node1&#45;&gt;Node9</title>
<path fill="none" stroke="midnightblue" d="M88.48,-38.41C108.16,-33.44 132.39,-27.32 153.32,-22.04"/>
<polygon fill="midnightblue" stroke="midnightblue" points="154.46,-25.36 163.3,-19.52 152.74,-18.57 154.46,-25.36"/>
</g>
<!-- Node3 -->
<g id="node3" class="node">
<title>Node3</title>
<g id="a_node3"><a xlink:href="classCamera.html#ad182e9d0e07bc9c87566614760513aa2" target="_top" xlink:title=" ">
<polygon fill="white" stroke="black" points="460,-133.5 460,-152.5 579,-152.5 579,-133.5 460,-133.5"/>
<text text-anchor="middle" x="519.5" y="-140.5" font-family="Helvetica,sans-Serif" font-size="10.00">Camera::decimalToIP</text>
</a>
</g>
</g>
<!-- Node2&#45;&gt;Node3 -->
<g id="edge2" class="edge">
<title>Node2&#45;&gt;Node3</title>
<path fill="none" stroke="midnightblue" d="M222.34,-114.59C242.43,-123.97 275.06,-137.6 305,-143 352.69,-151.59 407.34,-151.41 449.41,-149.17"/>
<polygon fill="midnightblue" stroke="midnightblue" points="449.77,-152.66 459.55,-148.58 449.37,-145.67 449.77,-152.66"/>
</g>
<!-- Node4 -->
<g id="node4" class="node">
<title>Node4</title>
<g id="a_node4"><a xlink:href="classCamera.html#ad53ddaba9bcc76a479020938de83daab" target="_top" xlink:title=" ">
<polygon fill="white" stroke="black" points="312,-114.5 312,-133.5 410,-133.5 410,-114.5 312,-114.5"/>
<text text-anchor="middle" x="361" y="-121.5" font-family="Helvetica,sans-Serif" font-size="10.00">Camera::hexToIP</text>
</a>
</g>
</g>
<!-- Node2&#45;&gt;Node4 -->
<g id="edge3" class="edge">
<title>Node2&#45;&gt;Node4</title>
<path fill="none" stroke="midnightblue" d="M263.25,-112.29C275.82,-113.81 289.04,-115.41 301.54,-116.93"/>
<polygon fill="midnightblue" stroke="midnightblue" points="301.49,-120.45 311.84,-118.17 302.33,-113.5 301.49,-120.45"/>
</g>
<!-- Node5 -->
<g id="node5" class="node">
<title>Node5</title>
<g id="a_node5"><a xlink:href="classCamera.html#ade437e0323ff584e94503a936e7d62fd" target="_top" xlink:title=" ">
<polygon fill="white" stroke="black" points="305.5,-76.5 305.5,-95.5 416.5,-95.5 416.5,-76.5 305.5,-76.5"/>
<text text-anchor="middle" x="361" y="-83.5" font-family="Helvetica,sans-Serif" font-size="10.00">Camera::isDottedIP</text>
</a>
</g>
</g>
<!-- Node2&#45;&gt;Node5 -->
<g id="edge5" class="edge">
<title>Node2&#45;&gt;Node5</title>
<path fill="none" stroke="midnightblue" d="M263.25,-97.71C273.74,-96.44 284.68,-95.12 295.28,-93.83"/>
<polygon fill="midnightblue" stroke="midnightblue" points="295.8,-97.29 305.31,-92.62 294.96,-90.35 295.8,-97.29"/>
</g>
<!-- Node4&#45;&gt;Node3 -->
<g id="edge4" class="edge">
<title>Node4&#45;&gt;Node3</title>
<path fill="none" stroke="midnightblue" d="M410.23,-129.86C422.76,-131.38 436.49,-133.04 449.85,-134.66"/>
<polygon fill="midnightblue" stroke="midnightblue" points="449.61,-138.16 459.96,-135.89 450.45,-131.21 449.61,-138.16"/>
</g>
<!-- Node7 -->
<g id="node7" class="node">
<title>Node7</title>
<g id="a_node7"><a xlink:href="classCamera.html#a47b57e67b9197bbdf36b2d181645897d" target="_top" xlink:title=" ">
<polygon fill="white" stroke="black" points="453,-19.5 453,-38.5 586,-38.5 586,-19.5 453,-19.5"/>
<text text-anchor="middle" x="519.5" y="-26.5" font-family="Helvetica,sans-Serif" font-size="10.00">Camera::decimalToMAC</text>
</a>
</g>
</g>
<!-- Node6&#45;&gt;Node7 -->
<g id="edge7" class="edge">
<title>Node6&#45;&gt;Node7</title>
<path fill="none" stroke="midnightblue" d="M251.61,-45.07C302.59,-42 383.4,-37.14 442.75,-33.56"/>
<polygon fill="midnightblue" stroke="midnightblue" points="443.06,-37.05 452.83,-32.95 442.64,-30.06 443.06,-37.05"/>
</g>
<!-- Node8 -->
<g id="node8" class="node">
<title>Node8</title>
<g id="a_node8"><a xlink:href="classCamera.html#a05ed4e9639c78b82efec2e7b72a95c1a" target="_top" xlink:title=" ">
<polygon fill="white" stroke="black" points="305,-0.5 305,-19.5 417,-19.5 417,-0.5 305,-0.5"/>
<text text-anchor="middle" x="361" y="-7.5" font-family="Helvetica,sans-Serif" font-size="10.00">Camera::hexToMAC</text>
</a>
</g>
</g>
<!-- Node6&#45;&gt;Node8 -->
<g id="edge8" class="edge">
<title>Node6&#45;&gt;Node8</title>
<path fill="none" stroke="midnightblue" d="M242.62,-38.41C263.34,-33.4 288.89,-27.21 310.86,-21.89"/>
<polygon fill="midnightblue" stroke="midnightblue" points="311.77,-25.27 320.67,-19.52 310.12,-18.47 311.77,-25.27"/>
</g>
<!-- Node8&#45;&gt;Node7 -->
<g id="edge9" class="edge">
<title>Node8&#45;&gt;Node7</title>
<path fill="none" stroke="midnightblue" d="M417.18,-16.7C425.46,-17.7 434.13,-18.76 442.75,-19.8"/>
<polygon fill="midnightblue" stroke="midnightblue" points="442.48,-23.3 452.83,-21.03 443.33,-16.35 442.48,-23.3"/>
</g>
</g>
</svg>
