<?xml version="1.0" encoding="UTF-8" standalone="no"?>
<!DOCTYPE svg PUBLIC "-//W3C//DTD SVG 1.1//EN"
 "http://www.w3.org/Graphics/SVG/1.1/DTD/svg11.dtd">
<!-- Generated by graphviz version 2.43.0 (0)
 -->
<!-- Title: DeviceManager::getOpenCameraByID Pages: 1 -->
<svg width="701pt" height="66pt"
 viewBox="0.00 0.00 701.00 66.00" xmlns="http://www.w3.org/2000/svg" xmlns:xlink="http://www.w3.org/1999/xlink">
<g id="graph0" class="graph" transform="scale(1 1) rotate(0) translate(4 62)">
<title>DeviceManager::getOpenCameraByID</title>
<polygon fill="white" stroke="transparent" points="-4,4 -4,-62 697,-62 697,4 -4,4"/>
<!-- Node1 -->
<g id="node1" class="node">
<title>Node1</title>
<g id="a_node1"><a xlink:title=" ">
<polygon fill="#bfbfbf" stroke="black" points="491,-19.5 491,-38.5 693,-38.5 693,-19.5 491,-19.5"/>
<text text-anchor="middle" x="592" y="-26.5" font-family="Helvetica,sans-Serif" font-size="10.00">DeviceManager::getOpenCameraByID</text>
</a>
</g>
</g>
<!-- Node2 -->
<g id="node2" class="node">
<title>Node2</title>
<g id="a_node2"><a xlink:href="classDeviceManager.html#a3f93dff8d6545e06c2ac5d4b782bfd7d" target="_top" xlink:title=" ">
<polygon fill="white" stroke="black" points="278.5,-38.5 278.5,-57.5 441.5,-57.5 441.5,-38.5 278.5,-38.5"/>
<text text-anchor="middle" x="360" y="-45.5" font-family="Helvetica,sans-Serif" font-size="10.00">DeviceManager::closeCamera</text>
</a>
</g>
</g>
<!-- Node1&#45;&gt;Node2 -->
<g id="edge1" class="edge">
<title>Node1&#45;&gt;Node2</title>
<path fill="none" stroke="midnightblue" d="M480.72,-38.11C467.51,-39.2 454.22,-40.3 441.54,-41.35"/>
<polygon fill="midnightblue" stroke="midnightblue" points="481.11,-41.59 490.79,-37.28 480.53,-34.61 481.11,-41.59"/>
</g>
<!-- Node4 -->
<g id="node4" class="node">
<title>Node4</title>
<g id="a_node4"><a xlink:href="classDeviceManager.html#a48d26097a3bef429bc019be6cdadfdf1" target="_top" xlink:title=" ">
<polygon fill="white" stroke="black" points="265,-0.5 265,-19.5 455,-19.5 455,-0.5 265,-0.5"/>
<text text-anchor="middle" x="360" y="-7.5" font-family="Helvetica,sans-Serif" font-size="10.00">DeviceManager::getScheduledTime</text>
</a>
</g>
</g>
<!-- Node1&#45;&gt;Node4 -->
<g id="edge3" class="edge">
<title>Node1&#45;&gt;Node4</title>
<path fill="none" stroke="midnightblue" d="M480.74,-19.89C472.16,-19.18 463.54,-18.47 455.07,-17.77"/>
<polygon fill="midnightblue" stroke="midnightblue" points="480.53,-23.39 490.79,-20.72 481.11,-16.41 480.53,-23.39"/>
</g>
<!-- Node3 -->
<g id="node3" class="node">
<title>Node3</title>
<g id="a_node3"><a xlink:href="classDeviceManager.html#ad91a247c8acfd51c533be52313ce7ddd" target="_top" xlink:title=" ">
<polygon fill="white" stroke="black" points="22.5,-38.5 22.5,-57.5 206.5,-57.5 206.5,-38.5 22.5,-38.5"/>
<text text-anchor="middle" x="114.5" y="-45.5" font-family="Helvetica,sans-Serif" font-size="10.00">DeviceManager::~DeviceManager</text>
</a>
</g>
</g>
<!-- Node2&#45;&gt;Node3 -->
<g id="edge2" class="edge">
<title>Node2&#45;&gt;Node3</title>
<path fill="none" stroke="midnightblue" d="M268.17,-48C248.03,-48 226.68,-48 206.54,-48"/>
<polygon fill="midnightblue" stroke="midnightblue" points="268.26,-51.5 278.26,-48 268.26,-44.5 268.26,-51.5"/>
</g>
<!-- Node5 -->
<g id="node5" class="node">
<title>Node5</title>
<g id="a_node5"><a xlink:href="classDeviceManager.html#a0a4b5f6373bcfca4373e9533441442bf" target="_top" xlink:title=" ">
<polygon fill="white" stroke="black" points="0,-0.5 0,-19.5 229,-19.5 229,-0.5 0,-0.5"/>
<text text-anchor="middle" x="114.5" y="-7.5" font-family="Helvetica,sans-Serif" font-size="10.00">DeviceManager::scheduleActionCommands</text>
</a>
</g>
</g>
<!-- Node4&#45;&gt;Node5 -->
<g id="edge4" class="edge">
<title>Node4&#45;&gt;Node5</title>
<path fill="none" stroke="midnightblue" d="M254.68,-10C246.29,-10 237.78,-10 229.32,-10"/>
<polygon fill="midnightblue" stroke="midnightblue" points="254.86,-13.5 264.86,-10 254.86,-6.5 254.86,-13.5"/>
</g>
</g>
</svg>
