<?xml version="1.0" encoding="UTF-8" standalone="no"?>
<!DOCTYPE svg PUBLIC "-//W3C//DTD SVG 1.1//EN"
 "http://www.w3.org/Graphics/SVG/1.1/DTD/svg11.dtd">
<!-- Generated by graphviz version 2.43.0 (0)
 -->
<!-- Title: NetworkManager::getMinimumExposure Pages: 1 -->
<svg width="1292pt" height="28pt"
 viewBox="0.00 0.00 1292.00 28.00" xmlns="http://www.w3.org/2000/svg" xmlns:xlink="http://www.w3.org/1999/xlink">
<g id="graph0" class="graph" transform="scale(1 1) rotate(0) translate(4 24)">
<title>NetworkManager::getMinimumExposure</title>
<polygon fill="white" stroke="transparent" points="-4,4 -4,-24 1288,-24 1288,4 -4,4"/>
<!-- Node1 -->
<g id="node1" class="node">
<title>Node1</title>
<g id="a_node1"><a xlink:title=" ">
<polygon fill="#bfbfbf" stroke="black" points="1070,-0.5 1070,-19.5 1284,-19.5 1284,-0.5 1070,-0.5"/>
<text text-anchor="middle" x="1177" y="-7.5" font-family="Helvetica,sans-Serif" font-size="10.00">NetworkManager::getMinimumExposure</text>
</a>
</g>
</g>
<!-- Node2 -->
<g id="node2" class="node">
<title>Node2</title>
<g id="a_node2"><a xlink:href="classNetworkManager.html#a88d3b203ca5c2d28212c5da9f8cdde7d" target="_top" xlink:title=" ">
<polygon fill="white" stroke="black" points="831,-0.5 831,-19.5 1034,-19.5 1034,-0.5 831,-0.5"/>
<text text-anchor="middle" x="932.5" y="-7.5" font-family="Helvetica,sans-Serif" font-size="10.00">NetworkManager::setExposureAndFps</text>
</a>
</g>
</g>
<!-- Node1&#45;&gt;Node2 -->
<g id="edge1" class="edge">
<title>Node1&#45;&gt;Node2</title>
<path fill="none" stroke="midnightblue" d="M1059.95,-10C1051.38,-10 1042.77,-10 1034.3,-10"/>
<polygon fill="midnightblue" stroke="midnightblue" points="1059.99,-13.5 1069.99,-10 1059.99,-6.5 1059.99,-13.5"/>
</g>
<!-- Node3 -->
<g id="node3" class="node">
<title>Node3</title>
<g id="a_node3"><a xlink:href="classNetworkManager.html#af1c10e78fbe4fd4af3343c8b48652f05" target="_top" xlink:title=" ">
<polygon fill="white" stroke="black" points="534,-0.5 534,-19.5 795,-19.5 795,-0.5 534,-0.5"/>
<text text-anchor="middle" x="664.5" y="-7.5" font-family="Helvetica,sans-Serif" font-size="10.00">NetworkManager::configureBandwidth</text>
</a>
</g>
</g>
<!-- Node2&#45;&gt;Node3 -->
<g id="edge2" class="edge">
<title>Node2&#45;&gt;Node3</title>
<path fill="none" stroke="midnightblue" d="M820.78,-10C812.39,-10 803.89,-10 795.4,-10"/>
<polygon fill="midnightblue" stroke="midnightblue" points="820.94,-13.5 830.94,-10 820.94,-6.5 820.94,-13.5"/>
</g>
<!-- Node4 -->
<g id="node4" class="node">
<title>Node4</title>
<g id="a_node4"><a xlink:href="classNetworkManager.html#abf0d6140725e709b57318ab3b9c8ddc6" target="_top" xlink:title=" ">
<polygon fill="white" stroke="black" points="313,-0.5 313,-19.5 498,-19.5 498,-0.5 313,-0.5"/>
<text text-anchor="middle" x="405.5" y="-7.5" font-family="Helvetica,sans-Serif" font-size="10.00">NetworkManager::configurePtpSyncFreeRun</text>
</a>
</g>
</g>
<!-- Node3&#45;&gt;Node4 -->
<g id="edge3" class="edge">
<title>Node3&#45;&gt;Node4</title>
<path fill="none" stroke="midnightblue" d="M523.67,-10C515.01,-10 506.41,-10 498.04,-10"/>
<polygon fill="midnightblue" stroke="midnightblue" points="523.87,-13.5 533.87,-10 523.87,-6.5 523.87,-13.5"/>
</g>
<!-- Node5 -->
<g id="node5" class="node">
<title>Node5</title>
<g id="a_node5"><a xlink:href="classSystemManager.html#addb2328a323747f21afb826811f288ab" target="_top" xlink:title=" ">
<polygon fill="white" stroke="black" points="77,-0.5 77,-19.5 277,-19.5 277,-0.5 77,-0.5"/>
<text text-anchor="middle" x="177" y="-7.5" font-family="Helvetica,sans-Serif" font-size="10.00">SystemManager::syncFreeRunStream</text>
</a>
</g>
</g>
<!-- Node4&#45;&gt;Node5 -->
<g id="edge4" class="edge">
<title>Node4&#45;&gt;Node5</title>
<path fill="none" stroke="midnightblue" d="M302.53,-10C294.15,-10 285.69,-10 277.33,-10"/>
<polygon fill="midnightblue" stroke="midnightblue" points="302.7,-13.5 312.7,-10 302.7,-6.5 302.7,-13.5"/>
</g>
<!-- Node6 -->
<g id="node6" class="node">
<title>Node6</title>
<g id="a_node6"><a xlink:href="main_8cpp.html#a0ddf1224851353fc92bfbff6f499fa97" target="_top" xlink:title=" ">
<polygon fill="white" stroke="black" points="0,-0.5 0,-19.5 41,-19.5 41,-0.5 0,-0.5"/>
<text text-anchor="middle" x="20.5" y="-7.5" font-family="Helvetica,sans-Serif" font-size="10.00">main</text>
</a>
</g>
</g>
<!-- Node5&#45;&gt;Node6 -->
<g id="edge5" class="edge">
<title>Node5&#45;&gt;Node6</title>
<path fill="none" stroke="midnightblue" d="M66.61,-10C57.05,-10 48.28,-10 41.07,-10"/>
<polygon fill="midnightblue" stroke="midnightblue" points="66.84,-13.5 76.84,-10 66.84,-6.5 66.84,-13.5"/>
</g>
</g>
</svg>
