<?xml version="1.0" encoding="UTF-8" standalone="no"?>
<!DOCTYPE svg PUBLIC "-//W3C//DTD SVG 1.1//EN"
 "http://www.w3.org/Graphics/SVG/1.1/DTD/svg11.dtd">
<!-- Generated by graphviz version 2.43.0 (0)
 -->
<!-- Title: DeviceManager::scheduleActionCommands Pages: 1 -->
<svg width="701pt" height="66pt"
 viewBox="0.00 0.00 701.00 66.00" xmlns="http://www.w3.org/2000/svg" xmlns:xlink="http://www.w3.org/1999/xlink">
<g id="graph0" class="graph" transform="scale(1 1) rotate(0) translate(4 62)">
<title>DeviceManager::scheduleActionCommands</title>
<polygon fill="white" stroke="transparent" points="-4,4 -4,-62 697,-62 697,4 -4,4"/>
<!-- Node1 -->
<g id="node1" class="node">
<title>Node1</title>
<g id="a_node1"><a xlink:title=" ">
<polygon fill="#bfbfbf" stroke="black" points="0,-19.5 0,-38.5 229,-38.5 229,-19.5 0,-19.5"/>
<text text-anchor="middle" x="114.5" y="-26.5" font-family="Helvetica,sans-Serif" font-size="10.00">DeviceManager::scheduleActionCommands</text>
</a>
</g>
</g>
<!-- Node2 -->
<g id="node2" class="node">
<title>Node2</title>
<g id="a_node2"><a xlink:href="DeviceManager_8cpp.html#ae4a0fb4a19f9a3e0dec2c3fd87d2ebb1" target="_top" xlink:title=" ">
<polygon fill="white" stroke="black" points="300.5,-38.5 300.5,-57.5 419.5,-57.5 419.5,-38.5 300.5,-38.5"/>
<text text-anchor="middle" x="360" y="-45.5" font-family="Helvetica,sans-Serif" font-size="10.00">generateRandomKey</text>
</a>
</g>
</g>
<!-- Node1&#45;&gt;Node2 -->
<g id="edge1" class="edge">
<title>Node1&#45;&gt;Node2</title>
<path fill="none" stroke="midnightblue" d="M229.05,-37.86C249.97,-39.49 271.2,-41.15 290.28,-42.64"/>
<polygon fill="midnightblue" stroke="midnightblue" points="290.11,-46.13 300.35,-43.42 290.65,-39.16 290.11,-46.13"/>
</g>
<!-- Node3 -->
<g id="node3" class="node">
<title>Node3</title>
<g id="a_node3"><a xlink:href="classDeviceManager.html#a48d26097a3bef429bc019be6cdadfdf1" target="_top" xlink:title=" ">
<polygon fill="white" stroke="black" points="265,-0.5 265,-19.5 455,-19.5 455,-0.5 265,-0.5"/>
<text text-anchor="middle" x="360" y="-7.5" font-family="Helvetica,sans-Serif" font-size="10.00">DeviceManager::getScheduledTime</text>
</a>
</g>
</g>
<!-- Node1&#45;&gt;Node3 -->
<g id="edge2" class="edge">
<title>Node1&#45;&gt;Node3</title>
<path fill="none" stroke="midnightblue" d="M229.05,-20.14C237.7,-19.47 246.4,-18.79 254.98,-18.12"/>
<polygon fill="midnightblue" stroke="midnightblue" points="255.28,-21.6 264.98,-17.34 254.74,-14.62 255.28,-21.6"/>
</g>
<!-- Node4 -->
<g id="node4" class="node">
<title>Node4</title>
<g id="a_node4"><a xlink:href="classDeviceManager.html#a6e25f6e110c117449b53e10ca0c65192" target="_top" xlink:title=" ">
<polygon fill="white" stroke="black" points="491,-0.5 491,-19.5 693,-19.5 693,-0.5 491,-0.5"/>
<text text-anchor="middle" x="592" y="-7.5" font-family="Helvetica,sans-Serif" font-size="10.00">DeviceManager::getOpenCameraByID</text>
</a>
</g>
</g>
<!-- Node3&#45;&gt;Node4 -->
<g id="edge3" class="edge">
<title>Node3&#45;&gt;Node4</title>
<path fill="none" stroke="midnightblue" d="M455.21,-10C463.68,-10 472.31,-10 480.9,-10"/>
<polygon fill="midnightblue" stroke="midnightblue" points="480.96,-13.5 490.96,-10 480.96,-6.5 480.96,-13.5"/>
</g>
</g>
</svg>
