<?xml version="1.0" encoding="UTF-8" standalone="no"?>
<!DOCTYPE svg PUBLIC "-//W3C//DTD SVG 1.1//EN"
 "http://www.w3.org/Graphics/SVG/1.1/DTD/svg11.dtd">
<!-- Generated by graphviz version 2.43.0 (0)
 -->
<!-- Title: SystemManager::syncFreeRunStream Pages: 1 -->
<svg width="1269pt" height="332pt"
 viewBox="0.00 0.00 1269.00 332.00" xmlns="http://www.w3.org/2000/svg" xmlns:xlink="http://www.w3.org/1999/xlink">
<g id="graph0" class="graph" transform="scale(1 1) rotate(0) translate(4 328)">
<title>SystemManager::syncFreeRunStream</title>
<polygon fill="white" stroke="transparent" points="-4,4 -4,-328 1265,-328 1265,4 -4,4"/>
<!-- Node1 -->
<g id="node1" class="node">
<title>Node1</title>
<g id="a_node1"><a xlink:title=" ">
<polygon fill="#bfbfbf" stroke="black" points="0,-209.5 0,-228.5 200,-228.5 200,-209.5 0,-209.5"/>
<text text-anchor="middle" x="100" y="-216.5" font-family="Helvetica,sans-Serif" font-size="10.00">SystemManager::syncFreeRunStream</text>
</a>
</g>
</g>
<!-- Node2 -->
<g id="node2" class="node">
<title>Node2</title>
<g id="a_node2"><a xlink:href="classDeviceManager.html#a36a89dec4c09c02f7269093b346c37b6" target="_top" xlink:title=" ">
<polygon fill="white" stroke="black" points="260,-285.5 260,-304.5 433,-304.5 433,-285.5 260,-285.5"/>
<text text-anchor="middle" x="346.5" y="-292.5" font-family="Helvetica,sans-Serif" font-size="10.00">DeviceManager::createCameras</text>
</a>
</g>
</g>
<!-- Node1&#45;&gt;Node2 -->
<g id="edge1" class="edge">
<title>Node1&#45;&gt;Node2</title>
<path fill="none" stroke="midnightblue" d="M131.97,-228.63C175.97,-242.3 256.62,-267.37 305.22,-282.48"/>
<polygon fill="midnightblue" stroke="midnightblue" points="304.2,-285.83 314.79,-285.45 306.27,-279.14 304.2,-285.83"/>
</g>
<!-- Node5 -->
<g id="node5" class="node">
<title>Node5</title>
<g id="a_node5"><a xlink:href="classDeviceManager.html#aa5df5c2756fda96dc9438e1c85071699" target="_top" xlink:title=" ">
<polygon fill="white" stroke="black" points="254.5,-228.5 254.5,-247.5 438.5,-247.5 438.5,-228.5 254.5,-228.5"/>
<text text-anchor="middle" x="346.5" y="-235.5" font-family="Helvetica,sans-Serif" font-size="10.00">DeviceManager::getOpenCameras</text>
</a>
</g>
</g>
<!-- Node1&#45;&gt;Node5 -->
<g id="edge4" class="edge">
<title>Node1&#45;&gt;Node5</title>
<path fill="none" stroke="midnightblue" d="M200.1,-226.7C214.61,-227.83 229.59,-228.99 244.15,-230.12"/>
<polygon fill="midnightblue" stroke="midnightblue" points="243.92,-233.62 254.16,-230.9 244.46,-226.64 243.92,-233.62"/>
</g>
<!-- Node6 -->
<g id="node6" class="node">
<title>Node6</title>
<g id="a_node6"><a xlink:href="classNetworkManager.html#abf0d6140725e709b57318ab3b9c8ddc6" target="_top" xlink:title=" ">
<polygon fill="white" stroke="black" points="254,-190.5 254,-209.5 439,-209.5 439,-190.5 254,-190.5"/>
<text text-anchor="middle" x="346.5" y="-197.5" font-family="Helvetica,sans-Serif" font-size="10.00">NetworkManager::configurePtpSyncFreeRun</text>
</a>
</g>
</g>
<!-- Node1&#45;&gt;Node6 -->
<g id="edge5" class="edge">
<title>Node1&#45;&gt;Node6</title>
<path fill="none" stroke="midnightblue" d="M200.1,-211.3C214.37,-210.19 229.08,-209.05 243.41,-207.93"/>
<polygon fill="midnightblue" stroke="midnightblue" points="244.07,-211.39 253.77,-207.13 243.52,-204.41 244.07,-211.39"/>
</g>
<!-- Node20 -->
<g id="node20" class="node">
<title>Node20</title>
<g id="a_node20"><a xlink:href="classStreamManager.html#ac6965e57bedc21b34b532d49654c4ab1" target="_top" xlink:title=" ">
<polygon fill="white" stroke="black" points="236,-57.5 236,-76.5 457,-76.5 457,-57.5 236,-57.5"/>
<text text-anchor="middle" x="346.5" y="-64.5" font-family="Helvetica,sans-Serif" font-size="10.00">StreamManager::startPtpSyncFreeRun</text>
</a>
</g>
</g>
<!-- Node1&#45;&gt;Node20 -->
<g id="edge20" class="edge">
<title>Node1&#45;&gt;Node20</title>
<path fill="none" stroke="midnightblue" d="M116.29,-209.49C157.63,-183.79 271.81,-112.81 321.68,-81.81"/>
<polygon fill="midnightblue" stroke="midnightblue" points="323.57,-84.76 330.21,-76.5 319.87,-78.81 323.57,-84.76"/>
</g>
<!-- Node3 -->
<g id="node3" class="node">
<title>Node3</title>
<g id="a_node3"><a xlink:href="classDeviceManager.html#a5de621ae914e130ad5a5e977c02272f4" target="_top" xlink:title=" ">
<polygon fill="white" stroke="black" points="539.5,-304.5 539.5,-323.5 707.5,-323.5 707.5,-304.5 539.5,-304.5"/>
<text text-anchor="middle" x="623.5" y="-311.5" font-family="Helvetica,sans-Serif" font-size="10.00">DeviceManager::createCamera</text>
</a>
</g>
</g>
<!-- Node2&#45;&gt;Node3 -->
<g id="edge2" class="edge">
<title>Node2&#45;&gt;Node3</title>
<path fill="none" stroke="midnightblue" d="M433,-300.91C463.59,-303.02 498.21,-305.41 529.41,-307.57"/>
<polygon fill="midnightblue" stroke="midnightblue" points="529.19,-311.06 539.41,-308.26 529.67,-304.08 529.19,-311.06"/>
</g>
<!-- Node4 -->
<g id="node4" class="node">
<title>Node4</title>
<g id="a_node4"><a xlink:href="classDeviceManager.html#a6374a294f1d0d15f18ab35aea1fb6158" target="_top" xlink:title=" ">
<polygon fill="white" stroke="black" points="790,-304.5 790,-323.5 1011,-323.5 1011,-304.5 790,-304.5"/>
<text text-anchor="middle" x="900.5" y="-311.5" font-family="Helvetica,sans-Serif" font-size="10.00">DeviceManager::getAvailableCameraByID</text>
</a>
</g>
</g>
<!-- Node3&#45;&gt;Node4 -->
<g id="edge3" class="edge">
<title>Node3&#45;&gt;Node4</title>
<path fill="none" stroke="midnightblue" d="M707.76,-314C730.37,-314 755.32,-314 779.53,-314"/>
<polygon fill="midnightblue" stroke="midnightblue" points="779.85,-317.5 789.85,-314 779.85,-310.5 779.85,-317.5"/>
</g>
<!-- Node7 -->
<g id="node7" class="node">
<title>Node7</title>
<g id="a_node7"><a xlink:href="classNetworkManager.html#af1c10e78fbe4fd4af3343c8b48652f05" target="_top" xlink:title=" ">
<polygon fill="white" stroke="black" points="493,-266.5 493,-285.5 754,-285.5 754,-266.5 493,-266.5"/>
<text text-anchor="middle" x="623.5" y="-273.5" font-family="Helvetica,sans-Serif" font-size="10.00">NetworkManager::configureBandwidth</text>
</a>
</g>
</g>
<!-- Node6&#45;&gt;Node7 -->
<g id="edge6" class="edge">
<title>Node6&#45;&gt;Node7</title>
<path fill="none" stroke="midnightblue" d="M433.87,-209.52C441.93,-212.01 449.77,-215.13 457,-219 477.5,-229.99 472.35,-246.28 493,-257 497.37,-259.27 501.93,-261.29 506.61,-263.09"/>
<polygon fill="midnightblue" stroke="midnightblue" points="505.79,-266.51 516.38,-266.48 508.08,-259.9 505.79,-266.51"/>
</g>
<!-- Node13 -->
<g id="node13" class="node">
<title>Node13</title>
<g id="a_node13"><a xlink:href="classNetworkManager.html#a97139087ce2feb24bce02b5e26ef1cf5" target="_top" xlink:title=" ">
<polygon fill="white" stroke="black" points="546,-228.5 546,-247.5 701,-247.5 701,-228.5 546,-228.5"/>
<text text-anchor="middle" x="623.5" y="-235.5" font-family="Helvetica,sans-Serif" font-size="10.00">NetworkManager::enablePtp</text>
</a>
</g>
</g>
<!-- Node6&#45;&gt;Node13 -->
<g id="edge12" class="edge">
<title>Node6&#45;&gt;Node13</title>
<path fill="none" stroke="midnightblue" d="M416.54,-209.54C455.11,-214.87 503.34,-221.53 543.43,-227.07"/>
<polygon fill="midnightblue" stroke="midnightblue" points="543.05,-230.55 553.43,-228.46 544.01,-223.62 543.05,-230.55"/>
</g>
<!-- Node14 -->
<g id="node14" class="node">
<title>Node14</title>
<g id="a_node14"><a xlink:href="classNetworkManager.html#a580689530037e60c278f61c2d541e86c" target="_top" xlink:title=" ">
<polygon fill="white" stroke="black" points="528.5,-190.5 528.5,-209.5 718.5,-209.5 718.5,-190.5 528.5,-190.5"/>
<text text-anchor="middle" x="623.5" y="-197.5" font-family="Helvetica,sans-Serif" font-size="10.00">NetworkManager::monitorPtpOffset</text>
</a>
</g>
</g>
<!-- Node6&#45;&gt;Node14 -->
<g id="edge13" class="edge">
<title>Node6&#45;&gt;Node14</title>
<path fill="none" stroke="midnightblue" d="M439.07,-200C464.31,-200 491.89,-200 517.81,-200"/>
<polygon fill="midnightblue" stroke="midnightblue" points="518.04,-203.5 528.04,-200 518.04,-196.5 518.04,-203.5"/>
</g>
<!-- Node18 -->
<g id="node18" class="node">
<title>Node18</title>
<g id="a_node18"><a xlink:href="classNetworkManager.html#a5cff683bdb24c9f3359fc259e73cc036" target="_top" xlink:title=" ">
<polygon fill="white" stroke="black" points="528,-152.5 528,-171.5 719,-171.5 719,-152.5 528,-152.5"/>
<text text-anchor="middle" x="623.5" y="-159.5" font-family="Helvetica,sans-Serif" font-size="10.00">NetworkManager::monitorPtpStatus</text>
</a>
</g>
</g>
<!-- Node6&#45;&gt;Node18 -->
<g id="edge17" class="edge">
<title>Node6&#45;&gt;Node18</title>
<path fill="none" stroke="midnightblue" d="M416.54,-190.46C455.11,-185.13 503.34,-178.47 543.43,-172.93"/>
<polygon fill="midnightblue" stroke="midnightblue" points="544.01,-176.38 553.43,-171.54 543.05,-169.45 544.01,-176.38"/>
</g>
<!-- Node19 -->
<g id="node19" class="node">
<title>Node19</title>
<g id="a_node19"><a xlink:href="classNetworkManager.html#ae34ac9fc3697d706c4938c61f44ecd59" target="_top" xlink:title=" ">
<polygon fill="white" stroke="black" points="820.5,-114.5 820.5,-133.5 980.5,-133.5 980.5,-114.5 820.5,-114.5"/>
<text text-anchor="middle" x="900.5" y="-121.5" font-family="Helvetica,sans-Serif" font-size="10.00">NetworkManager::plotOffsets</text>
</a>
</g>
</g>
<!-- Node6&#45;&gt;Node19 -->
<g id="edge18" class="edge">
<title>Node6&#45;&gt;Node19</title>
<path fill="none" stroke="midnightblue" d="M366.18,-190.38C393.29,-176.96 445.51,-153.13 493,-143 600.29,-120.13 726.98,-118.01 810.06,-119.89"/>
<polygon fill="midnightblue" stroke="midnightblue" points="810.14,-123.39 820.22,-120.14 810.31,-116.39 810.14,-123.39"/>
</g>
<!-- Node8 -->
<g id="node8" class="node">
<title>Node8</title>
<g id="a_node8"><a xlink:href="classNetworkManager.html#acd8737d274da2f02b0e1635b4b9f63bb" target="_top" xlink:title=" ">
<polygon fill="white" stroke="black" points="806,-266.5 806,-285.5 995,-285.5 995,-266.5 806,-266.5"/>
<text text-anchor="middle" x="900.5" y="-273.5" font-family="Helvetica,sans-Serif" font-size="10.00">NetworkManager::calculateMaxFps</text>
</a>
</g>
</g>
<!-- Node7&#45;&gt;Node8 -->
<g id="edge7" class="edge">
<title>Node7&#45;&gt;Node8</title>
<path fill="none" stroke="midnightblue" d="M754.35,-276C768.2,-276 782.16,-276 795.65,-276"/>
<polygon fill="midnightblue" stroke="midnightblue" points="795.88,-279.5 805.88,-276 795.88,-272.5 795.88,-279.5"/>
</g>
<!-- Node10 -->
<g id="node10" class="node">
<title>Node10</title>
<g id="a_node10"><a xlink:href="classNetworkManager.html#a88d3b203ca5c2d28212c5da9f8cdde7d" target="_top" xlink:title=" ">
<polygon fill="white" stroke="black" points="799,-228.5 799,-247.5 1002,-247.5 1002,-228.5 799,-228.5"/>
<text text-anchor="middle" x="900.5" y="-235.5" font-family="Helvetica,sans-Serif" font-size="10.00">NetworkManager::setExposureAndFps</text>
</a>
</g>
</g>
<!-- Node7&#45;&gt;Node10 -->
<g id="edge9" class="edge">
<title>Node7&#45;&gt;Node10</title>
<path fill="none" stroke="midnightblue" d="M693.54,-266.46C732.11,-261.13 780.34,-254.47 820.43,-248.93"/>
<polygon fill="midnightblue" stroke="midnightblue" points="821.01,-252.38 830.43,-247.54 820.05,-245.45 821.01,-252.38"/>
</g>
<!-- Node9 -->
<g id="node9" class="node">
<title>Node9</title>
<g id="a_node9"><a xlink:href="GlobalSettings_8cpp.html#a4e4d4e3815c368773a4dfcfc9d19666c" target="_top" xlink:title=" ">
<polygon fill="white" stroke="black" points="1084,-266.5 1084,-285.5 1224,-285.5 1224,-266.5 1084,-266.5"/>
<text text-anchor="middle" x="1154" y="-273.5" font-family="Helvetica,sans-Serif" font-size="10.00">setGlobalFpsUpperBound</text>
</a>
</g>
</g>
<!-- Node8&#45;&gt;Node9 -->
<g id="edge8" class="edge">
<title>Node8&#45;&gt;Node9</title>
<path fill="none" stroke="midnightblue" d="M995.15,-276C1020.93,-276 1048.63,-276 1073.53,-276"/>
<polygon fill="midnightblue" stroke="midnightblue" points="1073.64,-279.5 1083.64,-276 1073.64,-272.5 1073.64,-279.5"/>
</g>
<!-- Node11 -->
<g id="node11" class="node">
<title>Node11</title>
<g id="a_node11"><a xlink:href="GlobalSettings_8cpp.html#ae20198dd587799aa9d5579c3597f7fb4" target="_top" xlink:title=" ">
<polygon fill="white" stroke="black" points="1083.5,-228.5 1083.5,-247.5 1224.5,-247.5 1224.5,-228.5 1083.5,-228.5"/>
<text text-anchor="middle" x="1154" y="-235.5" font-family="Helvetica,sans-Serif" font-size="10.00">getGlobalFpsUpperBound</text>
</a>
</g>
</g>
<!-- Node10&#45;&gt;Node11 -->
<g id="edge10" class="edge">
<title>Node10&#45;&gt;Node11</title>
<path fill="none" stroke="midnightblue" d="M1002.35,-238C1025.93,-238 1050.73,-238 1073.25,-238"/>
<polygon fill="midnightblue" stroke="midnightblue" points="1073.42,-241.5 1083.42,-238 1073.42,-234.5 1073.42,-241.5"/>
</g>
<!-- Node12 -->
<g id="node12" class="node">
<title>Node12</title>
<g id="a_node12"><a xlink:href="classNetworkManager.html#a2894fa4186d5341d1ceea4930cd1f448" target="_top" xlink:title=" ">
<polygon fill="white" stroke="black" points="1047,-190.5 1047,-209.5 1261,-209.5 1261,-190.5 1047,-190.5"/>
<text text-anchor="middle" x="1154" y="-197.5" font-family="Helvetica,sans-Serif" font-size="10.00">NetworkManager::getMinimumExposure</text>
</a>
</g>
</g>
<!-- Node10&#45;&gt;Node12 -->
<g id="edge11" class="edge">
<title>Node10&#45;&gt;Node12</title>
<path fill="none" stroke="midnightblue" d="M964.64,-228.46C999.62,-223.17 1043.28,-216.58 1079.75,-211.07"/>
<polygon fill="midnightblue" stroke="midnightblue" points="1080.47,-214.5 1089.83,-209.54 1079.42,-207.58 1080.47,-214.5"/>
</g>
<!-- Node15 -->
<g id="node15" class="node">
<title>Node15</title>
<g id="a_node15"><a xlink:href="classNetworkManager.html#ae856b2f8ac57cb540414667eccc6832a" target="_top" xlink:title=" ">
<polygon fill="white" stroke="black" points="792.5,-190.5 792.5,-209.5 1008.5,-209.5 1008.5,-190.5 792.5,-190.5"/>
<text text-anchor="middle" x="900.5" y="-197.5" font-family="Helvetica,sans-Serif" font-size="10.00">NetworkManager::logOffsetHistoryToCSV</text>
</a>
</g>
</g>
<!-- Node14&#45;&gt;Node15 -->
<g id="edge14" class="edge">
<title>Node14&#45;&gt;Node15</title>
<path fill="none" stroke="midnightblue" d="M718.75,-200C739.06,-200 760.78,-200 781.85,-200"/>
<polygon fill="midnightblue" stroke="midnightblue" points="782.14,-203.5 792.14,-200 782.14,-196.5 782.14,-203.5"/>
</g>
<!-- Node17 -->
<g id="node17" class="node">
<title>Node17</title>
<g id="a_node17"><a xlink:href="classNetworkManager.html#a8f23d31231702bcd91a3cf101a8394e6" target="_top" xlink:title=" ">
<polygon fill="white" stroke="black" points="812.5,-152.5 812.5,-171.5 988.5,-171.5 988.5,-152.5 812.5,-152.5"/>
<text text-anchor="middle" x="900.5" y="-159.5" font-family="Helvetica,sans-Serif" font-size="10.00">NetworkManager::printPtpConfig</text>
</a>
</g>
</g>
<!-- Node14&#45;&gt;Node17 -->
<g id="edge16" class="edge">
<title>Node14&#45;&gt;Node17</title>
<path fill="none" stroke="midnightblue" d="M693.54,-190.46C732.11,-185.13 780.34,-178.47 820.43,-172.93"/>
<polygon fill="midnightblue" stroke="midnightblue" points="821.01,-176.38 830.43,-171.54 820.05,-169.45 821.01,-176.38"/>
</g>
<!-- Node16 -->
<g id="node16" class="node">
<title>Node16</title>
<g id="a_node16"><a xlink:href="GlobalSettings_8hpp.html#a292086bff16224cc0653061c22440e60" target="_top" xlink:title=" ">
<polygon fill="white" stroke="black" points="1091.5,-133.5 1091.5,-152.5 1216.5,-152.5 1216.5,-133.5 1091.5,-133.5"/>
<text text-anchor="middle" x="1154" y="-140.5" font-family="Helvetica,sans-Serif" font-size="10.00">getSessionTimestamp</text>
</a>
</g>
</g>
<!-- Node15&#45;&gt;Node16 -->
<g id="edge15" class="edge">
<title>Node15&#45;&gt;Node16</title>
<path fill="none" stroke="midnightblue" d="M962.22,-190.46C978.15,-187.69 995.27,-184.46 1011,-181 1044.85,-173.55 1082.75,-163.31 1110.88,-155.33"/>
<polygon fill="midnightblue" stroke="midnightblue" points="1112.12,-158.62 1120.77,-152.51 1110.2,-151.89 1112.12,-158.62"/>
</g>
<!-- Node19&#45;&gt;Node16 -->
<g id="edge19" class="edge">
<title>Node19&#45;&gt;Node16</title>
<path fill="none" stroke="midnightblue" d="M980.73,-129.99C1012.95,-132.42 1049.92,-135.21 1081.32,-137.58"/>
<polygon fill="midnightblue" stroke="midnightblue" points="1081.07,-141.08 1091.31,-138.34 1081.6,-134.1 1081.07,-141.08"/>
</g>
<!-- Node21 -->
<g id="node21" class="node">
<title>Node21</title>
<g id="a_node21"><a xlink:href="classStreamManager.html#a9f70fad5bf4dd5108911c05af8f649e3" target="_top" xlink:title="Arrange frames into a composite grid. Supports up to 6 cameras.">
<polygon fill="white" stroke="black" points="531.5,-76.5 531.5,-95.5 715.5,-95.5 715.5,-76.5 531.5,-76.5"/>
<text text-anchor="middle" x="623.5" y="-83.5" font-family="Helvetica,sans-Serif" font-size="10.00">StreamManager::createComposite</text>
</a>
</g>
</g>
<!-- Node20&#45;&gt;Node21 -->
<g id="edge21" class="edge">
<title>Node20&#45;&gt;Node21</title>
<path fill="none" stroke="midnightblue" d="M457.37,-74.59C478.46,-76.05 500.45,-77.57 521.24,-79"/>
<polygon fill="midnightblue" stroke="midnightblue" points="521.13,-82.5 531.35,-79.7 521.61,-75.52 521.13,-82.5"/>
</g>
<!-- Node22 -->
<g id="node22" class="node">
<title>Node22</title>
<g id="a_node22"><a xlink:href="classStreamManager.html#a0257fcf9f99184dee55ffe95ab5a9c4c" target="_top" xlink:title=" ">
<polygon fill="white" stroke="black" points="524.5,-38.5 524.5,-57.5 722.5,-57.5 722.5,-38.5 524.5,-38.5"/>
<text text-anchor="middle" x="623.5" y="-45.5" font-family="Helvetica,sans-Serif" font-size="10.00">StreamManager::startFreeRunStream</text>
</a>
</g>
</g>
<!-- Node20&#45;&gt;Node22 -->
<g id="edge22" class="edge">
<title>Node20&#45;&gt;Node22</title>
<path fill="none" stroke="midnightblue" d="M457.37,-59.41C476.14,-58.11 495.63,-56.77 514.35,-55.47"/>
<polygon fill="midnightblue" stroke="midnightblue" points="514.63,-58.96 524.36,-54.78 514.14,-51.98 514.63,-58.96"/>
</g>
<!-- Node23 -->
<g id="node23" class="node">
<title>Node23</title>
<g id="a_node23"><a xlink:href="classStreamManager.html#abfb94b1e01cc9952b575a78995532e30" target="_top" xlink:title=" ">
<polygon fill="white" stroke="black" points="537.5,-0.5 537.5,-19.5 709.5,-19.5 709.5,-0.5 537.5,-0.5"/>
<text text-anchor="middle" x="623.5" y="-7.5" font-family="Helvetica,sans-Serif" font-size="10.00">StreamManager::stopStreaming</text>
</a>
</g>
</g>
<!-- Node20&#45;&gt;Node23 -->
<g id="edge23" class="edge">
<title>Node20&#45;&gt;Node23</title>
<path fill="none" stroke="midnightblue" d="M379.91,-57.44C409.24,-49.06 453.73,-36.98 493,-29 507.38,-26.08 522.75,-23.42 537.7,-21.08"/>
<polygon fill="midnightblue" stroke="midnightblue" points="538.6,-24.48 547.95,-19.51 537.54,-17.56 538.6,-24.48"/>
</g>
</g>
</svg>
