<?xml version="1.0" encoding="UTF-8" standalone="no"?>
<!DOCTYPE svg PUBLIC "-//W3C//DTD SVG 1.1//EN"
 "http://www.w3.org/Graphics/SVG/1.1/DTD/svg11.dtd">
<!-- Generated by graphviz version 2.43.0 (0)
 -->
<!-- Title: StreamManager::startPtpSyncFreeRun Pages: 1 -->
<svg width="463pt" height="104pt"
 viewBox="0.00 0.00 463.00 104.00" xmlns="http://www.w3.org/2000/svg" xmlns:xlink="http://www.w3.org/1999/xlink">
<g id="graph0" class="graph" transform="scale(1 1) rotate(0) translate(4 100)">
<title>StreamManager::startPtpSyncFreeRun</title>
<polygon fill="white" stroke="transparent" points="-4,4 -4,-100 459,-100 459,4 -4,4"/>
<!-- Node1 -->
<g id="node1" class="node">
<title>Node1</title>
<g id="a_node1"><a xlink:title=" ">
<polygon fill="#bfbfbf" stroke="black" points="0,-38.5 0,-57.5 221,-57.5 221,-38.5 0,-38.5"/>
<text text-anchor="middle" x="110.5" y="-45.5" font-family="Helvetica,sans-Serif" font-size="10.00">StreamManager::startPtpSyncFreeRun</text>
</a>
</g>
</g>
<!-- Node2 -->
<g id="node2" class="node">
<title>Node2</title>
<g id="a_node2"><a xlink:href="classStreamManager.html#a9f70fad5bf4dd5108911c05af8f649e3" target="_top" xlink:title="Arrange frames into a composite grid. Supports up to 6 cameras.">
<polygon fill="white" stroke="black" points="264,-76.5 264,-95.5 448,-95.5 448,-76.5 264,-76.5"/>
<text text-anchor="middle" x="356" y="-83.5" font-family="Helvetica,sans-Serif" font-size="10.00">StreamManager::createComposite</text>
</a>
</g>
</g>
<!-- Node1&#45;&gt;Node2 -->
<g id="edge1" class="edge">
<title>Node1&#45;&gt;Node2</title>
<path fill="none" stroke="midnightblue" d="M172.63,-57.54C206.35,-62.8 248.41,-69.37 283.63,-74.86"/>
<polygon fill="midnightblue" stroke="midnightblue" points="283.42,-78.37 293.84,-76.46 284.5,-71.46 283.42,-78.37"/>
</g>
<!-- Node3 -->
<g id="node3" class="node">
<title>Node3</title>
<g id="a_node3"><a xlink:href="classStreamManager.html#a0257fcf9f99184dee55ffe95ab5a9c4c" target="_top" xlink:title=" ">
<polygon fill="white" stroke="black" points="257,-38.5 257,-57.5 455,-57.5 455,-38.5 257,-38.5"/>
<text text-anchor="middle" x="356" y="-45.5" font-family="Helvetica,sans-Serif" font-size="10.00">StreamManager::startFreeRunStream</text>
</a>
</g>
</g>
<!-- Node1&#45;&gt;Node3 -->
<g id="edge2" class="edge">
<title>Node1&#45;&gt;Node3</title>
<path fill="none" stroke="midnightblue" d="M221.14,-48C229.58,-48 238.09,-48 246.52,-48"/>
<polygon fill="midnightblue" stroke="midnightblue" points="246.75,-51.5 256.75,-48 246.75,-44.5 246.75,-51.5"/>
</g>
<!-- Node4 -->
<g id="node4" class="node">
<title>Node4</title>
<g id="a_node4"><a xlink:href="classStreamManager.html#abfb94b1e01cc9952b575a78995532e30" target="_top" xlink:title=" ">
<polygon fill="white" stroke="black" points="270,-0.5 270,-19.5 442,-19.5 442,-0.5 270,-0.5"/>
<text text-anchor="middle" x="356" y="-7.5" font-family="Helvetica,sans-Serif" font-size="10.00">StreamManager::stopStreaming</text>
</a>
</g>
</g>
<!-- Node1&#45;&gt;Node4 -->
<g id="edge3" class="edge">
<title>Node1&#45;&gt;Node4</title>
<path fill="none" stroke="midnightblue" d="M172.63,-38.46C206.35,-33.2 248.41,-26.63 283.63,-21.14"/>
<polygon fill="midnightblue" stroke="midnightblue" points="284.5,-24.54 293.84,-19.54 283.42,-17.63 284.5,-24.54"/>
</g>
</g>
</svg>
