<?xml version="1.0" encoding="UTF-8" standalone="no"?>
<!DOCTYPE svg PUBLIC "-//W3C//DTD SVG 1.1//EN"
 "http://www.w3.org/Graphics/SVG/1.1/DTD/svg11.dtd">
<!-- Generated by graphviz version 2.43.0 (0)
 -->
<!-- Title: Camera::getMAC Pages: 1 -->
<svg width="424pt" height="47pt"
 viewBox="0.00 0.00 424.00 47.00" xmlns="http://www.w3.org/2000/svg" xmlns:xlink="http://www.w3.org/1999/xlink">
<g id="graph0" class="graph" transform="scale(1 1) rotate(0) translate(4 43)">
<title>Camera::getMAC</title>
<polygon fill="white" stroke="transparent" points="-4,4 -4,-43 420,-43 420,4 -4,4"/>
<!-- Node1 -->
<g id="node1" class="node">
<title>Node1</title>
<g id="a_node1"><a xlink:title=" ">
<polygon fill="#bfbfbf" stroke="black" points="0,-19.5 0,-38.5 99,-38.5 99,-19.5 0,-19.5"/>
<text text-anchor="middle" x="49.5" y="-26.5" font-family="Helvetica,sans-Serif" font-size="10.00">Camera::getMAC</text>
</a>
</g>
</g>
<!-- Node2 -->
<g id="node2" class="node">
<title>Node2</title>
<g id="a_node2"><a xlink:href="classCamera.html#a47b57e67b9197bbdf36b2d181645897d" target="_top" xlink:title=" ">
<polygon fill="white" stroke="black" points="283,-19.5 283,-38.5 416,-38.5 416,-19.5 283,-19.5"/>
<text text-anchor="middle" x="349.5" y="-26.5" font-family="Helvetica,sans-Serif" font-size="10.00">Camera::decimalToMAC</text>
</a>
</g>
</g>
<!-- Node1&#45;&gt;Node2 -->
<g id="edge1" class="edge">
<title>Node1&#45;&gt;Node2</title>
<path fill="none" stroke="midnightblue" d="M99.04,-29C146.07,-29 218.08,-29 272.66,-29"/>
<polygon fill="midnightblue" stroke="midnightblue" points="272.99,-32.5 282.99,-29 272.99,-25.5 272.99,-32.5"/>
</g>
<!-- Node3 -->
<g id="node3" class="node">
<title>Node3</title>
<g id="a_node3"><a xlink:href="classCamera.html#a05ed4e9639c78b82efec2e7b72a95c1a" target="_top" xlink:title=" ">
<polygon fill="white" stroke="black" points="135,-0.5 135,-19.5 247,-19.5 247,-0.5 135,-0.5"/>
<text text-anchor="middle" x="191" y="-7.5" font-family="Helvetica,sans-Serif" font-size="10.00">Camera::hexToMAC</text>
</a>
</g>
</g>
<!-- Node1&#45;&gt;Node3 -->
<g id="edge2" class="edge">
<title>Node1&#45;&gt;Node3</title>
<path fill="none" stroke="midnightblue" d="M99.29,-22.35C107.54,-21.23 116.21,-20.05 124.79,-18.88"/>
<polygon fill="midnightblue" stroke="midnightblue" points="125.36,-22.34 134.8,-17.52 124.42,-15.4 125.36,-22.34"/>
</g>
<!-- Node3&#45;&gt;Node2 -->
<g id="edge3" class="edge">
<title>Node3&#45;&gt;Node2</title>
<path fill="none" stroke="midnightblue" d="M247.18,-16.7C255.46,-17.7 264.13,-18.76 272.75,-19.8"/>
<polygon fill="midnightblue" stroke="midnightblue" points="272.48,-23.3 282.83,-21.03 273.33,-16.35 272.48,-23.3"/>
</g>
</g>
</svg>
