<?xml version="1.0" encoding="UTF-8" standalone="no"?>
<!DOCTYPE svg PUBLIC "-//W3C//DTD SVG 1.1//EN"
 "http://www.w3.org/Graphics/SVG/1.1/DTD/svg11.dtd">
<!-- Generated by graphviz version 2.43.0 (0)
 -->
<!-- Title: SystemManager::initializeSystem Pages: 1 -->
<svg width="732pt" height="127pt"
 viewBox="0.00 0.00 732.00 127.00" xmlns="http://www.w3.org/2000/svg" xmlns:xlink="http://www.w3.org/1999/xlink">
<g id="graph0" class="graph" transform="scale(1 1) rotate(0) translate(4 123)">
<title>SystemManager::initializeSystem</title>
<polygon fill="white" stroke="transparent" points="-4,4 -4,-123 728,-123 728,4 -4,4"/>
<!-- Node1 -->
<g id="node1" class="node">
<title>Node1</title>
<g id="a_node1"><a xlink:title=" ">
<polygon fill="#bfbfbf" stroke="black" points="0,-44.5 0,-74.5 144,-74.5 144,-44.5 0,-44.5"/>
<text text-anchor="start" x="8" y="-62.5" font-family="Helvetica,sans-Serif" font-size="10.00">SystemManager::initialize</text>
<text text-anchor="middle" x="72" y="-51.5" font-family="Helvetica,sans-Serif" font-size="10.00">System</text>
</a>
</g>
</g>
<!-- Node2 -->
<g id="node2" class="node">
<title>Node2</title>
<g id="a_node2"><a xlink:href="classDeviceManager.html#a8a18f2eeb06ca5683d69aed675dbffcb" target="_top" xlink:title=" ">
<polygon fill="white" stroke="black" points="180,-88.5 180,-118.5 340,-118.5 340,-88.5 180,-88.5"/>
<text text-anchor="start" x="188" y="-106.5" font-family="Helvetica,sans-Serif" font-size="10.00">DeviceManager::getAvailable</text>
<text text-anchor="middle" x="260" y="-95.5" font-family="Helvetica,sans-Serif" font-size="10.00">Cameras</text>
</a>
</g>
</g>
<!-- Node1&#45;&gt;Node2 -->
<g id="edge1" class="edge">
<title>Node1&#45;&gt;Node2</title>
<path fill="none" stroke="midnightblue" d="M136.49,-74.52C152.26,-78.25 169.3,-82.28 185.51,-86.12"/>
<polygon fill="midnightblue" stroke="midnightblue" points="184.94,-89.58 195.48,-88.47 186.55,-82.77 184.94,-89.58"/>
</g>
<!-- Node5 -->
<g id="node5" class="node">
<title>Node5</title>
<g id="a_node5"><a xlink:href="SystemManager_8cpp.html#aa025f45ed88b3ae4067ae664cf12f853" target="_top" xlink:title=" ">
<polygon fill="white" stroke="black" points="220,-50 220,-69 300,-69 300,-50 220,-50"/>
<text text-anchor="middle" x="260" y="-57" font-family="Helvetica,sans-Serif" font-size="10.00">handleSignal</text>
</a>
</g>
</g>
<!-- Node1&#45;&gt;Node5 -->
<g id="edge4" class="edge">
<title>Node1&#45;&gt;Node5</title>
<path fill="none" stroke="midnightblue" d="M144.11,-59.5C166.04,-59.5 189.68,-59.5 209.78,-59.5"/>
<polygon fill="midnightblue" stroke="midnightblue" points="209.94,-63 219.94,-59.5 209.94,-56 209.94,-63"/>
</g>
<!-- Node6 -->
<g id="node6" class="node">
<title>Node6</title>
<g id="a_node6"><a xlink:href="classDeviceManager.html#a8e9faffa5ae7cf3ce2e292219bb82c32" target="_top" xlink:title=" ">
<polygon fill="white" stroke="black" points="180.5,-0.5 180.5,-30.5 339.5,-30.5 339.5,-0.5 180.5,-0.5"/>
<text text-anchor="start" x="188.5" y="-18.5" font-family="Helvetica,sans-Serif" font-size="10.00">DeviceManager::listAvailable</text>
<text text-anchor="middle" x="260" y="-7.5" font-family="Helvetica,sans-Serif" font-size="10.00">CamerasByID</text>
</a>
</g>
</g>
<!-- Node1&#45;&gt;Node6 -->
<g id="edge5" class="edge">
<title>Node1&#45;&gt;Node6</title>
<path fill="none" stroke="midnightblue" d="M136.49,-44.48C152.26,-40.75 169.3,-36.72 185.51,-32.88"/>
<polygon fill="midnightblue" stroke="midnightblue" points="186.55,-36.23 195.48,-30.53 184.94,-29.42 186.55,-36.23"/>
</g>
<!-- Node3 -->
<g id="node3" class="node">
<title>Node3</title>
<g id="a_node3"><a xlink:href="classDeviceManager.html#ab0ab314042a5d622db73d67b3bbdedf4" target="_top" xlink:title=" ">
<polygon fill="white" stroke="black" points="376,-88.5 376,-118.5 528,-118.5 528,-88.5 376,-88.5"/>
<text text-anchor="start" x="384" y="-106.5" font-family="Helvetica,sans-Serif" font-size="10.00">DeviceManager::enumerate</text>
<text text-anchor="middle" x="452" y="-95.5" font-family="Helvetica,sans-Serif" font-size="10.00">DevicesFromSystems</text>
</a>
</g>
</g>
<!-- Node2&#45;&gt;Node3 -->
<g id="edge2" class="edge">
<title>Node2&#45;&gt;Node3</title>
<path fill="none" stroke="midnightblue" d="M340.2,-103.5C348.6,-103.5 357.17,-103.5 365.63,-103.5"/>
<polygon fill="midnightblue" stroke="midnightblue" points="365.88,-107 375.88,-103.5 365.88,-100 365.88,-107"/>
</g>
<!-- Node4 -->
<g id="node4" class="node">
<title>Node4</title>
<g id="a_node4"><a xlink:href="classDeviceManager.html#a6374a294f1d0d15f18ab35aea1fb6158" target="_top" xlink:title=" ">
<polygon fill="white" stroke="black" points="564,-88.5 564,-118.5 724,-118.5 724,-88.5 564,-88.5"/>
<text text-anchor="start" x="572" y="-106.5" font-family="Helvetica,sans-Serif" font-size="10.00">DeviceManager::getAvailable</text>
<text text-anchor="middle" x="644" y="-95.5" font-family="Helvetica,sans-Serif" font-size="10.00">CameraByID</text>
</a>
</g>
</g>
<!-- Node3&#45;&gt;Node4 -->
<g id="edge3" class="edge">
<title>Node3&#45;&gt;Node4</title>
<path fill="none" stroke="midnightblue" d="M528.09,-103.5C536.52,-103.5 545.16,-103.5 553.74,-103.5"/>
<polygon fill="midnightblue" stroke="midnightblue" points="553.77,-107 563.77,-103.5 553.77,-100 553.77,-107"/>
</g>
</g>
</svg>
