<?xml version="1.0" encoding="UTF-8" standalone="no"?>
<!DOCTYPE svg PUBLIC "-//W3C//DTD SVG 1.1//EN"
 "http://www.w3.org/Graphics/SVG/1.1/DTD/svg11.dtd">
<!-- Generated by graphviz version 2.43.0 (0)
 -->
<!-- Title: DeviceManager::getAvailableCameraByID Pages: 1 -->
<svg width="1075pt" height="142pt"
 viewBox="0.00 0.00 1075.00 142.00" xmlns="http://www.w3.org/2000/svg" xmlns:xlink="http://www.w3.org/1999/xlink">
<g id="graph0" class="graph" transform="scale(1 1) rotate(0) translate(4 138)">
<title>DeviceManager::getAvailableCameraByID</title>
<polygon fill="white" stroke="transparent" points="-4,4 -4,-138 1071,-138 1071,4 -4,4"/>
<!-- Node1 -->
<g id="node1" class="node">
<title>Node1</title>
<g id="a_node1"><a xlink:title=" ">
<polygon fill="#bfbfbf" stroke="black" points="846,-47.5 846,-66.5 1067,-66.5 1067,-47.5 846,-47.5"/>
<text text-anchor="middle" x="956.5" y="-54.5" font-family="Helvetica,sans-Serif" font-size="10.00">DeviceManager::getAvailableCameraByID</text>
</a>
</g>
</g>
<!-- Node2 -->
<g id="node2" class="node">
<title>Node2</title>
<g id="a_node2"><a xlink:href="classDeviceManager.html#a5de621ae914e130ad5a5e977c02272f4" target="_top" xlink:title=" ">
<polygon fill="white" stroke="black" points="597,-71.5 597,-90.5 765,-90.5 765,-71.5 597,-71.5"/>
<text text-anchor="middle" x="681" y="-78.5" font-family="Helvetica,sans-Serif" font-size="10.00">DeviceManager::createCamera</text>
</a>
</g>
</g>
<!-- Node1&#45;&gt;Node2 -->
<g id="edge1" class="edge">
<title>Node1&#45;&gt;Node2</title>
<path fill="none" stroke="midnightblue" d="M837.04,-67.4C812.77,-69.52 787.73,-71.72 765.03,-73.71"/>
<polygon fill="midnightblue" stroke="midnightblue" points="837.36,-70.88 847.01,-66.52 836.75,-63.91 837.36,-70.88"/>
</g>
<!-- Node8 -->
<g id="node8" class="node">
<title>Node8</title>
<g id="a_node8"><a xlink:href="classDeviceManager.html#ab0ab314042a5d622db73d67b3bbdedf4" target="_top" xlink:title=" ">
<polygon fill="white" stroke="black" points="552,-28.5 552,-47.5 810,-47.5 810,-28.5 552,-28.5"/>
<text text-anchor="middle" x="681" y="-35.5" font-family="Helvetica,sans-Serif" font-size="10.00">DeviceManager::enumerateDevicesFromSystems</text>
</a>
</g>
</g>
<!-- Node1&#45;&gt;Node8 -->
<g id="edge9" class="edge">
<title>Node1&#45;&gt;Node8</title>
<path fill="none" stroke="midnightblue" d="M835.59,-48.67C827.15,-48.08 818.63,-47.49 810.14,-46.9"/>
<polygon fill="midnightblue" stroke="midnightblue" points="835.61,-52.18 845.83,-49.38 836.1,-45.2 835.61,-52.18"/>
</g>
<!-- Node3 -->
<g id="node3" class="node">
<title>Node3</title>
<g id="a_node3"><a xlink:href="classDeviceManager.html#a36a89dec4c09c02f7269093b346c37b6" target="_top" xlink:title=" ">
<polygon fill="white" stroke="black" points="328,-73.5 328,-92.5 501,-92.5 501,-73.5 328,-73.5"/>
<text text-anchor="middle" x="414.5" y="-80.5" font-family="Helvetica,sans-Serif" font-size="10.00">DeviceManager::createCameras</text>
</a>
</g>
</g>
<!-- Node2&#45;&gt;Node3 -->
<g id="edge2" class="edge">
<title>Node2&#45;&gt;Node3</title>
<path fill="none" stroke="midnightblue" d="M586.55,-81.71C558.74,-81.92 528.43,-82.15 501.14,-82.35"/>
<polygon fill="midnightblue" stroke="midnightblue" points="586.7,-85.21 596.67,-81.63 586.65,-78.21 586.7,-85.21"/>
</g>
<!-- Node4 -->
<g id="node4" class="node">
<title>Node4</title>
<g id="a_node4"><a xlink:href="classSystemManager.html#a051494c0cf33bac6dbd8e4c0eb3ed9ae" target="_top" xlink:title=" ">
<polygon fill="white" stroke="black" points="99.5,-114.5 99.5,-133.5 254.5,-133.5 254.5,-114.5 99.5,-114.5"/>
<text text-anchor="middle" x="177" y="-121.5" font-family="Helvetica,sans-Serif" font-size="10.00">SystemManager::ptpDisable</text>
</a>
</g>
</g>
<!-- Node3&#45;&gt;Node4 -->
<g id="edge3" class="edge">
<title>Node3&#45;&gt;Node4</title>
<path fill="none" stroke="midnightblue" d="M348.85,-94.26C312.42,-100.6 267.41,-108.43 232.73,-114.47"/>
<polygon fill="midnightblue" stroke="midnightblue" points="349.63,-97.67 358.88,-92.51 348.43,-90.78 349.63,-97.67"/>
</g>
<!-- Node6 -->
<g id="node6" class="node">
<title>Node6</title>
<g id="a_node6"><a xlink:href="classSystemManager.html#af801ab01222b0c07d25a8fa780d423e4" target="_top" xlink:title=" ">
<polygon fill="white" stroke="black" points="101.5,-76.5 101.5,-95.5 252.5,-95.5 252.5,-76.5 101.5,-76.5"/>
<text text-anchor="middle" x="177" y="-83.5" font-family="Helvetica,sans-Serif" font-size="10.00">SystemManager::ptpEnable</text>
</a>
</g>
</g>
<!-- Node3&#45;&gt;Node6 -->
<g id="edge5" class="edge">
<title>Node3&#45;&gt;Node6</title>
<path fill="none" stroke="midnightblue" d="M317.62,-84.22C295.99,-84.5 273.34,-84.79 252.73,-85.05"/>
<polygon fill="midnightblue" stroke="midnightblue" points="317.86,-87.72 327.81,-84.09 317.77,-80.72 317.86,-87.72"/>
</g>
<!-- Node7 -->
<g id="node7" class="node">
<title>Node7</title>
<g id="a_node7"><a xlink:href="classSystemManager.html#addb2328a323747f21afb826811f288ab" target="_top" xlink:title=" ">
<polygon fill="white" stroke="black" points="77,-38.5 77,-57.5 277,-57.5 277,-38.5 77,-38.5"/>
<text text-anchor="middle" x="177" y="-45.5" font-family="Helvetica,sans-Serif" font-size="10.00">SystemManager::syncFreeRunStream</text>
</a>
</g>
</g>
<!-- Node3&#45;&gt;Node7 -->
<g id="edge7" class="edge">
<title>Node3&#45;&gt;Node7</title>
<path fill="none" stroke="midnightblue" d="M339.49,-72C308.21,-67.35 272.14,-61.99 242.03,-57.52"/>
<polygon fill="midnightblue" stroke="midnightblue" points="339.05,-75.47 349.46,-73.48 340.08,-68.55 339.05,-75.47"/>
</g>
<!-- Node5 -->
<g id="node5" class="node">
<title>Node5</title>
<g id="a_node5"><a xlink:href="main_8cpp.html#a0ddf1224851353fc92bfbff6f499fa97" target="_top" xlink:title=" ">
<polygon fill="white" stroke="black" points="0,-76.5 0,-95.5 41,-95.5 41,-76.5 0,-76.5"/>
<text text-anchor="middle" x="20.5" y="-83.5" font-family="Helvetica,sans-Serif" font-size="10.00">main</text>
</a>
</g>
</g>
<!-- Node4&#45;&gt;Node5 -->
<g id="edge4" class="edge">
<title>Node4&#45;&gt;Node5</title>
<path fill="none" stroke="midnightblue" d="M109.07,-112.48C98.29,-110.24 87.3,-107.74 77,-105 64.89,-101.78 51.61,-97.27 41.07,-93.45"/>
<polygon fill="midnightblue" stroke="midnightblue" points="108.39,-115.91 118.89,-114.45 109.77,-109.05 108.39,-115.91"/>
</g>
<!-- Node6&#45;&gt;Node5 -->
<g id="edge6" class="edge">
<title>Node6&#45;&gt;Node5</title>
<path fill="none" stroke="midnightblue" d="M91.31,-86C72.54,-86 54.36,-86 41.26,-86"/>
<polygon fill="midnightblue" stroke="midnightblue" points="91.47,-89.5 101.47,-86 91.47,-82.5 91.47,-89.5"/>
</g>
<!-- Node7&#45;&gt;Node5 -->
<g id="edge8" class="edge">
<title>Node7&#45;&gt;Node5</title>
<path fill="none" stroke="midnightblue" d="M109.07,-59.52C98.29,-61.76 87.3,-64.26 77,-67 64.89,-70.22 51.61,-74.73 41.07,-78.55"/>
<polygon fill="midnightblue" stroke="midnightblue" points="109.77,-62.95 118.89,-57.55 108.39,-56.09 109.77,-62.95"/>
</g>
<!-- Node9 -->
<g id="node9" class="node">
<title>Node9</title>
<g id="a_node9"><a xlink:href="classDeviceManager.html#a8a18f2eeb06ca5683d69aed675dbffcb" target="_top" xlink:title=" ">
<polygon fill="white" stroke="black" points="313,-19.5 313,-38.5 516,-38.5 516,-19.5 313,-19.5"/>
<text text-anchor="middle" x="414.5" y="-26.5" font-family="Helvetica,sans-Serif" font-size="10.00">DeviceManager::getAvailableCameras</text>
</a>
</g>
</g>
<!-- Node8&#45;&gt;Node9 -->
<g id="edge10" class="edge">
<title>Node8&#45;&gt;Node9</title>
<path fill="none" stroke="midnightblue" d="M541.63,-33.29C533.12,-33 524.64,-32.71 516.34,-32.43"/>
<polygon fill="midnightblue" stroke="midnightblue" points="541.51,-36.79 551.62,-33.63 541.75,-29.79 541.51,-36.79"/>
</g>
<!-- Node10 -->
<g id="node10" class="node">
<title>Node10</title>
<g id="a_node10"><a xlink:href="classSystemManager.html#ad083133600bc7f1b8f3946a5b6cb0e1a" target="_top" xlink:title=" ">
<polygon fill="white" stroke="black" points="77.5,-0.5 77.5,-19.5 276.5,-19.5 276.5,-0.5 77.5,-0.5"/>
<text text-anchor="middle" x="177" y="-7.5" font-family="Helvetica,sans-Serif" font-size="10.00">SystemManager::enumerateCameras</text>
</a>
</g>
</g>
<!-- Node9&#45;&gt;Node10 -->
<g id="edge11" class="edge">
<title>Node9&#45;&gt;Node10</title>
<path fill="none" stroke="midnightblue" d="M302.77,-20.07C294.08,-19.36 285.33,-18.66 276.72,-17.96"/>
<polygon fill="midnightblue" stroke="midnightblue" points="302.69,-23.57 312.94,-20.89 303.26,-16.59 302.69,-23.57"/>
</g>
</g>
</svg>
