<?xml version="1.0" encoding="UTF-8" standalone="no"?>
<!DOCTYPE svg PUBLIC "-//W3C//DTD SVG 1.1//EN"
 "http://www.w3.org/Graphics/SVG/1.1/DTD/svg11.dtd">
<!-- Generated by graphviz version 2.43.0 (0)
 -->
<!-- Title: SystemManager::enumerateCameras Pages: 1 -->
<svg width="1020pt" height="66pt"
 viewBox="0.00 0.00 1020.00 66.00" xmlns="http://www.w3.org/2000/svg" xmlns:xlink="http://www.w3.org/1999/xlink">
<g id="graph0" class="graph" transform="scale(1 1) rotate(0) translate(4 62)">
<title>SystemManager::enumerateCameras</title>
<polygon fill="white" stroke="transparent" points="-4,4 -4,-62 1016,-62 1016,4 -4,4"/>
<!-- Node1 -->
<g id="node1" class="node">
<title>Node1</title>
<g id="a_node1"><a xlink:title=" ">
<polygon fill="#bfbfbf" stroke="black" points="0,-19.5 0,-38.5 199,-38.5 199,-19.5 0,-19.5"/>
<text text-anchor="middle" x="99.5" y="-26.5" font-family="Helvetica,sans-Serif" font-size="10.00">SystemManager::enumerateCameras</text>
</a>
</g>
</g>
<!-- Node2 -->
<g id="node2" class="node">
<title>Node2</title>
<g id="a_node2"><a xlink:href="classDeviceManager.html#a8a18f2eeb06ca5683d69aed675dbffcb" target="_top" xlink:title=" ">
<polygon fill="white" stroke="black" points="246.5,-38.5 246.5,-57.5 449.5,-57.5 449.5,-38.5 246.5,-38.5"/>
<text text-anchor="middle" x="348" y="-45.5" font-family="Helvetica,sans-Serif" font-size="10.00">DeviceManager::getAvailableCameras</text>
</a>
</g>
</g>
<!-- Node1&#45;&gt;Node2 -->
<g id="edge1" class="edge">
<title>Node1&#45;&gt;Node2</title>
<path fill="none" stroke="midnightblue" d="M199.34,-36.62C211.37,-37.55 223.73,-38.5 235.93,-39.44"/>
<polygon fill="midnightblue" stroke="midnightblue" points="235.89,-42.95 246.13,-40.22 236.42,-35.97 235.89,-42.95"/>
</g>
<!-- Node5 -->
<g id="node5" class="node">
<title>Node5</title>
<g id="a_node5"><a xlink:href="classDeviceManager.html#a8e9faffa5ae7cf3ce2e292219bb82c32" target="_top" xlink:title=" ">
<polygon fill="white" stroke="black" points="235,-0.5 235,-19.5 461,-19.5 461,-0.5 235,-0.5"/>
<text text-anchor="middle" x="348" y="-7.5" font-family="Helvetica,sans-Serif" font-size="10.00">DeviceManager::listAvailableCamerasByID</text>
</a>
</g>
</g>
<!-- Node1&#45;&gt;Node5 -->
<g id="edge4" class="edge">
<title>Node1&#45;&gt;Node5</title>
<path fill="none" stroke="midnightblue" d="M199.34,-21.38C207.72,-20.74 216.25,-20.08 224.77,-19.42"/>
<polygon fill="midnightblue" stroke="midnightblue" points="225.07,-22.91 234.77,-18.65 224.53,-15.93 225.07,-22.91"/>
</g>
<!-- Node3 -->
<g id="node3" class="node">
<title>Node3</title>
<g id="a_node3"><a xlink:href="classDeviceManager.html#ab0ab314042a5d622db73d67b3bbdedf4" target="_top" xlink:title=" ">
<polygon fill="white" stroke="black" points="497,-38.5 497,-57.5 755,-57.5 755,-38.5 497,-38.5"/>
<text text-anchor="middle" x="626" y="-45.5" font-family="Helvetica,sans-Serif" font-size="10.00">DeviceManager::enumerateDevicesFromSystems</text>
</a>
</g>
</g>
<!-- Node2&#45;&gt;Node3 -->
<g id="edge2" class="edge">
<title>Node2&#45;&gt;Node3</title>
<path fill="none" stroke="midnightblue" d="M449.81,-48C461.72,-48 474.03,-48 486.35,-48"/>
<polygon fill="midnightblue" stroke="midnightblue" points="486.69,-51.5 496.69,-48 486.69,-44.5 486.69,-51.5"/>
</g>
<!-- Node4 -->
<g id="node4" class="node">
<title>Node4</title>
<g id="a_node4"><a xlink:href="classDeviceManager.html#a6374a294f1d0d15f18ab35aea1fb6158" target="_top" xlink:title=" ">
<polygon fill="white" stroke="black" points="791,-38.5 791,-57.5 1012,-57.5 1012,-38.5 791,-38.5"/>
<text text-anchor="middle" x="901.5" y="-45.5" font-family="Helvetica,sans-Serif" font-size="10.00">DeviceManager::getAvailableCameraByID</text>
</a>
</g>
</g>
<!-- Node3&#45;&gt;Node4 -->
<g id="edge3" class="edge">
<title>Node3&#45;&gt;Node4</title>
<path fill="none" stroke="midnightblue" d="M755.34,-48C763.73,-48 772.16,-48 780.5,-48"/>
<polygon fill="midnightblue" stroke="midnightblue" points="780.63,-51.5 790.63,-48 780.63,-44.5 780.63,-51.5"/>
</g>
</g>
</svg>
