<?xml version="1.0" encoding="UTF-8" standalone="no"?>
<!DOCTYPE svg PUBLIC "-//W3C//DTD SVG 1.1//EN"
 "http://www.w3.org/Graphics/SVG/1.1/DTD/svg11.dtd">
<!-- Generated by graphviz version 2.43.0 (0)
 -->
<!-- Title: NetworkManager::configurePtpSyncFreeRun Pages: 1 -->
<svg width="992pt" height="199pt"
 viewBox="0.00 0.00 992.00 199.00" xmlns="http://www.w3.org/2000/svg" xmlns:xlink="http://www.w3.org/1999/xlink">
<g id="graph0" class="graph" transform="scale(1 1) rotate(0) translate(4 195)">
<title>NetworkManager::configurePtpSyncFreeRun</title>
<polygon fill="white" stroke="transparent" points="-4,4 -4,-195 988,-195 988,4 -4,4"/>
<!-- Node1 -->
<g id="node1" class="node">
<title>Node1</title>
<g id="a_node1"><a xlink:title=" ">
<polygon fill="#bfbfbf" stroke="black" points="0,-76.5 0,-95.5 185,-95.5 185,-76.5 0,-76.5"/>
<text text-anchor="middle" x="92.5" y="-83.5" font-family="Helvetica,sans-Serif" font-size="10.00">NetworkManager::configurePtpSyncFreeRun</text>
</a>
</g>
</g>
<!-- Node2 -->
<g id="node2" class="node">
<title>Node2</title>
<g id="a_node2"><a xlink:href="classNetworkManager.html#af1c10e78fbe4fd4af3343c8b48652f05" target="_top" xlink:title=" ">
<polygon fill="white" stroke="black" points="221,-152.5 221,-171.5 482,-171.5 482,-152.5 221,-152.5"/>
<text text-anchor="middle" x="351.5" y="-159.5" font-family="Helvetica,sans-Serif" font-size="10.00">NetworkManager::configureBandwidth</text>
</a>
</g>
</g>
<!-- Node1&#45;&gt;Node2 -->
<g id="edge1" class="edge">
<title>Node1&#45;&gt;Node2</title>
<path fill="none" stroke="midnightblue" d="M110.66,-95.51C134.62,-108.35 179.79,-131.01 221,-143 231.19,-145.96 241.97,-148.48 252.79,-150.61"/>
<polygon fill="midnightblue" stroke="midnightblue" points="252.25,-154.07 262.72,-152.46 253.53,-147.19 252.25,-154.07"/>
</g>
<!-- Node8 -->
<g id="node8" class="node">
<title>Node8</title>
<g id="a_node8"><a xlink:href="classNetworkManager.html#a97139087ce2feb24bce02b5e26ef1cf5" target="_top" xlink:title=" ">
<polygon fill="white" stroke="black" points="274,-114.5 274,-133.5 429,-133.5 429,-114.5 274,-114.5"/>
<text text-anchor="middle" x="351.5" y="-121.5" font-family="Helvetica,sans-Serif" font-size="10.00">NetworkManager::enablePtp</text>
</a>
</g>
</g>
<!-- Node1&#45;&gt;Node8 -->
<g id="edge7" class="edge">
<title>Node1&#45;&gt;Node8</title>
<path fill="none" stroke="midnightblue" d="M157.38,-95.55C177.71,-98.58 200.3,-101.94 221,-105 238.48,-107.58 257.28,-110.35 274.99,-112.95"/>
<polygon fill="midnightblue" stroke="midnightblue" points="274.88,-116.47 285.28,-114.46 275.89,-109.55 274.88,-116.47"/>
</g>
<!-- Node9 -->
<g id="node9" class="node">
<title>Node9</title>
<g id="a_node9"><a xlink:href="classNetworkManager.html#a580689530037e60c278f61c2d541e86c" target="_top" xlink:title=" ">
<polygon fill="white" stroke="black" points="256.5,-76.5 256.5,-95.5 446.5,-95.5 446.5,-76.5 256.5,-76.5"/>
<text text-anchor="middle" x="351.5" y="-83.5" font-family="Helvetica,sans-Serif" font-size="10.00">NetworkManager::monitorPtpOffset</text>
</a>
</g>
</g>
<!-- Node1&#45;&gt;Node9 -->
<g id="edge8" class="edge">
<title>Node1&#45;&gt;Node9</title>
<path fill="none" stroke="midnightblue" d="M185.19,-86C204.93,-86 225.92,-86 246.09,-86"/>
<polygon fill="midnightblue" stroke="midnightblue" points="246.24,-89.5 256.24,-86 246.24,-82.5 246.24,-89.5"/>
</g>
<!-- Node13 -->
<g id="node13" class="node">
<title>Node13</title>
<g id="a_node13"><a xlink:href="classNetworkManager.html#a5cff683bdb24c9f3359fc259e73cc036" target="_top" xlink:title=" ">
<polygon fill="white" stroke="black" points="256,-38.5 256,-57.5 447,-57.5 447,-38.5 256,-38.5"/>
<text text-anchor="middle" x="351.5" y="-45.5" font-family="Helvetica,sans-Serif" font-size="10.00">NetworkManager::monitorPtpStatus</text>
</a>
</g>
</g>
<!-- Node1&#45;&gt;Node13 -->
<g id="edge12" class="edge">
<title>Node1&#45;&gt;Node13</title>
<path fill="none" stroke="midnightblue" d="M157.38,-76.45C177.71,-73.42 200.3,-70.06 221,-67 238.48,-64.42 257.28,-61.65 274.99,-59.05"/>
<polygon fill="midnightblue" stroke="midnightblue" points="275.89,-62.45 285.28,-57.54 274.88,-55.53 275.89,-62.45"/>
</g>
<!-- Node14 -->
<g id="node14" class="node">
<title>Node14</title>
<g id="a_node14"><a xlink:href="classNetworkManager.html#ae34ac9fc3697d706c4938c61f44ecd59" target="_top" xlink:title=" ">
<polygon fill="white" stroke="black" points="546,-0.5 546,-19.5 706,-19.5 706,-0.5 546,-0.5"/>
<text text-anchor="middle" x="626" y="-7.5" font-family="Helvetica,sans-Serif" font-size="10.00">NetworkManager::plotOffsets</text>
</a>
</g>
</g>
<!-- Node1&#45;&gt;Node14 -->
<g id="edge13" class="edge">
<title>Node1&#45;&gt;Node14</title>
<path fill="none" stroke="midnightblue" d="M109.71,-76.36C133.27,-62.91 178.78,-39.05 221,-29 327.06,-3.75 453.09,-2.14 535.84,-4.78"/>
<polygon fill="midnightblue" stroke="midnightblue" points="535.85,-8.29 545.97,-5.13 536.1,-1.29 535.85,-8.29"/>
</g>
<!-- Node3 -->
<g id="node3" class="node">
<title>Node3</title>
<g id="a_node3"><a xlink:href="classNetworkManager.html#acd8737d274da2f02b0e1635b4b9f63bb" target="_top" xlink:title=" ">
<polygon fill="white" stroke="black" points="531.5,-171.5 531.5,-190.5 720.5,-190.5 720.5,-171.5 531.5,-171.5"/>
<text text-anchor="middle" x="626" y="-178.5" font-family="Helvetica,sans-Serif" font-size="10.00">NetworkManager::calculateMaxFps</text>
</a>
</g>
</g>
<!-- Node2&#45;&gt;Node3 -->
<g id="edge2" class="edge">
<title>Node2&#45;&gt;Node3</title>
<path fill="none" stroke="midnightblue" d="M482.37,-171.05C495.35,-171.96 508.4,-172.87 521.06,-173.75"/>
<polygon fill="midnightblue" stroke="midnightblue" points="520.91,-177.25 531.13,-174.45 521.39,-170.27 520.91,-177.25"/>
</g>
<!-- Node5 -->
<g id="node5" class="node">
<title>Node5</title>
<g id="a_node5"><a xlink:href="classNetworkManager.html#a88d3b203ca5c2d28212c5da9f8cdde7d" target="_top" xlink:title=" ">
<polygon fill="white" stroke="black" points="524.5,-133.5 524.5,-152.5 727.5,-152.5 727.5,-133.5 524.5,-133.5"/>
<text text-anchor="middle" x="626" y="-140.5" font-family="Helvetica,sans-Serif" font-size="10.00">NetworkManager::setExposureAndFps</text>
</a>
</g>
</g>
<!-- Node2&#45;&gt;Node5 -->
<g id="edge4" class="edge">
<title>Node2&#45;&gt;Node5</title>
<path fill="none" stroke="midnightblue" d="M482.37,-152.95C493.07,-152.2 503.82,-151.45 514.36,-150.71"/>
<polygon fill="midnightblue" stroke="midnightblue" points="514.66,-154.2 524.39,-150.02 514.17,-147.22 514.66,-154.2"/>
</g>
<!-- Node4 -->
<g id="node4" class="node">
<title>Node4</title>
<g id="a_node4"><a xlink:href="GlobalSettings_8cpp.html#a4e4d4e3815c368773a4dfcfc9d19666c" target="_top" xlink:title=" ">
<polygon fill="white" stroke="black" points="807,-171.5 807,-190.5 947,-190.5 947,-171.5 807,-171.5"/>
<text text-anchor="middle" x="877" y="-178.5" font-family="Helvetica,sans-Serif" font-size="10.00">setGlobalFpsUpperBound</text>
</a>
</g>
</g>
<!-- Node3&#45;&gt;Node4 -->
<g id="edge3" class="edge">
<title>Node3&#45;&gt;Node4</title>
<path fill="none" stroke="midnightblue" d="M720.78,-181C745.75,-181 772.48,-181 796.6,-181"/>
<polygon fill="midnightblue" stroke="midnightblue" points="796.76,-184.5 806.76,-181 796.76,-177.5 796.76,-184.5"/>
</g>
<!-- Node6 -->
<g id="node6" class="node">
<title>Node6</title>
<g id="a_node6"><a xlink:href="GlobalSettings_8cpp.html#ae20198dd587799aa9d5579c3597f7fb4" target="_top" xlink:title=" ">
<polygon fill="white" stroke="black" points="806.5,-133.5 806.5,-152.5 947.5,-152.5 947.5,-133.5 806.5,-133.5"/>
<text text-anchor="middle" x="877" y="-140.5" font-family="Helvetica,sans-Serif" font-size="10.00">getGlobalFpsUpperBound</text>
</a>
</g>
</g>
<!-- Node5&#45;&gt;Node6 -->
<g id="edge5" class="edge">
<title>Node5&#45;&gt;Node6</title>
<path fill="none" stroke="midnightblue" d="M727.56,-143C750.4,-143 774.35,-143 796.19,-143"/>
<polygon fill="midnightblue" stroke="midnightblue" points="796.4,-146.5 806.4,-143 796.4,-139.5 796.4,-146.5"/>
</g>
<!-- Node7 -->
<g id="node7" class="node">
<title>Node7</title>
<g id="a_node7"><a xlink:href="classNetworkManager.html#a2894fa4186d5341d1ceea4930cd1f448" target="_top" xlink:title=" ">
<polygon fill="white" stroke="black" points="770,-95.5 770,-114.5 984,-114.5 984,-95.5 770,-95.5"/>
<text text-anchor="middle" x="877" y="-102.5" font-family="Helvetica,sans-Serif" font-size="10.00">NetworkManager::getMinimumExposure</text>
</a>
</g>
</g>
<!-- Node5&#45;&gt;Node7 -->
<g id="edge6" class="edge">
<title>Node5&#45;&gt;Node7</title>
<path fill="none" stroke="midnightblue" d="M689.51,-133.46C724.14,-128.17 767.37,-121.58 803.48,-116.07"/>
<polygon fill="midnightblue" stroke="midnightblue" points="804.1,-119.51 813.46,-114.54 803.05,-112.59 804.1,-119.51"/>
</g>
<!-- Node10 -->
<g id="node10" class="node">
<title>Node10</title>
<g id="a_node10"><a xlink:href="classNetworkManager.html#ae856b2f8ac57cb540414667eccc6832a" target="_top" xlink:title=" ">
<polygon fill="white" stroke="black" points="518,-76.5 518,-95.5 734,-95.5 734,-76.5 518,-76.5"/>
<text text-anchor="middle" x="626" y="-83.5" font-family="Helvetica,sans-Serif" font-size="10.00">NetworkManager::logOffsetHistoryToCSV</text>
</a>
</g>
</g>
<!-- Node9&#45;&gt;Node10 -->
<g id="edge9" class="edge">
<title>Node9&#45;&gt;Node10</title>
<path fill="none" stroke="midnightblue" d="M446.66,-86C466.27,-86 487.17,-86 507.5,-86"/>
<polygon fill="midnightblue" stroke="midnightblue" points="507.75,-89.5 517.75,-86 507.75,-82.5 507.75,-89.5"/>
</g>
<!-- Node12 -->
<g id="node12" class="node">
<title>Node12</title>
<g id="a_node12"><a xlink:href="classNetworkManager.html#a8f23d31231702bcd91a3cf101a8394e6" target="_top" xlink:title=" ">
<polygon fill="white" stroke="black" points="538,-38.5 538,-57.5 714,-57.5 714,-38.5 538,-38.5"/>
<text text-anchor="middle" x="626" y="-45.5" font-family="Helvetica,sans-Serif" font-size="10.00">NetworkManager::printPtpConfig</text>
</a>
</g>
</g>
<!-- Node9&#45;&gt;Node12 -->
<g id="edge11" class="edge">
<title>Node9&#45;&gt;Node12</title>
<path fill="none" stroke="midnightblue" d="M420.91,-76.46C459.14,-71.13 506.92,-64.47 546.65,-58.93"/>
<polygon fill="midnightblue" stroke="midnightblue" points="547.14,-62.39 556.56,-57.54 546.17,-55.46 547.14,-62.39"/>
</g>
<!-- Node11 -->
<g id="node11" class="node">
<title>Node11</title>
<g id="a_node11"><a xlink:href="GlobalSettings_8hpp.html#a292086bff16224cc0653061c22440e60" target="_top" xlink:title=" ">
<polygon fill="white" stroke="black" points="814.5,-38.5 814.5,-57.5 939.5,-57.5 939.5,-38.5 814.5,-38.5"/>
<text text-anchor="middle" x="877" y="-45.5" font-family="Helvetica,sans-Serif" font-size="10.00">getSessionTimestamp</text>
</a>
</g>
</g>
<!-- Node10&#45;&gt;Node11 -->
<g id="edge10" class="edge">
<title>Node10&#45;&gt;Node11</title>
<path fill="none" stroke="midnightblue" d="M689.51,-76.46C724.41,-71.13 768.02,-64.48 804.3,-58.94"/>
<polygon fill="midnightblue" stroke="midnightblue" points="804.97,-62.38 814.33,-57.41 803.91,-55.46 804.97,-62.38"/>
</g>
<!-- Node14&#45;&gt;Node11 -->
<g id="edge14" class="edge">
<title>Node14&#45;&gt;Node11</title>
<path fill="none" stroke="midnightblue" d="M689.51,-19.54C724.41,-24.87 768.02,-31.52 804.3,-37.06"/>
<polygon fill="midnightblue" stroke="midnightblue" points="803.91,-40.54 814.33,-38.59 804.97,-33.62 803.91,-40.54"/>
</g>
</g>
</svg>
