<?xml version="1.0" encoding="UTF-8" standalone="no"?>
<!DOCTYPE svg PUBLIC "-//W3C//DTD SVG 1.1//EN"
 "http://www.w3.org/Graphics/SVG/1.1/DTD/svg11.dtd">
<!-- Generated by graphviz version 2.43.0 (0)
 -->
<!-- Title: src/DeviceManager.hpp Pages: 1 -->
<svg width="1763pt" height="140pt"
 viewBox="0.00 0.00 1762.50 140.00" xmlns="http://www.w3.org/2000/svg" xmlns:xlink="http://www.w3.org/1999/xlink">
<g id="graph0" class="graph" transform="scale(1 1) rotate(0) translate(4 136)">
<title>src/DeviceManager.hpp</title>
<polygon fill="white" stroke="transparent" points="-4,4 -4,-136 1758.5,-136 1758.5,4 -4,4"/>
<!-- Node1 -->
<g id="node1" class="node">
<title>Node1</title>
<g id="a_node1"><a xlink:title=" ">
<polygon fill="#bfbfbf" stroke="black" points="1311,-112.5 1311,-131.5 1442,-131.5 1442,-112.5 1311,-112.5"/>
<text text-anchor="middle" x="1376.5" y="-119.5" font-family="Helvetica,sans-Serif" font-size="10.00">src/DeviceManager.hpp</text>
</a>
</g>
</g>
<!-- Node2 -->
<g id="node2" class="node">
<title>Node2</title>
<g id="a_node2"><a xlink:href="Camera_8hpp.html" target="_top" xlink:title=" ">
<polygon fill="white" stroke="black" points="735.5,-56.5 735.5,-75.5 811.5,-75.5 811.5,-56.5 735.5,-56.5"/>
<text text-anchor="middle" x="773.5" y="-63.5" font-family="Helvetica,sans-Serif" font-size="10.00">Camera.hpp</text>
</a>
</g>
</g>
<!-- Node1&#45;&gt;Node2 -->
<g id="edge1" class="edge">
<title>Node1&#45;&gt;Node2</title>
<path fill="none" stroke="midnightblue" d="M1310.9,-117.9C1208.69,-112.59 1005.09,-100.04 821.79,-75.88"/>
<polygon fill="midnightblue" stroke="midnightblue" points="822.07,-72.39 811.69,-74.53 821.14,-79.32 822.07,-72.39"/>
</g>
<!-- Node6 -->
<g id="node6" class="node">
<title>Node6</title>
<g id="a_node6"><a xlink:title=" ">
<polygon fill="white" stroke="#bfbfbf" points="0,-0.5 0,-19.5 137,-19.5 137,-0.5 0,-0.5"/>
<text text-anchor="middle" x="68.5" y="-7.5" font-family="Helvetica,sans-Serif" font-size="10.00">rc_genicam_api/device.h</text>
</a>
</g>
</g>
<!-- Node1&#45;&gt;Node6 -->
<g id="edge16" class="edge">
<title>Node1&#45;&gt;Node6</title>
<path fill="none" stroke="midnightblue" d="M1310.95,-117.05C1193.65,-109.86 940.12,-93.7 726.5,-76 471.68,-54.88 405.7,-47.48 147.45,-20.09"/>
<polygon fill="midnightblue" stroke="midnightblue" points="147.71,-16.59 137.4,-19.02 146.97,-23.56 147.71,-16.59"/>
</g>
<!-- Node15 -->
<g id="node15" class="node">
<title>Node15</title>
<g id="a_node15"><a xlink:title=" ">
<polygon fill="white" stroke="#bfbfbf" points="830,-56.5 830,-75.5 971,-75.5 971,-56.5 830,-56.5"/>
<text text-anchor="middle" x="900.5" y="-63.5" font-family="Helvetica,sans-Serif" font-size="10.00">rc_genicam_api/system.h</text>
</a>
</g>
</g>
<!-- Node1&#45;&gt;Node15 -->
<g id="edge14" class="edge">
<title>Node1&#45;&gt;Node15</title>
<path fill="none" stroke="midnightblue" d="M1310.81,-113.55C1224.9,-103.8 1074.41,-86.73 981.52,-76.19"/>
<polygon fill="midnightblue" stroke="midnightblue" points="981.65,-72.68 971.32,-75.03 980.86,-79.64 981.65,-72.68"/>
</g>
<!-- Node16 -->
<g id="node16" class="node">
<title>Node16</title>
<g id="a_node16"><a xlink:title=" ">
<polygon fill="white" stroke="#bfbfbf" points="989,-56.5 989,-75.5 1138,-75.5 1138,-56.5 989,-56.5"/>
<text text-anchor="middle" x="1063.5" y="-63.5" font-family="Helvetica,sans-Serif" font-size="10.00">rc_genicam_api/interface.h</text>
</a>
</g>
</g>
<!-- Node1&#45;&gt;Node16 -->
<g id="edge15" class="edge">
<title>Node1&#45;&gt;Node16</title>
<path fill="none" stroke="midnightblue" d="M1326.9,-112.44C1271.5,-102.89 1181.86,-87.42 1122.79,-77.23"/>
<polygon fill="midnightblue" stroke="midnightblue" points="1123.31,-73.77 1112.86,-75.52 1122.12,-80.67 1123.31,-73.77"/>
</g>
<!-- Node17 -->
<g id="node17" class="node">
<title>Node17</title>
<g id="a_node17"><a xlink:title=" ">
<polygon fill="white" stroke="#bfbfbf" points="1156.5,-56.5 1156.5,-75.5 1328.5,-75.5 1328.5,-56.5 1156.5,-56.5"/>
<text text-anchor="middle" x="1242.5" y="-63.5" font-family="Helvetica,sans-Serif" font-size="10.00">rc_genicam_api/nodemap_out.h</text>
</a>
</g>
</g>
<!-- Node1&#45;&gt;Node17 -->
<g id="edge17" class="edge">
<title>Node1&#45;&gt;Node17</title>
<path fill="none" stroke="midnightblue" d="M1355.27,-112.44C1333.12,-103.52 1298.18,-89.44 1273.06,-79.32"/>
<polygon fill="midnightblue" stroke="midnightblue" points="1274.22,-76.01 1263.63,-75.52 1271.6,-82.5 1274.22,-76.01"/>
</g>
<!-- Node18 -->
<g id="node18" class="node">
<title>Node18</title>
<g id="a_node18"><a xlink:title=" ">
<polygon fill="white" stroke="#bfbfbf" points="1346.5,-56.5 1346.5,-75.5 1406.5,-75.5 1406.5,-56.5 1346.5,-56.5"/>
<text text-anchor="middle" x="1376.5" y="-63.5" font-family="Helvetica,sans-Serif" font-size="10.00">iostream</text>
</a>
</g>
</g>
<!-- Node1&#45;&gt;Node18 -->
<g id="edge18" class="edge">
<title>Node1&#45;&gt;Node18</title>
<path fill="none" stroke="midnightblue" d="M1376.5,-112.08C1376.5,-105.01 1376.5,-94.86 1376.5,-85.99"/>
<polygon fill="midnightblue" stroke="midnightblue" points="1380,-85.75 1376.5,-75.75 1373,-85.75 1380,-85.75"/>
</g>
<!-- Node19 -->
<g id="node19" class="node">
<title>Node19</title>
<g id="a_node19"><a xlink:title=" ">
<polygon fill="white" stroke="#bfbfbf" points="1424.5,-56.5 1424.5,-75.5 1480.5,-75.5 1480.5,-56.5 1424.5,-56.5"/>
<text text-anchor="middle" x="1452.5" y="-63.5" font-family="Helvetica,sans-Serif" font-size="10.00">sstream</text>
</a>
</g>
</g>
<!-- Node1&#45;&gt;Node19 -->
<g id="edge19" class="edge">
<title>Node1&#45;&gt;Node19</title>
<path fill="none" stroke="midnightblue" d="M1388.71,-112.32C1400.28,-104.11 1417.88,-91.6 1431.66,-81.81"/>
<polygon fill="midnightblue" stroke="midnightblue" points="1433.94,-84.48 1440.07,-75.83 1429.89,-78.77 1433.94,-84.48"/>
</g>
<!-- Node20 -->
<g id="node20" class="node">
<title>Node20</title>
<g id="a_node20"><a xlink:title=" ">
<polygon fill="white" stroke="#bfbfbf" points="1498.5,-56.5 1498.5,-75.5 1530.5,-75.5 1530.5,-56.5 1498.5,-56.5"/>
<text text-anchor="middle" x="1514.5" y="-63.5" font-family="Helvetica,sans-Serif" font-size="10.00">set</text>
</a>
</g>
</g>
<!-- Node1&#45;&gt;Node20 -->
<g id="edge20" class="edge">
<title>Node1&#45;&gt;Node20</title>
<path fill="none" stroke="midnightblue" d="M1398.37,-112.44C1422.92,-102.83 1462.74,-87.26 1488.77,-77.07"/>
<polygon fill="midnightblue" stroke="midnightblue" points="1490.3,-80.23 1498.34,-73.32 1487.75,-73.71 1490.3,-80.23"/>
</g>
<!-- Node21 -->
<g id="node21" class="node">
<title>Node21</title>
<g id="a_node21"><a xlink:title=" ">
<polygon fill="white" stroke="#bfbfbf" points="1549,-56.5 1549,-75.5 1618,-75.5 1618,-56.5 1549,-56.5"/>
<text text-anchor="middle" x="1583.5" y="-63.5" font-family="Helvetica,sans-Serif" font-size="10.00">arpa/inet.h</text>
</a>
</g>
</g>
<!-- Node1&#45;&gt;Node21 -->
<g id="edge21" class="edge">
<title>Node1&#45;&gt;Node21</title>
<path fill="none" stroke="midnightblue" d="M1409.3,-112.44C1444.88,-103.16 1501.81,-88.31 1540.85,-78.13"/>
<polygon fill="midnightblue" stroke="midnightblue" points="1542.06,-81.43 1550.85,-75.52 1540.29,-74.65 1542.06,-81.43"/>
</g>
<!-- Node22 -->
<g id="node22" class="node">
<title>Node22</title>
<g id="a_node22"><a xlink:title=" ">
<polygon fill="white" stroke="#bfbfbf" points="1636.5,-56.5 1636.5,-75.5 1692.5,-75.5 1692.5,-56.5 1636.5,-56.5"/>
<text text-anchor="middle" x="1664.5" y="-63.5" font-family="Helvetica,sans-Serif" font-size="10.00">iomanip</text>
</a>
</g>
</g>
<!-- Node1&#45;&gt;Node22 -->
<g id="edge22" class="edge">
<title>Node1&#45;&gt;Node22</title>
<path fill="none" stroke="midnightblue" d="M1429.57,-112.46C1478.31,-104.39 1552.76,-91.52 1626.35,-76.14"/>
<polygon fill="midnightblue" stroke="midnightblue" points="1627.19,-79.54 1636.26,-74.06 1625.75,-72.69 1627.19,-79.54"/>
</g>
<!-- Node23 -->
<g id="node23" class="node">
<title>Node23</title>
<g id="a_node23"><a xlink:title=" ">
<polygon fill="white" stroke="#bfbfbf" points="1710.5,-56.5 1710.5,-75.5 1754.5,-75.5 1754.5,-56.5 1710.5,-56.5"/>
<text text-anchor="middle" x="1732.5" y="-63.5" font-family="Helvetica,sans-Serif" font-size="10.00">regex</text>
</a>
</g>
</g>
<!-- Node1&#45;&gt;Node23 -->
<g id="edge23" class="edge">
<title>Node1&#45;&gt;Node23</title>
<path fill="none" stroke="midnightblue" d="M1442.04,-114.75C1505.77,-108.03 1605.41,-95.84 1700.2,-76.01"/>
<polygon fill="midnightblue" stroke="midnightblue" points="1701.19,-79.38 1710.25,-73.88 1699.74,-72.53 1701.19,-79.38"/>
</g>
<!-- Node3 -->
<g id="node3" class="node">
<title>Node3</title>
<g id="a_node3"><a xlink:title=" ">
<polygon fill="white" stroke="#bfbfbf" points="155,-0.5 155,-19.5 254,-19.5 254,-0.5 155,-0.5"/>
<text text-anchor="middle" x="204.5" y="-7.5" font-family="Helvetica,sans-Serif" font-size="10.00">GenApi/GenApi.h</text>
</a>
</g>
</g>
<!-- Node2&#45;&gt;Node3 -->
<g id="edge2" class="edge">
<title>Node2&#45;&gt;Node3</title>
<path fill="none" stroke="midnightblue" d="M735.35,-62.46C651.94,-56.74 446.92,-41.7 264.11,-20"/>
<polygon fill="midnightblue" stroke="midnightblue" points="264.39,-16.5 254.04,-18.79 263.56,-23.45 264.39,-16.5"/>
</g>
<!-- Node4 -->
<g id="node4" class="node">
<title>Node4</title>
<g id="a_node4"><a xlink:title=" ">
<polygon fill="white" stroke="#bfbfbf" points="272.5,-0.5 272.5,-19.5 388.5,-19.5 388.5,-0.5 272.5,-0.5"/>
<text text-anchor="middle" x="330.5" y="-7.5" font-family="Helvetica,sans-Serif" font-size="10.00">opencv2/opencv.hpp</text>
</a>
</g>
</g>
<!-- Node2&#45;&gt;Node4 -->
<g id="edge3" class="edge">
<title>Node2&#45;&gt;Node4</title>
<path fill="none" stroke="midnightblue" d="M735.42,-60.59C669.36,-52.89 528.98,-36.4 398.88,-20.03"/>
<polygon fill="midnightblue" stroke="midnightblue" points="399.09,-16.53 388.73,-18.75 398.22,-23.48 399.09,-16.53"/>
</g>
<!-- Node5 -->
<g id="node5" class="node">
<title>Node5</title>
<g id="a_node5"><a xlink:title=" ">
<polygon fill="white" stroke="#bfbfbf" points="407,-0.5 407,-19.5 540,-19.5 540,-0.5 407,-0.5"/>
<text text-anchor="middle" x="473.5" y="-7.5" font-family="Helvetica,sans-Serif" font-size="10.00">rc_genicam_api/buffer.h</text>
</a>
</g>
</g>
<!-- Node2&#45;&gt;Node5 -->
<g id="edge4" class="edge">
<title>Node2&#45;&gt;Node5</title>
<path fill="none" stroke="midnightblue" d="M735.2,-58.11C683.53,-48.81 591.08,-32.16 531.04,-21.36"/>
<polygon fill="midnightblue" stroke="midnightblue" points="531.42,-17.87 520.95,-19.54 530.18,-24.76 531.42,-17.87"/>
</g>
<!-- Node2&#45;&gt;Node6 -->
<g id="edge5" class="edge">
<title>Node2&#45;&gt;Node6</title>
<path fill="none" stroke="midnightblue" d="M735.28,-62.83C638.75,-57.24 377.07,-41.31 147.6,-20.06"/>
<polygon fill="midnightblue" stroke="midnightblue" points="147.67,-16.55 137.39,-19.11 147.02,-23.52 147.67,-16.55"/>
</g>
<!-- Node7 -->
<g id="node7" class="node">
<title>Node7</title>
<g id="a_node7"><a xlink:title=" ">
<polygon fill="white" stroke="#bfbfbf" points="558.5,-0.5 558.5,-19.5 730.5,-19.5 730.5,-0.5 558.5,-0.5"/>
<text text-anchor="middle" x="644.5" y="-7.5" font-family="Helvetica,sans-Serif" font-size="10.00">rc_genicam_api/pixel_formats.h</text>
</a>
</g>
</g>
<!-- Node2&#45;&gt;Node7 -->
<g id="edge6" class="edge">
<title>Node2&#45;&gt;Node7</title>
<path fill="none" stroke="midnightblue" d="M753.06,-56.44C731.83,-47.56 698.4,-33.56 674.25,-23.45"/>
<polygon fill="midnightblue" stroke="midnightblue" points="675.42,-20.15 664.84,-19.52 672.72,-26.61 675.42,-20.15"/>
</g>
<!-- Node8 -->
<g id="node8" class="node">
<title>Node8</title>
<g id="a_node8"><a xlink:title=" ">
<polygon fill="white" stroke="#bfbfbf" points="748.5,-0.5 748.5,-19.5 798.5,-19.5 798.5,-0.5 748.5,-0.5"/>
<text text-anchor="middle" x="773.5" y="-7.5" font-family="Helvetica,sans-Serif" font-size="10.00">atomic</text>
</a>
</g>
</g>
<!-- Node2&#45;&gt;Node8 -->
<g id="edge7" class="edge">
<title>Node2&#45;&gt;Node8</title>
<path fill="none" stroke="midnightblue" d="M773.5,-56.08C773.5,-49.01 773.5,-38.86 773.5,-29.99"/>
<polygon fill="midnightblue" stroke="midnightblue" points="777,-29.75 773.5,-19.75 770,-29.75 777,-29.75"/>
</g>
<!-- Node9 -->
<g id="node9" class="node">
<title>Node9</title>
<g id="a_node9"><a xlink:title=" ">
<polygon fill="white" stroke="#bfbfbf" points="816.5,-0.5 816.5,-19.5 866.5,-19.5 866.5,-0.5 816.5,-0.5"/>
<text text-anchor="middle" x="841.5" y="-7.5" font-family="Helvetica,sans-Serif" font-size="10.00">cstdint</text>
</a>
</g>
</g>
<!-- Node2&#45;&gt;Node9 -->
<g id="edge8" class="edge">
<title>Node2&#45;&gt;Node9</title>
<path fill="none" stroke="midnightblue" d="M784.43,-56.32C794.67,-48.18 810.22,-35.84 822.5,-26.09"/>
<polygon fill="midnightblue" stroke="midnightblue" points="824.72,-28.79 830.38,-19.83 820.37,-23.31 824.72,-28.79"/>
</g>
<!-- Node10 -->
<g id="node10" class="node">
<title>Node10</title>
<g id="a_node10"><a xlink:title=" ">
<polygon fill="white" stroke="#bfbfbf" points="884.5,-0.5 884.5,-19.5 942.5,-19.5 942.5,-0.5 884.5,-0.5"/>
<text text-anchor="middle" x="913.5" y="-7.5" font-family="Helvetica,sans-Serif" font-size="10.00">memory</text>
</a>
</g>
</g>
<!-- Node2&#45;&gt;Node10 -->
<g id="edge9" class="edge">
<title>Node2&#45;&gt;Node10</title>
<path fill="none" stroke="midnightblue" d="M795.68,-56.44C818.93,-47.48 855.65,-33.31 881.92,-23.18"/>
<polygon fill="midnightblue" stroke="midnightblue" points="883.35,-26.38 891.42,-19.52 880.83,-19.85 883.35,-26.38"/>
</g>
<!-- Node11 -->
<g id="node11" class="node">
<title>Node11</title>
<g id="a_node11"><a xlink:title=" ">
<polygon fill="white" stroke="#bfbfbf" points="960.5,-0.5 960.5,-19.5 1008.5,-19.5 1008.5,-0.5 960.5,-0.5"/>
<text text-anchor="middle" x="984.5" y="-7.5" font-family="Helvetica,sans-Serif" font-size="10.00">mutex</text>
</a>
</g>
</g>
<!-- Node2&#45;&gt;Node11 -->
<g id="edge10" class="edge">
<title>Node2&#45;&gt;Node11</title>
<path fill="none" stroke="midnightblue" d="M808.01,-56.48C841.87,-48.07 895.23,-34.7 950.41,-20.25"/>
<polygon fill="midnightblue" stroke="midnightblue" points="951.58,-23.56 960.36,-17.64 949.8,-16.79 951.58,-23.56"/>
</g>
<!-- Node12 -->
<g id="node12" class="node">
<title>Node12</title>
<g id="a_node12"><a xlink:title=" ">
<polygon fill="white" stroke="#bfbfbf" points="1026.5,-0.5 1026.5,-19.5 1070.5,-19.5 1070.5,-0.5 1026.5,-0.5"/>
<text text-anchor="middle" x="1048.5" y="-7.5" font-family="Helvetica,sans-Serif" font-size="10.00">string</text>
</a>
</g>
</g>
<!-- Node2&#45;&gt;Node12 -->
<g id="edge11" class="edge">
<title>Node2&#45;&gt;Node12</title>
<path fill="none" stroke="midnightblue" d="M811.75,-57.81C815.05,-57.2 818.33,-56.59 821.5,-56 905.52,-40.41 929.63,-40.36 1016.47,-20.06"/>
<polygon fill="midnightblue" stroke="midnightblue" points="1017.29,-23.46 1026.22,-17.76 1015.68,-16.65 1017.29,-23.46"/>
</g>
<!-- Node13 -->
<g id="node13" class="node">
<title>Node13</title>
<g id="a_node13"><a xlink:title=" ">
<polygon fill="white" stroke="#bfbfbf" points="1089,-0.5 1089,-19.5 1136,-19.5 1136,-0.5 1089,-0.5"/>
<text text-anchor="middle" x="1112.5" y="-7.5" font-family="Helvetica,sans-Serif" font-size="10.00">vector</text>
</a>
</g>
</g>
<!-- Node2&#45;&gt;Node13 -->
<g id="edge12" class="edge">
<title>Node2&#45;&gt;Node13</title>
<path fill="none" stroke="midnightblue" d="M811.72,-57.67C815.03,-57.08 818.32,-56.52 821.5,-56 932.64,-37.84 964.37,-42.97 1078.93,-19.87"/>
<polygon fill="midnightblue" stroke="midnightblue" points="1079.7,-23.29 1088.79,-17.85 1078.3,-16.43 1079.7,-23.29"/>
</g>
<!-- Node14 -->
<g id="node14" class="node">
<title>Node14</title>
<g id="a_node14"><a xlink:title=" ">
<polygon fill="white" stroke="#bfbfbf" points="1154.5,-0.5 1154.5,-19.5 1204.5,-19.5 1204.5,-0.5 1154.5,-0.5"/>
<text text-anchor="middle" x="1179.5" y="-7.5" font-family="Helvetica,sans-Serif" font-size="10.00">chrono</text>
</a>
</g>
</g>
<!-- Node2&#45;&gt;Node14 -->
<g id="edge13" class="edge">
<title>Node2&#45;&gt;Node14</title>
<path fill="none" stroke="midnightblue" d="M811.71,-57.57C815.02,-57.01 818.31,-56.48 821.5,-56 961.58,-35.11 1001.31,-46.09 1144.32,-19.96"/>
<polygon fill="midnightblue" stroke="midnightblue" points="1145.15,-23.37 1154.34,-18.1 1143.87,-16.49 1145.15,-23.37"/>
</g>
</g>
</svg>
