<?xml version="1.0" encoding="UTF-8" standalone="no"?>
<!DOCTYPE svg PUBLIC "-//W3C//DTD SVG 1.1//EN"
 "http://www.w3.org/Graphics/SVG/1.1/DTD/svg11.dtd">
<!-- Generated by graphviz version 2.43.0 (0)
 -->
<!-- Title: setGlobalFpsUpperBound Pages: 1 -->
<!--zoomable 66 -->
<svg id="main" version="1.1" xmlns="http://www.w3.org/2000/svg" xmlns:xlink="http://www.w3.org/1999/xlink" xml:space="preserve" onload="init(evt)">
<style type="text/css"><![CDATA[
.edge:hover path { stroke: red; }
.edge:hover polygon { stroke: red; fill: red; }
]]></style>
<script type="text/javascript"><![CDATA[
var edges = document.getElementsByTagName('g');
if (edges && edges.length) {
  for (var i=0;i<edges.length;i++) {
    if (edges[i].id.substr(0,4)=='edge') {
      edges[i].setAttribute('class','edge');
    }
  }
}
]]></script>
        <defs>
                <circle id="rim" cx="0" cy="0" r="7"/>
                <circle id="rim2" cx="0" cy="0" r="3.5"/>
                <g id="zoomPlus">
                        <use xlink:href="#rim" fill="#404040">
                                <set attributeName="fill" to="#808080" begin="zoomplus.mouseover" end="zoomplus.mouseout"/>
                        </use>
                        <path d="M-4,0h8M0,-4v8" fill="none" stroke="white" stroke-width="1.5" pointer-events="none"/>
                </g>
                <g id="zoomMin">
                        <use xlink:href="#rim" fill="#404040">
                                <set attributeName="fill" to="#808080" begin="zoomminus.mouseover" end="zoomminus.mouseout"/>
                        </use>
                        <path d="M-4,0h8" fill="none" stroke="white" stroke-width="1.5" pointer-events="none"/>
                </g>
                <g id="dirArrow">
                        <path fill="none" stroke="white" stroke-width="1.5" d="M0,-3.0v7 M-2.5,-0.5L0,-3.0L2.5,-0.5"/>
                </g>
               <g id="resetDef">
                       <use xlink:href="#rim2" fill="#404040">
                               <set attributeName="fill" to="#808080" begin="reset.mouseover" end="reset.mouseout"/>
                       </use>
               </g>
        </defs>

<script type="text/javascript">
var viewWidth = 1204;
var viewHeight = 66;
var sectionId = 'dynsection-2';
</script>
<script xlink:href="svgpan.js"/>
<svg id="graph" class="graph">
<g id="viewport">
<title>setGlobalFpsUpperBound</title>
<polygon fill="white" stroke="transparent" points="-4,4 -4,-62 1200,-62 1200,4 -4,4"/>
<!-- Node1 -->
<g id="node1" class="node">
<title>Node1</title>
<g id="a_node1"><a xlink:title=" ">
<polygon fill="#bfbfbf" stroke="black" points="1056,-19.5 1056,-38.5 1196,-38.5 1196,-19.5 1056,-19.5"/>
<text text-anchor="middle" x="1126" y="-26.5" font-family="Helvetica,sans-Serif" font-size="10.00">setGlobalFpsUpperBound</text>
</a>
</g>
</g>
<!-- Node2 -->
<g id="node2" class="node">
<title>Node2</title>
<g id="a_node2"><a xlink:href="classCamera.html#a73d0377e77c2e760d29381cd1073c2cd" target="_top" xlink:title=" ">
<polygon fill="white" stroke="black" points="840.5,-38.5 840.5,-57.5 1010.5,-57.5 1010.5,-38.5 840.5,-38.5"/>
<text text-anchor="middle" x="925.5" y="-45.5" font-family="Helvetica,sans-Serif" font-size="10.00">Camera::adjustFpsDynamically</text>
</a>
</g>
</g>
<!-- Node1&#45;&gt;Node2 -->
<g id="edge1" class="edge">
<title>Node1&#45;&gt;Node2</title>
<path fill="none" stroke="midnightblue" d="M1045.84,-36.58C1034.31,-37.68 1022.4,-38.82 1010.78,-39.93"/>
<polygon fill="midnightblue" stroke="midnightblue" points="1046.23,-40.06 1055.85,-35.62 1045.56,-33.09 1046.23,-40.06"/>
</g>
<!-- Node5 -->
<g id="node5" class="node">
<title>Node5</title>
<g id="a_node5"><a xlink:href="classNetworkManager.html#acd8737d274da2f02b0e1635b4b9f63bb" target="_top" xlink:title=" ">
<polygon fill="white" stroke="black" points="831,-0.5 831,-19.5 1020,-19.5 1020,-0.5 831,-0.5"/>
<text text-anchor="middle" x="925.5" y="-7.5" font-family="Helvetica,sans-Serif" font-size="10.00">NetworkManager::calculateMaxFps</text>
</a>
</g>
</g>
<!-- Node1&#45;&gt;Node5 -->
<g id="edge4" class="edge">
<title>Node1&#45;&gt;Node5</title>
<path fill="none" stroke="midnightblue" d="M1045.73,-21.41C1037.33,-20.61 1028.73,-19.79 1020.19,-18.97"/>
<polygon fill="midnightblue" stroke="midnightblue" points="1045.56,-24.91 1055.85,-22.38 1046.23,-17.94 1045.56,-24.91"/>
</g>
<!-- Node3 -->
<g id="node3" class="node">
<title>Node3</title>
<g id="a_node3"><a xlink:href="classCamera.html#ac75a36ff4d008e091919c9a0e8d3d752" target="_top" xlink:title=" ">
<polygon fill="white" stroke="black" points="586,-38.5 586,-57.5 743,-57.5 743,-38.5 586,-38.5"/>
<text text-anchor="middle" x="664.5" y="-45.5" font-family="Helvetica,sans-Serif" font-size="10.00">Camera::updateGlobalFrame</text>
</a>
</g>
</g>
<!-- Node2&#45;&gt;Node3 -->
<g id="edge2" class="edge">
<title>Node2&#45;&gt;Node3</title>
<path fill="none" stroke="midnightblue" d="M830.38,-48C801.69,-48 770.49,-48 743.03,-48"/>
<polygon fill="midnightblue" stroke="midnightblue" points="830.41,-51.5 840.41,-48 830.41,-44.5 830.41,-51.5"/>
</g>
<!-- Node4 -->
<g id="node4" class="node">
<title>Node4</title>
<g id="a_node4"><a xlink:href="classCamera.html#ad9f2f078e719c799e1a677a12ea52b44" target="_top" xlink:title=" ">
<polygon fill="white" stroke="black" points="338.5,-38.5 338.5,-57.5 472.5,-57.5 472.5,-38.5 338.5,-38.5"/>
<text text-anchor="middle" x="405.5" y="-45.5" font-family="Helvetica,sans-Serif" font-size="10.00">Camera::startStreaming</text>
</a>
</g>
</g>
<!-- Node3&#45;&gt;Node4 -->
<g id="edge3" class="edge">
<title>Node3&#45;&gt;Node4</title>
<path fill="none" stroke="midnightblue" d="M575.4,-48C541.77,-48 504.03,-48 472.76,-48"/>
<polygon fill="midnightblue" stroke="midnightblue" points="575.69,-51.5 585.69,-48 575.69,-44.5 575.69,-51.5"/>
</g>
<!-- Node6 -->
<g id="node6" class="node">
<title>Node6</title>
<g id="a_node6"><a xlink:href="classNetworkManager.html#af1c10e78fbe4fd4af3343c8b48652f05" target="_top" xlink:title=" ">
<polygon fill="white" stroke="black" points="534,-0.5 534,-19.5 795,-19.5 795,-0.5 534,-0.5"/>
<text text-anchor="middle" x="664.5" y="-7.5" font-family="Helvetica,sans-Serif" font-size="10.00">NetworkManager::configureBandwidth</text>
</a>
</g>
</g>
<!-- Node5&#45;&gt;Node6 -->
<g id="edge5" class="edge">
<title>Node5&#45;&gt;Node6</title>
<path fill="none" stroke="midnightblue" d="M820.85,-10C812.46,-10 803.92,-10 795.38,-10"/>
<polygon fill="midnightblue" stroke="midnightblue" points="821,-13.5 831,-10 821,-6.5 821,-13.5"/>
</g>
<!-- Node7 -->
<g id="node7" class="node">
<title>Node7</title>
<g id="a_node7"><a xlink:href="classNetworkManager.html#abf0d6140725e709b57318ab3b9c8ddc6" target="_top" xlink:title=" ">
<polygon fill="white" stroke="black" points="313,-0.5 313,-19.5 498,-19.5 498,-0.5 313,-0.5"/>
<text text-anchor="middle" x="405.5" y="-7.5" font-family="Helvetica,sans-Serif" font-size="10.00">NetworkManager::configurePtpSyncFreeRun</text>
</a>
</g>
</g>
<!-- Node6&#45;&gt;Node7 -->
<g id="edge6" class="edge">
<title>Node6&#45;&gt;Node7</title>
<path fill="none" stroke="midnightblue" d="M523.67,-10C515.01,-10 506.41,-10 498.04,-10"/>
<polygon fill="midnightblue" stroke="midnightblue" points="523.87,-13.5 533.87,-10 523.87,-6.5 523.87,-13.5"/>
</g>
<!-- Node8 -->
<g id="node8" class="node">
<title>Node8</title>
<g id="a_node8"><a xlink:href="classSystemManager.html#addb2328a323747f21afb826811f288ab" target="_top" xlink:title=" ">
<polygon fill="white" stroke="black" points="77,-0.5 77,-19.5 277,-19.5 277,-0.5 77,-0.5"/>
<text text-anchor="middle" x="177" y="-7.5" font-family="Helvetica,sans-Serif" font-size="10.00">SystemManager::syncFreeRunStream</text>
</a>
</g>
</g>
<!-- Node7&#45;&gt;Node8 -->
<g id="edge7" class="edge">
<title>Node7&#45;&gt;Node8</title>
<path fill="none" stroke="midnightblue" d="M302.53,-10C294.15,-10 285.69,-10 277.33,-10"/>
<polygon fill="midnightblue" stroke="midnightblue" points="302.7,-13.5 312.7,-10 302.7,-6.5 302.7,-13.5"/>
</g>
<!-- Node9 -->
<g id="node9" class="node">
<title>Node9</title>
<g id="a_node9"><a xlink:href="main_8cpp.html#a0ddf1224851353fc92bfbff6f499fa97" target="_top" xlink:title=" ">
<polygon fill="white" stroke="black" points="0,-0.5 0,-19.5 41,-19.5 41,-0.5 0,-0.5"/>
<text text-anchor="middle" x="20.5" y="-7.5" font-family="Helvetica,sans-Serif" font-size="10.00">main</text>
</a>
</g>
</g>
<!-- Node8&#45;&gt;Node9 -->
<g id="edge8" class="edge">
<title>Node8&#45;&gt;Node9</title>
<path fill="none" stroke="midnightblue" d="M66.61,-10C57.05,-10 48.28,-10 41.07,-10"/>
<polygon fill="midnightblue" stroke="midnightblue" points="66.84,-13.5 76.84,-10 66.84,-6.5 66.84,-13.5"/>
</g>
</g>
</svg>
        <g id="navigator" transform="translate(0 0)" fill="#404254">
                <rect fill="#f2f5e9" fill-opacity="0.5" stroke="#606060" stroke-width=".5" x="0" y="0" width="60" height="60"/>
                <use id="zoomplus" xlink:href="#zoomPlus" x="17" y="9" onmousedown="handleZoom(evt,'in')"/>
                <use id="zoomminus" xlink:href="#zoomMin" x="42" y="9" onmousedown="handleZoom(evt,'out')"/>
                <use id="reset" xlink:href="#resetDef" x="30" y="36" onmousedown="handleReset()"/>
                <g id="arrowUp" xlink:href="#dirArrow" transform="translate(30 24)" onmousedown="handlePan(0,-1)">
                  <use xlink:href="#rim" fill="#404040">
                        <set attributeName="fill" to="#808080" begin="arrowUp.mouseover" end="arrowUp.mouseout"/>
                  </use>
                  <path fill="none" stroke="white" stroke-width="1.5" d="M0,-3.0v7 M-2.5,-0.5L0,-3.0L2.5,-0.5"/>
                </g>
                <g id="arrowRight" xlink:href="#dirArrow" transform="rotate(90) translate(36 -43)" onmousedown="handlePan(1,0)">
                  <use xlink:href="#rim" fill="#404040">
                        <set attributeName="fill" to="#808080" begin="arrowRight.mouseover" end="arrowRight.mouseout"/>
                  </use>
                  <path fill="none" stroke="white" stroke-width="1.5" d="M0,-3.0v7 M-2.5,-0.5L0,-3.0L2.5,-0.5"/>
                </g>
                <g id="arrowDown" xlink:href="#dirArrow" transform="rotate(180) translate(-30 -48)" onmousedown="handlePan(0,1)">
                  <use xlink:href="#rim" fill="#404040">
                        <set attributeName="fill" to="#808080" begin="arrowDown.mouseover" end="arrowDown.mouseout"/>
                  </use>
                  <path fill="none" stroke="white" stroke-width="1.5" d="M0,-3.0v7 M-2.5,-0.5L0,-3.0L2.5,-0.5"/>
                </g>
                <g id="arrowLeft" xlink:href="#dirArrow" transform="rotate(270) translate(-36 17)" onmousedown="handlePan(-1,0)">
                  <use xlink:href="#rim" fill="#404040">
                        <set attributeName="fill" to="#808080" begin="arrowLeft.mouseover" end="arrowLeft.mouseout"/>
                  </use>
                  <path fill="none" stroke="white" stroke-width="1.5" d="M0,-3.0v7 M-2.5,-0.5L0,-3.0L2.5,-0.5"/>
                </g>
        </g>
        <svg viewBox="0 0 15 15" width="100%" height="30px" preserveAspectRatio="xMaxYMin meet">
         <g id="arrow_out" transform="scale(0.3 0.3)">
          <a xlink:href="GlobalSettings_8cpp_a4e4d4e3815c368773a4dfcfc9d19666c_icgraph_org.svg" target="_base">
           <rect id="button" ry="5" rx="5" y="6" x="6" height="38" width="38"
                fill="#f2f5e9" fill-opacity="0.5" stroke="#606060" stroke-width="1.0"/>
           <path id="arrow"
             d="M 11.500037,31.436501 C 11.940474,20.09759 22.043105,11.32322 32.158766,21.979434 L 37.068811,17.246167 C 37.068811,17.246167 37.088388,32 37.088388,32 L 22.160133,31.978069 C 22.160133,31.978069 26.997745,27.140456 26.997745,27.140456 C 18.528582,18.264221 13.291696,25.230495 11.500037,31.436501 z"
             style="fill:#404040;"/>
          </a>
         </g>
        </svg>
</svg>
