<?xml version="1.0" encoding="UTF-8" standalone="no"?>
<!DOCTYPE svg PUBLIC "-//W3C//DTD SVG 1.1//EN"
 "http://www.w3.org/Graphics/SVG/1.1/DTD/svg11.dtd">
<!-- Generated by graphviz version 2.43.0 (0)
 -->
<!-- Title: setGlobalFpsUpperBound Pages: 1 -->
<svg width="1204pt" height="66pt"
 viewBox="0.00 0.00 1204.00 66.00" xmlns="http://www.w3.org/2000/svg" xmlns:xlink="http://www.w3.org/1999/xlink">
<g id="graph0" class="graph" transform="scale(1 1) rotate(0) translate(4 62)">
<title>setGlobalFpsUpperBound</title>
<polygon fill="white" stroke="transparent" points="-4,4 -4,-62 1200,-62 1200,4 -4,4"/>
<!-- Node1 -->
<g id="node1" class="node">
<title>Node1</title>
<g id="a_node1"><a xlink:title=" ">
<polygon fill="#bfbfbf" stroke="black" points="1056,-19.5 1056,-38.5 1196,-38.5 1196,-19.5 1056,-19.5"/>
<text text-anchor="middle" x="1126" y="-26.5" font-family="Helvetica,sans-Serif" font-size="10.00">setGlobalFpsUpperBound</text>
</a>
</g>
</g>
<!-- Node2 -->
<g id="node2" class="node">
<title>Node2</title>
<g id="a_node2"><a xlink:href="classCamera.html#a73d0377e77c2e760d29381cd1073c2cd" target="_top" xlink:title=" ">
<polygon fill="white" stroke="black" points="840.5,-38.5 840.5,-57.5 1010.5,-57.5 1010.5,-38.5 840.5,-38.5"/>
<text text-anchor="middle" x="925.5" y="-45.5" font-family="Helvetica,sans-Serif" font-size="10.00">Camera::adjustFpsDynamically</text>
</a>
</g>
</g>
<!-- Node1&#45;&gt;Node2 -->
<g id="edge1" class="edge">
<title>Node1&#45;&gt;Node2</title>
<path fill="none" stroke="midnightblue" d="M1045.84,-36.58C1034.31,-37.68 1022.4,-38.82 1010.78,-39.93"/>
<polygon fill="midnightblue" stroke="midnightblue" points="1046.23,-40.06 1055.85,-35.62 1045.56,-33.09 1046.23,-40.06"/>
</g>
<!-- Node5 -->
<g id="node5" class="node">
<title>Node5</title>
<g id="a_node5"><a xlink:href="classNetworkManager.html#acd8737d274da2f02b0e1635b4b9f63bb" target="_top" xlink:title=" ">
<polygon fill="white" stroke="black" points="831,-0.5 831,-19.5 1020,-19.5 1020,-0.5 831,-0.5"/>
<text text-anchor="middle" x="925.5" y="-7.5" font-family="Helvetica,sans-Serif" font-size="10.00">NetworkManager::calculateMaxFps</text>
</a>
</g>
</g>
<!-- Node1&#45;&gt;Node5 -->
<g id="edge4" class="edge">
<title>Node1&#45;&gt;Node5</title>
<path fill="none" stroke="midnightblue" d="M1045.73,-21.41C1037.33,-20.61 1028.73,-19.79 1020.19,-18.97"/>
<polygon fill="midnightblue" stroke="midnightblue" points="1045.56,-24.91 1055.85,-22.38 1046.23,-17.94 1045.56,-24.91"/>
</g>
<!-- Node3 -->
<g id="node3" class="node">
<title>Node3</title>
<g id="a_node3"><a xlink:href="classCamera.html#ac75a36ff4d008e091919c9a0e8d3d752" target="_top" xlink:title=" ">
<polygon fill="white" stroke="black" points="586,-38.5 586,-57.5 743,-57.5 743,-38.5 586,-38.5"/>
<text text-anchor="middle" x="664.5" y="-45.5" font-family="Helvetica,sans-Serif" font-size="10.00">Camera::updateGlobalFrame</text>
</a>
</g>
</g>
<!-- Node2&#45;&gt;Node3 -->
<g id="edge2" class="edge">
<title>Node2&#45;&gt;Node3</title>
<path fill="none" stroke="midnightblue" d="M830.38,-48C801.69,-48 770.49,-48 743.03,-48"/>
<polygon fill="midnightblue" stroke="midnightblue" points="830.41,-51.5 840.41,-48 830.41,-44.5 830.41,-51.5"/>
</g>
<!-- Node4 -->
<g id="node4" class="node">
<title>Node4</title>
<g id="a_node4"><a xlink:href="classCamera.html#ad9f2f078e719c799e1a677a12ea52b44" target="_top" xlink:title=" ">
<polygon fill="white" stroke="black" points="338.5,-38.5 338.5,-57.5 472.5,-57.5 472.5,-38.5 338.5,-38.5"/>
<text text-anchor="middle" x="405.5" y="-45.5" font-family="Helvetica,sans-Serif" font-size="10.00">Camera::startStreaming</text>
</a>
</g>
</g>
<!-- Node3&#45;&gt;Node4 -->
<g id="edge3" class="edge">
<title>Node3&#45;&gt;Node4</title>
<path fill="none" stroke="midnightblue" d="M575.4,-48C541.77,-48 504.03,-48 472.76,-48"/>
<polygon fill="midnightblue" stroke="midnightblue" points="575.69,-51.5 585.69,-48 575.69,-44.5 575.69,-51.5"/>
</g>
<!-- Node6 -->
<g id="node6" class="node">
<title>Node6</title>
<g id="a_node6"><a xlink:href="classNetworkManager.html#af1c10e78fbe4fd4af3343c8b48652f05" target="_top" xlink:title=" ">
<polygon fill="white" stroke="black" points="534,-0.5 534,-19.5 795,-19.5 795,-0.5 534,-0.5"/>
<text text-anchor="middle" x="664.5" y="-7.5" font-family="Helvetica,sans-Serif" font-size="10.00">NetworkManager::configureBandwidth</text>
</a>
</g>
</g>
<!-- Node5&#45;&gt;Node6 -->
<g id="edge5" class="edge">
<title>Node5&#45;&gt;Node6</title>
<path fill="none" stroke="midnightblue" d="M820.85,-10C812.46,-10 803.92,-10 795.38,-10"/>
<polygon fill="midnightblue" stroke="midnightblue" points="821,-13.5 831,-10 821,-6.5 821,-13.5"/>
</g>
<!-- Node7 -->
<g id="node7" class="node">
<title>Node7</title>
<g id="a_node7"><a xlink:href="classNetworkManager.html#abf0d6140725e709b57318ab3b9c8ddc6" target="_top" xlink:title=" ">
<polygon fill="white" stroke="black" points="313,-0.5 313,-19.5 498,-19.5 498,-0.5 313,-0.5"/>
<text text-anchor="middle" x="405.5" y="-7.5" font-family="Helvetica,sans-Serif" font-size="10.00">NetworkManager::configurePtpSyncFreeRun</text>
</a>
</g>
</g>
<!-- Node6&#45;&gt;Node7 -->
<g id="edge6" class="edge">
<title>Node6&#45;&gt;Node7</title>
<path fill="none" stroke="midnightblue" d="M523.67,-10C515.01,-10 506.41,-10 498.04,-10"/>
<polygon fill="midnightblue" stroke="midnightblue" points="523.87,-13.5 533.87,-10 523.87,-6.5 523.87,-13.5"/>
</g>
<!-- Node8 -->
<g id="node8" class="node">
<title>Node8</title>
<g id="a_node8"><a xlink:href="classSystemManager.html#addb2328a323747f21afb826811f288ab" target="_top" xlink:title=" ">
<polygon fill="white" stroke="black" points="77,-0.5 77,-19.5 277,-19.5 277,-0.5 77,-0.5"/>
<text text-anchor="middle" x="177" y="-7.5" font-family="Helvetica,sans-Serif" font-size="10.00">SystemManager::syncFreeRunStream</text>
</a>
</g>
</g>
<!-- Node7&#45;&gt;Node8 -->
<g id="edge7" class="edge">
<title>Node7&#45;&gt;Node8</title>
<path fill="none" stroke="midnightblue" d="M302.53,-10C294.15,-10 285.69,-10 277.33,-10"/>
<polygon fill="midnightblue" stroke="midnightblue" points="302.7,-13.5 312.7,-10 302.7,-6.5 302.7,-13.5"/>
</g>
<!-- Node9 -->
<g id="node9" class="node">
<title>Node9</title>
<g id="a_node9"><a xlink:href="main_8cpp.html#a0ddf1224851353fc92bfbff6f499fa97" target="_top" xlink:title=" ">
<polygon fill="white" stroke="black" points="0,-0.5 0,-19.5 41,-19.5 41,-0.5 0,-0.5"/>
<text text-anchor="middle" x="20.5" y="-7.5" font-family="Helvetica,sans-Serif" font-size="10.00">main</text>
</a>
</g>
</g>
<!-- Node8&#45;&gt;Node9 -->
<g id="edge8" class="edge">
<title>Node8&#45;&gt;Node9</title>
<path fill="none" stroke="midnightblue" d="M66.61,-10C57.05,-10 48.28,-10 41.07,-10"/>
<polygon fill="midnightblue" stroke="midnightblue" points="66.84,-13.5 76.84,-10 66.84,-6.5 66.84,-13.5"/>
</g>
</g>
</svg>
