<?xml version="1.0" encoding="UTF-8" standalone="no"?>
<!DOCTYPE svg PUBLIC "-//W3C//DTD SVG 1.1//EN"
 "http://www.w3.org/Graphics/SVG/1.1/DTD/svg11.dtd">
<!-- Generated by graphviz version 2.43.0 (0)
 -->
<!-- Title: getSessionTimestamp Pages: 1 -->
<svg width="1145pt" height="180pt"
 viewBox="0.00 0.00 1145.00 180.00" xmlns="http://www.w3.org/2000/svg" xmlns:xlink="http://www.w3.org/1999/xlink">
<g id="graph0" class="graph" transform="scale(1 1) rotate(0) translate(4 176)">
<title>getSessionTimestamp</title>
<polygon fill="white" stroke="transparent" points="-4,4 -4,-176 1141,-176 1141,4 -4,4"/>
<!-- Node1 -->
<g id="node1" class="node">
<title>Node1</title>
<g id="a_node1"><a xlink:title=" ">
<polygon fill="#bfbfbf" stroke="black" points="1012,-76.5 1012,-95.5 1137,-95.5 1137,-76.5 1012,-76.5"/>
<text text-anchor="middle" x="1074.5" y="-83.5" font-family="Helvetica,sans-Serif" font-size="10.00">getSessionTimestamp</text>
</a>
</g>
</g>
<!-- Node2 -->
<g id="node2" class="node">
<title>Node2</title>
<g id="a_node2"><a xlink:href="classCamera.html#ac9ff8e00386dd1d1a77bf1d8fc831801" target="_top" xlink:title=" ">
<polygon fill="white" stroke="black" points="787.5,-152.5 787.5,-171.5 948.5,-171.5 948.5,-152.5 787.5,-152.5"/>
<text text-anchor="middle" x="868" y="-159.5" font-family="Helvetica,sans-Serif" font-size="10.00">Camera::initializeVideoWriter</text>
</a>
</g>
</g>
<!-- Node1&#45;&gt;Node2 -->
<g id="edge1" class="edge">
<title>Node1&#45;&gt;Node2</title>
<path fill="none" stroke="midnightblue" d="M1052.45,-101.28C1033.41,-114.36 1004.12,-132.66 976,-143 965.46,-146.87 954.05,-149.97 942.72,-152.45"/>
<polygon fill="midnightblue" stroke="midnightblue" points="1054.5,-104.12 1060.68,-95.51 1050.48,-98.38 1054.5,-104.12"/>
</g>
<!-- Node4 -->
<g id="node4" class="node">
<title>Node4</title>
<g id="a_node4"><a xlink:href="classCamera.html#ada78f0e2aa9cd9304e558c0cd61abd47" target="_top" xlink:title=" ">
<polygon fill="white" stroke="black" points="772.5,-76.5 772.5,-95.5 963.5,-95.5 963.5,-76.5 772.5,-76.5"/>
<text text-anchor="middle" x="868" y="-83.5" font-family="Helvetica,sans-Serif" font-size="10.00">Camera::logBandwidthDelaysToCSV</text>
</a>
</g>
</g>
<!-- Node1&#45;&gt;Node4 -->
<g id="edge3" class="edge">
<title>Node1&#45;&gt;Node4</title>
<path fill="none" stroke="midnightblue" d="M1001.72,-86C989.45,-86 976.53,-86 963.76,-86"/>
<polygon fill="midnightblue" stroke="midnightblue" points="1001.87,-89.5 1011.87,-86 1001.87,-82.5 1001.87,-89.5"/>
</g>
<!-- Node6 -->
<g id="node6" class="node">
<title>Node6</title>
<g id="a_node6"><a xlink:href="classNetworkManager.html#ae856b2f8ac57cb540414667eccc6832a" target="_top" xlink:title=" ">
<polygon fill="white" stroke="black" points="760,-38.5 760,-57.5 976,-57.5 976,-38.5 760,-38.5"/>
<text text-anchor="middle" x="868" y="-45.5" font-family="Helvetica,sans-Serif" font-size="10.00">NetworkManager::logOffsetHistoryToCSV</text>
</a>
</g>
</g>
<!-- Node1&#45;&gt;Node6 -->
<g id="edge5" class="edge">
<title>Node1&#45;&gt;Node6</title>
<path fill="none" stroke="midnightblue" d="M1015.25,-74.48C1002.33,-71.98 988.71,-69.37 976,-67 959.03,-63.84 940.52,-60.51 923.74,-57.54"/>
<polygon fill="midnightblue" stroke="midnightblue" points="1014.94,-77.99 1025.43,-76.47 1016.28,-71.12 1014.94,-77.99"/>
</g>
<!-- Node11 -->
<g id="node11" class="node">
<title>Node11</title>
<g id="a_node11"><a xlink:href="classNetworkManager.html#ae34ac9fc3697d706c4938c61f44ecd59" target="_top" xlink:title=" ">
<polygon fill="white" stroke="black" points="549,-0.5 549,-19.5 709,-19.5 709,-0.5 549,-0.5"/>
<text text-anchor="middle" x="629" y="-7.5" font-family="Helvetica,sans-Serif" font-size="10.00">NetworkManager::plotOffsets</text>
</a>
</g>
</g>
<!-- Node1&#45;&gt;Node11 -->
<g id="edge10" class="edge">
<title>Node1&#45;&gt;Node11</title>
<path fill="none" stroke="midnightblue" d="M1053.36,-70.34C1034.53,-56.68 1005.02,-37.72 976,-29 887.42,-2.38 780.43,-0.88 709.11,-3.93"/>
<polygon fill="midnightblue" stroke="midnightblue" points="1051.35,-73.21 1061.47,-76.37 1055.53,-67.6 1051.35,-73.21"/>
</g>
<!-- Node12 -->
<g id="node12" class="node">
<title>Node12</title>
<g id="a_node12"><a xlink:href="classCamera.html#adb38ed40f81a6d3b3ef3a6c8d92477cf" target="_top" xlink:title=" ">
<polygon fill="white" stroke="black" points="796.5,-114.5 796.5,-133.5 939.5,-133.5 939.5,-114.5 796.5,-114.5"/>
<text text-anchor="middle" x="868" y="-121.5" font-family="Helvetica,sans-Serif" font-size="10.00">Camera::saveFrameToPng</text>
</a>
</g>
</g>
<!-- Node1&#45;&gt;Node12 -->
<g id="edge12" class="edge">
<title>Node1&#45;&gt;Node12</title>
<path fill="none" stroke="midnightblue" d="M1015.25,-97.52C1002.33,-100.02 988.71,-102.63 976,-105 959.03,-108.16 940.52,-111.49 923.74,-114.46"/>
<polygon fill="midnightblue" stroke="midnightblue" points="1016.28,-100.88 1025.43,-95.53 1014.94,-94.01 1016.28,-100.88"/>
</g>
<!-- Node3 -->
<g id="node3" class="node">
<title>Node3</title>
<g id="a_node3"><a xlink:href="classCamera.html#ad9f2f078e719c799e1a677a12ea52b44" target="_top" xlink:title=" ">
<polygon fill="white" stroke="black" points="562,-133.5 562,-152.5 696,-152.5 696,-133.5 562,-133.5"/>
<text text-anchor="middle" x="629" y="-140.5" font-family="Helvetica,sans-Serif" font-size="10.00">Camera::startStreaming</text>
</a>
</g>
</g>
<!-- Node2&#45;&gt;Node3 -->
<g id="edge2" class="edge">
<title>Node2&#45;&gt;Node3</title>
<path fill="none" stroke="midnightblue" d="M777.24,-154.8C750.37,-152.65 721.41,-150.33 696.34,-148.32"/>
<polygon fill="midnightblue" stroke="midnightblue" points="777.18,-158.31 787.42,-155.62 777.73,-151.33 777.18,-158.31"/>
</g>
<!-- Node5 -->
<g id="node5" class="node">
<title>Node5</title>
<g id="a_node5"><a xlink:href="classCamera.html#a3edc9f5ef4ef86bcf1b9269795e91f90" target="_top" xlink:title=" ">
<polygon fill="white" stroke="black" points="548.5,-76.5 548.5,-95.5 709.5,-95.5 709.5,-76.5 548.5,-76.5"/>
<text text-anchor="middle" x="629" y="-83.5" font-family="Helvetica,sans-Serif" font-size="10.00">Camera::setBandwidthDelays</text>
</a>
</g>
</g>
<!-- Node4&#45;&gt;Node5 -->
<g id="edge4" class="edge">
<title>Node4&#45;&gt;Node5</title>
<path fill="none" stroke="midnightblue" d="M762.02,-86C744.45,-86 726.48,-86 709.68,-86"/>
<polygon fill="midnightblue" stroke="midnightblue" points="762.31,-89.5 772.31,-86 762.31,-82.5 762.31,-89.5"/>
</g>
<!-- Node7 -->
<g id="node7" class="node">
<title>Node7</title>
<g id="a_node7"><a xlink:href="classNetworkManager.html#a580689530037e60c278f61c2d541e86c" target="_top" xlink:title=" ">
<polygon fill="white" stroke="black" points="534,-38.5 534,-57.5 724,-57.5 724,-38.5 534,-38.5"/>
<text text-anchor="middle" x="629" y="-45.5" font-family="Helvetica,sans-Serif" font-size="10.00">NetworkManager::monitorPtpOffset</text>
</a>
</g>
</g>
<!-- Node6&#45;&gt;Node7 -->
<g id="edge6" class="edge">
<title>Node6&#45;&gt;Node7</title>
<path fill="none" stroke="midnightblue" d="M749.87,-48C741.29,-48 732.69,-48 724.26,-48"/>
<polygon fill="midnightblue" stroke="midnightblue" points="749.94,-51.5 759.94,-48 749.94,-44.5 749.94,-51.5"/>
</g>
<!-- Node8 -->
<g id="node8" class="node">
<title>Node8</title>
<g id="a_node8"><a xlink:href="classNetworkManager.html#abf0d6140725e709b57318ab3b9c8ddc6" target="_top" xlink:title=" ">
<polygon fill="white" stroke="black" points="313,-19.5 313,-38.5 498,-38.5 498,-19.5 313,-19.5"/>
<text text-anchor="middle" x="405.5" y="-26.5" font-family="Helvetica,sans-Serif" font-size="10.00">NetworkManager::configurePtpSyncFreeRun</text>
</a>
</g>
</g>
<!-- Node7&#45;&gt;Node8 -->
<g id="edge7" class="edge">
<title>Node7&#45;&gt;Node8</title>
<path fill="none" stroke="midnightblue" d="M523.76,-39.06C515.22,-38.33 506.64,-37.59 498.2,-36.87"/>
<polygon fill="midnightblue" stroke="midnightblue" points="523.48,-42.55 533.74,-39.91 524.08,-35.57 523.48,-42.55"/>
</g>
<!-- Node9 -->
<g id="node9" class="node">
<title>Node9</title>
<g id="a_node9"><a xlink:href="classSystemManager.html#addb2328a323747f21afb826811f288ab" target="_top" xlink:title=" ">
<polygon fill="white" stroke="black" points="77,-19.5 77,-38.5 277,-38.5 277,-19.5 77,-19.5"/>
<text text-anchor="middle" x="177" y="-26.5" font-family="Helvetica,sans-Serif" font-size="10.00">SystemManager::syncFreeRunStream</text>
</a>
</g>
</g>
<!-- Node8&#45;&gt;Node9 -->
<g id="edge8" class="edge">
<title>Node8&#45;&gt;Node9</title>
<path fill="none" stroke="midnightblue" d="M302.53,-29C294.15,-29 285.69,-29 277.33,-29"/>
<polygon fill="midnightblue" stroke="midnightblue" points="302.7,-32.5 312.7,-29 302.7,-25.5 302.7,-32.5"/>
</g>
<!-- Node10 -->
<g id="node10" class="node">
<title>Node10</title>
<g id="a_node10"><a xlink:href="main_8cpp.html#a0ddf1224851353fc92bfbff6f499fa97" target="_top" xlink:title=" ">
<polygon fill="white" stroke="black" points="0,-19.5 0,-38.5 41,-38.5 41,-19.5 0,-19.5"/>
<text text-anchor="middle" x="20.5" y="-26.5" font-family="Helvetica,sans-Serif" font-size="10.00">main</text>
</a>
</g>
</g>
<!-- Node9&#45;&gt;Node10 -->
<g id="edge9" class="edge">
<title>Node9&#45;&gt;Node10</title>
<path fill="none" stroke="midnightblue" d="M66.61,-29C57.05,-29 48.28,-29 41.07,-29"/>
<polygon fill="midnightblue" stroke="midnightblue" points="66.84,-32.5 76.84,-29 66.84,-25.5 66.84,-32.5"/>
</g>
<!-- Node11&#45;&gt;Node8 -->
<g id="edge11" class="edge">
<title>Node11&#45;&gt;Node8</title>
<path fill="none" stroke="midnightblue" d="M538.87,-17.65C525.52,-18.79 511.74,-19.97 498.34,-21.12"/>
<polygon fill="midnightblue" stroke="midnightblue" points="539.31,-21.12 548.97,-16.78 538.71,-14.15 539.31,-21.12"/>
</g>
<!-- Node12&#45;&gt;Node3 -->
<g id="edge13" class="edge">
<title>Node12&#45;&gt;Node3</title>
<path fill="none" stroke="midnightblue" d="M786.03,-130.49C756.81,-132.83 724.19,-135.45 696.37,-137.68"/>
<polygon fill="midnightblue" stroke="midnightblue" points="786.52,-133.96 796.21,-129.67 785.97,-126.99 786.52,-133.96"/>
</g>
</g>
</svg>
