<?xml version="1.0" encoding="UTF-8" standalone="no"?>
<!DOCTYPE svg PUBLIC "-//W3C//DTD SVG 1.1//EN"
 "http://www.w3.org/Graphics/SVG/1.1/DTD/svg11.dtd">
<!-- Generated by graphviz version 2.43.0 (0)
 -->
<!-- Title: main Pages: 1 -->
<!--zoomable 446 -->
<svg id="main" version="1.1" xmlns="http://www.w3.org/2000/svg" xmlns:xlink="http://www.w3.org/1999/xlink" xml:space="preserve" onload="init(evt)">
<style type="text/css"><![CDATA[
.edge:hover path { stroke: red; }
.edge:hover polygon { stroke: red; fill: red; }
]]></style>
<script type="text/javascript"><![CDATA[
var edges = document.getElementsByTagName('g');
if (edges && edges.length) {
  for (var i=0;i<edges.length;i++) {
    if (edges[i].id.substr(0,4)=='edge') {
      edges[i].setAttribute('class','edge');
    }
  }
}
]]></script>
        <defs>
                <circle id="rim" cx="0" cy="0" r="7"/>
                <circle id="rim2" cx="0" cy="0" r="3.5"/>
                <g id="zoomPlus">
                        <use xlink:href="#rim" fill="#404040">
                                <set attributeName="fill" to="#808080" begin="zoomplus.mouseover" end="zoomplus.mouseout"/>
                        </use>
                        <path d="M-4,0h8M0,-4v8" fill="none" stroke="white" stroke-width="1.5" pointer-events="none"/>
                </g>
                <g id="zoomMin">
                        <use xlink:href="#rim" fill="#404040">
                                <set attributeName="fill" to="#808080" begin="zoomminus.mouseover" end="zoomminus.mouseout"/>
                        </use>
                        <path d="M-4,0h8" fill="none" stroke="white" stroke-width="1.5" pointer-events="none"/>
                </g>
                <g id="dirArrow">
                        <path fill="none" stroke="white" stroke-width="1.5" d="M0,-3.0v7 M-2.5,-0.5L0,-3.0L2.5,-0.5"/>
                </g>
               <g id="resetDef">
                       <use xlink:href="#rim2" fill="#404040">
                               <set attributeName="fill" to="#808080" begin="reset.mouseover" end="reset.mouseout"/>
                       </use>
               </g>
        </defs>

<script type="text/javascript">
var viewWidth = 1346;
var viewHeight = 446;
var sectionId = 'dynsection-1';
</script>
<script xlink:href="svgpan.js"/>
<svg id="graph" class="graph">
<g id="viewport">
<title>main</title>
<polygon fill="white" stroke="transparent" points="-4,4 -4,-442 1342,-442 1342,4 -4,4"/>
<!-- Node1 -->
<g id="node1" class="node">
<title>Node1</title>
<g id="a_node1"><a xlink:title=" ">
<polygon fill="#bfbfbf" stroke="black" points="0,-304.5 0,-323.5 41,-323.5 41,-304.5 0,-304.5"/>
<text text-anchor="middle" x="20.5" y="-311.5" font-family="Helvetica,sans-Serif" font-size="10.00">main</text>
</a>
</g>
</g>
<!-- Node2 -->
<g id="node2" class="node">
<title>Node2</title>
<g id="a_node2"><a xlink:href="classSystemManager.html#a1c1ba12c1709183b2bd1bd48ebebe24c" target="_top" xlink:title=" ">
<polygon fill="white" stroke="black" points="86.5,-418.5 86.5,-437.5 267.5,-437.5 267.5,-418.5 86.5,-418.5"/>
<text text-anchor="middle" x="177" y="-425.5" font-family="Helvetica,sans-Serif" font-size="10.00">SystemManager::initializeSystem</text>
</a>
</g>
</g>
<!-- Node1&#45;&gt;Node2 -->
<g id="edge1" class="edge">
<title>Node1&#45;&gt;Node2</title>
<path fill="none" stroke="midnightblue" d="M24.18,-323.65C30.14,-343.18 46.44,-387.37 77,-409 79.71,-410.92 82.57,-412.66 85.53,-414.24"/>
<polygon fill="midnightblue" stroke="midnightblue" points="84.16,-417.46 94.71,-418.49 87.11,-411.11 84.16,-417.46"/>
</g>
<!-- Node4 -->
<g id="node4" class="node">
<title>Node4</title>
<g id="a_node4"><a xlink:href="main_8cpp.html#ae87714a32069a99bdee647bb2c4a6c65" target="_top" xlink:title=" ">
<polygon fill="white" stroke="black" points="128,-380.5 128,-399.5 226,-399.5 226,-380.5 128,-380.5"/>
<text text-anchor="middle" x="177" y="-387.5" font-family="Helvetica,sans-Serif" font-size="10.00">parseCameraIDs</text>
</a>
</g>
</g>
<!-- Node1&#45;&gt;Node4 -->
<g id="edge3" class="edge">
<title>Node1&#45;&gt;Node4</title>
<path fill="none" stroke="midnightblue" d="M28.1,-323.84C37.39,-336.85 55.6,-359.47 77,-371 89.46,-377.71 103.93,-382.08 117.89,-384.92"/>
<polygon fill="midnightblue" stroke="midnightblue" points="117.47,-388.4 127.93,-386.72 118.71,-381.51 117.47,-388.4"/>
</g>
<!-- Node5 -->
<g id="node5" class="node">
<title>Node5</title>
<g id="a_node5"><a xlink:href="main_8cpp.html#a99cfd7f582dfad8278b8ebaddcaa9e41" target="_top" xlink:title=" ">
<polygon fill="white" stroke="black" points="142,-342.5 142,-361.5 212,-361.5 212,-342.5 142,-342.5"/>
<text text-anchor="middle" x="177" y="-349.5" font-family="Helvetica,sans-Serif" font-size="10.00">printUsage</text>
</a>
</g>
</g>
<!-- Node1&#45;&gt;Node5 -->
<g id="edge4" class="edge">
<title>Node1&#45;&gt;Node5</title>
<path fill="none" stroke="midnightblue" d="M41.07,-321.45C51.61,-325.27 64.89,-329.78 77,-333 94.65,-337.69 114.36,-341.71 131.52,-344.83"/>
<polygon fill="midnightblue" stroke="midnightblue" points="131.37,-348.36 141.83,-346.66 132.59,-341.47 131.37,-348.36"/>
</g>
<!-- Node6 -->
<g id="node6" class="node">
<title>Node6</title>
<g id="a_node6"><a xlink:href="classSystemManager.html#a051494c0cf33bac6dbd8e4c0eb3ed9ae" target="_top" xlink:title=" ">
<polygon fill="white" stroke="black" points="99.5,-304.5 99.5,-323.5 254.5,-323.5 254.5,-304.5 99.5,-304.5"/>
<text text-anchor="middle" x="177" y="-311.5" font-family="Helvetica,sans-Serif" font-size="10.00">SystemManager::ptpDisable</text>
</a>
</g>
</g>
<!-- Node1&#45;&gt;Node6 -->
<g id="edge5" class="edge">
<title>Node1&#45;&gt;Node6</title>
<path fill="none" stroke="midnightblue" d="M41.07,-314C53.67,-314 71.04,-314 89.12,-314"/>
<polygon fill="midnightblue" stroke="midnightblue" points="89.22,-317.5 99.22,-314 89.22,-310.5 89.22,-317.5"/>
</g>
<!-- Node12 -->
<g id="node12" class="node">
<title>Node12</title>
<g id="a_node12"><a xlink:href="classSystemManager.html#af801ab01222b0c07d25a8fa780d423e4" target="_top" xlink:title=" ">
<polygon fill="white" stroke="black" points="101.5,-266.5 101.5,-285.5 252.5,-285.5 252.5,-266.5 101.5,-266.5"/>
<text text-anchor="middle" x="177" y="-273.5" font-family="Helvetica,sans-Serif" font-size="10.00">SystemManager::ptpEnable</text>
</a>
</g>
</g>
<!-- Node1&#45;&gt;Node12 -->
<g id="edge11" class="edge">
<title>Node1&#45;&gt;Node12</title>
<path fill="none" stroke="midnightblue" d="M41.07,-306.55C51.61,-302.73 64.89,-298.22 77,-295 87.3,-292.26 98.29,-289.76 109.07,-287.52"/>
<polygon fill="midnightblue" stroke="midnightblue" points="109.77,-290.95 118.89,-285.55 108.39,-284.09 109.77,-290.95"/>
</g>
<!-- Node14 -->
<g id="node14" class="node">
<title>Node14</title>
<g id="a_node14"><a xlink:href="classSystemManager.html#afa1d2e6e0615b3bba9a7c6086b39360f" target="_top" xlink:title=" ">
<polygon fill="white" stroke="black" points="84,-228.5 84,-247.5 270,-247.5 270,-228.5 84,-228.5"/>
<text text-anchor="middle" x="177" y="-235.5" font-family="Helvetica,sans-Serif" font-size="10.00">SystemManager::shutdownSystem</text>
</a>
</g>
</g>
<!-- Node1&#45;&gt;Node14 -->
<g id="edge15" class="edge">
<title>Node1&#45;&gt;Node14</title>
<path fill="none" stroke="midnightblue" d="M28.1,-304.16C37.39,-291.15 55.6,-268.53 77,-257 81.3,-254.68 85.84,-252.65 90.51,-250.86"/>
<polygon fill="midnightblue" stroke="midnightblue" points="91.94,-254.07 100.27,-247.51 89.67,-247.44 91.94,-254.07"/>
</g>
<!-- Node15 -->
<g id="node15" class="node">
<title>Node15</title>
<g id="a_node15"><a xlink:href="classSystemManager.html#addb2328a323747f21afb826811f288ab" target="_top" xlink:title=" ">
<polygon fill="white" stroke="black" points="77,-190.5 77,-209.5 277,-209.5 277,-190.5 77,-190.5"/>
<text text-anchor="middle" x="177" y="-197.5" font-family="Helvetica,sans-Serif" font-size="10.00">SystemManager::syncFreeRunStream</text>
</a>
</g>
</g>
<!-- Node1&#45;&gt;Node15 -->
<g id="edge16" class="edge">
<title>Node1&#45;&gt;Node15</title>
<path fill="none" stroke="midnightblue" d="M24.18,-304.35C30.14,-284.82 46.44,-240.63 77,-219 79.71,-217.08 82.57,-215.34 85.53,-213.76"/>
<polygon fill="midnightblue" stroke="midnightblue" points="87.11,-216.89 94.71,-209.51 84.16,-210.54 87.11,-216.89"/>
</g>
<!-- Node3 -->
<g id="node3" class="node">
<title>Node3</title>
<g id="a_node3"><a xlink:href="SystemManager_8cpp.html#aa025f45ed88b3ae4067ae664cf12f853" target="_top" xlink:title=" ">
<polygon fill="white" stroke="black" points="383.5,-418.5 383.5,-437.5 463.5,-437.5 463.5,-418.5 383.5,-418.5"/>
<text text-anchor="middle" x="423.5" y="-425.5" font-family="Helvetica,sans-Serif" font-size="10.00">handleSignal</text>
</a>
</g>
</g>
<!-- Node2&#45;&gt;Node3 -->
<g id="edge2" class="edge">
<title>Node2&#45;&gt;Node3</title>
<path fill="none" stroke="midnightblue" d="M267.65,-428C303.25,-428 342.83,-428 373.06,-428"/>
<polygon fill="midnightblue" stroke="midnightblue" points="373.34,-431.5 383.34,-428 373.34,-424.5 373.34,-431.5"/>
</g>
<!-- Node7 -->
<g id="node7" class="node">
<title>Node7</title>
<g id="a_node7"><a xlink:href="classDeviceManager.html#a36a89dec4c09c02f7269093b346c37b6" target="_top" xlink:title=" ">
<polygon fill="white" stroke="black" points="337,-304.5 337,-323.5 510,-323.5 510,-304.5 337,-304.5"/>
<text text-anchor="middle" x="423.5" y="-311.5" font-family="Helvetica,sans-Serif" font-size="10.00">DeviceManager::createCameras</text>
</a>
</g>
</g>
<!-- Node6&#45;&gt;Node7 -->
<g id="edge6" class="edge">
<title>Node6&#45;&gt;Node7</title>
<path fill="none" stroke="midnightblue" d="M254.69,-314C277.48,-314 302.74,-314 326.59,-314"/>
<polygon fill="midnightblue" stroke="midnightblue" points="326.72,-317.5 336.72,-314 326.72,-310.5 326.72,-317.5"/>
</g>
<!-- Node10 -->
<g id="node10" class="node">
<title>Node10</title>
<g id="a_node10"><a xlink:href="classNetworkManager.html#a72d16c3ed9d65f8f9ac365fd576d9077" target="_top" xlink:title=" ">
<polygon fill="white" stroke="black" points="344.5,-342.5 344.5,-361.5 502.5,-361.5 502.5,-342.5 344.5,-342.5"/>
<text text-anchor="middle" x="423.5" y="-349.5" font-family="Helvetica,sans-Serif" font-size="10.00">NetworkManager::disablePtp</text>
</a>
</g>
</g>
<!-- Node6&#45;&gt;Node10 -->
<g id="edge9" class="edge">
<title>Node6&#45;&gt;Node10</title>
<path fill="none" stroke="midnightblue" d="M239.38,-323.54C273.24,-328.8 315.47,-335.37 350.83,-340.86"/>
<polygon fill="midnightblue" stroke="midnightblue" points="350.67,-344.38 361.09,-342.46 351.75,-337.46 350.67,-344.38"/>
</g>
<!-- Node11 -->
<g id="node11" class="node">
<title>Node11</title>
<g id="a_node11"><a xlink:href="classDeviceManager.html#aa5df5c2756fda96dc9438e1c85071699" target="_top" xlink:title=" ">
<polygon fill="white" stroke="black" points="331.5,-266.5 331.5,-285.5 515.5,-285.5 515.5,-266.5 331.5,-266.5"/>
<text text-anchor="middle" x="423.5" y="-273.5" font-family="Helvetica,sans-Serif" font-size="10.00">DeviceManager::getOpenCameras</text>
</a>
</g>
</g>
<!-- Node6&#45;&gt;Node11 -->
<g id="edge10" class="edge">
<title>Node6&#45;&gt;Node11</title>
<path fill="none" stroke="midnightblue" d="M239.38,-304.46C273.24,-299.2 315.47,-292.63 350.83,-287.14"/>
<polygon fill="midnightblue" stroke="midnightblue" points="351.75,-290.54 361.09,-285.54 350.67,-283.62 351.75,-290.54"/>
</g>
<!-- Node8 -->
<g id="node8" class="node">
<title>Node8</title>
<g id="a_node8"><a xlink:href="classDeviceManager.html#a5de621ae914e130ad5a5e977c02272f4" target="_top" xlink:title=" ">
<polygon fill="white" stroke="black" points="616.5,-304.5 616.5,-323.5 784.5,-323.5 784.5,-304.5 616.5,-304.5"/>
<text text-anchor="middle" x="700.5" y="-311.5" font-family="Helvetica,sans-Serif" font-size="10.00">DeviceManager::createCamera</text>
</a>
</g>
</g>
<!-- Node7&#45;&gt;Node8 -->
<g id="edge7" class="edge">
<title>Node7&#45;&gt;Node8</title>
<path fill="none" stroke="midnightblue" d="M510,-314C540.46,-314 574.91,-314 606,-314"/>
<polygon fill="midnightblue" stroke="midnightblue" points="606.41,-317.5 616.41,-314 606.41,-310.5 606.41,-317.5"/>
</g>
<!-- Node9 -->
<g id="node9" class="node">
<title>Node9</title>
<g id="a_node9"><a xlink:href="classDeviceManager.html#a6374a294f1d0d15f18ab35aea1fb6158" target="_top" xlink:title=" ">
<polygon fill="white" stroke="black" points="867,-304.5 867,-323.5 1088,-323.5 1088,-304.5 867,-304.5"/>
<text text-anchor="middle" x="977.5" y="-311.5" font-family="Helvetica,sans-Serif" font-size="10.00">DeviceManager::getAvailableCameraByID</text>
</a>
</g>
</g>
<!-- Node8&#45;&gt;Node9 -->
<g id="edge8" class="edge">
<title>Node8&#45;&gt;Node9</title>
<path fill="none" stroke="midnightblue" d="M784.76,-314C807.37,-314 832.32,-314 856.53,-314"/>
<polygon fill="midnightblue" stroke="midnightblue" points="856.85,-317.5 866.85,-314 856.85,-310.5 856.85,-317.5"/>
</g>
<!-- Node12&#45;&gt;Node7 -->
<g id="edge12" class="edge">
<title>Node12&#45;&gt;Node7</title>
<path fill="none" stroke="midnightblue" d="M239.38,-285.54C273.24,-290.8 315.47,-297.37 350.83,-302.86"/>
<polygon fill="midnightblue" stroke="midnightblue" points="350.67,-306.38 361.09,-304.46 351.75,-299.46 350.67,-306.38"/>
</g>
<!-- Node12&#45;&gt;Node11 -->
<g id="edge14" class="edge">
<title>Node12&#45;&gt;Node11</title>
<path fill="none" stroke="midnightblue" d="M252.69,-276C274.34,-276 298.35,-276 321.34,-276"/>
<polygon fill="midnightblue" stroke="midnightblue" points="321.46,-279.5 331.46,-276 321.46,-272.5 321.46,-279.5"/>
</g>
<!-- Node13 -->
<g id="node13" class="node">
<title>Node13</title>
<g id="a_node13"><a xlink:href="classNetworkManager.html#a97139087ce2feb24bce02b5e26ef1cf5" target="_top" xlink:title=" ">
<polygon fill="white" stroke="black" points="623,-266.5 623,-285.5 778,-285.5 778,-266.5 623,-266.5"/>
<text text-anchor="middle" x="700.5" y="-273.5" font-family="Helvetica,sans-Serif" font-size="10.00">NetworkManager::enablePtp</text>
</a>
</g>
</g>
<!-- Node12&#45;&gt;Node13 -->
<g id="edge13" class="edge">
<title>Node12&#45;&gt;Node13</title>
<path fill="none" stroke="midnightblue" d="M232.99,-266.49C257.41,-262.72 286.56,-258.85 313,-257 410.98,-250.14 435.94,-251.39 534,-257 562.8,-258.65 594.29,-261.9 621.99,-265.25"/>
<polygon fill="midnightblue" stroke="midnightblue" points="621.66,-268.73 632.01,-266.48 622.52,-261.79 621.66,-268.73"/>
</g>
<!-- Node15&#45;&gt;Node7 -->
<g id="edge17" class="edge">
<title>Node15&#45;&gt;Node7</title>
<path fill="none" stroke="midnightblue" d="M261.13,-209.65C266.79,-212.17 272.16,-215.25 277,-219 306.55,-241.89 283.25,-272.38 313,-295 317.46,-298.39 322.33,-301.26 327.44,-303.68"/>
<polygon fill="midnightblue" stroke="midnightblue" points="326.3,-307 336.87,-307.56 328.96,-300.52 326.3,-307"/>
</g>
<!-- Node15&#45;&gt;Node11 -->
<g id="edge18" class="edge">
<title>Node15&#45;&gt;Node11</title>
<path fill="none" stroke="midnightblue" d="M237.32,-209.54C250.49,-212.17 264.31,-215.33 277,-219 317.98,-230.85 363.5,-249.64 392.53,-262.38"/>
<polygon fill="midnightblue" stroke="midnightblue" points="391.16,-265.6 401.72,-266.45 393.99,-259.2 391.16,-265.6"/>
</g>
<!-- Node16 -->
<g id="node16" class="node">
<title>Node16</title>
<g id="a_node16"><a xlink:href="classNetworkManager.html#abf0d6140725e709b57318ab3b9c8ddc6" target="_top" xlink:title=" ">
<polygon fill="white" stroke="black" points="331,-190.5 331,-209.5 516,-209.5 516,-190.5 331,-190.5"/>
<text text-anchor="middle" x="423.5" y="-197.5" font-family="Helvetica,sans-Serif" font-size="10.00">NetworkManager::configurePtpSyncFreeRun</text>
</a>
</g>
</g>
<!-- Node15&#45;&gt;Node16 -->
<g id="edge19" class="edge">
<title>Node15&#45;&gt;Node16</title>
<path fill="none" stroke="midnightblue" d="M277.1,-200C291.37,-200 306.08,-200 320.41,-200"/>
<polygon fill="midnightblue" stroke="midnightblue" points="320.77,-203.5 330.77,-200 320.77,-196.5 320.77,-203.5"/>
</g>
<!-- Node29 -->
<g id="node29" class="node">
<title>Node29</title>
<g id="a_node29"><a xlink:href="classStreamManager.html#ac6965e57bedc21b34b532d49654c4ab1" target="_top" xlink:title=" ">
<polygon fill="white" stroke="black" points="313,-57.5 313,-76.5 534,-76.5 534,-57.5 313,-57.5"/>
<text text-anchor="middle" x="423.5" y="-64.5" font-family="Helvetica,sans-Serif" font-size="10.00">StreamManager::startPtpSyncFreeRun</text>
</a>
</g>
</g>
<!-- Node15&#45;&gt;Node29 -->
<g id="edge34" class="edge">
<title>Node15&#45;&gt;Node29</title>
<path fill="none" stroke="midnightblue" d="M195.58,-190.43C237.86,-167.44 345.42,-108.93 395.76,-81.55"/>
<polygon fill="midnightblue" stroke="midnightblue" points="397.63,-84.51 404.75,-76.66 394.29,-78.36 397.63,-84.51"/>
</g>
<!-- Node16&#45;&gt;Node13 -->
<g id="edge26" class="edge">
<title>Node16&#45;&gt;Node13</title>
<path fill="none" stroke="midnightblue" d="M494.19,-209.51C507.85,-212.95 521.74,-217.63 534,-224 553.26,-234 550.4,-247.68 570,-257 583.26,-263.3 598.07,-267.63 612.8,-270.59"/>
<polygon fill="midnightblue" stroke="midnightblue" points="612.51,-274.09 622.98,-272.42 613.75,-267.2 612.51,-274.09"/>
</g>
<!-- Node17 -->
<g id="node17" class="node">
<title>Node17</title>
<g id="a_node17"><a xlink:href="classNetworkManager.html#af1c10e78fbe4fd4af3343c8b48652f05" target="_top" xlink:title=" ">
<polygon fill="white" stroke="black" points="570,-228.5 570,-247.5 831,-247.5 831,-228.5 570,-228.5"/>
<text text-anchor="middle" x="700.5" y="-235.5" font-family="Helvetica,sans-Serif" font-size="10.00">NetworkManager::configureBandwidth</text>
</a>
</g>
</g>
<!-- Node16&#45;&gt;Node17 -->
<g id="edge20" class="edge">
<title>Node16&#45;&gt;Node17</title>
<path fill="none" stroke="midnightblue" d="M493.54,-209.54C532.11,-214.87 580.34,-221.53 620.43,-227.07"/>
<polygon fill="midnightblue" stroke="midnightblue" points="620.05,-230.55 630.43,-228.46 621.01,-223.62 620.05,-230.55"/>
</g>
<!-- Node23 -->
<g id="node23" class="node">
<title>Node23</title>
<g id="a_node23"><a xlink:href="classNetworkManager.html#a580689530037e60c278f61c2d541e86c" target="_top" xlink:title=" ">
<polygon fill="white" stroke="black" points="605.5,-114.5 605.5,-133.5 795.5,-133.5 795.5,-114.5 605.5,-114.5"/>
<text text-anchor="middle" x="700.5" y="-121.5" font-family="Helvetica,sans-Serif" font-size="10.00">NetworkManager::monitorPtpOffset</text>
</a>
</g>
</g>
<!-- Node16&#45;&gt;Node23 -->
<g id="edge27" class="edge">
<title>Node16&#45;&gt;Node23</title>
<path fill="none" stroke="midnightblue" d="M447.82,-190.36C476.25,-178.9 525.97,-159.87 570,-148 588.25,-143.08 608.21,-138.84 626.88,-135.35"/>
<polygon fill="midnightblue" stroke="midnightblue" points="627.59,-138.77 636.8,-133.54 626.33,-131.89 627.59,-138.77"/>
</g>
<!-- Node27 -->
<g id="node27" class="node">
<title>Node27</title>
<g id="a_node27"><a xlink:href="classNetworkManager.html#a5cff683bdb24c9f3359fc259e73cc036" target="_top" xlink:title=" ">
<polygon fill="white" stroke="black" points="605,-190.5 605,-209.5 796,-209.5 796,-190.5 605,-190.5"/>
<text text-anchor="middle" x="700.5" y="-197.5" font-family="Helvetica,sans-Serif" font-size="10.00">NetworkManager::monitorPtpStatus</text>
</a>
</g>
</g>
<!-- Node16&#45;&gt;Node27 -->
<g id="edge31" class="edge">
<title>Node16&#45;&gt;Node27</title>
<path fill="none" stroke="midnightblue" d="M516.07,-200C541.18,-200 568.59,-200 594.39,-200"/>
<polygon fill="midnightblue" stroke="midnightblue" points="594.57,-203.5 604.57,-200 594.57,-196.5 594.57,-203.5"/>
</g>
<!-- Node28 -->
<g id="node28" class="node">
<title>Node28</title>
<g id="a_node28"><a xlink:href="classNetworkManager.html#ae34ac9fc3697d706c4938c61f44ecd59" target="_top" xlink:title=" ">
<polygon fill="white" stroke="black" points="897.5,-152.5 897.5,-171.5 1057.5,-171.5 1057.5,-152.5 897.5,-152.5"/>
<text text-anchor="middle" x="977.5" y="-159.5" font-family="Helvetica,sans-Serif" font-size="10.00">NetworkManager::plotOffsets</text>
</a>
</g>
</g>
<!-- Node16&#45;&gt;Node28 -->
<g id="edge32" class="edge">
<title>Node16&#45;&gt;Node28</title>
<path fill="none" stroke="midnightblue" d="M488.48,-190.48C513.81,-187.01 543.23,-183.37 570,-181 678.94,-171.36 804.76,-166.43 887.21,-164.04"/>
<polygon fill="midnightblue" stroke="midnightblue" points="887.4,-167.54 897.3,-163.75 887.21,-160.54 887.4,-167.54"/>
</g>
<!-- Node18 -->
<g id="node18" class="node">
<title>Node18</title>
<g id="a_node18"><a xlink:href="classNetworkManager.html#acd8737d274da2f02b0e1635b4b9f63bb" target="_top" xlink:title=" ">
<polygon fill="white" stroke="black" points="883,-247.5 883,-266.5 1072,-266.5 1072,-247.5 883,-247.5"/>
<text text-anchor="middle" x="977.5" y="-254.5" font-family="Helvetica,sans-Serif" font-size="10.00">NetworkManager::calculateMaxFps</text>
</a>
</g>
</g>
<!-- Node17&#45;&gt;Node18 -->
<g id="edge21" class="edge">
<title>Node17&#45;&gt;Node18</title>
<path fill="none" stroke="midnightblue" d="M831.35,-246.97C845.2,-247.93 859.16,-248.89 872.65,-249.83"/>
<polygon fill="midnightblue" stroke="midnightblue" points="872.66,-253.33 882.88,-250.53 873.14,-246.35 872.66,-253.33"/>
</g>
<!-- Node20 -->
<g id="node20" class="node">
<title>Node20</title>
<g id="a_node20"><a xlink:href="classNetworkManager.html#a88d3b203ca5c2d28212c5da9f8cdde7d" target="_top" xlink:title=" ">
<polygon fill="white" stroke="black" points="876,-209.5 876,-228.5 1079,-228.5 1079,-209.5 876,-209.5"/>
<text text-anchor="middle" x="977.5" y="-216.5" font-family="Helvetica,sans-Serif" font-size="10.00">NetworkManager::setExposureAndFps</text>
</a>
</g>
</g>
<!-- Node17&#45;&gt;Node20 -->
<g id="edge23" class="edge">
<title>Node17&#45;&gt;Node20</title>
<path fill="none" stroke="midnightblue" d="M831.35,-229.03C842.74,-228.24 854.21,-227.45 865.42,-226.67"/>
<polygon fill="midnightblue" stroke="midnightblue" points="865.92,-230.15 875.65,-225.97 865.43,-223.17 865.92,-230.15"/>
</g>
<!-- Node19 -->
<g id="node19" class="node">
<title>Node19</title>
<g id="a_node19"><a xlink:href="GlobalSettings_8cpp.html#a4e4d4e3815c368773a4dfcfc9d19666c" target="_top" xlink:title=" ">
<polygon fill="white" stroke="black" points="1161,-247.5 1161,-266.5 1301,-266.5 1301,-247.5 1161,-247.5"/>
<text text-anchor="middle" x="1231" y="-254.5" font-family="Helvetica,sans-Serif" font-size="10.00">setGlobalFpsUpperBound</text>
</a>
</g>
</g>
<!-- Node18&#45;&gt;Node19 -->
<g id="edge22" class="edge">
<title>Node18&#45;&gt;Node19</title>
<path fill="none" stroke="midnightblue" d="M1072.15,-257C1097.93,-257 1125.63,-257 1150.53,-257"/>
<polygon fill="midnightblue" stroke="midnightblue" points="1150.64,-260.5 1160.64,-257 1150.64,-253.5 1150.64,-260.5"/>
</g>
<!-- Node21 -->
<g id="node21" class="node">
<title>Node21</title>
<g id="a_node21"><a xlink:href="GlobalSettings_8cpp.html#ae20198dd587799aa9d5579c3597f7fb4" target="_top" xlink:title=" ">
<polygon fill="white" stroke="black" points="1160.5,-209.5 1160.5,-228.5 1301.5,-228.5 1301.5,-209.5 1160.5,-209.5"/>
<text text-anchor="middle" x="1231" y="-216.5" font-family="Helvetica,sans-Serif" font-size="10.00">getGlobalFpsUpperBound</text>
</a>
</g>
</g>
<!-- Node20&#45;&gt;Node21 -->
<g id="edge24" class="edge">
<title>Node20&#45;&gt;Node21</title>
<path fill="none" stroke="midnightblue" d="M1079.35,-219C1102.93,-219 1127.73,-219 1150.25,-219"/>
<polygon fill="midnightblue" stroke="midnightblue" points="1150.42,-222.5 1160.42,-219 1150.42,-215.5 1150.42,-222.5"/>
</g>
<!-- Node22 -->
<g id="node22" class="node">
<title>Node22</title>
<g id="a_node22"><a xlink:href="classNetworkManager.html#a2894fa4186d5341d1ceea4930cd1f448" target="_top" xlink:title=" ">
<polygon fill="white" stroke="black" points="1124,-171.5 1124,-190.5 1338,-190.5 1338,-171.5 1124,-171.5"/>
<text text-anchor="middle" x="1231" y="-178.5" font-family="Helvetica,sans-Serif" font-size="10.00">NetworkManager::getMinimumExposure</text>
</a>
</g>
</g>
<!-- Node20&#45;&gt;Node22 -->
<g id="edge25" class="edge">
<title>Node20&#45;&gt;Node22</title>
<path fill="none" stroke="midnightblue" d="M1041.64,-209.46C1076.62,-204.17 1120.28,-197.58 1156.75,-192.07"/>
<polygon fill="midnightblue" stroke="midnightblue" points="1157.47,-195.5 1166.83,-190.54 1156.42,-188.58 1157.47,-195.5"/>
</g>
<!-- Node24 -->
<g id="node24" class="node">
<title>Node24</title>
<g id="a_node24"><a xlink:href="classNetworkManager.html#ae856b2f8ac57cb540414667eccc6832a" target="_top" xlink:title=" ">
<polygon fill="white" stroke="black" points="869.5,-76.5 869.5,-95.5 1085.5,-95.5 1085.5,-76.5 869.5,-76.5"/>
<text text-anchor="middle" x="977.5" y="-83.5" font-family="Helvetica,sans-Serif" font-size="10.00">NetworkManager::logOffsetHistoryToCSV</text>
</a>
</g>
</g>
<!-- Node23&#45;&gt;Node24 -->
<g id="edge28" class="edge">
<title>Node23&#45;&gt;Node24</title>
<path fill="none" stroke="midnightblue" d="M770.54,-114.46C809.11,-109.13 857.34,-102.47 897.43,-96.93"/>
<polygon fill="midnightblue" stroke="midnightblue" points="898.01,-100.38 907.43,-95.54 897.05,-93.45 898.01,-100.38"/>
</g>
<!-- Node26 -->
<g id="node26" class="node">
<title>Node26</title>
<g id="a_node26"><a xlink:href="classNetworkManager.html#a8f23d31231702bcd91a3cf101a8394e6" target="_top" xlink:title=" ">
<polygon fill="white" stroke="black" points="889.5,-114.5 889.5,-133.5 1065.5,-133.5 1065.5,-114.5 889.5,-114.5"/>
<text text-anchor="middle" x="977.5" y="-121.5" font-family="Helvetica,sans-Serif" font-size="10.00">NetworkManager::printPtpConfig</text>
</a>
</g>
</g>
<!-- Node23&#45;&gt;Node26 -->
<g id="edge30" class="edge">
<title>Node23&#45;&gt;Node26</title>
<path fill="none" stroke="midnightblue" d="M795.75,-124C822.64,-124 851.98,-124 879.05,-124"/>
<polygon fill="midnightblue" stroke="midnightblue" points="879.3,-127.5 889.3,-124 879.3,-120.5 879.3,-127.5"/>
</g>
<!-- Node25 -->
<g id="node25" class="node">
<title>Node25</title>
<g id="a_node25"><a xlink:href="GlobalSettings_8hpp.html#a292086bff16224cc0653061c22440e60" target="_top" xlink:title=" ">
<polygon fill="white" stroke="black" points="1168.5,-95.5 1168.5,-114.5 1293.5,-114.5 1293.5,-95.5 1168.5,-95.5"/>
<text text-anchor="middle" x="1231" y="-102.5" font-family="Helvetica,sans-Serif" font-size="10.00">getSessionTimestamp</text>
</a>
</g>
</g>
<!-- Node24&#45;&gt;Node25 -->
<g id="edge29" class="edge">
<title>Node24&#45;&gt;Node25</title>
<path fill="none" stroke="midnightblue" d="M1085.52,-94.09C1109.99,-95.93 1135.42,-97.85 1158,-99.56"/>
<polygon fill="midnightblue" stroke="midnightblue" points="1157.92,-103.06 1168.16,-100.33 1158.45,-96.08 1157.92,-103.06"/>
</g>
<!-- Node28&#45;&gt;Node25 -->
<g id="edge33" class="edge">
<title>Node28&#45;&gt;Node25</title>
<path fill="none" stroke="midnightblue" d="M1039.22,-152.46C1055.15,-149.69 1072.27,-146.46 1088,-143 1121.85,-135.55 1159.75,-125.31 1187.88,-117.33"/>
<polygon fill="midnightblue" stroke="midnightblue" points="1189.12,-120.62 1197.77,-114.51 1187.2,-113.89 1189.12,-120.62"/>
</g>
<!-- Node30 -->
<g id="node30" class="node">
<title>Node30</title>
<g id="a_node30"><a xlink:href="classStreamManager.html#a9f70fad5bf4dd5108911c05af8f649e3" target="_top" xlink:title="Arrange frames into a composite grid. Supports up to 6 cameras.">
<polygon fill="white" stroke="black" points="608.5,-38.5 608.5,-57.5 792.5,-57.5 792.5,-38.5 608.5,-38.5"/>
<text text-anchor="middle" x="700.5" y="-45.5" font-family="Helvetica,sans-Serif" font-size="10.00">StreamManager::createComposite</text>
</a>
</g>
</g>
<!-- Node29&#45;&gt;Node30 -->
<g id="edge35" class="edge">
<title>Node29&#45;&gt;Node30</title>
<path fill="none" stroke="midnightblue" d="M534.37,-59.41C555.46,-57.95 577.45,-56.43 598.24,-55"/>
<polygon fill="midnightblue" stroke="midnightblue" points="598.61,-58.48 608.35,-54.3 598.13,-51.5 598.61,-58.48"/>
</g>
<!-- Node31 -->
<g id="node31" class="node">
<title>Node31</title>
<g id="a_node31"><a xlink:href="classStreamManager.html#a0257fcf9f99184dee55ffe95ab5a9c4c" target="_top" xlink:title=" ">
<polygon fill="white" stroke="black" points="601.5,-0.5 601.5,-19.5 799.5,-19.5 799.5,-0.5 601.5,-0.5"/>
<text text-anchor="middle" x="700.5" y="-7.5" font-family="Helvetica,sans-Serif" font-size="10.00">StreamManager::startFreeRunStream</text>
</a>
</g>
</g>
<!-- Node29&#45;&gt;Node31 -->
<g id="edge36" class="edge">
<title>Node29&#45;&gt;Node31</title>
<path fill="none" stroke="midnightblue" d="M456.91,-57.44C486.24,-49.06 530.73,-36.98 570,-29 584.38,-26.08 599.75,-23.42 614.7,-21.08"/>
<polygon fill="midnightblue" stroke="midnightblue" points="615.6,-24.48 624.95,-19.51 614.54,-17.56 615.6,-24.48"/>
</g>
<!-- Node32 -->
<g id="node32" class="node">
<title>Node32</title>
<g id="a_node32"><a xlink:href="classStreamManager.html#abfb94b1e01cc9952b575a78995532e30" target="_top" xlink:title=" ">
<polygon fill="white" stroke="black" points="614.5,-76.5 614.5,-95.5 786.5,-95.5 786.5,-76.5 614.5,-76.5"/>
<text text-anchor="middle" x="700.5" y="-83.5" font-family="Helvetica,sans-Serif" font-size="10.00">StreamManager::stopStreaming</text>
</a>
</g>
</g>
<!-- Node29&#45;&gt;Node32 -->
<g id="edge37" class="edge">
<title>Node29&#45;&gt;Node32</title>
<path fill="none" stroke="midnightblue" d="M534.37,-74.59C557.47,-76.19 581.64,-77.86 604.15,-79.41"/>
<polygon fill="midnightblue" stroke="midnightblue" points="604.15,-82.92 614.37,-80.12 604.63,-75.94 604.15,-82.92"/>
</g>
</g>
</svg>
        <g id="navigator" transform="translate(0 0)" fill="#404254">
                <rect fill="#f2f5e9" fill-opacity="0.5" stroke="#606060" stroke-width=".5" x="0" y="0" width="60" height="60"/>
                <use id="zoomplus" xlink:href="#zoomPlus" x="17" y="9" onmousedown="handleZoom(evt,'in')"/>
                <use id="zoomminus" xlink:href="#zoomMin" x="42" y="9" onmousedown="handleZoom(evt,'out')"/>
                <use id="reset" xlink:href="#resetDef" x="30" y="36" onmousedown="handleReset()"/>
                <g id="arrowUp" xlink:href="#dirArrow" transform="translate(30 24)" onmousedown="handlePan(0,-1)">
                  <use xlink:href="#rim" fill="#404040">
                        <set attributeName="fill" to="#808080" begin="arrowUp.mouseover" end="arrowUp.mouseout"/>
                  </use>
                  <path fill="none" stroke="white" stroke-width="1.5" d="M0,-3.0v7 M-2.5,-0.5L0,-3.0L2.5,-0.5"/>
                </g>
                <g id="arrowRight" xlink:href="#dirArrow" transform="rotate(90) translate(36 -43)" onmousedown="handlePan(1,0)">
                  <use xlink:href="#rim" fill="#404040">
                        <set attributeName="fill" to="#808080" begin="arrowRight.mouseover" end="arrowRight.mouseout"/>
                  </use>
                  <path fill="none" stroke="white" stroke-width="1.5" d="M0,-3.0v7 M-2.5,-0.5L0,-3.0L2.5,-0.5"/>
                </g>
                <g id="arrowDown" xlink:href="#dirArrow" transform="rotate(180) translate(-30 -48)" onmousedown="handlePan(0,1)">
                  <use xlink:href="#rim" fill="#404040">
                        <set attributeName="fill" to="#808080" begin="arrowDown.mouseover" end="arrowDown.mouseout"/>
                  </use>
                  <path fill="none" stroke="white" stroke-width="1.5" d="M0,-3.0v7 M-2.5,-0.5L0,-3.0L2.5,-0.5"/>
                </g>
                <g id="arrowLeft" xlink:href="#dirArrow" transform="rotate(270) translate(-36 17)" onmousedown="handlePan(-1,0)">
                  <use xlink:href="#rim" fill="#404040">
                        <set attributeName="fill" to="#808080" begin="arrowLeft.mouseover" end="arrowLeft.mouseout"/>
                  </use>
                  <path fill="none" stroke="white" stroke-width="1.5" d="M0,-3.0v7 M-2.5,-0.5L0,-3.0L2.5,-0.5"/>
                </g>
        </g>
        <svg viewBox="0 0 15 15" width="100%" height="30px" preserveAspectRatio="xMaxYMin meet">
         <g id="arrow_out" transform="scale(0.3 0.3)">
          <a xlink:href="main_8cpp_a0ddf1224851353fc92bfbff6f499fa97_cgraph_org.svg" target="_base">
           <rect id="button" ry="5" rx="5" y="6" x="6" height="38" width="38"
                fill="#f2f5e9" fill-opacity="0.5" stroke="#606060" stroke-width="1.0"/>
           <path id="arrow"
             d="M 11.500037,31.436501 C 11.940474,20.09759 22.043105,11.32322 32.158766,21.979434 L 37.068811,17.246167 C 37.068811,17.246167 37.088388,32 37.088388,32 L 22.160133,31.978069 C 22.160133,31.978069 26.997745,27.140456 26.997745,27.140456 C 18.528582,18.264221 13.291696,25.230495 11.500037,31.436501 z"
             style="fill:#404040;"/>
          </a>
         </g>
        </svg>
</svg>
