<?xml version="1.0" encoding="UTF-8" standalone="no"?>
<!DOCTYPE svg PUBLIC "-//W3C//DTD SVG 1.1//EN"
 "http://www.w3.org/Graphics/SVG/1.1/DTD/svg11.dtd">
<!-- Generated by graphviz version 2.43.0 (0)
 -->
<!-- Title: src/StreamManager.hpp Pages: 1 -->
<svg width="348pt" height="140pt"
 viewBox="0.00 0.00 347.50 140.00" xmlns="http://www.w3.org/2000/svg" xmlns:xlink="http://www.w3.org/1999/xlink">
<g id="graph0" class="graph" transform="scale(1 1) rotate(0) translate(4 136)">
<title>src/StreamManager.hpp</title>
<polygon fill="white" stroke="transparent" points="-4,4 -4,-136 343.5,-136 343.5,4 -4,4"/>
<!-- Node1 -->
<g id="node1" class="node">
<title>Node1</title>
<g id="a_node1"><a xlink:title=" ">
<polygon fill="#bfbfbf" stroke="black" points="93.5,-112.5 93.5,-131.5 225.5,-131.5 225.5,-112.5 93.5,-112.5"/>
<text text-anchor="middle" x="159.5" y="-119.5" font-family="Helvetica,sans-Serif" font-size="10.00">src/StreamManager.hpp</text>
</a>
</g>
</g>
<!-- Node2 -->
<g id="node2" class="node">
<title>Node2</title>
<g id="a_node2"><a xlink:href="StreamManager_8cpp.html" target="_top" xlink:title=" ">
<polygon fill="white" stroke="black" points="0,-56.5 0,-75.5 131,-75.5 131,-56.5 0,-56.5"/>
<text text-anchor="middle" x="65.5" y="-63.5" font-family="Helvetica,sans-Serif" font-size="10.00">src/StreamManager.cpp</text>
</a>
</g>
</g>
<!-- Node1&#45;&gt;Node2 -->
<g id="edge1" class="edge">
<title>Node1&#45;&gt;Node2</title>
<path fill="none" stroke="midnightblue" d="M135.44,-107.18C118.14,-97.24 95.35,-84.15 80.57,-75.65"/>
<polygon fill="midnightblue" stroke="midnightblue" points="133.98,-110.38 144.4,-112.32 137.47,-104.31 133.98,-110.38"/>
</g>
<!-- Node3 -->
<g id="node3" class="node">
<title>Node3</title>
<g id="a_node3"><a xlink:href="SystemManager_8cpp.html" target="_top" xlink:title=" ">
<polygon fill="white" stroke="black" points="93,-0.5 93,-19.5 226,-19.5 226,-0.5 93,-0.5"/>
<text text-anchor="middle" x="159.5" y="-7.5" font-family="Helvetica,sans-Serif" font-size="10.00">src/SystemManager.cpp</text>
</a>
</g>
</g>
<!-- Node1&#45;&gt;Node3 -->
<g id="edge2" class="edge">
<title>Node1&#45;&gt;Node3</title>
<path fill="none" stroke="midnightblue" d="M159.5,-102.35C159.5,-78.25 159.5,-37.31 159.5,-19.59"/>
<polygon fill="midnightblue" stroke="midnightblue" points="156,-102.37 159.5,-112.37 163,-102.37 156,-102.37"/>
</g>
<!-- Node4 -->
<g id="node4" class="node">
<title>Node4</title>
<g id="a_node4"><a xlink:href="SystemManager_8hpp.html" target="_top" xlink:title=" ">
<polygon fill="white" stroke="black" points="187.5,-56.5 187.5,-75.5 321.5,-75.5 321.5,-56.5 187.5,-56.5"/>
<text text-anchor="middle" x="254.5" y="-63.5" font-family="Helvetica,sans-Serif" font-size="10.00">src/SystemManager.hpp</text>
</a>
</g>
</g>
<!-- Node1&#45;&gt;Node4 -->
<g id="edge3" class="edge">
<title>Node1&#45;&gt;Node4</title>
<path fill="none" stroke="midnightblue" d="M183.82,-107.18C201.3,-97.24 224.33,-84.15 239.27,-75.65"/>
<polygon fill="midnightblue" stroke="midnightblue" points="181.73,-104.34 174.76,-112.32 185.19,-110.43 181.73,-104.34"/>
</g>
<!-- Node4&#45;&gt;Node3 -->
<g id="edge5" class="edge">
<title>Node4&#45;&gt;Node3</title>
<path fill="none" stroke="midnightblue" d="M230.18,-51.18C212.7,-41.24 189.67,-28.15 174.73,-19.65"/>
<polygon fill="midnightblue" stroke="midnightblue" points="228.81,-54.43 239.24,-56.32 232.27,-48.34 228.81,-54.43"/>
</g>
<!-- Node4&#45;&gt;Node4 -->
<g id="edge6" class="edge">
<title>Node4&#45;&gt;Node4</title>
<path fill="none" stroke="midnightblue" d="M300.77,-76.33C321.53,-77.33 339.5,-73.88 339.5,-66 339.5,-56.87 315.39,-53.69 290.75,-56.47"/>
<polygon fill="midnightblue" stroke="midnightblue" points="301,-72.84 290.75,-75.53 300.44,-79.82 301,-72.84"/>
</g>
<!-- Node5 -->
<g id="node5" class="node">
<title>Node5</title>
<g id="a_node5"><a xlink:href="main_8cpp.html" target="_top" xlink:title=" ">
<polygon fill="white" stroke="black" points="244,-0.5 244,-19.5 323,-19.5 323,-0.5 244,-0.5"/>
<text text-anchor="middle" x="283.5" y="-7.5" font-family="Helvetica,sans-Serif" font-size="10.00">src/main.cpp</text>
</a>
</g>
</g>
<!-- Node4&#45;&gt;Node5 -->
<g id="edge4" class="edge">
<title>Node4&#45;&gt;Node5</title>
<path fill="none" stroke="midnightblue" d="M264.18,-46.98C269.1,-37.82 274.86,-27.09 278.8,-19.75"/>
<polygon fill="midnightblue" stroke="midnightblue" points="260.94,-45.62 259.29,-56.08 267.1,-48.93 260.94,-45.62"/>
</g>
</g>
</svg>
