<?xml version="1.0" encoding="UTF-8" standalone="no"?>
<!DOCTYPE svg PUBLIC "-//W3C//DTD SVG 1.1//EN"
 "http://www.w3.org/Graphics/SVG/1.1/DTD/svg11.dtd">
<!-- Generated by graphviz version 2.43.0 (0)
 -->
<!-- Title: src/StreamManager.cpp Pages: 1 -->
<!--zoomable 252 -->
<svg id="main" version="1.1" xmlns="http://www.w3.org/2000/svg" xmlns:xlink="http://www.w3.org/1999/xlink" xml:space="preserve" onload="init(evt)">
<style type="text/css"><![CDATA[
.edge:hover path { stroke: red; }
.edge:hover polygon { stroke: red; fill: red; }
]]></style>
<script type="text/javascript"><![CDATA[
var edges = document.getElementsByTagName('g');
if (edges && edges.length) {
  for (var i=0;i<edges.length;i++) {
    if (edges[i].id.substr(0,4)=='edge') {
      edges[i].setAttribute('class','edge');
    }
  }
}
]]></script>
        <defs>
                <circle id="rim" cx="0" cy="0" r="7"/>
                <circle id="rim2" cx="0" cy="0" r="3.5"/>
                <g id="zoomPlus">
                        <use xlink:href="#rim" fill="#404040">
                                <set attributeName="fill" to="#808080" begin="zoomplus.mouseover" end="zoomplus.mouseout"/>
                        </use>
                        <path d="M-4,0h8M0,-4v8" fill="none" stroke="white" stroke-width="1.5" pointer-events="none"/>
                </g>
                <g id="zoomMin">
                        <use xlink:href="#rim" fill="#404040">
                                <set attributeName="fill" to="#808080" begin="zoomminus.mouseover" end="zoomminus.mouseout"/>
                        </use>
                        <path d="M-4,0h8" fill="none" stroke="white" stroke-width="1.5" pointer-events="none"/>
                </g>
                <g id="dirArrow">
                        <path fill="none" stroke="white" stroke-width="1.5" d="M0,-3.0v7 M-2.5,-0.5L0,-3.0L2.5,-0.5"/>
                </g>
               <g id="resetDef">
                       <use xlink:href="#rim2" fill="#404040">
                               <set attributeName="fill" to="#808080" begin="reset.mouseover" end="reset.mouseout"/>
                       </use>
               </g>
        </defs>

<script type="text/javascript">
var viewWidth = 2856;
var viewHeight = 252;
var sectionId = 'dynsection-0';
</script>
<script xlink:href="svgpan.js"/>
<svg id="graph" class="graph">
<g id="viewport">
<title>src/StreamManager.cpp</title>
<polygon fill="white" stroke="transparent" points="-4,4 -4,-248 2851.5,-248 2851.5,4 -4,4"/>
<!-- Node1 -->
<g id="node1" class="node">
<title>Node1</title>
<g id="a_node1"><a xlink:title=" ">
<polygon fill="#bfbfbf" stroke="black" points="1195,-224.5 1195,-243.5 1326,-243.5 1326,-224.5 1195,-224.5"/>
<text text-anchor="middle" x="1260.5" y="-231.5" font-family="Helvetica,sans-Serif" font-size="10.00">src/StreamManager.cpp</text>
</a>
</g>
</g>
<!-- Node2 -->
<g id="node2" class="node">
<title>Node2</title>
<g id="a_node2"><a xlink:href="StreamManager_8hpp.html" target="_top" xlink:title=" ">
<polygon fill="white" stroke="black" points="474,-168.5 474,-187.5 589,-187.5 589,-168.5 474,-168.5"/>
<text text-anchor="middle" x="531.5" y="-175.5" font-family="Helvetica,sans-Serif" font-size="10.00">StreamManager.hpp</text>
</a>
</g>
</g>
<!-- Node1&#45;&gt;Node2 -->
<g id="edge1" class="edge">
<title>Node1&#45;&gt;Node2</title>
<path fill="none" stroke="midnightblue" d="M1194.84,-228.14C1057.07,-217.93 739.03,-194.37 599.36,-184.03"/>
<polygon fill="midnightblue" stroke="midnightblue" points="599.45,-180.52 589.22,-183.28 598.93,-187.5 599.45,-180.52"/>
</g>
<!-- Node3 -->
<g id="node3" class="node">
<title>Node3</title>
<g id="a_node3"><a xlink:title=" ">
<polygon fill="white" stroke="#bfbfbf" points="722.5,-0.5 722.5,-19.5 838.5,-19.5 838.5,-0.5 722.5,-0.5"/>
<text text-anchor="middle" x="780.5" y="-7.5" font-family="Helvetica,sans-Serif" font-size="10.00">opencv2/opencv.hpp</text>
</a>
</g>
</g>
<!-- Node1&#45;&gt;Node3 -->
<g id="edge71" class="edge">
<title>Node1&#45;&gt;Node3</title>
<path fill="none" stroke="midnightblue" d="M1231.93,-224.45C1208.35,-216.75 1174.5,-204.15 1147.5,-188 1108.38,-164.6 1031.44,-76.04 990.5,-56 965.22,-43.63 896.75,-30.2 844.81,-21.27"/>
<polygon fill="midnightblue" stroke="midnightblue" points="845.1,-17.77 834.66,-19.54 843.93,-24.67 845.1,-17.77"/>
</g>
<!-- Node4 -->
<g id="node4" class="node">
<title>Node4</title>
<g id="a_node4"><a xlink:href="Camera_8hpp.html" target="_top" xlink:title=" ">
<polygon fill="white" stroke="black" points="679.5,-56.5 679.5,-75.5 755.5,-75.5 755.5,-56.5 679.5,-56.5"/>
<text text-anchor="middle" x="717.5" y="-63.5" font-family="Helvetica,sans-Serif" font-size="10.00">Camera.hpp</text>
</a>
</g>
</g>
<!-- Node1&#45;&gt;Node4 -->
<g id="edge62" class="edge">
<title>Node1&#45;&gt;Node4</title>
<path fill="none" stroke="midnightblue" d="M1194.86,-228.88C1069.58,-219.69 803,-193.29 737.5,-132 724.85,-120.16 720.13,-100.53 718.41,-85.94"/>
<polygon fill="midnightblue" stroke="midnightblue" points="721.86,-85.24 717.57,-75.56 714.88,-85.8 721.86,-85.24"/>
</g>
<!-- Node6 -->
<g id="node6" class="node">
<title>Node6</title>
<g id="a_node6"><a xlink:title=" ">
<polygon fill="white" stroke="#bfbfbf" points="857,-0.5 857,-19.5 990,-19.5 990,-0.5 857,-0.5"/>
<text text-anchor="middle" x="923.5" y="-7.5" font-family="Helvetica,sans-Serif" font-size="10.00">rc_genicam_api/buffer.h</text>
</a>
</g>
</g>
<!-- Node1&#45;&gt;Node6 -->
<g id="edge67" class="edge">
<title>Node1&#45;&gt;Node6</title>
<path fill="none" stroke="midnightblue" d="M1242.29,-224.35C1225.24,-215.94 1199.36,-202.38 1178.5,-188 1104.01,-136.63 1099.96,-104.38 1023.5,-56 1002.49,-42.7 976.88,-31.26 956.84,-23.24"/>
<polygon fill="midnightblue" stroke="midnightblue" points="958.08,-19.97 947.49,-19.59 955.53,-26.49 958.08,-19.97"/>
</g>
<!-- Node7 -->
<g id="node7" class="node">
<title>Node7</title>
<g id="a_node7"><a xlink:title=" ">
<polygon fill="white" stroke="#bfbfbf" points="1199,-0.5 1199,-19.5 1336,-19.5 1336,-0.5 1199,-0.5"/>
<text text-anchor="middle" x="1267.5" y="-7.5" font-family="Helvetica,sans-Serif" font-size="10.00">rc_genicam_api/device.h</text>
</a>
</g>
</g>
<!-- Node1&#45;&gt;Node7 -->
<g id="edge65" class="edge">
<title>Node1&#45;&gt;Node7</title>
<path fill="none" stroke="midnightblue" d="M1250.63,-224.15C1222.24,-197.6 1144.73,-116.74 1181.5,-56 1190.91,-40.46 1207.65,-30.02 1223.88,-23.15"/>
<polygon fill="midnightblue" stroke="midnightblue" points="1225.25,-26.37 1233.32,-19.51 1222.73,-19.85 1225.25,-26.37"/>
</g>
<!-- Node8 -->
<g id="node8" class="node">
<title>Node8</title>
<g id="a_node8"><a xlink:title=" ">
<polygon fill="white" stroke="#bfbfbf" points="1008.5,-0.5 1008.5,-19.5 1180.5,-19.5 1180.5,-0.5 1008.5,-0.5"/>
<text text-anchor="middle" x="1094.5" y="-7.5" font-family="Helvetica,sans-Serif" font-size="10.00">rc_genicam_api/pixel_formats.h</text>
</a>
</g>
</g>
<!-- Node1&#45;&gt;Node8 -->
<g id="edge72" class="edge">
<title>Node1&#45;&gt;Node8</title>
<path fill="none" stroke="midnightblue" d="M1245.37,-224.48C1231.91,-216.37 1212.27,-203.17 1198.5,-188 1152.46,-137.28 1116.93,-62.95 1102.08,-29.05"/>
<polygon fill="midnightblue" stroke="midnightblue" points="1105.16,-27.35 1098,-19.55 1098.73,-30.12 1105.16,-27.35"/>
</g>
<!-- Node9 -->
<g id="node9" class="node">
<title>Node9</title>
<g id="a_node9"><a xlink:title=" ">
<polygon fill="white" stroke="#bfbfbf" points="400.5,-0.5 400.5,-19.5 450.5,-19.5 450.5,-0.5 400.5,-0.5"/>
<text text-anchor="middle" x="425.5" y="-7.5" font-family="Helvetica,sans-Serif" font-size="10.00">atomic</text>
</a>
</g>
</g>
<!-- Node1&#45;&gt;Node9 -->
<g id="edge74" class="edge">
<title>Node1&#45;&gt;Node9</title>
<path fill="none" stroke="midnightblue" d="M1195,-231.96C992.17,-228.47 383.04,-215.77 298.5,-188 222.6,-163.07 124.89,-116.97 176.5,-56 206.09,-21.05 329.55,-29.13 390.41,-19.76"/>
<polygon fill="midnightblue" stroke="midnightblue" points="391.11,-23.19 400.31,-17.95 389.85,-16.3 391.11,-23.19"/>
</g>
<!-- Node11 -->
<g id="node11" class="node">
<title>Node11</title>
<g id="a_node11"><a xlink:title=" ">
<polygon fill="white" stroke="#bfbfbf" points="324.5,-0.5 324.5,-19.5 382.5,-19.5 382.5,-0.5 324.5,-0.5"/>
<text text-anchor="middle" x="353.5" y="-7.5" font-family="Helvetica,sans-Serif" font-size="10.00">memory</text>
</a>
</g>
</g>
<!-- Node1&#45;&gt;Node11 -->
<g id="edge78" class="edge">
<title>Node1&#45;&gt;Node11</title>
<path fill="none" stroke="midnightblue" d="M1194.94,-232.27C984.25,-229.61 332.9,-218.97 243.5,-188 178.24,-165.4 118.6,-110.12 161.5,-56 180.16,-32.46 263.49,-20.04 314.03,-14.57"/>
<polygon fill="midnightblue" stroke="midnightblue" points="314.7,-18.01 324.29,-13.5 313.98,-11.05 314.7,-18.01"/>
</g>
<!-- Node12 -->
<g id="node12" class="node">
<title>Node12</title>
<g id="a_node12"><a xlink:title=" ">
<polygon fill="white" stroke="#bfbfbf" points="2082.5,-0.5 2082.5,-19.5 2130.5,-19.5 2130.5,-0.5 2082.5,-0.5"/>
<text text-anchor="middle" x="2106.5" y="-7.5" font-family="Helvetica,sans-Serif" font-size="10.00">mutex</text>
</a>
</g>
</g>
<!-- Node1&#45;&gt;Node12 -->
<g id="edge85" class="edge">
<title>Node1&#45;&gt;Node12</title>
<path fill="none" stroke="midnightblue" d="M1326.29,-231.52C1521.29,-226.89 2087.58,-211.55 2167.5,-188 2243.27,-165.67 2335.11,-118.26 2286.5,-56 2268.76,-33.28 2187.86,-20.33 2140.77,-14.6"/>
<polygon fill="midnightblue" stroke="midnightblue" points="2141.05,-11.11 2130.71,-13.42 2140.23,-18.06 2141.05,-11.11"/>
</g>
<!-- Node13 -->
<g id="node13" class="node">
<title>Node13</title>
<g id="a_node13"><a xlink:title=" ">
<polygon fill="white" stroke="#bfbfbf" points="1794.5,-0.5 1794.5,-19.5 1838.5,-19.5 1838.5,-0.5 1794.5,-0.5"/>
<text text-anchor="middle" x="1816.5" y="-7.5" font-family="Helvetica,sans-Serif" font-size="10.00">string</text>
</a>
</g>
</g>
<!-- Node1&#45;&gt;Node13 -->
<g id="edge79" class="edge">
<title>Node1&#45;&gt;Node13</title>
<path fill="none" stroke="midnightblue" d="M1326.29,-232.24C1497.82,-229.81 1955.68,-220.39 2103.5,-188 2169.37,-173.57 2204.66,-186.4 2244.5,-132 2264.48,-104.71 2271.14,-81.13 2248.5,-56 2221.83,-26.4 1944.74,-15 1848.9,-11.93"/>
<polygon fill="midnightblue" stroke="midnightblue" points="1848.76,-8.42 1838.65,-11.61 1848.54,-15.42 1848.76,-8.42"/>
</g>
<!-- Node14 -->
<g id="node14" class="node">
<title>Node14</title>
<g id="a_node14"><a xlink:title=" ">
<polygon fill="white" stroke="#bfbfbf" points="0,-0.5 0,-19.5 47,-19.5 47,-0.5 0,-0.5"/>
<text text-anchor="middle" x="23.5" y="-7.5" font-family="Helvetica,sans-Serif" font-size="10.00">vector</text>
</a>
</g>
</g>
<!-- Node1&#45;&gt;Node14 -->
<g id="edge84" class="edge">
<title>Node1&#45;&gt;Node14</title>
<path fill="none" stroke="midnightblue" d="M1194.86,-233C977.42,-232.61 289.25,-228.17 198.5,-188 120.15,-153.32 58.19,-66.18 34.23,-28.65"/>
<polygon fill="midnightblue" stroke="midnightblue" points="37,-26.47 28.73,-19.85 31.06,-30.18 37,-26.47"/>
</g>
<!-- Node15 -->
<g id="node15" class="node">
<title>Node15</title>
<g id="a_node15"><a xlink:title=" ">
<polygon fill="white" stroke="#bfbfbf" points="468.5,-0.5 468.5,-19.5 518.5,-19.5 518.5,-0.5 468.5,-0.5"/>
<text text-anchor="middle" x="493.5" y="-7.5" font-family="Helvetica,sans-Serif" font-size="10.00">chrono</text>
</a>
</g>
</g>
<!-- Node1&#45;&gt;Node15 -->
<g id="edge81" class="edge">
<title>Node1&#45;&gt;Node15</title>
<path fill="none" stroke="midnightblue" d="M1194.8,-231.73C1000.78,-227.7 438.95,-213.91 360.5,-188 275.99,-160.09 236.06,-154.7 194.5,-76 159.72,-10.14 170.04,-76.18 458.4,-20"/>
<polygon fill="midnightblue" stroke="midnightblue" points="459.2,-23.41 468.33,-18.03 457.84,-16.54 459.2,-23.41"/>
</g>
<!-- Node17 -->
<g id="node17" class="node">
<title>Node17</title>
<g id="a_node17"><a xlink:title=" ">
<polygon fill="white" stroke="#bfbfbf" points="1190,-56.5 1190,-75.5 1331,-75.5 1331,-56.5 1190,-56.5"/>
<text text-anchor="middle" x="1260.5" y="-63.5" font-family="Helvetica,sans-Serif" font-size="10.00">rc_genicam_api/system.h</text>
</a>
</g>
</g>
<!-- Node1&#45;&gt;Node17 -->
<g id="edge63" class="edge">
<title>Node1&#45;&gt;Node17</title>
<path fill="none" stroke="midnightblue" d="M1260.5,-224.08C1260.5,-197.95 1260.5,-121.21 1260.5,-85.58"/>
<polygon fill="midnightblue" stroke="midnightblue" points="1264,-85.57 1260.5,-75.57 1257,-85.57 1264,-85.57"/>
</g>
<!-- Node18 -->
<g id="node18" class="node">
<title>Node18</title>
<g id="a_node18"><a xlink:title=" ">
<polygon fill="white" stroke="#bfbfbf" points="1349,-56.5 1349,-75.5 1498,-75.5 1498,-56.5 1349,-56.5"/>
<text text-anchor="middle" x="1423.5" y="-63.5" font-family="Helvetica,sans-Serif" font-size="10.00">rc_genicam_api/interface.h</text>
</a>
</g>
</g>
<!-- Node1&#45;&gt;Node18 -->
<g id="edge64" class="edge">
<title>Node1&#45;&gt;Node18</title>
<path fill="none" stroke="midnightblue" d="M1269.26,-224.08C1295.59,-197.27 1374.22,-117.19 1407.9,-82.89"/>
<polygon fill="midnightblue" stroke="midnightblue" points="1410.58,-85.16 1415.09,-75.57 1405.58,-80.25 1410.58,-85.16"/>
</g>
<!-- Node19 -->
<g id="node19" class="node">
<title>Node19</title>
<g id="a_node19"><a xlink:title=" ">
<polygon fill="white" stroke="#bfbfbf" points="1516.5,-56.5 1516.5,-75.5 1688.5,-75.5 1688.5,-56.5 1516.5,-56.5"/>
<text text-anchor="middle" x="1602.5" y="-63.5" font-family="Helvetica,sans-Serif" font-size="10.00">rc_genicam_api/nodemap_out.h</text>
</a>
</g>
</g>
<!-- Node1&#45;&gt;Node19 -->
<g id="edge70" class="edge">
<title>Node1&#45;&gt;Node19</title>
<path fill="none" stroke="midnightblue" d="M1278.41,-224.31C1334.73,-196.97 1508.55,-112.6 1575.67,-80.02"/>
<polygon fill="midnightblue" stroke="midnightblue" points="1577.3,-83.12 1584.77,-75.61 1574.25,-76.82 1577.3,-83.12"/>
</g>
<!-- Node20 -->
<g id="node20" class="node">
<title>Node20</title>
<g id="a_node20"><a xlink:title=" ">
<polygon fill="white" stroke="#bfbfbf" points="1706.5,-56.5 1706.5,-75.5 1766.5,-75.5 1766.5,-56.5 1706.5,-56.5"/>
<text text-anchor="middle" x="1736.5" y="-63.5" font-family="Helvetica,sans-Serif" font-size="10.00">iostream</text>
</a>
</g>
</g>
<!-- Node1&#45;&gt;Node20 -->
<g id="edge73" class="edge">
<title>Node1&#45;&gt;Node20</title>
<path fill="none" stroke="midnightblue" d="M1285.09,-224.42C1364.08,-196.88 1611.53,-110.58 1702.5,-78.86"/>
<polygon fill="midnightblue" stroke="midnightblue" points="1703.77,-82.12 1712.06,-75.52 1701.46,-75.51 1703.77,-82.12"/>
</g>
<!-- Node21 -->
<g id="node21" class="node">
<title>Node21</title>
<g id="a_node21"><a xlink:title=" ">
<polygon fill="white" stroke="#bfbfbf" points="916,-56.5 916,-75.5 981,-75.5 981,-56.5 916,-56.5"/>
<text text-anchor="middle" x="948.5" y="-63.5" font-family="Helvetica,sans-Serif" font-size="10.00">stdexcept</text>
</a>
</g>
</g>
<!-- Node1&#45;&gt;Node21 -->
<g id="edge80" class="edge">
<title>Node1&#45;&gt;Node21</title>
<path fill="none" stroke="midnightblue" d="M1194.85,-229.19C1126.49,-223.96 1025.29,-212.3 995.5,-188 964.02,-162.32 953.57,-112.82 950.14,-85.77"/>
<polygon fill="midnightblue" stroke="midnightblue" points="953.61,-85.26 949.06,-75.69 946.65,-86 953.61,-85.26"/>
</g>
<!-- Node22 -->
<g id="node22" class="node">
<title>Node22</title>
<g id="a_node22"><a xlink:title=" ">
<polygon fill="white" stroke="#bfbfbf" points="203.5,-56.5 203.5,-75.5 251.5,-75.5 251.5,-56.5 203.5,-56.5"/>
<text text-anchor="middle" x="227.5" y="-63.5" font-family="Helvetica,sans-Serif" font-size="10.00">thread</text>
</a>
</g>
</g>
<!-- Node1&#45;&gt;Node22 -->
<g id="edge75" class="edge">
<title>Node1&#45;&gt;Node22</title>
<path fill="none" stroke="midnightblue" d="M1194.85,-231.56C1007.73,-227.19 480.4,-212.78 406.5,-188 338.88,-165.33 272.97,-109.59 243.53,-82.41"/>
<polygon fill="midnightblue" stroke="midnightblue" points="245.9,-79.84 236.22,-75.55 241.11,-84.95 245.9,-79.84"/>
</g>
<!-- Node23 -->
<g id="node23" class="node">
<title>Node23</title>
<g id="a_node23"><a xlink:title=" ">
<polygon fill="white" stroke="#bfbfbf" points="2022.5,-56.5 2022.5,-75.5 2078.5,-75.5 2078.5,-56.5 2022.5,-56.5"/>
<text text-anchor="middle" x="2050.5" y="-63.5" font-family="Helvetica,sans-Serif" font-size="10.00">iomanip</text>
</a>
</g>
</g>
<!-- Node1&#45;&gt;Node23 -->
<g id="edge77" class="edge">
<title>Node1&#45;&gt;Node23</title>
<path fill="none" stroke="midnightblue" d="M1326.07,-232.88C1420.51,-231.38 1599.73,-223.54 1747.5,-188 1854.6,-162.24 1973.83,-105.79 2024.96,-80.15"/>
<polygon fill="midnightblue" stroke="midnightblue" points="2026.63,-83.22 2033.98,-75.59 2023.47,-76.98 2026.63,-83.22"/>
</g>
<!-- Node24 -->
<g id="node24" class="node">
<title>Node24</title>
<g id="a_node24"><a xlink:title=" ">
<polygon fill="white" stroke="#bfbfbf" points="270,-56.5 270,-75.5 321,-75.5 321,-56.5 270,-56.5"/>
<text text-anchor="middle" x="295.5" y="-63.5" font-family="Helvetica,sans-Serif" font-size="10.00">csignal</text>
</a>
</g>
</g>
<!-- Node1&#45;&gt;Node24 -->
<g id="edge76" class="edge">
<title>Node1&#45;&gt;Node24</title>
<path fill="none" stroke="midnightblue" d="M1194.7,-232.75C1029.8,-231.57 602.3,-224.94 465.5,-188 412.54,-173.7 399.23,-165.12 355.5,-132 337.05,-118.03 319.53,-97.98 308.23,-83.85"/>
<polygon fill="midnightblue" stroke="midnightblue" points="310.97,-81.66 302.06,-75.92 305.44,-85.96 310.97,-81.66"/>
</g>
<!-- Node25 -->
<g id="node25" class="node">
<title>Node25</title>
<g id="a_node25"><a xlink:title=" ">
<polygon fill="white" stroke="#bfbfbf" points="1872.5,-56.5 1872.5,-75.5 1904.5,-75.5 1904.5,-56.5 1872.5,-56.5"/>
<text text-anchor="middle" x="1888.5" y="-63.5" font-family="Helvetica,sans-Serif" font-size="10.00">set</text>
</a>
</g>
</g>
<!-- Node1&#45;&gt;Node25 -->
<g id="edge83" class="edge">
<title>Node1&#45;&gt;Node25</title>
<path fill="none" stroke="midnightblue" d="M1326.13,-233.66C1414.35,-232.91 1575.25,-225.79 1706.5,-188 1760.36,-172.49 1773.49,-164.01 1819.5,-132 1840.05,-117.7 1860.55,-97.44 1873.79,-83.35"/>
<polygon fill="midnightblue" stroke="midnightblue" points="1876.49,-85.59 1880.7,-75.87 1871.35,-80.84 1876.49,-85.59"/>
</g>
<!-- Node30 -->
<g id="node30" class="node">
<title>Node30</title>
<g id="a_node30"><a xlink:href="DeviceManager_8hpp.html" target="_top" xlink:title=" ">
<polygon fill="white" stroke="black" points="1697,-112.5 1697,-131.5 1810,-131.5 1810,-112.5 1697,-112.5"/>
<text text-anchor="middle" x="1753.5" y="-119.5" font-family="Helvetica,sans-Serif" font-size="10.00">DeviceManager.hpp</text>
</a>
</g>
</g>
<!-- Node1&#45;&gt;Node30 -->
<g id="edge43" class="edge">
<title>Node1&#45;&gt;Node30</title>
<path fill="none" stroke="midnightblue" d="M1326.31,-230.62C1427.48,-226.18 1616,-214.55 1677.5,-188 1702.79,-177.08 1725.91,-154.74 1739.85,-139.32"/>
<polygon fill="midnightblue" stroke="midnightblue" points="1742.67,-141.42 1746.61,-131.58 1737.39,-136.82 1742.67,-141.42"/>
</g>
<!-- Node31 -->
<g id="node31" class="node">
<title>Node31</title>
<g id="a_node31"><a xlink:title=" ">
<polygon fill="white" stroke="#bfbfbf" points="2096.5,-56.5 2096.5,-75.5 2152.5,-75.5 2152.5,-56.5 2096.5,-56.5"/>
<text text-anchor="middle" x="2124.5" y="-63.5" font-family="Helvetica,sans-Serif" font-size="10.00">sstream</text>
</a>
</g>
</g>
<!-- Node1&#45;&gt;Node31 -->
<g id="edge82" class="edge">
<title>Node1&#45;&gt;Node31</title>
<path fill="none" stroke="midnightblue" d="M1326.26,-232.98C1427.87,-231.71 1628.63,-224.29 1794.5,-188 1866.05,-172.35 1880.72,-157.2 1949.5,-132 1999.22,-113.79 2056.75,-92.35 2091.87,-79.22"/>
<polygon fill="midnightblue" stroke="midnightblue" points="2093.45,-82.36 2101.59,-75.58 2091,-75.81 2093.45,-82.36"/>
</g>
<!-- Node34 -->
<g id="node34" class="node">
<title>Node34</title>
<g id="a_node34"><a xlink:href="GlobalSettings_8hpp.html" target="_top" xlink:title=" ">
<polygon fill="white" stroke="black" points="2126,-112.5 2126,-131.5 2235,-131.5 2235,-112.5 2126,-112.5"/>
<text text-anchor="middle" x="2180.5" y="-119.5" font-family="Helvetica,sans-Serif" font-size="10.00">GlobalSettings.hpp</text>
</a>
</g>
</g>
<!-- Node1&#45;&gt;Node34 -->
<g id="edge55" class="edge">
<title>Node1&#45;&gt;Node34</title>
<path fill="none" stroke="midnightblue" d="M1326.19,-233.23C1492.96,-233.2 1929.29,-229.07 2067.5,-188 2103.38,-177.34 2140.06,-153.33 2161.53,-137.66"/>
<polygon fill="midnightblue" stroke="midnightblue" points="2163.84,-140.31 2169.76,-131.52 2159.65,-134.7 2163.84,-140.31"/>
</g>
<!-- Node35 -->
<g id="node35" class="node">
<title>Node35</title>
<g id="a_node35"><a xlink:title=" ">
<polygon fill="white" stroke="#bfbfbf" points="2369.5,-168.5 2369.5,-187.5 2509.5,-187.5 2509.5,-168.5 2369.5,-168.5"/>
<text text-anchor="middle" x="2439.5" y="-175.5" font-family="Helvetica,sans-Serif" font-size="10.00">rc_genicam_api/stream.h</text>
</a>
</g>
</g>
<!-- Node1&#45;&gt;Node35 -->
<g id="edge66" class="edge">
<title>Node1&#45;&gt;Node35</title>
<path fill="none" stroke="midnightblue" d="M1326.31,-231.8C1496.63,-228.37 1965.81,-216.85 2355.5,-188 2356.78,-187.91 2358.06,-187.81 2359.36,-187.71"/>
<polygon fill="midnightblue" stroke="midnightblue" points="2359.73,-191.19 2369.4,-186.86 2359.15,-184.21 2359.73,-191.19"/>
</g>
<!-- Node36 -->
<g id="node36" class="node">
<title>Node36</title>
<g id="a_node36"><a xlink:title=" ">
<polygon fill="white" stroke="#bfbfbf" points="2527.5,-168.5 2527.5,-187.5 2663.5,-187.5 2663.5,-168.5 2527.5,-168.5"/>
<text text-anchor="middle" x="2595.5" y="-175.5" font-family="Helvetica,sans-Serif" font-size="10.00">rc_genicam_api/image.h</text>
</a>
</g>
</g>
<!-- Node1&#45;&gt;Node36 -->
<g id="edge68" class="edge">
<title>Node1&#45;&gt;Node36</title>
<path fill="none" stroke="midnightblue" d="M1326.09,-232.52C1511.42,-230.75 2055.03,-222.82 2516.88,-188.06"/>
<polygon fill="midnightblue" stroke="midnightblue" points="2517.39,-191.53 2527.09,-187.29 2516.86,-184.55 2517.39,-191.53"/>
</g>
<!-- Node37 -->
<g id="node37" class="node">
<title>Node37</title>
<g id="a_node37"><a xlink:title=" ">
<polygon fill="white" stroke="#bfbfbf" points="2681.5,-168.5 2681.5,-187.5 2847.5,-187.5 2847.5,-168.5 2681.5,-168.5"/>
<text text-anchor="middle" x="2764.5" y="-175.5" font-family="Helvetica,sans-Serif" font-size="10.00">rc_genicam_api/image_store.h</text>
</a>
</g>
</g>
<!-- Node1&#45;&gt;Node37 -->
<g id="edge69" class="edge">
<title>Node1&#45;&gt;Node37</title>
<path fill="none" stroke="midnightblue" d="M1326.02,-232.44C1526,-230.41 2146.3,-221.68 2671.23,-188.04"/>
<polygon fill="midnightblue" stroke="midnightblue" points="2671.52,-191.52 2681.28,-187.39 2671.07,-184.54 2671.52,-191.52"/>
</g>
<!-- Node2&#45;&gt;Node3 -->
<g id="edge2" class="edge">
<title>Node2&#45;&gt;Node3</title>
<path fill="none" stroke="midnightblue" d="M527.16,-168.44C516.83,-146.77 493.68,-89.07 521.5,-56 527.67,-48.66 637.41,-31.56 712.04,-20.68"/>
<polygon fill="midnightblue" stroke="midnightblue" points="712.93,-24.09 722.32,-19.19 711.92,-17.16 712.93,-24.09"/>
</g>
<!-- Node2&#45;&gt;Node4 -->
<g id="edge3" class="edge">
<title>Node2&#45;&gt;Node4</title>
<path fill="none" stroke="midnightblue" d="M567.38,-168.49C593.03,-161.34 627.61,-149.46 654.5,-132 674.58,-118.96 693.08,-98.41 704.76,-83.92"/>
<polygon fill="midnightblue" stroke="midnightblue" points="707.71,-85.83 711.11,-75.8 702.19,-81.52 707.71,-85.83"/>
</g>
<!-- Node2&#45;&gt;Node9 -->
<g id="edge35" class="edge">
<title>Node2&#45;&gt;Node9</title>
<path fill="none" stroke="midnightblue" d="M473.93,-168.9C385.74,-155.09 224.25,-123.76 194.5,-76 131.21,25.61 25.41,-99.95 390.48,-20.08"/>
<polygon fill="midnightblue" stroke="midnightblue" points="391.29,-23.48 400.3,-17.9 389.78,-16.65 391.29,-23.48"/>
</g>
<!-- Node2&#45;&gt;Node12 -->
<g id="edge39" class="edge">
<title>Node2&#45;&gt;Node12</title>
<path fill="none" stroke="midnightblue" d="M589.2,-171.51C657.97,-164.51 776.2,-150.97 876.5,-132 1013.77,-106.03 1043.29,-76.38 1181.5,-56 1270.81,-42.83 1915.35,-18.13 2072.17,-12.27"/>
<polygon fill="midnightblue" stroke="midnightblue" points="2072.34,-15.77 2082.2,-11.9 2072.08,-8.77 2072.34,-15.77"/>
</g>
<!-- Node2&#45;&gt;Node14 -->
<g id="edge41" class="edge">
<title>Node2&#45;&gt;Node14</title>
<path fill="none" stroke="midnightblue" d="M473.83,-173.58C415.47,-168.81 323.28,-157.64 247.5,-132 167.99,-105.1 83.18,-51.52 44.68,-25.65"/>
<polygon fill="midnightblue" stroke="midnightblue" points="46.17,-22.43 35.93,-19.71 42.23,-28.22 46.17,-22.43"/>
</g>
<!-- Node2&#45;&gt;Node15 -->
<g id="edge36" class="edge">
<title>Node2&#45;&gt;Node15</title>
<path fill="none" stroke="midnightblue" d="M518.72,-168.37C508.11,-160.36 493.77,-147.38 487.5,-132 473.59,-97.88 481.53,-53.8 487.92,-29.37"/>
<polygon fill="midnightblue" stroke="midnightblue" points="491.32,-30.2 490.67,-19.63 484.59,-28.3 491.32,-30.2"/>
</g>
<!-- Node16 -->
<g id="node16" class="node">
<title>Node16</title>
<g id="a_node16"><a xlink:href="NetworkManager_8hpp.html" target="_top" xlink:title=" ">
<polygon fill="white" stroke="black" points="746,-112.5 746,-131.5 867,-131.5 867,-112.5 746,-112.5"/>
<text text-anchor="middle" x="806.5" y="-119.5" font-family="Helvetica,sans-Serif" font-size="10.00">NetworkManager.hpp</text>
</a>
</g>
</g>
<!-- Node2&#45;&gt;Node16 -->
<g id="edge16" class="edge">
<title>Node2&#45;&gt;Node16</title>
<path fill="none" stroke="midnightblue" d="M575.07,-168.44C623.35,-158.96 701.21,-143.67 753.11,-133.48"/>
<polygon fill="midnightblue" stroke="midnightblue" points="753.99,-136.88 763.13,-131.52 752.64,-130.01 753.99,-136.88"/>
</g>
<!-- Node2&#45;&gt;Node22 -->
<g id="edge40" class="edge">
<title>Node2&#45;&gt;Node22</title>
<path fill="none" stroke="midnightblue" d="M486.91,-168.44C450.83,-160.83 399.04,-148.39 355.5,-132 317.44,-117.67 275.9,-95.2 250.78,-80.79"/>
<polygon fill="midnightblue" stroke="midnightblue" points="252.4,-77.69 242,-75.7 248.89,-83.74 252.4,-77.69"/>
</g>
<!-- Node2&#45;&gt;Node24 -->
<g id="edge37" class="edge">
<title>Node2&#45;&gt;Node24</title>
<path fill="none" stroke="midnightblue" d="M496.19,-168.48C467.46,-160.87 426.27,-148.39 392.5,-132 363.53,-117.94 333.17,-96.31 314.29,-81.91"/>
<polygon fill="midnightblue" stroke="midnightblue" points="316.29,-79.03 306.24,-75.67 312,-84.56 316.29,-79.03"/>
</g>
<!-- Node28 -->
<g id="node28" class="node">
<title>Node28</title>
<g id="a_node28"><a xlink:title=" ">
<polygon fill="white" stroke="#bfbfbf" points="530,-112.5 530,-131.5 595,-131.5 595,-112.5 530,-112.5"/>
<text text-anchor="middle" x="562.5" y="-119.5" font-family="Helvetica,sans-Serif" font-size="10.00">functional</text>
</a>
</g>
</g>
<!-- Node2&#45;&gt;Node28 -->
<g id="edge38" class="edge">
<title>Node2&#45;&gt;Node28</title>
<path fill="none" stroke="midnightblue" d="M536.62,-168.08C540.91,-160.61 547.16,-149.72 552.44,-140.52"/>
<polygon fill="midnightblue" stroke="midnightblue" points="555.53,-142.17 557.48,-131.75 549.46,-138.68 555.53,-142.17"/>
</g>
<!-- Node29 -->
<g id="node29" class="node">
<title>Node29</title>
<g id="a_node29"><a xlink:title=" ">
<polygon fill="white" stroke="#bfbfbf" points="613.5,-112.5 613.5,-131.5 645.5,-131.5 645.5,-112.5 613.5,-112.5"/>
<text text-anchor="middle" x="629.5" y="-119.5" font-family="Helvetica,sans-Serif" font-size="10.00">list</text>
</a>
</g>
</g>
<!-- Node2&#45;&gt;Node29 -->
<g id="edge42" class="edge">
<title>Node2&#45;&gt;Node29</title>
<path fill="none" stroke="midnightblue" d="M547.25,-168.32C562.82,-159.74 586.88,-146.49 604.96,-136.52"/>
<polygon fill="midnightblue" stroke="midnightblue" points="606.72,-139.55 613.79,-131.65 603.35,-133.42 606.72,-139.55"/>
</g>
<!-- Node4&#45;&gt;Node3 -->
<g id="edge5" class="edge">
<title>Node4&#45;&gt;Node3</title>
<path fill="none" stroke="midnightblue" d="M727.62,-56.32C737.03,-48.26 751.24,-36.08 762.57,-26.37"/>
<polygon fill="midnightblue" stroke="midnightblue" points="764.88,-29 770.19,-19.83 760.32,-23.68 764.88,-29"/>
</g>
<!-- Node5 -->
<g id="node5" class="node">
<title>Node5</title>
<g id="a_node5"><a xlink:title=" ">
<polygon fill="white" stroke="#bfbfbf" points="537,-0.5 537,-19.5 636,-19.5 636,-0.5 537,-0.5"/>
<text text-anchor="middle" x="586.5" y="-7.5" font-family="Helvetica,sans-Serif" font-size="10.00">GenApi/GenApi.h</text>
</a>
</g>
</g>
<!-- Node4&#45;&gt;Node5 -->
<g id="edge4" class="edge">
<title>Node4&#45;&gt;Node5</title>
<path fill="none" stroke="midnightblue" d="M696.74,-56.44C675.18,-47.56 641.24,-33.56 616.71,-23.45"/>
<polygon fill="midnightblue" stroke="midnightblue" points="617.74,-20.09 607.16,-19.52 615.07,-26.56 617.74,-20.09"/>
</g>
<!-- Node4&#45;&gt;Node6 -->
<g id="edge6" class="edge">
<title>Node4&#45;&gt;Node6</title>
<path fill="none" stroke="midnightblue" d="M750.14,-56.44C785.55,-47.16 842.21,-32.31 881.05,-22.13"/>
<polygon fill="midnightblue" stroke="midnightblue" points="882.23,-25.44 891.01,-19.52 880.45,-18.67 882.23,-25.44"/>
</g>
<!-- Node4&#45;&gt;Node7 -->
<g id="edge7" class="edge">
<title>Node4&#45;&gt;Node7</title>
<path fill="none" stroke="midnightblue" d="M755.7,-57.48C759.01,-56.94 762.31,-56.43 765.5,-56 949.7,-30.98 999.62,-38.57 1188.62,-20.05"/>
<polygon fill="midnightblue" stroke="midnightblue" points="1189,-23.53 1198.61,-19.06 1188.31,-16.57 1189,-23.53"/>
</g>
<!-- Node4&#45;&gt;Node8 -->
<g id="edge8" class="edge">
<title>Node4&#45;&gt;Node8</title>
<path fill="none" stroke="midnightblue" d="M755.72,-57.66C759.03,-57.08 762.32,-56.52 765.5,-56 850.35,-42.25 947.96,-29.25 1014.69,-20.8"/>
<polygon fill="midnightblue" stroke="midnightblue" points="1015.23,-24.25 1024.71,-19.53 1014.35,-17.31 1015.23,-24.25"/>
</g>
<!-- Node4&#45;&gt;Node9 -->
<g id="edge9" class="edge">
<title>Node4&#45;&gt;Node9</title>
<path fill="none" stroke="midnightblue" d="M679.27,-59.39C630.65,-52.01 543.93,-38.1 460.57,-20.09"/>
<polygon fill="midnightblue" stroke="midnightblue" points="461.21,-16.64 450.69,-17.93 459.72,-23.48 461.21,-16.64"/>
</g>
<!-- Node10 -->
<g id="node10" class="node">
<title>Node10</title>
<g id="a_node10"><a xlink:title=" ">
<polygon fill="white" stroke="#bfbfbf" points="654.5,-0.5 654.5,-19.5 704.5,-19.5 704.5,-0.5 654.5,-0.5"/>
<text text-anchor="middle" x="679.5" y="-7.5" font-family="Helvetica,sans-Serif" font-size="10.00">cstdint</text>
</a>
</g>
</g>
<!-- Node4&#45;&gt;Node10 -->
<g id="edge10" class="edge">
<title>Node4&#45;&gt;Node10</title>
<path fill="none" stroke="midnightblue" d="M711.23,-56.08C705.86,-48.46 697.98,-37.26 691.42,-27.94"/>
<polygon fill="midnightblue" stroke="midnightblue" points="694.28,-25.91 685.66,-19.75 688.55,-29.94 694.28,-25.91"/>
</g>
<!-- Node4&#45;&gt;Node11 -->
<g id="edge11" class="edge">
<title>Node4&#45;&gt;Node11</title>
<path fill="none" stroke="midnightblue" d="M679.17,-60.91C619.83,-54.32 502,-40.18 392.76,-20.09"/>
<polygon fill="midnightblue" stroke="midnightblue" points="393.37,-16.64 382.9,-18.26 392.09,-23.53 393.37,-16.64"/>
</g>
<!-- Node4&#45;&gt;Node12 -->
<g id="edge12" class="edge">
<title>Node4&#45;&gt;Node12</title>
<path fill="none" stroke="midnightblue" d="M755.67,-57.3C758.99,-56.8 762.3,-56.35 765.5,-56 1243.78,-3.51 1366.62,-36.35 1847.5,-20 1927.93,-17.26 2022.41,-13.96 2072.04,-12.21"/>
<polygon fill="midnightblue" stroke="midnightblue" points="2072.35,-15.71 2082.22,-11.86 2072.1,-8.71 2072.35,-15.71"/>
</g>
<!-- Node4&#45;&gt;Node13 -->
<g id="edge13" class="edge">
<title>Node4&#45;&gt;Node13</title>
<path fill="none" stroke="midnightblue" d="M755.68,-57.33C758.99,-56.82 762.3,-56.37 765.5,-56 970.16,-32.55 1630.24,-15.49 1784.19,-11.76"/>
<polygon fill="midnightblue" stroke="midnightblue" points="1784.47,-15.26 1794.38,-11.52 1784.3,-8.26 1784.47,-15.26"/>
</g>
<!-- Node4&#45;&gt;Node14 -->
<g id="edge14" class="edge">
<title>Node4&#45;&gt;Node14</title>
<path fill="none" stroke="midnightblue" d="M679.44,-60.71C664.78,-59.13 647.87,-57.38 632.5,-56 413.36,-36.31 149.29,-18.97 57.16,-13.11"/>
<polygon fill="midnightblue" stroke="midnightblue" points="57.24,-9.61 47.03,-12.47 56.79,-16.59 57.24,-9.61"/>
</g>
<!-- Node4&#45;&gt;Node15 -->
<g id="edge15" class="edge">
<title>Node4&#45;&gt;Node15</title>
<path fill="none" stroke="midnightblue" d="M680.87,-56.48C642.76,-47.57 581.38,-33.09 528.5,-20 528.4,-19.98 528.3,-19.95 528.2,-19.93"/>
<polygon fill="midnightblue" stroke="midnightblue" points="529.27,-16.59 518.72,-17.54 527.57,-23.38 529.27,-16.59"/>
</g>
<!-- Node16&#45;&gt;Node4 -->
<g id="edge17" class="edge">
<title>Node16&#45;&gt;Node4</title>
<path fill="none" stroke="midnightblue" d="M792.2,-112.32C778.32,-103.9 757.01,-90.97 740.7,-81.07"/>
<polygon fill="midnightblue" stroke="midnightblue" points="742.13,-77.85 731.76,-75.65 738.5,-83.83 742.13,-77.85"/>
</g>
<!-- Node16&#45;&gt;Node5 -->
<g id="edge22" class="edge">
<title>Node16&#45;&gt;Node5</title>
<path fill="none" stroke="midnightblue" d="M745.94,-115.6C666.63,-107.91 535.9,-92.85 521.5,-76 505.23,-56.96 533.34,-36.83 557.53,-24.11"/>
<polygon fill="midnightblue" stroke="midnightblue" points="559.13,-27.22 566.51,-19.61 556,-20.96 559.13,-27.22"/>
</g>
<!-- Node16&#45;&gt;Node7 -->
<g id="edge20" class="edge">
<title>Node16&#45;&gt;Node7</title>
<path fill="none" stroke="midnightblue" d="M812.34,-112.44C822.73,-97.98 845.96,-69.03 873.5,-56 998.28,3.03 1046.78,-34.26 1188.25,-20.07"/>
<polygon fill="midnightblue" stroke="midnightblue" points="1189.03,-23.5 1198.6,-18.96 1188.28,-16.54 1189.03,-23.5"/>
</g>
<!-- Node16&#45;&gt;Node9 -->
<g id="edge31" class="edge">
<title>Node16&#45;&gt;Node9</title>
<path fill="none" stroke="midnightblue" d="M745.86,-115.22C672.44,-107.62 553.52,-93.19 512.5,-76 484.96,-64.46 458.19,-42.32 441.79,-27.11"/>
<polygon fill="midnightblue" stroke="midnightblue" points="443.86,-24.25 434.2,-19.88 439.03,-29.31 443.86,-24.25"/>
</g>
<!-- Node16&#45;&gt;Node11 -->
<g id="edge24" class="edge">
<title>Node16&#45;&gt;Node11</title>
<path fill="none" stroke="midnightblue" d="M746,-119.26C678.33,-115.85 566.2,-105.76 474.5,-76 437.06,-63.85 397.59,-40.34 374.28,-25.17"/>
<polygon fill="midnightblue" stroke="midnightblue" points="376.16,-22.22 365.89,-19.62 372.29,-28.06 376.16,-22.22"/>
</g>
<!-- Node16&#45;&gt;Node13 -->
<g id="edge25" class="edge">
<title>Node16&#45;&gt;Node13</title>
<path fill="none" stroke="midnightblue" d="M818.94,-112.48C843.74,-95.57 897.77,-59.12 907.5,-56 992.25,-28.79 1632.12,-14.62 1784.16,-11.61"/>
<polygon fill="midnightblue" stroke="midnightblue" points="1784.32,-15.11 1794.25,-11.41 1784.18,-8.11 1784.32,-15.11"/>
</g>
<!-- Node16&#45;&gt;Node15 -->
<g id="edge27" class="edge">
<title>Node16&#45;&gt;Node15</title>
<path fill="none" stroke="midnightblue" d="M775.99,-112.48C748.08,-104.31 705.86,-91.03 670.5,-76 652.94,-68.53 650.09,-63.41 632.5,-56 597.94,-41.44 556.94,-28.69 528.46,-20.51"/>
<polygon fill="midnightblue" stroke="midnightblue" points="529.15,-17.07 518.57,-17.71 527.24,-23.8 529.15,-17.07"/>
</g>
<!-- Node16&#45;&gt;Node17 -->
<g id="edge18" class="edge">
<title>Node16&#45;&gt;Node17</title>
<path fill="none" stroke="midnightblue" d="M867.26,-113.77C947.76,-104.2 1090,-87.28 1179.55,-76.63"/>
<polygon fill="midnightblue" stroke="midnightblue" points="1180.14,-80.08 1189.66,-75.43 1179.31,-73.13 1180.14,-80.08"/>
</g>
<!-- Node16&#45;&gt;Node18 -->
<g id="edge19" class="edge">
<title>Node16&#45;&gt;Node18</title>
<path fill="none" stroke="midnightblue" d="M867.01,-116.38C964.21,-108.84 1161.45,-93.12 1338.81,-76.14"/>
<polygon fill="midnightblue" stroke="midnightblue" points="1339.23,-79.62 1348.85,-75.18 1338.56,-72.65 1339.23,-79.62"/>
</g>
<!-- Node16&#45;&gt;Node19 -->
<g id="edge21" class="edge">
<title>Node16&#45;&gt;Node19</title>
<path fill="none" stroke="midnightblue" d="M867.02,-117.73C986.86,-111.13 1263.06,-95.25 1506.21,-76.08"/>
<polygon fill="midnightblue" stroke="midnightblue" points="1506.6,-79.56 1516.3,-75.28 1506.05,-72.58 1506.6,-79.56"/>
</g>
<!-- Node16&#45;&gt;Node20 -->
<g id="edge23" class="edge">
<title>Node16&#45;&gt;Node20</title>
<path fill="none" stroke="midnightblue" d="M867.08,-121.61C1010,-122.25 1379.39,-119.32 1696.07,-75.94"/>
<polygon fill="midnightblue" stroke="midnightblue" points="1696.94,-79.35 1706.36,-74.51 1695.98,-72.41 1696.94,-79.35"/>
</g>
<!-- Node16&#45;&gt;Node21 -->
<g id="edge26" class="edge">
<title>Node16&#45;&gt;Node21</title>
<path fill="none" stroke="midnightblue" d="M829,-112.44C852.58,-103.48 889.82,-89.31 916.46,-79.18"/>
<polygon fill="midnightblue" stroke="midnightblue" points="918,-82.34 926.1,-75.52 915.51,-75.8 918,-82.34"/>
</g>
<!-- Node16&#45;&gt;Node22 -->
<g id="edge28" class="edge">
<title>Node16&#45;&gt;Node22</title>
<path fill="none" stroke="midnightblue" d="M745.71,-117.41C627.4,-110.19 369.11,-93.26 261.47,-75.8"/>
<polygon fill="midnightblue" stroke="midnightblue" points="261.98,-72.33 251.53,-74.1 260.81,-79.23 261.98,-72.33"/>
</g>
<!-- Node16&#45;&gt;Node23 -->
<g id="edge29" class="edge">
<title>Node16&#45;&gt;Node23</title>
<path fill="none" stroke="midnightblue" d="M867.14,-120.4C1040.35,-118.3 1552.09,-109.5 1975.5,-76 1987.53,-75.05 2000.61,-73.62 2012.42,-72.17"/>
<polygon fill="midnightblue" stroke="midnightblue" points="2012.93,-75.64 2022.42,-70.92 2012.06,-68.69 2012.93,-75.64"/>
</g>
<!-- Node16&#45;&gt;Node24 -->
<g id="edge30" class="edge">
<title>Node16&#45;&gt;Node24</title>
<path fill="none" stroke="midnightblue" d="M745.88,-114.92C662.12,-106.47 506.29,-90.56 373.5,-76 359.71,-74.49 344.55,-72.76 331.3,-71.22"/>
<polygon fill="midnightblue" stroke="midnightblue" points="331.48,-67.71 321.14,-70.03 330.66,-74.67 331.48,-67.71"/>
</g>
<!-- Node16&#45;&gt;Node25 -->
<g id="edge32" class="edge">
<title>Node16&#45;&gt;Node25</title>
<path fill="none" stroke="midnightblue" d="M867.29,-120.82C1059.17,-119.89 1651.27,-114.07 1862.24,-75.55"/>
<polygon fill="midnightblue" stroke="midnightblue" points="1863.13,-78.95 1872.29,-73.63 1861.82,-72.07 1863.13,-78.95"/>
</g>
<!-- Node26 -->
<g id="node26" class="node">
<title>Node26</title>
<g id="a_node26"><a xlink:title=" ">
<polygon fill="white" stroke="#bfbfbf" points="530,-56.5 530,-75.5 623,-75.5 623,-56.5 530,-56.5"/>
<text text-anchor="middle" x="576.5" y="-63.5" font-family="Helvetica,sans-Serif" font-size="10.00">unordered_map</text>
</a>
</g>
</g>
<!-- Node16&#45;&gt;Node26 -->
<g id="edge33" class="edge">
<title>Node16&#45;&gt;Node26</title>
<path fill="none" stroke="midnightblue" d="M770.06,-112.44C730.1,-103.06 665.91,-87.99 622.52,-77.8"/>
<polygon fill="midnightblue" stroke="midnightblue" points="623.31,-74.39 612.77,-75.52 621.71,-81.21 623.31,-74.39"/>
</g>
<!-- Node27 -->
<g id="node27" class="node">
<title>Node27</title>
<g id="a_node27"><a xlink:title=" ">
<polygon fill="white" stroke="#bfbfbf" points="774,-56.5 774,-75.5 821,-75.5 821,-56.5 774,-56.5"/>
<text text-anchor="middle" x="797.5" y="-63.5" font-family="Helvetica,sans-Serif" font-size="10.00">deque</text>
</a>
</g>
</g>
<!-- Node16&#45;&gt;Node27 -->
<g id="edge34" class="edge">
<title>Node16&#45;&gt;Node27</title>
<path fill="none" stroke="midnightblue" d="M805.01,-112.08C803.82,-104.93 802.11,-94.64 800.62,-85.69"/>
<polygon fill="midnightblue" stroke="midnightblue" points="804.05,-85.04 798.96,-75.75 797.15,-86.19 804.05,-85.04"/>
</g>
<!-- Node30&#45;&gt;Node4 -->
<g id="edge44" class="edge">
<title>Node30&#45;&gt;Node4</title>
<path fill="none" stroke="midnightblue" d="M1696.75,-121.18C1546.49,-121.08 1125.83,-116.94 765.78,-75.82"/>
<polygon fill="midnightblue" stroke="midnightblue" points="766.01,-72.33 755.68,-74.66 765.21,-79.28 766.01,-72.33"/>
</g>
<!-- Node30&#45;&gt;Node7 -->
<g id="edge47" class="edge">
<title>Node30&#45;&gt;Node7</title>
<path fill="none" stroke="midnightblue" d="M1810.29,-121.22C1891.48,-119.72 2025.65,-109.44 1975.5,-56 1954.24,-33.34 1526.42,-18.44 1346.33,-13.15"/>
<polygon fill="midnightblue" stroke="midnightblue" points="1346.22,-9.64 1336.12,-12.85 1346.02,-16.64 1346.22,-9.64"/>
</g>
<!-- Node30&#45;&gt;Node17 -->
<g id="edge45" class="edge">
<title>Node30&#45;&gt;Node17</title>
<path fill="none" stroke="midnightblue" d="M1696.71,-114.88C1619.03,-106.48 1475,-90.88 1341.19,-76.07"/>
<polygon fill="midnightblue" stroke="midnightblue" points="1341.49,-72.59 1331.17,-74.96 1340.72,-79.54 1341.49,-72.59"/>
</g>
<!-- Node30&#45;&gt;Node18 -->
<g id="edge46" class="edge">
<title>Node30&#45;&gt;Node18</title>
<path fill="none" stroke="midnightblue" d="M1701.21,-112.44C1642.68,-102.87 1547.9,-87.36 1485.63,-77.17"/>
<polygon fill="midnightblue" stroke="midnightblue" points="1485.98,-73.68 1475.54,-75.52 1484.85,-80.59 1485.98,-73.68"/>
</g>
<!-- Node30&#45;&gt;Node19 -->
<g id="edge48" class="edge">
<title>Node30&#45;&gt;Node19</title>
<path fill="none" stroke="midnightblue" d="M1729.57,-112.44C1704.28,-103.4 1664.2,-89.06 1635.82,-78.92"/>
<polygon fill="midnightblue" stroke="midnightblue" points="1636.91,-75.59 1626.31,-75.52 1634.55,-82.18 1636.91,-75.59"/>
</g>
<!-- Node30&#45;&gt;Node20 -->
<g id="edge49" class="edge">
<title>Node30&#45;&gt;Node20</title>
<path fill="none" stroke="midnightblue" d="M1750.69,-112.08C1748.42,-104.85 1745.13,-94.41 1742.29,-85.4"/>
<polygon fill="midnightblue" stroke="midnightblue" points="1745.6,-84.24 1739.25,-75.75 1738.92,-86.34 1745.6,-84.24"/>
</g>
<!-- Node30&#45;&gt;Node23 -->
<g id="edge53" class="edge">
<title>Node30&#45;&gt;Node23</title>
<path fill="none" stroke="midnightblue" d="M1804.89,-112.5C1856.46,-103.83 1938.13,-89.74 2008.5,-76 2009.74,-75.76 2010.99,-75.51 2012.26,-75.26"/>
<polygon fill="midnightblue" stroke="midnightblue" points="2012.97,-78.68 2022.06,-73.24 2011.56,-71.83 2012.97,-78.68"/>
</g>
<!-- Node30&#45;&gt;Node25 -->
<g id="edge51" class="edge">
<title>Node30&#45;&gt;Node25</title>
<path fill="none" stroke="midnightblue" d="M1774.89,-112.44C1798.78,-102.89 1837.44,-87.43 1862.91,-77.24"/>
<polygon fill="midnightblue" stroke="midnightblue" points="1864.31,-80.45 1872.29,-73.48 1861.71,-73.95 1864.31,-80.45"/>
</g>
<!-- Node30&#45;&gt;Node31 -->
<g id="edge50" class="edge">
<title>Node30&#45;&gt;Node31</title>
<path fill="none" stroke="midnightblue" d="M1810.23,-115.19C1874.83,-108.16 1983.69,-95.08 2086.37,-76.05"/>
<polygon fill="midnightblue" stroke="midnightblue" points="2087.1,-79.47 2096.28,-74.19 2085.81,-72.59 2087.1,-79.47"/>
</g>
<!-- Node32 -->
<g id="node32" class="node">
<title>Node32</title>
<g id="a_node32"><a xlink:title=" ">
<polygon fill="white" stroke="#bfbfbf" points="1785,-56.5 1785,-75.5 1854,-75.5 1854,-56.5 1785,-56.5"/>
<text text-anchor="middle" x="1819.5" y="-63.5" font-family="Helvetica,sans-Serif" font-size="10.00">arpa/inet.h</text>
</a>
</g>
</g>
<!-- Node30&#45;&gt;Node32 -->
<g id="edge52" class="edge">
<title>Node30&#45;&gt;Node32</title>
<path fill="none" stroke="midnightblue" d="M1764.1,-112.32C1773.96,-104.26 1788.85,-92.08 1800.72,-82.37"/>
<polygon fill="midnightblue" stroke="midnightblue" points="1803.18,-84.88 1808.7,-75.83 1798.75,-79.46 1803.18,-84.88"/>
</g>
<!-- Node33 -->
<g id="node33" class="node">
<title>Node33</title>
<g id="a_node33"><a xlink:title=" ">
<polygon fill="white" stroke="#bfbfbf" points="1922.5,-56.5 1922.5,-75.5 1966.5,-75.5 1966.5,-56.5 1922.5,-56.5"/>
<text text-anchor="middle" x="1944.5" y="-63.5" font-family="Helvetica,sans-Serif" font-size="10.00">regex</text>
</a>
</g>
</g>
<!-- Node30&#45;&gt;Node33 -->
<g id="edge54" class="edge">
<title>Node30&#45;&gt;Node33</title>
<path fill="none" stroke="midnightblue" d="M1784.19,-112.45C1814.47,-104 1862.31,-90.59 1912.72,-76.21"/>
<polygon fill="midnightblue" stroke="midnightblue" points="1913.84,-79.53 1922.49,-73.41 1911.91,-72.8 1913.84,-79.53"/>
</g>
<!-- Node34&#45;&gt;Node9 -->
<g id="edge56" class="edge">
<title>Node34&#45;&gt;Node9</title>
<path fill="none" stroke="midnightblue" d="M2180.91,-112.06C2181.02,-97.59 2178.86,-69.3 2161.5,-56 2088.26,0.12 627.15,-31.55 460.64,-19.36"/>
<polygon fill="midnightblue" stroke="midnightblue" points="460.91,-15.87 450.61,-18.36 460.22,-22.83 460.91,-15.87"/>
</g>
<!-- Node34&#45;&gt;Node12 -->
<g id="edge57" class="edge">
<title>Node34&#45;&gt;Node12</title>
<path fill="none" stroke="midnightblue" d="M2211.76,-112.46C2244.97,-101.81 2290.19,-81.82 2270.5,-56 2254.83,-35.45 2183.9,-21.96 2140.61,-15.49"/>
<polygon fill="midnightblue" stroke="midnightblue" points="2140.91,-11.99 2130.52,-14.03 2139.91,-18.92 2140.91,-11.99"/>
</g>
<!-- Node34&#45;&gt;Node13 -->
<g id="edge58" class="edge">
<title>Node34&#45;&gt;Node13</title>
<path fill="none" stroke="midnightblue" d="M2196.12,-112.33C2217.11,-99.63 2249.88,-75.36 2232.5,-56 2206.97,-27.56 1942.36,-15.47 1848.94,-12.07"/>
<polygon fill="midnightblue" stroke="midnightblue" points="1848.79,-8.56 1838.67,-11.7 1848.54,-15.56 1848.79,-8.56"/>
</g>
<!-- Node34&#45;&gt;Node15 -->
<g id="edge60" class="edge">
<title>Node34&#45;&gt;Node15</title>
<path fill="none" stroke="midnightblue" d="M2186.72,-112.07C2195.62,-98.12 2209.36,-71.18 2194.5,-56 2162.12,-22.92 574.36,-26.31 528.5,-20 528.4,-19.99 528.3,-19.97 528.2,-19.96"/>
<polygon fill="midnightblue" stroke="midnightblue" points="529.07,-16.56 518.6,-18.19 527.8,-23.44 529.07,-16.56"/>
</g>
<!-- Node34&#45;&gt;Node23 -->
<g id="edge61" class="edge">
<title>Node34&#45;&gt;Node23</title>
<path fill="none" stroke="midnightblue" d="M2159.9,-112.44C2138.51,-103.56 2104.82,-89.56 2080.48,-79.45"/>
<polygon fill="midnightblue" stroke="midnightblue" points="2081.58,-76.12 2071,-75.52 2078.89,-82.58 2081.58,-76.12"/>
</g>
<!-- Node34&#45;&gt;Node31 -->
<g id="edge59" class="edge">
<title>Node34&#45;&gt;Node31</title>
<path fill="none" stroke="midnightblue" d="M2171.5,-112.32C2163.31,-104.42 2150.99,-92.55 2141.03,-82.94"/>
<polygon fill="midnightblue" stroke="midnightblue" points="2143.29,-80.26 2133.66,-75.83 2138.43,-85.29 2143.29,-80.26"/>
</g>
</g>
</svg>
        <g id="navigator" transform="translate(0 0)" fill="#404254">
                <rect fill="#f2f5e9" fill-opacity="0.5" stroke="#606060" stroke-width=".5" x="0" y="0" width="60" height="60"/>
                <use id="zoomplus" xlink:href="#zoomPlus" x="17" y="9" onmousedown="handleZoom(evt,'in')"/>
                <use id="zoomminus" xlink:href="#zoomMin" x="42" y="9" onmousedown="handleZoom(evt,'out')"/>
                <use id="reset" xlink:href="#resetDef" x="30" y="36" onmousedown="handleReset()"/>
                <g id="arrowUp" xlink:href="#dirArrow" transform="translate(30 24)" onmousedown="handlePan(0,-1)">
                  <use xlink:href="#rim" fill="#404040">
                        <set attributeName="fill" to="#808080" begin="arrowUp.mouseover" end="arrowUp.mouseout"/>
                  </use>
                  <path fill="none" stroke="white" stroke-width="1.5" d="M0,-3.0v7 M-2.5,-0.5L0,-3.0L2.5,-0.5"/>
                </g>
                <g id="arrowRight" xlink:href="#dirArrow" transform="rotate(90) translate(36 -43)" onmousedown="handlePan(1,0)">
                  <use xlink:href="#rim" fill="#404040">
                        <set attributeName="fill" to="#808080" begin="arrowRight.mouseover" end="arrowRight.mouseout"/>
                  </use>
                  <path fill="none" stroke="white" stroke-width="1.5" d="M0,-3.0v7 M-2.5,-0.5L0,-3.0L2.5,-0.5"/>
                </g>
                <g id="arrowDown" xlink:href="#dirArrow" transform="rotate(180) translate(-30 -48)" onmousedown="handlePan(0,1)">
                  <use xlink:href="#rim" fill="#404040">
                        <set attributeName="fill" to="#808080" begin="arrowDown.mouseover" end="arrowDown.mouseout"/>
                  </use>
                  <path fill="none" stroke="white" stroke-width="1.5" d="M0,-3.0v7 M-2.5,-0.5L0,-3.0L2.5,-0.5"/>
                </g>
                <g id="arrowLeft" xlink:href="#dirArrow" transform="rotate(270) translate(-36 17)" onmousedown="handlePan(-1,0)">
                  <use xlink:href="#rim" fill="#404040">
                        <set attributeName="fill" to="#808080" begin="arrowLeft.mouseover" end="arrowLeft.mouseout"/>
                  </use>
                  <path fill="none" stroke="white" stroke-width="1.5" d="M0,-3.0v7 M-2.5,-0.5L0,-3.0L2.5,-0.5"/>
                </g>
        </g>
        <svg viewBox="0 0 15 15" width="100%" height="30px" preserveAspectRatio="xMaxYMin meet">
         <g id="arrow_out" transform="scale(0.3 0.3)">
          <a xlink:href="StreamManager_8cpp__incl_org.svg" target="_base">
           <rect id="button" ry="5" rx="5" y="6" x="6" height="38" width="38"
                fill="#f2f5e9" fill-opacity="0.5" stroke="#606060" stroke-width="1.0"/>
           <path id="arrow"
             d="M 11.500037,31.436501 C 11.940474,20.09759 22.043105,11.32322 32.158766,21.979434 L 37.068811,17.246167 C 37.068811,17.246167 37.088388,32 37.088388,32 L 22.160133,31.978069 C 22.160133,31.978069 26.997745,27.140456 26.997745,27.140456 C 18.528582,18.264221 13.291696,25.230495 11.500037,31.436501 z"
             style="fill:#404040;"/>
          </a>
         </g>
        </svg>
</svg>
