<?xml version="1.0" encoding="UTF-8" standalone="no"?>
<!DOCTYPE svg PUBLIC "-//W3C//DTD SVG 1.1//EN"
 "http://www.w3.org/Graphics/SVG/1.1/DTD/svg11.dtd">
<!-- Generated by graphviz version 2.43.0 (0)
 -->
<!-- Title: src/StreamManager.hpp Pages: 1 -->
<svg width="1875pt" height="196pt"
 viewBox="0.00 0.00 1875.00 196.00" xmlns="http://www.w3.org/2000/svg" xmlns:xlink="http://www.w3.org/1999/xlink">
<g id="graph0" class="graph" transform="scale(1 1) rotate(0) translate(4 192)">
<title>src/StreamManager.hpp</title>
<polygon fill="white" stroke="transparent" points="-4,4 -4,-192 1871,-192 1871,4 -4,4"/>
<!-- Node1 -->
<g id="node1" class="node">
<title>Node1</title>
<g id="a_node1"><a xlink:title=" ">
<polygon fill="#bfbfbf" stroke="black" points="979,-168.5 979,-187.5 1111,-187.5 1111,-168.5 979,-168.5"/>
<text text-anchor="middle" x="1045" y="-175.5" font-family="Helvetica,sans-Serif" font-size="10.00">src/StreamManager.hpp</text>
</a>
</g>
</g>
<!-- Node2 -->
<g id="node2" class="node">
<title>Node2</title>
<g id="a_node2"><a xlink:title=" ">
<polygon fill="white" stroke="#bfbfbf" points="0,-0.5 0,-19.5 116,-19.5 116,-0.5 0,-0.5"/>
<text text-anchor="middle" x="58" y="-7.5" font-family="Helvetica,sans-Serif" font-size="10.00">opencv2/opencv.hpp</text>
</a>
</g>
</g>
<!-- Node1&#45;&gt;Node2 -->
<g id="edge1" class="edge">
<title>Node1&#45;&gt;Node2</title>
<path fill="none" stroke="midnightblue" d="M978.85,-176.7C818.84,-175.39 414.54,-168.47 285,-132 202.57,-108.79 116.27,-52.47 78.14,-25.65"/>
<polygon fill="midnightblue" stroke="midnightblue" points="79.69,-22.46 69.52,-19.51 75.63,-28.16 79.69,-22.46"/>
</g>
<!-- Node3 -->
<g id="node3" class="node">
<title>Node3</title>
<g id="a_node3"><a xlink:href="Camera_8hpp.html" target="_top" xlink:title=" ">
<polygon fill="white" stroke="black" points="314,-56.5 314,-75.5 390,-75.5 390,-56.5 314,-56.5"/>
<text text-anchor="middle" x="352" y="-63.5" font-family="Helvetica,sans-Serif" font-size="10.00">Camera.hpp</text>
</a>
</g>
</g>
<!-- Node1&#45;&gt;Node3 -->
<g id="edge2" class="edge">
<title>Node1&#45;&gt;Node3</title>
<path fill="none" stroke="midnightblue" d="M986.1,-168.48C874.07,-152.12 622.36,-114.65 400.09,-76.15"/>
<polygon fill="midnightblue" stroke="midnightblue" points="400.65,-72.69 390.2,-74.43 399.45,-79.59 400.65,-72.69"/>
</g>
<!-- Node8 -->
<g id="node8" class="node">
<title>Node8</title>
<g id="a_node8"><a xlink:title=" ">
<polygon fill="white" stroke="#bfbfbf" points="266,-0.5 266,-19.5 316,-19.5 316,-0.5 266,-0.5"/>
<text text-anchor="middle" x="291" y="-7.5" font-family="Helvetica,sans-Serif" font-size="10.00">atomic</text>
</a>
</g>
</g>
<!-- Node1&#45;&gt;Node8 -->
<g id="edge34" class="edge">
<title>Node1&#45;&gt;Node8</title>
<path fill="none" stroke="midnightblue" d="M978.98,-173.16C803.07,-162.26 333.43,-128.44 289,-76 278.3,-63.37 280.51,-43.88 284.36,-29.54"/>
<polygon fill="midnightblue" stroke="midnightblue" points="287.77,-30.36 287.43,-19.77 281.09,-28.26 287.77,-30.36"/>
</g>
<!-- Node11 -->
<g id="node11" class="node">
<title>Node11</title>
<g id="a_node11"><a xlink:title=" ">
<polygon fill="white" stroke="#bfbfbf" points="134,-0.5 134,-19.5 182,-19.5 182,-0.5 134,-0.5"/>
<text text-anchor="middle" x="158" y="-7.5" font-family="Helvetica,sans-Serif" font-size="10.00">mutex</text>
</a>
</g>
</g>
<!-- Node1&#45;&gt;Node11 -->
<g id="edge38" class="edge">
<title>Node1&#45;&gt;Node11</title>
<path fill="none" stroke="midnightblue" d="M978.8,-177.4C825.17,-177.59 448.52,-173.65 330,-132 264.79,-109.08 201.97,-53.89 173.66,-26.69"/>
<polygon fill="midnightblue" stroke="midnightblue" points="175.91,-24 166.32,-19.51 171.02,-29 175.91,-24"/>
</g>
<!-- Node13 -->
<g id="node13" class="node">
<title>Node13</title>
<g id="a_node13"><a xlink:title=" ">
<polygon fill="white" stroke="#bfbfbf" points="200.5,-0.5 200.5,-19.5 247.5,-19.5 247.5,-0.5 200.5,-0.5"/>
<text text-anchor="middle" x="224" y="-7.5" font-family="Helvetica,sans-Serif" font-size="10.00">vector</text>
</a>
</g>
</g>
<!-- Node1&#45;&gt;Node13 -->
<g id="edge40" class="edge">
<title>Node1&#45;&gt;Node13</title>
<path fill="none" stroke="midnightblue" d="M978.98,-175.51C836.6,-171.79 504.76,-160.3 396,-132 339.43,-117.28 323.06,-111.99 277,-76 259.68,-62.47 244.36,-42.3 234.7,-28.02"/>
<polygon fill="midnightblue" stroke="midnightblue" points="237.61,-26.07 229.21,-19.62 231.75,-29.9 237.61,-26.07"/>
</g>
<!-- Node14 -->
<g id="node14" class="node">
<title>Node14</title>
<g id="a_node14"><a xlink:title=" ">
<polygon fill="white" stroke="#bfbfbf" points="1198,-0.5 1198,-19.5 1248,-19.5 1248,-0.5 1198,-0.5"/>
<text text-anchor="middle" x="1223" y="-7.5" font-family="Helvetica,sans-Serif" font-size="10.00">chrono</text>
</a>
</g>
</g>
<!-- Node1&#45;&gt;Node14 -->
<g id="edge35" class="edge">
<title>Node1&#45;&gt;Node14</title>
<path fill="none" stroke="midnightblue" d="M1111.03,-177.52C1263.03,-177.13 1630.29,-166.64 1704,-76 1709.61,-69.1 1709.99,-62.57 1704,-56 1674.11,-23.18 1364.64,-13.87 1258.5,-11.63"/>
<polygon fill="midnightblue" stroke="midnightblue" points="1258.37,-8.12 1248.3,-11.42 1258.23,-15.12 1258.37,-8.12"/>
</g>
<!-- Node15 -->
<g id="node15" class="node">
<title>Node15</title>
<g id="a_node15"><a xlink:href="NetworkManager_8hpp.html" target="_top" xlink:title=" ">
<polygon fill="white" stroke="black" points="984.5,-112.5 984.5,-131.5 1105.5,-131.5 1105.5,-112.5 984.5,-112.5"/>
<text text-anchor="middle" x="1045" y="-119.5" font-family="Helvetica,sans-Serif" font-size="10.00">NetworkManager.hpp</text>
</a>
</g>
</g>
<!-- Node1&#45;&gt;Node15 -->
<g id="edge15" class="edge">
<title>Node1&#45;&gt;Node15</title>
<path fill="none" stroke="midnightblue" d="M1045,-168.08C1045,-161.01 1045,-150.86 1045,-141.99"/>
<polygon fill="midnightblue" stroke="midnightblue" points="1048.5,-141.75 1045,-131.75 1041.5,-141.75 1048.5,-141.75"/>
</g>
<!-- Node21 -->
<g id="node21" class="node">
<title>Node21</title>
<g id="a_node21"><a xlink:title=" ">
<polygon fill="white" stroke="#bfbfbf" points="1577,-56.5 1577,-75.5 1625,-75.5 1625,-56.5 1577,-56.5"/>
<text text-anchor="middle" x="1601" y="-63.5" font-family="Helvetica,sans-Serif" font-size="10.00">thread</text>
</a>
</g>
</g>
<!-- Node1&#45;&gt;Node21 -->
<g id="edge39" class="edge">
<title>Node1&#45;&gt;Node21</title>
<path fill="none" stroke="midnightblue" d="M1097,-168.46C1189.78,-152.91 1390.07,-117.87 1567.19,-76.3"/>
<polygon fill="midnightblue" stroke="midnightblue" points="1568.01,-79.7 1576.94,-74 1566.41,-72.89 1568.01,-79.7"/>
</g>
<!-- Node23 -->
<g id="node23" class="node">
<title>Node23</title>
<g id="a_node23"><a xlink:title=" ">
<polygon fill="white" stroke="#bfbfbf" points="1643.5,-56.5 1643.5,-75.5 1694.5,-75.5 1694.5,-56.5 1643.5,-56.5"/>
<text text-anchor="middle" x="1669" y="-63.5" font-family="Helvetica,sans-Serif" font-size="10.00">csignal</text>
</a>
</g>
</g>
<!-- Node1&#45;&gt;Node23 -->
<g id="edge36" class="edge">
<title>Node1&#45;&gt;Node23</title>
<path fill="none" stroke="midnightblue" d="M1111.09,-169.15C1176.52,-161.06 1279.46,-147.47 1368,-132 1483.87,-111.76 1514.75,-103.91 1633.57,-76.03"/>
<polygon fill="midnightblue" stroke="midnightblue" points="1634.48,-79.41 1643.42,-73.72 1632.88,-72.59 1634.48,-79.41"/>
</g>
<!-- Node27 -->
<g id="node27" class="node">
<title>Node27</title>
<g id="a_node27"><a xlink:title=" ">
<polygon fill="white" stroke="#bfbfbf" points="1751.5,-112.5 1751.5,-131.5 1816.5,-131.5 1816.5,-112.5 1751.5,-112.5"/>
<text text-anchor="middle" x="1784" y="-119.5" font-family="Helvetica,sans-Serif" font-size="10.00">functional</text>
</a>
</g>
</g>
<!-- Node1&#45;&gt;Node27 -->
<g id="edge37" class="edge">
<title>Node1&#45;&gt;Node27</title>
<path fill="none" stroke="midnightblue" d="M1111.1,-175.43C1234.53,-171.9 1508.31,-161.22 1737,-132 1738.47,-131.81 1739.96,-131.61 1741.46,-131.39"/>
<polygon fill="midnightblue" stroke="midnightblue" points="1742.15,-134.82 1751.47,-129.77 1741.04,-127.91 1742.15,-134.82"/>
</g>
<!-- Node28 -->
<g id="node28" class="node">
<title>Node28</title>
<g id="a_node28"><a xlink:title=" ">
<polygon fill="white" stroke="#bfbfbf" points="1835,-112.5 1835,-131.5 1867,-131.5 1867,-112.5 1835,-112.5"/>
<text text-anchor="middle" x="1851" y="-119.5" font-family="Helvetica,sans-Serif" font-size="10.00">list</text>
</a>
</g>
</g>
<!-- Node1&#45;&gt;Node28 -->
<g id="edge41" class="edge">
<title>Node1&#45;&gt;Node28</title>
<path fill="none" stroke="midnightblue" d="M1111.18,-175.63C1270.24,-171.96 1671.54,-160.31 1824.63,-131.6"/>
<polygon fill="midnightblue" stroke="midnightblue" points="1825.66,-134.97 1834.79,-129.6 1824.3,-128.1 1825.66,-134.97"/>
</g>
<!-- Node3&#45;&gt;Node2 -->
<g id="edge4" class="edge">
<title>Node3&#45;&gt;Node2</title>
<path fill="none" stroke="midnightblue" d="M313.87,-58C263.05,-48.66 172.74,-32.07 114.13,-21.31"/>
<polygon fill="midnightblue" stroke="midnightblue" points="114.76,-17.87 104.3,-19.5 113.5,-24.75 114.76,-17.87"/>
</g>
<!-- Node4 -->
<g id="node4" class="node">
<title>Node4</title>
<g id="a_node4"><a xlink:title=" ">
<polygon fill="white" stroke="#bfbfbf" points="752.5,-0.5 752.5,-19.5 851.5,-19.5 851.5,-0.5 752.5,-0.5"/>
<text text-anchor="middle" x="802" y="-7.5" font-family="Helvetica,sans-Serif" font-size="10.00">GenApi/GenApi.h</text>
</a>
</g>
</g>
<!-- Node3&#45;&gt;Node4 -->
<g id="edge3" class="edge">
<title>Node3&#45;&gt;Node4</title>
<path fill="none" stroke="midnightblue" d="M390.17,-57.42C393.16,-56.91 396.12,-56.43 399,-56 547.55,-33.86 585.89,-38 735,-20 737.36,-19.72 739.76,-19.42 742.19,-19.12"/>
<polygon fill="midnightblue" stroke="midnightblue" points="742.78,-22.57 752.26,-17.83 741.9,-15.62 742.78,-22.57"/>
</g>
<!-- Node5 -->
<g id="node5" class="node">
<title>Node5</title>
<g id="a_node5"><a xlink:title=" ">
<polygon fill="white" stroke="#bfbfbf" points="334.5,-0.5 334.5,-19.5 467.5,-19.5 467.5,-0.5 334.5,-0.5"/>
<text text-anchor="middle" x="401" y="-7.5" font-family="Helvetica,sans-Serif" font-size="10.00">rc_genicam_api/buffer.h</text>
</a>
</g>
</g>
<!-- Node3&#45;&gt;Node5 -->
<g id="edge5" class="edge">
<title>Node3&#45;&gt;Node5</title>
<path fill="none" stroke="midnightblue" d="M360.09,-56.08C367.16,-48.3 377.59,-36.8 386.15,-27.37"/>
<polygon fill="midnightblue" stroke="midnightblue" points="388.93,-29.51 393.06,-19.75 383.75,-24.8 388.93,-29.51"/>
</g>
<!-- Node6 -->
<g id="node6" class="node">
<title>Node6</title>
<g id="a_node6"><a xlink:title=" ">
<polygon fill="white" stroke="#bfbfbf" points="888.5,-0.5 888.5,-19.5 1025.5,-19.5 1025.5,-0.5 888.5,-0.5"/>
<text text-anchor="middle" x="957" y="-7.5" font-family="Helvetica,sans-Serif" font-size="10.00">rc_genicam_api/device.h</text>
</a>
</g>
</g>
<!-- Node3&#45;&gt;Node6 -->
<g id="edge6" class="edge">
<title>Node3&#45;&gt;Node6</title>
<path fill="none" stroke="midnightblue" d="M390.16,-57.32C393.15,-56.84 396.12,-56.39 399,-56 603.12,-28.59 655.8,-37.61 861,-20 866.52,-19.53 872.23,-19.02 877.97,-18.51"/>
<polygon fill="midnightblue" stroke="midnightblue" points="878.67,-21.96 888.32,-17.57 878.04,-14.99 878.67,-21.96"/>
</g>
<!-- Node7 -->
<g id="node7" class="node">
<title>Node7</title>
<g id="a_node7"><a xlink:title=" ">
<polygon fill="white" stroke="#bfbfbf" points="486,-0.5 486,-19.5 658,-19.5 658,-0.5 486,-0.5"/>
<text text-anchor="middle" x="572" y="-7.5" font-family="Helvetica,sans-Serif" font-size="10.00">rc_genicam_api/pixel_formats.h</text>
</a>
</g>
</g>
<!-- Node3&#45;&gt;Node7 -->
<g id="edge7" class="edge">
<title>Node3&#45;&gt;Node7</title>
<path fill="none" stroke="midnightblue" d="M386.86,-56.44C424.92,-47.1 485.96,-32.12 527.46,-21.93"/>
<polygon fill="midnightblue" stroke="midnightblue" points="528.43,-25.3 537.3,-19.52 526.76,-18.5 528.43,-25.3"/>
</g>
<!-- Node3&#45;&gt;Node8 -->
<g id="edge8" class="edge">
<title>Node3&#45;&gt;Node8</title>
<path fill="none" stroke="midnightblue" d="M342.2,-56.32C333.18,-48.34 319.59,-36.31 308.68,-26.65"/>
<polygon fill="midnightblue" stroke="midnightblue" points="310.79,-23.84 300.98,-19.83 306.15,-29.08 310.79,-23.84"/>
</g>
<!-- Node9 -->
<g id="node9" class="node">
<title>Node9</title>
<g id="a_node9"><a xlink:title=" ">
<polygon fill="white" stroke="#bfbfbf" points="676,-0.5 676,-19.5 726,-19.5 726,-0.5 676,-0.5"/>
<text text-anchor="middle" x="701" y="-7.5" font-family="Helvetica,sans-Serif" font-size="10.00">cstdint</text>
</a>
</g>
</g>
<!-- Node3&#45;&gt;Node9 -->
<g id="edge9" class="edge">
<title>Node3&#45;&gt;Node9</title>
<path fill="none" stroke="midnightblue" d="M390.19,-57.5C393.17,-56.97 396.13,-56.47 399,-56 514.49,-37.2 547.4,-43.09 666,-19.98"/>
<polygon fill="midnightblue" stroke="midnightblue" points="666.7,-23.41 675.83,-18.04 665.34,-16.54 666.7,-23.41"/>
</g>
<!-- Node10 -->
<g id="node10" class="node">
<title>Node10</title>
<g id="a_node10"><a xlink:title=" ">
<polygon fill="white" stroke="#bfbfbf" points="1053,-0.5 1053,-19.5 1111,-19.5 1111,-0.5 1053,-0.5"/>
<text text-anchor="middle" x="1082" y="-7.5" font-family="Helvetica,sans-Serif" font-size="10.00">memory</text>
</a>
</g>
</g>
<!-- Node3&#45;&gt;Node10 -->
<g id="edge10" class="edge">
<title>Node3&#45;&gt;Node10</title>
<path fill="none" stroke="midnightblue" d="M390.15,-57.26C393.14,-56.78 396.11,-56.36 399,-56 679.98,-21.3 754.02,-54.7 1035,-20 1037.53,-19.69 1040.12,-19.32 1042.73,-18.92"/>
<polygon fill="midnightblue" stroke="midnightblue" points="1043.49,-22.34 1052.76,-17.22 1042.32,-15.44 1043.49,-22.34"/>
</g>
<!-- Node3&#45;&gt;Node11 -->
<g id="edge11" class="edge">
<title>Node3&#45;&gt;Node11</title>
<path fill="none" stroke="midnightblue" d="M321.26,-56.44C286.01,-46.63 228.38,-30.59 191.86,-20.43"/>
<polygon fill="midnightblue" stroke="midnightblue" points="192.73,-17.03 182.16,-17.73 190.86,-23.78 192.73,-17.03"/>
</g>
<!-- Node12 -->
<g id="node12" class="node">
<title>Node12</title>
<g id="a_node12"><a xlink:title=" ">
<polygon fill="white" stroke="#bfbfbf" points="1134,-0.5 1134,-19.5 1178,-19.5 1178,-0.5 1134,-0.5"/>
<text text-anchor="middle" x="1156" y="-7.5" font-family="Helvetica,sans-Serif" font-size="10.00">string</text>
</a>
</g>
</g>
<!-- Node3&#45;&gt;Node12 -->
<g id="edge12" class="edge">
<title>Node3&#45;&gt;Node12</title>
<path fill="none" stroke="midnightblue" d="M390.15,-57.23C393.14,-56.77 396.11,-56.35 399,-56 717.55,-17.74 802.64,-67.13 1120,-20 1121.25,-19.81 1122.53,-19.6 1123.81,-19.37"/>
<polygon fill="midnightblue" stroke="midnightblue" points="1124.6,-22.78 1133.67,-17.3 1123.16,-15.93 1124.6,-22.78"/>
</g>
<!-- Node3&#45;&gt;Node13 -->
<g id="edge13" class="edge">
<title>Node3&#45;&gt;Node13</title>
<path fill="none" stroke="midnightblue" d="M331.72,-56.44C310.65,-47.56 277.48,-33.56 253.51,-23.45"/>
<polygon fill="midnightblue" stroke="midnightblue" points="254.76,-20.18 244.19,-19.52 252.04,-26.63 254.76,-20.18"/>
</g>
<!-- Node3&#45;&gt;Node14 -->
<g id="edge14" class="edge">
<title>Node3&#45;&gt;Node14</title>
<path fill="none" stroke="midnightblue" d="M390.15,-57.22C393.14,-56.76 396.11,-56.34 399,-56 747.17,-14.93 840.11,-70.77 1187,-20 1187.33,-19.95 1187.67,-19.9 1188.01,-19.85"/>
<polygon fill="midnightblue" stroke="midnightblue" points="1188.79,-23.26 1197.95,-17.94 1187.47,-16.39 1188.79,-23.26"/>
</g>
<!-- Node15&#45;&gt;Node3 -->
<g id="edge16" class="edge">
<title>Node15&#45;&gt;Node3</title>
<path fill="none" stroke="midnightblue" d="M984.2,-119.19C871.14,-115.3 620.78,-104.19 400.3,-76.01"/>
<polygon fill="midnightblue" stroke="midnightblue" points="400.52,-72.51 390.16,-74.7 399.63,-79.46 400.52,-72.51"/>
</g>
<!-- Node15&#45;&gt;Node4 -->
<g id="edge21" class="edge">
<title>Node15&#45;&gt;Node4</title>
<path fill="none" stroke="midnightblue" d="M1049.53,-112.27C1055.92,-98.59 1065.4,-72.02 1052,-56 1045.88,-48.68 933.87,-30.71 861.88,-19.82"/>
<polygon fill="midnightblue" stroke="midnightblue" points="861.97,-16.29 851.56,-18.26 860.93,-23.21 861.97,-16.29"/>
</g>
<!-- Node15&#45;&gt;Node6 -->
<g id="edge19" class="edge">
<title>Node15&#45;&gt;Node6</title>
<path fill="none" stroke="midnightblue" d="M1057.13,-112.36C1073.41,-99.69 1098.79,-75.46 1085,-56 1073.23,-39.39 1054.83,-28.87 1035.61,-22.22"/>
<polygon fill="midnightblue" stroke="midnightblue" points="1036.41,-18.8 1025.82,-19.16 1034.33,-25.48 1036.41,-18.8"/>
</g>
<!-- Node15&#45;&gt;Node8 -->
<g id="edge30" class="edge">
<title>Node15&#45;&gt;Node8</title>
<path fill="none" stroke="midnightblue" d="M984.49,-121.44C816.96,-122.08 356.01,-119.82 305,-76 292.02,-64.85 289.38,-44.82 289.45,-29.93"/>
<polygon fill="midnightblue" stroke="midnightblue" points="292.96,-29.93 289.91,-19.78 285.96,-29.61 292.96,-29.93"/>
</g>
<!-- Node15&#45;&gt;Node10 -->
<g id="edge23" class="edge">
<title>Node15&#45;&gt;Node10</title>
<path fill="none" stroke="midnightblue" d="M1074.12,-112.44C1091.64,-105.62 1112.52,-94.14 1123,-76 1133.02,-58.65 1117.17,-39.28 1102.36,-26.24"/>
<polygon fill="midnightblue" stroke="midnightblue" points="1104.35,-23.35 1094.41,-19.7 1099.91,-28.75 1104.35,-23.35"/>
</g>
<!-- Node15&#45;&gt;Node12 -->
<g id="edge24" class="edge">
<title>Node15&#45;&gt;Node12</title>
<path fill="none" stroke="midnightblue" d="M1078.65,-112.35C1098.58,-105.58 1122.84,-94.18 1138,-76 1148.89,-62.94 1153.22,-43.79 1154.92,-29.65"/>
<polygon fill="midnightblue" stroke="midnightblue" points="1158.42,-29.87 1155.8,-19.61 1151.44,-29.26 1158.42,-29.87"/>
</g>
<!-- Node15&#45;&gt;Node14 -->
<g id="edge26" class="edge">
<title>Node15&#45;&gt;Node14</title>
<path fill="none" stroke="midnightblue" d="M1075.57,-112.35C1099.03,-104.87 1131.58,-92.65 1157,-76 1177.5,-62.57 1196.98,-42.1 1209.39,-27.73"/>
<polygon fill="midnightblue" stroke="midnightblue" points="1212.39,-29.59 1216.15,-19.68 1207.04,-25.09 1212.39,-29.59"/>
</g>
<!-- Node16 -->
<g id="node16" class="node">
<title>Node16</title>
<g id="a_node16"><a xlink:title=" ">
<polygon fill="white" stroke="#bfbfbf" points="1251.5,-56.5 1251.5,-75.5 1392.5,-75.5 1392.5,-56.5 1251.5,-56.5"/>
<text text-anchor="middle" x="1322" y="-63.5" font-family="Helvetica,sans-Serif" font-size="10.00">rc_genicam_api/system.h</text>
</a>
</g>
</g>
<!-- Node15&#45;&gt;Node16 -->
<g id="edge17" class="edge">
<title>Node15&#45;&gt;Node16</title>
<path fill="none" stroke="midnightblue" d="M1088.89,-112.44C1137.52,-102.96 1215.95,-87.67 1268.22,-77.48"/>
<polygon fill="midnightblue" stroke="midnightblue" points="1269.17,-80.87 1278.31,-75.52 1267.83,-73.99 1269.17,-80.87"/>
</g>
<!-- Node17 -->
<g id="node17" class="node">
<title>Node17</title>
<g id="a_node17"><a xlink:title=" ">
<polygon fill="white" stroke="#bfbfbf" points="1410.5,-56.5 1410.5,-75.5 1559.5,-75.5 1559.5,-56.5 1410.5,-56.5"/>
<text text-anchor="middle" x="1485" y="-63.5" font-family="Helvetica,sans-Serif" font-size="10.00">rc_genicam_api/interface.h</text>
</a>
</g>
</g>
<!-- Node15&#45;&gt;Node17 -->
<g id="edge18" class="edge">
<title>Node15&#45;&gt;Node17</title>
<path fill="none" stroke="midnightblue" d="M1105.72,-113.55C1183.73,-103.97 1319.32,-87.33 1405.49,-76.76"/>
<polygon fill="midnightblue" stroke="midnightblue" points="1405.99,-80.22 1415.49,-75.53 1405.13,-73.28 1405.99,-80.22"/>
</g>
<!-- Node18 -->
<g id="node18" class="node">
<title>Node18</title>
<g id="a_node18"><a xlink:title=" ">
<polygon fill="white" stroke="#bfbfbf" points="408,-56.5 408,-75.5 580,-75.5 580,-56.5 408,-56.5"/>
<text text-anchor="middle" x="494" y="-63.5" font-family="Helvetica,sans-Serif" font-size="10.00">rc_genicam_api/nodemap_out.h</text>
</a>
</g>
</g>
<!-- Node15&#45;&gt;Node18 -->
<g id="edge20" class="edge">
<title>Node15&#45;&gt;Node18</title>
<path fill="none" stroke="midnightblue" d="M984.46,-115.07C889.34,-105.74 704.06,-87.59 590.45,-76.45"/>
<polygon fill="midnightblue" stroke="midnightblue" points="590.66,-72.96 580.36,-75.46 589.97,-79.92 590.66,-72.96"/>
</g>
<!-- Node19 -->
<g id="node19" class="node">
<title>Node19</title>
<g id="a_node19"><a xlink:title=" ">
<polygon fill="white" stroke="#bfbfbf" points="598,-56.5 598,-75.5 658,-75.5 658,-56.5 598,-56.5"/>
<text text-anchor="middle" x="628" y="-63.5" font-family="Helvetica,sans-Serif" font-size="10.00">iostream</text>
</a>
</g>
</g>
<!-- Node15&#45;&gt;Node19 -->
<g id="edge22" class="edge">
<title>Node15&#45;&gt;Node19</title>
<path fill="none" stroke="midnightblue" d="M984.33,-115.69C909.6,-108.71 778.93,-95.05 668,-76 667.9,-75.98 667.8,-75.97 667.7,-75.95"/>
<polygon fill="midnightblue" stroke="midnightblue" points="668.55,-72.55 658.08,-74.11 667.24,-79.42 668.55,-72.55"/>
</g>
<!-- Node20 -->
<g id="node20" class="node">
<title>Node20</title>
<g id="a_node20"><a xlink:title=" ">
<polygon fill="white" stroke="#bfbfbf" points="676.5,-56.5 676.5,-75.5 741.5,-75.5 741.5,-56.5 676.5,-56.5"/>
<text text-anchor="middle" x="709" y="-63.5" font-family="Helvetica,sans-Serif" font-size="10.00">stdexcept</text>
</a>
</g>
</g>
<!-- Node15&#45;&gt;Node20 -->
<g id="edge25" class="edge">
<title>Node15&#45;&gt;Node20</title>
<path fill="none" stroke="midnightblue" d="M984.29,-112.78C926.93,-104.77 838.25,-91.76 751.54,-76"/>
<polygon fill="midnightblue" stroke="midnightblue" points="751.99,-72.53 741.52,-74.17 750.73,-79.41 751.99,-72.53"/>
</g>
<!-- Node15&#45;&gt;Node21 -->
<g id="edge27" class="edge">
<title>Node15&#45;&gt;Node21</title>
<path fill="none" stroke="midnightblue" d="M1105.61,-119.5C1201.84,-116.3 1395.48,-106.57 1566.71,-76.15"/>
<polygon fill="midnightblue" stroke="midnightblue" points="1567.43,-79.58 1576.65,-74.36 1566.19,-72.69 1567.43,-79.58"/>
</g>
<!-- Node22 -->
<g id="node22" class="node">
<title>Node22</title>
<g id="a_node22"><a xlink:title=" ">
<polygon fill="white" stroke="#bfbfbf" points="760,-56.5 760,-75.5 816,-75.5 816,-56.5 760,-56.5"/>
<text text-anchor="middle" x="788" y="-63.5" font-family="Helvetica,sans-Serif" font-size="10.00">iomanip</text>
</a>
</g>
</g>
<!-- Node15&#45;&gt;Node22 -->
<g id="edge28" class="edge">
<title>Node15&#45;&gt;Node22</title>
<path fill="none" stroke="midnightblue" d="M1000.65,-112.43C958.23,-104.12 892.23,-90.89 826.02,-76.17"/>
<polygon fill="midnightblue" stroke="midnightblue" points="826.78,-72.75 816.26,-73.99 825.25,-79.58 826.78,-72.75"/>
</g>
<!-- Node15&#45;&gt;Node23 -->
<g id="edge29" class="edge">
<title>Node15&#45;&gt;Node23</title>
<path fill="none" stroke="midnightblue" d="M1105.62,-119.87C1211.08,-117.14 1435.17,-107.95 1633.48,-75.76"/>
<polygon fill="midnightblue" stroke="midnightblue" points="1634.2,-79.19 1643.5,-74.11 1633.06,-72.28 1634.2,-79.19"/>
</g>
<!-- Node24 -->
<g id="node24" class="node">
<title>Node24</title>
<g id="a_node24"><a xlink:title=" ">
<polygon fill="white" stroke="#bfbfbf" points="834,-56.5 834,-75.5 866,-75.5 866,-56.5 834,-56.5"/>
<text text-anchor="middle" x="850" y="-63.5" font-family="Helvetica,sans-Serif" font-size="10.00">set</text>
</a>
</g>
</g>
<!-- Node15&#45;&gt;Node24 -->
<g id="edge31" class="edge">
<title>Node15&#45;&gt;Node24</title>
<path fill="none" stroke="midnightblue" d="M1009.83,-112.43C975.5,-103.88 921.88,-90.03 876,-76 875.9,-75.97 875.8,-75.94 875.7,-75.91"/>
<polygon fill="midnightblue" stroke="midnightblue" points="876.76,-72.57 866.17,-72.8 874.59,-79.23 876.76,-72.57"/>
</g>
<!-- Node25 -->
<g id="node25" class="node">
<title>Node25</title>
<g id="a_node25"><a xlink:title=" ">
<polygon fill="white" stroke="#bfbfbf" points="884.5,-56.5 884.5,-75.5 977.5,-75.5 977.5,-56.5 884.5,-56.5"/>
<text text-anchor="middle" x="931" y="-63.5" font-family="Helvetica,sans-Serif" font-size="10.00">unordered_map</text>
</a>
</g>
</g>
<!-- Node15&#45;&gt;Node25 -->
<g id="edge32" class="edge">
<title>Node15&#45;&gt;Node25</title>
<path fill="none" stroke="midnightblue" d="M1026.94,-112.44C1008.43,-103.68 979.42,-89.94 958.14,-79.86"/>
<polygon fill="midnightblue" stroke="midnightblue" points="959.51,-76.63 948.98,-75.52 956.52,-82.96 959.51,-76.63"/>
</g>
<!-- Node26 -->
<g id="node26" class="node">
<title>Node26</title>
<g id="a_node26"><a xlink:title=" ">
<polygon fill="white" stroke="#bfbfbf" points="995.5,-56.5 995.5,-75.5 1042.5,-75.5 1042.5,-56.5 995.5,-56.5"/>
<text text-anchor="middle" x="1019" y="-63.5" font-family="Helvetica,sans-Serif" font-size="10.00">deque</text>
</a>
</g>
</g>
<!-- Node15&#45;&gt;Node26 -->
<g id="edge33" class="edge">
<title>Node15&#45;&gt;Node26</title>
<path fill="none" stroke="midnightblue" d="M1040.71,-112.08C1037.15,-104.69 1031.98,-93.95 1027.58,-84.81"/>
<polygon fill="midnightblue" stroke="midnightblue" points="1030.71,-83.24 1023.21,-75.75 1024.4,-86.28 1030.71,-83.24"/>
</g>
</g>
</svg>
