<?xml version="1.0" encoding="UTF-8" standalone="no"?>
<!DOCTYPE svg PUBLIC "-//W3C//DTD SVG 1.1//EN"
 "http://www.w3.org/Graphics/SVG/1.1/DTD/svg11.dtd">
<!-- Generated by graphviz version 2.43.0 (0)
 -->
<!-- Title: src/SystemManager.hpp Pages: 1 -->
<svg width="238pt" height="85pt"
 viewBox="0.00 0.00 238.00 84.83" xmlns="http://www.w3.org/2000/svg" xmlns:xlink="http://www.w3.org/1999/xlink">
<g id="graph0" class="graph" transform="scale(1 1) rotate(0) translate(4 80.83)">
<title>src/SystemManager.hpp</title>
<polygon fill="white" stroke="transparent" points="-4,4 -4,-80.83 234,-80.83 234,4 -4,4"/>
<!-- Node1 -->
<g id="node1" class="node">
<title>Node1</title>
<g id="a_node1"><a xlink:title=" ">
<polygon fill="#bfbfbf" stroke="black" points="34.5,-56.5 34.5,-75.5 168.5,-75.5 168.5,-56.5 34.5,-56.5"/>
<text text-anchor="middle" x="101.5" y="-63.5" font-family="Helvetica,sans-Serif" font-size="10.00">src/SystemManager.hpp</text>
</a>
</g>
</g>
<!-- Node1&#45;&gt;Node1 -->
<g id="edge3" class="edge">
<title>Node1&#45;&gt;Node1</title>
<path fill="none" stroke="midnightblue" d="M147.77,-76.33C168.53,-77.33 186.5,-73.88 186.5,-66 186.5,-56.87 162.39,-53.69 137.75,-56.47"/>
<polygon fill="midnightblue" stroke="midnightblue" points="148,-72.84 137.75,-75.53 147.44,-79.82 148,-72.84"/>
</g>
<!-- Node2 -->
<g id="node2" class="node">
<title>Node2</title>
<g id="a_node2"><a xlink:href="main_8cpp.html" target="_top" xlink:title=" ">
<polygon fill="white" stroke="black" points="0,-0.5 0,-19.5 79,-19.5 79,-0.5 0,-0.5"/>
<text text-anchor="middle" x="39.5" y="-7.5" font-family="Helvetica,sans-Serif" font-size="10.00">src/main.cpp</text>
</a>
</g>
</g>
<!-- Node1&#45;&gt;Node2 -->
<g id="edge1" class="edge">
<title>Node1&#45;&gt;Node2</title>
<path fill="none" stroke="midnightblue" d="M83.75,-49.54C72.69,-39.91 58.87,-27.87 49.64,-19.83"/>
<polygon fill="midnightblue" stroke="midnightblue" points="81.7,-52.4 91.54,-56.32 86.3,-47.12 81.7,-52.4"/>
</g>
<!-- Node3 -->
<g id="node3" class="node">
<title>Node3</title>
<g id="a_node3"><a xlink:href="SystemManager_8cpp.html" target="_top" xlink:title=" ">
<polygon fill="white" stroke="black" points="97,-0.5 97,-19.5 230,-19.5 230,-0.5 97,-0.5"/>
<text text-anchor="middle" x="163.5" y="-7.5" font-family="Helvetica,sans-Serif" font-size="10.00">src/SystemManager.cpp</text>
</a>
</g>
</g>
<!-- Node1&#45;&gt;Node3 -->
<g id="edge2" class="edge">
<title>Node1&#45;&gt;Node3</title>
<path fill="none" stroke="midnightblue" d="M119.25,-49.54C130.31,-39.91 144.13,-27.87 153.36,-19.83"/>
<polygon fill="midnightblue" stroke="midnightblue" points="116.7,-47.12 111.46,-56.32 121.3,-52.4 116.7,-47.12"/>
</g>
</g>
</svg>
