<?xml version="1.0" encoding="UTF-8" standalone="no"?>
<!DOCTYPE svg PUBLIC "-//W3C//DTD SVG 1.1//EN"
 "http://www.w3.org/Graphics/SVG/1.1/DTD/svg11.dtd">
<!-- Generated by graphviz version 2.43.0 (0)
 -->
<!-- Title: src/SystemManager.hpp Pages: 1 -->
<!--zoomable 253 -->
<svg id="main" version="1.1" xmlns="http://www.w3.org/2000/svg" xmlns:xlink="http://www.w3.org/1999/xlink" xml:space="preserve" onload="init(evt)">
<style type="text/css"><![CDATA[
.edge:hover path { stroke: red; }
.edge:hover polygon { stroke: red; fill: red; }
]]></style>
<script type="text/javascript"><![CDATA[
var edges = document.getElementsByTagName('g');
if (edges && edges.length) {
  for (var i=0;i<edges.length;i++) {
    if (edges[i].id.substr(0,4)=='edge') {
      edges[i].setAttribute('class','edge');
    }
  }
}
]]></script>
        <defs>
                <circle id="rim" cx="0" cy="0" r="7"/>
                <circle id="rim2" cx="0" cy="0" r="3.5"/>
                <g id="zoomPlus">
                        <use xlink:href="#rim" fill="#404040">
                                <set attributeName="fill" to="#808080" begin="zoomplus.mouseover" end="zoomplus.mouseout"/>
                        </use>
                        <path d="M-4,0h8M0,-4v8" fill="none" stroke="white" stroke-width="1.5" pointer-events="none"/>
                </g>
                <g id="zoomMin">
                        <use xlink:href="#rim" fill="#404040">
                                <set attributeName="fill" to="#808080" begin="zoomminus.mouseover" end="zoomminus.mouseout"/>
                        </use>
                        <path d="M-4,0h8" fill="none" stroke="white" stroke-width="1.5" pointer-events="none"/>
                </g>
                <g id="dirArrow">
                        <path fill="none" stroke="white" stroke-width="1.5" d="M0,-3.0v7 M-2.5,-0.5L0,-3.0L2.5,-0.5"/>
                </g>
               <g id="resetDef">
                       <use xlink:href="#rim2" fill="#404040">
                               <set attributeName="fill" to="#808080" begin="reset.mouseover" end="reset.mouseout"/>
                       </use>
               </g>
        </defs>

<script type="text/javascript">
var viewWidth = 1976;
var viewHeight = 253;
var sectionId = 'dynsection-0';
</script>
<script xlink:href="svgpan.js"/>
<svg id="graph" class="graph">
<g id="viewport">
<title>src/SystemManager.hpp</title>
<polygon fill="white" stroke="transparent" points="-4,4 -4,-248.92 1971.75,-248.92 1971.75,4 -4,4"/>
<!-- Node1 -->
<g id="node1" class="node">
<title>Node1</title>
<g id="a_node1"><a xlink:title=" ">
<polygon fill="#bfbfbf" stroke="black" points="485.5,-224.5 485.5,-243.5 619.5,-243.5 619.5,-224.5 485.5,-224.5"/>
<text text-anchor="middle" x="552.5" y="-231.5" font-family="Helvetica,sans-Serif" font-size="10.00">src/SystemManager.hpp</text>
</a>
</g>
</g>
<!-- Node1&#45;&gt;Node1 -->
<g id="edge1" class="edge">
<title>Node1&#45;&gt;Node1</title>
<path fill="none" stroke="midnightblue" d="M588.75,-243.53C613.39,-246.31 637.5,-243.13 637.5,-234 637.5,-226.12 619.53,-222.67 598.77,-223.67"/>
<polygon fill="midnightblue" stroke="midnightblue" points="598.44,-220.18 588.75,-224.47 599,-227.16 598.44,-220.18"/>
</g>
<!-- Node2 -->
<g id="node2" class="node">
<title>Node2</title>
<g id="a_node2"><a xlink:href="DeviceManager_8hpp.html" target="_top" xlink:title=" ">
<polygon fill="white" stroke="black" points="1439,-112.5 1439,-131.5 1552,-131.5 1552,-112.5 1439,-112.5"/>
<text text-anchor="middle" x="1495.5" y="-119.5" font-family="Helvetica,sans-Serif" font-size="10.00">DeviceManager.hpp</text>
</a>
</g>
</g>
<!-- Node1&#45;&gt;Node2 -->
<g id="edge2" class="edge">
<title>Node1&#45;&gt;Node2</title>
<path fill="none" stroke="midnightblue" d="M619.56,-225.18C793.15,-204.93 1255.66,-150.98 1428.82,-130.78"/>
<polygon fill="midnightblue" stroke="midnightblue" points="1429.29,-134.25 1438.82,-129.61 1428.48,-127.29 1429.29,-134.25"/>
</g>
<!-- Node3 -->
<g id="node3" class="node">
<title>Node3</title>
<g id="a_node3"><a xlink:href="Camera_8hpp.html" target="_top" xlink:title=" ">
<polygon fill="white" stroke="black" points="506.5,-56.5 506.5,-75.5 582.5,-75.5 582.5,-56.5 506.5,-56.5"/>
<text text-anchor="middle" x="544.5" y="-63.5" font-family="Helvetica,sans-Serif" font-size="10.00">Camera.hpp</text>
</a>
</g>
</g>
<!-- Node1&#45;&gt;Node3 -->
<g id="edge57" class="edge">
<title>Node1&#45;&gt;Node3</title>
<path fill="none" stroke="midnightblue" d="M552.07,-224.08C550.81,-197.95 547.11,-121.21 545.4,-85.58"/>
<polygon fill="midnightblue" stroke="midnightblue" points="548.89,-85.39 544.91,-75.57 541.9,-85.73 548.89,-85.39"/>
</g>
<!-- Node7 -->
<g id="node7" class="node">
<title>Node7</title>
<g id="a_node7"><a xlink:title=" ">
<polygon fill="white" stroke="#bfbfbf" points="1528,-0.5 1528,-19.5 1665,-19.5 1665,-0.5 1528,-0.5"/>
<text text-anchor="middle" x="1596.5" y="-7.5" font-family="Helvetica,sans-Serif" font-size="10.00">rc_genicam_api/device.h</text>
</a>
</g>
</g>
<!-- Node1&#45;&gt;Node7 -->
<g id="edge58" class="edge">
<title>Node1&#45;&gt;Node7</title>
<path fill="none" stroke="midnightblue" d="M619.61,-233.12C784.21,-232.75 1220.88,-227.77 1582.5,-188 1757.94,-168.71 1889.95,-236.44 1963.5,-76 1967.2,-67.92 1969.39,-62.66 1963.5,-56 1944.74,-34.79 1777.5,-21.44 1675.37,-15.19"/>
<polygon fill="midnightblue" stroke="midnightblue" points="1675.28,-11.68 1665.09,-14.57 1674.86,-18.67 1675.28,-11.68"/>
</g>
<!-- Node9 -->
<g id="node9" class="node">
<title>Node9</title>
<g id="a_node9"><a xlink:title=" ">
<polygon fill="white" stroke="#bfbfbf" points="333.5,-0.5 333.5,-19.5 383.5,-19.5 383.5,-0.5 333.5,-0.5"/>
<text text-anchor="middle" x="358.5" y="-7.5" font-family="Helvetica,sans-Serif" font-size="10.00">atomic</text>
</a>
</g>
</g>
<!-- Node1&#45;&gt;Node9 -->
<g id="edge63" class="edge">
<title>Node1&#45;&gt;Node9</title>
<path fill="none" stroke="midnightblue" d="M550.03,-224.27C543.73,-203.16 525.43,-148.42 495.5,-112 478.18,-90.92 414.58,-47.71 380.46,-25.26"/>
<polygon fill="midnightblue" stroke="midnightblue" points="381.97,-22.06 371.69,-19.51 378.13,-27.91 381.97,-22.06"/>
</g>
<!-- Node11 -->
<g id="node11" class="node">
<title>Node11</title>
<g id="a_node11"><a xlink:title=" ">
<polygon fill="white" stroke="#bfbfbf" points="991.5,-0.5 991.5,-19.5 1049.5,-19.5 1049.5,-0.5 991.5,-0.5"/>
<text text-anchor="middle" x="1020.5" y="-7.5" font-family="Helvetica,sans-Serif" font-size="10.00">memory</text>
</a>
</g>
</g>
<!-- Node1&#45;&gt;Node11 -->
<g id="edge60" class="edge">
<title>Node1&#45;&gt;Node11</title>
<path fill="none" stroke="midnightblue" d="M619.55,-231.6C850.79,-226.18 1613.49,-203.2 1846.5,-132 1901.63,-115.15 1932.77,-124.78 1963.5,-76 1968.24,-68.48 1969.63,-62.43 1963.5,-56 1931.84,-22.8 1234.06,-13.25 1059.71,-11.38"/>
<polygon fill="midnightblue" stroke="midnightblue" points="1059.73,-7.88 1049.69,-11.27 1059.65,-14.88 1059.73,-7.88"/>
</g>
<!-- Node13 -->
<g id="node13" class="node">
<title>Node13</title>
<g id="a_node13"><a xlink:title=" ">
<polygon fill="white" stroke="#bfbfbf" points="929.5,-0.5 929.5,-19.5 973.5,-19.5 973.5,-0.5 929.5,-0.5"/>
<text text-anchor="middle" x="951.5" y="-7.5" font-family="Helvetica,sans-Serif" font-size="10.00">string</text>
</a>
</g>
</g>
<!-- Node1&#45;&gt;Node13 -->
<g id="edge62" class="edge">
<title>Node1&#45;&gt;Node13</title>
<path fill="none" stroke="midnightblue" d="M619.56,-230.67C885.98,-220.75 1859.49,-177.71 1947.5,-76 1953.32,-69.28 1953.67,-62.4 1947.5,-56 1911.66,-18.8 1099.24,-27.78 983.85,-19.22"/>
<polygon fill="midnightblue" stroke="midnightblue" points="984.01,-15.72 973.7,-18.15 983.28,-22.68 984.01,-15.72"/>
</g>
<!-- Node14 -->
<g id="node14" class="node">
<title>Node14</title>
<g id="a_node14"><a xlink:title=" ">
<polygon fill="white" stroke="#bfbfbf" points="0,-0.5 0,-19.5 47,-19.5 47,-0.5 0,-0.5"/>
<text text-anchor="middle" x="23.5" y="-7.5" font-family="Helvetica,sans-Serif" font-size="10.00">vector</text>
</a>
</g>
</g>
<!-- Node1&#45;&gt;Node14 -->
<g id="edge59" class="edge">
<title>Node1&#45;&gt;Node14</title>
<path fill="none" stroke="midnightblue" d="M485.25,-229.93C393.51,-224.88 234.57,-212.8 182.5,-188 108.87,-152.93 54.24,-66.68 33.1,-29.04"/>
<polygon fill="midnightblue" stroke="midnightblue" points="35.91,-26.89 28.03,-19.8 29.77,-30.26 35.91,-26.89"/>
</g>
<!-- Node15 -->
<g id="node15" class="node">
<title>Node15</title>
<g id="a_node15"><a xlink:title=" ">
<polygon fill="white" stroke="#bfbfbf" points="65.5,-0.5 65.5,-19.5 115.5,-19.5 115.5,-0.5 65.5,-0.5"/>
<text text-anchor="middle" x="90.5" y="-7.5" font-family="Helvetica,sans-Serif" font-size="10.00">chrono</text>
</a>
</g>
</g>
<!-- Node1&#45;&gt;Node15 -->
<g id="edge64" class="edge">
<title>Node1&#45;&gt;Node15</title>
<path fill="none" stroke="midnightblue" d="M485.26,-229.16C401.5,-223.49 263.85,-210.96 218.5,-188 158.7,-157.72 152.3,-133.28 117.5,-76 108.49,-61.17 101.17,-42.79 96.43,-29.36"/>
<polygon fill="midnightblue" stroke="midnightblue" points="99.72,-28.17 93.21,-19.81 93.09,-30.41 99.72,-28.17"/>
</g>
<!-- Node25 -->
<g id="node25" class="node">
<title>Node25</title>
<g id="a_node25"><a xlink:href="NetworkManager_8hpp.html" target="_top" xlink:title=" ">
<polygon fill="white" stroke="black" points="685,-112.5 685,-131.5 806,-131.5 806,-112.5 685,-112.5"/>
<text text-anchor="middle" x="745.5" y="-119.5" font-family="Helvetica,sans-Serif" font-size="10.00">NetworkManager.hpp</text>
</a>
</g>
</g>
<!-- Node1&#45;&gt;Node25 -->
<g id="edge26" class="edge">
<title>Node1&#45;&gt;Node25</title>
<path fill="none" stroke="midnightblue" d="M567.64,-224.37C601.05,-205.33 681.26,-159.62 721.55,-136.65"/>
<polygon fill="midnightblue" stroke="midnightblue" points="723.47,-139.58 730.43,-131.59 720,-133.5 723.47,-139.58"/>
</g>
<!-- Node31 -->
<g id="node31" class="node">
<title>Node31</title>
<g id="a_node31"><a xlink:href="StreamManager_8hpp.html" target="_top" xlink:title=" ">
<polygon fill="white" stroke="black" points="228,-168.5 228,-187.5 343,-187.5 343,-168.5 228,-168.5"/>
<text text-anchor="middle" x="285.5" y="-175.5" font-family="Helvetica,sans-Serif" font-size="10.00">StreamManager.hpp</text>
</a>
</g>
</g>
<!-- Node1&#45;&gt;Node31 -->
<g id="edge45" class="edge">
<title>Node1&#45;&gt;Node31</title>
<path fill="none" stroke="midnightblue" d="M510.19,-224.44C463.42,-214.98 388.04,-199.74 337.65,-189.55"/>
<polygon fill="midnightblue" stroke="midnightblue" points="338.1,-186.07 327.61,-187.52 336.72,-192.93 338.1,-186.07"/>
</g>
<!-- Node33 -->
<g id="node33" class="node">
<title>Node33</title>
<g id="a_node33"><a xlink:title=" ">
<polygon fill="white" stroke="#bfbfbf" points="454.5,-112.5 454.5,-131.5 486.5,-131.5 486.5,-112.5 454.5,-112.5"/>
<text text-anchor="middle" x="470.5" y="-119.5" font-family="Helvetica,sans-Serif" font-size="10.00">list</text>
</a>
</g>
</g>
<!-- Node1&#45;&gt;Node33 -->
<g id="edge61" class="edge">
<title>Node1&#45;&gt;Node33</title>
<path fill="none" stroke="midnightblue" d="M539.58,-224.26C528.13,-215.99 511.55,-202.69 500.5,-188 489.77,-173.74 481.64,-155.02 476.57,-141.34"/>
<polygon fill="midnightblue" stroke="midnightblue" points="479.77,-139.9 473.16,-131.62 473.17,-142.22 479.77,-139.9"/>
</g>
<!-- Node2&#45;&gt;Node3 -->
<g id="edge3" class="edge">
<title>Node2&#45;&gt;Node3</title>
<path fill="none" stroke="midnightblue" d="M1438.94,-120.92C1297.73,-120.13 918.25,-114.4 592.75,-75.97"/>
<polygon fill="midnightblue" stroke="midnightblue" points="592.99,-72.48 582.65,-74.77 592.16,-79.43 592.99,-72.48"/>
</g>
<!-- Node2&#45;&gt;Node7 -->
<g id="edge18" class="edge">
<title>Node2&#45;&gt;Node7</title>
<path fill="none" stroke="midnightblue" d="M1552.3,-119.52C1667.82,-115.92 1921.43,-104.79 1947.5,-76 1953.47,-69.41 1953.37,-62.67 1947.5,-56 1929.81,-35.9 1773.44,-22.31 1675.48,-15.68"/>
<polygon fill="midnightblue" stroke="midnightblue" points="1675.51,-12.17 1665.3,-15 1675.05,-19.16 1675.51,-12.17"/>
</g>
<!-- Node16 -->
<g id="node16" class="node">
<title>Node16</title>
<g id="a_node16"><a xlink:title=" ">
<polygon fill="white" stroke="#bfbfbf" points="1573,-56.5 1573,-75.5 1714,-75.5 1714,-56.5 1573,-56.5"/>
<text text-anchor="middle" x="1643.5" y="-63.5" font-family="Helvetica,sans-Serif" font-size="10.00">rc_genicam_api/system.h</text>
</a>
</g>
</g>
<!-- Node2&#45;&gt;Node16 -->
<g id="edge16" class="edge">
<title>Node2&#45;&gt;Node16</title>
<path fill="none" stroke="midnightblue" d="M1518.95,-112.44C1543.63,-103.44 1582.69,-89.19 1610.48,-79.05"/>
<polygon fill="midnightblue" stroke="midnightblue" points="1611.96,-82.23 1620.16,-75.52 1609.56,-75.66 1611.96,-82.23"/>
</g>
<!-- Node17 -->
<g id="node17" class="node">
<title>Node17</title>
<g id="a_node17"><a xlink:title=" ">
<polygon fill="white" stroke="#bfbfbf" points="1013,-56.5 1013,-75.5 1162,-75.5 1162,-56.5 1013,-56.5"/>
<text text-anchor="middle" x="1087.5" y="-63.5" font-family="Helvetica,sans-Serif" font-size="10.00">rc_genicam_api/interface.h</text>
</a>
</g>
</g>
<!-- Node2&#45;&gt;Node17 -->
<g id="edge17" class="edge">
<title>Node2&#45;&gt;Node17</title>
<path fill="none" stroke="midnightblue" d="M1438.77,-113.49C1366.54,-103.93 1241.56,-87.39 1161.79,-76.83"/>
<polygon fill="midnightblue" stroke="midnightblue" points="1162.18,-73.35 1151.81,-75.51 1161.27,-80.29 1162.18,-73.35"/>
</g>
<!-- Node18 -->
<g id="node18" class="node">
<title>Node18</title>
<g id="a_node18"><a xlink:title=" ">
<polygon fill="white" stroke="#bfbfbf" points="1180.5,-56.5 1180.5,-75.5 1352.5,-75.5 1352.5,-56.5 1180.5,-56.5"/>
<text text-anchor="middle" x="1266.5" y="-63.5" font-family="Helvetica,sans-Serif" font-size="10.00">rc_genicam_api/nodemap_out.h</text>
</a>
</g>
</g>
<!-- Node2&#45;&gt;Node18 -->
<g id="edge19" class="edge">
<title>Node2&#45;&gt;Node18</title>
<path fill="none" stroke="midnightblue" d="M1459.21,-112.44C1419.52,-103.08 1355.79,-88.06 1312.59,-77.87"/>
<polygon fill="midnightblue" stroke="midnightblue" points="1313.15,-74.41 1302.62,-75.52 1311.55,-81.22 1313.15,-74.41"/>
</g>
<!-- Node19 -->
<g id="node19" class="node">
<title>Node19</title>
<g id="a_node19"><a xlink:title=" ">
<polygon fill="white" stroke="#bfbfbf" points="1370.5,-56.5 1370.5,-75.5 1430.5,-75.5 1430.5,-56.5 1370.5,-56.5"/>
<text text-anchor="middle" x="1400.5" y="-63.5" font-family="Helvetica,sans-Serif" font-size="10.00">iostream</text>
</a>
</g>
</g>
<!-- Node2&#45;&gt;Node19 -->
<g id="edge20" class="edge">
<title>Node2&#45;&gt;Node19</title>
<path fill="none" stroke="midnightblue" d="M1480.24,-112.32C1465.28,-103.82 1442.25,-90.73 1424.77,-80.8"/>
<polygon fill="midnightblue" stroke="midnightblue" points="1426.15,-77.55 1415.73,-75.65 1422.69,-83.64 1426.15,-77.55"/>
</g>
<!-- Node20 -->
<g id="node20" class="node">
<title>Node20</title>
<g id="a_node20"><a xlink:title=" ">
<polygon fill="white" stroke="#bfbfbf" points="1732.5,-56.5 1732.5,-75.5 1788.5,-75.5 1788.5,-56.5 1732.5,-56.5"/>
<text text-anchor="middle" x="1760.5" y="-63.5" font-family="Helvetica,sans-Serif" font-size="10.00">sstream</text>
</a>
</g>
</g>
<!-- Node2&#45;&gt;Node20 -->
<g id="edge21" class="edge">
<title>Node2&#45;&gt;Node20</title>
<path fill="none" stroke="midnightblue" d="M1541.91,-112.46C1585.91,-104.22 1654.08,-91.1 1722.2,-76.22"/>
<polygon fill="midnightblue" stroke="midnightblue" points="1723.23,-79.57 1732.25,-74.01 1721.73,-72.74 1723.23,-79.57"/>
</g>
<!-- Node21 -->
<g id="node21" class="node">
<title>Node21</title>
<g id="a_node21"><a xlink:title=" ">
<polygon fill="white" stroke="#bfbfbf" points="1448.5,-56.5 1448.5,-75.5 1480.5,-75.5 1480.5,-56.5 1448.5,-56.5"/>
<text text-anchor="middle" x="1464.5" y="-63.5" font-family="Helvetica,sans-Serif" font-size="10.00">set</text>
</a>
</g>
</g>
<!-- Node2&#45;&gt;Node21 -->
<g id="edge22" class="edge">
<title>Node2&#45;&gt;Node21</title>
<path fill="none" stroke="midnightblue" d="M1490.38,-112.08C1486.09,-104.61 1479.84,-93.72 1474.56,-84.52"/>
<polygon fill="midnightblue" stroke="midnightblue" points="1477.54,-82.68 1469.52,-75.75 1471.47,-86.17 1477.54,-82.68"/>
</g>
<!-- Node22 -->
<g id="node22" class="node">
<title>Node22</title>
<g id="a_node22"><a xlink:title=" ">
<polygon fill="white" stroke="#bfbfbf" points="1807,-56.5 1807,-75.5 1876,-75.5 1876,-56.5 1807,-56.5"/>
<text text-anchor="middle" x="1841.5" y="-63.5" font-family="Helvetica,sans-Serif" font-size="10.00">arpa/inet.h</text>
</a>
</g>
</g>
<!-- Node2&#45;&gt;Node22 -->
<g id="edge23" class="edge">
<title>Node2&#45;&gt;Node22</title>
<path fill="none" stroke="midnightblue" d="M1552.14,-113.49C1610.8,-105.5 1705.34,-92.04 1796.95,-76.01"/>
<polygon fill="midnightblue" stroke="midnightblue" points="1797.71,-79.43 1806.95,-74.25 1796.49,-72.54 1797.71,-79.43"/>
</g>
<!-- Node23 -->
<g id="node23" class="node">
<title>Node23</title>
<g id="a_node23"><a xlink:title=" ">
<polygon fill="white" stroke="#bfbfbf" points="1498.5,-56.5 1498.5,-75.5 1554.5,-75.5 1554.5,-56.5 1498.5,-56.5"/>
<text text-anchor="middle" x="1526.5" y="-63.5" font-family="Helvetica,sans-Serif" font-size="10.00">iomanip</text>
</a>
</g>
</g>
<!-- Node2&#45;&gt;Node23 -->
<g id="edge24" class="edge">
<title>Node2&#45;&gt;Node23</title>
<path fill="none" stroke="midnightblue" d="M1500.62,-112.08C1504.91,-104.61 1511.16,-93.72 1516.44,-84.52"/>
<polygon fill="midnightblue" stroke="midnightblue" points="1519.53,-86.17 1521.48,-75.75 1513.46,-82.68 1519.53,-86.17"/>
</g>
<!-- Node24 -->
<g id="node24" class="node">
<title>Node24</title>
<g id="a_node24"><a xlink:title=" ">
<polygon fill="white" stroke="#bfbfbf" points="1894.5,-56.5 1894.5,-75.5 1938.5,-75.5 1938.5,-56.5 1894.5,-56.5"/>
<text text-anchor="middle" x="1916.5" y="-63.5" font-family="Helvetica,sans-Serif" font-size="10.00">regex</text>
</a>
</g>
</g>
<!-- Node2&#45;&gt;Node24 -->
<g id="edge25" class="edge">
<title>Node2&#45;&gt;Node24</title>
<path fill="none" stroke="midnightblue" d="M1552.15,-117.45C1626.45,-112.14 1760.91,-100.26 1884.26,-75.94"/>
<polygon fill="midnightblue" stroke="midnightblue" points="1885.14,-79.34 1894.26,-73.94 1883.77,-72.47 1885.14,-79.34"/>
</g>
<!-- Node4 -->
<g id="node4" class="node">
<title>Node4</title>
<g id="a_node4"><a xlink:title=" ">
<polygon fill="white" stroke="#bfbfbf" points="812,-0.5 812,-19.5 911,-19.5 911,-0.5 812,-0.5"/>
<text text-anchor="middle" x="861.5" y="-7.5" font-family="Helvetica,sans-Serif" font-size="10.00">GenApi/GenApi.h</text>
</a>
</g>
</g>
<!-- Node3&#45;&gt;Node4 -->
<g id="edge4" class="edge">
<title>Node3&#45;&gt;Node4</title>
<path fill="none" stroke="midnightblue" d="M582.71,-57.6C585.68,-57.05 588.64,-56.51 591.5,-56 663.72,-43.07 747.03,-29.37 801.79,-20.53"/>
<polygon fill="midnightblue" stroke="midnightblue" points="802.36,-23.98 811.67,-18.94 801.25,-17.07 802.36,-23.98"/>
</g>
<!-- Node5 -->
<g id="node5" class="node">
<title>Node5</title>
<g id="a_node5"><a xlink:title=" ">
<polygon fill="white" stroke="#bfbfbf" points="133.5,-0.5 133.5,-19.5 249.5,-19.5 249.5,-0.5 133.5,-0.5"/>
<text text-anchor="middle" x="191.5" y="-7.5" font-family="Helvetica,sans-Serif" font-size="10.00">opencv2/opencv.hpp</text>
</a>
</g>
</g>
<!-- Node3&#45;&gt;Node5 -->
<g id="edge5" class="edge">
<title>Node3&#45;&gt;Node5</title>
<path fill="none" stroke="midnightblue" d="M506.39,-59.17C446.71,-50.04 330.46,-32.26 257.13,-21.04"/>
<polygon fill="midnightblue" stroke="midnightblue" points="257.49,-17.55 247.07,-19.5 256.43,-24.47 257.49,-17.55"/>
</g>
<!-- Node6 -->
<g id="node6" class="node">
<title>Node6</title>
<g id="a_node6"><a xlink:title=" ">
<polygon fill="white" stroke="#bfbfbf" points="402,-0.5 402,-19.5 535,-19.5 535,-0.5 402,-0.5"/>
<text text-anchor="middle" x="468.5" y="-7.5" font-family="Helvetica,sans-Serif" font-size="10.00">rc_genicam_api/buffer.h</text>
</a>
</g>
</g>
<!-- Node3&#45;&gt;Node6 -->
<g id="edge6" class="edge">
<title>Node3&#45;&gt;Node6</title>
<path fill="none" stroke="midnightblue" d="M532.29,-56.32C520.72,-48.11 503.12,-35.6 489.34,-25.81"/>
<polygon fill="midnightblue" stroke="midnightblue" points="491.11,-22.77 480.93,-19.83 487.06,-28.48 491.11,-22.77"/>
</g>
<!-- Node3&#45;&gt;Node7 -->
<g id="edge7" class="edge">
<title>Node3&#45;&gt;Node7</title>
<path fill="none" stroke="midnightblue" d="M582.65,-57.22C585.64,-56.75 588.61,-56.34 591.5,-56 934.88,-15.65 1348.14,-10.8 1517.89,-10.67"/>
<polygon fill="midnightblue" stroke="midnightblue" points="1517.99,-14.17 1527.99,-10.67 1517.98,-7.17 1517.99,-14.17"/>
</g>
<!-- Node8 -->
<g id="node8" class="node">
<title>Node8</title>
<g id="a_node8"><a xlink:title=" ">
<polygon fill="white" stroke="#bfbfbf" points="553.5,-0.5 553.5,-19.5 725.5,-19.5 725.5,-0.5 553.5,-0.5"/>
<text text-anchor="middle" x="639.5" y="-7.5" font-family="Helvetica,sans-Serif" font-size="10.00">rc_genicam_api/pixel_formats.h</text>
</a>
</g>
</g>
<!-- Node3&#45;&gt;Node8 -->
<g id="edge8" class="edge">
<title>Node3&#45;&gt;Node8</title>
<path fill="none" stroke="midnightblue" d="M559.76,-56.32C574.72,-47.82 597.75,-34.73 615.23,-24.8"/>
<polygon fill="midnightblue" stroke="midnightblue" points="617.31,-27.64 624.27,-19.65 613.85,-21.55 617.31,-27.64"/>
</g>
<!-- Node3&#45;&gt;Node9 -->
<g id="edge9" class="edge">
<title>Node3&#45;&gt;Node9</title>
<path fill="none" stroke="midnightblue" d="M515.03,-56.44C482.02,-46.86 428.57,-31.34 393.48,-21.15"/>
<polygon fill="midnightblue" stroke="midnightblue" points="394.24,-17.73 383.66,-18.3 392.29,-24.45 394.24,-17.73"/>
</g>
<!-- Node10 -->
<g id="node10" class="node">
<title>Node10</title>
<g id="a_node10"><a xlink:title=" ">
<polygon fill="white" stroke="#bfbfbf" points="743.5,-0.5 743.5,-19.5 793.5,-19.5 793.5,-0.5 743.5,-0.5"/>
<text text-anchor="middle" x="768.5" y="-7.5" font-family="Helvetica,sans-Serif" font-size="10.00">cstdint</text>
</a>
</g>
</g>
<!-- Node3&#45;&gt;Node10 -->
<g id="edge10" class="edge">
<title>Node3&#45;&gt;Node10</title>
<path fill="none" stroke="midnightblue" d="M581.71,-56.49C618.04,-48.12 675.14,-34.77 733.51,-20.2"/>
<polygon fill="midnightblue" stroke="midnightblue" points="734.42,-23.58 743.27,-17.76 732.72,-16.79 734.42,-23.58"/>
</g>
<!-- Node3&#45;&gt;Node11 -->
<g id="edge11" class="edge">
<title>Node3&#45;&gt;Node11</title>
<path fill="none" stroke="midnightblue" d="M582.67,-57.37C585.65,-56.87 588.62,-56.41 591.5,-56 761.09,-32.01 808.53,-47.58 981.19,-20"/>
<polygon fill="midnightblue" stroke="midnightblue" points="981.81,-23.45 991.12,-18.39 980.69,-16.54 981.81,-23.45"/>
</g>
<!-- Node12 -->
<g id="node12" class="node">
<title>Node12</title>
<g id="a_node12"><a xlink:title=" ">
<polygon fill="white" stroke="#bfbfbf" points="267.5,-0.5 267.5,-19.5 315.5,-19.5 315.5,-0.5 267.5,-0.5"/>
<text text-anchor="middle" x="291.5" y="-7.5" font-family="Helvetica,sans-Serif" font-size="10.00">mutex</text>
</a>
</g>
</g>
<!-- Node3&#45;&gt;Node12 -->
<g id="edge12" class="edge">
<title>Node3&#45;&gt;Node12</title>
<path fill="none" stroke="midnightblue" d="M506.18,-57.94C464.13,-50.02 394.45,-36.39 325.35,-20.09"/>
<polygon fill="midnightblue" stroke="midnightblue" points="326.14,-16.68 315.6,-17.77 324.52,-23.49 326.14,-16.68"/>
</g>
<!-- Node3&#45;&gt;Node13 -->
<g id="edge13" class="edge">
<title>Node3&#45;&gt;Node13</title>
<path fill="none" stroke="midnightblue" d="M582.68,-57.42C585.66,-56.91 588.62,-56.43 591.5,-56 733.7,-34.64 774.4,-47.98 919.12,-19.96"/>
<polygon fill="midnightblue" stroke="midnightblue" points="920.13,-23.32 929.26,-17.96 918.78,-16.46 920.13,-23.32"/>
</g>
<!-- Node3&#45;&gt;Node14 -->
<g id="edge14" class="edge">
<title>Node3&#45;&gt;Node14</title>
<path fill="none" stroke="midnightblue" d="M506.16,-62.33C410.11,-55.52 160.19,-36.92 57.25,-19.75"/>
<polygon fill="midnightblue" stroke="midnightblue" points="57.63,-16.27 47.18,-17.99 56.43,-23.16 57.63,-16.27"/>
</g>
<!-- Node3&#45;&gt;Node15 -->
<g id="edge15" class="edge">
<title>Node3&#45;&gt;Node15</title>
<path fill="none" stroke="midnightblue" d="M506.37,-61.66C420.66,-54.05 213.98,-35 125.58,-19.89"/>
<polygon fill="midnightblue" stroke="midnightblue" points="126.11,-16.43 115.65,-18.11 124.88,-23.32 126.11,-16.43"/>
</g>
<!-- Node25&#45;&gt;Node3 -->
<g id="edge27" class="edge">
<title>Node25&#45;&gt;Node3</title>
<path fill="none" stroke="midnightblue" d="M713.65,-112.44C679.1,-103.16 623.82,-88.31 585.92,-78.13"/>
<polygon fill="midnightblue" stroke="midnightblue" points="586.77,-74.73 576.2,-75.52 584.95,-81.49 586.77,-74.73"/>
</g>
<!-- Node25&#45;&gt;Node4 -->
<g id="edge32" class="edge">
<title>Node25&#45;&gt;Node4</title>
<path fill="none" stroke="midnightblue" d="M732.01,-112.42C713.88,-99.82 685.57,-75.68 700.5,-56 707.41,-46.89 766.82,-31.95 811.47,-21.8"/>
<polygon fill="midnightblue" stroke="midnightblue" points="812.34,-25.19 821.32,-19.59 810.8,-18.36 812.34,-25.19"/>
</g>
<!-- Node25&#45;&gt;Node7 -->
<g id="edge30" class="edge">
<title>Node25&#45;&gt;Node7</title>
<path fill="none" stroke="midnightblue" d="M802.22,-112.43C845.85,-105.04 907.3,-92.88 959.5,-76 980.32,-69.27 983.28,-61.35 1004.5,-56 1099.45,-32.06 1379.54,-18.87 1517.67,-13.66"/>
<polygon fill="midnightblue" stroke="midnightblue" points="1517.9,-17.15 1527.76,-13.28 1517.64,-10.16 1517.9,-17.15"/>
</g>
<!-- Node25&#45;&gt;Node9 -->
<g id="edge41" class="edge">
<title>Node25&#45;&gt;Node9</title>
<path fill="none" stroke="midnightblue" d="M684.81,-114.43C633.94,-107.87 559.83,-95.86 497.5,-76 496.78,-75.77 426.48,-42.85 386.14,-23.95"/>
<polygon fill="midnightblue" stroke="midnightblue" points="387.38,-20.67 376.84,-19.59 384.41,-27 387.38,-20.67"/>
</g>
<!-- Node25&#45;&gt;Node11 -->
<g id="edge34" class="edge">
<title>Node25&#45;&gt;Node11</title>
<path fill="none" stroke="midnightblue" d="M803.4,-112.48C840.35,-105.68 888.62,-94.2 928.5,-76 956.94,-63.02 985.73,-40.91 1003.35,-26.13"/>
<polygon fill="midnightblue" stroke="midnightblue" points="1005.73,-28.7 1011.05,-19.53 1001.18,-23.38 1005.73,-28.7"/>
</g>
<!-- Node25&#45;&gt;Node13 -->
<g id="edge35" class="edge">
<title>Node25&#45;&gt;Node13</title>
<path fill="none" stroke="midnightblue" d="M740,-112.33C732.14,-98.74 720.05,-72.28 733.5,-56 785.39,6.84 834.44,-36.33 919.25,-19.91"/>
<polygon fill="midnightblue" stroke="midnightblue" points="920.19,-23.29 929.21,-17.74 918.7,-16.45 920.19,-23.29"/>
</g>
<!-- Node25&#45;&gt;Node15 -->
<g id="edge37" class="edge">
<title>Node25&#45;&gt;Node15</title>
<path fill="none" stroke="midnightblue" d="M684.77,-113.94C625.22,-106.49 532.06,-93.4 452.5,-76 420.89,-69.09 414.16,-62.7 382.5,-56 272.33,-32.69 239.77,-42.29 125.51,-19.98"/>
<polygon fill="midnightblue" stroke="midnightblue" points="126.16,-16.54 115.67,-18.02 124.8,-23.41 126.16,-16.54"/>
</g>
<!-- Node25&#45;&gt;Node16 -->
<g id="edge28" class="edge">
<title>Node25&#45;&gt;Node16</title>
<path fill="none" stroke="midnightblue" d="M806.13,-118.85C940.32,-113.83 1272.83,-99.99 1562.56,-76.03"/>
<polygon fill="midnightblue" stroke="midnightblue" points="1563.18,-79.49 1572.85,-75.17 1562.6,-72.51 1563.18,-79.49"/>
</g>
<!-- Node25&#45;&gt;Node17 -->
<g id="edge29" class="edge">
<title>Node25&#45;&gt;Node17</title>
<path fill="none" stroke="midnightblue" d="M799.69,-112.44C860.48,-102.85 958.99,-87.29 1023.51,-77.1"/>
<polygon fill="midnightblue" stroke="midnightblue" points="1024.23,-80.53 1033.56,-75.52 1023.14,-73.62 1024.23,-80.53"/>
</g>
<!-- Node25&#45;&gt;Node18 -->
<g id="edge31" class="edge">
<title>Node25&#45;&gt;Node18</title>
<path fill="none" stroke="midnightblue" d="M806.03,-114.73C896.56,-105.34 1067.91,-87.58 1174.14,-76.57"/>
<polygon fill="midnightblue" stroke="midnightblue" points="1174.62,-80.04 1184.21,-75.53 1173.9,-73.08 1174.62,-80.04"/>
</g>
<!-- Node25&#45;&gt;Node19 -->
<g id="edge33" class="edge">
<title>Node25&#45;&gt;Node19</title>
<path fill="none" stroke="midnightblue" d="M806.17,-119.66C915.3,-116.57 1151.97,-106.81 1360.45,-75.93"/>
<polygon fill="midnightblue" stroke="midnightblue" points="1360.98,-79.38 1370.35,-74.44 1359.95,-72.46 1360.98,-79.38"/>
</g>
<!-- Node25&#45;&gt;Node21 -->
<g id="edge42" class="edge">
<title>Node25&#45;&gt;Node21</title>
<path fill="none" stroke="midnightblue" d="M806.18,-119.25C948.52,-114.8 1301.5,-101.67 1438.42,-75.56"/>
<polygon fill="midnightblue" stroke="midnightblue" points="1439.17,-78.98 1448.28,-73.58 1437.79,-72.12 1439.17,-78.98"/>
</g>
<!-- Node25&#45;&gt;Node23 -->
<g id="edge39" class="edge">
<title>Node25&#45;&gt;Node23</title>
<path fill="none" stroke="midnightblue" d="M806.16,-120.98C931.88,-120.15 1230.04,-114.08 1488.38,-75.89"/>
<polygon fill="midnightblue" stroke="midnightblue" points="1488.95,-79.34 1498.32,-74.4 1487.91,-72.42 1488.95,-79.34"/>
</g>
<!-- Node26 -->
<g id="node26" class="node">
<title>Node26</title>
<g id="a_node26"><a xlink:title=" ">
<polygon fill="white" stroke="#bfbfbf" points="743,-56.5 743,-75.5 808,-75.5 808,-56.5 743,-56.5"/>
<text text-anchor="middle" x="775.5" y="-63.5" font-family="Helvetica,sans-Serif" font-size="10.00">stdexcept</text>
</a>
</g>
</g>
<!-- Node25&#45;&gt;Node26 -->
<g id="edge36" class="edge">
<title>Node25&#45;&gt;Node26</title>
<path fill="none" stroke="midnightblue" d="M750.45,-112.08C754.6,-104.61 760.65,-93.72 765.77,-84.52"/>
<polygon fill="midnightblue" stroke="midnightblue" points="768.84,-86.19 770.64,-75.75 762.72,-82.79 768.84,-86.19"/>
</g>
<!-- Node27 -->
<g id="node27" class="node">
<title>Node27</title>
<g id="a_node27"><a xlink:title=" ">
<polygon fill="white" stroke="#bfbfbf" points="256.5,-56.5 256.5,-75.5 304.5,-75.5 304.5,-56.5 256.5,-56.5"/>
<text text-anchor="middle" x="280.5" y="-63.5" font-family="Helvetica,sans-Serif" font-size="10.00">thread</text>
</a>
</g>
</g>
<!-- Node25&#45;&gt;Node27 -->
<g id="edge38" class="edge">
<title>Node25&#45;&gt;Node27</title>
<path fill="none" stroke="midnightblue" d="M684.95,-117.8C602.95,-112.79 451.98,-101.12 314.43,-75.88"/>
<polygon fill="midnightblue" stroke="midnightblue" points="315.02,-72.43 304.55,-74.04 313.74,-79.32 315.02,-72.43"/>
</g>
<!-- Node28 -->
<g id="node28" class="node">
<title>Node28</title>
<g id="a_node28"><a xlink:title=" ">
<polygon fill="white" stroke="#bfbfbf" points="323,-56.5 323,-75.5 374,-75.5 374,-56.5 323,-56.5"/>
<text text-anchor="middle" x="348.5" y="-63.5" font-family="Helvetica,sans-Serif" font-size="10.00">csignal</text>
</a>
</g>
</g>
<!-- Node25&#45;&gt;Node28 -->
<g id="edge40" class="edge">
<title>Node25&#45;&gt;Node28</title>
<path fill="none" stroke="midnightblue" d="M684.91,-115.15C613.68,-107.87 492.03,-94.13 388.5,-76 387.05,-75.75 385.58,-75.48 384.1,-75.19"/>
<polygon fill="midnightblue" stroke="midnightblue" points="384.75,-71.75 374.25,-73.17 383.34,-78.61 384.75,-71.75"/>
</g>
<!-- Node29 -->
<g id="node29" class="node">
<title>Node29</title>
<g id="a_node29"><a xlink:title=" ">
<polygon fill="white" stroke="#bfbfbf" points="826,-56.5 826,-75.5 919,-75.5 919,-56.5 826,-56.5"/>
<text text-anchor="middle" x="872.5" y="-63.5" font-family="Helvetica,sans-Serif" font-size="10.00">unordered_map</text>
</a>
</g>
</g>
<!-- Node25&#45;&gt;Node29 -->
<g id="edge43" class="edge">
<title>Node25&#45;&gt;Node29</title>
<path fill="none" stroke="midnightblue" d="M765.62,-112.44C786.52,-103.56 819.43,-89.56 843.22,-79.45"/>
<polygon fill="midnightblue" stroke="midnightblue" points="844.64,-82.65 852.47,-75.52 841.9,-76.21 844.64,-82.65"/>
</g>
<!-- Node30 -->
<g id="node30" class="node">
<title>Node30</title>
<g id="a_node30"><a xlink:title=" ">
<polygon fill="white" stroke="#bfbfbf" points="601,-56.5 601,-75.5 648,-75.5 648,-56.5 601,-56.5"/>
<text text-anchor="middle" x="624.5" y="-63.5" font-family="Helvetica,sans-Serif" font-size="10.00">deque</text>
</a>
</g>
</g>
<!-- Node25&#45;&gt;Node30 -->
<g id="edge44" class="edge">
<title>Node25&#45;&gt;Node30</title>
<path fill="none" stroke="midnightblue" d="M726.33,-112.44C706.59,-103.64 675.61,-89.81 653.01,-79.72"/>
<polygon fill="midnightblue" stroke="midnightblue" points="654.14,-76.4 643.58,-75.52 651.29,-82.79 654.14,-76.4"/>
</g>
<!-- Node31&#45;&gt;Node3 -->
<g id="edge47" class="edge">
<title>Node31&#45;&gt;Node3</title>
<path fill="none" stroke="midnightblue" d="M311.34,-168.38C336.08,-159.9 374.3,-146.19 406.5,-132 424.33,-124.15 427.96,-120.48 445.5,-112 468.91,-100.68 495.79,-88.52 515.62,-79.69"/>
<polygon fill="midnightblue" stroke="midnightblue" points="517.3,-82.78 525.02,-75.53 514.46,-76.38 517.3,-82.78"/>
</g>
<!-- Node31&#45;&gt;Node5 -->
<g id="edge46" class="edge">
<title>Node31&#45;&gt;Node5</title>
<path fill="none" stroke="midnightblue" d="M253.9,-168.41C235.44,-161.65 213.48,-150.26 201.5,-132 181.14,-100.98 184.05,-55.4 187.86,-29.96"/>
<polygon fill="midnightblue" stroke="midnightblue" points="191.36,-30.26 189.59,-19.81 184.46,-29.08 191.36,-30.26"/>
</g>
<!-- Node31&#45;&gt;Node9 -->
<g id="edge49" class="edge">
<title>Node31&#45;&gt;Node9</title>
<path fill="none" stroke="midnightblue" d="M278.08,-168.36C261.05,-147.43 222.53,-93.07 247.5,-56 256.41,-42.77 294.5,-29.24 323.6,-20.51"/>
<polygon fill="midnightblue" stroke="midnightblue" points="324.84,-23.8 333.46,-17.64 322.88,-17.08 324.84,-23.8"/>
</g>
<!-- Node31&#45;&gt;Node12 -->
<g id="edge53" class="edge">
<title>Node31&#45;&gt;Node12</title>
<path fill="none" stroke="midnightblue" d="M260.34,-168.38C244.08,-161.34 224.21,-149.65 214.5,-132 198.22,-102.41 197.69,-85.3 214.5,-56 223.82,-39.76 241.51,-28.83 257.59,-21.8"/>
<polygon fill="midnightblue" stroke="midnightblue" points="259.31,-24.88 267.3,-17.92 256.71,-18.38 259.31,-24.88"/>
</g>
<!-- Node31&#45;&gt;Node14 -->
<g id="edge55" class="edge">
<title>Node31&#45;&gt;Node14</title>
<path fill="none" stroke="midnightblue" d="M253.55,-168.5C228.32,-161 192.79,-148.67 164.5,-132 113.35,-101.85 62.86,-52.5 38.52,-27.15"/>
<polygon fill="midnightblue" stroke="midnightblue" points="40.99,-24.66 31.57,-19.81 35.91,-29.48 40.99,-24.66"/>
</g>
<!-- Node31&#45;&gt;Node15 -->
<g id="edge50" class="edge">
<title>Node31&#45;&gt;Node15</title>
<path fill="none" stroke="midnightblue" d="M259,-168.45C238.42,-160.96 209.88,-148.66 188.5,-132 149.94,-101.93 116.94,-53.94 100.9,-28.37"/>
<polygon fill="midnightblue" stroke="midnightblue" points="103.82,-26.44 95.6,-19.75 97.86,-30.1 103.82,-26.44"/>
</g>
<!-- Node31&#45;&gt;Node25 -->
<g id="edge48" class="edge">
<title>Node31&#45;&gt;Node25</title>
<path fill="none" stroke="midnightblue" d="M343.29,-170.22C427.49,-160.33 583.72,-141.99 674.7,-131.31"/>
<polygon fill="midnightblue" stroke="midnightblue" points="675.13,-134.78 684.65,-130.14 674.31,-127.83 675.13,-134.78"/>
</g>
<!-- Node31&#45;&gt;Node27 -->
<g id="edge54" class="edge">
<title>Node31&#45;&gt;Node27</title>
<path fill="none" stroke="midnightblue" d="M285.11,-168.37C284.3,-150.62 282.44,-109.67 281.35,-85.6"/>
<polygon fill="midnightblue" stroke="midnightblue" points="284.84,-85.42 280.89,-75.59 277.85,-85.74 284.84,-85.42"/>
</g>
<!-- Node31&#45;&gt;Node28 -->
<g id="edge51" class="edge">
<title>Node31&#45;&gt;Node28</title>
<path fill="none" stroke="midnightblue" d="M290.44,-168.37C300.79,-150.3 324.92,-108.18 338.59,-84.31"/>
<polygon fill="midnightblue" stroke="midnightblue" points="341.65,-86.01 343.58,-75.59 335.57,-82.53 341.65,-86.01"/>
</g>
<!-- Node32 -->
<g id="node32" class="node">
<title>Node32</title>
<g id="a_node32"><a xlink:title=" ">
<polygon fill="white" stroke="#bfbfbf" points="333,-112.5 333,-131.5 398,-131.5 398,-112.5 333,-112.5"/>
<text text-anchor="middle" x="365.5" y="-119.5" font-family="Helvetica,sans-Serif" font-size="10.00">functional</text>
</a>
</g>
</g>
<!-- Node31&#45;&gt;Node32 -->
<g id="edge52" class="edge">
<title>Node31&#45;&gt;Node32</title>
<path fill="none" stroke="midnightblue" d="M298.35,-168.32C310.72,-159.98 329.63,-147.21 344.24,-137.35"/>
<polygon fill="midnightblue" stroke="midnightblue" points="346.35,-140.15 352.68,-131.65 342.43,-134.35 346.35,-140.15"/>
</g>
<!-- Node31&#45;&gt;Node33 -->
<g id="edge56" class="edge">
<title>Node31&#45;&gt;Node33</title>
<path fill="none" stroke="midnightblue" d="M315.24,-168.45C346.46,-159.46 396.96,-144.85 440.5,-132 441.76,-131.63 443.05,-131.25 444.36,-130.86"/>
<polygon fill="midnightblue" stroke="midnightblue" points="445.74,-134.1 454.32,-127.88 443.73,-127.39 445.74,-134.1"/>
</g>
</g>
</svg>
        <g id="navigator" transform="translate(0 0)" fill="#404254">
                <rect fill="#f2f5e9" fill-opacity="0.5" stroke="#606060" stroke-width=".5" x="0" y="0" width="60" height="60"/>
                <use id="zoomplus" xlink:href="#zoomPlus" x="17" y="9" onmousedown="handleZoom(evt,'in')"/>
                <use id="zoomminus" xlink:href="#zoomMin" x="42" y="9" onmousedown="handleZoom(evt,'out')"/>
                <use id="reset" xlink:href="#resetDef" x="30" y="36" onmousedown="handleReset()"/>
                <g id="arrowUp" xlink:href="#dirArrow" transform="translate(30 24)" onmousedown="handlePan(0,-1)">
                  <use xlink:href="#rim" fill="#404040">
                        <set attributeName="fill" to="#808080" begin="arrowUp.mouseover" end="arrowUp.mouseout"/>
                  </use>
                  <path fill="none" stroke="white" stroke-width="1.5" d="M0,-3.0v7 M-2.5,-0.5L0,-3.0L2.5,-0.5"/>
                </g>
                <g id="arrowRight" xlink:href="#dirArrow" transform="rotate(90) translate(36 -43)" onmousedown="handlePan(1,0)">
                  <use xlink:href="#rim" fill="#404040">
                        <set attributeName="fill" to="#808080" begin="arrowRight.mouseover" end="arrowRight.mouseout"/>
                  </use>
                  <path fill="none" stroke="white" stroke-width="1.5" d="M0,-3.0v7 M-2.5,-0.5L0,-3.0L2.5,-0.5"/>
                </g>
                <g id="arrowDown" xlink:href="#dirArrow" transform="rotate(180) translate(-30 -48)" onmousedown="handlePan(0,1)">
                  <use xlink:href="#rim" fill="#404040">
                        <set attributeName="fill" to="#808080" begin="arrowDown.mouseover" end="arrowDown.mouseout"/>
                  </use>
                  <path fill="none" stroke="white" stroke-width="1.5" d="M0,-3.0v7 M-2.5,-0.5L0,-3.0L2.5,-0.5"/>
                </g>
                <g id="arrowLeft" xlink:href="#dirArrow" transform="rotate(270) translate(-36 17)" onmousedown="handlePan(-1,0)">
                  <use xlink:href="#rim" fill="#404040">
                        <set attributeName="fill" to="#808080" begin="arrowLeft.mouseover" end="arrowLeft.mouseout"/>
                  </use>
                  <path fill="none" stroke="white" stroke-width="1.5" d="M0,-3.0v7 M-2.5,-0.5L0,-3.0L2.5,-0.5"/>
                </g>
        </g>
        <svg viewBox="0 0 15 15" width="100%" height="30px" preserveAspectRatio="xMaxYMin meet">
         <g id="arrow_out" transform="scale(0.3 0.3)">
          <a xlink:href="SystemManager_8hpp__incl_org.svg" target="_base">
           <rect id="button" ry="5" rx="5" y="6" x="6" height="38" width="38"
                fill="#f2f5e9" fill-opacity="0.5" stroke="#606060" stroke-width="1.0"/>
           <path id="arrow"
             d="M 11.500037,31.436501 C 11.940474,20.09759 22.043105,11.32322 32.158766,21.979434 L 37.068811,17.246167 C 37.068811,17.246167 37.088388,32 37.088388,32 L 22.160133,31.978069 C 22.160133,31.978069 26.997745,27.140456 26.997745,27.140456 C 18.528582,18.264221 13.291696,25.230495 11.500037,31.436501 z"
             style="fill:#404040;"/>
          </a>
         </g>
        </svg>
</svg>
